<?xml version="1.0" encoding="utf-8"?>
<svg xmlns="http://www.w3.org/2000/svg" xmlns:xlink="http://www.w3.org/1999/xlink" width="600" height="400" viewBox="0 0 2400 1600">
<defs>
  <clipPath id="clip680">
    <rect x="0" y="0" width="2400" height="1600"/>
  </clipPath>
</defs>
<path clip-path="url(#clip680)" d="
M0 1600 L2400 1600 L2400 0 L0 0  Z
  " fill="#ffffff" fill-rule="evenodd" fill-opacity="1"/>
<defs>
  <clipPath id="clip681">
    <rect x="480" y="0" width="1681" height="1600"/>
  </clipPath>
</defs>
<defs>
  <clipPath id="clip682">
    <rect x="249" y="47" width="2104" height="1393"/>
  </clipPath>
</defs>
<path clip-path="url(#clip680)" d="
M219.866 1439.5 L2352.76 1439.5 L2352.76 47.2441 L219.866 47.2441  Z
  " fill="#ffffff" fill-rule="evenodd" fill-opacity="1"/>
<defs>
  <clipPath id="clip683">
    <rect x="219" y="47" width="2134" height="1393"/>
  </clipPath>
</defs>
<polyline clip-path="url(#clip683)" style="stroke:#000000; stroke-linecap:butt; stroke-linejoin:round; stroke-width:2; stroke-opacity:0.1; fill:none" points="
  280.231,1439.5 280.231,47.2441 
  "/>
<polyline clip-path="url(#clip683)" style="stroke:#000000; stroke-linecap:butt; stroke-linejoin:round; stroke-width:2; stroke-opacity:0.1; fill:none" points="
  783.271,1439.5 783.271,47.2441 
  "/>
<polyline clip-path="url(#clip683)" style="stroke:#000000; stroke-linecap:butt; stroke-linejoin:round; stroke-width:2; stroke-opacity:0.1; fill:none" points="
  1286.31,1439.5 1286.31,47.2441 
  "/>
<polyline clip-path="url(#clip683)" style="stroke:#000000; stroke-linecap:butt; stroke-linejoin:round; stroke-width:2; stroke-opacity:0.1; fill:none" points="
  1789.35,1439.5 1789.35,47.2441 
  "/>
<polyline clip-path="url(#clip683)" style="stroke:#000000; stroke-linecap:butt; stroke-linejoin:round; stroke-width:2; stroke-opacity:0.1; fill:none" points="
  2292.39,1439.5 2292.39,47.2441 
  "/>
<polyline clip-path="url(#clip680)" style="stroke:#000000; stroke-linecap:butt; stroke-linejoin:round; stroke-width:4; stroke-opacity:1; fill:none" points="
  219.866,1439.5 2352.76,1439.5 
  "/>
<polyline clip-path="url(#clip680)" style="stroke:#000000; stroke-linecap:butt; stroke-linejoin:round; stroke-width:4; stroke-opacity:1; fill:none" points="
  280.231,1439.5 280.231,1420.6 
  "/>
<polyline clip-path="url(#clip680)" style="stroke:#000000; stroke-linecap:butt; stroke-linejoin:round; stroke-width:4; stroke-opacity:1; fill:none" points="
  783.271,1439.5 783.271,1420.6 
  "/>
<polyline clip-path="url(#clip680)" style="stroke:#000000; stroke-linecap:butt; stroke-linejoin:round; stroke-width:4; stroke-opacity:1; fill:none" points="
  1286.31,1439.5 1286.31,1420.6 
  "/>
<polyline clip-path="url(#clip680)" style="stroke:#000000; stroke-linecap:butt; stroke-linejoin:round; stroke-width:4; stroke-opacity:1; fill:none" points="
  1789.35,1439.5 1789.35,1420.6 
  "/>
<polyline clip-path="url(#clip680)" style="stroke:#000000; stroke-linecap:butt; stroke-linejoin:round; stroke-width:4; stroke-opacity:1; fill:none" points="
  2292.39,1439.5 2292.39,1420.6 
  "/>
<path clip-path="url(#clip680)" d="M242.535 1468.69 Q238.923 1468.69 237.095 1472.26 Q235.289 1475.8 235.289 1482.93 Q235.289 1490.04 237.095 1493.6 Q238.923 1497.14 242.535 1497.14 Q246.169 1497.14 247.974 1493.6 Q249.803 1490.04 249.803 1482.93 Q249.803 1475.8 247.974 1472.26 Q246.169 1468.69 242.535 1468.69 M242.535 1464.99 Q248.345 1464.99 251.4 1469.6 Q254.479 1474.18 254.479 1482.93 Q254.479 1491.66 251.4 1496.26 Q248.345 1500.85 242.535 1500.85 Q236.724 1500.85 233.646 1496.26 Q230.59 1491.66 230.59 1482.93 Q230.59 1474.18 233.646 1469.6 Q236.724 1464.99 242.535 1464.99 Z" fill="#000000" fill-rule="evenodd" fill-opacity="1" /><path clip-path="url(#clip680)" d="M262.696 1494.29 L267.581 1494.29 L267.581 1500.17 L262.696 1500.17 L262.696 1494.29 Z" fill="#000000" fill-rule="evenodd" fill-opacity="1" /><path clip-path="url(#clip680)" d="M287.766 1468.69 Q284.155 1468.69 282.326 1472.26 Q280.52 1475.8 280.52 1482.93 Q280.52 1490.04 282.326 1493.6 Q284.155 1497.14 287.766 1497.14 Q291.4 1497.14 293.206 1493.6 Q295.034 1490.04 295.034 1482.93 Q295.034 1475.8 293.206 1472.26 Q291.4 1468.69 287.766 1468.69 M287.766 1464.99 Q293.576 1464.99 296.631 1469.6 Q299.71 1474.18 299.71 1482.93 Q299.71 1491.66 296.631 1496.26 Q293.576 1500.85 287.766 1500.85 Q281.956 1500.85 278.877 1496.26 Q275.821 1491.66 275.821 1482.93 Q275.821 1474.18 278.877 1469.6 Q281.956 1464.99 287.766 1464.99 Z" fill="#000000" fill-rule="evenodd" fill-opacity="1" /><path clip-path="url(#clip680)" d="M317.928 1468.69 Q314.317 1468.69 312.488 1472.26 Q310.682 1475.8 310.682 1482.93 Q310.682 1490.04 312.488 1493.6 Q314.317 1497.14 317.928 1497.14 Q321.562 1497.14 323.367 1493.6 Q325.196 1490.04 325.196 1482.93 Q325.196 1475.8 323.367 1472.26 Q321.562 1468.69 317.928 1468.69 M317.928 1464.99 Q323.738 1464.99 326.793 1469.6 Q329.872 1474.18 329.872 1482.93 Q329.872 1491.66 326.793 1496.26 Q323.738 1500.85 317.928 1500.85 Q312.117 1500.85 309.039 1496.26 Q305.983 1491.66 305.983 1482.93 Q305.983 1474.18 309.039 1469.6 Q312.117 1464.99 317.928 1464.99 Z" fill="#000000" fill-rule="evenodd" fill-opacity="1" /><path clip-path="url(#clip680)" d="M746.072 1468.69 Q742.461 1468.69 740.632 1472.26 Q738.827 1475.8 738.827 1482.93 Q738.827 1490.04 740.632 1493.6 Q742.461 1497.14 746.072 1497.14 Q749.706 1497.14 751.512 1493.6 Q753.341 1490.04 753.341 1482.93 Q753.341 1475.8 751.512 1472.26 Q749.706 1468.69 746.072 1468.69 M746.072 1464.99 Q751.882 1464.99 754.938 1469.6 Q758.017 1474.18 758.017 1482.93 Q758.017 1491.66 754.938 1496.26 Q751.882 1500.85 746.072 1500.85 Q740.262 1500.85 737.183 1496.26 Q734.128 1491.66 734.128 1482.93 Q734.128 1474.18 737.183 1469.6 Q740.262 1464.99 746.072 1464.99 Z" fill="#000000" fill-rule="evenodd" fill-opacity="1" /><path clip-path="url(#clip680)" d="M766.234 1494.29 L771.118 1494.29 L771.118 1500.17 L766.234 1500.17 L766.234 1494.29 Z" fill="#000000" fill-rule="evenodd" fill-opacity="1" /><path clip-path="url(#clip680)" d="M785.331 1496.24 L801.651 1496.24 L801.651 1500.17 L779.706 1500.17 L779.706 1496.24 Q782.368 1493.48 786.952 1488.85 Q791.558 1484.2 792.739 1482.86 Q794.984 1480.34 795.864 1478.6 Q796.766 1476.84 796.766 1475.15 Q796.766 1472.4 794.822 1470.66 Q792.901 1468.92 789.799 1468.92 Q787.6 1468.92 785.146 1469.69 Q782.716 1470.45 779.938 1472 L779.938 1467.28 Q782.762 1466.15 785.216 1465.57 Q787.669 1464.99 789.706 1464.99 Q795.077 1464.99 798.271 1467.67 Q801.465 1470.36 801.465 1474.85 Q801.465 1476.98 800.655 1478.9 Q799.868 1480.8 797.762 1483.39 Q797.183 1484.06 794.081 1487.28 Q790.979 1490.47 785.331 1496.24 Z" fill="#000000" fill-rule="evenodd" fill-opacity="1" /><path clip-path="url(#clip680)" d="M811.512 1465.61 L829.868 1465.61 L829.868 1469.55 L815.794 1469.55 L815.794 1478.02 Q816.813 1477.67 817.831 1477.51 Q818.85 1477.33 819.868 1477.33 Q825.655 1477.33 829.035 1480.5 Q832.414 1483.67 832.414 1489.09 Q832.414 1494.66 828.942 1497.77 Q825.47 1500.85 819.151 1500.85 Q816.975 1500.85 814.706 1500.47 Q812.461 1500.1 810.053 1499.36 L810.053 1494.66 Q812.137 1495.8 814.359 1496.35 Q816.581 1496.91 819.058 1496.91 Q823.063 1496.91 825.4 1494.8 Q827.738 1492.7 827.738 1489.09 Q827.738 1485.47 825.4 1483.37 Q823.063 1481.26 819.058 1481.26 Q817.183 1481.26 815.308 1481.68 Q813.456 1482.1 811.512 1482.97 L811.512 1465.61 Z" fill="#000000" fill-rule="evenodd" fill-opacity="1" /><path clip-path="url(#clip680)" d="M1248.61 1468.69 Q1245 1468.69 1243.17 1472.26 Q1241.37 1475.8 1241.37 1482.93 Q1241.37 1490.04 1243.17 1493.6 Q1245 1497.14 1248.61 1497.14 Q1252.25 1497.14 1254.05 1493.6 Q1255.88 1490.04 1255.88 1482.93 Q1255.88 1475.8 1254.05 1472.26 Q1252.25 1468.69 1248.61 1468.69 M1248.61 1464.99 Q1254.42 1464.99 1257.48 1469.6 Q1260.56 1474.18 1260.56 1482.93 Q1260.56 1491.66 1257.48 1496.26 Q1254.42 1500.85 1248.61 1500.85 Q1242.8 1500.85 1239.73 1496.26 Q1236.67 1491.66 1236.67 1482.93 Q1236.67 1474.18 1239.73 1469.6 Q1242.8 1464.99 1248.61 1464.99 Z" fill="#000000" fill-rule="evenodd" fill-opacity="1" /><path clip-path="url(#clip680)" d="M1268.78 1494.29 L1273.66 1494.29 L1273.66 1500.17 L1268.78 1500.17 L1268.78 1494.29 Z" fill="#000000" fill-rule="evenodd" fill-opacity="1" /><path clip-path="url(#clip680)" d="M1283.89 1465.61 L1302.25 1465.61 L1302.25 1469.55 L1288.17 1469.55 L1288.17 1478.02 Q1289.19 1477.67 1290.21 1477.51 Q1291.23 1477.33 1292.25 1477.33 Q1298.04 1477.33 1301.42 1480.5 Q1304.79 1483.67 1304.79 1489.09 Q1304.79 1494.66 1301.32 1497.77 Q1297.85 1500.85 1291.53 1500.85 Q1289.36 1500.85 1287.09 1500.47 Q1284.84 1500.1 1282.43 1499.36 L1282.43 1494.66 Q1284.52 1495.8 1286.74 1496.35 Q1288.96 1496.91 1291.44 1496.91 Q1295.44 1496.91 1297.78 1494.8 Q1300.12 1492.7 1300.12 1489.09 Q1300.12 1485.47 1297.78 1483.37 Q1295.44 1481.26 1291.44 1481.26 Q1289.56 1481.26 1287.69 1481.68 Q1285.84 1482.1 1283.89 1482.97 L1283.89 1465.61 Z" fill="#000000" fill-rule="evenodd" fill-opacity="1" /><path clip-path="url(#clip680)" d="M1324.01 1468.69 Q1320.4 1468.69 1318.57 1472.26 Q1316.76 1475.8 1316.76 1482.93 Q1316.76 1490.04 1318.57 1493.6 Q1320.4 1497.14 1324.01 1497.14 Q1327.64 1497.14 1329.45 1493.6 Q1331.28 1490.04 1331.28 1482.93 Q1331.28 1475.8 1329.45 1472.26 Q1327.64 1468.69 1324.01 1468.69 M1324.01 1464.99 Q1329.82 1464.99 1332.87 1469.6 Q1335.95 1474.18 1335.95 1482.93 Q1335.95 1491.66 1332.87 1496.26 Q1329.82 1500.85 1324.01 1500.85 Q1318.2 1500.85 1315.12 1496.26 Q1312.06 1491.66 1312.06 1482.93 Q1312.06 1474.18 1315.12 1469.6 Q1318.2 1464.99 1324.01 1464.99 Z" fill="#000000" fill-rule="evenodd" fill-opacity="1" /><path clip-path="url(#clip680)" d="M1752.15 1468.69 Q1748.54 1468.69 1746.71 1472.26 Q1744.91 1475.8 1744.91 1482.93 Q1744.91 1490.04 1746.71 1493.6 Q1748.54 1497.14 1752.15 1497.14 Q1755.79 1497.14 1757.59 1493.6 Q1759.42 1490.04 1759.42 1482.93 Q1759.42 1475.8 1757.59 1472.26 Q1755.79 1468.69 1752.15 1468.69 M1752.15 1464.99 Q1757.96 1464.99 1761.02 1469.6 Q1764.1 1474.18 1764.1 1482.93 Q1764.1 1491.66 1761.02 1496.26 Q1757.96 1500.85 1752.15 1500.85 Q1746.34 1500.85 1743.26 1496.26 Q1740.21 1491.66 1740.21 1482.93 Q1740.21 1474.18 1743.26 1469.6 Q1746.34 1464.99 1752.15 1464.99 Z" fill="#000000" fill-rule="evenodd" fill-opacity="1" /><path clip-path="url(#clip680)" d="M1772.31 1494.29 L1777.2 1494.29 L1777.2 1500.17 L1772.31 1500.17 L1772.31 1494.29 Z" fill="#000000" fill-rule="evenodd" fill-opacity="1" /><path clip-path="url(#clip680)" d="M1786.2 1465.61 L1808.43 1465.61 L1808.43 1467.6 L1795.88 1500.17 L1790.99 1500.17 L1802.8 1469.55 L1786.2 1469.55 L1786.2 1465.61 Z" fill="#000000" fill-rule="evenodd" fill-opacity="1" /><path clip-path="url(#clip680)" d="M1817.59 1465.61 L1835.95 1465.61 L1835.95 1469.55 L1821.87 1469.55 L1821.87 1478.02 Q1822.89 1477.67 1823.91 1477.51 Q1824.93 1477.33 1825.95 1477.33 Q1831.74 1477.33 1835.11 1480.5 Q1838.49 1483.67 1838.49 1489.09 Q1838.49 1494.66 1835.02 1497.77 Q1831.55 1500.85 1825.23 1500.85 Q1823.05 1500.85 1820.79 1500.47 Q1818.54 1500.1 1816.13 1499.36 L1816.13 1494.66 Q1818.22 1495.8 1820.44 1496.35 Q1822.66 1496.91 1825.14 1496.91 Q1829.14 1496.91 1831.48 1494.8 Q1833.82 1492.7 1833.82 1489.09 Q1833.82 1485.47 1831.48 1483.37 Q1829.14 1481.26 1825.14 1481.26 Q1823.26 1481.26 1821.39 1481.68 Q1819.54 1482.1 1817.59 1482.97 L1817.59 1465.61 Z" fill="#000000" fill-rule="evenodd" fill-opacity="1" /><path clip-path="url(#clip680)" d="M2244.46 1496.24 L2252.1 1496.24 L2252.1 1469.87 L2243.79 1471.54 L2243.79 1467.28 L2252.06 1465.61 L2256.73 1465.61 L2256.73 1496.24 L2264.37 1496.24 L2264.37 1500.17 L2244.46 1500.17 L2244.46 1496.24 Z" fill="#000000" fill-rule="evenodd" fill-opacity="1" /><path clip-path="url(#clip680)" d="M2273.81 1494.29 L2278.7 1494.29 L2278.7 1500.17 L2273.81 1500.17 L2273.81 1494.29 Z" fill="#000000" fill-rule="evenodd" fill-opacity="1" /><path clip-path="url(#clip680)" d="M2298.88 1468.69 Q2295.27 1468.69 2293.44 1472.26 Q2291.64 1475.8 2291.64 1482.93 Q2291.64 1490.04 2293.44 1493.6 Q2295.27 1497.14 2298.88 1497.14 Q2302.52 1497.14 2304.32 1493.6 Q2306.15 1490.04 2306.15 1482.93 Q2306.15 1475.8 2304.32 1472.26 Q2302.52 1468.69 2298.88 1468.69 M2298.88 1464.99 Q2304.69 1464.99 2307.75 1469.6 Q2310.83 1474.18 2310.83 1482.93 Q2310.83 1491.66 2307.75 1496.26 Q2304.69 1500.85 2298.88 1500.85 Q2293.07 1500.85 2290 1496.26 Q2286.94 1491.66 2286.94 1482.93 Q2286.94 1474.18 2290 1469.6 Q2293.07 1464.99 2298.88 1464.99 Z" fill="#000000" fill-rule="evenodd" fill-opacity="1" /><path clip-path="url(#clip680)" d="M2329.05 1468.69 Q2325.43 1468.69 2323.61 1472.26 Q2321.8 1475.8 2321.8 1482.93 Q2321.8 1490.04 2323.61 1493.6 Q2325.43 1497.14 2329.05 1497.14 Q2332.68 1497.14 2334.49 1493.6 Q2336.31 1490.04 2336.31 1482.93 Q2336.31 1475.8 2334.49 1472.26 Q2332.68 1468.69 2329.05 1468.69 M2329.05 1464.99 Q2334.86 1464.99 2337.91 1469.6 Q2340.99 1474.18 2340.99 1482.93 Q2340.99 1491.66 2337.91 1496.26 Q2334.86 1500.85 2329.05 1500.85 Q2323.24 1500.85 2320.16 1496.26 Q2317.1 1491.66 2317.1 1482.93 Q2317.1 1474.18 2320.16 1469.6 Q2323.24 1464.99 2329.05 1464.99 Z" fill="#000000" fill-rule="evenodd" fill-opacity="1" /><path clip-path="url(#clip680)" d="M1298.25 1535.75 Q1298.25 1541.16 1296.51 1547.24 Q1294.8 1553.3 1292.09 1558.19 Q1289.39 1563.06 1285.85 1566.28 Q1282.3 1569.47 1278.92 1569.47 Q1276.76 1569.47 1275.15 1568.27 Q1273.58 1567.05 1272.71 1565.02 Q1271.84 1562.96 1271.42 1560.71 Q1271 1558.42 1271 1555.94 Q1271 1552.24 1271.8 1548.21 Q1272.61 1544.15 1273.96 1540.48 Q1275.32 1536.78 1277.22 1533.43 Q1279.12 1530.05 1281.21 1527.6 Q1283.33 1525.12 1285.72 1523.67 Q1288.1 1522.22 1290.32 1522.22 Q1291.93 1522.22 1293.22 1522.93 Q1294.54 1523.6 1295.38 1524.8 Q1296.22 1525.96 1296.8 1527.34 Q1297.41 1528.73 1297.7 1530.34 Q1297.99 1531.91 1298.12 1533.23 Q1298.25 1534.52 1298.25 1535.75 M1293.9 1531.66 Q1293.9 1530.01 1293.77 1528.79 Q1293.64 1527.53 1293.29 1526.28 Q1292.93 1525.02 1292.16 1524.35 Q1291.42 1523.67 1290.26 1523.67 Q1286.88 1523.67 1283.08 1530.59 Q1281.85 1532.75 1280.76 1535.68 Q1279.66 1538.61 1279.28 1540 Q1278.89 1541.38 1277.99 1544.8 L1291.77 1544.8 Q1293.9 1536 1293.9 1531.66 M1291.19 1546.89 L1277.47 1546.89 Q1275.35 1554.94 1275.35 1559.96 Q1275.35 1564.34 1276.25 1566.18 Q1277.18 1567.98 1278.92 1567.98 Q1280.92 1567.98 1282.79 1565.99 Q1284.66 1563.96 1286.56 1560.29 Q1289.07 1555.52 1291.19 1546.89 Z" fill="#000000" fill-rule="evenodd" fill-opacity="1" /><polyline clip-path="url(#clip683)" style="stroke:#000000; stroke-linecap:butt; stroke-linejoin:round; stroke-width:2; stroke-opacity:0.1; fill:none" points="
  219.866,1439.5 2352.76,1439.5 
  "/>
<polyline clip-path="url(#clip683)" style="stroke:#000000; stroke-linecap:butt; stroke-linejoin:round; stroke-width:2; stroke-opacity:0.1; fill:none" points="
  219.866,1161.05 2352.76,1161.05 
  "/>
<polyline clip-path="url(#clip683)" style="stroke:#000000; stroke-linecap:butt; stroke-linejoin:round; stroke-width:2; stroke-opacity:0.1; fill:none" points="
  219.866,882.599 2352.76,882.599 
  "/>
<polyline clip-path="url(#clip683)" style="stroke:#000000; stroke-linecap:butt; stroke-linejoin:round; stroke-width:2; stroke-opacity:0.1; fill:none" points="
  219.866,604.147 2352.76,604.147 
  "/>
<polyline clip-path="url(#clip683)" style="stroke:#000000; stroke-linecap:butt; stroke-linejoin:round; stroke-width:2; stroke-opacity:0.1; fill:none" points="
  219.866,325.696 2352.76,325.696 
  "/>
<polyline clip-path="url(#clip683)" style="stroke:#000000; stroke-linecap:butt; stroke-linejoin:round; stroke-width:2; stroke-opacity:0.1; fill:none" points="
  219.866,47.2441 2352.76,47.2441 
  "/>
<polyline clip-path="url(#clip680)" style="stroke:#000000; stroke-linecap:butt; stroke-linejoin:round; stroke-width:4; stroke-opacity:1; fill:none" points="
  219.866,1439.5 219.866,47.2441 
  "/>
<polyline clip-path="url(#clip680)" style="stroke:#000000; stroke-linecap:butt; stroke-linejoin:round; stroke-width:4; stroke-opacity:1; fill:none" points="
  219.866,1439.5 238.764,1439.5 
  "/>
<polyline clip-path="url(#clip680)" style="stroke:#000000; stroke-linecap:butt; stroke-linejoin:round; stroke-width:4; stroke-opacity:1; fill:none" points="
  219.866,1161.05 238.764,1161.05 
  "/>
<polyline clip-path="url(#clip680)" style="stroke:#000000; stroke-linecap:butt; stroke-linejoin:round; stroke-width:4; stroke-opacity:1; fill:none" points="
  219.866,882.599 238.764,882.599 
  "/>
<polyline clip-path="url(#clip680)" style="stroke:#000000; stroke-linecap:butt; stroke-linejoin:round; stroke-width:4; stroke-opacity:1; fill:none" points="
  219.866,604.147 238.764,604.147 
  "/>
<polyline clip-path="url(#clip680)" style="stroke:#000000; stroke-linecap:butt; stroke-linejoin:round; stroke-width:4; stroke-opacity:1; fill:none" points="
  219.866,325.696 238.764,325.696 
  "/>
<polyline clip-path="url(#clip680)" style="stroke:#000000; stroke-linecap:butt; stroke-linejoin:round; stroke-width:4; stroke-opacity:1; fill:none" points="
  219.866,47.2441 238.764,47.2441 
  "/>
<path clip-path="url(#clip680)" d="M126.691 1425.3 Q123.08 1425.3 121.251 1428.87 Q119.445 1432.41 119.445 1439.54 Q119.445 1446.64 121.251 1450.21 Q123.08 1453.75 126.691 1453.75 Q130.325 1453.75 132.13 1450.21 Q133.959 1446.64 133.959 1439.54 Q133.959 1432.41 132.13 1428.87 Q130.325 1425.3 126.691 1425.3 M126.691 1421.6 Q132.501 1421.6 135.556 1426.2 Q138.635 1430.79 138.635 1439.54 Q138.635 1448.26 135.556 1452.87 Q132.501 1457.45 126.691 1457.45 Q120.88 1457.45 117.802 1452.87 Q114.746 1448.26 114.746 1439.54 Q114.746 1430.79 117.802 1426.2 Q120.88 1421.6 126.691 1421.6 Z" fill="#000000" fill-rule="evenodd" fill-opacity="1" /><path clip-path="url(#clip680)" d="M146.853 1450.9 L151.737 1450.9 L151.737 1456.78 L146.853 1456.78 L146.853 1450.9 Z" fill="#000000" fill-rule="evenodd" fill-opacity="1" /><path clip-path="url(#clip680)" d="M171.922 1425.3 Q168.311 1425.3 166.482 1428.87 Q164.677 1432.41 164.677 1439.54 Q164.677 1446.64 166.482 1450.21 Q168.311 1453.75 171.922 1453.75 Q175.556 1453.75 177.362 1450.21 Q179.19 1446.64 179.19 1439.54 Q179.19 1432.41 177.362 1428.87 Q175.556 1425.3 171.922 1425.3 M171.922 1421.6 Q177.732 1421.6 180.788 1426.2 Q183.866 1430.79 183.866 1439.54 Q183.866 1448.26 180.788 1452.87 Q177.732 1457.45 171.922 1457.45 Q166.112 1457.45 163.033 1452.87 Q159.978 1448.26 159.978 1439.54 Q159.978 1430.79 163.033 1426.2 Q166.112 1421.6 171.922 1421.6 Z" fill="#000000" fill-rule="evenodd" fill-opacity="1" /><path clip-path="url(#clip680)" d="M128.288 1146.85 Q124.677 1146.85 122.848 1150.41 Q121.043 1153.96 121.043 1161.09 Q121.043 1168.19 122.848 1171.76 Q124.677 1175.3 128.288 1175.3 Q131.922 1175.3 133.728 1171.76 Q135.556 1168.19 135.556 1161.09 Q135.556 1153.96 133.728 1150.41 Q131.922 1146.85 128.288 1146.85 M128.288 1143.15 Q134.098 1143.15 137.154 1147.75 Q140.232 1152.34 140.232 1161.09 Q140.232 1169.81 137.154 1174.42 Q134.098 1179 128.288 1179 Q122.478 1179 119.399 1174.42 Q116.343 1169.81 116.343 1161.09 Q116.343 1152.34 119.399 1147.75 Q122.478 1143.15 128.288 1143.15 Z" fill="#000000" fill-rule="evenodd" fill-opacity="1" /><path clip-path="url(#clip680)" d="M148.45 1172.45 L153.334 1172.45 L153.334 1178.33 L148.45 1178.33 L148.45 1172.45 Z" fill="#000000" fill-rule="evenodd" fill-opacity="1" /><path clip-path="url(#clip680)" d="M167.547 1174.4 L183.866 1174.4 L183.866 1178.33 L161.922 1178.33 L161.922 1174.4 Q164.584 1171.64 169.167 1167.01 Q173.774 1162.36 174.954 1161.02 Q177.2 1158.49 178.079 1156.76 Q178.982 1155 178.982 1153.31 Q178.982 1150.55 177.038 1148.82 Q175.116 1147.08 172.014 1147.08 Q169.815 1147.08 167.362 1147.84 Q164.931 1148.61 162.153 1150.16 L162.153 1145.44 Q164.977 1144.3 167.431 1143.72 Q169.885 1143.15 171.922 1143.15 Q177.292 1143.15 180.487 1145.83 Q183.681 1148.52 183.681 1153.01 Q183.681 1155.14 182.871 1157.06 Q182.084 1158.96 179.977 1161.55 Q179.399 1162.22 176.297 1165.44 Q173.195 1168.63 167.547 1174.4 Z" fill="#000000" fill-rule="evenodd" fill-opacity="1" /><path clip-path="url(#clip680)" d="M126.205 868.397 Q122.593 868.397 120.765 871.962 Q118.959 875.504 118.959 882.634 Q118.959 889.74 120.765 893.305 Q122.593 896.846 126.205 896.846 Q129.839 896.846 131.644 893.305 Q133.473 889.74 133.473 882.634 Q133.473 875.504 131.644 871.962 Q129.839 868.397 126.205 868.397 M126.205 864.694 Q132.015 864.694 135.07 869.3 Q138.149 873.884 138.149 882.634 Q138.149 891.36 135.07 895.967 Q132.015 900.55 126.205 900.55 Q120.394 900.55 117.316 895.967 Q114.26 891.36 114.26 882.634 Q114.26 873.884 117.316 869.3 Q120.394 864.694 126.205 864.694 Z" fill="#000000" fill-rule="evenodd" fill-opacity="1" /><path clip-path="url(#clip680)" d="M146.366 893.999 L151.251 893.999 L151.251 899.879 L146.366 899.879 L146.366 893.999 Z" fill="#000000" fill-rule="evenodd" fill-opacity="1" /><path clip-path="url(#clip680)" d="M174.283 869.393 L162.477 887.842 L174.283 887.842 L174.283 869.393 M173.056 865.319 L178.936 865.319 L178.936 887.842 L183.866 887.842 L183.866 891.731 L178.936 891.731 L178.936 899.879 L174.283 899.879 L174.283 891.731 L158.681 891.731 L158.681 887.217 L173.056 865.319 Z" fill="#000000" fill-rule="evenodd" fill-opacity="1" /><path clip-path="url(#clip680)" d="M126.529 589.946 Q122.918 589.946 121.089 593.511 Q119.283 597.052 119.283 604.182 Q119.283 611.288 121.089 614.853 Q122.918 618.395 126.529 618.395 Q130.163 618.395 131.968 614.853 Q133.797 611.288 133.797 604.182 Q133.797 597.052 131.968 593.511 Q130.163 589.946 126.529 589.946 M126.529 586.242 Q132.339 586.242 135.394 590.849 Q138.473 595.432 138.473 604.182 Q138.473 612.909 135.394 617.515 Q132.339 622.099 126.529 622.099 Q120.718 622.099 117.64 617.515 Q114.584 612.909 114.584 604.182 Q114.584 595.432 117.64 590.849 Q120.718 586.242 126.529 586.242 Z" fill="#000000" fill-rule="evenodd" fill-opacity="1" /><path clip-path="url(#clip680)" d="M146.691 615.548 L151.575 615.548 L151.575 621.427 L146.691 621.427 L146.691 615.548 Z" fill="#000000" fill-rule="evenodd" fill-opacity="1" /><path clip-path="url(#clip680)" d="M172.339 602.284 Q169.19 602.284 167.339 604.437 Q165.51 606.589 165.51 610.339 Q165.51 614.066 167.339 616.242 Q169.19 618.395 172.339 618.395 Q175.487 618.395 177.315 616.242 Q179.167 614.066 179.167 610.339 Q179.167 606.589 177.315 604.437 Q175.487 602.284 172.339 602.284 M181.621 587.631 L181.621 591.89 Q179.862 591.057 178.056 590.617 Q176.274 590.177 174.514 590.177 Q169.885 590.177 167.431 593.302 Q165.001 596.427 164.653 602.747 Q166.019 600.733 168.079 599.668 Q170.139 598.58 172.616 598.58 Q177.825 598.58 180.834 601.751 Q183.866 604.9 183.866 610.339 Q183.866 615.663 180.718 618.881 Q177.57 622.099 172.339 622.099 Q166.343 622.099 163.172 617.515 Q160.001 612.909 160.001 604.182 Q160.001 595.988 163.89 591.126 Q167.778 586.242 174.329 586.242 Q176.089 586.242 177.871 586.589 Q179.676 586.937 181.621 587.631 Z" fill="#000000" fill-rule="evenodd" fill-opacity="1" /><path clip-path="url(#clip680)" d="M126.783 311.494 Q123.172 311.494 121.343 315.059 Q119.538 318.601 119.538 325.73 Q119.538 332.837 121.343 336.402 Q123.172 339.943 126.783 339.943 Q130.417 339.943 132.223 336.402 Q134.052 332.837 134.052 325.73 Q134.052 318.601 132.223 315.059 Q130.417 311.494 126.783 311.494 M126.783 307.791 Q132.593 307.791 135.649 312.397 Q138.728 316.98 138.728 325.73 Q138.728 334.457 135.649 339.064 Q132.593 343.647 126.783 343.647 Q120.973 343.647 117.894 339.064 Q114.839 334.457 114.839 325.73 Q114.839 316.98 117.894 312.397 Q120.973 307.791 126.783 307.791 Z" fill="#000000" fill-rule="evenodd" fill-opacity="1" /><path clip-path="url(#clip680)" d="M146.945 337.096 L151.829 337.096 L151.829 342.976 L146.945 342.976 L146.945 337.096 Z" fill="#000000" fill-rule="evenodd" fill-opacity="1" /><path clip-path="url(#clip680)" d="M172.014 326.564 Q168.681 326.564 166.76 328.346 Q164.862 330.129 164.862 333.253 Q164.862 336.378 166.76 338.161 Q168.681 339.943 172.014 339.943 Q175.348 339.943 177.269 338.161 Q179.19 336.355 179.19 333.253 Q179.19 330.129 177.269 328.346 Q175.371 326.564 172.014 326.564 M167.339 324.573 Q164.329 323.832 162.64 321.772 Q160.973 319.712 160.973 316.749 Q160.973 312.605 163.913 310.198 Q166.876 307.791 172.014 307.791 Q177.176 307.791 180.116 310.198 Q183.056 312.605 183.056 316.749 Q183.056 319.712 181.366 321.772 Q179.7 323.832 176.714 324.573 Q180.093 325.36 181.968 327.652 Q183.866 329.943 183.866 333.253 Q183.866 338.277 180.788 340.962 Q177.732 343.647 172.014 343.647 Q166.297 343.647 163.218 340.962 Q160.163 338.277 160.163 333.253 Q160.163 329.943 162.061 327.652 Q163.959 325.36 167.339 324.573 M165.626 317.189 Q165.626 319.874 167.292 321.379 Q168.982 322.883 172.014 322.883 Q175.024 322.883 176.714 321.379 Q178.426 319.874 178.426 317.189 Q178.426 314.504 176.714 312.999 Q175.024 311.494 172.014 311.494 Q168.982 311.494 167.292 312.999 Q165.626 314.504 165.626 317.189 Z" fill="#000000" fill-rule="evenodd" fill-opacity="1" /><path clip-path="url(#clip680)" d="M117.501 60.5889 L125.14 60.5889 L125.14 34.2233 L116.83 35.89 L116.83 31.6308 L125.093 29.9641 L129.769 29.9641 L129.769 60.5889 L137.408 60.5889 L137.408 64.5241 L117.501 64.5241 L117.501 60.5889 Z" fill="#000000" fill-rule="evenodd" fill-opacity="1" /><path clip-path="url(#clip680)" d="M146.853 58.6445 L151.737 58.6445 L151.737 64.5241 L146.853 64.5241 L146.853 58.6445 Z" fill="#000000" fill-rule="evenodd" fill-opacity="1" /><path clip-path="url(#clip680)" d="M171.922 33.0428 Q168.311 33.0428 166.482 36.6076 Q164.677 40.1492 164.677 47.2788 Q164.677 54.3853 166.482 57.9501 Q168.311 61.4917 171.922 61.4917 Q175.556 61.4917 177.362 57.9501 Q179.19 54.3853 179.19 47.2788 Q179.19 40.1492 177.362 36.6076 Q175.556 33.0428 171.922 33.0428 M171.922 29.3391 Q177.732 29.3391 180.788 33.9456 Q183.866 38.5289 183.866 47.2788 Q183.866 56.0056 180.788 60.6121 Q177.732 65.1954 171.922 65.1954 Q166.112 65.1954 163.033 60.6121 Q159.978 56.0056 159.978 47.2788 Q159.978 38.5289 163.033 33.9456 Q166.112 29.3391 171.922 29.3391 Z" fill="#000000" fill-rule="evenodd" fill-opacity="1" /><path clip-path="url(#clip680)" d="M16.4842 820.637 L16.4842 811.056 L48.8219 798.93 L16.4842 786.739 L16.4842 777.159 L64.0042 777.159 L64.0042 783.429 L22.277 783.429 L54.8694 795.683 L54.8694 802.144 L22.277 814.398 L64.0042 814.398 L64.0042 820.637 L16.4842 820.637 Z" fill="#000000" fill-rule="evenodd" fill-opacity="1" /><path clip-path="url(#clip680)" d="M46.0847 748.45 Q46.0847 755.547 47.7079 758.285 Q49.3312 761.022 53.2461 761.022 Q56.3653 761.022 58.2114 758.985 Q60.0256 756.916 60.0256 753.383 Q60.0256 748.513 56.5881 745.585 Q53.1188 742.625 47.3897 742.625 L46.0847 742.625 L46.0847 748.45 M43.6657 736.769 L64.0042 736.769 L64.0042 742.625 L58.5933 742.625 Q61.8398 744.63 63.3994 747.622 Q64.9272 750.614 64.9272 754.943 Q64.9272 760.417 61.8716 763.664 Q58.7843 766.878 53.6281 766.878 Q47.6125 766.878 44.5569 762.868 Q41.5014 758.826 41.5014 750.837 L41.5014 742.625 L40.9285 742.625 Q36.8862 742.625 34.6901 745.299 Q32.4621 747.94 32.4621 752.747 Q32.4621 755.802 33.1941 758.698 Q33.9262 761.595 35.3903 764.268 L29.9795 764.268 Q28.7381 761.054 28.1334 758.03 Q27.4968 755.006 27.4968 752.142 Q27.4968 744.407 31.5072 740.588 Q35.5176 736.769 43.6657 736.769 Z" fill="#000000" fill-rule="evenodd" fill-opacity="1" /><path clip-path="url(#clip680)" d="M29.4065 701.98 L34.9447 701.98 Q33.6716 704.463 33.035 707.136 Q32.3984 709.81 32.3984 712.674 Q32.3984 717.035 33.7352 719.231 Q35.072 721.395 37.7456 721.395 Q39.7826 721.395 40.9603 719.836 Q42.1061 718.276 43.1565 713.566 L43.6021 711.56 Q44.9389 705.322 47.3897 702.712 Q49.8086 700.07 54.1691 700.07 Q59.1344 700.07 62.0308 704.017 Q64.9272 707.932 64.9272 714.807 Q64.9272 717.671 64.3543 720.791 Q63.8132 723.878 62.6992 727.316 L56.6518 727.316 Q58.3387 724.069 59.198 720.918 Q60.0256 717.767 60.0256 714.68 Q60.0256 710.542 58.6251 708.314 Q57.1929 706.086 54.6147 706.086 Q52.2276 706.086 50.9545 707.709 Q49.6813 709.301 48.5037 714.743 L48.0262 716.78 Q46.8804 722.223 44.5251 724.642 Q42.138 727.061 38.0002 727.061 Q32.9713 727.061 30.2341 723.496 Q27.4968 719.931 27.4968 713.375 Q27.4968 710.128 27.9743 707.264 Q28.4517 704.399 29.4065 701.98 Z" fill="#000000" fill-rule="evenodd" fill-opacity="1" /><path clip-path="url(#clip680)" d="M29.4065 668.019 L34.9447 668.019 Q33.6716 670.502 33.035 673.175 Q32.3984 675.849 32.3984 678.713 Q32.3984 683.074 33.7352 685.27 Q35.072 687.434 37.7456 687.434 Q39.7826 687.434 40.9603 685.875 Q42.1061 684.315 43.1565 679.605 L43.6021 677.599 Q44.9389 671.361 47.3897 668.751 Q49.8086 666.109 54.1691 666.109 Q59.1344 666.109 62.0308 670.056 Q64.9272 673.971 64.9272 680.846 Q64.9272 683.71 64.3543 686.83 Q63.8132 689.917 62.6992 693.354 L56.6518 693.354 Q58.3387 690.108 59.198 686.957 Q60.0256 683.806 60.0256 680.719 Q60.0256 676.581 58.6251 674.353 Q57.1929 672.125 54.6147 672.125 Q52.2276 672.125 50.9545 673.748 Q49.6813 675.34 48.5037 680.782 L48.0262 682.819 Q46.8804 688.262 44.5251 690.681 Q42.138 693.1 38.0002 693.1 Q32.9713 693.1 30.2341 689.535 Q27.4968 685.97 27.4968 679.414 Q27.4968 676.167 27.9743 673.302 Q28.4517 670.438 29.4065 668.019 Z" fill="#000000" fill-rule="evenodd" fill-opacity="1" /><circle clip-path="url(#clip683)" cx="280.231" cy="743.373" r="14" fill="#009af9" fill-rule="evenodd" fill-opacity="0.5" stroke="#000000" stroke-opacity="0.5" stroke-width="3.2"/>
<circle clip-path="url(#clip683)" cx="2292.39" cy="743.373" r="14" fill="#009af9" fill-rule="evenodd" fill-opacity="0.5" stroke="#000000" stroke-opacity="0.5" stroke-width="3.2"/>
<polyline clip-path="url(#clip683)" style="stroke:#009af9; stroke-linecap:butt; stroke-linejoin:round; stroke-width:4; stroke-opacity:0.5; fill:none" points="
  280.231,1439.5 280.231,743.373 
  "/>
<polyline clip-path="url(#clip683)" style="stroke:#009af9; stroke-linecap:butt; stroke-linejoin:round; stroke-width:4; stroke-opacity:0.5; fill:none" points="
  2292.39,1439.5 2292.39,743.373 
  "/>
<circle clip-path="url(#clip683)" cx="280.231" cy="325.696" r="14" fill="#e26f46" fill-rule="evenodd" fill-opacity="0.5" stroke="#000000" stroke-opacity="0.5" stroke-width="3.2"/>
<circle clip-path="url(#clip683)" cx="2292.39" cy="1161.05" r="14" fill="#e26f46" fill-rule="evenodd" fill-opacity="0.5" stroke="#000000" stroke-opacity="0.5" stroke-width="3.2"/>
<polyline clip-path="url(#clip683)" style="stroke:#e26f46; stroke-linecap:butt; stroke-linejoin:round; stroke-width:4; stroke-opacity:0.5; fill:none" points="
  280.231,1439.5 280.231,325.696 
  "/>
<polyline clip-path="url(#clip683)" style="stroke:#e26f46; stroke-linecap:butt; stroke-linejoin:round; stroke-width:4; stroke-opacity:0.5; fill:none" points="
  2292.39,1439.5 2292.39,1161.05 
  "/>
<path clip-path="url(#clip680)" d="
M1896.53 216.184 L2281.66 216.184 L2281.66 93.6527 L1896.53 93.6527  Z
  " fill="#ffffff" fill-rule="evenodd" fill-opacity="1"/>
<polyline clip-path="url(#clip680)" style="stroke:#000000; stroke-linecap:butt; stroke-linejoin:round; stroke-width:4; stroke-opacity:1; fill:none" points="
  1896.53,216.184 2281.66,216.184 2281.66,93.6527 1896.53,93.6527 1896.53,216.184 
  "/>
<circle clip-path="url(#clip680)" cx="1991.32" cy="134.496" r="23" fill="#009af9" fill-rule="evenodd" fill-opacity="0.5" stroke="#000000" stroke-opacity="0.5" stroke-width="5.12"/>
<path clip-path="url(#clip680)" d="M2111.18 132.177 Q2111.18 135.597 2109.45 138.899 Q2107.74 142.202 2105.04 144.24 Q2102.35 146.254 2099.61 146.254 Q2097.97 146.254 2096.87 145.364 Q2095.79 144.45 2095.21 143.162 Q2094.76 144.755 2093.8 148.573 Q2092.84 152.391 2092.84 152.765 Q2092.84 152.976 2092.89 153.07 Q2092.94 153.164 2093.15 153.281 Q2093.36 153.421 2093.87 153.468 Q2094.39 153.538 2095.25 153.538 Q2095.7 153.538 2095.86 153.538 Q2096.05 153.562 2096.21 153.679 Q2096.4 153.796 2096.4 154.054 Q2096.4 155.014 2095.54 155.014 Q2094.76 155.014 2093.17 154.944 Q2091.58 154.873 2090.78 154.873 Q2090.1 154.873 2088.74 154.944 Q2087.38 155.014 2086.75 155.014 Q2086.12 155.014 2086.12 154.452 Q2086.12 154.124 2086.21 153.913 Q2086.28 153.726 2086.47 153.632 Q2086.66 153.562 2086.82 153.538 Q2086.96 153.538 2087.24 153.538 Q2088.32 153.538 2088.79 153.351 Q2089.26 153.187 2089.42 152.836 Q2089.61 152.508 2089.82 151.571 L2095.21 130.21 Q2095.54 128.781 2095.54 127.774 Q2095.54 126.509 2095.14 126.04 Q2094.74 125.572 2094.04 125.572 Q2092.82 125.572 2092.02 127.024 Q2091.23 128.476 2090.55 131.287 Q2090.34 132.06 2090.19 132.224 Q2090.08 132.388 2089.73 132.388 Q2089.14 132.364 2089.14 131.896 Q2089.14 131.779 2089.33 131.029 Q2089.52 130.256 2089.87 129.132 Q2090.24 127.984 2090.64 127.258 Q2090.87 126.766 2091.08 126.439 Q2091.3 126.111 2091.72 125.595 Q2092.16 125.08 2092.79 124.799 Q2093.43 124.518 2094.2 124.518 Q2095.7 124.518 2096.94 125.408 Q2098.18 126.298 2098.51 128.102 Q2099.84 126.532 2101.48 125.525 Q2103.12 124.518 2104.79 124.518 Q2107.55 124.518 2109.35 126.673 Q2111.18 128.804 2111.18 132.177 M2107.71 130.069 Q2107.71 127.938 2106.9 126.766 Q2106.1 125.572 2104.65 125.572 Q2102.84 125.572 2100.76 127.399 Q2098.7 129.132 2098.28 130.748 L2095.91 140.141 L2095.77 140.914 Q2095.77 141.054 2095.84 141.476 Q2095.93 141.874 2096.19 142.53 Q2096.47 143.186 2096.85 143.771 Q2097.25 144.333 2097.95 144.755 Q2098.67 145.176 2099.56 145.176 Q2100.99 145.176 2102.54 143.912 Q2104.11 142.647 2105.28 140.258 Q2106.01 138.712 2106.85 135.386 Q2107.71 132.036 2107.71 130.069 Z" fill="#000000" fill-rule="evenodd" fill-opacity="1" /><path clip-path="url(#clip680)" d="M2123.31 138.431 Q2123.36 137.845 2124.27 137.845 L2153.67 137.845 Q2155.05 137.845 2155.07 138.384 Q2155.07 138.97 2153.76 138.946 L2124.6 138.946 Q2123.31 138.97 2123.31 138.431 M2123.31 129.062 Q2123.31 128.476 2124.32 128.5 L2153.62 128.5 Q2155.05 128.5 2155.07 129.062 Q2155.07 129.601 2153.86 129.601 L2124.27 129.601 Q2123.31 129.601 2123.31 129.062 Z" fill="#000000" fill-rule="evenodd" fill-opacity="1" /><path clip-path="url(#clip680)" d="M2173.57 130.373 Q2173.57 123.323 2175.35 119.482 Q2177.83 113.767 2183.68 113.767 Q2184.92 113.767 2186.21 114.118 Q2187.52 114.446 2189.16 115.734 Q2190.83 117.023 2191.83 119.131 Q2193.76 123.206 2193.76 130.373 Q2193.76 137.377 2191.98 141.195 Q2189.38 146.769 2183.64 146.769 Q2181.48 146.769 2179.28 145.668 Q2177.1 144.567 2175.72 141.921 Q2173.57 137.962 2173.57 130.373 M2177.55 129.788 Q2177.55 137.025 2178.06 139.906 Q2178.65 143.022 2180.24 144.38 Q2181.86 145.715 2183.64 145.715 Q2185.56 145.715 2187.15 144.286 Q2188.77 142.834 2189.26 139.719 Q2189.8 136.651 2189.77 129.788 Q2189.77 123.113 2189.3 120.442 Q2188.67 117.327 2186.99 116.086 Q2185.32 114.821 2183.64 114.821 Q2183 114.821 2182.33 115.008 Q2181.67 115.196 2180.71 115.734 Q2179.75 116.273 2179 117.608 Q2178.27 118.943 2177.92 120.958 Q2177.55 123.558 2177.55 129.788 Z" fill="#000000" fill-rule="evenodd" fill-opacity="1" /><path clip-path="url(#clip680)" d="M2198.04 144.942 Q2197.32 144.169 2197.32 143.162 Q2197.32 142.155 2198.04 141.429 Q2198.77 140.679 2199.87 140.679 Q2200.92 140.679 2201.62 141.382 Q2202.35 142.061 2202.35 143.186 Q2202.35 144.286 2201.58 145.013 Q2200.83 145.715 2199.87 145.715 Q2198.77 145.715 2198.04 144.942 Z" fill="#000000" fill-rule="evenodd" fill-opacity="1" /><path clip-path="url(#clip680)" d="M2210.51 137.986 Q2210.51 136.557 2211.28 136.018 Q2212.06 135.456 2212.88 135.456 Q2213.98 135.456 2214.61 136.159 Q2215.27 136.838 2215.27 137.798 Q2215.27 138.759 2214.61 139.461 Q2213.98 140.141 2212.88 140.141 Q2212.34 140.141 2212.06 140.047 Q2212.69 142.249 2214.61 143.841 Q2216.56 145.434 2219.11 145.434 Q2222.32 145.434 2224.24 142.319 Q2225.39 140.305 2225.39 135.737 Q2225.39 131.709 2224.52 129.694 Q2223.18 126.626 2220.44 126.626 Q2216.56 126.626 2214.26 129.975 Q2213.98 130.397 2213.65 130.42 Q2213.18 130.42 2213.07 130.163 Q2212.97 129.882 2212.97 129.156 L2212.97 114.962 Q2212.97 113.814 2213.44 113.814 Q2213.63 113.814 2214.03 113.954 Q2217.05 115.289 2220.4 115.313 Q2223.84 115.313 2226.93 113.908 Q2227.17 113.767 2227.31 113.767 Q2227.77 113.767 2227.8 114.306 Q2227.8 114.493 2227.4 115.055 Q2227.02 115.594 2226.21 116.32 Q2225.39 117.023 2224.33 117.702 Q2223.28 118.381 2221.73 118.85 Q2220.21 119.295 2218.52 119.295 Q2216.51 119.295 2214.45 118.662 L2214.45 128.008 Q2216.93 125.572 2220.54 125.572 Q2224.38 125.572 2227.02 128.664 Q2229.67 131.755 2229.67 136.065 Q2229.67 140.586 2226.53 143.677 Q2223.42 146.769 2219.2 146.769 Q2215.36 146.769 2212.92 144.029 Q2210.51 141.288 2210.51 137.986 Z" fill="#000000" fill-rule="evenodd" fill-opacity="1" /><circle clip-path="url(#clip680)" cx="1991.32" cy="175.34" r="23" fill="#e26f46" fill-rule="evenodd" fill-opacity="0.5" stroke="#000000" stroke-opacity="0.5" stroke-width="5.12"/>
<path clip-path="url(#clip680)" d="M2111.18 173.021 Q2111.18 176.44 2109.45 179.743 Q2107.74 183.046 2105.04 185.083 Q2102.35 187.098 2099.61 187.098 Q2097.97 187.098 2096.87 186.208 Q2095.79 185.294 2095.21 184.006 Q2094.76 185.599 2093.8 189.416 Q2092.84 193.234 2092.84 193.609 Q2092.84 193.82 2092.89 193.914 Q2092.94 194.007 2093.15 194.124 Q2093.36 194.265 2093.87 194.312 Q2094.39 194.382 2095.25 194.382 Q2095.7 194.382 2095.86 194.382 Q2096.05 194.405 2096.21 194.523 Q2096.4 194.64 2096.4 194.897 Q2096.4 195.858 2095.54 195.858 Q2094.76 195.858 2093.17 195.787 Q2091.58 195.717 2090.78 195.717 Q2090.1 195.717 2088.74 195.787 Q2087.38 195.858 2086.75 195.858 Q2086.12 195.858 2086.12 195.296 Q2086.12 194.968 2086.21 194.757 Q2086.28 194.569 2086.47 194.476 Q2086.66 194.405 2086.82 194.382 Q2086.96 194.382 2087.24 194.382 Q2088.32 194.382 2088.79 194.195 Q2089.26 194.031 2089.42 193.679 Q2089.61 193.351 2089.82 192.415 L2095.21 171.053 Q2095.54 169.625 2095.54 168.617 Q2095.54 167.353 2095.14 166.884 Q2094.74 166.416 2094.04 166.416 Q2092.82 166.416 2092.02 167.868 Q2091.23 169.32 2090.55 172.131 Q2090.34 172.904 2090.19 173.068 Q2090.08 173.232 2089.73 173.232 Q2089.14 173.208 2089.14 172.74 Q2089.14 172.623 2089.33 171.873 Q2089.52 171.1 2089.87 169.976 Q2090.24 168.828 2090.64 168.102 Q2090.87 167.61 2091.08 167.282 Q2091.3 166.954 2091.72 166.439 Q2092.16 165.924 2092.79 165.643 Q2093.43 165.362 2094.2 165.362 Q2095.7 165.362 2096.94 166.252 Q2098.18 167.142 2098.51 168.945 Q2099.84 167.376 2101.48 166.369 Q2103.12 165.362 2104.79 165.362 Q2107.55 165.362 2109.35 167.516 Q2111.18 169.648 2111.18 173.021 M2107.71 170.913 Q2107.71 168.781 2106.9 167.61 Q2106.1 166.416 2104.65 166.416 Q2102.84 166.416 2100.76 168.243 Q2098.7 169.976 2098.28 171.592 L2095.91 180.984 L2095.77 181.757 Q2095.77 181.898 2095.84 182.319 Q2095.93 182.718 2096.19 183.373 Q2096.47 184.029 2096.85 184.615 Q2097.25 185.177 2097.95 185.599 Q2098.67 186.02 2099.56 186.02 Q2100.99 186.02 2102.54 184.755 Q2104.11 183.491 2105.28 181.102 Q2106.01 179.556 2106.85 176.23 Q2107.71 172.88 2107.71 170.913 Z" fill="#000000" fill-rule="evenodd" fill-opacity="1" /><path clip-path="url(#clip680)" d="M2123.31 179.275 Q2123.36 178.689 2124.27 178.689 L2153.67 178.689 Q2155.05 178.689 2155.07 179.228 Q2155.07 179.813 2153.76 179.79 L2124.6 179.79 Q2123.31 179.813 2123.31 179.275 M2123.31 169.906 Q2123.31 169.32 2124.32 169.343 L2153.62 169.343 Q2155.05 169.343 2155.07 169.906 Q2155.07 170.444 2153.86 170.444 L2124.27 170.444 Q2123.31 170.444 2123.31 169.906 Z" fill="#000000" fill-rule="evenodd" fill-opacity="1" /><path clip-path="url(#clip680)" d="M2173.57 171.217 Q2173.57 164.167 2175.35 160.326 Q2177.83 154.611 2183.68 154.611 Q2184.92 154.611 2186.21 154.962 Q2187.52 155.29 2189.16 156.578 Q2190.83 157.866 2191.83 159.974 Q2193.76 164.05 2193.76 171.217 Q2193.76 178.221 2191.98 182.038 Q2189.38 187.613 2183.64 187.613 Q2181.48 187.613 2179.28 186.512 Q2177.1 185.411 2175.72 182.765 Q2173.57 178.806 2173.57 171.217 M2177.55 170.632 Q2177.55 177.869 2178.06 180.75 Q2178.65 183.865 2180.24 185.224 Q2181.86 186.559 2183.64 186.559 Q2185.56 186.559 2187.15 185.13 Q2188.77 183.678 2189.26 180.563 Q2189.8 177.494 2189.77 170.632 Q2189.77 163.956 2189.3 161.286 Q2188.67 158.171 2186.99 156.93 Q2185.32 155.665 2183.64 155.665 Q2183 155.665 2182.33 155.852 Q2181.67 156.039 2180.71 156.578 Q2179.75 157.117 2179 158.452 Q2178.27 159.787 2177.92 161.801 Q2177.55 164.401 2177.55 170.632 Z" fill="#000000" fill-rule="evenodd" fill-opacity="1" /><path clip-path="url(#clip680)" d="M2198.04 185.786 Q2197.32 185.013 2197.32 184.006 Q2197.32 182.999 2198.04 182.273 Q2198.77 181.523 2199.87 181.523 Q2200.92 181.523 2201.62 182.226 Q2202.35 182.905 2202.35 184.029 Q2202.35 185.13 2201.58 185.856 Q2200.83 186.559 2199.87 186.559 Q2198.77 186.559 2198.04 185.786 Z" fill="#000000" fill-rule="evenodd" fill-opacity="1" /><path clip-path="url(#clip680)" d="M2210.51 186.559 Q2210.51 185.692 2210.58 185.435 Q2210.68 185.177 2211.05 184.779 L2220.26 174.52 Q2225.29 168.852 2225.29 163.909 Q2225.29 160.701 2223.61 158.405 Q2221.94 156.11 2218.87 156.11 Q2216.77 156.11 2214.99 157.398 Q2213.21 158.686 2212.39 160.982 Q2212.53 160.935 2213.02 160.935 Q2214.21 160.935 2214.87 161.684 Q2215.55 162.434 2215.55 163.441 Q2215.55 164.729 2214.7 165.362 Q2213.88 165.971 2213.07 165.971 Q2212.74 165.971 2212.29 165.9 Q2211.87 165.83 2211.19 165.174 Q2210.51 164.495 2210.51 163.3 Q2210.51 159.951 2213.04 157.281 Q2215.59 154.611 2219.48 154.611 Q2223.89 154.611 2226.77 157.234 Q2229.67 159.834 2229.67 163.909 Q2229.67 165.338 2229.23 166.65 Q2228.8 167.938 2228.22 168.945 Q2227.66 169.952 2226.11 171.569 Q2224.57 173.185 2223.32 174.332 Q2222.08 175.48 2219.3 177.916 L2214.21 182.858 L2222.86 182.858 Q2227.07 182.858 2227.4 182.483 Q2227.87 181.804 2228.45 178.221 L2229.67 178.221 L2228.31 186.559 L2210.51 186.559 Z" fill="#000000" fill-rule="evenodd" fill-opacity="1" /></svg>
