<?xml version="1.0" encoding="utf-8"?>
<svg xmlns="http://www.w3.org/2000/svg" xmlns:xlink="http://www.w3.org/1999/xlink" width="600" height="400" viewBox="0 0 2400 1600">
<defs>
  <clipPath id="clip920">
    <rect x="0" y="0" width="2400" height="1600"/>
  </clipPath>
</defs>
<path clip-path="url(#clip920)" d="
M0 1600 L2400 1600 L2400 0 L0 0  Z
  " fill="#ffffff" fill-rule="evenodd" fill-opacity="1"/>
<defs>
  <clipPath id="clip921">
    <rect x="480" y="0" width="1681" height="1600"/>
  </clipPath>
</defs>
<defs>
  <clipPath id="clip922">
    <rect x="219" y="47" width="2134" height="1393"/>
  </clipPath>
</defs>
<path clip-path="url(#clip920)" d="
M219.38 1439.5 L2352.76 1439.5 L2352.76 47.2441 L219.38 47.2441  Z
  " fill="#ffffff" fill-rule="evenodd" fill-opacity="1"/>
<polyline clip-path="url(#clip922)" style="stroke:#000000; stroke-linecap:butt; stroke-linejoin:round; stroke-width:2; stroke-opacity:0.1; fill:none" points="
  219.38,1439.5 219.38,47.2441 
  "/>
<polyline clip-path="url(#clip922)" style="stroke:#000000; stroke-linecap:butt; stroke-linejoin:round; stroke-width:2; stroke-opacity:0.1; fill:none" points="
  646.055,1439.5 646.055,47.2441 
  "/>
<polyline clip-path="url(#clip922)" style="stroke:#000000; stroke-linecap:butt; stroke-linejoin:round; stroke-width:2; stroke-opacity:0.1; fill:none" points="
  1072.73,1439.5 1072.73,47.2441 
  "/>
<polyline clip-path="url(#clip922)" style="stroke:#000000; stroke-linecap:butt; stroke-linejoin:round; stroke-width:2; stroke-opacity:0.1; fill:none" points="
  1499.41,1439.5 1499.41,47.2441 
  "/>
<polyline clip-path="url(#clip922)" style="stroke:#000000; stroke-linecap:butt; stroke-linejoin:round; stroke-width:2; stroke-opacity:0.1; fill:none" points="
  1926.08,1439.5 1926.08,47.2441 
  "/>
<polyline clip-path="url(#clip922)" style="stroke:#000000; stroke-linecap:butt; stroke-linejoin:round; stroke-width:2; stroke-opacity:0.1; fill:none" points="
  2352.76,1439.5 2352.76,47.2441 
  "/>
<polyline clip-path="url(#clip920)" style="stroke:#000000; stroke-linecap:butt; stroke-linejoin:round; stroke-width:4; stroke-opacity:1; fill:none" points="
  219.38,1439.5 2352.76,1439.5 
  "/>
<polyline clip-path="url(#clip920)" style="stroke:#000000; stroke-linecap:butt; stroke-linejoin:round; stroke-width:4; stroke-opacity:1; fill:none" points="
  219.38,1439.5 219.38,1420.6 
  "/>
<polyline clip-path="url(#clip920)" style="stroke:#000000; stroke-linecap:butt; stroke-linejoin:round; stroke-width:4; stroke-opacity:1; fill:none" points="
  646.055,1439.5 646.055,1420.6 
  "/>
<polyline clip-path="url(#clip920)" style="stroke:#000000; stroke-linecap:butt; stroke-linejoin:round; stroke-width:4; stroke-opacity:1; fill:none" points="
  1072.73,1439.5 1072.73,1420.6 
  "/>
<polyline clip-path="url(#clip920)" style="stroke:#000000; stroke-linecap:butt; stroke-linejoin:round; stroke-width:4; stroke-opacity:1; fill:none" points="
  1499.41,1439.5 1499.41,1420.6 
  "/>
<polyline clip-path="url(#clip920)" style="stroke:#000000; stroke-linecap:butt; stroke-linejoin:round; stroke-width:4; stroke-opacity:1; fill:none" points="
  1926.08,1439.5 1926.08,1420.6 
  "/>
<polyline clip-path="url(#clip920)" style="stroke:#000000; stroke-linecap:butt; stroke-linejoin:round; stroke-width:4; stroke-opacity:1; fill:none" points="
  2352.76,1439.5 2352.76,1420.6 
  "/>
<path clip-path="url(#clip920)" d="M196.765 1468.69 Q193.153 1468.69 191.325 1472.26 Q189.519 1475.8 189.519 1482.93 Q189.519 1490.04 191.325 1493.6 Q193.153 1497.14 196.765 1497.14 Q200.399 1497.14 202.204 1493.6 Q204.033 1490.04 204.033 1482.93 Q204.033 1475.8 202.204 1472.26 Q200.399 1468.69 196.765 1468.69 M196.765 1464.99 Q202.575 1464.99 205.63 1469.6 Q208.709 1474.18 208.709 1482.93 Q208.709 1491.66 205.63 1496.26 Q202.575 1500.85 196.765 1500.85 Q190.954 1500.85 187.876 1496.26 Q184.82 1491.66 184.82 1482.93 Q184.82 1474.18 187.876 1469.6 Q190.954 1464.99 196.765 1464.99 Z" fill="#000000" fill-rule="evenodd" fill-opacity="1" /><path clip-path="url(#clip920)" d="M216.926 1494.29 L221.811 1494.29 L221.811 1500.17 L216.926 1500.17 L216.926 1494.29 Z" fill="#000000" fill-rule="evenodd" fill-opacity="1" /><path clip-path="url(#clip920)" d="M241.996 1468.69 Q238.385 1468.69 236.556 1472.26 Q234.75 1475.8 234.75 1482.93 Q234.75 1490.04 236.556 1493.6 Q238.385 1497.14 241.996 1497.14 Q245.63 1497.14 247.436 1493.6 Q249.264 1490.04 249.264 1482.93 Q249.264 1475.8 247.436 1472.26 Q245.63 1468.69 241.996 1468.69 M241.996 1464.99 Q247.806 1464.99 250.861 1469.6 Q253.94 1474.18 253.94 1482.93 Q253.94 1491.66 250.861 1496.26 Q247.806 1500.85 241.996 1500.85 Q236.186 1500.85 233.107 1496.26 Q230.051 1491.66 230.051 1482.93 Q230.051 1474.18 233.107 1469.6 Q236.186 1464.99 241.996 1464.99 Z" fill="#000000" fill-rule="evenodd" fill-opacity="1" /><path clip-path="url(#clip920)" d="M624.238 1468.69 Q620.627 1468.69 618.799 1472.26 Q616.993 1475.8 616.993 1482.93 Q616.993 1490.04 618.799 1493.6 Q620.627 1497.14 624.238 1497.14 Q627.873 1497.14 629.678 1493.6 Q631.507 1490.04 631.507 1482.93 Q631.507 1475.8 629.678 1472.26 Q627.873 1468.69 624.238 1468.69 M624.238 1464.99 Q630.048 1464.99 633.104 1469.6 Q636.183 1474.18 636.183 1482.93 Q636.183 1491.66 633.104 1496.26 Q630.048 1500.85 624.238 1500.85 Q618.428 1500.85 615.349 1496.26 Q612.294 1491.66 612.294 1482.93 Q612.294 1474.18 615.349 1469.6 Q618.428 1464.99 624.238 1464.99 Z" fill="#000000" fill-rule="evenodd" fill-opacity="1" /><path clip-path="url(#clip920)" d="M644.4 1494.29 L649.284 1494.29 L649.284 1500.17 L644.4 1500.17 L644.4 1494.29 Z" fill="#000000" fill-rule="evenodd" fill-opacity="1" /><path clip-path="url(#clip920)" d="M663.497 1496.24 L679.817 1496.24 L679.817 1500.17 L657.872 1500.17 L657.872 1496.24 Q660.534 1493.48 665.118 1488.85 Q669.724 1484.2 670.905 1482.86 Q673.15 1480.34 674.03 1478.6 Q674.932 1476.84 674.932 1475.15 Q674.932 1472.4 672.988 1470.66 Q671.067 1468.92 667.965 1468.92 Q665.766 1468.92 663.312 1469.69 Q660.882 1470.45 658.104 1472 L658.104 1467.28 Q660.928 1466.15 663.382 1465.57 Q665.835 1464.99 667.872 1464.99 Q673.243 1464.99 676.437 1467.67 Q679.632 1470.36 679.632 1474.85 Q679.632 1476.98 678.821 1478.9 Q678.034 1480.8 675.928 1483.39 Q675.349 1484.06 672.247 1487.28 Q669.145 1490.47 663.497 1496.24 Z" fill="#000000" fill-rule="evenodd" fill-opacity="1" /><path clip-path="url(#clip920)" d="M1049.87 1468.69 Q1046.26 1468.69 1044.43 1472.26 Q1042.63 1475.8 1042.63 1482.93 Q1042.63 1490.04 1044.43 1493.6 Q1046.26 1497.14 1049.87 1497.14 Q1053.51 1497.14 1055.31 1493.6 Q1057.14 1490.04 1057.14 1482.93 Q1057.14 1475.8 1055.31 1472.26 Q1053.51 1468.69 1049.87 1468.69 M1049.87 1464.99 Q1055.68 1464.99 1058.74 1469.6 Q1061.82 1474.18 1061.82 1482.93 Q1061.82 1491.66 1058.74 1496.26 Q1055.68 1500.85 1049.87 1500.85 Q1044.06 1500.85 1040.98 1496.26 Q1037.93 1491.66 1037.93 1482.93 Q1037.93 1474.18 1040.98 1469.6 Q1044.06 1464.99 1049.87 1464.99 Z" fill="#000000" fill-rule="evenodd" fill-opacity="1" /><path clip-path="url(#clip920)" d="M1070.03 1494.29 L1074.92 1494.29 L1074.92 1500.17 L1070.03 1500.17 L1070.03 1494.29 Z" fill="#000000" fill-rule="evenodd" fill-opacity="1" /><path clip-path="url(#clip920)" d="M1097.95 1469.69 L1086.14 1488.14 L1097.95 1488.14 L1097.95 1469.69 M1096.72 1465.61 L1102.6 1465.61 L1102.6 1488.14 L1107.53 1488.14 L1107.53 1492.03 L1102.6 1492.03 L1102.6 1500.17 L1097.95 1500.17 L1097.95 1492.03 L1082.35 1492.03 L1082.35 1487.51 L1096.72 1465.61 Z" fill="#000000" fill-rule="evenodd" fill-opacity="1" /><path clip-path="url(#clip920)" d="M1476.71 1468.69 Q1473.1 1468.69 1471.27 1472.26 Q1469.46 1475.8 1469.46 1482.93 Q1469.46 1490.04 1471.27 1493.6 Q1473.1 1497.14 1476.71 1497.14 Q1480.34 1497.14 1482.15 1493.6 Q1483.98 1490.04 1483.98 1482.93 Q1483.98 1475.8 1482.15 1472.26 Q1480.34 1468.69 1476.71 1468.69 M1476.71 1464.99 Q1482.52 1464.99 1485.57 1469.6 Q1488.65 1474.18 1488.65 1482.93 Q1488.65 1491.66 1485.57 1496.26 Q1482.52 1500.85 1476.71 1500.85 Q1470.9 1500.85 1467.82 1496.26 Q1464.76 1491.66 1464.76 1482.93 Q1464.76 1474.18 1467.82 1469.6 Q1470.9 1464.99 1476.71 1464.99 Z" fill="#000000" fill-rule="evenodd" fill-opacity="1" /><path clip-path="url(#clip920)" d="M1496.87 1494.29 L1501.76 1494.29 L1501.76 1500.17 L1496.87 1500.17 L1496.87 1494.29 Z" fill="#000000" fill-rule="evenodd" fill-opacity="1" /><path clip-path="url(#clip920)" d="M1522.52 1481.03 Q1519.37 1481.03 1517.52 1483.18 Q1515.69 1485.34 1515.69 1489.09 Q1515.69 1492.81 1517.52 1494.99 Q1519.37 1497.14 1522.52 1497.14 Q1525.67 1497.14 1527.5 1494.99 Q1529.35 1492.81 1529.35 1489.09 Q1529.35 1485.34 1527.5 1483.18 Q1525.67 1481.03 1522.52 1481.03 M1531.8 1466.38 L1531.8 1470.64 Q1530.04 1469.8 1528.24 1469.36 Q1526.45 1468.92 1524.69 1468.92 Q1520.07 1468.92 1517.61 1472.05 Q1515.18 1475.17 1514.83 1481.49 Q1516.2 1479.48 1518.26 1478.41 Q1520.32 1477.33 1522.8 1477.33 Q1528 1477.33 1531.01 1480.5 Q1534.05 1483.65 1534.05 1489.09 Q1534.05 1494.41 1530.9 1497.63 Q1527.75 1500.85 1522.52 1500.85 Q1516.52 1500.85 1513.35 1496.26 Q1510.18 1491.66 1510.18 1482.93 Q1510.18 1474.73 1514.07 1469.87 Q1517.96 1464.99 1524.51 1464.99 Q1526.27 1464.99 1528.05 1465.34 Q1529.86 1465.68 1531.8 1466.38 Z" fill="#000000" fill-rule="evenodd" fill-opacity="1" /><path clip-path="url(#clip920)" d="M1903.51 1468.69 Q1899.9 1468.69 1898.07 1472.26 Q1896.27 1475.8 1896.27 1482.93 Q1896.27 1490.04 1898.07 1493.6 Q1899.9 1497.14 1903.51 1497.14 Q1907.15 1497.14 1908.95 1493.6 Q1910.78 1490.04 1910.78 1482.93 Q1910.78 1475.8 1908.95 1472.26 Q1907.15 1468.69 1903.51 1468.69 M1903.51 1464.99 Q1909.32 1464.99 1912.38 1469.6 Q1915.46 1474.18 1915.46 1482.93 Q1915.46 1491.66 1912.38 1496.26 Q1909.32 1500.85 1903.51 1500.85 Q1897.7 1500.85 1894.62 1496.26 Q1891.57 1491.66 1891.57 1482.93 Q1891.57 1474.18 1894.62 1469.6 Q1897.7 1464.99 1903.51 1464.99 Z" fill="#000000" fill-rule="evenodd" fill-opacity="1" /><path clip-path="url(#clip920)" d="M1923.67 1494.29 L1928.56 1494.29 L1928.56 1500.17 L1923.67 1500.17 L1923.67 1494.29 Z" fill="#000000" fill-rule="evenodd" fill-opacity="1" /><path clip-path="url(#clip920)" d="M1948.74 1483.76 Q1945.41 1483.76 1943.49 1485.54 Q1941.59 1487.33 1941.59 1490.45 Q1941.59 1493.58 1943.49 1495.36 Q1945.41 1497.14 1948.74 1497.14 Q1952.08 1497.14 1954 1495.36 Q1955.92 1493.55 1955.92 1490.45 Q1955.92 1487.33 1954 1485.54 Q1952.1 1483.76 1948.74 1483.76 M1944.07 1481.77 Q1941.06 1481.03 1939.37 1478.97 Q1937.7 1476.91 1937.7 1473.95 Q1937.7 1469.8 1940.64 1467.4 Q1943.6 1464.99 1948.74 1464.99 Q1953.9 1464.99 1956.84 1467.4 Q1959.78 1469.8 1959.78 1473.95 Q1959.78 1476.91 1958.09 1478.97 Q1956.43 1481.03 1953.44 1481.77 Q1956.82 1482.56 1958.7 1484.85 Q1960.59 1487.14 1960.59 1490.45 Q1960.59 1495.47 1957.52 1498.16 Q1954.46 1500.85 1948.74 1500.85 Q1943.03 1500.85 1939.95 1498.16 Q1936.89 1495.47 1936.89 1490.45 Q1936.89 1487.14 1938.79 1484.85 Q1940.69 1482.56 1944.07 1481.77 M1942.35 1474.39 Q1942.35 1477.07 1944.02 1478.58 Q1945.71 1480.08 1948.74 1480.08 Q1951.75 1480.08 1953.44 1478.58 Q1955.15 1477.07 1955.15 1474.39 Q1955.15 1471.7 1953.44 1470.2 Q1951.75 1468.69 1948.74 1468.69 Q1945.71 1468.69 1944.02 1470.2 Q1942.35 1471.7 1942.35 1474.39 Z" fill="#000000" fill-rule="evenodd" fill-opacity="1" /><path clip-path="url(#clip920)" d="M2319.91 1496.24 L2327.55 1496.24 L2327.55 1469.87 L2319.24 1471.54 L2319.24 1467.28 L2327.5 1465.61 L2332.18 1465.61 L2332.18 1496.24 L2339.82 1496.24 L2339.82 1500.17 L2319.91 1500.17 L2319.91 1496.24 Z" fill="#000000" fill-rule="evenodd" fill-opacity="1" /><path clip-path="url(#clip920)" d="M2349.26 1494.29 L2354.14 1494.29 L2354.14 1500.17 L2349.26 1500.17 L2349.26 1494.29 Z" fill="#000000" fill-rule="evenodd" fill-opacity="1" /><path clip-path="url(#clip920)" d="M2374.33 1468.69 Q2370.72 1468.69 2368.89 1472.26 Q2367.08 1475.8 2367.08 1482.93 Q2367.08 1490.04 2368.89 1493.6 Q2370.72 1497.14 2374.33 1497.14 Q2377.96 1497.14 2379.77 1493.6 Q2381.6 1490.04 2381.6 1482.93 Q2381.6 1475.8 2379.77 1472.26 Q2377.96 1468.69 2374.33 1468.69 M2374.33 1464.99 Q2380.14 1464.99 2383.2 1469.6 Q2386.27 1474.18 2386.27 1482.93 Q2386.27 1491.66 2383.2 1496.26 Q2380.14 1500.85 2374.33 1500.85 Q2368.52 1500.85 2365.44 1496.26 Q2362.39 1491.66 2362.39 1482.93 Q2362.39 1474.18 2365.44 1469.6 Q2368.52 1464.99 2374.33 1464.99 Z" fill="#000000" fill-rule="evenodd" fill-opacity="1" /><path clip-path="url(#clip920)" d="M1298 1535.75 Q1298 1541.16 1296.26 1547.24 Q1294.56 1553.3 1291.85 1558.19 Q1289.15 1563.06 1285.6 1566.28 Q1282.06 1569.47 1278.68 1569.47 Q1276.52 1569.47 1274.91 1568.27 Q1273.33 1567.05 1272.46 1565.02 Q1271.59 1562.96 1271.18 1560.71 Q1270.76 1558.42 1270.76 1555.94 Q1270.76 1552.24 1271.56 1548.21 Q1272.37 1544.15 1273.72 1540.48 Q1275.07 1536.78 1276.97 1533.43 Q1278.87 1530.05 1280.97 1527.6 Q1283.09 1525.12 1285.47 1523.67 Q1287.86 1522.22 1290.08 1522.22 Q1291.69 1522.22 1292.98 1522.93 Q1294.3 1523.6 1295.14 1524.8 Q1295.97 1525.96 1296.55 1527.34 Q1297.17 1528.73 1297.46 1530.34 Q1297.75 1531.91 1297.87 1533.23 Q1298 1534.52 1298 1535.75 M1293.66 1531.66 Q1293.66 1530.01 1293.53 1528.79 Q1293.4 1527.53 1293.04 1526.28 Q1292.69 1525.02 1291.92 1524.35 Q1291.18 1523.67 1290.02 1523.67 Q1286.63 1523.67 1282.83 1530.59 Q1281.61 1532.75 1280.52 1535.68 Q1279.42 1538.61 1279.03 1540 Q1278.65 1541.38 1277.75 1544.8 L1291.53 1544.8 Q1293.66 1536 1293.66 1531.66 M1290.95 1546.89 L1277.23 1546.89 Q1275.1 1554.94 1275.1 1559.96 Q1275.1 1564.34 1276.01 1566.18 Q1276.94 1567.98 1278.68 1567.98 Q1280.68 1567.98 1282.54 1565.99 Q1284.41 1563.96 1286.31 1560.29 Q1288.82 1555.52 1290.95 1546.89 Z" fill="#000000" fill-rule="evenodd" fill-opacity="1" /><polyline clip-path="url(#clip922)" style="stroke:#000000; stroke-linecap:butt; stroke-linejoin:round; stroke-width:2; stroke-opacity:0.1; fill:none" points="
  219.38,1400.1 2352.76,1400.1 
  "/>
<polyline clip-path="url(#clip922)" style="stroke:#000000; stroke-linecap:butt; stroke-linejoin:round; stroke-width:2; stroke-opacity:0.1; fill:none" points="
  219.38,1030.54 2352.76,1030.54 
  "/>
<polyline clip-path="url(#clip922)" style="stroke:#000000; stroke-linecap:butt; stroke-linejoin:round; stroke-width:2; stroke-opacity:0.1; fill:none" points="
  219.38,660.982 2352.76,660.982 
  "/>
<polyline clip-path="url(#clip922)" style="stroke:#000000; stroke-linecap:butt; stroke-linejoin:round; stroke-width:2; stroke-opacity:0.1; fill:none" points="
  219.38,291.424 2352.76,291.424 
  "/>
<polyline clip-path="url(#clip920)" style="stroke:#000000; stroke-linecap:butt; stroke-linejoin:round; stroke-width:4; stroke-opacity:1; fill:none" points="
  219.38,1439.5 219.38,47.2441 
  "/>
<polyline clip-path="url(#clip920)" style="stroke:#000000; stroke-linecap:butt; stroke-linejoin:round; stroke-width:4; stroke-opacity:1; fill:none" points="
  219.38,1400.1 238.278,1400.1 
  "/>
<polyline clip-path="url(#clip920)" style="stroke:#000000; stroke-linecap:butt; stroke-linejoin:round; stroke-width:4; stroke-opacity:1; fill:none" points="
  219.38,1030.54 238.278,1030.54 
  "/>
<polyline clip-path="url(#clip920)" style="stroke:#000000; stroke-linecap:butt; stroke-linejoin:round; stroke-width:4; stroke-opacity:1; fill:none" points="
  219.38,660.982 238.278,660.982 
  "/>
<polyline clip-path="url(#clip920)" style="stroke:#000000; stroke-linecap:butt; stroke-linejoin:round; stroke-width:4; stroke-opacity:1; fill:none" points="
  219.38,291.424 238.278,291.424 
  "/>
<path clip-path="url(#clip920)" d="M126.205 1385.9 Q122.593 1385.9 120.765 1389.46 Q118.959 1393 118.959 1400.13 Q118.959 1407.24 120.765 1410.8 Q122.593 1414.35 126.205 1414.35 Q129.839 1414.35 131.644 1410.8 Q133.473 1407.24 133.473 1400.13 Q133.473 1393 131.644 1389.46 Q129.839 1385.9 126.205 1385.9 M126.205 1382.19 Q132.015 1382.19 135.07 1386.8 Q138.149 1391.38 138.149 1400.13 Q138.149 1408.86 135.07 1413.47 Q132.015 1418.05 126.205 1418.05 Q120.394 1418.05 117.316 1413.47 Q114.26 1408.86 114.26 1400.13 Q114.26 1391.38 117.316 1386.8 Q120.394 1382.19 126.205 1382.19 Z" fill="#000000" fill-rule="evenodd" fill-opacity="1" /><path clip-path="url(#clip920)" d="M146.366 1411.5 L151.251 1411.5 L151.251 1417.38 L146.366 1417.38 L146.366 1411.5 Z" fill="#000000" fill-rule="evenodd" fill-opacity="1" /><path clip-path="url(#clip920)" d="M171.436 1385.9 Q167.825 1385.9 165.996 1389.46 Q164.19 1393 164.19 1400.13 Q164.19 1407.24 165.996 1410.8 Q167.825 1414.35 171.436 1414.35 Q175.07 1414.35 176.876 1410.8 Q178.704 1407.24 178.704 1400.13 Q178.704 1393 176.876 1389.46 Q175.07 1385.9 171.436 1385.9 M171.436 1382.19 Q177.246 1382.19 180.301 1386.8 Q183.38 1391.38 183.38 1400.13 Q183.38 1408.86 180.301 1413.47 Q177.246 1418.05 171.436 1418.05 Q165.626 1418.05 162.547 1413.47 Q159.491 1408.86 159.491 1400.13 Q159.491 1391.38 162.547 1386.8 Q165.626 1382.19 171.436 1382.19 Z" fill="#000000" fill-rule="evenodd" fill-opacity="1" /><path clip-path="url(#clip920)" d="M127.2 1016.34 Q123.589 1016.34 121.76 1019.9 Q119.955 1023.45 119.955 1030.57 Q119.955 1037.68 121.76 1041.25 Q123.589 1044.79 127.2 1044.79 Q130.834 1044.79 132.64 1041.25 Q134.468 1037.68 134.468 1030.57 Q134.468 1023.45 132.64 1019.9 Q130.834 1016.34 127.2 1016.34 M127.2 1012.64 Q133.01 1012.64 136.066 1017.24 Q139.144 1021.82 139.144 1030.57 Q139.144 1039.3 136.066 1043.91 Q133.01 1048.49 127.2 1048.49 Q121.39 1048.49 118.311 1043.91 Q115.256 1039.3 115.256 1030.57 Q115.256 1021.82 118.311 1017.24 Q121.39 1012.64 127.2 1012.64 Z" fill="#000000" fill-rule="evenodd" fill-opacity="1" /><path clip-path="url(#clip920)" d="M147.362 1041.94 L152.246 1041.94 L152.246 1047.82 L147.362 1047.82 L147.362 1041.94 Z" fill="#000000" fill-rule="evenodd" fill-opacity="1" /><path clip-path="url(#clip920)" d="M162.477 1013.26 L180.834 1013.26 L180.834 1017.2 L166.76 1017.2 L166.76 1025.67 Q167.778 1025.32 168.797 1025.16 Q169.815 1024.97 170.834 1024.97 Q176.621 1024.97 180.001 1028.14 Q183.38 1031.32 183.38 1036.73 Q183.38 1042.31 179.908 1045.41 Q176.436 1048.49 170.116 1048.49 Q167.94 1048.49 165.672 1048.12 Q163.427 1047.75 161.019 1047.01 L161.019 1042.31 Q163.102 1043.45 165.325 1044 Q167.547 1044.56 170.024 1044.56 Q174.028 1044.56 176.366 1042.45 Q178.704 1040.34 178.704 1036.73 Q178.704 1033.12 176.366 1031.01 Q174.028 1028.91 170.024 1028.91 Q168.149 1028.91 166.274 1029.32 Q164.422 1029.74 162.477 1030.62 L162.477 1013.26 Z" fill="#000000" fill-rule="evenodd" fill-opacity="1" /><path clip-path="url(#clip920)" d="M117.015 674.327 L124.654 674.327 L124.654 647.961 L116.343 649.628 L116.343 645.369 L124.607 643.702 L129.283 643.702 L129.283 674.327 L136.922 674.327 L136.922 678.262 L117.015 678.262 L117.015 674.327 Z" fill="#000000" fill-rule="evenodd" fill-opacity="1" /><path clip-path="url(#clip920)" d="M146.366 672.382 L151.251 672.382 L151.251 678.262 L146.366 678.262 L146.366 672.382 Z" fill="#000000" fill-rule="evenodd" fill-opacity="1" /><path clip-path="url(#clip920)" d="M171.436 646.781 Q167.825 646.781 165.996 650.345 Q164.19 653.887 164.19 661.017 Q164.19 668.123 165.996 671.688 Q167.825 675.23 171.436 675.23 Q175.07 675.23 176.876 671.688 Q178.704 668.123 178.704 661.017 Q178.704 653.887 176.876 650.345 Q175.07 646.781 171.436 646.781 M171.436 643.077 Q177.246 643.077 180.301 647.683 Q183.38 652.267 183.38 661.017 Q183.38 669.744 180.301 674.35 Q177.246 678.933 171.436 678.933 Q165.626 678.933 162.547 674.35 Q159.491 669.744 159.491 661.017 Q159.491 652.267 162.547 647.683 Q165.626 643.077 171.436 643.077 Z" fill="#000000" fill-rule="evenodd" fill-opacity="1" /><path clip-path="url(#clip920)" d="M118.01 304.769 L125.649 304.769 L125.649 278.403 L117.339 280.07 L117.339 275.81 L125.603 274.144 L130.279 274.144 L130.279 304.769 L137.917 304.769 L137.917 308.704 L118.01 308.704 L118.01 304.769 Z" fill="#000000" fill-rule="evenodd" fill-opacity="1" /><path clip-path="url(#clip920)" d="M147.362 302.824 L152.246 302.824 L152.246 308.704 L147.362 308.704 L147.362 302.824 Z" fill="#000000" fill-rule="evenodd" fill-opacity="1" /><path clip-path="url(#clip920)" d="M162.477 274.144 L180.834 274.144 L180.834 278.079 L166.76 278.079 L166.76 286.551 Q167.778 286.204 168.797 286.042 Q169.815 285.857 170.834 285.857 Q176.621 285.857 180.001 289.028 Q183.38 292.199 183.38 297.616 Q183.38 303.195 179.908 306.296 Q176.436 309.375 170.116 309.375 Q167.94 309.375 165.672 309.005 Q163.427 308.634 161.019 307.894 L161.019 303.195 Q163.102 304.329 165.325 304.884 Q167.547 305.44 170.024 305.44 Q174.028 305.44 176.366 303.333 Q178.704 301.227 178.704 297.616 Q178.704 294.005 176.366 291.898 Q174.028 289.792 170.024 289.792 Q168.149 289.792 166.274 290.209 Q164.422 290.625 162.477 291.505 L162.477 274.144 Z" fill="#000000" fill-rule="evenodd" fill-opacity="1" /><path clip-path="url(#clip920)" d="M21.7677 856.683 L58.7206 856.683 L58.7206 848.916 Q58.7206 839.081 54.2646 834.53 Q49.8086 829.947 40.1964 829.947 Q30.6479 829.947 26.2237 834.53 Q21.7677 839.081 21.7677 848.916 L21.7677 856.683 M16.4842 863.112 L16.4842 849.903 Q16.4842 836.09 22.2451 829.628 Q27.9743 823.167 40.1964 823.167 Q52.4822 823.167 58.2432 829.66 Q64.0042 836.153 64.0042 849.903 L64.0042 863.112 L16.4842 863.112 Z" fill="#000000" fill-rule="evenodd" fill-opacity="1" /><path clip-path="url(#clip920)" d="M44.7161 782.681 L47.5806 782.681 L47.5806 809.608 Q53.6281 809.226 56.8109 805.98 Q59.9619 802.701 59.9619 796.877 Q59.9619 793.503 59.1344 790.352 Q58.3069 787.169 56.6518 784.05 L62.1899 784.05 Q63.5267 787.201 64.227 790.511 Q64.9272 793.821 64.9272 797.227 Q64.9272 805.757 59.9619 810.754 Q54.9967 815.719 46.5303 815.719 Q37.7774 815.719 32.6531 811.009 Q27.4968 806.266 27.4968 798.245 Q27.4968 791.052 32.1438 786.883 Q36.7589 782.681 44.7161 782.681 M42.9973 788.538 Q38.1912 788.601 35.3266 791.243 Q32.4621 793.853 32.4621 798.182 Q32.4621 803.083 35.2312 806.043 Q38.0002 808.972 43.0292 809.417 L42.9973 788.538 Z" fill="#000000" fill-rule="evenodd" fill-opacity="1" /><path clip-path="url(#clip920)" d="M42.4881 743.437 L64.0042 743.437 L64.0042 749.293 L42.679 749.293 Q37.6183 749.293 35.1038 751.266 Q32.5894 753.24 32.5894 757.187 Q32.5894 761.929 35.6131 764.666 Q38.6368 767.404 43.8567 767.404 L64.0042 767.404 L64.0042 773.292 L28.3562 773.292 L28.3562 767.404 L33.8944 767.404 Q30.6797 765.303 29.0883 762.47 Q27.4968 759.606 27.4968 755.882 Q27.4968 749.739 31.3163 746.588 Q35.1038 743.437 42.4881 743.437 Z" fill="#000000" fill-rule="evenodd" fill-opacity="1" /><path clip-path="url(#clip920)" d="M29.4065 709.03 L34.9447 709.03 Q33.6716 711.513 33.035 714.186 Q32.3984 716.86 32.3984 719.724 Q32.3984 724.085 33.7352 726.281 Q35.072 728.445 37.7456 728.445 Q39.7826 728.445 40.9603 726.886 Q42.1061 725.326 43.1565 720.616 L43.6021 718.61 Q44.9389 712.372 47.3897 709.762 Q49.8086 707.12 54.1691 707.12 Q59.1344 707.12 62.0308 711.067 Q64.9272 714.982 64.9272 721.857 Q64.9272 724.721 64.3543 727.841 Q63.8132 730.928 62.6992 734.366 L56.6518 734.366 Q58.3387 731.119 59.198 727.968 Q60.0256 724.817 60.0256 721.73 Q60.0256 717.592 58.6251 715.364 Q57.1929 713.136 54.6147 713.136 Q52.2276 713.136 50.9545 714.759 Q49.6813 716.351 48.5037 721.793 L48.0262 723.83 Q46.8804 729.273 44.5251 731.692 Q42.138 734.111 38.0002 734.111 Q32.9713 734.111 30.2341 730.546 Q27.4968 726.981 27.4968 720.425 Q27.4968 717.178 27.9743 714.314 Q28.4517 711.449 29.4065 709.03 Z" fill="#000000" fill-rule="evenodd" fill-opacity="1" /><path clip-path="url(#clip920)" d="M28.3562 697.795 L28.3562 691.938 L64.0042 691.938 L64.0042 697.795 L28.3562 697.795 M14.479 697.795 L14.479 691.938 L21.895 691.938 L21.895 697.795 L14.479 697.795 Z" fill="#000000" fill-rule="evenodd" fill-opacity="1" /><path clip-path="url(#clip920)" d="M18.2347 673.891 L28.3562 673.891 L28.3562 661.828 L32.9077 661.828 L32.9077 673.891 L52.2594 673.891 Q56.6199 673.891 57.8613 672.714 Q59.1026 671.504 59.1026 667.844 L59.1026 661.828 L64.0042 661.828 L64.0042 667.844 Q64.0042 674.623 61.4897 677.201 Q58.9434 679.78 52.2594 679.78 L32.9077 679.78 L32.9077 684.076 L28.3562 684.076 L28.3562 679.78 L18.2347 679.78 L18.2347 673.891 Z" fill="#000000" fill-rule="evenodd" fill-opacity="1" /><path clip-path="url(#clip920)" d="M67.3143 639.294 Q73.68 641.776 75.6216 644.132 Q77.5631 646.487 77.5631 650.434 L77.5631 655.112 L72.6615 655.112 L72.6615 651.675 Q72.6615 649.256 71.5157 647.919 Q70.3699 646.582 66.1048 644.959 L63.4312 643.909 L28.3562 658.327 L28.3562 652.121 L56.238 640.981 L28.3562 629.841 L28.3562 623.634 L67.3143 639.294 Z" fill="#000000" fill-rule="evenodd" fill-opacity="1" /><polyline clip-path="url(#clip922)" style="stroke:#009af9; stroke-linecap:butt; stroke-linejoin:round; stroke-width:20; stroke-opacity:1; fill:none" points="
  219.38,660.982 240.214,660.982 432.856,660.982 548.626,660.982 646.508,660.982 752.835,660.982 850.859,660.982 955.951,660.982 1077.71,660.982 1185.92,660.982 
  1280.8,660.982 1384.26,660.982 1488.32,660.982 1603.38,660.982 1712.86,660.982 1826.69,660.982 1922.51,660.982 2039.49,660.982 2149.46,660.982 2325.64,660.982 
  2352.76,660.982 
  "/>
<polyline clip-path="url(#clip922)" style="stroke:#e26f46; stroke-linecap:butt; stroke-linejoin:round; stroke-width:20; stroke-opacity:1; fill:none" points="
  219.38,1400.1 224.589,1400.05 229.797,1399.89 235.006,1399.63 240.214,1399.26 288.375,1391.12 336.535,1374.82 384.696,1350.97 432.856,1320.18 461.799,1298.59 
  490.741,1274.85 519.684,1249.09 548.626,1221.45 597.567,1170.79 646.508,1115.75 752.835,984.201 850.859,853.02 955.951,707.858 1077.71,542.02 1185.92,404.373 
  1280.8,296.922 1332.53,245.328 1384.26,199.63 1436.29,160.375 1488.32,128.625 1545.85,103.188 1603.38,88.9136 1658.12,86.6476 1712.86,96.3303 1769.77,120.035 
  1826.69,158.64 1874.6,203.429 1922.51,260.096 1951.75,300.783 1981,346.259 2010.25,396.659 2039.49,452.121 2066.98,508.994 2094.48,570.576 2121.97,636.98 
  2149.46,708.319 2193.51,833.184 2237.55,971.477 2281.6,1123.67 2325.64,1290.22 2332.42,1317.16 2339.2,1344.45 2345.98,1372.1 2352.76,1400.1 
  "/>
<polyline clip-path="url(#clip922)" style="stroke:#3da44d; stroke-linecap:butt; stroke-linejoin:round; stroke-width:20; stroke-opacity:1; fill:none" points="
  219.38,1400.1 224.589,1378.55 229.797,1357.21 235.006,1336.08 240.214,1315.16 288.375,1131.51 336.535,965.058 384.696,815.197 432.856,681.315 461.799,608.288 
  490.741,540.678 519.684,478.352 548.626,421.177 597.567,335.842 646.508,264.214 699.671,201.188 752.835,152.753 801.847,120.317 850.859,98.9373 903.405,87.5631 
  955.951,87.3605 1016.83,100.049 1077.71,125.429 1131.81,157.636 1185.92,198.021 1233.36,239.482 1280.8,285.979 1384.26,402.005 1488.32,533.94 1603.38,690.151 
  1712.86,841.483 1826.69,993.771 1922.51,1112.11 1981,1177.71 2039.49,1236.94 2094.48,1285.84 2149.46,1327.23 2193.51,1354.37 2237.55,1375.63 2281.6,1390.56 
  2325.64,1398.68 2332.42,1399.3 2339.2,1399.74 2345.98,1400.01 2352.76,1400.1 
  "/>
<path clip-path="url(#clip920)" d="
M1803.75 262.09 L2281.64 262.09 L2281.64 93.6527 L1803.75 93.6527  Z
  " fill="#ffffff" fill-rule="evenodd" fill-opacity="1"/>
<polyline clip-path="url(#clip920)" style="stroke:#000000; stroke-linecap:butt; stroke-linejoin:round; stroke-width:4; stroke-opacity:1; fill:none" points="
  1803.75,262.09 2281.64,262.09 2281.64,93.6527 1803.75,93.6527 1803.75,262.09 
  "/>
<polyline clip-path="url(#clip920)" style="stroke:#009af9; stroke-linecap:butt; stroke-linejoin:round; stroke-width:4; stroke-opacity:1; fill:none" points="
  1827.46,135.762 1969.68,135.762 
  "/>
<path clip-path="url(#clip920)" d="M2015.36 145.11 Q2014.72 148.132 2013.9 149.865 Q2012.59 152.512 2010.37 152.512 Q2008.68 152.512 2007.49 151.481 Q2006.29 150.451 2006.01 148.905 Q2002.94 152.512 1999.76 152.512 Q1996.95 152.512 1995.17 150.38 Q1993.39 148.225 1993.39 144.829 Q1993.39 141.409 1995.07 138.13 Q1996.78 134.851 1999.48 132.813 Q2002.17 130.776 2004.93 130.776 Q2007.86 130.776 2009.36 133.844 Q2009.48 133.001 2010.02 132.368 Q2010.56 131.736 2011.38 131.736 Q2012.01 131.736 2012.38 132.087 Q2012.76 132.415 2012.76 133.024 Q2012.76 133.329 2012.43 134.664 L2010.7 141.363 L2009.64 145.696 Q2009.24 147.289 2009.13 147.874 Q2009.03 148.46 2009.03 149.233 Q2009.03 151.434 2010.46 151.434 Q2011.16 151.434 2011.73 150.989 Q2012.29 150.544 2012.73 149.607 Q2013.18 148.67 2013.46 147.804 Q2013.74 146.914 2014.12 145.508 Q2014.23 144.946 2014.33 144.806 Q2014.44 144.642 2014.77 144.642 Q2015.36 144.642 2015.36 145.11 M2008.78 136.046 Q2008.78 135.835 2008.61 135.249 Q2008.45 134.664 2008.07 133.844 Q2007.7 133.024 2006.88 132.439 Q2006.08 131.83 2005 131.83 Q2003.55 131.83 2002.03 133.071 Q2000.53 134.312 1999.43 136.42 Q1998.59 138.107 1997.67 141.644 Q1996.78 145.18 1996.78 146.937 Q1996.78 148.015 1997.02 148.975 Q1997.27 149.912 1998 150.685 Q1998.73 151.434 1999.85 151.434 Q2002.59 151.434 2005.29 148.038 Q2005.8 147.452 2005.92 147.218 Q2006.06 146.961 2006.25 146.258 L2008.63 136.866 Q2008.78 136.163 2008.78 136.046 Z" fill="#000000" fill-rule="evenodd" fill-opacity="1" /><path clip-path="url(#clip920)" d="M2031.81 144.689 Q2031.86 144.103 2032.77 144.103 L2062.17 144.103 Q2063.55 144.103 2063.57 144.642 Q2063.57 145.227 2062.26 145.204 L2033.1 145.204 Q2031.81 145.227 2031.81 144.689 M2031.81 135.32 Q2031.81 134.734 2032.82 134.758 L2062.12 134.758 Q2063.55 134.758 2063.57 135.32 Q2063.57 135.858 2062.35 135.858 L2032.77 135.858 Q2031.81 135.858 2031.81 135.32 Z" fill="#000000" fill-rule="evenodd" fill-opacity="1" /><path clip-path="url(#clip920)" d="M2099.72 138.435 Q2099.72 141.808 2098.01 145.11 Q2096.33 148.389 2093.61 150.451 Q2090.92 152.512 2088.15 152.512 Q2085.46 152.512 2083.75 150.451 Q2082.06 148.366 2082.06 144.97 Q2082.06 143.775 2082.2 142.932 Q2082.34 142.089 2082.83 140.121 L2086.77 124.475 Q2087.45 121.547 2087.45 121.524 Q2087.45 121.243 2087.33 121.102 Q2087.24 120.938 2086.68 120.821 Q2086.11 120.704 2085.04 120.704 Q2084.59 120.704 2084.38 120.681 Q2084.19 120.657 2084.03 120.54 Q2083.89 120.4 2083.89 120.118 Q2083.89 119.72 2084.05 119.509 Q2084.24 119.275 2084.38 119.228 Q2084.52 119.182 2084.8 119.158 Q2085.2 119.135 2086.54 119.018 Q2087.87 118.877 2089.02 118.783 Q2090.17 118.69 2090.66 118.69 Q2090.94 118.69 2091.08 118.83 Q2091.24 118.947 2091.24 119.088 L2091.27 119.205 L2087.73 133.657 Q2090.52 130.776 2093.35 130.776 Q2096.19 130.776 2097.94 132.954 Q2099.72 135.132 2099.72 138.435 M2096.26 136.327 Q2096.26 134.102 2095.41 132.977 Q2094.59 131.83 2093.23 131.83 Q2092.09 131.83 2090.59 132.696 Q2089.09 133.563 2087.5 135.671 Q2087.19 136.069 2087.07 136.303 Q2086.98 136.538 2086.77 137.334 L2085.72 141.761 Q2084.94 144.782 2084.94 146.609 Q2084.94 149.092 2085.86 150.263 Q2086.77 151.434 2088.15 151.434 Q2089.6 151.434 2091.13 150.146 Q2092.65 148.858 2093.82 146.516 Q2094.55 144.97 2095.39 141.644 Q2096.26 138.294 2096.26 136.327 Z" fill="#000000" fill-rule="evenodd" fill-opacity="1" /><path clip-path="url(#clip920)" d="M2115.73 144.689 Q2115.78 144.103 2116.69 144.103 L2146.09 144.103 Q2147.47 144.103 2147.49 144.642 Q2147.49 145.227 2146.18 145.204 L2117.02 145.204 Q2115.73 145.227 2115.73 144.689 M2115.73 135.32 Q2115.73 134.734 2116.74 134.758 L2146.04 134.758 Q2147.47 134.758 2147.49 135.32 Q2147.49 135.858 2146.27 135.858 L2116.69 135.858 Q2115.73 135.858 2115.73 135.32 Z" fill="#000000" fill-rule="evenodd" fill-opacity="1" /><path clip-path="url(#clip920)" d="M2165.98 124.592 L2165.98 123.093 Q2171.74 123.093 2174.72 120.025 Q2175.54 120.025 2175.68 120.212 Q2175.82 120.4 2175.82 121.266 L2175.82 148.179 Q2175.82 149.607 2176.52 150.052 Q2177.22 150.497 2180.29 150.497 L2181.82 150.497 L2181.82 151.973 Q2180.13 151.832 2174.04 151.832 Q2167.95 151.832 2166.29 151.973 L2166.29 150.497 L2167.81 150.497 Q2170.83 150.497 2171.56 150.076 Q2172.28 149.631 2172.28 148.179 L2172.28 123.327 Q2169.78 124.592 2165.98 124.592 Z" fill="#000000" fill-rule="evenodd" fill-opacity="1" /><polyline clip-path="url(#clip920)" style="stroke:#e26f46; stroke-linecap:butt; stroke-linejoin:round; stroke-width:4; stroke-opacity:1; fill:none" points="
  1827.46,177.871 1969.68,177.871 
  "/>
<path clip-path="url(#clip920)" d="M2015.36 182.907 Q2014.72 185.929 2013.9 187.662 Q2012.59 190.309 2010.37 190.309 Q2008.68 190.309 2007.49 189.278 Q2006.29 188.247 2006.01 186.702 Q2002.94 190.309 1999.76 190.309 Q1996.95 190.309 1995.17 188.177 Q1993.39 186.022 1993.39 182.626 Q1993.39 179.206 1995.07 175.927 Q1996.78 172.648 1999.48 170.61 Q2002.17 168.573 2004.93 168.573 Q2007.86 168.573 2009.36 171.641 Q2009.48 170.798 2010.02 170.165 Q2010.56 169.533 2011.38 169.533 Q2012.01 169.533 2012.38 169.884 Q2012.76 170.212 2012.76 170.821 Q2012.76 171.126 2012.43 172.461 L2010.7 179.16 L2009.64 183.493 Q2009.24 185.085 2009.13 185.671 Q2009.03 186.257 2009.03 187.029 Q2009.03 189.231 2010.46 189.231 Q2011.16 189.231 2011.73 188.786 Q2012.29 188.341 2012.73 187.404 Q2013.18 186.467 2013.46 185.601 Q2013.74 184.711 2014.12 183.305 Q2014.23 182.743 2014.33 182.603 Q2014.44 182.439 2014.77 182.439 Q2015.36 182.439 2015.36 182.907 M2008.78 173.843 Q2008.78 173.632 2008.61 173.046 Q2008.45 172.461 2008.07 171.641 Q2007.7 170.821 2006.88 170.236 Q2006.08 169.627 2005 169.627 Q2003.55 169.627 2002.03 170.868 Q2000.53 172.109 1999.43 174.217 Q1998.59 175.904 1997.67 179.441 Q1996.78 182.977 1996.78 184.734 Q1996.78 185.811 1997.02 186.772 Q1997.27 187.709 1998 188.482 Q1998.73 189.231 1999.85 189.231 Q2002.59 189.231 2005.29 185.835 Q2005.8 185.249 2005.92 185.015 Q2006.06 184.757 2006.25 184.055 L2008.63 174.662 Q2008.78 173.96 2008.78 173.843 Z" fill="#000000" fill-rule="evenodd" fill-opacity="1" /><path clip-path="url(#clip920)" d="M2031.81 182.485 Q2031.86 181.9 2032.77 181.9 L2062.17 181.9 Q2063.55 181.9 2063.57 182.439 Q2063.57 183.024 2062.26 183.001 L2033.1 183.001 Q2031.81 183.024 2031.81 182.485 M2031.81 173.117 Q2031.81 172.531 2032.82 172.554 L2062.12 172.554 Q2063.55 172.554 2063.57 173.117 Q2063.57 173.655 2062.35 173.655 L2032.77 173.655 Q2031.81 173.655 2031.81 173.117 Z" fill="#000000" fill-rule="evenodd" fill-opacity="1" /><path clip-path="url(#clip920)" d="M2082.06 183.305 Q2082.06 181.877 2082.88 181.197 Q2083.7 180.518 2084.76 180.518 Q2085.86 180.518 2086.63 181.244 Q2087.43 181.947 2087.43 183.188 Q2087.43 184.523 2086.49 185.273 Q2085.57 186.022 2084.26 185.835 Q2085.41 187.756 2087.52 188.622 Q2089.65 189.489 2091.62 189.489 Q2093.68 189.489 2095.34 187.709 Q2097.03 185.929 2097.03 181.572 Q2097.03 177.871 2095.58 175.74 Q2094.15 173.608 2091.31 173.608 L2089.21 173.608 Q2088.48 173.608 2088.27 173.538 Q2088.06 173.468 2088.06 173.07 Q2088.06 172.601 2088.78 172.508 Q2089.51 172.508 2090.66 172.367 Q2093.44 172.273 2094.92 169.861 Q2096.26 167.612 2096.26 164.403 Q2096.26 161.476 2094.85 160.258 Q2093.47 159.016 2091.66 159.016 Q2089.98 159.016 2088.13 159.719 Q2086.28 160.422 2085.27 161.991 Q2088.25 161.991 2088.25 164.403 Q2088.25 165.457 2087.57 166.16 Q2086.91 166.839 2085.81 166.839 Q2084.76 166.839 2084.05 166.183 Q2083.35 165.504 2083.35 164.357 Q2083.35 161.616 2085.79 159.719 Q2088.25 157.822 2091.85 157.822 Q2095.41 157.822 2098.04 159.695 Q2100.68 161.569 2100.68 164.45 Q2100.68 167.284 2098.81 169.603 Q2096.93 171.922 2093.96 172.882 Q2097.61 173.608 2099.79 176.091 Q2101.97 178.551 2101.97 181.572 Q2101.97 185.32 2099.02 188.083 Q2096.07 190.824 2091.76 190.824 Q2087.78 190.824 2084.92 188.669 Q2082.06 186.514 2082.06 183.305 Z" fill="#000000" fill-rule="evenodd" fill-opacity="1" /><path clip-path="url(#clip920)" d="M2106.49 188.997 Q2105.81 188.224 2105.81 187.217 Q2105.81 186.21 2106.47 185.46 Q2107.15 184.687 2108.36 184.687 Q2109.79 184.687 2110.61 186.069 Q2111.43 187.428 2111.43 189.723 Q2111.43 192.206 2110.43 194.501 Q2109.42 196.82 2108.43 197.921 Q2107.45 199.022 2107.05 199.022 Q2106.58 199.022 2106.58 198.506 Q2106.58 198.319 2106.91 197.968 Q2110.36 194.267 2110.38 189.723 Q2110.38 188.997 2110.29 188.997 L2110.17 189.091 Q2109.35 189.77 2108.36 189.77 Q2107.17 189.77 2106.49 188.997 Z" fill="#000000" fill-rule="evenodd" fill-opacity="1" /><path clip-path="url(#clip920)" d="M2144.23 176.232 Q2144.23 179.605 2142.52 182.907 Q2140.83 186.186 2138.11 188.247 Q2135.42 190.309 2132.65 190.309 Q2129.96 190.309 2128.25 188.247 Q2126.56 186.163 2126.56 182.767 Q2126.56 181.572 2126.71 180.729 Q2126.85 179.886 2127.34 177.918 L2131.27 162.272 Q2131.95 159.344 2131.95 159.321 Q2131.95 159.04 2131.83 158.899 Q2131.74 158.735 2131.18 158.618 Q2130.62 158.501 2129.54 158.501 Q2129.09 158.501 2128.88 158.477 Q2128.7 158.454 2128.53 158.337 Q2128.39 158.196 2128.39 157.915 Q2128.39 157.517 2128.56 157.306 Q2128.74 157.072 2128.88 157.025 Q2129.02 156.978 2129.31 156.955 Q2129.7 156.932 2131.04 156.814 Q2132.37 156.674 2133.52 156.58 Q2134.67 156.487 2135.16 156.487 Q2135.44 156.487 2135.58 156.627 Q2135.75 156.744 2135.75 156.885 L2135.77 157.002 L2132.23 171.454 Q2135.02 168.573 2137.85 168.573 Q2140.69 168.573 2142.45 170.751 Q2144.23 172.929 2144.23 176.232 M2140.76 174.124 Q2140.76 171.899 2139.92 170.774 Q2139.1 169.627 2137.74 169.627 Q2136.59 169.627 2135.09 170.493 Q2133.59 171.36 2132 173.468 Q2131.69 173.866 2131.58 174.1 Q2131.48 174.334 2131.27 175.131 L2130.22 179.558 Q2129.45 182.579 2129.45 184.406 Q2129.45 186.889 2130.36 188.06 Q2131.27 189.231 2132.65 189.231 Q2134.11 189.231 2135.63 187.943 Q2137.15 186.655 2138.32 184.312 Q2139.05 182.767 2139.89 179.441 Q2140.76 176.091 2140.76 174.124 Z" fill="#000000" fill-rule="evenodd" fill-opacity="1" /><path clip-path="url(#clip920)" d="M2160.23 182.485 Q2160.28 181.9 2161.19 181.9 L2190.59 181.9 Q2191.97 181.9 2191.99 182.439 Q2191.99 183.024 2190.68 183.001 L2161.52 183.001 Q2160.23 183.024 2160.23 182.485 M2160.23 173.117 Q2160.23 172.531 2161.24 172.554 L2190.54 172.554 Q2191.97 172.554 2191.99 173.117 Q2191.99 173.655 2190.78 173.655 L2161.19 173.655 Q2160.23 173.655 2160.23 173.117 Z" fill="#000000" fill-rule="evenodd" fill-opacity="1" /><path clip-path="url(#clip920)" d="M2210.49 189.77 Q2210.49 188.903 2210.56 188.646 Q2210.65 188.388 2211.02 187.99 L2220.23 177.731 Q2225.26 172.063 2225.26 167.12 Q2225.26 163.911 2223.58 161.616 Q2221.92 159.321 2218.85 159.321 Q2216.74 159.321 2214.96 160.609 Q2213.18 161.897 2212.36 164.193 Q2212.5 164.146 2212.99 164.146 Q2214.19 164.146 2214.84 164.895 Q2215.52 165.645 2215.52 166.652 Q2215.52 167.94 2214.68 168.573 Q2213.86 169.182 2213.04 169.182 Q2212.71 169.182 2212.27 169.111 Q2211.84 169.041 2211.16 168.385 Q2210.49 167.706 2210.49 166.511 Q2210.49 163.162 2213.01 160.492 Q2215.57 157.822 2219.46 157.822 Q2223.86 157.822 2226.74 160.445 Q2229.64 163.045 2229.64 167.12 Q2229.64 168.549 2229.2 169.861 Q2228.78 171.149 2228.19 172.156 Q2227.63 173.163 2226.08 174.78 Q2224.54 176.396 2223.3 177.543 Q2222.06 178.691 2219.27 181.127 L2214.19 186.069 L2222.83 186.069 Q2227.04 186.069 2227.37 185.694 Q2227.84 185.015 2228.43 181.431 L2229.64 181.431 L2228.29 189.77 L2210.49 189.77 Z" fill="#000000" fill-rule="evenodd" fill-opacity="1" /><polyline clip-path="url(#clip920)" style="stroke:#3da44d; stroke-linecap:butt; stroke-linejoin:round; stroke-width:4; stroke-opacity:1; fill:none" points="
  1827.46,219.981 1969.68,219.981 
  "/>
<path clip-path="url(#clip920)" d="M2015.36 225.016 Q2014.72 228.038 2013.9 229.771 Q2012.59 232.418 2010.37 232.418 Q2008.68 232.418 2007.49 231.387 Q2006.29 230.357 2006.01 228.811 Q2002.94 232.418 1999.76 232.418 Q1996.95 232.418 1995.17 230.287 Q1993.39 228.132 1993.39 224.735 Q1993.39 221.316 1995.07 218.037 Q1996.78 214.757 1999.48 212.72 Q2002.17 210.682 2004.93 210.682 Q2007.86 210.682 2009.36 213.75 Q2009.48 212.907 2010.02 212.275 Q2010.56 211.642 2011.38 211.642 Q2012.01 211.642 2012.38 211.994 Q2012.76 212.322 2012.76 212.93 Q2012.76 213.235 2012.43 214.57 L2010.7 221.269 L2009.64 225.602 Q2009.24 227.195 2009.13 227.78 Q2009.03 228.366 2009.03 229.139 Q2009.03 231.341 2010.46 231.341 Q2011.16 231.341 2011.73 230.896 Q2012.29 230.45 2012.73 229.514 Q2013.18 228.577 2013.46 227.71 Q2013.74 226.82 2014.12 225.415 Q2014.23 224.853 2014.33 224.712 Q2014.44 224.548 2014.77 224.548 Q2015.36 224.548 2015.36 225.016 M2008.78 215.952 Q2008.78 215.741 2008.61 215.156 Q2008.45 214.57 2008.07 213.75 Q2007.7 212.93 2006.88 212.345 Q2006.08 211.736 2005 211.736 Q2003.55 211.736 2002.03 212.977 Q2000.53 214.219 1999.43 216.327 Q1998.59 218.013 1997.67 221.55 Q1996.78 225.087 1996.78 226.843 Q1996.78 227.921 1997.02 228.881 Q1997.27 229.818 1998 230.591 Q1998.73 231.341 1999.85 231.341 Q2002.59 231.341 2005.29 227.944 Q2005.8 227.359 2005.92 227.124 Q2006.06 226.867 2006.25 226.164 L2008.63 216.772 Q2008.78 216.069 2008.78 215.952 Z" fill="#000000" fill-rule="evenodd" fill-opacity="1" /><path clip-path="url(#clip920)" d="M2031.81 224.595 Q2031.86 224.009 2032.77 224.009 L2062.17 224.009 Q2063.55 224.009 2063.57 224.548 Q2063.57 225.134 2062.26 225.11 L2033.1 225.11 Q2031.81 225.134 2031.81 224.595 M2031.81 215.226 Q2031.81 214.64 2032.82 214.664 L2062.12 214.664 Q2063.55 214.664 2063.57 215.226 Q2063.57 215.765 2062.35 215.765 L2032.77 215.765 Q2031.81 215.765 2031.81 215.226 Z" fill="#000000" fill-rule="evenodd" fill-opacity="1" /><path clip-path="url(#clip920)" d="M2082.06 231.879 Q2082.06 231.013 2082.13 230.755 Q2082.23 230.497 2082.6 230.099 L2091.81 219.84 Q2096.84 214.172 2096.84 209.23 Q2096.84 206.021 2095.15 203.725 Q2093.49 201.43 2090.42 201.43 Q2088.32 201.43 2086.54 202.718 Q2084.76 204.007 2083.94 206.302 Q2084.08 206.255 2084.57 206.255 Q2085.76 206.255 2086.42 207.005 Q2087.1 207.754 2087.1 208.761 Q2087.1 210.05 2086.25 210.682 Q2085.43 211.291 2084.61 211.291 Q2084.29 211.291 2083.84 211.221 Q2083.42 211.15 2082.74 210.495 Q2082.06 209.815 2082.06 208.621 Q2082.06 205.271 2084.59 202.601 Q2087.14 199.931 2091.03 199.931 Q2095.44 199.931 2098.32 202.554 Q2101.22 205.154 2101.22 209.23 Q2101.22 210.659 2100.78 211.97 Q2100.35 213.258 2099.77 214.266 Q2099.21 215.273 2097.66 216.889 Q2096.11 218.505 2094.87 219.653 Q2093.63 220.8 2090.84 223.236 L2085.76 228.179 L2094.41 228.179 Q2098.62 228.179 2098.95 227.804 Q2099.42 227.124 2100 223.541 L2101.22 223.541 L2099.86 231.879 L2082.06 231.879 Z" fill="#000000" fill-rule="evenodd" fill-opacity="1" /><path clip-path="url(#clip920)" d="M2106.49 231.106 Q2105.81 230.333 2105.81 229.326 Q2105.81 228.319 2106.47 227.57 Q2107.15 226.797 2108.36 226.797 Q2109.79 226.797 2110.61 228.179 Q2111.43 229.537 2111.43 231.832 Q2111.43 234.315 2110.43 236.611 Q2109.42 238.929 2108.43 240.03 Q2107.45 241.131 2107.05 241.131 Q2106.58 241.131 2106.58 240.616 Q2106.58 240.428 2106.91 240.077 Q2110.36 236.376 2110.38 231.832 Q2110.38 231.106 2110.29 231.106 L2110.17 231.2 Q2109.35 231.879 2108.36 231.879 Q2107.17 231.879 2106.49 231.106 Z" fill="#000000" fill-rule="evenodd" fill-opacity="1" /><path clip-path="url(#clip920)" d="M2144.23 218.341 Q2144.23 221.714 2142.52 225.016 Q2140.83 228.296 2138.11 230.357 Q2135.42 232.418 2132.65 232.418 Q2129.96 232.418 2128.25 230.357 Q2126.56 228.272 2126.56 224.876 Q2126.56 223.681 2126.71 222.838 Q2126.85 221.995 2127.34 220.027 L2131.27 204.381 Q2131.95 201.453 2131.95 201.43 Q2131.95 201.149 2131.83 201.008 Q2131.74 200.845 2131.18 200.727 Q2130.62 200.61 2129.54 200.61 Q2129.09 200.61 2128.88 200.587 Q2128.7 200.563 2128.53 200.446 Q2128.39 200.306 2128.39 200.025 Q2128.39 199.627 2128.56 199.416 Q2128.74 199.182 2128.88 199.135 Q2129.02 199.088 2129.31 199.064 Q2129.7 199.041 2131.04 198.924 Q2132.37 198.783 2133.52 198.69 Q2134.67 198.596 2135.16 198.596 Q2135.44 198.596 2135.58 198.736 Q2135.75 198.854 2135.75 198.994 L2135.77 199.111 L2132.23 213.563 Q2135.02 210.682 2137.85 210.682 Q2140.69 210.682 2142.45 212.86 Q2144.23 215.039 2144.23 218.341 M2140.76 216.233 Q2140.76 214.008 2139.92 212.884 Q2139.1 211.736 2137.74 211.736 Q2136.59 211.736 2135.09 212.603 Q2133.59 213.469 2132 215.577 Q2131.69 215.975 2131.58 216.21 Q2131.48 216.444 2131.27 217.24 L2130.22 221.667 Q2129.45 224.689 2129.45 226.516 Q2129.45 228.998 2130.36 230.169 Q2131.27 231.341 2132.65 231.341 Q2134.11 231.341 2135.63 230.052 Q2137.15 228.764 2138.32 226.422 Q2139.05 224.876 2139.89 221.55 Q2140.76 218.201 2140.76 216.233 Z" fill="#000000" fill-rule="evenodd" fill-opacity="1" /><path clip-path="url(#clip920)" d="M2160.23 224.595 Q2160.28 224.009 2161.19 224.009 L2190.59 224.009 Q2191.97 224.009 2191.99 224.548 Q2191.99 225.134 2190.68 225.11 L2161.52 225.11 Q2160.23 225.134 2160.23 224.595 M2160.23 215.226 Q2160.23 214.64 2161.24 214.664 L2190.54 214.664 Q2191.97 214.664 2191.99 215.226 Q2191.99 215.765 2190.78 215.765 L2161.19 215.765 Q2160.23 215.765 2160.23 215.226 Z" fill="#000000" fill-rule="evenodd" fill-opacity="1" /><path clip-path="url(#clip920)" d="M2210.49 225.415 Q2210.49 223.986 2211.3 223.307 Q2212.12 222.627 2213.18 222.627 Q2214.28 222.627 2215.05 223.353 Q2215.85 224.056 2215.85 225.298 Q2215.85 226.633 2214.91 227.382 Q2214 228.132 2212.69 227.944 Q2213.83 229.865 2215.94 230.732 Q2218.07 231.598 2220.04 231.598 Q2222.1 231.598 2223.77 229.818 Q2225.45 228.038 2225.45 223.681 Q2225.45 219.981 2224 217.849 Q2222.57 215.718 2219.74 215.718 L2217.63 215.718 Q2216.9 215.718 2216.69 215.647 Q2216.48 215.577 2216.48 215.179 Q2216.48 214.711 2217.21 214.617 Q2217.93 214.617 2219.08 214.476 Q2221.87 214.383 2223.34 211.97 Q2224.68 209.722 2224.68 206.513 Q2224.68 203.585 2223.27 202.367 Q2221.89 201.126 2220.09 201.126 Q2218.4 201.126 2216.55 201.828 Q2214.7 202.531 2213.69 204.1 Q2216.67 204.1 2216.67 206.513 Q2216.67 207.567 2215.99 208.269 Q2215.33 208.949 2214.23 208.949 Q2213.18 208.949 2212.48 208.293 Q2211.77 207.614 2211.77 206.466 Q2211.77 203.725 2214.21 201.828 Q2216.67 199.931 2220.28 199.931 Q2223.84 199.931 2226.46 201.805 Q2229.11 203.679 2229.11 206.56 Q2229.11 209.394 2227.23 211.713 Q2225.36 214.031 2222.38 214.992 Q2226.04 215.718 2228.22 218.201 Q2230.39 220.66 2230.39 223.681 Q2230.39 227.429 2227.44 230.193 Q2224.49 232.933 2220.18 232.933 Q2216.2 232.933 2213.34 230.778 Q2210.49 228.624 2210.49 225.415 Z" fill="#000000" fill-rule="evenodd" fill-opacity="1" /></svg>
