<?xml version="1.0" encoding="utf-8"?>
<svg xmlns="http://www.w3.org/2000/svg" xmlns:xlink="http://www.w3.org/1999/xlink" width="600" height="400" viewBox="0 0 2400 1600">
<defs>
  <clipPath id="clip710">
    <rect x="0" y="0" width="2400" height="1600"/>
  </clipPath>
</defs>
<path clip-path="url(#clip710)" d="
M0 1600 L2400 1600 L2400 0 L0 0  Z
  " fill="#ffffff" fill-rule="evenodd" fill-opacity="1"/>
<defs>
  <clipPath id="clip711">
    <rect x="480" y="0" width="1681" height="1600"/>
  </clipPath>
</defs>
<defs>
  <clipPath id="clip712">
    <rect x="219" y="47" width="2134" height="1393"/>
  </clipPath>
</defs>
<path clip-path="url(#clip710)" d="
M219.866 1439.5 L2352.76 1439.5 L2352.76 47.2441 L219.866 47.2441  Z
  " fill="#ffffff" fill-rule="evenodd" fill-opacity="1"/>
<polyline clip-path="url(#clip712)" style="stroke:#000000; stroke-linecap:butt; stroke-linejoin:round; stroke-width:2; stroke-opacity:0.1; fill:none" points="
  280.231,1439.5 280.231,47.2441 
  "/>
<polyline clip-path="url(#clip712)" style="stroke:#000000; stroke-linecap:butt; stroke-linejoin:round; stroke-width:2; stroke-opacity:0.1; fill:none" points="
  682.663,1439.5 682.663,47.2441 
  "/>
<polyline clip-path="url(#clip712)" style="stroke:#000000; stroke-linecap:butt; stroke-linejoin:round; stroke-width:2; stroke-opacity:0.1; fill:none" points="
  1085.1,1439.5 1085.1,47.2441 
  "/>
<polyline clip-path="url(#clip712)" style="stroke:#000000; stroke-linecap:butt; stroke-linejoin:round; stroke-width:2; stroke-opacity:0.1; fill:none" points="
  1487.53,1439.5 1487.53,47.2441 
  "/>
<polyline clip-path="url(#clip712)" style="stroke:#000000; stroke-linecap:butt; stroke-linejoin:round; stroke-width:2; stroke-opacity:0.1; fill:none" points="
  1889.96,1439.5 1889.96,47.2441 
  "/>
<polyline clip-path="url(#clip712)" style="stroke:#000000; stroke-linecap:butt; stroke-linejoin:round; stroke-width:2; stroke-opacity:0.1; fill:none" points="
  2292.39,1439.5 2292.39,47.2441 
  "/>
<polyline clip-path="url(#clip710)" style="stroke:#000000; stroke-linecap:butt; stroke-linejoin:round; stroke-width:4; stroke-opacity:1; fill:none" points="
  219.866,1439.5 2352.76,1439.5 
  "/>
<polyline clip-path="url(#clip710)" style="stroke:#000000; stroke-linecap:butt; stroke-linejoin:round; stroke-width:4; stroke-opacity:1; fill:none" points="
  280.231,1439.5 280.231,1420.6 
  "/>
<polyline clip-path="url(#clip710)" style="stroke:#000000; stroke-linecap:butt; stroke-linejoin:round; stroke-width:4; stroke-opacity:1; fill:none" points="
  682.663,1439.5 682.663,1420.6 
  "/>
<polyline clip-path="url(#clip710)" style="stroke:#000000; stroke-linecap:butt; stroke-linejoin:round; stroke-width:4; stroke-opacity:1; fill:none" points="
  1085.1,1439.5 1085.1,1420.6 
  "/>
<polyline clip-path="url(#clip710)" style="stroke:#000000; stroke-linecap:butt; stroke-linejoin:round; stroke-width:4; stroke-opacity:1; fill:none" points="
  1487.53,1439.5 1487.53,1420.6 
  "/>
<polyline clip-path="url(#clip710)" style="stroke:#000000; stroke-linecap:butt; stroke-linejoin:round; stroke-width:4; stroke-opacity:1; fill:none" points="
  1889.96,1439.5 1889.96,1420.6 
  "/>
<polyline clip-path="url(#clip710)" style="stroke:#000000; stroke-linecap:butt; stroke-linejoin:round; stroke-width:4; stroke-opacity:1; fill:none" points="
  2292.39,1439.5 2292.39,1420.6 
  "/>
<path clip-path="url(#clip710)" d="M280.231 1468.69 Q276.62 1468.69 274.791 1472.26 Q272.986 1475.8 272.986 1482.93 Q272.986 1490.04 274.791 1493.6 Q276.62 1497.14 280.231 1497.14 Q283.865 1497.14 285.671 1493.6 Q287.5 1490.04 287.5 1482.93 Q287.5 1475.8 285.671 1472.26 Q283.865 1468.69 280.231 1468.69 M280.231 1464.99 Q286.041 1464.99 289.097 1469.6 Q292.175 1474.18 292.175 1482.93 Q292.175 1491.66 289.097 1496.26 Q286.041 1500.85 280.231 1500.85 Q274.421 1500.85 271.342 1496.26 Q268.287 1491.66 268.287 1482.93 Q268.287 1474.18 271.342 1469.6 Q274.421 1464.99 280.231 1464.99 Z" fill="#000000" fill-rule="evenodd" fill-opacity="1" /><path clip-path="url(#clip710)" d="M673.045 1496.24 L680.684 1496.24 L680.684 1469.87 L672.374 1471.54 L672.374 1467.28 L680.638 1465.61 L685.314 1465.61 L685.314 1496.24 L692.952 1496.24 L692.952 1500.17 L673.045 1500.17 L673.045 1496.24 Z" fill="#000000" fill-rule="evenodd" fill-opacity="1" /><path clip-path="url(#clip710)" d="M1079.75 1496.24 L1096.07 1496.24 L1096.07 1500.17 L1074.12 1500.17 L1074.12 1496.24 Q1076.78 1493.48 1081.37 1488.85 Q1085.97 1484.2 1087.16 1482.86 Q1089.4 1480.34 1090.28 1478.6 Q1091.18 1476.84 1091.18 1475.15 Q1091.18 1472.4 1089.24 1470.66 Q1087.32 1468.92 1084.22 1468.92 Q1082.02 1468.92 1079.56 1469.69 Q1077.13 1470.45 1074.35 1472 L1074.35 1467.28 Q1077.18 1466.15 1079.63 1465.57 Q1082.09 1464.99 1084.12 1464.99 Q1089.49 1464.99 1092.69 1467.67 Q1095.88 1470.36 1095.88 1474.85 Q1095.88 1476.98 1095.07 1478.9 Q1094.28 1480.8 1092.18 1483.39 Q1091.6 1484.06 1088.5 1487.28 Q1085.4 1490.47 1079.75 1496.24 Z" fill="#000000" fill-rule="evenodd" fill-opacity="1" /><path clip-path="url(#clip710)" d="M1491.77 1481.54 Q1495.13 1482.26 1497.01 1484.53 Q1498.9 1486.79 1498.9 1490.13 Q1498.9 1495.24 1495.39 1498.04 Q1491.87 1500.85 1485.39 1500.85 Q1483.21 1500.85 1480.9 1500.41 Q1478.6 1499.99 1476.15 1499.13 L1476.15 1494.62 Q1478.09 1495.75 1480.41 1496.33 Q1482.72 1496.91 1485.25 1496.91 Q1489.65 1496.91 1491.94 1495.17 Q1494.25 1493.44 1494.25 1490.13 Q1494.25 1487.07 1492.1 1485.36 Q1489.97 1483.62 1486.15 1483.62 L1482.12 1483.62 L1482.12 1479.78 L1486.33 1479.78 Q1489.78 1479.78 1491.61 1478.41 Q1493.44 1477.03 1493.44 1474.43 Q1493.44 1471.77 1491.54 1470.36 Q1489.67 1468.92 1486.15 1468.92 Q1484.23 1468.92 1482.03 1469.34 Q1479.83 1469.76 1477.19 1470.64 L1477.19 1466.47 Q1479.85 1465.73 1482.17 1465.36 Q1484.51 1464.99 1486.57 1464.99 Q1491.89 1464.99 1494.99 1467.42 Q1498.09 1469.83 1498.09 1473.95 Q1498.09 1476.82 1496.45 1478.81 Q1494.81 1480.78 1491.77 1481.54 Z" fill="#000000" fill-rule="evenodd" fill-opacity="1" /><path clip-path="url(#clip710)" d="M1892.97 1469.69 L1881.16 1488.14 L1892.97 1488.14 L1892.97 1469.69 M1891.74 1465.61 L1897.62 1465.61 L1897.62 1488.14 L1902.55 1488.14 L1902.55 1492.03 L1897.62 1492.03 L1897.62 1500.17 L1892.97 1500.17 L1892.97 1492.03 L1877.37 1492.03 L1877.37 1487.51 L1891.74 1465.61 Z" fill="#000000" fill-rule="evenodd" fill-opacity="1" /><path clip-path="url(#clip710)" d="M2282.67 1465.61 L2301.03 1465.61 L2301.03 1469.55 L2286.95 1469.55 L2286.95 1478.02 Q2287.97 1477.67 2288.99 1477.51 Q2290.01 1477.33 2291.03 1477.33 Q2296.81 1477.33 2300.19 1480.5 Q2303.57 1483.67 2303.57 1489.09 Q2303.57 1494.66 2300.1 1497.77 Q2296.63 1500.85 2290.31 1500.85 Q2288.13 1500.85 2285.86 1500.47 Q2283.62 1500.1 2281.21 1499.36 L2281.21 1494.66 Q2283.29 1495.8 2285.52 1496.35 Q2287.74 1496.91 2290.22 1496.91 Q2294.22 1496.91 2296.56 1494.8 Q2298.9 1492.7 2298.9 1489.09 Q2298.9 1485.47 2296.56 1483.37 Q2294.22 1481.26 2290.22 1481.26 Q2288.34 1481.26 2286.47 1481.68 Q2284.61 1482.1 2282.67 1482.97 L2282.67 1465.61 Z" fill="#000000" fill-rule="evenodd" fill-opacity="1" /><path clip-path="url(#clip710)" d="M1298.25 1535.75 Q1298.25 1541.16 1296.51 1547.24 Q1294.8 1553.3 1292.09 1558.19 Q1289.39 1563.06 1285.85 1566.28 Q1282.3 1569.47 1278.92 1569.47 Q1276.76 1569.47 1275.15 1568.27 Q1273.58 1567.05 1272.71 1565.02 Q1271.84 1562.96 1271.42 1560.71 Q1271 1558.42 1271 1555.94 Q1271 1552.24 1271.8 1548.21 Q1272.61 1544.15 1273.96 1540.48 Q1275.32 1536.78 1277.22 1533.43 Q1279.12 1530.05 1281.21 1527.6 Q1283.33 1525.12 1285.72 1523.67 Q1288.1 1522.22 1290.32 1522.22 Q1291.93 1522.22 1293.22 1522.93 Q1294.54 1523.6 1295.38 1524.8 Q1296.22 1525.96 1296.8 1527.34 Q1297.41 1528.73 1297.7 1530.34 Q1297.99 1531.91 1298.12 1533.23 Q1298.25 1534.52 1298.25 1535.75 M1293.9 1531.66 Q1293.9 1530.01 1293.77 1528.79 Q1293.64 1527.53 1293.29 1526.28 Q1292.93 1525.02 1292.16 1524.35 Q1291.42 1523.67 1290.26 1523.67 Q1286.88 1523.67 1283.08 1530.59 Q1281.85 1532.75 1280.76 1535.68 Q1279.66 1538.61 1279.28 1540 Q1278.89 1541.38 1277.99 1544.8 L1291.77 1544.8 Q1293.9 1536 1293.9 1531.66 M1291.19 1546.89 L1277.47 1546.89 Q1275.35 1554.94 1275.35 1559.96 Q1275.35 1564.34 1276.25 1566.18 Q1277.18 1567.98 1278.92 1567.98 Q1280.92 1567.98 1282.79 1565.99 Q1284.66 1563.96 1286.56 1560.29 Q1289.07 1555.52 1291.19 1546.89 Z" fill="#000000" fill-rule="evenodd" fill-opacity="1" /><polyline clip-path="url(#clip712)" style="stroke:#000000; stroke-linecap:butt; stroke-linejoin:round; stroke-width:2; stroke-opacity:0.1; fill:none" points="
  219.866,1400.1 2352.76,1400.1 
  "/>
<polyline clip-path="url(#clip712)" style="stroke:#000000; stroke-linecap:butt; stroke-linejoin:round; stroke-width:2; stroke-opacity:0.1; fill:none" points="
  219.866,1079.43 2352.76,1079.43 
  "/>
<polyline clip-path="url(#clip712)" style="stroke:#000000; stroke-linecap:butt; stroke-linejoin:round; stroke-width:2; stroke-opacity:0.1; fill:none" points="
  219.866,758.765 2352.76,758.765 
  "/>
<polyline clip-path="url(#clip712)" style="stroke:#000000; stroke-linecap:butt; stroke-linejoin:round; stroke-width:2; stroke-opacity:0.1; fill:none" points="
  219.866,438.098 2352.76,438.098 
  "/>
<polyline clip-path="url(#clip712)" style="stroke:#000000; stroke-linecap:butt; stroke-linejoin:round; stroke-width:2; stroke-opacity:0.1; fill:none" points="
  219.866,117.432 2352.76,117.432 
  "/>
<polyline clip-path="url(#clip710)" style="stroke:#000000; stroke-linecap:butt; stroke-linejoin:round; stroke-width:4; stroke-opacity:1; fill:none" points="
  219.866,1439.5 219.866,47.2441 
  "/>
<polyline clip-path="url(#clip710)" style="stroke:#000000; stroke-linecap:butt; stroke-linejoin:round; stroke-width:4; stroke-opacity:1; fill:none" points="
  219.866,1400.1 238.764,1400.1 
  "/>
<polyline clip-path="url(#clip710)" style="stroke:#000000; stroke-linecap:butt; stroke-linejoin:round; stroke-width:4; stroke-opacity:1; fill:none" points="
  219.866,1079.43 238.764,1079.43 
  "/>
<polyline clip-path="url(#clip710)" style="stroke:#000000; stroke-linecap:butt; stroke-linejoin:round; stroke-width:4; stroke-opacity:1; fill:none" points="
  219.866,758.765 238.764,758.765 
  "/>
<polyline clip-path="url(#clip710)" style="stroke:#000000; stroke-linecap:butt; stroke-linejoin:round; stroke-width:4; stroke-opacity:1; fill:none" points="
  219.866,438.098 238.764,438.098 
  "/>
<polyline clip-path="url(#clip710)" style="stroke:#000000; stroke-linecap:butt; stroke-linejoin:round; stroke-width:4; stroke-opacity:1; fill:none" points="
  219.866,117.432 238.764,117.432 
  "/>
<path clip-path="url(#clip710)" d="M126.691 1385.9 Q123.08 1385.9 121.251 1389.46 Q119.445 1393 119.445 1400.13 Q119.445 1407.24 121.251 1410.8 Q123.08 1414.35 126.691 1414.35 Q130.325 1414.35 132.13 1410.8 Q133.959 1407.24 133.959 1400.13 Q133.959 1393 132.13 1389.46 Q130.325 1385.9 126.691 1385.9 M126.691 1382.19 Q132.501 1382.19 135.556 1386.8 Q138.635 1391.38 138.635 1400.13 Q138.635 1408.86 135.556 1413.47 Q132.501 1418.05 126.691 1418.05 Q120.88 1418.05 117.802 1413.47 Q114.746 1408.86 114.746 1400.13 Q114.746 1391.38 117.802 1386.8 Q120.88 1382.19 126.691 1382.19 Z" fill="#000000" fill-rule="evenodd" fill-opacity="1" /><path clip-path="url(#clip710)" d="M146.853 1411.5 L151.737 1411.5 L151.737 1417.38 L146.853 1417.38 L146.853 1411.5 Z" fill="#000000" fill-rule="evenodd" fill-opacity="1" /><path clip-path="url(#clip710)" d="M171.922 1385.9 Q168.311 1385.9 166.482 1389.46 Q164.677 1393 164.677 1400.13 Q164.677 1407.24 166.482 1410.8 Q168.311 1414.35 171.922 1414.35 Q175.556 1414.35 177.362 1410.8 Q179.19 1407.24 179.19 1400.13 Q179.19 1393 177.362 1389.46 Q175.556 1385.9 171.922 1385.9 M171.922 1382.19 Q177.732 1382.19 180.788 1386.8 Q183.866 1391.38 183.866 1400.13 Q183.866 1408.86 180.788 1413.47 Q177.732 1418.05 171.922 1418.05 Q166.112 1418.05 163.033 1413.47 Q159.978 1408.86 159.978 1400.13 Q159.978 1391.38 163.033 1386.8 Q166.112 1382.19 171.922 1382.19 Z" fill="#000000" fill-rule="evenodd" fill-opacity="1" /><path clip-path="url(#clip710)" d="M127.917 1065.23 Q124.306 1065.23 122.478 1068.8 Q120.672 1072.34 120.672 1079.47 Q120.672 1086.57 122.478 1090.14 Q124.306 1093.68 127.917 1093.68 Q131.552 1093.68 133.357 1090.14 Q135.186 1086.57 135.186 1079.47 Q135.186 1072.34 133.357 1068.8 Q131.552 1065.23 127.917 1065.23 M127.917 1061.53 Q133.728 1061.53 136.783 1066.13 Q139.862 1070.72 139.862 1079.47 Q139.862 1088.19 136.783 1092.8 Q133.728 1097.38 127.917 1097.38 Q122.107 1097.38 119.029 1092.8 Q115.973 1088.19 115.973 1079.47 Q115.973 1070.72 119.029 1066.13 Q122.107 1061.53 127.917 1061.53 Z" fill="#000000" fill-rule="evenodd" fill-opacity="1" /><path clip-path="url(#clip710)" d="M148.079 1090.83 L152.964 1090.83 L152.964 1096.71 L148.079 1096.71 L148.079 1090.83 Z" fill="#000000" fill-rule="evenodd" fill-opacity="1" /><path clip-path="url(#clip710)" d="M163.959 1092.78 L171.598 1092.78 L171.598 1066.41 L163.288 1068.08 L163.288 1063.82 L171.552 1062.15 L176.227 1062.15 L176.227 1092.78 L183.866 1092.78 L183.866 1096.71 L163.959 1096.71 L163.959 1092.78 Z" fill="#000000" fill-rule="evenodd" fill-opacity="1" /><path clip-path="url(#clip710)" d="M128.288 744.564 Q124.677 744.564 122.848 748.128 Q121.043 751.67 121.043 758.8 Q121.043 765.906 122.848 769.471 Q124.677 773.013 128.288 773.013 Q131.922 773.013 133.728 769.471 Q135.556 765.906 135.556 758.8 Q135.556 751.67 133.728 748.128 Q131.922 744.564 128.288 744.564 M128.288 740.86 Q134.098 740.86 137.154 745.466 Q140.232 750.05 140.232 758.8 Q140.232 767.527 137.154 772.133 Q134.098 776.716 128.288 776.716 Q122.478 776.716 119.399 772.133 Q116.343 767.527 116.343 758.8 Q116.343 750.05 119.399 745.466 Q122.478 740.86 128.288 740.86 Z" fill="#000000" fill-rule="evenodd" fill-opacity="1" /><path clip-path="url(#clip710)" d="M148.45 770.165 L153.334 770.165 L153.334 776.045 L148.45 776.045 L148.45 770.165 Z" fill="#000000" fill-rule="evenodd" fill-opacity="1" /><path clip-path="url(#clip710)" d="M167.547 772.11 L183.866 772.11 L183.866 776.045 L161.922 776.045 L161.922 772.11 Q164.584 769.355 169.167 764.726 Q173.774 760.073 174.954 758.73 Q177.2 756.207 178.079 754.471 Q178.982 752.712 178.982 751.022 Q178.982 748.267 177.038 746.531 Q175.116 744.795 172.014 744.795 Q169.815 744.795 167.362 745.559 Q164.931 746.323 162.153 747.874 L162.153 743.152 Q164.977 742.017 167.431 741.439 Q169.885 740.86 171.922 740.86 Q177.292 740.86 180.487 743.545 Q183.681 746.23 183.681 750.721 Q183.681 752.851 182.871 754.772 Q182.084 756.67 179.977 759.263 Q179.399 759.934 176.297 763.152 Q173.195 766.346 167.547 772.11 Z" fill="#000000" fill-rule="evenodd" fill-opacity="1" /><path clip-path="url(#clip710)" d="M127.339 423.897 Q123.728 423.897 121.899 427.462 Q120.093 431.003 120.093 438.133 Q120.093 445.239 121.899 448.804 Q123.728 452.346 127.339 452.346 Q130.973 452.346 132.779 448.804 Q134.607 445.239 134.607 438.133 Q134.607 431.003 132.779 427.462 Q130.973 423.897 127.339 423.897 M127.339 420.193 Q133.149 420.193 136.204 424.8 Q139.283 429.383 139.283 438.133 Q139.283 446.86 136.204 451.466 Q133.149 456.05 127.339 456.05 Q121.529 456.05 118.45 451.466 Q115.394 446.86 115.394 438.133 Q115.394 429.383 118.45 424.8 Q121.529 420.193 127.339 420.193 Z" fill="#000000" fill-rule="evenodd" fill-opacity="1" /><path clip-path="url(#clip710)" d="M147.501 449.499 L152.385 449.499 L152.385 455.378 L147.501 455.378 L147.501 449.499 Z" fill="#000000" fill-rule="evenodd" fill-opacity="1" /><path clip-path="url(#clip710)" d="M176.737 436.744 Q180.093 437.462 181.968 439.73 Q183.866 441.999 183.866 445.332 Q183.866 450.448 180.348 453.249 Q176.829 456.05 170.348 456.05 Q168.172 456.05 165.857 455.61 Q163.565 455.193 161.112 454.337 L161.112 449.823 Q163.056 450.957 165.371 451.536 Q167.686 452.114 170.209 452.114 Q174.607 452.114 176.899 450.378 Q179.214 448.642 179.214 445.332 Q179.214 442.277 177.061 440.564 Q174.931 438.827 171.112 438.827 L167.084 438.827 L167.084 434.985 L171.297 434.985 Q174.746 434.985 176.575 433.619 Q178.403 432.23 178.403 429.638 Q178.403 426.976 176.505 425.564 Q174.63 424.128 171.112 424.128 Q169.19 424.128 166.991 424.545 Q164.792 424.962 162.153 425.841 L162.153 421.675 Q164.815 420.934 167.13 420.564 Q169.468 420.193 171.528 420.193 Q176.852 420.193 179.954 422.624 Q183.056 425.031 183.056 429.152 Q183.056 432.022 181.413 434.013 Q179.769 435.98 176.737 436.744 Z" fill="#000000" fill-rule="evenodd" fill-opacity="1" /><path clip-path="url(#clip710)" d="M126.205 103.23 Q122.593 103.23 120.765 106.795 Q118.959 110.337 118.959 117.466 Q118.959 124.573 120.765 128.138 Q122.593 131.679 126.205 131.679 Q129.839 131.679 131.644 128.138 Q133.473 124.573 133.473 117.466 Q133.473 110.337 131.644 106.795 Q129.839 103.23 126.205 103.23 M126.205 99.5266 Q132.015 99.5266 135.07 104.133 Q138.149 108.716 138.149 117.466 Q138.149 126.193 135.07 130.8 Q132.015 135.383 126.205 135.383 Q120.394 135.383 117.316 130.8 Q114.26 126.193 114.26 117.466 Q114.26 108.716 117.316 104.133 Q120.394 99.5266 126.205 99.5266 Z" fill="#000000" fill-rule="evenodd" fill-opacity="1" /><path clip-path="url(#clip710)" d="M146.366 128.832 L151.251 128.832 L151.251 134.712 L146.366 134.712 L146.366 128.832 Z" fill="#000000" fill-rule="evenodd" fill-opacity="1" /><path clip-path="url(#clip710)" d="M174.283 104.226 L162.477 122.675 L174.283 122.675 L174.283 104.226 M173.056 100.152 L178.936 100.152 L178.936 122.675 L183.866 122.675 L183.866 126.564 L178.936 126.564 L178.936 134.712 L174.283 134.712 L174.283 126.564 L158.681 126.564 L158.681 122.05 L173.056 100.152 Z" fill="#000000" fill-rule="evenodd" fill-opacity="1" /><path clip-path="url(#clip710)" d="M16.4842 820.637 L16.4842 811.056 L48.8219 798.93 L16.4842 786.739 L16.4842 777.159 L64.0042 777.159 L64.0042 783.429 L22.277 783.429 L54.8694 795.683 L54.8694 802.144 L22.277 814.398 L64.0042 814.398 L64.0042 820.637 L16.4842 820.637 Z" fill="#000000" fill-rule="evenodd" fill-opacity="1" /><path clip-path="url(#clip710)" d="M46.0847 748.45 Q46.0847 755.547 47.7079 758.285 Q49.3312 761.022 53.2461 761.022 Q56.3653 761.022 58.2114 758.985 Q60.0256 756.916 60.0256 753.383 Q60.0256 748.513 56.5881 745.585 Q53.1188 742.625 47.3897 742.625 L46.0847 742.625 L46.0847 748.45 M43.6657 736.769 L64.0042 736.769 L64.0042 742.625 L58.5933 742.625 Q61.8398 744.63 63.3994 747.622 Q64.9272 750.614 64.9272 754.943 Q64.9272 760.417 61.8716 763.664 Q58.7843 766.878 53.6281 766.878 Q47.6125 766.878 44.5569 762.868 Q41.5014 758.826 41.5014 750.837 L41.5014 742.625 L40.9285 742.625 Q36.8862 742.625 34.6901 745.299 Q32.4621 747.94 32.4621 752.747 Q32.4621 755.802 33.1941 758.698 Q33.9262 761.595 35.3903 764.268 L29.9795 764.268 Q28.7381 761.054 28.1334 758.03 Q27.4968 755.006 27.4968 752.142 Q27.4968 744.407 31.5072 740.588 Q35.5176 736.769 43.6657 736.769 Z" fill="#000000" fill-rule="evenodd" fill-opacity="1" /><path clip-path="url(#clip710)" d="M29.4065 701.98 L34.9447 701.98 Q33.6716 704.463 33.035 707.136 Q32.3984 709.81 32.3984 712.674 Q32.3984 717.035 33.7352 719.231 Q35.072 721.395 37.7456 721.395 Q39.7826 721.395 40.9603 719.836 Q42.1061 718.276 43.1565 713.566 L43.6021 711.56 Q44.9389 705.322 47.3897 702.712 Q49.8086 700.07 54.1691 700.07 Q59.1344 700.07 62.0308 704.017 Q64.9272 707.932 64.9272 714.807 Q64.9272 717.671 64.3543 720.791 Q63.8132 723.878 62.6992 727.316 L56.6518 727.316 Q58.3387 724.069 59.198 720.918 Q60.0256 717.767 60.0256 714.68 Q60.0256 710.542 58.6251 708.314 Q57.1929 706.086 54.6147 706.086 Q52.2276 706.086 50.9545 707.709 Q49.6813 709.301 48.5037 714.743 L48.0262 716.78 Q46.8804 722.223 44.5251 724.642 Q42.138 727.061 38.0002 727.061 Q32.9713 727.061 30.2341 723.496 Q27.4968 719.931 27.4968 713.375 Q27.4968 710.128 27.9743 707.264 Q28.4517 704.399 29.4065 701.98 Z" fill="#000000" fill-rule="evenodd" fill-opacity="1" /><path clip-path="url(#clip710)" d="M29.4065 668.019 L34.9447 668.019 Q33.6716 670.502 33.035 673.175 Q32.3984 675.849 32.3984 678.713 Q32.3984 683.074 33.7352 685.27 Q35.072 687.434 37.7456 687.434 Q39.7826 687.434 40.9603 685.875 Q42.1061 684.315 43.1565 679.605 L43.6021 677.599 Q44.9389 671.361 47.3897 668.751 Q49.8086 666.109 54.1691 666.109 Q59.1344 666.109 62.0308 670.056 Q64.9272 673.971 64.9272 680.846 Q64.9272 683.71 64.3543 686.83 Q63.8132 689.917 62.6992 693.354 L56.6518 693.354 Q58.3387 690.108 59.198 686.957 Q60.0256 683.806 60.0256 680.719 Q60.0256 676.581 58.6251 674.353 Q57.1929 672.125 54.6147 672.125 Q52.2276 672.125 50.9545 673.748 Q49.6813 675.34 48.5037 680.782 L48.0262 682.819 Q46.8804 688.262 44.5251 690.681 Q42.138 693.1 38.0002 693.1 Q32.9713 693.1 30.2341 689.535 Q27.4968 685.97 27.4968 679.414 Q27.4968 676.167 27.9743 673.302 Q28.4517 670.438 29.4065 668.019 Z" fill="#000000" fill-rule="evenodd" fill-opacity="1" /><circle clip-path="url(#clip712)" cx="280.231" cy="1299.89" r="14" fill="#009af9" fill-rule="evenodd" fill-opacity="0.5" stroke="#000000" stroke-opacity="0.5" stroke-width="3.2"/>
<circle clip-path="url(#clip712)" cx="682.663" cy="899.057" r="14" fill="#009af9" fill-rule="evenodd" fill-opacity="0.5" stroke="#000000" stroke-opacity="0.5" stroke-width="3.2"/>
<circle clip-path="url(#clip712)" cx="1085.1" cy="398.015" r="14" fill="#009af9" fill-rule="evenodd" fill-opacity="0.5" stroke="#000000" stroke-opacity="0.5" stroke-width="3.2"/>
<circle clip-path="url(#clip712)" cx="1487.53" cy="398.015" r="14" fill="#009af9" fill-rule="evenodd" fill-opacity="0.5" stroke="#000000" stroke-opacity="0.5" stroke-width="3.2"/>
<circle clip-path="url(#clip712)" cx="1889.96" cy="899.057" r="14" fill="#009af9" fill-rule="evenodd" fill-opacity="0.5" stroke="#000000" stroke-opacity="0.5" stroke-width="3.2"/>
<circle clip-path="url(#clip712)" cx="2292.39" cy="1299.89" r="14" fill="#009af9" fill-rule="evenodd" fill-opacity="0.5" stroke="#000000" stroke-opacity="0.5" stroke-width="3.2"/>
<polyline clip-path="url(#clip712)" style="stroke:#009af9; stroke-linecap:butt; stroke-linejoin:round; stroke-width:4; stroke-opacity:0.5; fill:none" points="
  280.231,1400.1 280.231,1299.89 
  "/>
<polyline clip-path="url(#clip712)" style="stroke:#009af9; stroke-linecap:butt; stroke-linejoin:round; stroke-width:4; stroke-opacity:0.5; fill:none" points="
  682.663,1400.1 682.663,899.057 
  "/>
<polyline clip-path="url(#clip712)" style="stroke:#009af9; stroke-linecap:butt; stroke-linejoin:round; stroke-width:4; stroke-opacity:0.5; fill:none" points="
  1085.1,1400.1 1085.1,398.015 
  "/>
<polyline clip-path="url(#clip712)" style="stroke:#009af9; stroke-linecap:butt; stroke-linejoin:round; stroke-width:4; stroke-opacity:0.5; fill:none" points="
  1487.53,1400.1 1487.53,398.015 
  "/>
<polyline clip-path="url(#clip712)" style="stroke:#009af9; stroke-linecap:butt; stroke-linejoin:round; stroke-width:4; stroke-opacity:0.5; fill:none" points="
  1889.96,1400.1 1889.96,899.057 
  "/>
<polyline clip-path="url(#clip712)" style="stroke:#009af9; stroke-linecap:butt; stroke-linejoin:round; stroke-width:4; stroke-opacity:0.5; fill:none" points="
  2292.39,1400.1 2292.39,1299.89 
  "/>
<circle clip-path="url(#clip712)" cx="280.231" cy="349.338" r="14" fill="#e26f46" fill-rule="evenodd" fill-opacity="0.5" stroke="#000000" stroke-opacity="0.5" stroke-width="3.2"/>
<circle clip-path="url(#clip712)" cx="682.663" cy="86.6476" r="14" fill="#e26f46" fill-rule="evenodd" fill-opacity="0.5" stroke="#000000" stroke-opacity="0.5" stroke-width="3.2"/>
<circle clip-path="url(#clip712)" cx="1085.1" cy="743.373" r="14" fill="#e26f46" fill-rule="evenodd" fill-opacity="0.5" stroke="#000000" stroke-opacity="0.5" stroke-width="3.2"/>
<circle clip-path="url(#clip712)" cx="1487.53" cy="1235.92" r="14" fill="#e26f46" fill-rule="evenodd" fill-opacity="0.5" stroke="#000000" stroke-opacity="0.5" stroke-width="3.2"/>
<circle clip-path="url(#clip712)" cx="1889.96" cy="1379.58" r="14" fill="#e26f46" fill-rule="evenodd" fill-opacity="0.5" stroke="#000000" stroke-opacity="0.5" stroke-width="3.2"/>
<circle clip-path="url(#clip712)" cx="2292.39" cy="1399.07" r="14" fill="#e26f46" fill-rule="evenodd" fill-opacity="0.5" stroke="#000000" stroke-opacity="0.5" stroke-width="3.2"/>
<polyline clip-path="url(#clip712)" style="stroke:#e26f46; stroke-linecap:butt; stroke-linejoin:round; stroke-width:4; stroke-opacity:0.5; fill:none" points="
  280.231,1400.1 280.231,349.338 
  "/>
<polyline clip-path="url(#clip712)" style="stroke:#e26f46; stroke-linecap:butt; stroke-linejoin:round; stroke-width:4; stroke-opacity:0.5; fill:none" points="
  682.663,1400.1 682.663,86.6476 
  "/>
<polyline clip-path="url(#clip712)" style="stroke:#e26f46; stroke-linecap:butt; stroke-linejoin:round; stroke-width:4; stroke-opacity:0.5; fill:none" points="
  1085.1,1400.1 1085.1,743.373 
  "/>
<polyline clip-path="url(#clip712)" style="stroke:#e26f46; stroke-linecap:butt; stroke-linejoin:round; stroke-width:4; stroke-opacity:0.5; fill:none" points="
  1487.53,1400.1 1487.53,1235.92 
  "/>
<polyline clip-path="url(#clip712)" style="stroke:#e26f46; stroke-linecap:butt; stroke-linejoin:round; stroke-width:4; stroke-opacity:0.5; fill:none" points="
  1889.96,1400.1 1889.96,1379.58 
  "/>
<polyline clip-path="url(#clip712)" style="stroke:#e26f46; stroke-linecap:butt; stroke-linejoin:round; stroke-width:4; stroke-opacity:0.5; fill:none" points="
  2292.39,1400.1 2292.39,1399.07 
  "/>
<path clip-path="url(#clip710)" d="
M1896.53 216.184 L2281.66 216.184 L2281.66 93.6527 L1896.53 93.6527  Z
  " fill="#ffffff" fill-rule="evenodd" fill-opacity="1"/>
<polyline clip-path="url(#clip710)" style="stroke:#000000; stroke-linecap:butt; stroke-linejoin:round; stroke-width:4; stroke-opacity:1; fill:none" points="
  1896.53,216.184 2281.66,216.184 2281.66,93.6527 1896.53,93.6527 1896.53,216.184 
  "/>
<circle clip-path="url(#clip710)" cx="1991.32" cy="134.496" r="23" fill="#009af9" fill-rule="evenodd" fill-opacity="0.5" stroke="#000000" stroke-opacity="0.5" stroke-width="5.12"/>
<path clip-path="url(#clip710)" d="M2111.18 132.177 Q2111.18 135.597 2109.45 138.899 Q2107.74 142.202 2105.04 144.24 Q2102.35 146.254 2099.61 146.254 Q2097.97 146.254 2096.87 145.364 Q2095.79 144.45 2095.21 143.162 Q2094.76 144.755 2093.8 148.573 Q2092.84 152.391 2092.84 152.765 Q2092.84 152.976 2092.89 153.07 Q2092.94 153.164 2093.15 153.281 Q2093.36 153.421 2093.87 153.468 Q2094.39 153.538 2095.25 153.538 Q2095.7 153.538 2095.86 153.538 Q2096.05 153.562 2096.21 153.679 Q2096.4 153.796 2096.4 154.054 Q2096.4 155.014 2095.54 155.014 Q2094.76 155.014 2093.17 154.944 Q2091.58 154.873 2090.78 154.873 Q2090.1 154.873 2088.74 154.944 Q2087.38 155.014 2086.75 155.014 Q2086.12 155.014 2086.12 154.452 Q2086.12 154.124 2086.21 153.913 Q2086.28 153.726 2086.47 153.632 Q2086.66 153.562 2086.82 153.538 Q2086.96 153.538 2087.24 153.538 Q2088.32 153.538 2088.79 153.351 Q2089.26 153.187 2089.42 152.836 Q2089.61 152.508 2089.82 151.571 L2095.21 130.21 Q2095.54 128.781 2095.54 127.774 Q2095.54 126.509 2095.14 126.04 Q2094.74 125.572 2094.04 125.572 Q2092.82 125.572 2092.02 127.024 Q2091.23 128.476 2090.55 131.287 Q2090.34 132.06 2090.19 132.224 Q2090.08 132.388 2089.73 132.388 Q2089.14 132.364 2089.14 131.896 Q2089.14 131.779 2089.33 131.029 Q2089.52 130.256 2089.87 129.132 Q2090.24 127.984 2090.64 127.258 Q2090.87 126.766 2091.08 126.439 Q2091.3 126.111 2091.72 125.595 Q2092.16 125.08 2092.79 124.799 Q2093.43 124.518 2094.2 124.518 Q2095.7 124.518 2096.94 125.408 Q2098.18 126.298 2098.51 128.102 Q2099.84 126.532 2101.48 125.525 Q2103.12 124.518 2104.79 124.518 Q2107.55 124.518 2109.35 126.673 Q2111.18 128.804 2111.18 132.177 M2107.71 130.069 Q2107.71 127.938 2106.9 126.766 Q2106.1 125.572 2104.65 125.572 Q2102.84 125.572 2100.76 127.399 Q2098.7 129.132 2098.28 130.748 L2095.91 140.141 L2095.77 140.914 Q2095.77 141.054 2095.84 141.476 Q2095.93 141.874 2096.19 142.53 Q2096.47 143.186 2096.85 143.771 Q2097.25 144.333 2097.95 144.755 Q2098.67 145.176 2099.56 145.176 Q2100.99 145.176 2102.54 143.912 Q2104.11 142.647 2105.28 140.258 Q2106.01 138.712 2106.85 135.386 Q2107.71 132.036 2107.71 130.069 Z" fill="#000000" fill-rule="evenodd" fill-opacity="1" /><path clip-path="url(#clip710)" d="M2123.31 138.431 Q2123.36 137.845 2124.27 137.845 L2153.67 137.845 Q2155.05 137.845 2155.07 138.384 Q2155.07 138.97 2153.76 138.946 L2124.6 138.946 Q2123.31 138.97 2123.31 138.431 M2123.31 129.062 Q2123.31 128.476 2124.32 128.5 L2153.62 128.5 Q2155.05 128.5 2155.07 129.062 Q2155.07 129.601 2153.86 129.601 L2124.27 129.601 Q2123.31 129.601 2123.31 129.062 Z" fill="#000000" fill-rule="evenodd" fill-opacity="1" /><path clip-path="url(#clip710)" d="M2173.57 130.373 Q2173.57 123.323 2175.35 119.482 Q2177.83 113.767 2183.68 113.767 Q2184.92 113.767 2186.21 114.118 Q2187.52 114.446 2189.16 115.734 Q2190.83 117.023 2191.83 119.131 Q2193.76 123.206 2193.76 130.373 Q2193.76 137.377 2191.98 141.195 Q2189.38 146.769 2183.64 146.769 Q2181.48 146.769 2179.28 145.668 Q2177.1 144.567 2175.72 141.921 Q2173.57 137.962 2173.57 130.373 M2177.55 129.788 Q2177.55 137.025 2178.06 139.906 Q2178.65 143.022 2180.24 144.38 Q2181.86 145.715 2183.64 145.715 Q2185.56 145.715 2187.15 144.286 Q2188.77 142.834 2189.26 139.719 Q2189.8 136.651 2189.77 129.788 Q2189.77 123.113 2189.3 120.442 Q2188.67 117.327 2186.99 116.086 Q2185.32 114.821 2183.64 114.821 Q2183 114.821 2182.33 115.008 Q2181.67 115.196 2180.71 115.734 Q2179.75 116.273 2179 117.608 Q2178.27 118.943 2177.92 120.958 Q2177.55 123.558 2177.55 129.788 Z" fill="#000000" fill-rule="evenodd" fill-opacity="1" /><path clip-path="url(#clip710)" d="M2198.04 144.942 Q2197.32 144.169 2197.32 143.162 Q2197.32 142.155 2198.04 141.429 Q2198.77 140.679 2199.87 140.679 Q2200.92 140.679 2201.62 141.382 Q2202.35 142.061 2202.35 143.186 Q2202.35 144.286 2201.58 145.013 Q2200.83 145.715 2199.87 145.715 Q2198.77 145.715 2198.04 144.942 Z" fill="#000000" fill-rule="evenodd" fill-opacity="1" /><path clip-path="url(#clip710)" d="M2210.51 137.986 Q2210.51 136.557 2211.28 136.018 Q2212.06 135.456 2212.88 135.456 Q2213.98 135.456 2214.61 136.159 Q2215.27 136.838 2215.27 137.798 Q2215.27 138.759 2214.61 139.461 Q2213.98 140.141 2212.88 140.141 Q2212.34 140.141 2212.06 140.047 Q2212.69 142.249 2214.61 143.841 Q2216.56 145.434 2219.11 145.434 Q2222.32 145.434 2224.24 142.319 Q2225.39 140.305 2225.39 135.737 Q2225.39 131.709 2224.52 129.694 Q2223.18 126.626 2220.44 126.626 Q2216.56 126.626 2214.26 129.975 Q2213.98 130.397 2213.65 130.42 Q2213.18 130.42 2213.07 130.163 Q2212.97 129.882 2212.97 129.156 L2212.97 114.962 Q2212.97 113.814 2213.44 113.814 Q2213.63 113.814 2214.03 113.954 Q2217.05 115.289 2220.4 115.313 Q2223.84 115.313 2226.93 113.908 Q2227.17 113.767 2227.31 113.767 Q2227.77 113.767 2227.8 114.306 Q2227.8 114.493 2227.4 115.055 Q2227.02 115.594 2226.21 116.32 Q2225.39 117.023 2224.33 117.702 Q2223.28 118.381 2221.73 118.85 Q2220.21 119.295 2218.52 119.295 Q2216.51 119.295 2214.45 118.662 L2214.45 128.008 Q2216.93 125.572 2220.54 125.572 Q2224.38 125.572 2227.02 128.664 Q2229.67 131.755 2229.67 136.065 Q2229.67 140.586 2226.53 143.677 Q2223.42 146.769 2219.2 146.769 Q2215.36 146.769 2212.92 144.029 Q2210.51 141.288 2210.51 137.986 Z" fill="#000000" fill-rule="evenodd" fill-opacity="1" /><circle clip-path="url(#clip710)" cx="1991.32" cy="175.34" r="23" fill="#e26f46" fill-rule="evenodd" fill-opacity="0.5" stroke="#000000" stroke-opacity="0.5" stroke-width="5.12"/>
<path clip-path="url(#clip710)" d="M2111.18 173.021 Q2111.18 176.44 2109.45 179.743 Q2107.74 183.046 2105.04 185.083 Q2102.35 187.098 2099.61 187.098 Q2097.97 187.098 2096.87 186.208 Q2095.79 185.294 2095.21 184.006 Q2094.76 185.599 2093.8 189.416 Q2092.84 193.234 2092.84 193.609 Q2092.84 193.82 2092.89 193.914 Q2092.94 194.007 2093.15 194.124 Q2093.36 194.265 2093.87 194.312 Q2094.39 194.382 2095.25 194.382 Q2095.7 194.382 2095.86 194.382 Q2096.05 194.405 2096.21 194.523 Q2096.4 194.64 2096.4 194.897 Q2096.4 195.858 2095.54 195.858 Q2094.76 195.858 2093.17 195.787 Q2091.58 195.717 2090.78 195.717 Q2090.1 195.717 2088.74 195.787 Q2087.38 195.858 2086.75 195.858 Q2086.12 195.858 2086.12 195.296 Q2086.12 194.968 2086.21 194.757 Q2086.28 194.569 2086.47 194.476 Q2086.66 194.405 2086.82 194.382 Q2086.96 194.382 2087.24 194.382 Q2088.32 194.382 2088.79 194.195 Q2089.26 194.031 2089.42 193.679 Q2089.61 193.351 2089.82 192.415 L2095.21 171.053 Q2095.54 169.625 2095.54 168.617 Q2095.54 167.353 2095.14 166.884 Q2094.74 166.416 2094.04 166.416 Q2092.82 166.416 2092.02 167.868 Q2091.23 169.32 2090.55 172.131 Q2090.34 172.904 2090.19 173.068 Q2090.08 173.232 2089.73 173.232 Q2089.14 173.208 2089.14 172.74 Q2089.14 172.623 2089.33 171.873 Q2089.52 171.1 2089.87 169.976 Q2090.24 168.828 2090.64 168.102 Q2090.87 167.61 2091.08 167.282 Q2091.3 166.954 2091.72 166.439 Q2092.16 165.924 2092.79 165.643 Q2093.43 165.362 2094.2 165.362 Q2095.7 165.362 2096.94 166.252 Q2098.18 167.142 2098.51 168.945 Q2099.84 167.376 2101.48 166.369 Q2103.12 165.362 2104.79 165.362 Q2107.55 165.362 2109.35 167.516 Q2111.18 169.648 2111.18 173.021 M2107.71 170.913 Q2107.71 168.781 2106.9 167.61 Q2106.1 166.416 2104.65 166.416 Q2102.84 166.416 2100.76 168.243 Q2098.7 169.976 2098.28 171.592 L2095.91 180.984 L2095.77 181.757 Q2095.77 181.898 2095.84 182.319 Q2095.93 182.718 2096.19 183.373 Q2096.47 184.029 2096.85 184.615 Q2097.25 185.177 2097.95 185.599 Q2098.67 186.02 2099.56 186.02 Q2100.99 186.02 2102.54 184.755 Q2104.11 183.491 2105.28 181.102 Q2106.01 179.556 2106.85 176.23 Q2107.71 172.88 2107.71 170.913 Z" fill="#000000" fill-rule="evenodd" fill-opacity="1" /><path clip-path="url(#clip710)" d="M2123.31 179.275 Q2123.36 178.689 2124.27 178.689 L2153.67 178.689 Q2155.05 178.689 2155.07 179.228 Q2155.07 179.813 2153.76 179.79 L2124.6 179.79 Q2123.31 179.813 2123.31 179.275 M2123.31 169.906 Q2123.31 169.32 2124.32 169.343 L2153.62 169.343 Q2155.05 169.343 2155.07 169.906 Q2155.07 170.444 2153.86 170.444 L2124.27 170.444 Q2123.31 170.444 2123.31 169.906 Z" fill="#000000" fill-rule="evenodd" fill-opacity="1" /><path clip-path="url(#clip710)" d="M2173.57 171.217 Q2173.57 164.167 2175.35 160.326 Q2177.83 154.611 2183.68 154.611 Q2184.92 154.611 2186.21 154.962 Q2187.52 155.29 2189.16 156.578 Q2190.83 157.866 2191.83 159.974 Q2193.76 164.05 2193.76 171.217 Q2193.76 178.221 2191.98 182.038 Q2189.38 187.613 2183.64 187.613 Q2181.48 187.613 2179.28 186.512 Q2177.1 185.411 2175.72 182.765 Q2173.57 178.806 2173.57 171.217 M2177.55 170.632 Q2177.55 177.869 2178.06 180.75 Q2178.65 183.865 2180.24 185.224 Q2181.86 186.559 2183.64 186.559 Q2185.56 186.559 2187.15 185.13 Q2188.77 183.678 2189.26 180.563 Q2189.8 177.494 2189.77 170.632 Q2189.77 163.956 2189.3 161.286 Q2188.67 158.171 2186.99 156.93 Q2185.32 155.665 2183.64 155.665 Q2183 155.665 2182.33 155.852 Q2181.67 156.039 2180.71 156.578 Q2179.75 157.117 2179 158.452 Q2178.27 159.787 2177.92 161.801 Q2177.55 164.401 2177.55 170.632 Z" fill="#000000" fill-rule="evenodd" fill-opacity="1" /><path clip-path="url(#clip710)" d="M2198.04 185.786 Q2197.32 185.013 2197.32 184.006 Q2197.32 182.999 2198.04 182.273 Q2198.77 181.523 2199.87 181.523 Q2200.92 181.523 2201.62 182.226 Q2202.35 182.905 2202.35 184.029 Q2202.35 185.13 2201.58 185.856 Q2200.83 186.559 2199.87 186.559 Q2198.77 186.559 2198.04 185.786 Z" fill="#000000" fill-rule="evenodd" fill-opacity="1" /><path clip-path="url(#clip710)" d="M2210.51 186.559 Q2210.51 185.692 2210.58 185.435 Q2210.68 185.177 2211.05 184.779 L2220.26 174.52 Q2225.29 168.852 2225.29 163.909 Q2225.29 160.701 2223.61 158.405 Q2221.94 156.11 2218.87 156.11 Q2216.77 156.11 2214.99 157.398 Q2213.21 158.686 2212.39 160.982 Q2212.53 160.935 2213.02 160.935 Q2214.21 160.935 2214.87 161.684 Q2215.55 162.434 2215.55 163.441 Q2215.55 164.729 2214.7 165.362 Q2213.88 165.971 2213.07 165.971 Q2212.74 165.971 2212.29 165.9 Q2211.87 165.83 2211.19 165.174 Q2210.51 164.495 2210.51 163.3 Q2210.51 159.951 2213.04 157.281 Q2215.59 154.611 2219.48 154.611 Q2223.89 154.611 2226.77 157.234 Q2229.67 159.834 2229.67 163.909 Q2229.67 165.338 2229.23 166.65 Q2228.8 167.938 2228.22 168.945 Q2227.66 169.952 2226.11 171.569 Q2224.57 173.185 2223.32 174.332 Q2222.08 175.48 2219.3 177.916 L2214.21 182.858 L2222.86 182.858 Q2227.07 182.858 2227.4 182.483 Q2227.87 181.804 2228.45 178.221 L2229.67 178.221 L2228.31 186.559 L2210.51 186.559 Z" fill="#000000" fill-rule="evenodd" fill-opacity="1" /></svg>
