<?xml version="1.0" encoding="utf-8"?>
<svg xmlns="http://www.w3.org/2000/svg" xmlns:xlink="http://www.w3.org/1999/xlink" width="600" height="400" viewBox="0 0 2400 1600">
<defs>
  <clipPath id="clip860">
    <rect x="0" y="0" width="2400" height="1600"/>
  </clipPath>
</defs>
<path clip-path="url(#clip860)" d="
M0 1600 L2400 1600 L2400 0 L0 0  Z
  " fill="#ffffff" fill-rule="evenodd" fill-opacity="1"/>
<defs>
  <clipPath id="clip861">
    <rect x="480" y="0" width="1681" height="1600"/>
  </clipPath>
</defs>
<defs>
  <clipPath id="clip862">
    <rect x="219" y="47" width="2134" height="1393"/>
  </clipPath>
</defs>
<path clip-path="url(#clip860)" d="
M219.38 1439.5 L2352.76 1439.5 L2352.76 47.2441 L219.38 47.2441  Z
  " fill="#ffffff" fill-rule="evenodd" fill-opacity="1"/>
<polyline clip-path="url(#clip862)" style="stroke:#000000; stroke-linecap:butt; stroke-linejoin:round; stroke-width:2; stroke-opacity:0.1; fill:none" points="
  219.38,1439.5 219.38,47.2441 
  "/>
<polyline clip-path="url(#clip862)" style="stroke:#000000; stroke-linecap:butt; stroke-linejoin:round; stroke-width:2; stroke-opacity:0.1; fill:none" points="
  693.464,1439.5 693.464,47.2441 
  "/>
<polyline clip-path="url(#clip862)" style="stroke:#000000; stroke-linecap:butt; stroke-linejoin:round; stroke-width:2; stroke-opacity:0.1; fill:none" points="
  1167.55,1439.5 1167.55,47.2441 
  "/>
<polyline clip-path="url(#clip862)" style="stroke:#000000; stroke-linecap:butt; stroke-linejoin:round; stroke-width:2; stroke-opacity:0.1; fill:none" points="
  1641.63,1439.5 1641.63,47.2441 
  "/>
<polyline clip-path="url(#clip862)" style="stroke:#000000; stroke-linecap:butt; stroke-linejoin:round; stroke-width:2; stroke-opacity:0.1; fill:none" points="
  2115.71,1439.5 2115.71,47.2441 
  "/>
<polyline clip-path="url(#clip860)" style="stroke:#000000; stroke-linecap:butt; stroke-linejoin:round; stroke-width:4; stroke-opacity:1; fill:none" points="
  219.38,1439.5 2352.76,1439.5 
  "/>
<polyline clip-path="url(#clip860)" style="stroke:#000000; stroke-linecap:butt; stroke-linejoin:round; stroke-width:4; stroke-opacity:1; fill:none" points="
  219.38,1439.5 219.38,1420.6 
  "/>
<polyline clip-path="url(#clip860)" style="stroke:#000000; stroke-linecap:butt; stroke-linejoin:round; stroke-width:4; stroke-opacity:1; fill:none" points="
  693.464,1439.5 693.464,1420.6 
  "/>
<polyline clip-path="url(#clip860)" style="stroke:#000000; stroke-linecap:butt; stroke-linejoin:round; stroke-width:4; stroke-opacity:1; fill:none" points="
  1167.55,1439.5 1167.55,1420.6 
  "/>
<polyline clip-path="url(#clip860)" style="stroke:#000000; stroke-linecap:butt; stroke-linejoin:round; stroke-width:4; stroke-opacity:1; fill:none" points="
  1641.63,1439.5 1641.63,1420.6 
  "/>
<polyline clip-path="url(#clip860)" style="stroke:#000000; stroke-linecap:butt; stroke-linejoin:round; stroke-width:4; stroke-opacity:1; fill:none" points="
  2115.71,1439.5 2115.71,1420.6 
  "/>
<path clip-path="url(#clip860)" d="M219.38 1468.69 Q215.769 1468.69 213.94 1472.26 Q212.135 1475.8 212.135 1482.93 Q212.135 1490.04 213.94 1493.6 Q215.769 1497.14 219.38 1497.14 Q223.014 1497.14 224.82 1493.6 Q226.649 1490.04 226.649 1482.93 Q226.649 1475.8 224.82 1472.26 Q223.014 1468.69 219.38 1468.69 M219.38 1464.99 Q225.19 1464.99 228.246 1469.6 Q231.325 1474.18 231.325 1482.93 Q231.325 1491.66 228.246 1496.26 Q225.19 1500.85 219.38 1500.85 Q213.57 1500.85 210.491 1496.26 Q207.436 1491.66 207.436 1482.93 Q207.436 1474.18 210.491 1469.6 Q213.57 1464.99 219.38 1464.99 Z" fill="#000000" fill-rule="evenodd" fill-opacity="1" /><path clip-path="url(#clip860)" d="M683.846 1496.24 L691.485 1496.24 L691.485 1469.87 L683.174 1471.54 L683.174 1467.28 L691.438 1465.61 L696.114 1465.61 L696.114 1496.24 L703.753 1496.24 L703.753 1500.17 L683.846 1500.17 L683.846 1496.24 Z" fill="#000000" fill-rule="evenodd" fill-opacity="1" /><path clip-path="url(#clip860)" d="M1162.2 1496.24 L1178.52 1496.24 L1178.52 1500.17 L1156.57 1500.17 L1156.57 1496.24 Q1159.24 1493.48 1163.82 1488.85 Q1168.43 1484.2 1169.61 1482.86 Q1171.85 1480.34 1172.73 1478.6 Q1173.64 1476.84 1173.64 1475.15 Q1173.64 1472.4 1171.69 1470.66 Q1169.77 1468.92 1166.67 1468.92 Q1164.47 1468.92 1162.01 1469.69 Q1159.58 1470.45 1156.81 1472 L1156.81 1467.28 Q1159.63 1466.15 1162.08 1465.57 Q1164.54 1464.99 1166.57 1464.99 Q1171.95 1464.99 1175.14 1467.67 Q1178.33 1470.36 1178.33 1474.85 Q1178.33 1476.98 1177.52 1478.9 Q1176.74 1480.8 1174.63 1483.39 Q1174.05 1484.06 1170.95 1487.28 Q1167.85 1490.47 1162.2 1496.24 Z" fill="#000000" fill-rule="evenodd" fill-opacity="1" /><path clip-path="url(#clip860)" d="M1645.88 1481.54 Q1649.23 1482.26 1651.11 1484.53 Q1653.01 1486.79 1653.01 1490.13 Q1653.01 1495.24 1649.49 1498.04 Q1645.97 1500.85 1639.49 1500.85 Q1637.31 1500.85 1635 1500.41 Q1632.71 1499.99 1630.25 1499.13 L1630.25 1494.62 Q1632.2 1495.75 1634.51 1496.33 Q1636.83 1496.91 1639.35 1496.91 Q1643.75 1496.91 1646.04 1495.17 Q1648.36 1493.44 1648.36 1490.13 Q1648.36 1487.07 1646.2 1485.36 Q1644.07 1483.62 1640.25 1483.62 L1636.23 1483.62 L1636.23 1479.78 L1640.44 1479.78 Q1643.89 1479.78 1645.72 1478.41 Q1647.54 1477.03 1647.54 1474.43 Q1647.54 1471.77 1645.65 1470.36 Q1643.77 1468.92 1640.25 1468.92 Q1638.33 1468.92 1636.13 1469.34 Q1633.93 1469.76 1631.3 1470.64 L1631.3 1466.47 Q1633.96 1465.73 1636.27 1465.36 Q1638.61 1464.99 1640.67 1464.99 Q1645.99 1464.99 1649.1 1467.42 Q1652.2 1469.83 1652.2 1473.95 Q1652.2 1476.82 1650.55 1478.81 Q1648.91 1480.78 1645.88 1481.54 Z" fill="#000000" fill-rule="evenodd" fill-opacity="1" /><path clip-path="url(#clip860)" d="M2118.72 1469.69 L2106.92 1488.14 L2118.72 1488.14 L2118.72 1469.69 M2117.5 1465.61 L2123.38 1465.61 L2123.38 1488.14 L2128.31 1488.14 L2128.31 1492.03 L2123.38 1492.03 L2123.38 1500.17 L2118.72 1500.17 L2118.72 1492.03 L2103.12 1492.03 L2103.12 1487.51 L2117.5 1465.61 Z" fill="#000000" fill-rule="evenodd" fill-opacity="1" /><path clip-path="url(#clip860)" d="M1298 1535.75 Q1298 1541.16 1296.26 1547.24 Q1294.56 1553.3 1291.85 1558.19 Q1289.15 1563.06 1285.6 1566.28 Q1282.06 1569.47 1278.68 1569.47 Q1276.52 1569.47 1274.91 1568.27 Q1273.33 1567.05 1272.46 1565.02 Q1271.59 1562.96 1271.18 1560.71 Q1270.76 1558.42 1270.76 1555.94 Q1270.76 1552.24 1271.56 1548.21 Q1272.37 1544.15 1273.72 1540.48 Q1275.07 1536.78 1276.97 1533.43 Q1278.87 1530.05 1280.97 1527.6 Q1283.09 1525.12 1285.47 1523.67 Q1287.86 1522.22 1290.08 1522.22 Q1291.69 1522.22 1292.98 1522.93 Q1294.3 1523.6 1295.14 1524.8 Q1295.97 1525.96 1296.55 1527.34 Q1297.17 1528.73 1297.46 1530.34 Q1297.75 1531.91 1297.87 1533.23 Q1298 1534.52 1298 1535.75 M1293.66 1531.66 Q1293.66 1530.01 1293.53 1528.79 Q1293.4 1527.53 1293.04 1526.28 Q1292.69 1525.02 1291.92 1524.35 Q1291.18 1523.67 1290.02 1523.67 Q1286.63 1523.67 1282.83 1530.59 Q1281.61 1532.75 1280.52 1535.68 Q1279.42 1538.61 1279.03 1540 Q1278.65 1541.38 1277.75 1544.8 L1291.53 1544.8 Q1293.66 1536 1293.66 1531.66 M1290.95 1546.89 L1277.23 1546.89 Q1275.1 1554.94 1275.1 1559.96 Q1275.1 1564.34 1276.01 1566.18 Q1276.94 1567.98 1278.68 1567.98 Q1280.68 1567.98 1282.54 1565.99 Q1284.41 1563.96 1286.31 1560.29 Q1288.82 1555.52 1290.95 1546.89 Z" fill="#000000" fill-rule="evenodd" fill-opacity="1" /><polyline clip-path="url(#clip862)" style="stroke:#000000; stroke-linecap:butt; stroke-linejoin:round; stroke-width:2; stroke-opacity:0.1; fill:none" points="
  219.38,1400.14 2352.76,1400.14 
  "/>
<polyline clip-path="url(#clip862)" style="stroke:#000000; stroke-linecap:butt; stroke-linejoin:round; stroke-width:2; stroke-opacity:0.1; fill:none" points="
  219.38,1071.77 2352.76,1071.77 
  "/>
<polyline clip-path="url(#clip862)" style="stroke:#000000; stroke-linecap:butt; stroke-linejoin:round; stroke-width:2; stroke-opacity:0.1; fill:none" points="
  219.38,743.395 2352.76,743.395 
  "/>
<polyline clip-path="url(#clip862)" style="stroke:#000000; stroke-linecap:butt; stroke-linejoin:round; stroke-width:2; stroke-opacity:0.1; fill:none" points="
  219.38,415.021 2352.76,415.021 
  "/>
<polyline clip-path="url(#clip862)" style="stroke:#000000; stroke-linecap:butt; stroke-linejoin:round; stroke-width:2; stroke-opacity:0.1; fill:none" points="
  219.38,86.6476 2352.76,86.6476 
  "/>
<polyline clip-path="url(#clip860)" style="stroke:#000000; stroke-linecap:butt; stroke-linejoin:round; stroke-width:4; stroke-opacity:1; fill:none" points="
  219.38,1439.5 219.38,47.2441 
  "/>
<polyline clip-path="url(#clip860)" style="stroke:#000000; stroke-linecap:butt; stroke-linejoin:round; stroke-width:4; stroke-opacity:1; fill:none" points="
  219.38,1400.14 238.278,1400.14 
  "/>
<polyline clip-path="url(#clip860)" style="stroke:#000000; stroke-linecap:butt; stroke-linejoin:round; stroke-width:4; stroke-opacity:1; fill:none" points="
  219.38,1071.77 238.278,1071.77 
  "/>
<polyline clip-path="url(#clip860)" style="stroke:#000000; stroke-linecap:butt; stroke-linejoin:round; stroke-width:4; stroke-opacity:1; fill:none" points="
  219.38,743.395 238.278,743.395 
  "/>
<polyline clip-path="url(#clip860)" style="stroke:#000000; stroke-linecap:butt; stroke-linejoin:round; stroke-width:4; stroke-opacity:1; fill:none" points="
  219.38,415.021 238.278,415.021 
  "/>
<polyline clip-path="url(#clip860)" style="stroke:#000000; stroke-linecap:butt; stroke-linejoin:round; stroke-width:4; stroke-opacity:1; fill:none" points="
  219.38,86.6476 238.278,86.6476 
  "/>
<path clip-path="url(#clip860)" d="M126.205 1385.94 Q122.593 1385.94 120.765 1389.51 Q118.959 1393.05 118.959 1400.18 Q118.959 1407.28 120.765 1410.85 Q122.593 1414.39 126.205 1414.39 Q129.839 1414.39 131.644 1410.85 Q133.473 1407.28 133.473 1400.18 Q133.473 1393.05 131.644 1389.51 Q129.839 1385.94 126.205 1385.94 M126.205 1382.24 Q132.015 1382.24 135.07 1386.84 Q138.149 1391.43 138.149 1400.18 Q138.149 1408.9 135.07 1413.51 Q132.015 1418.09 126.205 1418.09 Q120.394 1418.09 117.316 1413.51 Q114.26 1408.9 114.26 1400.18 Q114.26 1391.43 117.316 1386.84 Q120.394 1382.24 126.205 1382.24 Z" fill="#000000" fill-rule="evenodd" fill-opacity="1" /><path clip-path="url(#clip860)" d="M146.366 1411.54 L151.251 1411.54 L151.251 1417.42 L146.366 1417.42 L146.366 1411.54 Z" fill="#000000" fill-rule="evenodd" fill-opacity="1" /><path clip-path="url(#clip860)" d="M171.436 1385.94 Q167.825 1385.94 165.996 1389.51 Q164.19 1393.05 164.19 1400.18 Q164.19 1407.28 165.996 1410.85 Q167.825 1414.39 171.436 1414.39 Q175.07 1414.39 176.876 1410.85 Q178.704 1407.28 178.704 1400.18 Q178.704 1393.05 176.876 1389.51 Q175.07 1385.94 171.436 1385.94 M171.436 1382.24 Q177.246 1382.24 180.301 1386.84 Q183.38 1391.43 183.38 1400.18 Q183.38 1408.9 180.301 1413.51 Q177.246 1418.09 171.436 1418.09 Q165.626 1418.09 162.547 1413.51 Q159.491 1408.9 159.491 1400.18 Q159.491 1391.43 162.547 1386.84 Q165.626 1382.24 171.436 1382.24 Z" fill="#000000" fill-rule="evenodd" fill-opacity="1" /><path clip-path="url(#clip860)" d="M127.2 1057.57 Q123.589 1057.57 121.76 1061.13 Q119.955 1064.67 119.955 1071.8 Q119.955 1078.91 121.76 1082.47 Q123.589 1086.02 127.2 1086.02 Q130.834 1086.02 132.64 1082.47 Q134.468 1078.91 134.468 1071.8 Q134.468 1064.67 132.64 1061.13 Q130.834 1057.57 127.2 1057.57 M127.2 1053.86 Q133.01 1053.86 136.066 1058.47 Q139.144 1063.05 139.144 1071.8 Q139.144 1080.53 136.066 1085.14 Q133.01 1089.72 127.2 1089.72 Q121.39 1089.72 118.311 1085.14 Q115.256 1080.53 115.256 1071.8 Q115.256 1063.05 118.311 1058.47 Q121.39 1053.86 127.2 1053.86 Z" fill="#000000" fill-rule="evenodd" fill-opacity="1" /><path clip-path="url(#clip860)" d="M147.362 1083.17 L152.246 1083.17 L152.246 1089.05 L147.362 1089.05 L147.362 1083.17 Z" fill="#000000" fill-rule="evenodd" fill-opacity="1" /><path clip-path="url(#clip860)" d="M162.477 1054.49 L180.834 1054.49 L180.834 1058.42 L166.76 1058.42 L166.76 1066.9 Q167.778 1066.55 168.797 1066.39 Q169.815 1066.2 170.834 1066.2 Q176.621 1066.2 180.001 1069.37 Q183.38 1072.54 183.38 1077.96 Q183.38 1083.54 179.908 1086.64 Q176.436 1089.72 170.116 1089.72 Q167.94 1089.72 165.672 1089.35 Q163.427 1088.98 161.019 1088.24 L161.019 1083.54 Q163.102 1084.67 165.325 1085.23 Q167.547 1085.78 170.024 1085.78 Q174.028 1085.78 176.366 1083.68 Q178.704 1081.57 178.704 1077.96 Q178.704 1074.35 176.366 1072.24 Q174.028 1070.14 170.024 1070.14 Q168.149 1070.14 166.274 1070.55 Q164.422 1070.97 162.477 1071.85 L162.477 1054.49 Z" fill="#000000" fill-rule="evenodd" fill-opacity="1" /><path clip-path="url(#clip860)" d="M117.015 756.74 L124.654 756.74 L124.654 730.374 L116.343 732.041 L116.343 727.782 L124.607 726.115 L129.283 726.115 L129.283 756.74 L136.922 756.74 L136.922 760.675 L117.015 760.675 L117.015 756.74 Z" fill="#000000" fill-rule="evenodd" fill-opacity="1" /><path clip-path="url(#clip860)" d="M146.366 754.795 L151.251 754.795 L151.251 760.675 L146.366 760.675 L146.366 754.795 Z" fill="#000000" fill-rule="evenodd" fill-opacity="1" /><path clip-path="url(#clip860)" d="M171.436 729.194 Q167.825 729.194 165.996 732.758 Q164.19 736.3 164.19 743.43 Q164.19 750.536 165.996 754.101 Q167.825 757.643 171.436 757.643 Q175.07 757.643 176.876 754.101 Q178.704 750.536 178.704 743.43 Q178.704 736.3 176.876 732.758 Q175.07 729.194 171.436 729.194 M171.436 725.49 Q177.246 725.49 180.301 730.096 Q183.38 734.68 183.38 743.43 Q183.38 752.156 180.301 756.763 Q177.246 761.346 171.436 761.346 Q165.626 761.346 162.547 756.763 Q159.491 752.156 159.491 743.43 Q159.491 734.68 162.547 730.096 Q165.626 725.49 171.436 725.49 Z" fill="#000000" fill-rule="evenodd" fill-opacity="1" /><path clip-path="url(#clip860)" d="M118.01 428.366 L125.649 428.366 L125.649 402 L117.339 403.667 L117.339 399.408 L125.603 397.741 L130.279 397.741 L130.279 428.366 L137.917 428.366 L137.917 432.301 L118.01 432.301 L118.01 428.366 Z" fill="#000000" fill-rule="evenodd" fill-opacity="1" /><path clip-path="url(#clip860)" d="M147.362 426.422 L152.246 426.422 L152.246 432.301 L147.362 432.301 L147.362 426.422 Z" fill="#000000" fill-rule="evenodd" fill-opacity="1" /><path clip-path="url(#clip860)" d="M162.477 397.741 L180.834 397.741 L180.834 401.676 L166.76 401.676 L166.76 410.149 Q167.778 409.801 168.797 409.639 Q169.815 409.454 170.834 409.454 Q176.621 409.454 180.001 412.625 Q183.38 415.797 183.38 421.213 Q183.38 426.792 179.908 429.894 Q176.436 432.973 170.116 432.973 Q167.94 432.973 165.672 432.602 Q163.427 432.232 161.019 431.491 L161.019 426.792 Q163.102 427.926 165.325 428.482 Q167.547 429.037 170.024 429.037 Q174.028 429.037 176.366 426.931 Q178.704 424.824 178.704 421.213 Q178.704 417.602 176.366 415.496 Q174.028 413.389 170.024 413.389 Q168.149 413.389 166.274 413.806 Q164.422 414.223 162.477 415.102 L162.477 397.741 Z" fill="#000000" fill-rule="evenodd" fill-opacity="1" /><path clip-path="url(#clip860)" d="M120.232 99.9925 L136.552 99.9925 L136.552 103.928 L114.607 103.928 L114.607 99.9925 Q117.269 97.2378 121.853 92.6082 Q126.459 87.9555 127.64 86.6129 Q129.885 84.0898 130.765 82.3537 Q131.667 80.5944 131.667 78.9046 Q131.667 76.15 129.723 74.4139 Q127.802 72.6778 124.7 72.6778 Q122.501 72.6778 120.047 73.4417 Q117.617 74.2056 114.839 75.7565 L114.839 71.0343 Q117.663 69.9 120.117 69.3213 Q122.57 68.7426 124.607 68.7426 Q129.978 68.7426 133.172 71.4278 Q136.367 74.113 136.367 78.6037 Q136.367 80.7333 135.556 82.6546 Q134.769 84.5527 132.663 87.1453 Q132.084 87.8166 128.982 91.0342 Q125.88 94.2286 120.232 99.9925 Z" fill="#000000" fill-rule="evenodd" fill-opacity="1" /><path clip-path="url(#clip860)" d="M146.366 98.048 L151.251 98.048 L151.251 103.928 L146.366 103.928 L146.366 98.048 Z" fill="#000000" fill-rule="evenodd" fill-opacity="1" /><path clip-path="url(#clip860)" d="M171.436 72.4463 Q167.825 72.4463 165.996 76.0111 Q164.19 79.5527 164.19 86.6823 Q164.19 93.7888 165.996 97.3536 Q167.825 100.895 171.436 100.895 Q175.07 100.895 176.876 97.3536 Q178.704 93.7888 178.704 86.6823 Q178.704 79.5527 176.876 76.0111 Q175.07 72.4463 171.436 72.4463 M171.436 68.7426 Q177.246 68.7426 180.301 73.3491 Q183.38 77.9324 183.38 86.6823 Q183.38 95.4091 180.301 100.016 Q177.246 104.599 171.436 104.599 Q165.626 104.599 162.547 100.016 Q159.491 95.4091 159.491 86.6823 Q159.491 77.9324 162.547 73.3491 Q165.626 68.7426 171.436 68.7426 Z" fill="#000000" fill-rule="evenodd" fill-opacity="1" /><path clip-path="url(#clip860)" d="M21.7677 856.683 L58.7206 856.683 L58.7206 848.916 Q58.7206 839.081 54.2646 834.53 Q49.8086 829.947 40.1964 829.947 Q30.6479 829.947 26.2237 834.53 Q21.7677 839.081 21.7677 848.916 L21.7677 856.683 M16.4842 863.112 L16.4842 849.903 Q16.4842 836.09 22.2451 829.628 Q27.9743 823.167 40.1964 823.167 Q52.4822 823.167 58.2432 829.66 Q64.0042 836.153 64.0042 849.903 L64.0042 863.112 L16.4842 863.112 Z" fill="#000000" fill-rule="evenodd" fill-opacity="1" /><path clip-path="url(#clip860)" d="M44.7161 782.681 L47.5806 782.681 L47.5806 809.608 Q53.6281 809.226 56.8109 805.98 Q59.9619 802.701 59.9619 796.877 Q59.9619 793.503 59.1344 790.352 Q58.3069 787.169 56.6518 784.05 L62.1899 784.05 Q63.5267 787.201 64.227 790.511 Q64.9272 793.821 64.9272 797.227 Q64.9272 805.757 59.9619 810.754 Q54.9967 815.719 46.5303 815.719 Q37.7774 815.719 32.6531 811.009 Q27.4968 806.266 27.4968 798.245 Q27.4968 791.052 32.1438 786.883 Q36.7589 782.681 44.7161 782.681 M42.9973 788.538 Q38.1912 788.601 35.3266 791.243 Q32.4621 793.853 32.4621 798.182 Q32.4621 803.083 35.2312 806.043 Q38.0002 808.972 43.0292 809.417 L42.9973 788.538 Z" fill="#000000" fill-rule="evenodd" fill-opacity="1" /><path clip-path="url(#clip860)" d="M42.4881 743.437 L64.0042 743.437 L64.0042 749.293 L42.679 749.293 Q37.6183 749.293 35.1038 751.266 Q32.5894 753.24 32.5894 757.187 Q32.5894 761.929 35.6131 764.666 Q38.6368 767.404 43.8567 767.404 L64.0042 767.404 L64.0042 773.292 L28.3562 773.292 L28.3562 767.404 L33.8944 767.404 Q30.6797 765.303 29.0883 762.47 Q27.4968 759.606 27.4968 755.882 Q27.4968 749.739 31.3163 746.588 Q35.1038 743.437 42.4881 743.437 Z" fill="#000000" fill-rule="evenodd" fill-opacity="1" /><path clip-path="url(#clip860)" d="M29.4065 709.03 L34.9447 709.03 Q33.6716 711.513 33.035 714.186 Q32.3984 716.86 32.3984 719.724 Q32.3984 724.085 33.7352 726.281 Q35.072 728.445 37.7456 728.445 Q39.7826 728.445 40.9603 726.886 Q42.1061 725.326 43.1565 720.616 L43.6021 718.61 Q44.9389 712.372 47.3897 709.762 Q49.8086 707.12 54.1691 707.12 Q59.1344 707.12 62.0308 711.067 Q64.9272 714.982 64.9272 721.857 Q64.9272 724.721 64.3543 727.841 Q63.8132 730.928 62.6992 734.366 L56.6518 734.366 Q58.3387 731.119 59.198 727.968 Q60.0256 724.817 60.0256 721.73 Q60.0256 717.592 58.6251 715.364 Q57.1929 713.136 54.6147 713.136 Q52.2276 713.136 50.9545 714.759 Q49.6813 716.351 48.5037 721.793 L48.0262 723.83 Q46.8804 729.273 44.5251 731.692 Q42.138 734.111 38.0002 734.111 Q32.9713 734.111 30.2341 730.546 Q27.4968 726.981 27.4968 720.425 Q27.4968 717.178 27.9743 714.314 Q28.4517 711.449 29.4065 709.03 Z" fill="#000000" fill-rule="evenodd" fill-opacity="1" /><path clip-path="url(#clip860)" d="M28.3562 697.795 L28.3562 691.938 L64.0042 691.938 L64.0042 697.795 L28.3562 697.795 M14.479 697.795 L14.479 691.938 L21.895 691.938 L21.895 697.795 L14.479 697.795 Z" fill="#000000" fill-rule="evenodd" fill-opacity="1" /><path clip-path="url(#clip860)" d="M18.2347 673.891 L28.3562 673.891 L28.3562 661.828 L32.9077 661.828 L32.9077 673.891 L52.2594 673.891 Q56.6199 673.891 57.8613 672.714 Q59.1026 671.504 59.1026 667.844 L59.1026 661.828 L64.0042 661.828 L64.0042 667.844 Q64.0042 674.623 61.4897 677.201 Q58.9434 679.78 52.2594 679.78 L32.9077 679.78 L32.9077 684.076 L28.3562 684.076 L28.3562 679.78 L18.2347 679.78 L18.2347 673.891 Z" fill="#000000" fill-rule="evenodd" fill-opacity="1" /><path clip-path="url(#clip860)" d="M67.3143 639.294 Q73.68 641.776 75.6216 644.132 Q77.5631 646.487 77.5631 650.434 L77.5631 655.112 L72.6615 655.112 L72.6615 651.675 Q72.6615 649.256 71.5157 647.919 Q70.3699 646.582 66.1048 644.959 L63.4312 643.909 L28.3562 658.327 L28.3562 652.121 L56.238 640.981 L28.3562 629.841 L28.3562 623.634 L67.3143 639.294 Z" fill="#000000" fill-rule="evenodd" fill-opacity="1" /><polyline clip-path="url(#clip862)" style="stroke:#009af9; stroke-linecap:butt; stroke-linejoin:round; stroke-width:20; stroke-opacity:1; fill:none" points="
  219.38,743.395 230.041,757.998 240.701,772.277 251.362,786.238 262.022,799.888 311.308,859.157 360.594,912.573 409.88,960.716 459.166,1004.1 508.453,1043.21 
  557.739,1078.45 607.025,1110.22 656.311,1138.84 715.548,1169.54 774.786,1196.62 834.024,1220.53 893.262,1241.63 993.431,1271.82 1093.6,1296.26 1202.41,1317.56 
  1311.22,1334.5 1411.54,1347.02 1511.85,1357.15 1726.95,1372.83 1976.16,1384 2197.63,1390.02 2391.84,1393.42 2603.58,1395.84 2816.58,1397.4 3052.07,1398.47 
  3276.14,1399.1 3509.12,1399.51 3705.24,1399.72 3944.68,1399.89 4169.76,1399.98 4530.36,1400.07 4585.85,1400.08 
  "/>
<polyline clip-path="url(#clip862)" style="stroke:#e26f46; stroke-linecap:butt; stroke-linejoin:round; stroke-width:20; stroke-opacity:1; fill:none" points="
  219.38,86.6476 224.71,115.854 230.041,144.411 235.371,172.333 240.701,199.634 265.344,318.172 289.987,425.005 314.63,521.289 339.273,608.066 363.916,686.275 
  388.559,756.762 413.202,820.289 437.845,877.543 467.464,938.928 497.083,993.103 526.702,1040.91 556.321,1083.11 606.406,1143.49 656.49,1192.37 710.896,1234.98 
  765.302,1268.86 815.46,1293.89 865.618,1314.16 973.166,1345.52 1097.77,1367.85 1208.51,1379.9 1305.61,1386.71 1411.48,1391.55 1517.98,1394.66 1635.73,1396.8 
  1747.76,1398.06 1864.25,1398.87 1962.31,1399.3 2082.03,1399.63 2194.57,1399.83 2374.87,1399.99 2402.62,1400.01 
  "/>
<polyline clip-path="url(#clip862)" style="stroke:#3da44d; stroke-linecap:butt; stroke-linejoin:round; stroke-width:20; stroke-opacity:1; fill:none" points="
  219.38,962.311 235.371,972.046 251.362,981.565 267.353,990.873 283.343,999.973 357.272,1039.49 431.202,1075.1 505.131,1107.19 579.06,1136.12 652.989,1162.19 
  726.918,1185.68 800.847,1206.86 874.776,1225.94 963.632,1246.4 1052.49,1264.46 1141.35,1280.4 1230.2,1294.46 1380.46,1314.59 1530.71,1330.89 1693.93,1345.09 
  1857.15,1356.38 2007.62,1364.73 2158.09,1371.48 2480.74,1381.93 2854.55,1389.38 3186.76,1393.4 3478.07,1395.66 3795.68,1397.28 4115.18,1398.31 4468.42,1399.03 
  4804.52,1399.45 5153.99,1399.72 5448.17,1399.86 5807.33,1399.97 6144.95,1400.04 6685.84,1400.09 6769.09,1400.1 
  "/>
<path clip-path="url(#clip860)" d="
M1892.68 229.653 L2281.64 229.653 L2281.64 93.6527 L1892.68 93.6527  Z
  " fill="#ffffff" fill-rule="evenodd" fill-opacity="1"/>
<polyline clip-path="url(#clip860)" style="stroke:#000000; stroke-linecap:butt; stroke-linejoin:round; stroke-width:4; stroke-opacity:1; fill:none" points="
  1892.68,229.653 2281.64,229.653 2281.64,93.6527 1892.68,93.6527 1892.68,229.653 
  "/>
<polyline clip-path="url(#clip860)" style="stroke:#009af9; stroke-linecap:butt; stroke-linejoin:round; stroke-width:4; stroke-opacity:1; fill:none" points="
  1916.38,127.653 2058.61,127.653 
  "/>
<path clip-path="url(#clip860)" d="M2106.04 143.864 Q2106.04 144.309 2105.52 144.355 L2104.47 144.355 Q2103.39 144.355 2102.92 144.192 Q2102.46 144.028 2101.92 143.278 Q2101.59 142.81 2100.77 140.631 Q2099.97 138.43 2098.8 135.104 Q2097.65 131.778 2096.88 129.81 L2085.33 143.442 Q2084.54 144.449 2083.74 144.449 Q2083.16 144.449 2082.73 144.051 Q2082.31 143.653 2082.31 143.044 Q2082.31 142.599 2082.48 142.341 Q2082.66 142.083 2083.16 141.568 L2096.41 128.428 L2091.75 115.382 Q2090.86 112.969 2090.35 112.36 Q2089.85 111.751 2088.64 111.541 Q2088.19 111.424 2088.19 111.049 Q2088.19 110.533 2089.06 110.533 Q2093.7 110.533 2094.91 113.93 L2104.7 141.217 Q2105.24 142.786 2105.8 143.442 Q2106.04 143.746 2106.04 143.864 Z" fill="#000000" fill-rule="evenodd" fill-opacity="1" /><path clip-path="url(#clip860)" d="M2123.29 136.532 Q2123.33 135.947 2124.25 135.947 L2153.64 135.947 Q2155.02 135.947 2155.05 136.486 Q2155.05 137.071 2153.74 137.048 L2124.57 137.048 Q2123.29 137.071 2123.29 136.532 M2123.29 127.163 Q2123.29 126.578 2124.29 126.601 L2153.59 126.601 Q2155.02 126.601 2155.05 127.163 Q2155.05 127.702 2153.83 127.702 L2124.25 127.702 Q2123.29 127.702 2123.29 127.163 Z" fill="#000000" fill-rule="evenodd" fill-opacity="1" /><path clip-path="url(#clip860)" d="M2173.54 116.436 L2173.54 114.937 Q2179.3 114.937 2182.27 111.869 Q2183.09 111.869 2183.23 112.056 Q2183.38 112.243 2183.38 113.11 L2183.38 140.022 Q2183.38 141.451 2184.08 141.896 Q2184.78 142.341 2187.85 142.341 L2189.37 142.341 L2189.37 143.817 Q2187.69 143.676 2181.6 143.676 Q2175.51 143.676 2173.84 143.817 L2173.84 142.341 L2175.36 142.341 Q2178.39 142.341 2179.11 141.92 Q2179.84 141.475 2179.84 140.022 L2179.84 115.171 Q2177.33 116.436 2173.54 116.436 Z" fill="#000000" fill-rule="evenodd" fill-opacity="1" /><polyline clip-path="url(#clip860)" style="stroke:#e26f46; stroke-linecap:butt; stroke-linejoin:round; stroke-width:4; stroke-opacity:1; fill:none" points="
  1916.38,161.653 2058.61,161.653 
  "/>
<path clip-path="url(#clip860)" d="M2106.04 177.653 Q2106.04 178.098 2105.52 178.145 L2104.47 178.145 Q2103.39 178.145 2102.92 177.981 Q2102.46 177.817 2101.92 177.067 Q2101.59 176.599 2100.77 174.42 Q2099.97 172.219 2098.8 168.893 Q2097.65 165.567 2096.88 163.599 L2085.33 177.231 Q2084.54 178.238 2083.74 178.238 Q2083.16 178.238 2082.73 177.84 Q2082.31 177.442 2082.31 176.833 Q2082.31 176.388 2082.48 176.13 Q2082.66 175.873 2083.16 175.357 L2096.41 162.217 L2091.75 149.171 Q2090.86 146.758 2090.35 146.149 Q2089.85 145.54 2088.64 145.33 Q2088.19 145.213 2088.19 144.838 Q2088.19 144.323 2089.06 144.323 Q2093.7 144.323 2094.91 147.719 L2104.7 175.006 Q2105.24 176.575 2105.8 177.231 Q2106.04 177.536 2106.04 177.653 Z" fill="#000000" fill-rule="evenodd" fill-opacity="1" /><path clip-path="url(#clip860)" d="M2123.29 170.321 Q2123.33 169.736 2124.25 169.736 L2153.64 169.736 Q2155.02 169.736 2155.05 170.275 Q2155.05 170.86 2153.74 170.837 L2124.57 170.837 Q2123.29 170.86 2123.29 170.321 M2123.29 160.952 Q2123.29 160.367 2124.29 160.39 L2153.59 160.39 Q2155.02 160.39 2155.05 160.952 Q2155.05 161.491 2153.83 161.491 L2124.25 161.491 Q2123.29 161.491 2123.29 160.952 Z" fill="#000000" fill-rule="evenodd" fill-opacity="1" /><path clip-path="url(#clip860)" d="M2173.54 162.264 Q2173.54 155.214 2175.32 151.373 Q2177.8 145.658 2183.66 145.658 Q2184.9 145.658 2186.19 146.009 Q2187.5 146.337 2189.14 147.625 Q2190.8 148.913 2191.81 151.021 Q2193.73 155.097 2193.73 162.264 Q2193.73 169.267 2191.95 173.085 Q2189.35 178.66 2183.61 178.66 Q2181.45 178.66 2179.25 177.559 Q2177.07 176.458 2175.69 173.811 Q2173.54 169.853 2173.54 162.264 M2177.52 161.679 Q2177.52 168.916 2178.04 171.797 Q2178.62 174.912 2180.21 176.271 Q2181.83 177.606 2183.61 177.606 Q2185.53 177.606 2187.12 176.177 Q2188.74 174.725 2189.23 171.61 Q2189.77 168.541 2189.75 161.679 Q2189.75 155.003 2189.28 152.333 Q2188.65 149.218 2186.96 147.976 Q2185.3 146.712 2183.61 146.712 Q2182.98 146.712 2182.3 146.899 Q2181.64 147.086 2180.68 147.625 Q2179.72 148.164 2178.97 149.499 Q2178.25 150.834 2177.89 152.848 Q2177.52 155.448 2177.52 161.679 Z" fill="#000000" fill-rule="evenodd" fill-opacity="1" /><path clip-path="url(#clip860)" d="M2198.01 176.833 Q2197.29 176.06 2197.29 175.053 Q2197.29 174.046 2198.01 173.32 Q2198.74 172.57 2199.84 172.57 Q2200.9 172.57 2201.6 173.273 Q2202.32 173.952 2202.32 175.076 Q2202.32 176.177 2201.55 176.903 Q2200.8 177.606 2199.84 177.606 Q2198.74 177.606 2198.01 176.833 Z" fill="#000000" fill-rule="evenodd" fill-opacity="1" /><path clip-path="url(#clip860)" d="M2210.49 169.876 Q2210.49 168.448 2211.26 167.909 Q2212.03 167.347 2212.85 167.347 Q2213.95 167.347 2214.58 168.049 Q2215.24 168.729 2215.24 169.689 Q2215.24 170.649 2214.58 171.352 Q2213.95 172.031 2212.85 172.031 Q2212.31 172.031 2212.03 171.938 Q2212.66 174.139 2214.58 175.732 Q2216.53 177.325 2219.08 177.325 Q2222.29 177.325 2224.21 174.21 Q2225.36 172.195 2225.36 167.628 Q2225.36 163.599 2224.49 161.585 Q2223.16 158.517 2220.42 158.517 Q2216.53 158.517 2214.23 161.866 Q2213.95 162.288 2213.62 162.311 Q2213.16 162.311 2213.04 162.053 Q2212.94 161.772 2212.94 161.046 L2212.94 146.852 Q2212.94 145.704 2213.41 145.704 Q2213.6 145.704 2214 145.845 Q2217.02 147.18 2220.37 147.203 Q2223.81 147.203 2226.9 145.798 Q2227.14 145.658 2227.28 145.658 Q2227.75 145.658 2227.77 146.196 Q2227.77 146.384 2227.37 146.946 Q2227 147.485 2226.18 148.211 Q2225.36 148.913 2224.3 149.593 Q2223.25 150.272 2221.7 150.74 Q2220.18 151.185 2218.5 151.185 Q2216.48 151.185 2214.42 150.553 L2214.42 159.898 Q2216.9 157.463 2220.51 157.463 Q2224.35 157.463 2227 160.554 Q2229.64 163.646 2229.64 167.956 Q2229.64 172.476 2226.51 175.568 Q2223.39 178.66 2219.17 178.66 Q2215.33 178.66 2212.9 175.919 Q2210.49 173.179 2210.49 169.876 Z" fill="#000000" fill-rule="evenodd" fill-opacity="1" /><polyline clip-path="url(#clip860)" style="stroke:#3da44d; stroke-linecap:butt; stroke-linejoin:round; stroke-width:4; stroke-opacity:1; fill:none" points="
  1916.38,195.653 2058.61,195.653 
  "/>
<path clip-path="url(#clip860)" d="M2106.04 211.864 Q2106.04 212.309 2105.52 212.355 L2104.47 212.355 Q2103.39 212.355 2102.92 212.192 Q2102.46 212.028 2101.92 211.278 Q2101.59 210.81 2100.77 208.631 Q2099.97 206.43 2098.8 203.104 Q2097.65 199.778 2096.88 197.81 L2085.33 211.442 Q2084.54 212.449 2083.74 212.449 Q2083.16 212.449 2082.73 212.051 Q2082.31 211.653 2082.31 211.044 Q2082.31 210.599 2082.48 210.341 Q2082.66 210.083 2083.16 209.568 L2096.41 196.428 L2091.75 183.382 Q2090.86 180.969 2090.35 180.36 Q2089.85 179.751 2088.64 179.541 Q2088.19 179.424 2088.19 179.049 Q2088.19 178.533 2089.06 178.533 Q2093.7 178.533 2094.91 181.93 L2104.7 209.217 Q2105.24 210.786 2105.8 211.442 Q2106.04 211.746 2106.04 211.864 Z" fill="#000000" fill-rule="evenodd" fill-opacity="1" /><path clip-path="url(#clip860)" d="M2123.29 204.532 Q2123.33 203.947 2124.25 203.947 L2153.64 203.947 Q2155.02 203.947 2155.05 204.486 Q2155.05 205.071 2153.74 205.048 L2124.57 205.048 Q2123.29 205.071 2123.29 204.532 M2123.29 195.163 Q2123.29 194.578 2124.29 194.601 L2153.59 194.601 Q2155.02 194.601 2155.05 195.163 Q2155.05 195.702 2153.83 195.702 L2124.25 195.702 Q2123.29 195.702 2123.29 195.163 Z" fill="#000000" fill-rule="evenodd" fill-opacity="1" /><path clip-path="url(#clip860)" d="M2173.54 211.817 Q2173.54 210.95 2173.61 210.692 Q2173.7 210.435 2174.08 210.037 L2183.28 199.778 Q2188.32 194.109 2188.32 189.167 Q2188.32 185.958 2186.63 183.663 Q2184.97 181.368 2181.9 181.368 Q2179.79 181.368 2178.01 182.656 Q2176.23 183.944 2175.41 186.239 Q2175.55 186.193 2176.04 186.193 Q2177.24 186.193 2177.89 186.942 Q2178.57 187.692 2178.57 188.699 Q2178.57 189.987 2177.73 190.619 Q2176.91 191.228 2176.09 191.228 Q2175.76 191.228 2175.32 191.158 Q2174.9 191.088 2174.22 190.432 Q2173.54 189.753 2173.54 188.558 Q2173.54 185.209 2176.07 182.539 Q2178.62 179.869 2182.51 179.869 Q2186.91 179.869 2189.79 182.492 Q2192.7 185.092 2192.7 189.167 Q2192.7 190.596 2192.25 191.908 Q2191.83 193.196 2191.25 194.203 Q2190.68 195.21 2189.14 196.826 Q2187.59 198.443 2186.35 199.59 Q2185.11 200.738 2182.32 203.174 L2177.24 208.116 L2185.88 208.116 Q2190.1 208.116 2190.43 207.741 Q2190.89 207.062 2191.48 203.478 L2192.7 203.478 L2191.34 211.817 L2173.54 211.817 Z" fill="#000000" fill-rule="evenodd" fill-opacity="1" /></svg>
