<?xml version="1.0" encoding="utf-8"?>
<svg xmlns="http://www.w3.org/2000/svg" xmlns:xlink="http://www.w3.org/1999/xlink" width="600" height="400" viewBox="0 0 2400 1600">
<defs>
  <clipPath id="clip830">
    <rect x="0" y="0" width="2400" height="1600"/>
  </clipPath>
</defs>
<path clip-path="url(#clip830)" d="
M0 1600 L2400 1600 L2400 0 L0 0  Z
  " fill="#ffffff" fill-rule="evenodd" fill-opacity="1"/>
<defs>
  <clipPath id="clip831">
    <rect x="480" y="0" width="1681" height="1600"/>
  </clipPath>
</defs>
<defs>
  <clipPath id="clip832">
    <rect x="219" y="47" width="2134" height="1393"/>
  </clipPath>
</defs>
<path clip-path="url(#clip830)" d="
M219.38 1439.5 L2352.76 1439.5 L2352.76 47.2441 L219.38 47.2441  Z
  " fill="#ffffff" fill-rule="evenodd" fill-opacity="1"/>
<polyline clip-path="url(#clip832)" style="stroke:#000000; stroke-linecap:butt; stroke-linejoin:round; stroke-width:2; stroke-opacity:0.1; fill:none" points="
  219.38,1439.5 219.38,47.2441 
  "/>
<polyline clip-path="url(#clip832)" style="stroke:#000000; stroke-linecap:butt; stroke-linejoin:round; stroke-width:2; stroke-opacity:0.1; fill:none" points="
  930.505,1439.5 930.505,47.2441 
  "/>
<polyline clip-path="url(#clip832)" style="stroke:#000000; stroke-linecap:butt; stroke-linejoin:round; stroke-width:2; stroke-opacity:0.1; fill:none" points="
  1641.63,1439.5 1641.63,47.2441 
  "/>
<polyline clip-path="url(#clip832)" style="stroke:#000000; stroke-linecap:butt; stroke-linejoin:round; stroke-width:2; stroke-opacity:0.1; fill:none" points="
  2352.76,1439.5 2352.76,47.2441 
  "/>
<polyline clip-path="url(#clip830)" style="stroke:#000000; stroke-linecap:butt; stroke-linejoin:round; stroke-width:4; stroke-opacity:1; fill:none" points="
  219.38,1439.5 2352.76,1439.5 
  "/>
<polyline clip-path="url(#clip830)" style="stroke:#000000; stroke-linecap:butt; stroke-linejoin:round; stroke-width:4; stroke-opacity:1; fill:none" points="
  219.38,1439.5 219.38,1420.6 
  "/>
<polyline clip-path="url(#clip830)" style="stroke:#000000; stroke-linecap:butt; stroke-linejoin:round; stroke-width:4; stroke-opacity:1; fill:none" points="
  930.505,1439.5 930.505,1420.6 
  "/>
<polyline clip-path="url(#clip830)" style="stroke:#000000; stroke-linecap:butt; stroke-linejoin:round; stroke-width:4; stroke-opacity:1; fill:none" points="
  1641.63,1439.5 1641.63,1420.6 
  "/>
<polyline clip-path="url(#clip830)" style="stroke:#000000; stroke-linecap:butt; stroke-linejoin:round; stroke-width:4; stroke-opacity:1; fill:none" points="
  2352.76,1439.5 2352.76,1420.6 
  "/>
<path clip-path="url(#clip830)" d="M219.38 1468.69 Q215.769 1468.69 213.94 1472.26 Q212.135 1475.8 212.135 1482.93 Q212.135 1490.04 213.94 1493.6 Q215.769 1497.14 219.38 1497.14 Q223.014 1497.14 224.82 1493.6 Q226.649 1490.04 226.649 1482.93 Q226.649 1475.8 224.82 1472.26 Q223.014 1468.69 219.38 1468.69 M219.38 1464.99 Q225.19 1464.99 228.246 1469.6 Q231.325 1474.18 231.325 1482.93 Q231.325 1491.66 228.246 1496.26 Q225.19 1500.85 219.38 1500.85 Q213.57 1500.85 210.491 1496.26 Q207.436 1491.66 207.436 1482.93 Q207.436 1474.18 210.491 1469.6 Q213.57 1464.99 219.38 1464.99 Z" fill="#000000" fill-rule="evenodd" fill-opacity="1" /><path clip-path="url(#clip830)" d="M920.887 1496.24 L928.526 1496.24 L928.526 1469.87 L920.216 1471.54 L920.216 1467.28 L928.48 1465.61 L933.156 1465.61 L933.156 1496.24 L940.795 1496.24 L940.795 1500.17 L920.887 1500.17 L920.887 1496.24 Z" fill="#000000" fill-rule="evenodd" fill-opacity="1" /><path clip-path="url(#clip830)" d="M1636.28 1496.24 L1652.6 1496.24 L1652.6 1500.17 L1630.66 1500.17 L1630.66 1496.24 Q1633.32 1493.48 1637.9 1488.85 Q1642.51 1484.2 1643.69 1482.86 Q1645.94 1480.34 1646.82 1478.6 Q1647.72 1476.84 1647.72 1475.15 Q1647.72 1472.4 1645.77 1470.66 Q1643.85 1468.92 1640.75 1468.92 Q1638.55 1468.92 1636.1 1469.69 Q1633.67 1470.45 1630.89 1472 L1630.89 1467.28 Q1633.71 1466.15 1636.17 1465.57 Q1638.62 1464.99 1640.66 1464.99 Q1646.03 1464.99 1649.22 1467.67 Q1652.42 1470.36 1652.42 1474.85 Q1652.42 1476.98 1651.61 1478.9 Q1650.82 1480.8 1648.71 1483.39 Q1648.14 1484.06 1645.03 1487.28 Q1641.93 1490.47 1636.28 1496.24 Z" fill="#000000" fill-rule="evenodd" fill-opacity="1" /><path clip-path="url(#clip830)" d="M2357 1481.54 Q2360.36 1482.26 2362.24 1484.53 Q2364.13 1486.79 2364.13 1490.13 Q2364.13 1495.24 2360.61 1498.04 Q2357.1 1500.85 2350.61 1500.85 Q2348.44 1500.85 2346.12 1500.41 Q2343.83 1499.99 2341.38 1499.13 L2341.38 1494.62 Q2343.32 1495.75 2345.64 1496.33 Q2347.95 1496.91 2350.48 1496.91 Q2354.87 1496.91 2357.17 1495.17 Q2359.48 1493.44 2359.48 1490.13 Q2359.48 1487.07 2357.33 1485.36 Q2355.2 1483.62 2351.38 1483.62 L2347.35 1483.62 L2347.35 1479.78 L2351.56 1479.78 Q2355.01 1479.78 2356.84 1478.41 Q2358.67 1477.03 2358.67 1474.43 Q2358.67 1471.77 2356.77 1470.36 Q2354.9 1468.92 2351.38 1468.92 Q2349.46 1468.92 2347.26 1469.34 Q2345.06 1469.76 2342.42 1470.64 L2342.42 1466.47 Q2345.08 1465.73 2347.4 1465.36 Q2349.74 1464.99 2351.8 1464.99 Q2357.12 1464.99 2360.22 1467.42 Q2363.32 1469.83 2363.32 1473.95 Q2363.32 1476.82 2361.68 1478.81 Q2360.04 1480.78 2357 1481.54 Z" fill="#000000" fill-rule="evenodd" fill-opacity="1" /><path clip-path="url(#clip830)" d="M1298 1535.75 Q1298 1541.16 1296.26 1547.24 Q1294.56 1553.3 1291.85 1558.19 Q1289.15 1563.06 1285.6 1566.28 Q1282.06 1569.47 1278.68 1569.47 Q1276.52 1569.47 1274.91 1568.27 Q1273.33 1567.05 1272.46 1565.02 Q1271.59 1562.96 1271.18 1560.71 Q1270.76 1558.42 1270.76 1555.94 Q1270.76 1552.24 1271.56 1548.21 Q1272.37 1544.15 1273.72 1540.48 Q1275.07 1536.78 1276.97 1533.43 Q1278.87 1530.05 1280.97 1527.6 Q1283.09 1525.12 1285.47 1523.67 Q1287.86 1522.22 1290.08 1522.22 Q1291.69 1522.22 1292.98 1522.93 Q1294.3 1523.6 1295.14 1524.8 Q1295.97 1525.96 1296.55 1527.34 Q1297.17 1528.73 1297.46 1530.34 Q1297.75 1531.91 1297.87 1533.23 Q1298 1534.52 1298 1535.75 M1293.66 1531.66 Q1293.66 1530.01 1293.53 1528.79 Q1293.4 1527.53 1293.04 1526.28 Q1292.69 1525.02 1291.92 1524.35 Q1291.18 1523.67 1290.02 1523.67 Q1286.63 1523.67 1282.83 1530.59 Q1281.61 1532.75 1280.52 1535.68 Q1279.42 1538.61 1279.03 1540 Q1278.65 1541.38 1277.75 1544.8 L1291.53 1544.8 Q1293.66 1536 1293.66 1531.66 M1290.95 1546.89 L1277.23 1546.89 Q1275.1 1554.94 1275.1 1559.96 Q1275.1 1564.34 1276.01 1566.18 Q1276.94 1567.98 1278.68 1567.98 Q1280.68 1567.98 1282.54 1565.99 Q1284.41 1563.96 1286.31 1560.29 Q1288.82 1555.52 1290.95 1546.89 Z" fill="#000000" fill-rule="evenodd" fill-opacity="1" /><polyline clip-path="url(#clip832)" style="stroke:#000000; stroke-linecap:butt; stroke-linejoin:round; stroke-width:2; stroke-opacity:0.1; fill:none" points="
  219.38,1400.1 2352.76,1400.1 
  "/>
<polyline clip-path="url(#clip832)" style="stroke:#000000; stroke-linecap:butt; stroke-linejoin:round; stroke-width:2; stroke-opacity:0.1; fill:none" points="
  219.38,1001 2352.76,1001 
  "/>
<polyline clip-path="url(#clip832)" style="stroke:#000000; stroke-linecap:butt; stroke-linejoin:round; stroke-width:2; stroke-opacity:0.1; fill:none" points="
  219.38,601.908 2352.76,601.908 
  "/>
<polyline clip-path="url(#clip832)" style="stroke:#000000; stroke-linecap:butt; stroke-linejoin:round; stroke-width:2; stroke-opacity:0.1; fill:none" points="
  219.38,202.813 2352.76,202.813 
  "/>
<polyline clip-path="url(#clip830)" style="stroke:#000000; stroke-linecap:butt; stroke-linejoin:round; stroke-width:4; stroke-opacity:1; fill:none" points="
  219.38,1439.5 219.38,47.2441 
  "/>
<polyline clip-path="url(#clip830)" style="stroke:#000000; stroke-linecap:butt; stroke-linejoin:round; stroke-width:4; stroke-opacity:1; fill:none" points="
  219.38,1400.1 238.278,1400.1 
  "/>
<polyline clip-path="url(#clip830)" style="stroke:#000000; stroke-linecap:butt; stroke-linejoin:round; stroke-width:4; stroke-opacity:1; fill:none" points="
  219.38,1001 238.278,1001 
  "/>
<polyline clip-path="url(#clip830)" style="stroke:#000000; stroke-linecap:butt; stroke-linejoin:round; stroke-width:4; stroke-opacity:1; fill:none" points="
  219.38,601.908 238.278,601.908 
  "/>
<polyline clip-path="url(#clip830)" style="stroke:#000000; stroke-linecap:butt; stroke-linejoin:round; stroke-width:4; stroke-opacity:1; fill:none" points="
  219.38,202.813 238.278,202.813 
  "/>
<path clip-path="url(#clip830)" d="M126.205 1385.9 Q122.593 1385.9 120.765 1389.46 Q118.959 1393 118.959 1400.13 Q118.959 1407.24 120.765 1410.8 Q122.593 1414.35 126.205 1414.35 Q129.839 1414.35 131.644 1410.8 Q133.473 1407.24 133.473 1400.13 Q133.473 1393 131.644 1389.46 Q129.839 1385.9 126.205 1385.9 M126.205 1382.19 Q132.015 1382.19 135.07 1386.8 Q138.149 1391.38 138.149 1400.13 Q138.149 1408.86 135.07 1413.47 Q132.015 1418.05 126.205 1418.05 Q120.394 1418.05 117.316 1413.47 Q114.26 1408.86 114.26 1400.13 Q114.26 1391.38 117.316 1386.8 Q120.394 1382.19 126.205 1382.19 Z" fill="#000000" fill-rule="evenodd" fill-opacity="1" /><path clip-path="url(#clip830)" d="M146.366 1411.5 L151.251 1411.5 L151.251 1417.38 L146.366 1417.38 L146.366 1411.5 Z" fill="#000000" fill-rule="evenodd" fill-opacity="1" /><path clip-path="url(#clip830)" d="M171.436 1385.9 Q167.825 1385.9 165.996 1389.46 Q164.19 1393 164.19 1400.13 Q164.19 1407.24 165.996 1410.8 Q167.825 1414.35 171.436 1414.35 Q175.07 1414.35 176.876 1410.8 Q178.704 1407.24 178.704 1400.13 Q178.704 1393 176.876 1389.46 Q175.07 1385.9 171.436 1385.9 M171.436 1382.19 Q177.246 1382.19 180.301 1386.8 Q183.38 1391.38 183.38 1400.13 Q183.38 1408.86 180.301 1413.47 Q177.246 1418.05 171.436 1418.05 Q165.626 1418.05 162.547 1413.47 Q159.491 1408.86 159.491 1400.13 Q159.491 1391.38 162.547 1386.8 Q165.626 1382.19 171.436 1382.19 Z" fill="#000000" fill-rule="evenodd" fill-opacity="1" /><path clip-path="url(#clip830)" d="M127.2 986.802 Q123.589 986.802 121.76 990.367 Q119.955 993.908 119.955 1001.04 Q119.955 1008.14 121.76 1011.71 Q123.589 1015.25 127.2 1015.25 Q130.834 1015.25 132.64 1011.71 Q134.468 1008.14 134.468 1001.04 Q134.468 993.908 132.64 990.367 Q130.834 986.802 127.2 986.802 M127.2 983.098 Q133.01 983.098 136.066 987.705 Q139.144 992.288 139.144 1001.04 Q139.144 1009.76 136.066 1014.37 Q133.01 1018.95 127.2 1018.95 Q121.39 1018.95 118.311 1014.37 Q115.256 1009.76 115.256 1001.04 Q115.256 992.288 118.311 987.705 Q121.39 983.098 127.2 983.098 Z" fill="#000000" fill-rule="evenodd" fill-opacity="1" /><path clip-path="url(#clip830)" d="M147.362 1012.4 L152.246 1012.4 L152.246 1018.28 L147.362 1018.28 L147.362 1012.4 Z" fill="#000000" fill-rule="evenodd" fill-opacity="1" /><path clip-path="url(#clip830)" d="M162.477 983.723 L180.834 983.723 L180.834 987.658 L166.76 987.658 L166.76 996.131 Q167.778 995.783 168.797 995.621 Q169.815 995.436 170.834 995.436 Q176.621 995.436 180.001 998.607 Q183.38 1001.78 183.38 1007.2 Q183.38 1012.77 179.908 1015.88 Q176.436 1018.95 170.116 1018.95 Q167.94 1018.95 165.672 1018.58 Q163.427 1018.21 161.019 1017.47 L161.019 1012.77 Q163.102 1013.91 165.325 1014.46 Q167.547 1015.02 170.024 1015.02 Q174.028 1015.02 176.366 1012.91 Q178.704 1010.81 178.704 1007.2 Q178.704 1003.58 176.366 1001.48 Q174.028 999.371 170.024 999.371 Q168.149 999.371 166.274 999.788 Q164.422 1000.2 162.477 1001.08 L162.477 983.723 Z" fill="#000000" fill-rule="evenodd" fill-opacity="1" /><path clip-path="url(#clip830)" d="M117.015 615.253 L124.654 615.253 L124.654 588.887 L116.343 590.554 L116.343 586.295 L124.607 584.628 L129.283 584.628 L129.283 615.253 L136.922 615.253 L136.922 619.188 L117.015 619.188 L117.015 615.253 Z" fill="#000000" fill-rule="evenodd" fill-opacity="1" /><path clip-path="url(#clip830)" d="M146.366 613.308 L151.251 613.308 L151.251 619.188 L146.366 619.188 L146.366 613.308 Z" fill="#000000" fill-rule="evenodd" fill-opacity="1" /><path clip-path="url(#clip830)" d="M171.436 587.707 Q167.825 587.707 165.996 591.272 Q164.19 594.813 164.19 601.943 Q164.19 609.049 165.996 612.614 Q167.825 616.156 171.436 616.156 Q175.07 616.156 176.876 612.614 Q178.704 609.049 178.704 601.943 Q178.704 594.813 176.876 591.272 Q175.07 587.707 171.436 587.707 M171.436 584.003 Q177.246 584.003 180.301 588.61 Q183.38 593.193 183.38 601.943 Q183.38 610.67 180.301 615.276 Q177.246 619.859 171.436 619.859 Q165.626 619.859 162.547 615.276 Q159.491 610.67 159.491 601.943 Q159.491 593.193 162.547 588.61 Q165.626 584.003 171.436 584.003 Z" fill="#000000" fill-rule="evenodd" fill-opacity="1" /><path clip-path="url(#clip830)" d="M118.01 216.158 L125.649 216.158 L125.649 189.792 L117.339 191.459 L117.339 187.2 L125.603 185.533 L130.279 185.533 L130.279 216.158 L137.917 216.158 L137.917 220.093 L118.01 220.093 L118.01 216.158 Z" fill="#000000" fill-rule="evenodd" fill-opacity="1" /><path clip-path="url(#clip830)" d="M147.362 214.213 L152.246 214.213 L152.246 220.093 L147.362 220.093 L147.362 214.213 Z" fill="#000000" fill-rule="evenodd" fill-opacity="1" /><path clip-path="url(#clip830)" d="M162.477 185.533 L180.834 185.533 L180.834 189.468 L166.76 189.468 L166.76 197.94 Q167.778 197.593 168.797 197.431 Q169.815 197.246 170.834 197.246 Q176.621 197.246 180.001 200.417 Q183.38 203.588 183.38 209.005 Q183.38 214.584 179.908 217.686 Q176.436 220.764 170.116 220.764 Q167.94 220.764 165.672 220.394 Q163.427 220.023 161.019 219.283 L161.019 214.584 Q163.102 215.718 165.325 216.274 Q167.547 216.829 170.024 216.829 Q174.028 216.829 176.366 214.723 Q178.704 212.616 178.704 209.005 Q178.704 205.394 176.366 203.287 Q174.028 201.181 170.024 201.181 Q168.149 201.181 166.274 201.598 Q164.422 202.014 162.477 202.894 L162.477 185.533 Z" fill="#000000" fill-rule="evenodd" fill-opacity="1" /><path clip-path="url(#clip830)" d="M21.7677 856.683 L58.7206 856.683 L58.7206 848.916 Q58.7206 839.081 54.2646 834.53 Q49.8086 829.947 40.1964 829.947 Q30.6479 829.947 26.2237 834.53 Q21.7677 839.081 21.7677 848.916 L21.7677 856.683 M16.4842 863.112 L16.4842 849.903 Q16.4842 836.09 22.2451 829.628 Q27.9743 823.167 40.1964 823.167 Q52.4822 823.167 58.2432 829.66 Q64.0042 836.153 64.0042 849.903 L64.0042 863.112 L16.4842 863.112 Z" fill="#000000" fill-rule="evenodd" fill-opacity="1" /><path clip-path="url(#clip830)" d="M44.7161 782.681 L47.5806 782.681 L47.5806 809.608 Q53.6281 809.226 56.8109 805.98 Q59.9619 802.701 59.9619 796.877 Q59.9619 793.503 59.1344 790.352 Q58.3069 787.169 56.6518 784.05 L62.1899 784.05 Q63.5267 787.201 64.227 790.511 Q64.9272 793.821 64.9272 797.227 Q64.9272 805.757 59.9619 810.754 Q54.9967 815.719 46.5303 815.719 Q37.7774 815.719 32.6531 811.009 Q27.4968 806.266 27.4968 798.245 Q27.4968 791.052 32.1438 786.883 Q36.7589 782.681 44.7161 782.681 M42.9973 788.538 Q38.1912 788.601 35.3266 791.243 Q32.4621 793.853 32.4621 798.182 Q32.4621 803.083 35.2312 806.043 Q38.0002 808.972 43.0292 809.417 L42.9973 788.538 Z" fill="#000000" fill-rule="evenodd" fill-opacity="1" /><path clip-path="url(#clip830)" d="M42.4881 743.437 L64.0042 743.437 L64.0042 749.293 L42.679 749.293 Q37.6183 749.293 35.1038 751.266 Q32.5894 753.24 32.5894 757.187 Q32.5894 761.929 35.6131 764.666 Q38.6368 767.404 43.8567 767.404 L64.0042 767.404 L64.0042 773.292 L28.3562 773.292 L28.3562 767.404 L33.8944 767.404 Q30.6797 765.303 29.0883 762.47 Q27.4968 759.606 27.4968 755.882 Q27.4968 749.739 31.3163 746.588 Q35.1038 743.437 42.4881 743.437 Z" fill="#000000" fill-rule="evenodd" fill-opacity="1" /><path clip-path="url(#clip830)" d="M29.4065 709.03 L34.9447 709.03 Q33.6716 711.513 33.035 714.186 Q32.3984 716.86 32.3984 719.724 Q32.3984 724.085 33.7352 726.281 Q35.072 728.445 37.7456 728.445 Q39.7826 728.445 40.9603 726.886 Q42.1061 725.326 43.1565 720.616 L43.6021 718.61 Q44.9389 712.372 47.3897 709.762 Q49.8086 707.12 54.1691 707.12 Q59.1344 707.12 62.0308 711.067 Q64.9272 714.982 64.9272 721.857 Q64.9272 724.721 64.3543 727.841 Q63.8132 730.928 62.6992 734.366 L56.6518 734.366 Q58.3387 731.119 59.198 727.968 Q60.0256 724.817 60.0256 721.73 Q60.0256 717.592 58.6251 715.364 Q57.1929 713.136 54.6147 713.136 Q52.2276 713.136 50.9545 714.759 Q49.6813 716.351 48.5037 721.793 L48.0262 723.83 Q46.8804 729.273 44.5251 731.692 Q42.138 734.111 38.0002 734.111 Q32.9713 734.111 30.2341 730.546 Q27.4968 726.981 27.4968 720.425 Q27.4968 717.178 27.9743 714.314 Q28.4517 711.449 29.4065 709.03 Z" fill="#000000" fill-rule="evenodd" fill-opacity="1" /><path clip-path="url(#clip830)" d="M28.3562 697.795 L28.3562 691.938 L64.0042 691.938 L64.0042 697.795 L28.3562 697.795 M14.479 697.795 L14.479 691.938 L21.895 691.938 L21.895 697.795 L14.479 697.795 Z" fill="#000000" fill-rule="evenodd" fill-opacity="1" /><path clip-path="url(#clip830)" d="M18.2347 673.891 L28.3562 673.891 L28.3562 661.828 L32.9077 661.828 L32.9077 673.891 L52.2594 673.891 Q56.6199 673.891 57.8613 672.714 Q59.1026 671.504 59.1026 667.844 L59.1026 661.828 L64.0042 661.828 L64.0042 667.844 Q64.0042 674.623 61.4897 677.201 Q58.9434 679.78 52.2594 679.78 L32.9077 679.78 L32.9077 684.076 L28.3562 684.076 L28.3562 679.78 L18.2347 679.78 L18.2347 673.891 Z" fill="#000000" fill-rule="evenodd" fill-opacity="1" /><path clip-path="url(#clip830)" d="M67.3143 639.294 Q73.68 641.776 75.6216 644.132 Q77.5631 646.487 77.5631 650.434 L77.5631 655.112 L72.6615 655.112 L72.6615 651.675 Q72.6615 649.256 71.5157 647.919 Q70.3699 646.582 66.1048 644.959 L63.4312 643.909 L28.3562 658.327 L28.3562 652.121 L56.238 640.981 L28.3562 629.841 L28.3562 623.634 L67.3143 639.294 Z" fill="#000000" fill-rule="evenodd" fill-opacity="1" /><polyline clip-path="url(#clip832)" style="stroke:#009af9; stroke-linecap:butt; stroke-linejoin:round; stroke-width:20; stroke-opacity:1; fill:none" points="
  219.38,1400.1 223.853,1399.96 228.327,1398.34 232.8,1393.72 237.273,1385.72 241.746,1374.58 246.22,1360.8 250.693,1344.94 255.166,1327.51 264.113,1289.74 
  273.059,1250.32 282.006,1211.16 290.952,1173.45 299.899,1137.89 308.845,1104.87 317.792,1074.56 326.738,1047 335.685,1022.12 344.631,999.816 353.578,979.951 
  362.524,962.367 371.471,946.903 380.417,933.396 389.364,921.69 398.31,911.635 416.203,895.922 434.096,885.236 451.989,878.704 469.882,875.587 478.829,875.111 
  487.775,875.265 496.722,875.988 505.668,877.222 547.03,888.227 588.391,905.252 629.753,925.694 671.115,947.857 753.838,993.339 836.561,1036.86 919.285,1076.6 
  1002.01,1112.08 1084.73,1143.41 1167.45,1170.93 1250.18,1195.05 1332.9,1216.19 1415.62,1234.75 1498.35,1251.06 1663.79,1278.13 1829.24,1299.36 1994.69,1316.16 
  2160.13,1329.61 2325.58,1340.47 2491.03,1349.32 2821.92,1362.6 3152.81,1371.82 3550.52,1379.47 3948.23,1384.71 4345.93,1388.4 4743.64,1391.06 5416.15,1394.07 
  6088.66,1395.94 7549.73,1398.07 8896.71,1398.96 10340.8,1399.44 12013.9,1399.73 13500.8,1399.86 14804.7,1399.94 16226.3,1399.99 17656.3,1400.02 19237.3,1400.04 
  20741.7,1400.06 22305.8,1400.07 23622.5,1400.08 25230,1400.08 26741.2,1400.09 29162.1,1400.09 29534.7,1400.09 
  "/>
<polyline clip-path="url(#clip832)" style="stroke:#e26f46; stroke-linecap:butt; stroke-linejoin:round; stroke-width:20; stroke-opacity:1; fill:none" points="
  219.38,1400.1 228.179,1400.1 236.977,1400.1 318.333,1400.1 399.688,1400.1 448.579,1399.96 497.471,1397.28 518.139,1392.71 538.808,1383.22 559.476,1365.82 
  580.144,1337.04 591.37,1315.44 602.596,1289.04 613.822,1257.48 625.048,1220.55 636.274,1178.18 647.5,1130.45 658.726,1077.62 669.951,1020.12 690.65,903.886 
  711.348,778.567 732.047,649.907 752.745,524.032 763.841,459.78 774.936,398.864 786.032,342.032 797.127,289.937 808.223,243.125 819.318,202.031 830.414,166.976 
  841.509,138.17 854.365,112.737 867.22,95.8133 880.075,87.223 892.93,86.6476 905.786,93.6482 918.641,107.689 931.496,128.162 944.351,154.408 967.2,213.153 
  990.048,284.028 1012.9,363.256 1035.74,447.389 1075.82,598.02 1115.89,742.421 1137.73,815.59 1159.58,883.816 1181.42,946.666 1203.27,1003.95 1225.24,1055.95 
  1247.22,1102.48 1269.19,1143.78 1291.17,1180.2 1315.46,1215.24 1339.76,1245.31 1364.05,1270.96 1388.35,1292.72 1434.58,1325.13 1480.81,1348.24 1576.96,1376.57 
  1657.89,1388.22 1756.7,1395.03 1849.58,1397.84 1998.39,1399.49 2021.29,1399.6 
  "/>
<polyline clip-path="url(#clip832)" style="stroke:#3da44d; stroke-linecap:butt; stroke-linejoin:round; stroke-width:20; stroke-opacity:1; fill:none" points="
  219.38,1400.1 230.527,1400.1 241.675,1400.1 252.822,1400.1 263.969,1400.1 289.737,1399.95 315.506,1398.53 341.274,1392.72 367.042,1378.2 379.926,1366.48 
  392.81,1351.41 405.694,1332.88 418.578,1310.95 431.462,1285.8 444.347,1257.74 457.231,1227.18 470.115,1194.57 495.883,1125.16 521.651,1053.48 547.419,983.135 
  573.187,917.118 598.956,857.648 624.724,806.189 650.492,763.541 676.26,729.95 691.746,714.06 707.231,701.288 722.717,691.506 738.203,684.563 753.688,680.293 
  769.174,678.514 784.659,679.042 800.145,681.686 831.116,692.573 862.087,709.714 893.059,731.757 924.03,757.49 976.401,806.508 1028.77,858.994 1081.14,911.963 
  1133.52,963.378 1190.41,1015.97 1247.3,1064.26 1304.19,1107.86 1361.08,1146.72 1413.52,1178.5 1465.97,1206.64 1518.42,1231.43 1570.87,1253.19 1627.1,1273.5 
  1683.33,1291.05 1739.56,1306.18 1795.78,1319.21 1926.08,1342.8 2056.37,1359.4 2172.16,1369.97 2287.96,1377.71 2389.49,1382.79 2491.03,1386.67 2712.44,1392.29 
  2935.16,1395.5 3181.41,1397.49 3415.71,1398.55 3659.33,1399.18 3864.4,1399.5 4114.77,1399.74 4350.13,1399.87 4727.19,1399.99 4785.22,1400 
  "/>
<path clip-path="url(#clip830)" d="
M1869.49 224.403 L2281.64 224.403 L2281.64 93.6527 L1869.49 93.6527  Z
  " fill="#ffffff" fill-rule="evenodd" fill-opacity="1"/>
<polyline clip-path="url(#clip830)" style="stroke:#000000; stroke-linecap:butt; stroke-linejoin:round; stroke-width:4; stroke-opacity:1; fill:none" points="
  1869.49,224.403 2281.64,224.403 2281.64,93.6527 1869.49,93.6527 1869.49,224.403 
  "/>
<polyline clip-path="url(#clip830)" style="stroke:#009af9; stroke-linecap:butt; stroke-linejoin:round; stroke-width:4; stroke-opacity:1; fill:none" points="
  1893.19,126.34 2035.41,126.34 
  "/>
<path clip-path="url(#clip830)" d="M2084.49 122.361 Q2084.49 124 2082.14 124 L2076.87 124 Q2078.35 126.108 2078.35 129.223 Q2078.35 131.893 2077.25 134.4 Q2076.17 136.882 2074.44 138.616 Q2072.73 140.349 2070.57 141.403 Q2068.42 142.434 2066.31 142.434 Q2063.1 142.434 2061.11 140.255 Q2059.12 138.077 2059.12 134.845 Q2059.12 133.135 2059.7 131.238 Q2060.31 129.34 2061.46 127.584 Q2062.61 125.804 2064.11 124.375 Q2065.63 122.946 2067.6 122.079 Q2069.59 121.213 2071.67 121.213 L2082.61 121.213 Q2083.2 121.213 2083.5 121.26 Q2083.83 121.283 2084.16 121.564 Q2084.49 121.822 2084.49 122.361 M2075.28 128.661 Q2075.28 128.099 2075.21 127.607 Q2075.14 127.092 2074.88 126.413 Q2074.62 125.71 2074.18 125.218 Q2073.73 124.703 2072.87 124.351 Q2072.02 124 2070.88 124 Q2069.26 124 2067.48 124.89 Q2065.7 125.78 2064.34 127.982 Q2063.22 129.856 2062.66 132.292 Q2062.09 134.728 2062.09 136.18 Q2062.09 138.663 2063.29 140.021 Q2064.51 141.356 2066.36 141.356 Q2067.88 141.356 2069.61 140.326 Q2071.35 139.272 2072.68 137.281 Q2073.85 135.547 2074.55 133.018 Q2075.28 130.488 2075.28 128.661 Z" fill="#000000" fill-rule="evenodd" fill-opacity="1" /><path clip-path="url(#clip830)" d="M2099.54 134.61 Q2099.58 134.025 2100.5 134.025 L2129.89 134.025 Q2131.27 134.025 2131.3 134.564 Q2131.3 135.149 2129.99 135.126 L2100.82 135.126 Q2099.54 135.149 2099.54 134.61 M2099.54 125.242 Q2099.54 124.656 2100.54 124.679 L2129.84 124.679 Q2131.27 124.679 2131.3 125.242 Q2131.3 125.78 2130.08 125.78 L2100.5 125.78 Q2099.54 125.78 2099.54 125.242 Z" fill="#000000" fill-rule="evenodd" fill-opacity="1" /><path clip-path="url(#clip830)" d="M2149.79 114.514 L2149.79 113.015 Q2155.55 113.015 2158.52 109.947 Q2159.34 109.947 2159.48 110.134 Q2159.63 110.321 2159.63 111.188 L2159.63 138.1 Q2159.63 139.529 2160.33 139.974 Q2161.03 140.419 2164.1 140.419 L2165.62 140.419 L2165.62 141.895 Q2163.94 141.754 2157.85 141.754 Q2151.76 141.754 2150.09 141.895 L2150.09 140.419 L2151.61 140.419 Q2154.64 140.419 2155.36 139.998 Q2156.09 139.553 2156.09 138.1 L2156.09 113.249 Q2153.58 114.514 2149.79 114.514 Z" fill="#000000" fill-rule="evenodd" fill-opacity="1" /><polyline clip-path="url(#clip830)" style="stroke:#e26f46; stroke-linecap:butt; stroke-linejoin:round; stroke-width:4; stroke-opacity:1; fill:none" points="
  1893.19,159.028 2035.41,159.028 
  "/>
<path clip-path="url(#clip830)" d="M2084.49 154.79 Q2084.49 156.43 2082.14 156.43 L2076.87 156.43 Q2078.35 158.538 2078.35 161.653 Q2078.35 164.323 2077.25 166.829 Q2076.17 169.312 2074.44 171.045 Q2072.73 172.779 2070.57 173.833 Q2068.42 174.863 2066.31 174.863 Q2063.1 174.863 2061.11 172.685 Q2059.12 170.507 2059.12 167.274 Q2059.12 165.565 2059.7 163.667 Q2060.31 161.77 2061.46 160.013 Q2062.61 158.233 2064.11 156.805 Q2065.63 155.376 2067.6 154.509 Q2069.59 153.643 2071.67 153.643 L2082.61 153.643 Q2083.2 153.643 2083.5 153.689 Q2083.83 153.713 2084.16 153.994 Q2084.49 154.252 2084.49 154.79 M2075.28 161.091 Q2075.28 160.529 2075.21 160.037 Q2075.14 159.522 2074.88 158.842 Q2074.62 158.14 2074.18 157.648 Q2073.73 157.132 2072.87 156.781 Q2072.02 156.43 2070.88 156.43 Q2069.26 156.43 2067.48 157.32 Q2065.7 158.21 2064.34 160.412 Q2063.22 162.285 2062.66 164.721 Q2062.09 167.157 2062.09 168.609 Q2062.09 171.092 2063.29 172.451 Q2064.51 173.786 2066.36 173.786 Q2067.88 173.786 2069.61 172.755 Q2071.35 171.701 2072.68 169.71 Q2073.85 167.977 2074.55 165.447 Q2075.28 162.918 2075.28 161.091 Z" fill="#000000" fill-rule="evenodd" fill-opacity="1" /><path clip-path="url(#clip830)" d="M2099.54 167.04 Q2099.58 166.455 2100.5 166.455 L2129.89 166.455 Q2131.27 166.455 2131.3 166.993 Q2131.3 167.579 2129.99 167.555 L2100.82 167.555 Q2099.54 167.579 2099.54 167.04 M2099.54 157.671 Q2099.54 157.086 2100.54 157.109 L2129.84 157.109 Q2131.27 157.109 2131.3 157.671 Q2131.3 158.21 2130.08 158.21 L2100.5 158.21 Q2099.54 158.21 2099.54 157.671 Z" fill="#000000" fill-rule="evenodd" fill-opacity="1" /><path clip-path="url(#clip830)" d="M2149.79 158.983 Q2149.79 151.933 2151.57 148.091 Q2154.05 142.376 2159.91 142.376 Q2161.15 142.376 2162.44 142.728 Q2163.75 143.056 2165.39 144.344 Q2167.05 145.632 2168.06 147.74 Q2169.98 151.816 2169.98 158.983 Q2169.98 165.986 2168.2 169.804 Q2165.6 175.379 2159.86 175.379 Q2157.7 175.379 2155.5 174.278 Q2153.32 173.177 2151.94 170.53 Q2149.79 166.572 2149.79 158.983 M2153.77 158.397 Q2153.77 165.635 2154.29 168.516 Q2154.87 171.631 2156.46 172.989 Q2158.08 174.325 2159.86 174.325 Q2161.78 174.325 2163.37 172.896 Q2164.99 171.444 2165.48 168.328 Q2166.02 165.26 2166 158.397 Q2166 151.722 2165.53 149.052 Q2164.9 145.937 2163.21 144.695 Q2161.55 143.43 2159.86 143.43 Q2159.23 143.43 2158.55 143.618 Q2157.89 143.805 2156.93 144.344 Q2155.97 144.883 2155.22 146.218 Q2154.5 147.553 2154.14 149.567 Q2153.77 152.167 2153.77 158.397 Z" fill="#000000" fill-rule="evenodd" fill-opacity="1" /><path clip-path="url(#clip830)" d="M2174.26 173.552 Q2173.54 172.779 2173.54 171.772 Q2173.54 170.764 2174.26 170.038 Q2174.99 169.289 2176.09 169.289 Q2177.15 169.289 2177.85 169.991 Q2178.57 170.671 2178.57 171.795 Q2178.57 172.896 2177.8 173.622 Q2177.05 174.325 2176.09 174.325 Q2174.99 174.325 2174.26 173.552 Z" fill="#000000" fill-rule="evenodd" fill-opacity="1" /><path clip-path="url(#clip830)" d="M2186.74 174.325 Q2186.74 173.458 2186.81 173.2 Q2186.9 172.943 2187.27 172.544 L2196.48 162.285 Q2201.51 156.617 2201.51 151.675 Q2201.51 148.466 2199.83 146.171 Q2198.17 143.875 2195.1 143.875 Q2192.99 143.875 2191.21 145.164 Q2189.43 146.452 2188.61 148.747 Q2188.75 148.7 2189.24 148.7 Q2190.44 148.7 2191.09 149.45 Q2191.77 150.199 2191.77 151.207 Q2191.77 152.495 2190.93 153.127 Q2190.11 153.736 2189.29 153.736 Q2188.96 153.736 2188.52 153.666 Q2188.09 153.596 2187.41 152.94 Q2186.74 152.261 2186.74 151.066 Q2186.74 147.717 2189.26 145.047 Q2191.82 142.376 2195.71 142.376 Q2200.11 142.376 2202.99 145 Q2205.89 147.6 2205.89 151.675 Q2205.89 153.104 2205.45 154.415 Q2205.03 155.704 2204.44 156.711 Q2203.88 157.718 2202.33 159.334 Q2200.79 160.95 2199.55 162.098 Q2198.31 163.246 2195.52 165.682 L2190.44 170.624 L2199.08 170.624 Q2203.29 170.624 2203.62 170.249 Q2204.09 169.57 2204.68 165.986 L2205.89 165.986 L2204.54 174.325 L2186.74 174.325 Z" fill="#000000" fill-rule="evenodd" fill-opacity="1" /><path clip-path="url(#clip830)" d="M2210.49 166.595 Q2210.49 165.166 2211.26 164.628 Q2212.03 164.066 2212.85 164.066 Q2213.95 164.066 2214.58 164.768 Q2215.24 165.447 2215.24 166.408 Q2215.24 167.368 2214.58 168.071 Q2213.95 168.75 2212.85 168.75 Q2212.31 168.75 2212.03 168.656 Q2212.66 170.858 2214.58 172.451 Q2216.53 174.043 2219.08 174.043 Q2222.29 174.043 2224.21 170.928 Q2225.36 168.914 2225.36 164.347 Q2225.36 160.318 2224.49 158.304 Q2223.16 155.235 2220.42 155.235 Q2216.53 155.235 2214.23 158.585 Q2213.95 159.006 2213.62 159.03 Q2213.16 159.03 2213.04 158.772 Q2212.94 158.491 2212.94 157.765 L2212.94 143.571 Q2212.94 142.423 2213.41 142.423 Q2213.6 142.423 2214 142.564 Q2217.02 143.899 2220.37 143.922 Q2223.81 143.922 2226.9 142.517 Q2227.14 142.376 2227.28 142.376 Q2227.75 142.376 2227.77 142.915 Q2227.77 143.102 2227.37 143.665 Q2227 144.203 2226.18 144.929 Q2225.36 145.632 2224.3 146.311 Q2223.25 146.991 2221.7 147.459 Q2220.18 147.904 2218.5 147.904 Q2216.48 147.904 2214.42 147.272 L2214.42 156.617 Q2216.9 154.181 2220.51 154.181 Q2224.35 154.181 2227 157.273 Q2229.64 160.365 2229.64 164.675 Q2229.64 169.195 2226.51 172.287 Q2223.39 175.379 2219.17 175.379 Q2215.33 175.379 2212.9 172.638 Q2210.49 169.898 2210.49 166.595 Z" fill="#000000" fill-rule="evenodd" fill-opacity="1" /><polyline clip-path="url(#clip830)" style="stroke:#3da44d; stroke-linecap:butt; stroke-linejoin:round; stroke-width:4; stroke-opacity:1; fill:none" points="
  1893.19,191.715 2035.41,191.715 
  "/>
<path clip-path="url(#clip830)" d="M2084.49 187.478 Q2084.49 189.117 2082.14 189.117 L2076.87 189.117 Q2078.35 191.225 2078.35 194.341 Q2078.35 197.011 2077.25 199.517 Q2076.17 202 2074.44 203.733 Q2072.73 205.466 2070.57 206.52 Q2068.42 207.551 2066.31 207.551 Q2063.1 207.551 2061.11 205.372 Q2059.12 203.194 2059.12 199.962 Q2059.12 198.252 2059.7 196.355 Q2060.31 194.458 2061.46 192.701 Q2062.61 190.921 2064.11 189.492 Q2065.63 188.063 2067.6 187.197 Q2069.59 186.33 2071.67 186.33 L2082.61 186.33 Q2083.2 186.33 2083.5 186.377 Q2083.83 186.4 2084.16 186.681 Q2084.49 186.939 2084.49 187.478 M2075.28 193.778 Q2075.28 193.216 2075.21 192.724 Q2075.14 192.209 2074.88 191.53 Q2074.62 190.827 2074.18 190.335 Q2073.73 189.82 2072.87 189.469 Q2072.02 189.117 2070.88 189.117 Q2069.26 189.117 2067.48 190.007 Q2065.7 190.897 2064.34 193.099 Q2063.22 194.973 2062.66 197.409 Q2062.09 199.845 2062.09 201.297 Q2062.09 203.78 2063.29 205.138 Q2064.51 206.473 2066.36 206.473 Q2067.88 206.473 2069.61 205.443 Q2071.35 204.389 2072.68 202.398 Q2073.85 200.665 2074.55 198.135 Q2075.28 195.605 2075.28 193.778 Z" fill="#000000" fill-rule="evenodd" fill-opacity="1" /><path clip-path="url(#clip830)" d="M2099.54 199.728 Q2099.58 199.142 2100.5 199.142 L2129.89 199.142 Q2131.27 199.142 2131.3 199.681 Q2131.3 200.266 2129.99 200.243 L2100.82 200.243 Q2099.54 200.266 2099.54 199.728 M2099.54 190.359 Q2099.54 189.773 2100.54 189.797 L2129.84 189.797 Q2131.27 189.797 2131.3 190.359 Q2131.3 190.897 2130.08 190.897 L2100.5 190.897 Q2099.54 190.897 2099.54 190.359 Z" fill="#000000" fill-rule="evenodd" fill-opacity="1" /><path clip-path="url(#clip830)" d="M2149.79 191.67 Q2149.79 184.62 2151.57 180.779 Q2154.05 175.064 2159.91 175.064 Q2161.15 175.064 2162.44 175.415 Q2163.75 175.743 2165.39 177.031 Q2167.05 178.32 2168.06 180.428 Q2169.98 184.503 2169.98 191.67 Q2169.98 198.674 2168.2 202.492 Q2165.6 208.066 2159.86 208.066 Q2157.7 208.066 2155.5 206.965 Q2153.32 205.864 2151.94 203.218 Q2149.79 199.259 2149.79 191.67 M2153.77 191.085 Q2153.77 198.322 2154.29 201.203 Q2154.87 204.318 2156.46 205.677 Q2158.08 207.012 2159.86 207.012 Q2161.78 207.012 2163.37 205.583 Q2164.99 204.131 2165.48 201.016 Q2166.02 197.948 2166 191.085 Q2166 184.409 2165.53 181.739 Q2164.9 178.624 2163.21 177.383 Q2161.55 176.118 2159.86 176.118 Q2159.23 176.118 2158.55 176.305 Q2157.89 176.493 2156.93 177.031 Q2155.97 177.57 2155.22 178.905 Q2154.5 180.24 2154.14 182.255 Q2153.77 184.854 2153.77 191.085 Z" fill="#000000" fill-rule="evenodd" fill-opacity="1" /><path clip-path="url(#clip830)" d="M2174.26 206.239 Q2173.54 205.466 2173.54 204.459 Q2173.54 203.452 2174.26 202.726 Q2174.99 201.976 2176.09 201.976 Q2177.15 201.976 2177.85 202.679 Q2178.57 203.358 2178.57 204.482 Q2178.57 205.583 2177.8 206.309 Q2177.05 207.012 2176.09 207.012 Q2174.99 207.012 2174.26 206.239 Z" fill="#000000" fill-rule="evenodd" fill-opacity="1" /><path clip-path="url(#clip830)" d="M2186.74 199.283 Q2186.74 197.854 2187.51 197.315 Q2188.28 196.753 2189.1 196.753 Q2190.2 196.753 2190.83 197.456 Q2191.49 198.135 2191.49 199.095 Q2191.49 200.056 2190.83 200.758 Q2190.2 201.438 2189.1 201.438 Q2188.56 201.438 2188.28 201.344 Q2188.91 203.546 2190.83 205.138 Q2192.78 206.731 2195.33 206.731 Q2198.54 206.731 2200.46 203.616 Q2201.61 201.601 2201.61 197.034 Q2201.61 193.005 2200.74 190.991 Q2199.41 187.923 2196.67 187.923 Q2192.78 187.923 2190.48 191.272 Q2190.2 191.694 2189.87 191.717 Q2189.41 191.717 2189.29 191.46 Q2189.19 191.178 2189.19 190.452 L2189.19 176.258 Q2189.19 175.111 2189.66 175.111 Q2189.85 175.111 2190.25 175.251 Q2193.27 176.586 2196.62 176.61 Q2200.06 176.61 2203.15 175.204 Q2203.39 175.064 2203.53 175.064 Q2204 175.064 2204.02 175.603 Q2204.02 175.79 2203.62 176.352 Q2203.25 176.891 2202.43 177.617 Q2201.61 178.32 2200.55 178.999 Q2199.5 179.678 2197.95 180.147 Q2196.43 180.592 2194.75 180.592 Q2192.73 180.592 2190.67 179.959 L2190.67 189.305 Q2193.15 186.869 2196.76 186.869 Q2200.6 186.869 2203.25 189.961 Q2205.89 193.052 2205.89 197.362 Q2205.89 201.883 2202.76 204.974 Q2199.64 208.066 2195.42 208.066 Q2191.58 208.066 2189.15 205.326 Q2186.74 202.585 2186.74 199.283 Z" fill="#000000" fill-rule="evenodd" fill-opacity="1" /></svg>
