<?xml version="1.0" encoding="utf-8"?>
<svg xmlns="http://www.w3.org/2000/svg" xmlns:xlink="http://www.w3.org/1999/xlink" width="600" height="400" viewBox="0 0 2400 1600">
<defs>
  <clipPath id="clip770">
    <rect x="0" y="0" width="2400" height="1600"/>
  </clipPath>
</defs>
<path clip-path="url(#clip770)" d="
M0 1600 L2400 1600 L2400 0 L0 0  Z
  " fill="#ffffff" fill-rule="evenodd" fill-opacity="1"/>
<defs>
  <clipPath id="clip771">
    <rect x="480" y="0" width="1681" height="1600"/>
  </clipPath>
</defs>
<defs>
  <clipPath id="clip772">
    <rect x="219" y="47" width="2134" height="1393"/>
  </clipPath>
</defs>
<path clip-path="url(#clip770)" d="
M219.866 1439.5 L2352.76 1439.5 L2352.76 47.2441 L219.866 47.2441  Z
  " fill="#ffffff" fill-rule="evenodd" fill-opacity="1"/>
<polyline clip-path="url(#clip772)" style="stroke:#000000; stroke-linecap:butt; stroke-linejoin:round; stroke-width:2; stroke-opacity:0.1; fill:none" points="
  280.231,1439.5 280.231,47.2441 
  "/>
<polyline clip-path="url(#clip772)" style="stroke:#000000; stroke-linecap:butt; stroke-linejoin:round; stroke-width:2; stroke-opacity:0.1; fill:none" points="
  909.031,1439.5 909.031,47.2441 
  "/>
<polyline clip-path="url(#clip772)" style="stroke:#000000; stroke-linecap:butt; stroke-linejoin:round; stroke-width:2; stroke-opacity:0.1; fill:none" points="
  1537.83,1439.5 1537.83,47.2441 
  "/>
<polyline clip-path="url(#clip772)" style="stroke:#000000; stroke-linecap:butt; stroke-linejoin:round; stroke-width:2; stroke-opacity:0.1; fill:none" points="
  2166.63,1439.5 2166.63,47.2441 
  "/>
<polyline clip-path="url(#clip770)" style="stroke:#000000; stroke-linecap:butt; stroke-linejoin:round; stroke-width:4; stroke-opacity:1; fill:none" points="
  219.866,1439.5 2352.76,1439.5 
  "/>
<polyline clip-path="url(#clip770)" style="stroke:#000000; stroke-linecap:butt; stroke-linejoin:round; stroke-width:4; stroke-opacity:1; fill:none" points="
  280.231,1439.5 280.231,1420.6 
  "/>
<polyline clip-path="url(#clip770)" style="stroke:#000000; stroke-linecap:butt; stroke-linejoin:round; stroke-width:4; stroke-opacity:1; fill:none" points="
  909.031,1439.5 909.031,1420.6 
  "/>
<polyline clip-path="url(#clip770)" style="stroke:#000000; stroke-linecap:butt; stroke-linejoin:round; stroke-width:4; stroke-opacity:1; fill:none" points="
  1537.83,1439.5 1537.83,1420.6 
  "/>
<polyline clip-path="url(#clip770)" style="stroke:#000000; stroke-linecap:butt; stroke-linejoin:round; stroke-width:4; stroke-opacity:1; fill:none" points="
  2166.63,1439.5 2166.63,1420.6 
  "/>
<path clip-path="url(#clip770)" d="M280.231 1468.69 Q276.62 1468.69 274.791 1472.26 Q272.986 1475.8 272.986 1482.93 Q272.986 1490.04 274.791 1493.6 Q276.62 1497.14 280.231 1497.14 Q283.865 1497.14 285.671 1493.6 Q287.5 1490.04 287.5 1482.93 Q287.5 1475.8 285.671 1472.26 Q283.865 1468.69 280.231 1468.69 M280.231 1464.99 Q286.041 1464.99 289.097 1469.6 Q292.175 1474.18 292.175 1482.93 Q292.175 1491.66 289.097 1496.26 Q286.041 1500.85 280.231 1500.85 Q274.421 1500.85 271.342 1496.26 Q268.287 1491.66 268.287 1482.93 Q268.287 1474.18 271.342 1469.6 Q274.421 1464.99 280.231 1464.99 Z" fill="#000000" fill-rule="evenodd" fill-opacity="1" /><path clip-path="url(#clip770)" d="M899.309 1465.61 L917.665 1465.61 L917.665 1469.55 L903.591 1469.55 L903.591 1478.02 Q904.61 1477.67 905.628 1477.51 Q906.647 1477.33 907.665 1477.33 Q913.452 1477.33 916.832 1480.5 Q920.212 1483.67 920.212 1489.09 Q920.212 1494.66 916.739 1497.77 Q913.267 1500.85 906.948 1500.85 Q904.772 1500.85 902.503 1500.47 Q900.258 1500.1 897.851 1499.36 L897.851 1494.66 Q899.934 1495.8 902.156 1496.35 Q904.378 1496.91 906.855 1496.91 Q910.86 1496.91 913.198 1494.8 Q915.536 1492.7 915.536 1489.09 Q915.536 1485.47 913.198 1483.37 Q910.86 1481.26 906.855 1481.26 Q904.98 1481.26 903.105 1481.68 Q901.253 1482.1 899.309 1482.97 L899.309 1465.61 Z" fill="#000000" fill-rule="evenodd" fill-opacity="1" /><path clip-path="url(#clip770)" d="M1512.52 1496.24 L1520.16 1496.24 L1520.16 1469.87 L1511.85 1471.54 L1511.85 1467.28 L1520.11 1465.61 L1524.79 1465.61 L1524.79 1496.24 L1532.43 1496.24 L1532.43 1500.17 L1512.52 1500.17 L1512.52 1496.24 Z" fill="#000000" fill-rule="evenodd" fill-opacity="1" /><path clip-path="url(#clip770)" d="M1551.87 1468.69 Q1548.26 1468.69 1546.43 1472.26 Q1544.63 1475.8 1544.63 1482.93 Q1544.63 1490.04 1546.43 1493.6 Q1548.26 1497.14 1551.87 1497.14 Q1555.5 1497.14 1557.31 1493.6 Q1559.14 1490.04 1559.14 1482.93 Q1559.14 1475.8 1557.31 1472.26 Q1555.5 1468.69 1551.87 1468.69 M1551.87 1464.99 Q1557.68 1464.99 1560.74 1469.6 Q1563.81 1474.18 1563.81 1482.93 Q1563.81 1491.66 1560.74 1496.26 Q1557.68 1500.85 1551.87 1500.85 Q1546.06 1500.85 1542.98 1496.26 Q1539.93 1491.66 1539.93 1482.93 Q1539.93 1474.18 1542.98 1469.6 Q1546.06 1464.99 1551.87 1464.99 Z" fill="#000000" fill-rule="evenodd" fill-opacity="1" /><path clip-path="url(#clip770)" d="M2141.82 1496.24 L2149.46 1496.24 L2149.46 1469.87 L2141.15 1471.54 L2141.15 1467.28 L2149.41 1465.61 L2154.08 1465.61 L2154.08 1496.24 L2161.72 1496.24 L2161.72 1500.17 L2141.82 1500.17 L2141.82 1496.24 Z" fill="#000000" fill-rule="evenodd" fill-opacity="1" /><path clip-path="url(#clip770)" d="M2171.21 1465.61 L2189.57 1465.61 L2189.57 1469.55 L2175.5 1469.55 L2175.5 1478.02 Q2176.52 1477.67 2177.53 1477.51 Q2178.55 1477.33 2179.57 1477.33 Q2185.36 1477.33 2188.74 1480.5 Q2192.12 1483.67 2192.12 1489.09 Q2192.12 1494.66 2188.64 1497.77 Q2185.17 1500.85 2178.85 1500.85 Q2176.68 1500.85 2174.41 1500.47 Q2172.16 1500.1 2169.76 1499.36 L2169.76 1494.66 Q2171.84 1495.8 2174.06 1496.35 Q2176.28 1496.91 2178.76 1496.91 Q2182.77 1496.91 2185.1 1494.8 Q2187.44 1492.7 2187.44 1489.09 Q2187.44 1485.47 2185.1 1483.37 Q2182.77 1481.26 2178.76 1481.26 Q2176.89 1481.26 2175.01 1481.68 Q2173.16 1482.1 2171.21 1482.97 L2171.21 1465.61 Z" fill="#000000" fill-rule="evenodd" fill-opacity="1" /><path clip-path="url(#clip770)" d="M1298.25 1535.75 Q1298.25 1541.16 1296.51 1547.24 Q1294.8 1553.3 1292.09 1558.19 Q1289.39 1563.06 1285.85 1566.28 Q1282.3 1569.47 1278.92 1569.47 Q1276.76 1569.47 1275.15 1568.27 Q1273.58 1567.05 1272.71 1565.02 Q1271.84 1562.96 1271.42 1560.71 Q1271 1558.42 1271 1555.94 Q1271 1552.24 1271.8 1548.21 Q1272.61 1544.15 1273.96 1540.48 Q1275.32 1536.78 1277.22 1533.43 Q1279.12 1530.05 1281.21 1527.6 Q1283.33 1525.12 1285.72 1523.67 Q1288.1 1522.22 1290.32 1522.22 Q1291.93 1522.22 1293.22 1522.93 Q1294.54 1523.6 1295.38 1524.8 Q1296.22 1525.96 1296.8 1527.34 Q1297.41 1528.73 1297.7 1530.34 Q1297.99 1531.91 1298.12 1533.23 Q1298.25 1534.52 1298.25 1535.75 M1293.9 1531.66 Q1293.9 1530.01 1293.77 1528.79 Q1293.64 1527.53 1293.29 1526.28 Q1292.93 1525.02 1292.16 1524.35 Q1291.42 1523.67 1290.26 1523.67 Q1286.88 1523.67 1283.08 1530.59 Q1281.85 1532.75 1280.76 1535.68 Q1279.66 1538.61 1279.28 1540 Q1278.89 1541.38 1277.99 1544.8 L1291.77 1544.8 Q1293.9 1536 1293.9 1531.66 M1291.19 1546.89 L1277.47 1546.89 Q1275.35 1554.94 1275.35 1559.96 Q1275.35 1564.34 1276.25 1566.18 Q1277.18 1567.98 1278.92 1567.98 Q1280.92 1567.98 1282.79 1565.99 Q1284.66 1563.96 1286.56 1560.29 Q1289.07 1555.52 1291.19 1546.89 Z" fill="#000000" fill-rule="evenodd" fill-opacity="1" /><polyline clip-path="url(#clip772)" style="stroke:#000000; stroke-linecap:butt; stroke-linejoin:round; stroke-width:2; stroke-opacity:0.1; fill:none" points="
  219.866,1400.1 2352.76,1400.1 
  "/>
<polyline clip-path="url(#clip772)" style="stroke:#000000; stroke-linecap:butt; stroke-linejoin:round; stroke-width:2; stroke-opacity:0.1; fill:none" points="
  219.866,1137.41 2352.76,1137.41 
  "/>
<polyline clip-path="url(#clip772)" style="stroke:#000000; stroke-linecap:butt; stroke-linejoin:round; stroke-width:2; stroke-opacity:0.1; fill:none" points="
  219.866,874.718 2352.76,874.718 
  "/>
<polyline clip-path="url(#clip772)" style="stroke:#000000; stroke-linecap:butt; stroke-linejoin:round; stroke-width:2; stroke-opacity:0.1; fill:none" points="
  219.866,612.028 2352.76,612.028 
  "/>
<polyline clip-path="url(#clip772)" style="stroke:#000000; stroke-linecap:butt; stroke-linejoin:round; stroke-width:2; stroke-opacity:0.1; fill:none" points="
  219.866,349.338 2352.76,349.338 
  "/>
<polyline clip-path="url(#clip772)" style="stroke:#000000; stroke-linecap:butt; stroke-linejoin:round; stroke-width:2; stroke-opacity:0.1; fill:none" points="
  219.866,86.6476 2352.76,86.6476 
  "/>
<polyline clip-path="url(#clip770)" style="stroke:#000000; stroke-linecap:butt; stroke-linejoin:round; stroke-width:4; stroke-opacity:1; fill:none" points="
  219.866,1439.5 219.866,47.2441 
  "/>
<polyline clip-path="url(#clip770)" style="stroke:#000000; stroke-linecap:butt; stroke-linejoin:round; stroke-width:4; stroke-opacity:1; fill:none" points="
  219.866,1400.1 238.764,1400.1 
  "/>
<polyline clip-path="url(#clip770)" style="stroke:#000000; stroke-linecap:butt; stroke-linejoin:round; stroke-width:4; stroke-opacity:1; fill:none" points="
  219.866,1137.41 238.764,1137.41 
  "/>
<polyline clip-path="url(#clip770)" style="stroke:#000000; stroke-linecap:butt; stroke-linejoin:round; stroke-width:4; stroke-opacity:1; fill:none" points="
  219.866,874.718 238.764,874.718 
  "/>
<polyline clip-path="url(#clip770)" style="stroke:#000000; stroke-linecap:butt; stroke-linejoin:round; stroke-width:4; stroke-opacity:1; fill:none" points="
  219.866,612.028 238.764,612.028 
  "/>
<polyline clip-path="url(#clip770)" style="stroke:#000000; stroke-linecap:butt; stroke-linejoin:round; stroke-width:4; stroke-opacity:1; fill:none" points="
  219.866,349.338 238.764,349.338 
  "/>
<polyline clip-path="url(#clip770)" style="stroke:#000000; stroke-linecap:butt; stroke-linejoin:round; stroke-width:4; stroke-opacity:1; fill:none" points="
  219.866,86.6476 238.764,86.6476 
  "/>
<path clip-path="url(#clip770)" d="M126.691 1385.9 Q123.08 1385.9 121.251 1389.46 Q119.445 1393 119.445 1400.13 Q119.445 1407.24 121.251 1410.8 Q123.08 1414.35 126.691 1414.35 Q130.325 1414.35 132.13 1410.8 Q133.959 1407.24 133.959 1400.13 Q133.959 1393 132.13 1389.46 Q130.325 1385.9 126.691 1385.9 M126.691 1382.19 Q132.501 1382.19 135.556 1386.8 Q138.635 1391.38 138.635 1400.13 Q138.635 1408.86 135.556 1413.47 Q132.501 1418.05 126.691 1418.05 Q120.88 1418.05 117.802 1413.47 Q114.746 1408.86 114.746 1400.13 Q114.746 1391.38 117.802 1386.8 Q120.88 1382.19 126.691 1382.19 Z" fill="#000000" fill-rule="evenodd" fill-opacity="1" /><path clip-path="url(#clip770)" d="M146.853 1411.5 L151.737 1411.5 L151.737 1417.38 L146.853 1417.38 L146.853 1411.5 Z" fill="#000000" fill-rule="evenodd" fill-opacity="1" /><path clip-path="url(#clip770)" d="M171.922 1385.9 Q168.311 1385.9 166.482 1389.46 Q164.677 1393 164.677 1400.13 Q164.677 1407.24 166.482 1410.8 Q168.311 1414.35 171.922 1414.35 Q175.556 1414.35 177.362 1410.8 Q179.19 1407.24 179.19 1400.13 Q179.19 1393 177.362 1389.46 Q175.556 1385.9 171.922 1385.9 M171.922 1382.19 Q177.732 1382.19 180.788 1386.8 Q183.866 1391.38 183.866 1400.13 Q183.866 1408.86 180.788 1413.47 Q177.732 1418.05 171.922 1418.05 Q166.112 1418.05 163.033 1413.47 Q159.978 1408.86 159.978 1400.13 Q159.978 1391.38 163.033 1386.8 Q166.112 1382.19 171.922 1382.19 Z" fill="#000000" fill-rule="evenodd" fill-opacity="1" /><path clip-path="url(#clip770)" d="M127.917 1123.21 Q124.306 1123.21 122.478 1126.77 Q120.672 1130.31 120.672 1137.44 Q120.672 1144.55 122.478 1148.11 Q124.306 1151.66 127.917 1151.66 Q131.552 1151.66 133.357 1148.11 Q135.186 1144.55 135.186 1137.44 Q135.186 1130.31 133.357 1126.77 Q131.552 1123.21 127.917 1123.21 M127.917 1119.5 Q133.728 1119.5 136.783 1124.11 Q139.862 1128.69 139.862 1137.44 Q139.862 1146.17 136.783 1150.78 Q133.728 1155.36 127.917 1155.36 Q122.107 1155.36 119.029 1150.78 Q115.973 1146.17 115.973 1137.44 Q115.973 1128.69 119.029 1124.11 Q122.107 1119.5 127.917 1119.5 Z" fill="#000000" fill-rule="evenodd" fill-opacity="1" /><path clip-path="url(#clip770)" d="M148.079 1148.81 L152.964 1148.81 L152.964 1154.69 L148.079 1154.69 L148.079 1148.81 Z" fill="#000000" fill-rule="evenodd" fill-opacity="1" /><path clip-path="url(#clip770)" d="M163.959 1150.75 L171.598 1150.75 L171.598 1124.39 L163.288 1126.05 L163.288 1121.79 L171.552 1120.13 L176.227 1120.13 L176.227 1150.75 L183.866 1150.75 L183.866 1154.69 L163.959 1154.69 L163.959 1150.75 Z" fill="#000000" fill-rule="evenodd" fill-opacity="1" /><path clip-path="url(#clip770)" d="M128.288 860.517 Q124.677 860.517 122.848 864.082 Q121.043 867.623 121.043 874.753 Q121.043 881.859 122.848 885.424 Q124.677 888.966 128.288 888.966 Q131.922 888.966 133.728 885.424 Q135.556 881.859 135.556 874.753 Q135.556 867.623 133.728 864.082 Q131.922 860.517 128.288 860.517 M128.288 856.813 Q134.098 856.813 137.154 861.42 Q140.232 866.003 140.232 874.753 Q140.232 883.48 137.154 888.086 Q134.098 892.669 128.288 892.669 Q122.478 892.669 119.399 888.086 Q116.343 883.48 116.343 874.753 Q116.343 866.003 119.399 861.42 Q122.478 856.813 128.288 856.813 Z" fill="#000000" fill-rule="evenodd" fill-opacity="1" /><path clip-path="url(#clip770)" d="M148.45 886.118 L153.334 886.118 L153.334 891.998 L148.45 891.998 L148.45 886.118 Z" fill="#000000" fill-rule="evenodd" fill-opacity="1" /><path clip-path="url(#clip770)" d="M167.547 888.063 L183.866 888.063 L183.866 891.998 L161.922 891.998 L161.922 888.063 Q164.584 885.308 169.167 880.679 Q173.774 876.026 174.954 874.683 Q177.2 872.16 178.079 870.424 Q178.982 868.665 178.982 866.975 Q178.982 864.22 177.038 862.484 Q175.116 860.748 172.014 860.748 Q169.815 860.748 167.362 861.512 Q164.931 862.276 162.153 863.827 L162.153 859.105 Q164.977 857.97 167.431 857.392 Q169.885 856.813 171.922 856.813 Q177.292 856.813 180.487 859.498 Q183.681 862.183 183.681 866.674 Q183.681 868.804 182.871 870.725 Q182.084 872.623 179.977 875.216 Q179.399 875.887 176.297 879.105 Q173.195 882.299 167.547 888.063 Z" fill="#000000" fill-rule="evenodd" fill-opacity="1" /><path clip-path="url(#clip770)" d="M127.339 597.827 Q123.728 597.827 121.899 601.391 Q120.093 604.933 120.093 612.063 Q120.093 619.169 121.899 622.734 Q123.728 626.276 127.339 626.276 Q130.973 626.276 132.779 622.734 Q134.607 619.169 134.607 612.063 Q134.607 604.933 132.779 601.391 Q130.973 597.827 127.339 597.827 M127.339 594.123 Q133.149 594.123 136.204 598.729 Q139.283 603.313 139.283 612.063 Q139.283 620.789 136.204 625.396 Q133.149 629.979 127.339 629.979 Q121.529 629.979 118.45 625.396 Q115.394 620.789 115.394 612.063 Q115.394 603.313 118.45 598.729 Q121.529 594.123 127.339 594.123 Z" fill="#000000" fill-rule="evenodd" fill-opacity="1" /><path clip-path="url(#clip770)" d="M147.501 623.428 L152.385 623.428 L152.385 629.308 L147.501 629.308 L147.501 623.428 Z" fill="#000000" fill-rule="evenodd" fill-opacity="1" /><path clip-path="url(#clip770)" d="M176.737 610.674 Q180.093 611.391 181.968 613.66 Q183.866 615.928 183.866 619.262 Q183.866 624.377 180.348 627.178 Q176.829 629.979 170.348 629.979 Q168.172 629.979 165.857 629.539 Q163.565 629.123 161.112 628.266 L161.112 623.752 Q163.056 624.887 165.371 625.465 Q167.686 626.044 170.209 626.044 Q174.607 626.044 176.899 624.308 Q179.214 622.572 179.214 619.262 Q179.214 616.206 177.061 614.493 Q174.931 612.757 171.112 612.757 L167.084 612.757 L167.084 608.915 L171.297 608.915 Q174.746 608.915 176.575 607.549 Q178.403 606.16 178.403 603.567 Q178.403 600.905 176.505 599.493 Q174.63 598.058 171.112 598.058 Q169.19 598.058 166.991 598.475 Q164.792 598.891 162.153 599.771 L162.153 595.604 Q164.815 594.864 167.13 594.493 Q169.468 594.123 171.528 594.123 Q176.852 594.123 179.954 596.553 Q183.056 598.961 183.056 603.081 Q183.056 605.952 181.413 607.942 Q179.769 609.91 176.737 610.674 Z" fill="#000000" fill-rule="evenodd" fill-opacity="1" /><path clip-path="url(#clip770)" d="M126.205 335.136 Q122.593 335.136 120.765 338.701 Q118.959 342.243 118.959 349.372 Q118.959 356.479 120.765 360.044 Q122.593 363.585 126.205 363.585 Q129.839 363.585 131.644 360.044 Q133.473 356.479 133.473 349.372 Q133.473 342.243 131.644 338.701 Q129.839 335.136 126.205 335.136 M126.205 331.433 Q132.015 331.433 135.07 336.039 Q138.149 340.623 138.149 349.372 Q138.149 358.099 135.07 362.706 Q132.015 367.289 126.205 367.289 Q120.394 367.289 117.316 362.706 Q114.26 358.099 114.26 349.372 Q114.26 340.623 117.316 336.039 Q120.394 331.433 126.205 331.433 Z" fill="#000000" fill-rule="evenodd" fill-opacity="1" /><path clip-path="url(#clip770)" d="M146.366 360.738 L151.251 360.738 L151.251 366.618 L146.366 366.618 L146.366 360.738 Z" fill="#000000" fill-rule="evenodd" fill-opacity="1" /><path clip-path="url(#clip770)" d="M174.283 336.132 L162.477 354.581 L174.283 354.581 L174.283 336.132 M173.056 332.058 L178.936 332.058 L178.936 354.581 L183.866 354.581 L183.866 358.47 L178.936 358.47 L178.936 366.618 L174.283 366.618 L174.283 358.47 L158.681 358.47 L158.681 353.956 L173.056 332.058 Z" fill="#000000" fill-rule="evenodd" fill-opacity="1" /><path clip-path="url(#clip770)" d="M127.686 72.4463 Q124.075 72.4463 122.246 76.0111 Q120.441 79.5527 120.441 86.6823 Q120.441 93.7888 122.246 97.3536 Q124.075 100.895 127.686 100.895 Q131.32 100.895 133.126 97.3536 Q134.954 93.7888 134.954 86.6823 Q134.954 79.5527 133.126 76.0111 Q131.32 72.4463 127.686 72.4463 M127.686 68.7426 Q133.496 68.7426 136.552 73.3491 Q139.63 77.9324 139.63 86.6823 Q139.63 95.4091 136.552 100.016 Q133.496 104.599 127.686 104.599 Q121.876 104.599 118.797 100.016 Q115.742 95.4091 115.742 86.6823 Q115.742 77.9324 118.797 73.3491 Q121.876 68.7426 127.686 68.7426 Z" fill="#000000" fill-rule="evenodd" fill-opacity="1" /><path clip-path="url(#clip770)" d="M147.848 98.048 L152.732 98.048 L152.732 103.928 L147.848 103.928 L147.848 98.048 Z" fill="#000000" fill-rule="evenodd" fill-opacity="1" /><path clip-path="url(#clip770)" d="M162.964 69.3676 L181.32 69.3676 L181.32 73.3028 L167.246 73.3028 L167.246 81.775 Q168.264 81.4277 169.283 81.2657 Q170.302 81.0805 171.32 81.0805 Q177.107 81.0805 180.487 84.2518 Q183.866 87.4231 183.866 92.8397 Q183.866 98.4184 180.394 101.52 Q176.922 104.599 170.602 104.599 Q168.427 104.599 166.158 104.229 Q163.913 103.858 161.505 103.117 L161.505 98.4184 Q163.589 99.5526 165.811 100.108 Q168.033 100.664 170.51 100.664 Q174.514 100.664 176.852 98.5573 Q179.19 96.4508 179.19 92.8397 Q179.19 89.2286 176.852 87.1222 Q174.514 85.0157 170.51 85.0157 Q168.635 85.0157 166.76 85.4323 Q164.908 85.849 162.964 86.7286 L162.964 69.3676 Z" fill="#000000" fill-rule="evenodd" fill-opacity="1" /><path clip-path="url(#clip770)" d="M16.4842 820.637 L16.4842 811.056 L48.8219 798.93 L16.4842 786.739 L16.4842 777.159 L64.0042 777.159 L64.0042 783.429 L22.277 783.429 L54.8694 795.683 L54.8694 802.144 L22.277 814.398 L64.0042 814.398 L64.0042 820.637 L16.4842 820.637 Z" fill="#000000" fill-rule="evenodd" fill-opacity="1" /><path clip-path="url(#clip770)" d="M46.0847 748.45 Q46.0847 755.547 47.7079 758.285 Q49.3312 761.022 53.2461 761.022 Q56.3653 761.022 58.2114 758.985 Q60.0256 756.916 60.0256 753.383 Q60.0256 748.513 56.5881 745.585 Q53.1188 742.625 47.3897 742.625 L46.0847 742.625 L46.0847 748.45 M43.6657 736.769 L64.0042 736.769 L64.0042 742.625 L58.5933 742.625 Q61.8398 744.63 63.3994 747.622 Q64.9272 750.614 64.9272 754.943 Q64.9272 760.417 61.8716 763.664 Q58.7843 766.878 53.6281 766.878 Q47.6125 766.878 44.5569 762.868 Q41.5014 758.826 41.5014 750.837 L41.5014 742.625 L40.9285 742.625 Q36.8862 742.625 34.6901 745.299 Q32.4621 747.94 32.4621 752.747 Q32.4621 755.802 33.1941 758.698 Q33.9262 761.595 35.3903 764.268 L29.9795 764.268 Q28.7381 761.054 28.1334 758.03 Q27.4968 755.006 27.4968 752.142 Q27.4968 744.407 31.5072 740.588 Q35.5176 736.769 43.6657 736.769 Z" fill="#000000" fill-rule="evenodd" fill-opacity="1" /><path clip-path="url(#clip770)" d="M29.4065 701.98 L34.9447 701.98 Q33.6716 704.463 33.035 707.136 Q32.3984 709.81 32.3984 712.674 Q32.3984 717.035 33.7352 719.231 Q35.072 721.395 37.7456 721.395 Q39.7826 721.395 40.9603 719.836 Q42.1061 718.276 43.1565 713.566 L43.6021 711.56 Q44.9389 705.322 47.3897 702.712 Q49.8086 700.07 54.1691 700.07 Q59.1344 700.07 62.0308 704.017 Q64.9272 707.932 64.9272 714.807 Q64.9272 717.671 64.3543 720.791 Q63.8132 723.878 62.6992 727.316 L56.6518 727.316 Q58.3387 724.069 59.198 720.918 Q60.0256 717.767 60.0256 714.68 Q60.0256 710.542 58.6251 708.314 Q57.1929 706.086 54.6147 706.086 Q52.2276 706.086 50.9545 707.709 Q49.6813 709.301 48.5037 714.743 L48.0262 716.78 Q46.8804 722.223 44.5251 724.642 Q42.138 727.061 38.0002 727.061 Q32.9713 727.061 30.2341 723.496 Q27.4968 719.931 27.4968 713.375 Q27.4968 710.128 27.9743 707.264 Q28.4517 704.399 29.4065 701.98 Z" fill="#000000" fill-rule="evenodd" fill-opacity="1" /><path clip-path="url(#clip770)" d="M29.4065 668.019 L34.9447 668.019 Q33.6716 670.502 33.035 673.175 Q32.3984 675.849 32.3984 678.713 Q32.3984 683.074 33.7352 685.27 Q35.072 687.434 37.7456 687.434 Q39.7826 687.434 40.9603 685.875 Q42.1061 684.315 43.1565 679.605 L43.6021 677.599 Q44.9389 671.361 47.3897 668.751 Q49.8086 666.109 54.1691 666.109 Q59.1344 666.109 62.0308 670.056 Q64.9272 673.971 64.9272 680.846 Q64.9272 683.71 64.3543 686.83 Q63.8132 689.917 62.6992 693.354 L56.6518 693.354 Q58.3387 690.108 59.198 686.957 Q60.0256 683.806 60.0256 680.719 Q60.0256 676.581 58.6251 674.353 Q57.1929 672.125 54.6147 672.125 Q52.2276 672.125 50.9545 673.748 Q49.6813 675.34 48.5037 680.782 L48.0262 682.819 Q46.8804 688.262 44.5251 690.681 Q42.138 693.1 38.0002 693.1 Q32.9713 693.1 30.2341 689.535 Q27.4968 685.97 27.4968 679.414 Q27.4968 676.167 27.9743 673.302 Q28.4517 670.438 29.4065 668.019 Z" fill="#000000" fill-rule="evenodd" fill-opacity="1" /><circle clip-path="url(#clip772)" cx="280.231" cy="86.6476" r="14" fill="#009af9" fill-rule="evenodd" fill-opacity="0.5" stroke="#000000" stroke-opacity="0.5" stroke-width="3.2"/>
<circle clip-path="url(#clip772)" cx="405.991" cy="743.373" r="14" fill="#009af9" fill-rule="evenodd" fill-opacity="0.5" stroke="#000000" stroke-opacity="0.5" stroke-width="3.2"/>
<circle clip-path="url(#clip772)" cx="531.751" cy="1071.74" r="14" fill="#009af9" fill-rule="evenodd" fill-opacity="0.5" stroke="#000000" stroke-opacity="0.5" stroke-width="3.2"/>
<circle clip-path="url(#clip772)" cx="657.511" cy="1235.92" r="14" fill="#009af9" fill-rule="evenodd" fill-opacity="0.5" stroke="#000000" stroke-opacity="0.5" stroke-width="3.2"/>
<circle clip-path="url(#clip772)" cx="783.271" cy="1318.01" r="14" fill="#009af9" fill-rule="evenodd" fill-opacity="0.5" stroke="#000000" stroke-opacity="0.5" stroke-width="3.2"/>
<circle clip-path="url(#clip772)" cx="909.031" cy="1359.05" r="14" fill="#009af9" fill-rule="evenodd" fill-opacity="0.5" stroke="#000000" stroke-opacity="0.5" stroke-width="3.2"/>
<circle clip-path="url(#clip772)" cx="1034.79" cy="1379.58" r="14" fill="#009af9" fill-rule="evenodd" fill-opacity="0.5" stroke="#000000" stroke-opacity="0.5" stroke-width="3.2"/>
<circle clip-path="url(#clip772)" cx="1160.55" cy="1389.84" r="14" fill="#009af9" fill-rule="evenodd" fill-opacity="0.5" stroke="#000000" stroke-opacity="0.5" stroke-width="3.2"/>
<circle clip-path="url(#clip772)" cx="1286.31" cy="1394.97" r="14" fill="#009af9" fill-rule="evenodd" fill-opacity="0.5" stroke="#000000" stroke-opacity="0.5" stroke-width="3.2"/>
<circle clip-path="url(#clip772)" cx="1412.07" cy="1397.53" r="14" fill="#009af9" fill-rule="evenodd" fill-opacity="0.5" stroke="#000000" stroke-opacity="0.5" stroke-width="3.2"/>
<circle clip-path="url(#clip772)" cx="1537.83" cy="1398.82" r="14" fill="#009af9" fill-rule="evenodd" fill-opacity="0.5" stroke="#000000" stroke-opacity="0.5" stroke-width="3.2"/>
<circle clip-path="url(#clip772)" cx="1663.59" cy="1399.46" r="14" fill="#009af9" fill-rule="evenodd" fill-opacity="0.5" stroke="#000000" stroke-opacity="0.5" stroke-width="3.2"/>
<circle clip-path="url(#clip772)" cx="1789.35" cy="1399.78" r="14" fill="#009af9" fill-rule="evenodd" fill-opacity="0.5" stroke="#000000" stroke-opacity="0.5" stroke-width="3.2"/>
<circle clip-path="url(#clip772)" cx="1915.11" cy="1399.94" r="14" fill="#009af9" fill-rule="evenodd" fill-opacity="0.5" stroke="#000000" stroke-opacity="0.5" stroke-width="3.2"/>
<polyline clip-path="url(#clip772)" style="stroke:#009af9; stroke-linecap:butt; stroke-linejoin:round; stroke-width:4; stroke-opacity:0.5; fill:none" points="
  280.231,1400.1 280.231,86.6476 
  "/>
<polyline clip-path="url(#clip772)" style="stroke:#009af9; stroke-linecap:butt; stroke-linejoin:round; stroke-width:4; stroke-opacity:0.5; fill:none" points="
  405.991,1400.1 405.991,743.373 
  "/>
<polyline clip-path="url(#clip772)" style="stroke:#009af9; stroke-linecap:butt; stroke-linejoin:round; stroke-width:4; stroke-opacity:0.5; fill:none" points="
  531.751,1400.1 531.751,1071.74 
  "/>
<polyline clip-path="url(#clip772)" style="stroke:#009af9; stroke-linecap:butt; stroke-linejoin:round; stroke-width:4; stroke-opacity:0.5; fill:none" points="
  657.511,1400.1 657.511,1235.92 
  "/>
<polyline clip-path="url(#clip772)" style="stroke:#009af9; stroke-linecap:butt; stroke-linejoin:round; stroke-width:4; stroke-opacity:0.5; fill:none" points="
  783.271,1400.1 783.271,1318.01 
  "/>
<polyline clip-path="url(#clip772)" style="stroke:#009af9; stroke-linecap:butt; stroke-linejoin:round; stroke-width:4; stroke-opacity:0.5; fill:none" points="
  909.031,1400.1 909.031,1359.05 
  "/>
<polyline clip-path="url(#clip772)" style="stroke:#009af9; stroke-linecap:butt; stroke-linejoin:round; stroke-width:4; stroke-opacity:0.5; fill:none" points="
  1034.79,1400.1 1034.79,1379.58 
  "/>
<polyline clip-path="url(#clip772)" style="stroke:#009af9; stroke-linecap:butt; stroke-linejoin:round; stroke-width:4; stroke-opacity:0.5; fill:none" points="
  1160.55,1400.1 1160.55,1389.84 
  "/>
<polyline clip-path="url(#clip772)" style="stroke:#009af9; stroke-linecap:butt; stroke-linejoin:round; stroke-width:4; stroke-opacity:0.5; fill:none" points="
  1286.31,1400.1 1286.31,1394.97 
  "/>
<polyline clip-path="url(#clip772)" style="stroke:#009af9; stroke-linecap:butt; stroke-linejoin:round; stroke-width:4; stroke-opacity:0.5; fill:none" points="
  1412.07,1400.1 1412.07,1397.53 
  "/>
<polyline clip-path="url(#clip772)" style="stroke:#009af9; stroke-linecap:butt; stroke-linejoin:round; stroke-width:4; stroke-opacity:0.5; fill:none" points="
  1537.83,1400.1 1537.83,1398.82 
  "/>
<polyline clip-path="url(#clip772)" style="stroke:#009af9; stroke-linecap:butt; stroke-linejoin:round; stroke-width:4; stroke-opacity:0.5; fill:none" points="
  1663.59,1400.1 1663.59,1399.46 
  "/>
<polyline clip-path="url(#clip772)" style="stroke:#009af9; stroke-linecap:butt; stroke-linejoin:round; stroke-width:4; stroke-opacity:0.5; fill:none" points="
  1789.35,1400.1 1789.35,1399.78 
  "/>
<polyline clip-path="url(#clip772)" style="stroke:#009af9; stroke-linecap:butt; stroke-linejoin:round; stroke-width:4; stroke-opacity:0.5; fill:none" points="
  1915.11,1400.1 1915.11,1399.94 
  "/>
<circle clip-path="url(#clip772)" cx="280.231" cy="743.373" r="14" fill="#e26f46" fill-rule="evenodd" fill-opacity="0.5" stroke="#000000" stroke-opacity="0.5" stroke-width="3.2"/>
<circle clip-path="url(#clip772)" cx="405.991" cy="743.373" r="14" fill="#e26f46" fill-rule="evenodd" fill-opacity="0.5" stroke="#000000" stroke-opacity="0.5" stroke-width="3.2"/>
<circle clip-path="url(#clip772)" cx="531.751" cy="907.554" r="14" fill="#e26f46" fill-rule="evenodd" fill-opacity="0.5" stroke="#000000" stroke-opacity="0.5" stroke-width="3.2"/>
<circle clip-path="url(#clip772)" cx="657.511" cy="1071.74" r="14" fill="#e26f46" fill-rule="evenodd" fill-opacity="0.5" stroke="#000000" stroke-opacity="0.5" stroke-width="3.2"/>
<circle clip-path="url(#clip772)" cx="783.271" cy="1194.87" r="14" fill="#e26f46" fill-rule="evenodd" fill-opacity="0.5" stroke="#000000" stroke-opacity="0.5" stroke-width="3.2"/>
<circle clip-path="url(#clip772)" cx="909.031" cy="1276.96" r="14" fill="#e26f46" fill-rule="evenodd" fill-opacity="0.5" stroke="#000000" stroke-opacity="0.5" stroke-width="3.2"/>
<circle clip-path="url(#clip772)" cx="1034.79" cy="1328.27" r="14" fill="#e26f46" fill-rule="evenodd" fill-opacity="0.5" stroke="#000000" stroke-opacity="0.5" stroke-width="3.2"/>
<circle clip-path="url(#clip772)" cx="1160.55" cy="1359.05" r="14" fill="#e26f46" fill-rule="evenodd" fill-opacity="0.5" stroke="#000000" stroke-opacity="0.5" stroke-width="3.2"/>
<circle clip-path="url(#clip772)" cx="1286.31" cy="1377.01" r="14" fill="#e26f46" fill-rule="evenodd" fill-opacity="0.5" stroke="#000000" stroke-opacity="0.5" stroke-width="3.2"/>
<circle clip-path="url(#clip772)" cx="1412.07" cy="1387.27" r="14" fill="#e26f46" fill-rule="evenodd" fill-opacity="0.5" stroke="#000000" stroke-opacity="0.5" stroke-width="3.2"/>
<circle clip-path="url(#clip772)" cx="1537.83" cy="1393.04" r="14" fill="#e26f46" fill-rule="evenodd" fill-opacity="0.5" stroke="#000000" stroke-opacity="0.5" stroke-width="3.2"/>
<circle clip-path="url(#clip772)" cx="1663.59" cy="1396.25" r="14" fill="#e26f46" fill-rule="evenodd" fill-opacity="0.5" stroke="#000000" stroke-opacity="0.5" stroke-width="3.2"/>
<circle clip-path="url(#clip772)" cx="1789.35" cy="1398.01" r="14" fill="#e26f46" fill-rule="evenodd" fill-opacity="0.5" stroke="#000000" stroke-opacity="0.5" stroke-width="3.2"/>
<circle clip-path="url(#clip772)" cx="1915.11" cy="1398.98" r="14" fill="#e26f46" fill-rule="evenodd" fill-opacity="0.5" stroke="#000000" stroke-opacity="0.5" stroke-width="3.2"/>
<circle clip-path="url(#clip772)" cx="2040.87" cy="1399.5" r="14" fill="#e26f46" fill-rule="evenodd" fill-opacity="0.5" stroke="#000000" stroke-opacity="0.5" stroke-width="3.2"/>
<circle clip-path="url(#clip772)" cx="2166.63" cy="1399.78" r="14" fill="#e26f46" fill-rule="evenodd" fill-opacity="0.5" stroke="#000000" stroke-opacity="0.5" stroke-width="3.2"/>
<circle clip-path="url(#clip772)" cx="2292.39" cy="1399.93" r="14" fill="#e26f46" fill-rule="evenodd" fill-opacity="0.5" stroke="#000000" stroke-opacity="0.5" stroke-width="3.2"/>
<polyline clip-path="url(#clip772)" style="stroke:#e26f46; stroke-linecap:butt; stroke-linejoin:round; stroke-width:4; stroke-opacity:0.5; fill:none" points="
  280.231,1400.1 280.231,743.373 
  "/>
<polyline clip-path="url(#clip772)" style="stroke:#e26f46; stroke-linecap:butt; stroke-linejoin:round; stroke-width:4; stroke-opacity:0.5; fill:none" points="
  405.991,1400.1 405.991,743.373 
  "/>
<polyline clip-path="url(#clip772)" style="stroke:#e26f46; stroke-linecap:butt; stroke-linejoin:round; stroke-width:4; stroke-opacity:0.5; fill:none" points="
  531.751,1400.1 531.751,907.554 
  "/>
<polyline clip-path="url(#clip772)" style="stroke:#e26f46; stroke-linecap:butt; stroke-linejoin:round; stroke-width:4; stroke-opacity:0.5; fill:none" points="
  657.511,1400.1 657.511,1071.74 
  "/>
<polyline clip-path="url(#clip772)" style="stroke:#e26f46; stroke-linecap:butt; stroke-linejoin:round; stroke-width:4; stroke-opacity:0.5; fill:none" points="
  783.271,1400.1 783.271,1194.87 
  "/>
<polyline clip-path="url(#clip772)" style="stroke:#e26f46; stroke-linecap:butt; stroke-linejoin:round; stroke-width:4; stroke-opacity:0.5; fill:none" points="
  909.031,1400.1 909.031,1276.96 
  "/>
<polyline clip-path="url(#clip772)" style="stroke:#e26f46; stroke-linecap:butt; stroke-linejoin:round; stroke-width:4; stroke-opacity:0.5; fill:none" points="
  1034.79,1400.1 1034.79,1328.27 
  "/>
<polyline clip-path="url(#clip772)" style="stroke:#e26f46; stroke-linecap:butt; stroke-linejoin:round; stroke-width:4; stroke-opacity:0.5; fill:none" points="
  1160.55,1400.1 1160.55,1359.05 
  "/>
<polyline clip-path="url(#clip772)" style="stroke:#e26f46; stroke-linecap:butt; stroke-linejoin:round; stroke-width:4; stroke-opacity:0.5; fill:none" points="
  1286.31,1400.1 1286.31,1377.01 
  "/>
<polyline clip-path="url(#clip772)" style="stroke:#e26f46; stroke-linecap:butt; stroke-linejoin:round; stroke-width:4; stroke-opacity:0.5; fill:none" points="
  1412.07,1400.1 1412.07,1387.27 
  "/>
<polyline clip-path="url(#clip772)" style="stroke:#e26f46; stroke-linecap:butt; stroke-linejoin:round; stroke-width:4; stroke-opacity:0.5; fill:none" points="
  1537.83,1400.1 1537.83,1393.04 
  "/>
<polyline clip-path="url(#clip772)" style="stroke:#e26f46; stroke-linecap:butt; stroke-linejoin:round; stroke-width:4; stroke-opacity:0.5; fill:none" points="
  1663.59,1400.1 1663.59,1396.25 
  "/>
<polyline clip-path="url(#clip772)" style="stroke:#e26f46; stroke-linecap:butt; stroke-linejoin:round; stroke-width:4; stroke-opacity:0.5; fill:none" points="
  1789.35,1400.1 1789.35,1398.01 
  "/>
<polyline clip-path="url(#clip772)" style="stroke:#e26f46; stroke-linecap:butt; stroke-linejoin:round; stroke-width:4; stroke-opacity:0.5; fill:none" points="
  1915.11,1400.1 1915.11,1398.98 
  "/>
<polyline clip-path="url(#clip772)" style="stroke:#e26f46; stroke-linecap:butt; stroke-linejoin:round; stroke-width:4; stroke-opacity:0.5; fill:none" points="
  2040.87,1400.1 2040.87,1399.5 
  "/>
<polyline clip-path="url(#clip772)" style="stroke:#e26f46; stroke-linecap:butt; stroke-linejoin:round; stroke-width:4; stroke-opacity:0.5; fill:none" points="
  2166.63,1400.1 2166.63,1399.78 
  "/>
<polyline clip-path="url(#clip772)" style="stroke:#e26f46; stroke-linecap:butt; stroke-linejoin:round; stroke-width:4; stroke-opacity:0.5; fill:none" points="
  2292.39,1400.1 2292.39,1399.93 
  "/>
<path clip-path="url(#clip770)" d="
M1932.62 194.106 L2281.66 194.106 L2281.66 93.6527 L1932.62 93.6527  Z
  " fill="#ffffff" fill-rule="evenodd" fill-opacity="1"/>
<polyline clip-path="url(#clip770)" style="stroke:#000000; stroke-linecap:butt; stroke-linejoin:round; stroke-width:4; stroke-opacity:1; fill:none" points="
  1932.62,194.106 2281.66,194.106 2281.66,93.6527 1932.62,93.6527 1932.62,194.106 
  "/>
<circle clip-path="url(#clip770)" cx="2027.41" cy="127.137" r="23" fill="#009af9" fill-rule="evenodd" fill-opacity="0.5" stroke="#000000" stroke-opacity="0.5" stroke-width="5.12"/>
<path clip-path="url(#clip770)" d="M2143.92 125.172 Q2143.92 126.507 2143.1 127.304 Q2142.3 128.1 2141.3 128.1 Q2140.41 128.1 2139.94 127.585 Q2139.47 127.069 2139.47 126.414 Q2139.47 126.133 2139.59 125.781 Q2139.7 125.406 2139.96 124.961 Q2140.24 124.516 2140.83 124.188 Q2141.41 123.861 2142.21 123.814 Q2142.05 123.65 2142 123.626 Q2141.65 123.345 2140.99 123.252 Q2140.9 123.205 2140.57 123.205 Q2138.96 123.205 2137.32 124.399 Q2135.7 125.57 2133.71 127.795 Q2131.2 130.395 2129.59 131.356 Q2136.68 132.293 2136.68 136.392 Q2136.68 137.071 2136.5 137.891 Q2136.12 139.436 2136.12 140.561 Q2136.12 142.809 2137.64 142.809 Q2139.12 142.809 2140.06 141.31 Q2141.02 139.811 2141.81 136.883 Q2141.93 136.345 2142.05 136.181 Q2142.16 136.017 2142.49 136.017 Q2143.08 136.017 2143.08 136.485 Q2142.54 139.226 2141.34 141.334 Q2139.82 143.887 2137.55 143.887 Q2135.65 143.887 2134.39 142.575 Q2133.15 141.24 2133.15 139.132 Q2133.15 138.617 2133.33 137.446 Q2133.47 136.977 2133.47 136.438 Q2133.47 135.338 2132.87 134.518 Q2132.26 133.675 2131.27 133.253 Q2130.29 132.831 2129.47 132.644 Q2128.67 132.433 2127.9 132.363 Q2125.56 142.271 2125.23 142.88 Q2125.02 143.301 2124.55 143.582 Q2124.08 143.887 2123.59 143.887 Q2123.12 143.887 2122.65 143.559 Q2122.21 143.254 2122.21 142.528 Q2122.21 142.153 2122.4 141.474 L2129.35 113.836 L2129.49 112.899 Q2129.49 112.618 2129.38 112.477 Q2129.28 112.313 2128.72 112.196 Q2128.18 112.079 2127.1 112.079 Q2126.66 112.079 2126.45 112.056 Q2126.26 112.032 2126.1 111.915 Q2125.93 111.775 2125.93 111.493 Q2125.93 111.095 2126.1 110.884 Q2126.28 110.65 2126.42 110.603 Q2126.56 110.557 2126.85 110.533 Q2127.24 110.51 2128.58 110.393 Q2129.91 110.252 2131.06 110.158 Q2132.21 110.065 2132.7 110.065 Q2132.98 110.065 2133.12 110.205 Q2133.29 110.322 2133.31 110.463 L2133.33 110.58 L2128.34 130.817 Q2130.41 129.997 2133.66 126.367 Q2137.43 122.151 2140.67 122.151 Q2142.19 122.151 2143.05 123.088 Q2143.92 124.001 2143.92 125.172 Z" fill="#000000" fill-rule="evenodd" fill-opacity="1" /><path clip-path="url(#clip770)" d="M2160.26 136.064 Q2160.31 135.478 2161.22 135.478 L2190.62 135.478 Q2192 135.478 2192.02 136.017 Q2192.02 136.602 2190.71 136.579 L2161.55 136.579 Q2160.26 136.602 2160.26 136.064 M2160.26 126.695 Q2160.26 126.109 2161.27 126.133 L2190.57 126.133 Q2192 126.133 2192.02 126.695 Q2192.02 127.233 2190.8 127.233 L2161.22 127.233 Q2160.26 127.233 2160.26 126.695 Z" fill="#000000" fill-rule="evenodd" fill-opacity="1" /><path clip-path="url(#clip770)" d="M2210.51 115.967 L2210.51 114.468 Q2216.27 114.468 2219.25 111.4 Q2220.07 111.4 2220.21 111.587 Q2220.35 111.775 2220.35 112.641 L2220.35 139.554 Q2220.35 140.982 2221.05 141.427 Q2221.75 141.872 2224.82 141.872 L2226.35 141.872 L2226.35 143.348 Q2224.66 143.207 2218.57 143.207 Q2212.48 143.207 2210.82 143.348 L2210.82 141.872 L2212.34 141.872 Q2215.36 141.872 2216.09 141.451 Q2216.81 141.006 2216.81 139.554 L2216.81 114.702 Q2214.31 115.967 2210.51 115.967 Z" fill="#000000" fill-rule="evenodd" fill-opacity="1" /><circle clip-path="url(#clip770)" cx="2027.41" cy="160.621" r="23" fill="#e26f46" fill-rule="evenodd" fill-opacity="0.5" stroke="#000000" stroke-opacity="0.5" stroke-width="5.12"/>
<path clip-path="url(#clip770)" d="M2143.92 158.657 Q2143.92 159.992 2143.1 160.788 Q2142.3 161.584 2141.3 161.584 Q2140.41 161.584 2139.94 161.069 Q2139.47 160.554 2139.47 159.898 Q2139.47 159.617 2139.59 159.266 Q2139.7 158.891 2139.96 158.446 Q2140.24 158.001 2140.83 157.673 Q2141.41 157.345 2142.21 157.298 Q2142.05 157.134 2142 157.111 Q2141.65 156.83 2140.99 156.736 Q2140.9 156.689 2140.57 156.689 Q2138.96 156.689 2137.32 157.884 Q2135.7 159.055 2133.71 161.28 Q2131.2 163.88 2129.59 164.84 Q2136.68 165.777 2136.68 169.876 Q2136.68 170.555 2136.5 171.375 Q2136.12 172.921 2136.12 174.045 Q2136.12 176.294 2137.64 176.294 Q2139.12 176.294 2140.06 174.795 Q2141.02 173.296 2141.81 170.368 Q2141.93 169.829 2142.05 169.665 Q2142.16 169.501 2142.49 169.501 Q2143.08 169.501 2143.08 169.97 Q2142.54 172.71 2141.34 174.818 Q2139.82 177.371 2137.55 177.371 Q2135.65 177.371 2134.39 176.059 Q2133.15 174.724 2133.15 172.616 Q2133.15 172.101 2133.33 170.93 Q2133.47 170.461 2133.47 169.923 Q2133.47 168.822 2132.87 168.002 Q2132.26 167.159 2131.27 166.737 Q2130.29 166.316 2129.47 166.128 Q2128.67 165.918 2127.9 165.847 Q2125.56 175.755 2125.23 176.364 Q2125.02 176.786 2124.55 177.067 Q2124.08 177.371 2123.59 177.371 Q2123.12 177.371 2122.65 177.043 Q2122.21 176.739 2122.21 176.013 Q2122.21 175.638 2122.4 174.959 L2129.35 147.32 L2129.49 146.383 Q2129.49 146.102 2129.38 145.962 Q2129.28 145.798 2128.72 145.681 Q2128.18 145.563 2127.1 145.563 Q2126.66 145.563 2126.45 145.54 Q2126.26 145.517 2126.1 145.399 Q2125.93 145.259 2125.93 144.978 Q2125.93 144.58 2126.1 144.369 Q2126.28 144.135 2126.42 144.088 Q2126.56 144.041 2126.85 144.018 Q2127.24 143.994 2128.58 143.877 Q2129.91 143.736 2131.06 143.643 Q2132.21 143.549 2132.7 143.549 Q2132.98 143.549 2133.12 143.69 Q2133.29 143.807 2133.31 143.947 L2133.33 144.064 L2128.34 164.301 Q2130.41 163.482 2133.66 159.851 Q2137.43 155.635 2140.67 155.635 Q2142.19 155.635 2143.05 156.572 Q2143.92 157.485 2143.92 158.657 Z" fill="#000000" fill-rule="evenodd" fill-opacity="1" /><path clip-path="url(#clip770)" d="M2160.26 169.548 Q2160.31 168.962 2161.22 168.962 L2190.62 168.962 Q2192 168.962 2192.02 169.501 Q2192.02 170.087 2190.71 170.063 L2161.55 170.063 Q2160.26 170.087 2160.26 169.548 M2160.26 160.179 Q2160.26 159.593 2161.27 159.617 L2190.57 159.617 Q2192 159.617 2192.02 160.179 Q2192.02 160.718 2190.8 160.718 L2161.22 160.718 Q2160.26 160.718 2160.26 160.179 Z" fill="#000000" fill-rule="evenodd" fill-opacity="1" /><path clip-path="url(#clip770)" d="M2210.51 176.832 Q2210.51 175.966 2210.58 175.708 Q2210.68 175.45 2211.05 175.052 L2220.26 164.793 Q2225.29 159.125 2225.29 154.183 Q2225.29 150.974 2223.61 148.679 Q2221.94 146.383 2218.87 146.383 Q2216.77 146.383 2214.99 147.671 Q2213.21 148.96 2212.39 151.255 Q2212.53 151.208 2213.02 151.208 Q2214.21 151.208 2214.87 151.958 Q2215.55 152.707 2215.55 153.714 Q2215.55 155.003 2214.7 155.635 Q2213.88 156.244 2213.07 156.244 Q2212.74 156.244 2212.29 156.174 Q2211.87 156.104 2211.19 155.448 Q2210.51 154.768 2210.51 153.574 Q2210.51 150.224 2213.04 147.554 Q2215.59 144.884 2219.48 144.884 Q2223.89 144.884 2226.77 147.507 Q2229.67 150.107 2229.67 154.183 Q2229.67 155.612 2229.23 156.923 Q2228.8 158.212 2228.22 159.219 Q2227.66 160.226 2226.11 161.842 Q2224.57 163.458 2223.32 164.606 Q2222.08 165.754 2219.3 168.189 L2214.21 173.132 L2222.86 173.132 Q2227.07 173.132 2227.4 172.757 Q2227.87 172.078 2228.45 168.494 L2229.67 168.494 L2228.31 176.832 L2210.51 176.832 Z" fill="#000000" fill-rule="evenodd" fill-opacity="1" /></svg>
