<?xml version="1.0" encoding="utf-8"?>
<svg xmlns="http://www.w3.org/2000/svg" xmlns:xlink="http://www.w3.org/1999/xlink" width="600" height="400" viewBox="0 0 2400 1600">
<defs>
  <clipPath id="clip740">
    <rect x="0" y="0" width="2400" height="1600"/>
  </clipPath>
</defs>
<path clip-path="url(#clip740)" d="
M0 1600 L2400 1600 L2400 0 L0 0  Z
  " fill="#ffffff" fill-rule="evenodd" fill-opacity="1"/>
<defs>
  <clipPath id="clip741">
    <rect x="480" y="0" width="1681" height="1600"/>
  </clipPath>
</defs>
<defs>
  <clipPath id="clip742">
    <rect x="219" y="47" width="2134" height="1393"/>
  </clipPath>
</defs>
<path clip-path="url(#clip740)" d="
M219.38 1439.5 L2352.76 1439.5 L2352.76 47.2441 L219.38 47.2441  Z
  " fill="#ffffff" fill-rule="evenodd" fill-opacity="1"/>
<polyline clip-path="url(#clip742)" style="stroke:#000000; stroke-linecap:butt; stroke-linejoin:round; stroke-width:2; stroke-opacity:0.1; fill:none" points="
  279.759,1439.5 279.759,47.2441 
  "/>
<polyline clip-path="url(#clip742)" style="stroke:#000000; stroke-linecap:butt; stroke-linejoin:round; stroke-width:2; stroke-opacity:0.1; fill:none" points="
  589.392,1439.5 589.392,47.2441 
  "/>
<polyline clip-path="url(#clip742)" style="stroke:#000000; stroke-linecap:butt; stroke-linejoin:round; stroke-width:2; stroke-opacity:0.1; fill:none" points="
  899.026,1439.5 899.026,47.2441 
  "/>
<polyline clip-path="url(#clip742)" style="stroke:#000000; stroke-linecap:butt; stroke-linejoin:round; stroke-width:2; stroke-opacity:0.1; fill:none" points="
  1208.66,1439.5 1208.66,47.2441 
  "/>
<polyline clip-path="url(#clip742)" style="stroke:#000000; stroke-linecap:butt; stroke-linejoin:round; stroke-width:2; stroke-opacity:0.1; fill:none" points="
  1518.29,1439.5 1518.29,47.2441 
  "/>
<polyline clip-path="url(#clip742)" style="stroke:#000000; stroke-linecap:butt; stroke-linejoin:round; stroke-width:2; stroke-opacity:0.1; fill:none" points="
  1827.93,1439.5 1827.93,47.2441 
  "/>
<polyline clip-path="url(#clip742)" style="stroke:#000000; stroke-linecap:butt; stroke-linejoin:round; stroke-width:2; stroke-opacity:0.1; fill:none" points="
  2137.56,1439.5 2137.56,47.2441 
  "/>
<polyline clip-path="url(#clip740)" style="stroke:#000000; stroke-linecap:butt; stroke-linejoin:round; stroke-width:4; stroke-opacity:1; fill:none" points="
  219.38,1439.5 2352.76,1439.5 
  "/>
<polyline clip-path="url(#clip740)" style="stroke:#000000; stroke-linecap:butt; stroke-linejoin:round; stroke-width:4; stroke-opacity:1; fill:none" points="
  279.759,1439.5 279.759,1420.6 
  "/>
<polyline clip-path="url(#clip740)" style="stroke:#000000; stroke-linecap:butt; stroke-linejoin:round; stroke-width:4; stroke-opacity:1; fill:none" points="
  589.392,1439.5 589.392,1420.6 
  "/>
<polyline clip-path="url(#clip740)" style="stroke:#000000; stroke-linecap:butt; stroke-linejoin:round; stroke-width:4; stroke-opacity:1; fill:none" points="
  899.026,1439.5 899.026,1420.6 
  "/>
<polyline clip-path="url(#clip740)" style="stroke:#000000; stroke-linecap:butt; stroke-linejoin:round; stroke-width:4; stroke-opacity:1; fill:none" points="
  1208.66,1439.5 1208.66,1420.6 
  "/>
<polyline clip-path="url(#clip740)" style="stroke:#000000; stroke-linecap:butt; stroke-linejoin:round; stroke-width:4; stroke-opacity:1; fill:none" points="
  1518.29,1439.5 1518.29,1420.6 
  "/>
<polyline clip-path="url(#clip740)" style="stroke:#000000; stroke-linecap:butt; stroke-linejoin:round; stroke-width:4; stroke-opacity:1; fill:none" points="
  1827.93,1439.5 1827.93,1420.6 
  "/>
<polyline clip-path="url(#clip740)" style="stroke:#000000; stroke-linecap:butt; stroke-linejoin:round; stroke-width:4; stroke-opacity:1; fill:none" points="
  2137.56,1439.5 2137.56,1420.6 
  "/>
<path clip-path="url(#clip740)" d="M279.759 1468.69 Q276.148 1468.69 274.319 1472.26 Q272.513 1475.8 272.513 1482.93 Q272.513 1490.04 274.319 1493.6 Q276.148 1497.14 279.759 1497.14 Q283.393 1497.14 285.199 1493.6 Q287.027 1490.04 287.027 1482.93 Q287.027 1475.8 285.199 1472.26 Q283.393 1468.69 279.759 1468.69 M279.759 1464.99 Q285.569 1464.99 288.624 1469.6 Q291.703 1474.18 291.703 1482.93 Q291.703 1491.66 288.624 1496.26 Q285.569 1500.85 279.759 1500.85 Q273.949 1500.85 270.87 1496.26 Q267.814 1491.66 267.814 1482.93 Q267.814 1474.18 270.87 1469.6 Q273.949 1464.99 279.759 1464.99 Z" fill="#000000" fill-rule="evenodd" fill-opacity="1" /><path clip-path="url(#clip740)" d="M584.045 1496.24 L600.365 1496.24 L600.365 1500.17 L578.42 1500.17 L578.42 1496.24 Q581.082 1493.48 585.666 1488.85 Q590.272 1484.2 591.453 1482.86 Q593.698 1480.34 594.578 1478.6 Q595.48 1476.84 595.48 1475.15 Q595.48 1472.4 593.536 1470.66 Q591.615 1468.92 588.513 1468.92 Q586.314 1468.92 583.86 1469.69 Q581.429 1470.45 578.652 1472 L578.652 1467.28 Q581.476 1466.15 583.929 1465.57 Q586.383 1464.99 588.42 1464.99 Q593.79 1464.99 596.985 1467.67 Q600.179 1470.36 600.179 1474.85 Q600.179 1476.98 599.369 1478.9 Q598.582 1480.8 596.476 1483.39 Q595.897 1484.06 592.795 1487.28 Q589.693 1490.47 584.045 1496.24 Z" fill="#000000" fill-rule="evenodd" fill-opacity="1" /><path clip-path="url(#clip740)" d="M902.035 1469.69 L890.23 1488.14 L902.035 1488.14 L902.035 1469.69 M900.808 1465.61 L906.688 1465.61 L906.688 1488.14 L911.619 1488.14 L911.619 1492.03 L906.688 1492.03 L906.688 1500.17 L902.035 1500.17 L902.035 1492.03 L886.433 1492.03 L886.433 1487.51 L900.808 1465.61 Z" fill="#000000" fill-rule="evenodd" fill-opacity="1" /><path clip-path="url(#clip740)" d="M1209.06 1481.03 Q1205.92 1481.03 1204.06 1483.18 Q1202.24 1485.34 1202.24 1489.09 Q1202.24 1492.81 1204.06 1494.99 Q1205.92 1497.14 1209.06 1497.14 Q1212.21 1497.14 1214.04 1494.99 Q1215.89 1492.81 1215.89 1489.09 Q1215.89 1485.34 1214.04 1483.18 Q1212.21 1481.03 1209.06 1481.03 M1218.35 1466.38 L1218.35 1470.64 Q1216.59 1469.8 1214.78 1469.36 Q1213 1468.92 1211.24 1468.92 Q1206.61 1468.92 1204.16 1472.05 Q1201.73 1475.17 1201.38 1481.49 Q1202.75 1479.48 1204.81 1478.41 Q1206.87 1477.33 1209.34 1477.33 Q1214.55 1477.33 1217.56 1480.5 Q1220.59 1483.65 1220.59 1489.09 Q1220.59 1494.41 1217.44 1497.63 Q1214.3 1500.85 1209.06 1500.85 Q1203.07 1500.85 1199.9 1496.26 Q1196.73 1491.66 1196.73 1482.93 Q1196.73 1474.73 1200.62 1469.87 Q1204.5 1464.99 1211.06 1464.99 Q1212.81 1464.99 1214.6 1465.34 Q1216.4 1465.68 1218.35 1466.38 Z" fill="#000000" fill-rule="evenodd" fill-opacity="1" /><path clip-path="url(#clip740)" d="M1518.29 1483.76 Q1514.96 1483.76 1513.04 1485.54 Q1511.14 1487.33 1511.14 1490.45 Q1511.14 1493.58 1513.04 1495.36 Q1514.96 1497.14 1518.29 1497.14 Q1521.63 1497.14 1523.55 1495.36 Q1525.47 1493.55 1525.47 1490.45 Q1525.47 1487.33 1523.55 1485.54 Q1521.65 1483.76 1518.29 1483.76 M1513.62 1481.77 Q1510.61 1481.03 1508.92 1478.97 Q1507.25 1476.91 1507.25 1473.95 Q1507.25 1469.8 1510.19 1467.4 Q1513.15 1464.99 1518.29 1464.99 Q1523.46 1464.99 1526.4 1467.4 Q1529.33 1469.8 1529.33 1473.95 Q1529.33 1476.91 1527.65 1478.97 Q1525.98 1481.03 1522.99 1481.77 Q1526.37 1482.56 1528.25 1484.85 Q1530.15 1487.14 1530.15 1490.45 Q1530.15 1495.47 1527.07 1498.16 Q1524.01 1500.85 1518.29 1500.85 Q1512.58 1500.85 1509.5 1498.16 Q1506.44 1495.47 1506.44 1490.45 Q1506.44 1487.14 1508.34 1484.85 Q1510.24 1482.56 1513.62 1481.77 M1511.9 1474.39 Q1511.9 1477.07 1513.57 1478.58 Q1515.26 1480.08 1518.29 1480.08 Q1521.3 1480.08 1522.99 1478.58 Q1524.71 1477.07 1524.71 1474.39 Q1524.71 1471.7 1522.99 1470.2 Q1521.3 1468.69 1518.29 1468.69 Q1515.26 1468.69 1513.57 1470.2 Q1511.9 1471.7 1511.9 1474.39 Z" fill="#000000" fill-rule="evenodd" fill-opacity="1" /><path clip-path="url(#clip740)" d="M1802.61 1496.24 L1810.25 1496.24 L1810.25 1469.87 L1801.94 1471.54 L1801.94 1467.28 L1810.21 1465.61 L1814.88 1465.61 L1814.88 1496.24 L1822.52 1496.24 L1822.52 1500.17 L1802.61 1500.17 L1802.61 1496.24 Z" fill="#000000" fill-rule="evenodd" fill-opacity="1" /><path clip-path="url(#clip740)" d="M1841.97 1468.69 Q1838.36 1468.69 1836.53 1472.26 Q1834.72 1475.8 1834.72 1482.93 Q1834.72 1490.04 1836.53 1493.6 Q1838.36 1497.14 1841.97 1497.14 Q1845.6 1497.14 1847.41 1493.6 Q1849.23 1490.04 1849.23 1482.93 Q1849.23 1475.8 1847.41 1472.26 Q1845.6 1468.69 1841.97 1468.69 M1841.97 1464.99 Q1847.78 1464.99 1850.83 1469.6 Q1853.91 1474.18 1853.91 1482.93 Q1853.91 1491.66 1850.83 1496.26 Q1847.78 1500.85 1841.97 1500.85 Q1836.16 1500.85 1833.08 1496.26 Q1830.02 1491.66 1830.02 1482.93 Q1830.02 1474.18 1833.08 1469.6 Q1836.16 1464.99 1841.97 1464.99 Z" fill="#000000" fill-rule="evenodd" fill-opacity="1" /><path clip-path="url(#clip740)" d="M2113.05 1496.24 L2120.69 1496.24 L2120.69 1469.87 L2112.38 1471.54 L2112.38 1467.28 L2120.64 1465.61 L2125.32 1465.61 L2125.32 1496.24 L2132.95 1496.24 L2132.95 1500.17 L2113.05 1500.17 L2113.05 1496.24 Z" fill="#000000" fill-rule="evenodd" fill-opacity="1" /><path clip-path="url(#clip740)" d="M2146.43 1496.24 L2162.75 1496.24 L2162.75 1500.17 L2140.8 1500.17 L2140.8 1496.24 Q2143.46 1493.48 2148.05 1488.85 Q2152.65 1484.2 2153.83 1482.86 Q2156.08 1480.34 2156.96 1478.6 Q2157.86 1476.84 2157.86 1475.15 Q2157.86 1472.4 2155.92 1470.66 Q2154 1468.92 2150.89 1468.92 Q2148.69 1468.92 2146.24 1469.69 Q2143.81 1470.45 2141.03 1472 L2141.03 1467.28 Q2143.86 1466.15 2146.31 1465.57 Q2148.76 1464.99 2150.8 1464.99 Q2156.17 1464.99 2159.37 1467.67 Q2162.56 1470.36 2162.56 1474.85 Q2162.56 1476.98 2161.75 1478.9 Q2160.96 1480.8 2158.86 1483.39 Q2158.28 1484.06 2155.18 1487.28 Q2152.07 1490.47 2146.43 1496.24 Z" fill="#000000" fill-rule="evenodd" fill-opacity="1" /><path clip-path="url(#clip740)" d="M1298 1535.75 Q1298 1541.16 1296.26 1547.24 Q1294.56 1553.3 1291.85 1558.19 Q1289.15 1563.06 1285.6 1566.28 Q1282.06 1569.47 1278.68 1569.47 Q1276.52 1569.47 1274.91 1568.27 Q1273.33 1567.05 1272.46 1565.02 Q1271.59 1562.96 1271.18 1560.71 Q1270.76 1558.42 1270.76 1555.94 Q1270.76 1552.24 1271.56 1548.21 Q1272.37 1544.15 1273.72 1540.48 Q1275.07 1536.78 1276.97 1533.43 Q1278.87 1530.05 1280.97 1527.6 Q1283.09 1525.12 1285.47 1523.67 Q1287.86 1522.22 1290.08 1522.22 Q1291.69 1522.22 1292.98 1522.93 Q1294.3 1523.6 1295.14 1524.8 Q1295.97 1525.96 1296.55 1527.34 Q1297.17 1528.73 1297.46 1530.34 Q1297.75 1531.91 1297.87 1533.23 Q1298 1534.52 1298 1535.75 M1293.66 1531.66 Q1293.66 1530.01 1293.53 1528.79 Q1293.4 1527.53 1293.04 1526.28 Q1292.69 1525.02 1291.92 1524.35 Q1291.18 1523.67 1290.02 1523.67 Q1286.63 1523.67 1282.83 1530.59 Q1281.61 1532.75 1280.52 1535.68 Q1279.42 1538.61 1279.03 1540 Q1278.65 1541.38 1277.75 1544.8 L1291.53 1544.8 Q1293.66 1536 1293.66 1531.66 M1290.95 1546.89 L1277.23 1546.89 Q1275.1 1554.94 1275.1 1559.96 Q1275.1 1564.34 1276.01 1566.18 Q1276.94 1567.98 1278.68 1567.98 Q1280.68 1567.98 1282.54 1565.99 Q1284.41 1563.96 1286.31 1560.29 Q1288.82 1555.52 1290.95 1546.89 Z" fill="#000000" fill-rule="evenodd" fill-opacity="1" /><polyline clip-path="url(#clip742)" style="stroke:#000000; stroke-linecap:butt; stroke-linejoin:round; stroke-width:2; stroke-opacity:0.1; fill:none" points="
  219.38,1400.1 2352.76,1400.1 
  "/>
<polyline clip-path="url(#clip742)" style="stroke:#000000; stroke-linecap:butt; stroke-linejoin:round; stroke-width:2; stroke-opacity:0.1; fill:none" points="
  219.38,1043.07 2352.76,1043.07 
  "/>
<polyline clip-path="url(#clip742)" style="stroke:#000000; stroke-linecap:butt; stroke-linejoin:round; stroke-width:2; stroke-opacity:0.1; fill:none" points="
  219.38,686.033 2352.76,686.033 
  "/>
<polyline clip-path="url(#clip742)" style="stroke:#000000; stroke-linecap:butt; stroke-linejoin:round; stroke-width:2; stroke-opacity:0.1; fill:none" points="
  219.38,329 2352.76,329 
  "/>
<polyline clip-path="url(#clip740)" style="stroke:#000000; stroke-linecap:butt; stroke-linejoin:round; stroke-width:4; stroke-opacity:1; fill:none" points="
  219.38,1439.5 219.38,47.2441 
  "/>
<polyline clip-path="url(#clip740)" style="stroke:#000000; stroke-linecap:butt; stroke-linejoin:round; stroke-width:4; stroke-opacity:1; fill:none" points="
  219.38,1400.1 238.278,1400.1 
  "/>
<polyline clip-path="url(#clip740)" style="stroke:#000000; stroke-linecap:butt; stroke-linejoin:round; stroke-width:4; stroke-opacity:1; fill:none" points="
  219.38,1043.07 238.278,1043.07 
  "/>
<polyline clip-path="url(#clip740)" style="stroke:#000000; stroke-linecap:butt; stroke-linejoin:round; stroke-width:4; stroke-opacity:1; fill:none" points="
  219.38,686.033 238.278,686.033 
  "/>
<polyline clip-path="url(#clip740)" style="stroke:#000000; stroke-linecap:butt; stroke-linejoin:round; stroke-width:4; stroke-opacity:1; fill:none" points="
  219.38,329 238.278,329 
  "/>
<path clip-path="url(#clip740)" d="M126.205 1385.9 Q122.593 1385.9 120.765 1389.46 Q118.959 1393 118.959 1400.13 Q118.959 1407.24 120.765 1410.8 Q122.593 1414.35 126.205 1414.35 Q129.839 1414.35 131.644 1410.8 Q133.473 1407.24 133.473 1400.13 Q133.473 1393 131.644 1389.46 Q129.839 1385.9 126.205 1385.9 M126.205 1382.19 Q132.015 1382.19 135.07 1386.8 Q138.149 1391.38 138.149 1400.13 Q138.149 1408.86 135.07 1413.47 Q132.015 1418.05 126.205 1418.05 Q120.394 1418.05 117.316 1413.47 Q114.26 1408.86 114.26 1400.13 Q114.26 1391.38 117.316 1386.8 Q120.394 1382.19 126.205 1382.19 Z" fill="#000000" fill-rule="evenodd" fill-opacity="1" /><path clip-path="url(#clip740)" d="M146.366 1411.5 L151.251 1411.5 L151.251 1417.38 L146.366 1417.38 L146.366 1411.5 Z" fill="#000000" fill-rule="evenodd" fill-opacity="1" /><path clip-path="url(#clip740)" d="M171.436 1385.9 Q167.825 1385.9 165.996 1389.46 Q164.19 1393 164.19 1400.13 Q164.19 1407.24 165.996 1410.8 Q167.825 1414.35 171.436 1414.35 Q175.07 1414.35 176.876 1410.8 Q178.704 1407.24 178.704 1400.13 Q178.704 1393 176.876 1389.46 Q175.07 1385.9 171.436 1385.9 M171.436 1382.19 Q177.246 1382.19 180.301 1386.8 Q183.38 1391.38 183.38 1400.13 Q183.38 1408.86 180.301 1413.47 Q177.246 1418.05 171.436 1418.05 Q165.626 1418.05 162.547 1413.47 Q159.491 1408.86 159.491 1400.13 Q159.491 1391.38 162.547 1386.8 Q165.626 1382.19 171.436 1382.19 Z" fill="#000000" fill-rule="evenodd" fill-opacity="1" /><path clip-path="url(#clip740)" d="M127.431 1028.86 Q123.82 1028.86 121.992 1032.43 Q120.186 1035.97 120.186 1043.1 Q120.186 1050.21 121.992 1053.77 Q123.82 1057.31 127.431 1057.31 Q131.066 1057.31 132.871 1053.77 Q134.7 1050.21 134.7 1043.1 Q134.7 1035.97 132.871 1032.43 Q131.066 1028.86 127.431 1028.86 M127.431 1025.16 Q133.242 1025.16 136.297 1029.77 Q139.376 1034.35 139.376 1043.1 Q139.376 1051.83 136.297 1056.43 Q133.242 1061.02 127.431 1061.02 Q121.621 1061.02 118.543 1056.43 Q115.487 1051.83 115.487 1043.1 Q115.487 1034.35 118.543 1029.77 Q121.621 1025.16 127.431 1025.16 Z" fill="#000000" fill-rule="evenodd" fill-opacity="1" /><path clip-path="url(#clip740)" d="M147.593 1054.47 L152.478 1054.47 L152.478 1060.35 L147.593 1060.35 L147.593 1054.47 Z" fill="#000000" fill-rule="evenodd" fill-opacity="1" /><path clip-path="url(#clip740)" d="M163.473 1056.41 L171.112 1056.41 L171.112 1030.04 L162.802 1031.71 L162.802 1027.45 L171.065 1025.79 L175.741 1025.79 L175.741 1056.41 L183.38 1056.41 L183.38 1060.35 L163.473 1060.35 L163.473 1056.41 Z" fill="#000000" fill-rule="evenodd" fill-opacity="1" /><path clip-path="url(#clip740)" d="M127.802 671.831 Q124.191 671.831 122.362 675.396 Q120.556 678.938 120.556 686.067 Q120.556 693.174 122.362 696.738 Q124.191 700.28 127.802 700.28 Q131.436 700.28 133.242 696.738 Q135.07 693.174 135.07 686.067 Q135.07 678.938 133.242 675.396 Q131.436 671.831 127.802 671.831 M127.802 668.128 Q133.612 668.128 136.667 672.734 Q139.746 677.317 139.746 686.067 Q139.746 694.794 136.667 699.401 Q133.612 703.984 127.802 703.984 Q121.992 703.984 118.913 699.401 Q115.857 694.794 115.857 686.067 Q115.857 677.317 118.913 672.734 Q121.992 668.128 127.802 668.128 Z" fill="#000000" fill-rule="evenodd" fill-opacity="1" /><path clip-path="url(#clip740)" d="M147.964 697.433 L152.848 697.433 L152.848 703.313 L147.964 703.313 L147.964 697.433 Z" fill="#000000" fill-rule="evenodd" fill-opacity="1" /><path clip-path="url(#clip740)" d="M167.061 699.377 L183.38 699.377 L183.38 703.313 L161.436 703.313 L161.436 699.377 Q164.098 696.623 168.681 691.993 Q173.288 687.34 174.468 685.998 Q176.714 683.475 177.593 681.739 Q178.496 679.979 178.496 678.29 Q178.496 675.535 176.551 673.799 Q174.63 672.063 171.528 672.063 Q169.329 672.063 166.876 672.827 Q164.445 673.59 161.667 675.141 L161.667 670.419 Q164.491 669.285 166.945 668.706 Q169.399 668.128 171.436 668.128 Q176.806 668.128 180.001 670.813 Q183.195 673.498 183.195 677.989 Q183.195 680.118 182.385 682.039 Q181.598 683.938 179.491 686.53 Q178.913 687.201 175.811 690.419 Q172.709 693.614 167.061 699.377 Z" fill="#000000" fill-rule="evenodd" fill-opacity="1" /><path clip-path="url(#clip740)" d="M126.853 314.798 Q123.242 314.798 121.413 318.363 Q119.607 321.905 119.607 329.034 Q119.607 336.141 121.413 339.706 Q123.242 343.247 126.853 343.247 Q130.487 343.247 132.292 339.706 Q134.121 336.141 134.121 329.034 Q134.121 321.905 132.292 318.363 Q130.487 314.798 126.853 314.798 M126.853 311.095 Q132.663 311.095 135.718 315.701 Q138.797 320.284 138.797 329.034 Q138.797 337.761 135.718 342.368 Q132.663 346.951 126.853 346.951 Q121.043 346.951 117.964 342.368 Q114.908 337.761 114.908 329.034 Q114.908 320.284 117.964 315.701 Q121.043 311.095 126.853 311.095 Z" fill="#000000" fill-rule="evenodd" fill-opacity="1" /><path clip-path="url(#clip740)" d="M147.015 340.4 L151.899 340.4 L151.899 346.28 L147.015 346.28 L147.015 340.4 Z" fill="#000000" fill-rule="evenodd" fill-opacity="1" /><path clip-path="url(#clip740)" d="M176.251 327.645 Q179.607 328.363 181.482 330.632 Q183.38 332.9 183.38 336.233 Q183.38 341.349 179.862 344.15 Q176.343 346.951 169.862 346.951 Q167.686 346.951 165.371 346.511 Q163.079 346.094 160.626 345.238 L160.626 340.724 Q162.57 341.858 164.885 342.437 Q167.2 343.016 169.723 343.016 Q174.121 343.016 176.413 341.28 Q178.727 339.544 178.727 336.233 Q178.727 333.178 176.575 331.465 Q174.445 329.729 170.626 329.729 L166.598 329.729 L166.598 325.886 L170.811 325.886 Q174.26 325.886 176.089 324.52 Q177.917 323.132 177.917 320.539 Q177.917 317.877 176.019 316.465 Q174.144 315.03 170.626 315.03 Q168.704 315.03 166.505 315.446 Q164.306 315.863 161.667 316.743 L161.667 312.576 Q164.329 311.835 166.644 311.465 Q168.982 311.095 171.042 311.095 Q176.366 311.095 179.468 313.525 Q182.57 315.933 182.57 320.053 Q182.57 322.923 180.926 324.914 Q179.283 326.882 176.251 327.645 Z" fill="#000000" fill-rule="evenodd" fill-opacity="1" /><path clip-path="url(#clip740)" d="M16.4842 820.637 L16.4842 811.056 L48.8219 798.93 L16.4842 786.739 L16.4842 777.159 L64.0042 777.159 L64.0042 783.429 L22.277 783.429 L54.8694 795.683 L54.8694 802.144 L22.277 814.398 L64.0042 814.398 L64.0042 820.637 L16.4842 820.637 Z" fill="#000000" fill-rule="evenodd" fill-opacity="1" /><path clip-path="url(#clip740)" d="M46.0847 748.45 Q46.0847 755.547 47.7079 758.285 Q49.3312 761.022 53.2461 761.022 Q56.3653 761.022 58.2114 758.985 Q60.0256 756.916 60.0256 753.383 Q60.0256 748.513 56.5881 745.585 Q53.1188 742.625 47.3897 742.625 L46.0847 742.625 L46.0847 748.45 M43.6657 736.769 L64.0042 736.769 L64.0042 742.625 L58.5933 742.625 Q61.8398 744.63 63.3994 747.622 Q64.9272 750.614 64.9272 754.943 Q64.9272 760.417 61.8716 763.664 Q58.7843 766.878 53.6281 766.878 Q47.6125 766.878 44.5569 762.868 Q41.5014 758.826 41.5014 750.837 L41.5014 742.625 L40.9285 742.625 Q36.8862 742.625 34.6901 745.299 Q32.4621 747.94 32.4621 752.747 Q32.4621 755.802 33.1941 758.698 Q33.9262 761.595 35.3903 764.268 L29.9795 764.268 Q28.7381 761.054 28.1334 758.03 Q27.4968 755.006 27.4968 752.142 Q27.4968 744.407 31.5072 740.588 Q35.5176 736.769 43.6657 736.769 Z" fill="#000000" fill-rule="evenodd" fill-opacity="1" /><path clip-path="url(#clip740)" d="M29.4065 701.98 L34.9447 701.98 Q33.6716 704.463 33.035 707.136 Q32.3984 709.81 32.3984 712.674 Q32.3984 717.035 33.7352 719.231 Q35.072 721.395 37.7456 721.395 Q39.7826 721.395 40.9603 719.836 Q42.1061 718.276 43.1565 713.566 L43.6021 711.56 Q44.9389 705.322 47.3897 702.712 Q49.8086 700.07 54.1691 700.07 Q59.1344 700.07 62.0308 704.017 Q64.9272 707.932 64.9272 714.807 Q64.9272 717.671 64.3543 720.791 Q63.8132 723.878 62.6992 727.316 L56.6518 727.316 Q58.3387 724.069 59.198 720.918 Q60.0256 717.767 60.0256 714.68 Q60.0256 710.542 58.6251 708.314 Q57.1929 706.086 54.6147 706.086 Q52.2276 706.086 50.9545 707.709 Q49.6813 709.301 48.5037 714.743 L48.0262 716.78 Q46.8804 722.223 44.5251 724.642 Q42.138 727.061 38.0002 727.061 Q32.9713 727.061 30.2341 723.496 Q27.4968 719.931 27.4968 713.375 Q27.4968 710.128 27.9743 707.264 Q28.4517 704.399 29.4065 701.98 Z" fill="#000000" fill-rule="evenodd" fill-opacity="1" /><path clip-path="url(#clip740)" d="M29.4065 668.019 L34.9447 668.019 Q33.6716 670.502 33.035 673.175 Q32.3984 675.849 32.3984 678.713 Q32.3984 683.074 33.7352 685.27 Q35.072 687.434 37.7456 687.434 Q39.7826 687.434 40.9603 685.875 Q42.1061 684.315 43.1565 679.605 L43.6021 677.599 Q44.9389 671.361 47.3897 668.751 Q49.8086 666.109 54.1691 666.109 Q59.1344 666.109 62.0308 670.056 Q64.9272 673.971 64.9272 680.846 Q64.9272 683.71 64.3543 686.83 Q63.8132 689.917 62.6992 693.354 L56.6518 693.354 Q58.3387 690.108 59.198 686.957 Q60.0256 683.806 60.0256 680.719 Q60.0256 676.581 58.6251 674.353 Q57.1929 672.125 54.6147 672.125 Q52.2276 672.125 50.9545 673.748 Q49.6813 675.34 48.5037 680.782 L48.0262 682.819 Q46.8804 688.262 44.5251 690.681 Q42.138 693.1 38.0002 693.1 Q32.9713 693.1 30.2341 689.535 Q27.4968 685.97 27.4968 679.414 Q27.4968 676.167 27.9743 673.302 Q28.4517 670.438 29.4065 668.019 Z" fill="#000000" fill-rule="evenodd" fill-opacity="1" /><circle clip-path="url(#clip742)" cx="279.759" cy="86.6476" r="14" fill="#009af9" fill-rule="evenodd" fill-opacity="0.5" stroke="#000000" stroke-opacity="0.5" stroke-width="3.2"/>
<circle clip-path="url(#clip742)" cx="434.576" cy="86.6476" r="14" fill="#009af9" fill-rule="evenodd" fill-opacity="0.5" stroke="#000000" stroke-opacity="0.5" stroke-width="3.2"/>
<circle clip-path="url(#clip742)" cx="589.392" cy="743.373" r="14" fill="#009af9" fill-rule="evenodd" fill-opacity="0.5" stroke="#000000" stroke-opacity="0.5" stroke-width="3.2"/>
<circle clip-path="url(#clip742)" cx="744.209" cy="1181.19" r="14" fill="#009af9" fill-rule="evenodd" fill-opacity="0.5" stroke="#000000" stroke-opacity="0.5" stroke-width="3.2"/>
<circle clip-path="url(#clip742)" cx="899.026" cy="1345.37" r="14" fill="#009af9" fill-rule="evenodd" fill-opacity="0.5" stroke="#000000" stroke-opacity="0.5" stroke-width="3.2"/>
<circle clip-path="url(#clip742)" cx="1053.84" cy="1389.15" r="14" fill="#009af9" fill-rule="evenodd" fill-opacity="0.5" stroke="#000000" stroke-opacity="0.5" stroke-width="3.2"/>
<circle clip-path="url(#clip742)" cx="1208.66" cy="1398.27" r="14" fill="#009af9" fill-rule="evenodd" fill-opacity="0.5" stroke="#000000" stroke-opacity="0.5" stroke-width="3.2"/>
<polyline clip-path="url(#clip742)" style="stroke:#009af9; stroke-linecap:butt; stroke-linejoin:round; stroke-width:4; stroke-opacity:0.5; fill:none" points="
  279.759,1400.1 279.759,86.6476 
  "/>
<polyline clip-path="url(#clip742)" style="stroke:#009af9; stroke-linecap:butt; stroke-linejoin:round; stroke-width:4; stroke-opacity:0.5; fill:none" points="
  434.576,1400.1 434.576,86.6476 
  "/>
<polyline clip-path="url(#clip742)" style="stroke:#009af9; stroke-linecap:butt; stroke-linejoin:round; stroke-width:4; stroke-opacity:0.5; fill:none" points="
  589.392,1400.1 589.392,743.373 
  "/>
<polyline clip-path="url(#clip742)" style="stroke:#009af9; stroke-linecap:butt; stroke-linejoin:round; stroke-width:4; stroke-opacity:0.5; fill:none" points="
  744.209,1400.1 744.209,1181.19 
  "/>
<polyline clip-path="url(#clip742)" style="stroke:#009af9; stroke-linecap:butt; stroke-linejoin:round; stroke-width:4; stroke-opacity:0.5; fill:none" points="
  899.026,1400.1 899.026,1345.37 
  "/>
<polyline clip-path="url(#clip742)" style="stroke:#009af9; stroke-linecap:butt; stroke-linejoin:round; stroke-width:4; stroke-opacity:0.5; fill:none" points="
  1053.84,1400.1 1053.84,1389.15 
  "/>
<polyline clip-path="url(#clip742)" style="stroke:#009af9; stroke-linecap:butt; stroke-linejoin:round; stroke-width:4; stroke-opacity:0.5; fill:none" points="
  1208.66,1400.1 1208.66,1398.27 
  "/>
<circle clip-path="url(#clip742)" cx="279.759" cy="1334.71" r="14" fill="#e26f46" fill-rule="evenodd" fill-opacity="0.5" stroke="#000000" stroke-opacity="0.5" stroke-width="3.2"/>
<circle clip-path="url(#clip742)" cx="434.576" cy="1138.53" r="14" fill="#e26f46" fill-rule="evenodd" fill-opacity="0.5" stroke="#000000" stroke-opacity="0.5" stroke-width="3.2"/>
<circle clip-path="url(#clip742)" cx="589.392" cy="876.955" r="14" fill="#e26f46" fill-rule="evenodd" fill-opacity="0.5" stroke="#000000" stroke-opacity="0.5" stroke-width="3.2"/>
<circle clip-path="url(#clip742)" cx="744.209" cy="702.575" r="14" fill="#e26f46" fill-rule="evenodd" fill-opacity="0.5" stroke="#000000" stroke-opacity="0.5" stroke-width="3.2"/>
<circle clip-path="url(#clip742)" cx="899.026" cy="702.575" r="14" fill="#e26f46" fill-rule="evenodd" fill-opacity="0.5" stroke="#000000" stroke-opacity="0.5" stroke-width="3.2"/>
<circle clip-path="url(#clip742)" cx="1053.84" cy="842.079" r="14" fill="#e26f46" fill-rule="evenodd" fill-opacity="0.5" stroke="#000000" stroke-opacity="0.5" stroke-width="3.2"/>
<circle clip-path="url(#clip742)" cx="1208.66" cy="1028.09" r="14" fill="#e26f46" fill-rule="evenodd" fill-opacity="0.5" stroke="#000000" stroke-opacity="0.5" stroke-width="3.2"/>
<circle clip-path="url(#clip742)" cx="1363.48" cy="1187.52" r="14" fill="#e26f46" fill-rule="evenodd" fill-opacity="0.5" stroke="#000000" stroke-opacity="0.5" stroke-width="3.2"/>
<circle clip-path="url(#clip742)" cx="1518.29" cy="1293.81" r="14" fill="#e26f46" fill-rule="evenodd" fill-opacity="0.5" stroke="#000000" stroke-opacity="0.5" stroke-width="3.2"/>
<circle clip-path="url(#clip742)" cx="1673.11" cy="1352.86" r="14" fill="#e26f46" fill-rule="evenodd" fill-opacity="0.5" stroke="#000000" stroke-opacity="0.5" stroke-width="3.2"/>
<circle clip-path="url(#clip742)" cx="1827.93" cy="1381.2" r="14" fill="#e26f46" fill-rule="evenodd" fill-opacity="0.5" stroke="#000000" stroke-opacity="0.5" stroke-width="3.2"/>
<circle clip-path="url(#clip742)" cx="1982.74" cy="1393.23" r="14" fill="#e26f46" fill-rule="evenodd" fill-opacity="0.5" stroke="#000000" stroke-opacity="0.5" stroke-width="3.2"/>
<circle clip-path="url(#clip742)" cx="2137.56" cy="1397.81" r="14" fill="#e26f46" fill-rule="evenodd" fill-opacity="0.5" stroke="#000000" stroke-opacity="0.5" stroke-width="3.2"/>
<circle clip-path="url(#clip742)" cx="2292.38" cy="1399.39" r="14" fill="#e26f46" fill-rule="evenodd" fill-opacity="0.5" stroke="#000000" stroke-opacity="0.5" stroke-width="3.2"/>
<polyline clip-path="url(#clip742)" style="stroke:#e26f46; stroke-linecap:butt; stroke-linejoin:round; stroke-width:4; stroke-opacity:0.5; fill:none" points="
  279.759,1400.1 279.759,1334.71 
  "/>
<polyline clip-path="url(#clip742)" style="stroke:#e26f46; stroke-linecap:butt; stroke-linejoin:round; stroke-width:4; stroke-opacity:0.5; fill:none" points="
  434.576,1400.1 434.576,1138.53 
  "/>
<polyline clip-path="url(#clip742)" style="stroke:#e26f46; stroke-linecap:butt; stroke-linejoin:round; stroke-width:4; stroke-opacity:0.5; fill:none" points="
  589.392,1400.1 589.392,876.955 
  "/>
<polyline clip-path="url(#clip742)" style="stroke:#e26f46; stroke-linecap:butt; stroke-linejoin:round; stroke-width:4; stroke-opacity:0.5; fill:none" points="
  744.209,1400.1 744.209,702.575 
  "/>
<polyline clip-path="url(#clip742)" style="stroke:#e26f46; stroke-linecap:butt; stroke-linejoin:round; stroke-width:4; stroke-opacity:0.5; fill:none" points="
  899.026,1400.1 899.026,702.575 
  "/>
<polyline clip-path="url(#clip742)" style="stroke:#e26f46; stroke-linecap:butt; stroke-linejoin:round; stroke-width:4; stroke-opacity:0.5; fill:none" points="
  1053.84,1400.1 1053.84,842.079 
  "/>
<polyline clip-path="url(#clip742)" style="stroke:#e26f46; stroke-linecap:butt; stroke-linejoin:round; stroke-width:4; stroke-opacity:0.5; fill:none" points="
  1208.66,1400.1 1208.66,1028.09 
  "/>
<polyline clip-path="url(#clip742)" style="stroke:#e26f46; stroke-linecap:butt; stroke-linejoin:round; stroke-width:4; stroke-opacity:0.5; fill:none" points="
  1363.48,1400.1 1363.48,1187.52 
  "/>
<polyline clip-path="url(#clip742)" style="stroke:#e26f46; stroke-linecap:butt; stroke-linejoin:round; stroke-width:4; stroke-opacity:0.5; fill:none" points="
  1518.29,1400.1 1518.29,1293.81 
  "/>
<polyline clip-path="url(#clip742)" style="stroke:#e26f46; stroke-linecap:butt; stroke-linejoin:round; stroke-width:4; stroke-opacity:0.5; fill:none" points="
  1673.11,1400.1 1673.11,1352.86 
  "/>
<polyline clip-path="url(#clip742)" style="stroke:#e26f46; stroke-linecap:butt; stroke-linejoin:round; stroke-width:4; stroke-opacity:0.5; fill:none" points="
  1827.93,1400.1 1827.93,1381.2 
  "/>
<polyline clip-path="url(#clip742)" style="stroke:#e26f46; stroke-linecap:butt; stroke-linejoin:round; stroke-width:4; stroke-opacity:0.5; fill:none" points="
  1982.74,1400.1 1982.74,1393.23 
  "/>
<polyline clip-path="url(#clip742)" style="stroke:#e26f46; stroke-linecap:butt; stroke-linejoin:round; stroke-width:4; stroke-opacity:0.5; fill:none" points="
  2137.56,1400.1 2137.56,1397.81 
  "/>
<polyline clip-path="url(#clip742)" style="stroke:#e26f46; stroke-linecap:butt; stroke-linejoin:round; stroke-width:4; stroke-opacity:0.5; fill:none" points="
  2292.38,1400.1 2292.38,1399.39 
  "/>
<path clip-path="url(#clip740)" d="
M1929.63 194.387 L2281.64 194.387 L2281.64 93.6527 L1929.63 93.6527  Z
  " fill="#ffffff" fill-rule="evenodd" fill-opacity="1"/>
<polyline clip-path="url(#clip740)" style="stroke:#000000; stroke-linecap:butt; stroke-linejoin:round; stroke-width:4; stroke-opacity:1; fill:none" points="
  1929.63,194.387 2281.64,194.387 2281.64,93.6527 1929.63,93.6527 1929.63,194.387 
  "/>
<circle clip-path="url(#clip740)" cx="2024.44" cy="127.231" r="23" fill="#009af9" fill-rule="evenodd" fill-opacity="0.5" stroke="#000000" stroke-opacity="0.5" stroke-width="5.12"/>
<path clip-path="url(#clip740)" d="M2142.99 143.442 Q2142.99 143.887 2142.47 143.934 L2141.42 143.934 Q2140.34 143.934 2139.87 143.77 Q2139.4 143.606 2138.86 142.856 Q2138.54 142.388 2137.72 140.209 Q2136.92 138.008 2135.75 134.682 Q2134.6 131.356 2133.83 129.388 L2122.28 143.02 Q2121.48 144.027 2120.69 144.027 Q2120.1 144.027 2119.68 143.629 Q2119.26 143.231 2119.26 142.622 Q2119.26 142.177 2119.42 141.919 Q2119.61 141.662 2120.1 141.146 L2133.36 128.006 L2128.7 114.96 Q2127.81 112.548 2127.29 111.939 Q2126.8 111.33 2125.58 111.119 Q2125.14 111.002 2125.14 110.627 Q2125.14 110.112 2126 110.112 Q2130.64 110.112 2131.86 113.508 L2141.65 140.795 Q2142.19 142.364 2142.75 143.02 Q2142.99 143.325 2142.99 143.442 Z" fill="#000000" fill-rule="evenodd" fill-opacity="1" /><path clip-path="url(#clip740)" d="M2160.23 136.11 Q2160.28 135.525 2161.19 135.525 L2190.59 135.525 Q2191.97 135.525 2191.99 136.064 Q2191.99 136.649 2190.68 136.626 L2161.52 136.626 Q2160.23 136.649 2160.23 136.11 M2160.23 126.742 Q2160.23 126.156 2161.24 126.179 L2190.54 126.179 Q2191.97 126.179 2191.99 126.742 Q2191.99 127.28 2190.78 127.28 L2161.19 127.28 Q2160.23 127.28 2160.23 126.742 Z" fill="#000000" fill-rule="evenodd" fill-opacity="1" /><path clip-path="url(#clip740)" d="M2210.49 116.014 L2210.49 114.515 Q2216.25 114.515 2219.22 111.447 Q2220.04 111.447 2220.18 111.634 Q2220.32 111.821 2220.32 112.688 L2220.32 139.6 Q2220.32 141.029 2221.03 141.474 Q2221.73 141.919 2224.8 141.919 L2226.32 141.919 L2226.32 143.395 Q2224.63 143.254 2218.54 143.254 Q2212.45 143.254 2210.79 143.395 L2210.79 141.919 L2212.31 141.919 Q2215.33 141.919 2216.06 141.498 Q2216.79 141.053 2216.79 139.6 L2216.79 114.749 Q2214.28 116.014 2210.49 116.014 Z" fill="#000000" fill-rule="evenodd" fill-opacity="1" /><circle clip-path="url(#clip740)" cx="2024.44" cy="160.809" r="23" fill="#e26f46" fill-rule="evenodd" fill-opacity="0.5" stroke="#000000" stroke-opacity="0.5" stroke-width="5.12"/>
<path clip-path="url(#clip740)" d="M2142.99 177.02 Q2142.99 177.465 2142.47 177.512 L2141.42 177.512 Q2140.34 177.512 2139.87 177.348 Q2139.4 177.184 2138.86 176.434 Q2138.54 175.966 2137.72 173.788 Q2136.92 171.586 2135.75 168.26 Q2134.6 164.934 2133.83 162.966 L2122.28 176.598 Q2121.48 177.605 2120.69 177.605 Q2120.1 177.605 2119.68 177.207 Q2119.26 176.809 2119.26 176.2 Q2119.26 175.755 2119.42 175.497 Q2119.61 175.24 2120.1 174.724 L2133.36 161.584 L2128.7 148.538 Q2127.81 146.126 2127.29 145.517 Q2126.8 144.908 2125.58 144.697 Q2125.14 144.58 2125.14 144.205 Q2125.14 143.69 2126 143.69 Q2130.64 143.69 2131.86 147.086 L2141.65 174.373 Q2142.19 175.942 2142.75 176.598 Q2142.99 176.903 2142.99 177.02 Z" fill="#000000" fill-rule="evenodd" fill-opacity="1" /><path clip-path="url(#clip740)" d="M2160.23 169.689 Q2160.28 169.103 2161.19 169.103 L2190.59 169.103 Q2191.97 169.103 2191.99 169.642 Q2191.99 170.227 2190.68 170.204 L2161.52 170.204 Q2160.23 170.227 2160.23 169.689 M2160.23 160.32 Q2160.23 159.734 2161.24 159.758 L2190.54 159.758 Q2191.97 159.758 2191.99 160.32 Q2191.99 160.858 2190.78 160.858 L2161.19 160.858 Q2160.23 160.858 2160.23 160.32 Z" fill="#000000" fill-rule="evenodd" fill-opacity="1" /><path clip-path="url(#clip740)" d="M2210.49 169.056 L2210.49 167.581 L2225.22 145.072 Q2225.59 144.486 2226.18 144.509 Q2226.72 144.509 2226.83 144.72 Q2226.95 144.931 2226.95 145.751 L2226.95 167.581 L2231.75 167.581 L2231.75 169.056 L2226.95 169.056 L2226.95 173.225 Q2226.95 174.607 2227.51 175.052 Q2228.1 175.497 2230.58 175.497 L2231.59 175.497 L2231.59 176.973 Q2229.62 176.832 2225.08 176.832 Q2220.56 176.832 2218.59 176.973 L2218.59 175.497 L2219.6 175.497 Q2222.08 175.497 2222.66 175.076 Q2223.25 174.631 2223.25 173.225 L2223.25 169.056 L2210.49 169.056 M2211.84 167.581 L2223.53 167.581 L2223.53 149.686 L2211.84 167.581 Z" fill="#000000" fill-rule="evenodd" fill-opacity="1" /></svg>
