<?xml version="1.0" encoding="utf-8"?>
<svg xmlns="http://www.w3.org/2000/svg" xmlns:xlink="http://www.w3.org/1999/xlink" width="600" height="400" viewBox="0 0 2400 1600">
<defs>
  <clipPath id="clip890">
    <rect x="0" y="0" width="2400" height="1600"/>
  </clipPath>
</defs>
<path clip-path="url(#clip890)" d="
M0 1600 L2400 1600 L2400 0 L0 0  Z
  " fill="#ffffff" fill-rule="evenodd" fill-opacity="1"/>
<defs>
  <clipPath id="clip891">
    <rect x="480" y="0" width="1681" height="1600"/>
  </clipPath>
</defs>
<defs>
  <clipPath id="clip892">
    <rect x="219" y="47" width="2134" height="1393"/>
  </clipPath>
</defs>
<path clip-path="url(#clip890)" d="
M219.866 1439.5 L2352.76 1439.5 L2352.76 47.2441 L219.866 47.2441  Z
  " fill="#ffffff" fill-rule="evenodd" fill-opacity="1"/>
<polyline clip-path="url(#clip892)" style="stroke:#000000; stroke-linecap:butt; stroke-linejoin:round; stroke-width:2; stroke-opacity:0.1; fill:none" points="
  219.866,1439.5 219.866,47.2441 
  "/>
<polyline clip-path="url(#clip892)" style="stroke:#000000; stroke-linecap:butt; stroke-linejoin:round; stroke-width:2; stroke-opacity:0.1; fill:none" points="
  753.089,1439.5 753.089,47.2441 
  "/>
<polyline clip-path="url(#clip892)" style="stroke:#000000; stroke-linecap:butt; stroke-linejoin:round; stroke-width:2; stroke-opacity:0.1; fill:none" points="
  1286.31,1439.5 1286.31,47.2441 
  "/>
<polyline clip-path="url(#clip892)" style="stroke:#000000; stroke-linecap:butt; stroke-linejoin:round; stroke-width:2; stroke-opacity:0.1; fill:none" points="
  1819.53,1439.5 1819.53,47.2441 
  "/>
<polyline clip-path="url(#clip892)" style="stroke:#000000; stroke-linecap:butt; stroke-linejoin:round; stroke-width:2; stroke-opacity:0.1; fill:none" points="
  2352.76,1439.5 2352.76,47.2441 
  "/>
<polyline clip-path="url(#clip890)" style="stroke:#000000; stroke-linecap:butt; stroke-linejoin:round; stroke-width:4; stroke-opacity:1; fill:none" points="
  219.866,1439.5 2352.76,1439.5 
  "/>
<polyline clip-path="url(#clip890)" style="stroke:#000000; stroke-linecap:butt; stroke-linejoin:round; stroke-width:4; stroke-opacity:1; fill:none" points="
  219.866,1439.5 219.866,1420.6 
  "/>
<polyline clip-path="url(#clip890)" style="stroke:#000000; stroke-linecap:butt; stroke-linejoin:round; stroke-width:4; stroke-opacity:1; fill:none" points="
  753.089,1439.5 753.089,1420.6 
  "/>
<polyline clip-path="url(#clip890)" style="stroke:#000000; stroke-linecap:butt; stroke-linejoin:round; stroke-width:4; stroke-opacity:1; fill:none" points="
  1286.31,1439.5 1286.31,1420.6 
  "/>
<polyline clip-path="url(#clip890)" style="stroke:#000000; stroke-linecap:butt; stroke-linejoin:round; stroke-width:4; stroke-opacity:1; fill:none" points="
  1819.53,1439.5 1819.53,1420.6 
  "/>
<polyline clip-path="url(#clip890)" style="stroke:#000000; stroke-linecap:butt; stroke-linejoin:round; stroke-width:4; stroke-opacity:1; fill:none" points="
  2352.76,1439.5 2352.76,1420.6 
  "/>
<path clip-path="url(#clip890)" d="M188.767 1483.35 L218.443 1483.35 L218.443 1487.28 L188.767 1487.28 L188.767 1483.35 Z" fill="#000000" fill-rule="evenodd" fill-opacity="1" /><path clip-path="url(#clip890)" d="M241.382 1469.69 L229.577 1488.14 L241.382 1488.14 L241.382 1469.69 M240.156 1465.61 L246.035 1465.61 L246.035 1488.14 L250.966 1488.14 L250.966 1492.03 L246.035 1492.03 L246.035 1500.17 L241.382 1500.17 L241.382 1492.03 L225.781 1492.03 L225.781 1487.51 L240.156 1465.61 Z" fill="#000000" fill-rule="evenodd" fill-opacity="1" /><path clip-path="url(#clip890)" d="M723.031 1483.35 L752.707 1483.35 L752.707 1487.28 L723.031 1487.28 L723.031 1483.35 Z" fill="#000000" fill-rule="evenodd" fill-opacity="1" /><path clip-path="url(#clip890)" d="M766.827 1496.24 L783.146 1496.24 L783.146 1500.17 L761.202 1500.17 L761.202 1496.24 Q763.864 1493.48 768.447 1488.85 Q773.054 1484.2 774.234 1482.86 Q776.48 1480.34 777.359 1478.6 Q778.262 1476.84 778.262 1475.15 Q778.262 1472.4 776.318 1470.66 Q774.396 1468.92 771.295 1468.92 Q769.096 1468.92 766.642 1469.69 Q764.211 1470.45 761.434 1472 L761.434 1467.28 Q764.258 1466.15 766.711 1465.57 Q769.165 1464.99 771.202 1464.99 Q776.572 1464.99 779.767 1467.67 Q782.961 1470.36 782.961 1474.85 Q782.961 1476.98 782.151 1478.9 Q781.364 1480.8 779.258 1483.39 Q778.679 1484.06 775.577 1487.28 Q772.475 1490.47 766.827 1496.24 Z" fill="#000000" fill-rule="evenodd" fill-opacity="1" /><path clip-path="url(#clip890)" d="M1286.31 1468.69 Q1282.7 1468.69 1280.87 1472.26 Q1279.07 1475.8 1279.07 1482.93 Q1279.07 1490.04 1280.87 1493.6 Q1282.7 1497.14 1286.31 1497.14 Q1289.95 1497.14 1291.75 1493.6 Q1293.58 1490.04 1293.58 1482.93 Q1293.58 1475.8 1291.75 1472.26 Q1289.95 1468.69 1286.31 1468.69 M1286.31 1464.99 Q1292.12 1464.99 1295.18 1469.6 Q1298.26 1474.18 1298.26 1482.93 Q1298.26 1491.66 1295.18 1496.26 Q1292.12 1500.85 1286.31 1500.85 Q1280.5 1500.85 1277.42 1496.26 Q1274.37 1491.66 1274.37 1482.93 Q1274.37 1474.18 1277.42 1469.6 Q1280.5 1464.99 1286.31 1464.99 Z" fill="#000000" fill-rule="evenodd" fill-opacity="1" /><path clip-path="url(#clip890)" d="M1814.19 1496.24 L1830.51 1496.24 L1830.51 1500.17 L1808.56 1500.17 L1808.56 1496.24 Q1811.22 1493.48 1815.81 1488.85 Q1820.41 1484.2 1821.59 1482.86 Q1823.84 1480.34 1824.72 1478.6 Q1825.62 1476.84 1825.62 1475.15 Q1825.62 1472.4 1823.68 1470.66 Q1821.76 1468.92 1818.65 1468.92 Q1816.45 1468.92 1814 1469.69 Q1811.57 1470.45 1808.79 1472 L1808.79 1467.28 Q1811.62 1466.15 1814.07 1465.57 Q1816.52 1464.99 1818.56 1464.99 Q1823.93 1464.99 1827.13 1467.67 Q1830.32 1470.36 1830.32 1474.85 Q1830.32 1476.98 1829.51 1478.9 Q1828.72 1480.8 1826.62 1483.39 Q1826.04 1484.06 1822.94 1487.28 Q1819.83 1490.47 1814.19 1496.24 Z" fill="#000000" fill-rule="evenodd" fill-opacity="1" /><path clip-path="url(#clip890)" d="M2355.77 1469.69 L2343.96 1488.14 L2355.77 1488.14 L2355.77 1469.69 M2354.54 1465.61 L2360.42 1465.61 L2360.42 1488.14 L2365.35 1488.14 L2365.35 1492.03 L2360.42 1492.03 L2360.42 1500.17 L2355.77 1500.17 L2355.77 1492.03 L2340.16 1492.03 L2340.16 1487.51 L2354.54 1465.61 Z" fill="#000000" fill-rule="evenodd" fill-opacity="1" /><path clip-path="url(#clip890)" d="M1298.25 1535.75 Q1298.25 1541.16 1296.51 1547.24 Q1294.8 1553.3 1292.09 1558.19 Q1289.39 1563.06 1285.85 1566.28 Q1282.3 1569.47 1278.92 1569.47 Q1276.76 1569.47 1275.15 1568.27 Q1273.58 1567.05 1272.71 1565.02 Q1271.84 1562.96 1271.42 1560.71 Q1271 1558.42 1271 1555.94 Q1271 1552.24 1271.8 1548.21 Q1272.61 1544.15 1273.96 1540.48 Q1275.32 1536.78 1277.22 1533.43 Q1279.12 1530.05 1281.21 1527.6 Q1283.33 1525.12 1285.72 1523.67 Q1288.1 1522.22 1290.32 1522.22 Q1291.93 1522.22 1293.22 1522.93 Q1294.54 1523.6 1295.38 1524.8 Q1296.22 1525.96 1296.8 1527.34 Q1297.41 1528.73 1297.7 1530.34 Q1297.99 1531.91 1298.12 1533.23 Q1298.25 1534.52 1298.25 1535.75 M1293.9 1531.66 Q1293.9 1530.01 1293.77 1528.79 Q1293.64 1527.53 1293.29 1526.28 Q1292.93 1525.02 1292.16 1524.35 Q1291.42 1523.67 1290.26 1523.67 Q1286.88 1523.67 1283.08 1530.59 Q1281.85 1532.75 1280.76 1535.68 Q1279.66 1538.61 1279.28 1540 Q1278.89 1541.38 1277.99 1544.8 L1291.77 1544.8 Q1293.9 1536 1293.9 1531.66 M1291.19 1546.89 L1277.47 1546.89 Q1275.35 1554.94 1275.35 1559.96 Q1275.35 1564.34 1276.25 1566.18 Q1277.18 1567.98 1278.92 1567.98 Q1280.92 1567.98 1282.79 1565.99 Q1284.66 1563.96 1286.56 1560.29 Q1289.07 1555.52 1291.19 1546.89 Z" fill="#000000" fill-rule="evenodd" fill-opacity="1" /><polyline clip-path="url(#clip892)" style="stroke:#000000; stroke-linecap:butt; stroke-linejoin:round; stroke-width:2; stroke-opacity:0.1; fill:none" points="
  219.866,1400.11 2352.76,1400.11 
  "/>
<polyline clip-path="url(#clip892)" style="stroke:#000000; stroke-linecap:butt; stroke-linejoin:round; stroke-width:2; stroke-opacity:0.1; fill:none" points="
  219.866,1068.04 2352.76,1068.04 
  "/>
<polyline clip-path="url(#clip892)" style="stroke:#000000; stroke-linecap:butt; stroke-linejoin:round; stroke-width:2; stroke-opacity:0.1; fill:none" points="
  219.866,735.978 2352.76,735.978 
  "/>
<polyline clip-path="url(#clip892)" style="stroke:#000000; stroke-linecap:butt; stroke-linejoin:round; stroke-width:2; stroke-opacity:0.1; fill:none" points="
  219.866,403.912 2352.76,403.912 
  "/>
<polyline clip-path="url(#clip892)" style="stroke:#000000; stroke-linecap:butt; stroke-linejoin:round; stroke-width:2; stroke-opacity:0.1; fill:none" points="
  219.866,71.8473 2352.76,71.8473 
  "/>
<polyline clip-path="url(#clip890)" style="stroke:#000000; stroke-linecap:butt; stroke-linejoin:round; stroke-width:4; stroke-opacity:1; fill:none" points="
  219.866,1439.5 219.866,47.2441 
  "/>
<polyline clip-path="url(#clip890)" style="stroke:#000000; stroke-linecap:butt; stroke-linejoin:round; stroke-width:4; stroke-opacity:1; fill:none" points="
  219.866,1400.11 238.764,1400.11 
  "/>
<polyline clip-path="url(#clip890)" style="stroke:#000000; stroke-linecap:butt; stroke-linejoin:round; stroke-width:4; stroke-opacity:1; fill:none" points="
  219.866,1068.04 238.764,1068.04 
  "/>
<polyline clip-path="url(#clip890)" style="stroke:#000000; stroke-linecap:butt; stroke-linejoin:round; stroke-width:4; stroke-opacity:1; fill:none" points="
  219.866,735.978 238.764,735.978 
  "/>
<polyline clip-path="url(#clip890)" style="stroke:#000000; stroke-linecap:butt; stroke-linejoin:round; stroke-width:4; stroke-opacity:1; fill:none" points="
  219.866,403.912 238.764,403.912 
  "/>
<polyline clip-path="url(#clip890)" style="stroke:#000000; stroke-linecap:butt; stroke-linejoin:round; stroke-width:4; stroke-opacity:1; fill:none" points="
  219.866,71.8473 238.764,71.8473 
  "/>
<path clip-path="url(#clip890)" d="M126.691 1385.91 Q123.08 1385.91 121.251 1389.47 Q119.445 1393.01 119.445 1400.14 Q119.445 1407.25 121.251 1410.81 Q123.08 1414.36 126.691 1414.36 Q130.325 1414.36 132.13 1410.81 Q133.959 1407.25 133.959 1400.14 Q133.959 1393.01 132.13 1389.47 Q130.325 1385.91 126.691 1385.91 M126.691 1382.2 Q132.501 1382.2 135.556 1386.81 Q138.635 1391.39 138.635 1400.14 Q138.635 1408.87 135.556 1413.48 Q132.501 1418.06 126.691 1418.06 Q120.88 1418.06 117.802 1413.48 Q114.746 1408.87 114.746 1400.14 Q114.746 1391.39 117.802 1386.81 Q120.88 1382.2 126.691 1382.2 Z" fill="#000000" fill-rule="evenodd" fill-opacity="1" /><path clip-path="url(#clip890)" d="M146.853 1411.51 L151.737 1411.51 L151.737 1417.39 L146.853 1417.39 L146.853 1411.51 Z" fill="#000000" fill-rule="evenodd" fill-opacity="1" /><path clip-path="url(#clip890)" d="M171.922 1385.91 Q168.311 1385.91 166.482 1389.47 Q164.677 1393.01 164.677 1400.14 Q164.677 1407.25 166.482 1410.81 Q168.311 1414.36 171.922 1414.36 Q175.556 1414.36 177.362 1410.81 Q179.19 1407.25 179.19 1400.14 Q179.19 1393.01 177.362 1389.47 Q175.556 1385.91 171.922 1385.91 M171.922 1382.2 Q177.732 1382.2 180.788 1386.81 Q183.866 1391.39 183.866 1400.14 Q183.866 1408.87 180.788 1413.48 Q177.732 1418.06 171.922 1418.06 Q166.112 1418.06 163.033 1413.48 Q159.978 1408.87 159.978 1400.14 Q159.978 1391.39 163.033 1386.81 Q166.112 1382.2 171.922 1382.2 Z" fill="#000000" fill-rule="evenodd" fill-opacity="1" /><path clip-path="url(#clip890)" d="M127.917 1053.84 Q124.306 1053.84 122.478 1057.41 Q120.672 1060.95 120.672 1068.08 Q120.672 1075.18 122.478 1078.75 Q124.306 1082.29 127.917 1082.29 Q131.552 1082.29 133.357 1078.75 Q135.186 1075.18 135.186 1068.08 Q135.186 1060.95 133.357 1057.41 Q131.552 1053.84 127.917 1053.84 M127.917 1050.14 Q133.728 1050.14 136.783 1054.74 Q139.862 1059.33 139.862 1068.08 Q139.862 1076.8 136.783 1081.41 Q133.728 1085.99 127.917 1085.99 Q122.107 1085.99 119.029 1081.41 Q115.973 1076.8 115.973 1068.08 Q115.973 1059.33 119.029 1054.74 Q122.107 1050.14 127.917 1050.14 Z" fill="#000000" fill-rule="evenodd" fill-opacity="1" /><path clip-path="url(#clip890)" d="M148.079 1079.44 L152.964 1079.44 L152.964 1085.32 L148.079 1085.32 L148.079 1079.44 Z" fill="#000000" fill-rule="evenodd" fill-opacity="1" /><path clip-path="url(#clip890)" d="M163.959 1081.39 L171.598 1081.39 L171.598 1055.02 L163.288 1056.69 L163.288 1052.43 L171.552 1050.76 L176.227 1050.76 L176.227 1081.39 L183.866 1081.39 L183.866 1085.32 L163.959 1085.32 L163.959 1081.39 Z" fill="#000000" fill-rule="evenodd" fill-opacity="1" /><path clip-path="url(#clip890)" d="M128.288 721.776 Q124.677 721.776 122.848 725.341 Q121.043 728.883 121.043 736.012 Q121.043 743.119 122.848 746.683 Q124.677 750.225 128.288 750.225 Q131.922 750.225 133.728 746.683 Q135.556 743.119 135.556 736.012 Q135.556 728.883 133.728 725.341 Q131.922 721.776 128.288 721.776 M128.288 718.073 Q134.098 718.073 137.154 722.679 Q140.232 727.262 140.232 736.012 Q140.232 744.739 137.154 749.346 Q134.098 753.929 128.288 753.929 Q122.478 753.929 119.399 749.346 Q116.343 744.739 116.343 736.012 Q116.343 727.262 119.399 722.679 Q122.478 718.073 128.288 718.073 Z" fill="#000000" fill-rule="evenodd" fill-opacity="1" /><path clip-path="url(#clip890)" d="M148.45 747.378 L153.334 747.378 L153.334 753.258 L148.45 753.258 L148.45 747.378 Z" fill="#000000" fill-rule="evenodd" fill-opacity="1" /><path clip-path="url(#clip890)" d="M167.547 749.322 L183.866 749.322 L183.866 753.258 L161.922 753.258 L161.922 749.322 Q164.584 746.568 169.167 741.938 Q173.774 737.285 174.954 735.943 Q177.2 733.42 178.079 731.684 Q178.982 729.924 178.982 728.235 Q178.982 725.48 177.038 723.744 Q175.116 722.008 172.014 722.008 Q169.815 722.008 167.362 722.772 Q164.931 723.535 162.153 725.086 L162.153 720.364 Q164.977 719.23 167.431 718.651 Q169.885 718.073 171.922 718.073 Q177.292 718.073 180.487 720.758 Q183.681 723.443 183.681 727.934 Q183.681 730.063 182.871 731.985 Q182.084 733.883 179.977 736.475 Q179.399 737.147 176.297 740.364 Q173.195 743.559 167.547 749.322 Z" fill="#000000" fill-rule="evenodd" fill-opacity="1" /><path clip-path="url(#clip890)" d="M127.339 389.711 Q123.728 389.711 121.899 393.276 Q120.093 396.818 120.093 403.947 Q120.093 411.054 121.899 414.618 Q123.728 418.16 127.339 418.16 Q130.973 418.16 132.779 414.618 Q134.607 411.054 134.607 403.947 Q134.607 396.818 132.779 393.276 Q130.973 389.711 127.339 389.711 M127.339 386.007 Q133.149 386.007 136.204 390.614 Q139.283 395.197 139.283 403.947 Q139.283 412.674 136.204 417.28 Q133.149 421.864 127.339 421.864 Q121.529 421.864 118.45 417.28 Q115.394 412.674 115.394 403.947 Q115.394 395.197 118.45 390.614 Q121.529 386.007 127.339 386.007 Z" fill="#000000" fill-rule="evenodd" fill-opacity="1" /><path clip-path="url(#clip890)" d="M147.501 415.313 L152.385 415.313 L152.385 421.192 L147.501 421.192 L147.501 415.313 Z" fill="#000000" fill-rule="evenodd" fill-opacity="1" /><path clip-path="url(#clip890)" d="M176.737 402.558 Q180.093 403.276 181.968 405.544 Q183.866 407.813 183.866 411.146 Q183.866 416.262 180.348 419.063 Q176.829 421.864 170.348 421.864 Q168.172 421.864 165.857 421.424 Q163.565 421.007 161.112 420.151 L161.112 415.637 Q163.056 416.771 165.371 417.35 Q167.686 417.929 170.209 417.929 Q174.607 417.929 176.899 416.192 Q179.214 414.456 179.214 411.146 Q179.214 408.091 177.061 406.378 Q174.931 404.642 171.112 404.642 L167.084 404.642 L167.084 400.799 L171.297 400.799 Q174.746 400.799 176.575 399.433 Q178.403 398.044 178.403 395.452 Q178.403 392.79 176.505 391.378 Q174.63 389.943 171.112 389.943 Q169.19 389.943 166.991 390.359 Q164.792 390.776 162.153 391.656 L162.153 387.489 Q164.815 386.748 167.13 386.378 Q169.468 386.007 171.528 386.007 Q176.852 386.007 179.954 388.438 Q183.056 390.845 183.056 394.966 Q183.056 397.836 181.413 399.827 Q179.769 401.794 176.737 402.558 Z" fill="#000000" fill-rule="evenodd" fill-opacity="1" /><path clip-path="url(#clip890)" d="M126.205 57.646 Q122.593 57.646 120.765 61.2108 Q118.959 64.7524 118.959 71.882 Q118.959 78.9884 120.765 82.5532 Q122.593 86.0949 126.205 86.0949 Q129.839 86.0949 131.644 82.5532 Q133.473 78.9884 133.473 71.882 Q133.473 64.7524 131.644 61.2108 Q129.839 57.646 126.205 57.646 M126.205 53.9423 Q132.015 53.9423 135.07 58.5487 Q138.149 63.132 138.149 71.882 Q138.149 80.6088 135.07 85.2153 Q132.015 89.7986 126.205 89.7986 Q120.394 89.7986 117.316 85.2153 Q114.26 80.6088 114.26 71.882 Q114.26 63.132 117.316 58.5487 Q120.394 53.9423 126.205 53.9423 Z" fill="#000000" fill-rule="evenodd" fill-opacity="1" /><path clip-path="url(#clip890)" d="M146.366 83.2477 L151.251 83.2477 L151.251 89.1273 L146.366 89.1273 L146.366 83.2477 Z" fill="#000000" fill-rule="evenodd" fill-opacity="1" /><path clip-path="url(#clip890)" d="M174.283 58.6413 L162.477 77.0903 L174.283 77.0903 L174.283 58.6413 M173.056 54.5673 L178.936 54.5673 L178.936 77.0903 L183.866 77.0903 L183.866 80.9792 L178.936 80.9792 L178.936 89.1273 L174.283 89.1273 L174.283 80.9792 L158.681 80.9792 L158.681 76.4653 L173.056 54.5673 Z" fill="#000000" fill-rule="evenodd" fill-opacity="1" /><path clip-path="url(#clip890)" d="M21.7677 856.683 L58.7206 856.683 L58.7206 848.916 Q58.7206 839.081 54.2646 834.53 Q49.8086 829.947 40.1964 829.947 Q30.6479 829.947 26.2237 834.53 Q21.7677 839.081 21.7677 848.916 L21.7677 856.683 M16.4842 863.112 L16.4842 849.903 Q16.4842 836.09 22.2451 829.628 Q27.9743 823.167 40.1964 823.167 Q52.4822 823.167 58.2432 829.66 Q64.0042 836.153 64.0042 849.903 L64.0042 863.112 L16.4842 863.112 Z" fill="#000000" fill-rule="evenodd" fill-opacity="1" /><path clip-path="url(#clip890)" d="M44.7161 782.681 L47.5806 782.681 L47.5806 809.608 Q53.6281 809.226 56.8109 805.98 Q59.9619 802.701 59.9619 796.877 Q59.9619 793.503 59.1344 790.352 Q58.3069 787.169 56.6518 784.05 L62.1899 784.05 Q63.5267 787.201 64.227 790.511 Q64.9272 793.821 64.9272 797.227 Q64.9272 805.757 59.9619 810.754 Q54.9967 815.719 46.5303 815.719 Q37.7774 815.719 32.6531 811.009 Q27.4968 806.266 27.4968 798.245 Q27.4968 791.052 32.1438 786.883 Q36.7589 782.681 44.7161 782.681 M42.9973 788.538 Q38.1912 788.601 35.3266 791.243 Q32.4621 793.853 32.4621 798.182 Q32.4621 803.083 35.2312 806.043 Q38.0002 808.972 43.0292 809.417 L42.9973 788.538 Z" fill="#000000" fill-rule="evenodd" fill-opacity="1" /><path clip-path="url(#clip890)" d="M42.4881 743.437 L64.0042 743.437 L64.0042 749.293 L42.679 749.293 Q37.6183 749.293 35.1038 751.266 Q32.5894 753.24 32.5894 757.187 Q32.5894 761.929 35.6131 764.666 Q38.6368 767.404 43.8567 767.404 L64.0042 767.404 L64.0042 773.292 L28.3562 773.292 L28.3562 767.404 L33.8944 767.404 Q30.6797 765.303 29.0883 762.47 Q27.4968 759.606 27.4968 755.882 Q27.4968 749.739 31.3163 746.588 Q35.1038 743.437 42.4881 743.437 Z" fill="#000000" fill-rule="evenodd" fill-opacity="1" /><path clip-path="url(#clip890)" d="M29.4065 709.03 L34.9447 709.03 Q33.6716 711.513 33.035 714.186 Q32.3984 716.86 32.3984 719.724 Q32.3984 724.085 33.7352 726.281 Q35.072 728.445 37.7456 728.445 Q39.7826 728.445 40.9603 726.886 Q42.1061 725.326 43.1565 720.616 L43.6021 718.61 Q44.9389 712.372 47.3897 709.762 Q49.8086 707.12 54.1691 707.12 Q59.1344 707.12 62.0308 711.067 Q64.9272 714.982 64.9272 721.857 Q64.9272 724.721 64.3543 727.841 Q63.8132 730.928 62.6992 734.366 L56.6518 734.366 Q58.3387 731.119 59.198 727.968 Q60.0256 724.817 60.0256 721.73 Q60.0256 717.592 58.6251 715.364 Q57.1929 713.136 54.6147 713.136 Q52.2276 713.136 50.9545 714.759 Q49.6813 716.351 48.5037 721.793 L48.0262 723.83 Q46.8804 729.273 44.5251 731.692 Q42.138 734.111 38.0002 734.111 Q32.9713 734.111 30.2341 730.546 Q27.4968 726.981 27.4968 720.425 Q27.4968 717.178 27.9743 714.314 Q28.4517 711.449 29.4065 709.03 Z" fill="#000000" fill-rule="evenodd" fill-opacity="1" /><path clip-path="url(#clip890)" d="M28.3562 697.795 L28.3562 691.938 L64.0042 691.938 L64.0042 697.795 L28.3562 697.795 M14.479 697.795 L14.479 691.938 L21.895 691.938 L21.895 697.795 L14.479 697.795 Z" fill="#000000" fill-rule="evenodd" fill-opacity="1" /><path clip-path="url(#clip890)" d="M18.2347 673.891 L28.3562 673.891 L28.3562 661.828 L32.9077 661.828 L32.9077 673.891 L52.2594 673.891 Q56.6199 673.891 57.8613 672.714 Q59.1026 671.504 59.1026 667.844 L59.1026 661.828 L64.0042 661.828 L64.0042 667.844 Q64.0042 674.623 61.4897 677.201 Q58.9434 679.78 52.2594 679.78 L32.9077 679.78 L32.9077 684.076 L28.3562 684.076 L28.3562 679.78 L18.2347 679.78 L18.2347 673.891 Z" fill="#000000" fill-rule="evenodd" fill-opacity="1" /><path clip-path="url(#clip890)" d="M67.3143 639.294 Q73.68 641.776 75.6216 644.132 Q77.5631 646.487 77.5631 650.434 L77.5631 655.112 L72.6615 655.112 L72.6615 651.675 Q72.6615 649.256 71.5157 647.919 Q70.3699 646.582 66.1048 644.959 L63.4312 643.909 L28.3562 658.327 L28.3562 652.121 L56.238 640.981 L28.3562 629.841 L28.3562 623.634 L67.3143 639.294 Z" fill="#000000" fill-rule="evenodd" fill-opacity="1" /><polyline clip-path="url(#clip892)" style="stroke:#009af9; stroke-linecap:butt; stroke-linejoin:round; stroke-width:20; stroke-opacity:1; fill:none" points="
  -17563.1,1400.1 -17195,1400.1 -13790.8,1400.09 -11745,1400.08 -10015.4,1400.06 -8136.45,1400.03 -6404.26,1399.97 -4547.18,1399.79 -2395.56,1398.87 -1917.53,1398.23 
  -1439.51,1397.09 -961.483,1394.79 -483.458,1389.49 -273.865,1384.89 -64.2728,1377.28 40.5236,1371.57 145.32,1363.84 250.116,1353.17 354.912,1338.08 459.709,1316.19 
  564.505,1283.58 616.903,1261.34 669.301,1233.66 721.7,1199.02 774.098,1155.52 826.496,1100.81 878.894,1032.22 905.093,991.86 931.292,947.036 957.491,897.528 
  983.69,843.24 1036.09,720.99 1088.49,584.896 1114.69,514.966 1140.88,446.583 1167.08,382.468 1193.28,325.669 1207.56,298.909 1221.85,275.739 1236.13,256.598 
  1250.41,241.866 1264.69,231.846 1278.98,226.747 1293.26,226.678 1307.54,231.64 1321.82,241.529 1336.1,256.136 1350.39,275.161 1364.67,298.227 1393.23,354.683 
  1421.8,421.59 1478.92,570.975 1536.05,719.789 1564.62,788.657 1593.18,852.365 1621.74,910.474 1650.31,962.914 1678.87,1009.87 1707.44,1051.66 1736,1088.72 
  1764.56,1121.5 1821.69,1175.99 1878.82,1218.44 1935.95,1251.61 1993.08,1277.68 2050.2,1298.31 2107.33,1314.77 2221.59,1338.74 2335.84,1354.74 2450.1,1365.74 
  2564.36,1373.51 2792.87,1383.31 3021.38,1388.87 3481.12,1394.41 3940.86,1396.84 4400.6,1398.07 4860.34,1398.75 6893.55,1399.75 8828.1,1399.96 10839.6,1400.04 
  12532.8,1400.06 14600.1,1400.08 16543.3,1400.09 19656.6,1400.1 20135.7,1400.1 
  "/>
<polyline clip-path="url(#clip892)" style="stroke:#e26f46; stroke-linecap:butt; stroke-linejoin:round; stroke-width:20; stroke-opacity:1; fill:none" points="
  -431.198,1399.76 -397.652,1399.7 -87.4734,1398.33 98.9313,1395.41 256.534,1388.84 342.135,1381.67 427.735,1369.63 506.651,1351.39 585.567,1322.11 627.87,1299.85 
  670.173,1271.52 712.476,1235.75 754.78,1191.03 803.792,1126.02 852.804,1044.84 877.31,997.731 901.817,946.202 926.323,890.337 950.829,830.377 994.385,715.114 
  1037.94,592.276 1081.5,467.929 1125.05,350.056 1144.15,302.751 1163.25,259.253 1182.35,220.334 1201.44,186.722 1220.54,159.065 1239.64,137.918 1258.74,123.713 
  1277.83,116.745 1298.66,117.563 1319.48,127.134 1340.3,145.22 1361.12,171.377 1381.94,204.974 1402.76,245.227 1423.58,291.23 1444.41,341.995 1528.19,573.658 
  1611.97,805.273 1635.12,863.483 1658.28,918.184 1681.44,969.104 1704.6,1016.1 1750.91,1098.31 1797.23,1165.53 1841.3,1217.02 1885.36,1258.05 1929.43,1290.36 
  1973.5,1315.56 2065.14,1351.15 2156.78,1371.7 2233.92,1382.04 2311.06,1388.52 2499.42,1396.02 2676.49,1398.47 2960.16,1399.68 3003.82,1399.76 
  "/>
<polyline clip-path="url(#clip892)" style="stroke:#3da44d; stroke-linecap:butt; stroke-linejoin:round; stroke-width:20; stroke-opacity:1; fill:none" points="
  157.483,1399.19 179.531,1398.95 383.395,1391.42 444.652,1384.7 505.909,1373.35 557.701,1358.22 609.493,1335.75 665.754,1299.88 722.014,1248.18 747.948,1217.87 
  773.882,1182.94 799.815,1143.06 825.749,1098 853.553,1043.77 881.356,983.443 909.16,917.235 936.964,845.64 1001.39,663.886 1065.82,473.78 1094.44,392.486 
  1123.07,316.386 1151.7,247.837 1180.33,189.095 1205.43,147.268 1230.53,115.706 1255.64,95.3039 1280.74,86.6476 1308.11,90.8805 1335.48,109.222 1362.85,141.043 
  1390.22,185.27 1417.75,240.803 1445.28,305.631 1472.82,377.763 1500.35,455.109 1561.23,634.404 1622.11,809.02 1651.07,885.958 1680.04,957.388 1709,1022.62 
  1737.96,1081.29 1768.08,1135.24 1798.19,1182.15 1828.31,1222.39 1858.42,1256.46 1883.77,1280.81 1909.12,1301.59 1934.48,1319.2 1959.83,1334.01 2021.73,1360.58 
  2083.63,1377.08 2141.81,1386.55 2200,1392.26 2293.22,1396.94 2386.45,1398.87 2400.79,1399.04 2415.14,1399.19 
  "/>
<path clip-path="url(#clip890)" d="
M1910.17 224.403 L2281.66 224.403 L2281.66 93.6527 L1910.17 93.6527  Z
  " fill="#ffffff" fill-rule="evenodd" fill-opacity="1"/>
<polyline clip-path="url(#clip890)" style="stroke:#000000; stroke-linecap:butt; stroke-linejoin:round; stroke-width:4; stroke-opacity:1; fill:none" points="
  1910.17,224.403 2281.66,224.403 2281.66,93.6527 1910.17,93.6527 1910.17,224.403 
  "/>
<polyline clip-path="url(#clip890)" style="stroke:#009af9; stroke-linecap:butt; stroke-linejoin:round; stroke-width:4; stroke-opacity:1; fill:none" points="
  1933.87,126.34 2076.06,126.34 
  "/>
<path clip-path="url(#clip890)" d="M2122.34 122.251 Q2122.34 122.462 2122.15 123.188 Q2121.99 123.891 2121.45 125.273 Q2120.93 126.631 2120.13 128.154 Q2119.36 129.653 2117.93 131.55 Q2116.5 133.447 2114.72 135.11 Q2111.37 138.249 2107.79 139.935 Q2104.23 141.622 2101.19 142.161 L2100.51 142.161 Q2099.76 142.161 2099.76 141.575 L2100.27 139.42 L2103.2 127.685 Q2104.11 124.102 2104.11 123.797 Q2104.11 123.516 2104 123.376 Q2103.9 123.212 2103.34 123.095 Q2102.8 122.978 2101.72 122.978 Q2101.28 122.978 2101.07 122.954 Q2100.88 122.931 2100.72 122.814 Q2100.55 122.673 2100.55 122.392 Q2100.55 121.994 2100.72 121.783 Q2100.9 121.549 2101.05 121.502 Q2101.19 121.455 2101.47 121.432 Q2101.87 121.408 2103.2 121.291 Q2104.54 121.151 2105.68 121.057 Q2106.83 120.963 2107.32 120.963 Q2107.6 120.963 2107.77 121.104 Q2107.93 121.221 2107.93 121.361 L2107.95 121.478 L2103.25 140.568 Q2104.98 140.006 2106.69 139.069 Q2108.42 138.132 2110.3 136.586 Q2112.17 135.017 2113.76 133.073 Q2115.36 131.129 2116.76 128.412 Q2118.19 125.671 2119.08 122.532 Q2119.24 121.9 2119.64 121.525 Q2120.06 121.151 2120.37 121.057 Q2120.67 120.963 2120.95 120.963 Q2121.59 120.963 2121.96 121.315 Q2122.34 121.642 2122.34 122.251 Z" fill="#000000" fill-rule="evenodd" fill-opacity="1" /><path clip-path="url(#clip890)" d="M2136.51 134.876 Q2136.56 134.291 2137.47 134.291 L2166.87 134.291 Q2168.25 134.291 2168.27 134.829 Q2168.27 135.415 2166.96 135.391 L2137.8 135.391 Q2136.51 135.415 2136.51 134.876 M2136.51 125.507 Q2136.51 124.922 2137.52 124.945 L2166.82 124.945 Q2168.25 124.945 2168.27 125.507 Q2168.27 126.046 2167.05 126.046 L2137.47 126.046 Q2136.51 126.046 2136.51 125.507 Z" fill="#000000" fill-rule="evenodd" fill-opacity="1" /><path clip-path="url(#clip890)" d="M2186.76 142.161 Q2186.76 141.294 2186.83 141.036 Q2186.93 140.779 2187.3 140.38 L2196.51 130.121 Q2201.54 124.453 2201.54 119.511 Q2201.54 116.302 2199.86 114.007 Q2198.19 111.711 2195.12 111.711 Q2193.02 111.711 2191.24 113 Q2189.46 114.288 2188.64 116.583 Q2188.78 116.536 2189.27 116.536 Q2190.46 116.536 2191.12 117.286 Q2191.8 118.035 2191.8 119.043 Q2191.8 120.331 2190.95 120.963 Q2190.13 121.572 2189.32 121.572 Q2188.99 121.572 2188.54 121.502 Q2188.12 121.432 2187.44 120.776 Q2186.76 120.097 2186.76 118.902 Q2186.76 115.553 2189.29 112.882 Q2191.84 110.212 2195.73 110.212 Q2200.14 110.212 2203.02 112.836 Q2205.92 115.435 2205.92 119.511 Q2205.92 120.94 2205.48 122.251 Q2205.05 123.54 2204.47 124.547 Q2203.91 125.554 2202.36 127.17 Q2200.82 128.786 2199.57 129.934 Q2198.33 131.082 2195.55 133.518 L2190.46 138.46 L2199.11 138.46 Q2203.32 138.46 2203.65 138.085 Q2204.12 137.406 2204.7 133.822 L2205.92 133.822 L2204.56 142.161 L2186.76 142.161 Z" fill="#000000" fill-rule="evenodd" fill-opacity="1" /><polyline clip-path="url(#clip890)" style="stroke:#e26f46; stroke-linecap:butt; stroke-linejoin:round; stroke-width:4; stroke-opacity:1; fill:none" points="
  1933.87,159.028 2076.06,159.028 
  "/>
<path clip-path="url(#clip890)" d="M2122.34 154.415 Q2122.34 154.626 2122.15 155.352 Q2121.99 156.055 2121.45 157.437 Q2120.93 158.795 2120.13 160.318 Q2119.36 161.817 2117.93 163.714 Q2116.5 165.611 2114.72 167.274 Q2111.37 170.413 2107.79 172.099 Q2104.23 173.786 2101.19 174.325 L2100.51 174.325 Q2099.76 174.325 2099.76 173.739 L2100.27 171.584 L2103.2 159.849 Q2104.11 156.266 2104.11 155.961 Q2104.11 155.68 2104 155.54 Q2103.9 155.376 2103.34 155.259 Q2102.8 155.142 2101.72 155.142 Q2101.28 155.142 2101.07 155.118 Q2100.88 155.095 2100.72 154.978 Q2100.55 154.837 2100.55 154.556 Q2100.55 154.158 2100.72 153.947 Q2100.9 153.713 2101.05 153.666 Q2101.19 153.619 2101.47 153.596 Q2101.87 153.572 2103.2 153.455 Q2104.54 153.315 2105.68 153.221 Q2106.83 153.127 2107.32 153.127 Q2107.6 153.127 2107.77 153.268 Q2107.93 153.385 2107.93 153.525 L2107.95 153.643 L2103.25 172.732 Q2104.98 172.17 2106.69 171.233 Q2108.42 170.296 2110.3 168.75 Q2112.17 167.181 2113.76 165.237 Q2115.36 163.293 2116.76 160.576 Q2118.19 157.835 2119.08 154.697 Q2119.24 154.064 2119.64 153.689 Q2120.06 153.315 2120.37 153.221 Q2120.67 153.127 2120.95 153.127 Q2121.59 153.127 2121.96 153.479 Q2122.34 153.807 2122.34 154.415 Z" fill="#000000" fill-rule="evenodd" fill-opacity="1" /><path clip-path="url(#clip890)" d="M2136.51 167.04 Q2136.56 166.455 2137.47 166.455 L2166.87 166.455 Q2168.25 166.455 2168.27 166.993 Q2168.27 167.579 2166.96 167.555 L2137.8 167.555 Q2136.51 167.579 2136.51 167.04 M2136.51 157.671 Q2136.51 157.086 2137.52 157.109 L2166.82 157.109 Q2168.25 157.109 2168.27 157.671 Q2168.27 158.21 2167.05 158.21 L2137.47 158.21 Q2136.51 158.21 2136.51 157.671 Z" fill="#000000" fill-rule="evenodd" fill-opacity="1" /><path clip-path="url(#clip890)" d="M2186.76 167.087 Q2186.76 161.723 2193.67 158.257 Q2190.7 156.242 2190.16 155.657 Q2188.05 153.315 2188.05 150.387 Q2188.05 147.037 2190.58 144.719 Q2193.13 142.376 2196.74 142.376 Q2200.18 142.376 2202.78 144.367 Q2205.38 146.358 2205.38 149.52 Q2205.38 153.97 2199.57 156.969 Q2203.42 159.358 2204.33 160.365 Q2206.67 162.965 2206.67 166.267 Q2206.67 170.109 2203.72 172.755 Q2200.77 175.379 2196.69 175.379 Q2192.71 175.379 2189.74 173.06 Q2186.76 170.741 2186.76 167.087 M2189.15 167.087 Q2189.15 170.062 2191.38 172.053 Q2193.62 174.043 2196.74 174.043 Q2199.76 174.043 2202.01 172.31 Q2204.28 170.577 2204.28 168.001 Q2204.28 166.993 2203.93 166.127 Q2203.6 165.26 2202.92 164.581 Q2202.27 163.878 2201.85 163.574 Q2201.45 163.246 2200.67 162.707 L2194.77 158.983 Q2189.15 162.098 2189.15 167.087 M2190.16 148.513 Q2190.16 150.808 2192.57 152.401 L2198.52 156.242 Q2203.27 153.455 2203.27 149.52 Q2203.27 146.967 2201.33 145.281 Q2199.39 143.571 2196.69 143.571 Q2194.05 143.571 2192.1 144.976 Q2190.16 146.358 2190.16 148.513 Z" fill="#000000" fill-rule="evenodd" fill-opacity="1" /><polyline clip-path="url(#clip890)" style="stroke:#3da44d; stroke-linecap:butt; stroke-linejoin:round; stroke-width:4; stroke-opacity:1; fill:none" points="
  1933.87,191.715 2076.06,191.715 
  "/>
<path clip-path="url(#clip890)" d="M2122.34 187.103 Q2122.34 187.314 2122.15 188.04 Q2121.99 188.743 2121.45 190.124 Q2120.93 191.483 2120.13 193.005 Q2119.36 194.504 2117.93 196.402 Q2116.5 198.299 2114.72 199.962 Q2111.37 203.101 2107.79 204.787 Q2104.23 206.473 2101.19 207.012 L2100.51 207.012 Q2099.76 207.012 2099.76 206.427 L2100.27 204.272 L2103.2 192.537 Q2104.11 188.953 2104.11 188.649 Q2104.11 188.368 2104 188.227 Q2103.9 188.063 2103.34 187.946 Q2102.8 187.829 2101.72 187.829 Q2101.28 187.829 2101.07 187.806 Q2100.88 187.782 2100.72 187.665 Q2100.55 187.525 2100.55 187.244 Q2100.55 186.845 2100.72 186.635 Q2100.9 186.4 2101.05 186.353 Q2101.19 186.307 2101.47 186.283 Q2101.87 186.26 2103.2 186.143 Q2104.54 186.002 2105.68 185.908 Q2106.83 185.815 2107.32 185.815 Q2107.6 185.815 2107.77 185.955 Q2107.93 186.072 2107.93 186.213 L2107.95 186.33 L2103.25 205.419 Q2104.98 204.857 2106.69 203.92 Q2108.42 202.983 2110.3 201.438 Q2112.17 199.868 2113.76 197.924 Q2115.36 195.98 2116.76 193.263 Q2118.19 190.523 2119.08 187.384 Q2119.24 186.752 2119.64 186.377 Q2120.06 186.002 2120.37 185.908 Q2120.67 185.815 2120.95 185.815 Q2121.59 185.815 2121.96 186.166 Q2122.34 186.494 2122.34 187.103 Z" fill="#000000" fill-rule="evenodd" fill-opacity="1" /><path clip-path="url(#clip890)" d="M2136.51 199.728 Q2136.56 199.142 2137.47 199.142 L2166.87 199.142 Q2168.25 199.142 2168.27 199.681 Q2168.27 200.266 2166.96 200.243 L2137.8 200.243 Q2136.51 200.266 2136.51 199.728 M2136.51 190.359 Q2136.51 189.773 2137.52 189.797 L2166.82 189.797 Q2168.25 189.797 2168.27 190.359 Q2168.27 190.897 2167.05 190.897 L2137.47 190.897 Q2136.51 190.897 2136.51 190.359 Z" fill="#000000" fill-rule="evenodd" fill-opacity="1" /><path clip-path="url(#clip890)" d="M2186.76 200.547 Q2186.76 199.119 2187.58 198.439 Q2188.4 197.76 2189.46 197.76 Q2190.56 197.76 2191.33 198.486 Q2192.13 199.189 2192.13 200.43 Q2192.13 201.765 2191.19 202.515 Q2190.28 203.264 2188.96 203.077 Q2190.11 204.998 2192.22 205.864 Q2194.35 206.731 2196.32 206.731 Q2198.38 206.731 2200.04 204.951 Q2201.73 203.171 2201.73 198.814 Q2201.73 195.113 2200.28 192.982 Q2198.85 190.851 2196.01 190.851 L2193.91 190.851 Q2193.18 190.851 2192.97 190.78 Q2192.76 190.71 2192.76 190.312 Q2192.76 189.843 2193.48 189.75 Q2194.21 189.75 2195.36 189.609 Q2198.15 189.515 2199.62 187.103 Q2200.96 184.854 2200.96 181.646 Q2200.96 178.718 2199.55 177.5 Q2198.17 176.258 2196.37 176.258 Q2194.68 176.258 2192.83 176.961 Q2190.98 177.664 2189.97 179.233 Q2192.95 179.233 2192.95 181.646 Q2192.95 182.7 2192.27 183.402 Q2191.61 184.081 2190.51 184.081 Q2189.46 184.081 2188.75 183.426 Q2188.05 182.746 2188.05 181.599 Q2188.05 178.858 2190.49 176.961 Q2192.95 175.064 2196.55 175.064 Q2200.11 175.064 2202.74 176.938 Q2205.38 178.811 2205.38 181.692 Q2205.38 184.527 2203.51 186.845 Q2201.64 189.164 2198.66 190.124 Q2202.31 190.851 2204.49 193.333 Q2206.67 195.793 2206.67 198.814 Q2206.67 202.562 2203.72 205.326 Q2200.77 208.066 2196.46 208.066 Q2192.48 208.066 2189.62 205.911 Q2186.76 203.756 2186.76 200.547 Z" fill="#000000" fill-rule="evenodd" fill-opacity="1" /><path clip-path="url(#clip890)" d="M2210.51 191.67 Q2210.51 184.62 2212.29 180.779 Q2214.77 175.064 2220.63 175.064 Q2221.87 175.064 2223.16 175.415 Q2224.47 175.743 2226.11 177.031 Q2227.77 178.32 2228.78 180.428 Q2230.7 184.503 2230.7 191.67 Q2230.7 198.674 2228.92 202.492 Q2226.32 208.066 2220.58 208.066 Q2218.43 208.066 2216.23 206.965 Q2214.05 205.864 2212.67 203.218 Q2210.51 199.259 2210.51 191.67 M2214.49 191.085 Q2214.49 198.322 2215.01 201.203 Q2215.59 204.318 2217.19 205.677 Q2218.8 207.012 2220.58 207.012 Q2222.5 207.012 2224.1 205.583 Q2225.71 204.131 2226.21 201.016 Q2226.74 197.948 2226.72 191.085 Q2226.72 184.409 2226.25 181.739 Q2225.62 178.624 2223.93 177.383 Q2222.27 176.118 2220.58 176.118 Q2219.95 176.118 2219.27 176.305 Q2218.62 176.493 2217.66 177.031 Q2216.7 177.57 2215.95 178.905 Q2215.22 180.24 2214.87 182.255 Q2214.49 184.854 2214.49 191.085 Z" fill="#000000" fill-rule="evenodd" fill-opacity="1" /></svg>
