<?xml version="1.0" encoding="utf-8"?>
<svg xmlns="http://www.w3.org/2000/svg" xmlns:xlink="http://www.w3.org/1999/xlink" width="600" height="400" viewBox="0 0 2400 1600">
<defs>
  <clipPath id="clip580">
    <rect x="0" y="0" width="2400" height="1600"/>
  </clipPath>
</defs>
<path clip-path="url(#clip580)" d="
M0 1600 L2400 1600 L2400 0 L0 0  Z
  " fill="#ffffff" fill-rule="evenodd" fill-opacity="1"/>
<defs>
  <clipPath id="clip581">
    <rect x="480" y="0" width="1681" height="1600"/>
  </clipPath>
</defs>
<defs>
  <clipPath id="clip582">
    <rect x="81" y="1261" width="701" height="235"/>
  </clipPath>
</defs>
<path clip-path="url(#clip580)" d="
M219.38 1439.5 L2352.76 1439.5 L2352.76 47.2441 L219.38 47.2441  Z
  " fill="#ffffff" fill-rule="evenodd" fill-opacity="1"/>
<defs>
  <clipPath id="clip583">
    <rect x="219" y="47" width="2134" height="1393"/>
  </clipPath>
</defs>
<polyline clip-path="url(#clip583)" style="stroke:#000000; stroke-linecap:butt; stroke-linejoin:round; stroke-width:2; stroke-opacity:0.1; fill:none" points="
  316.352,1439.5 316.352,47.2441 
  "/>
<polyline clip-path="url(#clip583)" style="stroke:#000000; stroke-linecap:butt; stroke-linejoin:round; stroke-width:2; stroke-opacity:0.1; fill:none" points="
  801.21,1439.5 801.21,47.2441 
  "/>
<polyline clip-path="url(#clip583)" style="stroke:#000000; stroke-linecap:butt; stroke-linejoin:round; stroke-width:2; stroke-opacity:0.1; fill:none" points="
  1286.07,1439.5 1286.07,47.2441 
  "/>
<polyline clip-path="url(#clip583)" style="stroke:#000000; stroke-linecap:butt; stroke-linejoin:round; stroke-width:2; stroke-opacity:0.1; fill:none" points="
  1770.93,1439.5 1770.93,47.2441 
  "/>
<polyline clip-path="url(#clip583)" style="stroke:#000000; stroke-linecap:butt; stroke-linejoin:round; stroke-width:2; stroke-opacity:0.1; fill:none" points="
  2255.78,1439.5 2255.78,47.2441 
  "/>
<polyline clip-path="url(#clip580)" style="stroke:#000000; stroke-linecap:butt; stroke-linejoin:round; stroke-width:4; stroke-opacity:1; fill:none" points="
  219.38,1439.5 2352.76,1439.5 
  "/>
<polyline clip-path="url(#clip580)" style="stroke:#000000; stroke-linecap:butt; stroke-linejoin:round; stroke-width:4; stroke-opacity:1; fill:none" points="
  316.352,1439.5 316.352,1420.6 
  "/>
<polyline clip-path="url(#clip580)" style="stroke:#000000; stroke-linecap:butt; stroke-linejoin:round; stroke-width:4; stroke-opacity:1; fill:none" points="
  801.21,1439.5 801.21,1420.6 
  "/>
<polyline clip-path="url(#clip580)" style="stroke:#000000; stroke-linecap:butt; stroke-linejoin:round; stroke-width:4; stroke-opacity:1; fill:none" points="
  1286.07,1439.5 1286.07,1420.6 
  "/>
<polyline clip-path="url(#clip580)" style="stroke:#000000; stroke-linecap:butt; stroke-linejoin:round; stroke-width:4; stroke-opacity:1; fill:none" points="
  1770.93,1439.5 1770.93,1420.6 
  "/>
<polyline clip-path="url(#clip580)" style="stroke:#000000; stroke-linecap:butt; stroke-linejoin:round; stroke-width:4; stroke-opacity:1; fill:none" points="
  2255.78,1439.5 2255.78,1420.6 
  "/>
<path clip-path="url(#clip580)" d="M316.352 1468.69 Q312.741 1468.69 310.912 1472.26 Q309.106 1475.8 309.106 1482.93 Q309.106 1490.04 310.912 1493.6 Q312.741 1497.14 316.352 1497.14 Q319.986 1497.14 321.792 1493.6 Q323.62 1490.04 323.62 1482.93 Q323.62 1475.8 321.792 1472.26 Q319.986 1468.69 316.352 1468.69 M316.352 1464.99 Q322.162 1464.99 325.217 1469.6 Q328.296 1474.18 328.296 1482.93 Q328.296 1491.66 325.217 1496.26 Q322.162 1500.85 316.352 1500.85 Q310.542 1500.85 307.463 1496.26 Q304.407 1491.66 304.407 1482.93 Q304.407 1474.18 307.463 1469.6 Q310.542 1464.99 316.352 1464.99 Z" fill="#000000" fill-rule="evenodd" fill-opacity="1" /><path clip-path="url(#clip580)" d="M791.592 1496.24 L799.231 1496.24 L799.231 1469.87 L790.921 1471.54 L790.921 1467.28 L799.184 1465.61 L803.86 1465.61 L803.86 1496.24 L811.499 1496.24 L811.499 1500.17 L791.592 1500.17 L791.592 1496.24 Z" fill="#000000" fill-rule="evenodd" fill-opacity="1" /><path clip-path="url(#clip580)" d="M1280.72 1496.24 L1297.04 1496.24 L1297.04 1500.17 L1275.1 1500.17 L1275.1 1496.24 Q1277.76 1493.48 1282.34 1488.85 Q1286.95 1484.2 1288.13 1482.86 Q1290.37 1480.34 1291.25 1478.6 Q1292.16 1476.84 1292.16 1475.15 Q1292.16 1472.4 1290.21 1470.66 Q1288.29 1468.92 1285.19 1468.92 Q1282.99 1468.92 1280.54 1469.69 Q1278.11 1470.45 1275.33 1472 L1275.33 1467.28 Q1278.15 1466.15 1280.61 1465.57 Q1283.06 1464.99 1285.1 1464.99 Q1290.47 1464.99 1293.66 1467.67 Q1296.86 1470.36 1296.86 1474.85 Q1296.86 1476.98 1296.04 1478.9 Q1295.26 1480.8 1293.15 1483.39 Q1292.57 1484.06 1289.47 1487.28 Q1286.37 1490.47 1280.72 1496.24 Z" fill="#000000" fill-rule="evenodd" fill-opacity="1" /><path clip-path="url(#clip580)" d="M1775.17 1481.54 Q1778.53 1482.26 1780.41 1484.53 Q1782.3 1486.79 1782.3 1490.13 Q1782.3 1495.24 1778.78 1498.04 Q1775.27 1500.85 1768.78 1500.85 Q1766.61 1500.85 1764.29 1500.41 Q1762 1499.99 1759.55 1499.13 L1759.55 1494.62 Q1761.49 1495.75 1763.81 1496.33 Q1766.12 1496.91 1768.65 1496.91 Q1773.04 1496.91 1775.34 1495.17 Q1777.65 1493.44 1777.65 1490.13 Q1777.65 1487.07 1775.5 1485.36 Q1773.37 1483.62 1769.55 1483.62 L1765.52 1483.62 L1765.52 1479.78 L1769.73 1479.78 Q1773.18 1479.78 1775.01 1478.41 Q1776.84 1477.03 1776.84 1474.43 Q1776.84 1471.77 1774.94 1470.36 Q1773.07 1468.92 1769.55 1468.92 Q1767.63 1468.92 1765.43 1469.34 Q1763.23 1469.76 1760.59 1470.64 L1760.59 1466.47 Q1763.25 1465.73 1765.57 1465.36 Q1767.91 1464.99 1769.97 1464.99 Q1775.29 1464.99 1778.39 1467.42 Q1781.49 1469.83 1781.49 1473.95 Q1781.49 1476.82 1779.85 1478.81 Q1778.21 1480.78 1775.17 1481.54 Z" fill="#000000" fill-rule="evenodd" fill-opacity="1" /><path clip-path="url(#clip580)" d="M2258.79 1469.69 L2246.99 1488.14 L2258.79 1488.14 L2258.79 1469.69 M2257.57 1465.61 L2263.45 1465.61 L2263.45 1488.14 L2268.38 1488.14 L2268.38 1492.03 L2263.45 1492.03 L2263.45 1500.17 L2258.79 1500.17 L2258.79 1492.03 L2243.19 1492.03 L2243.19 1487.51 L2257.57 1465.61 Z" fill="#000000" fill-rule="evenodd" fill-opacity="1" /><path clip-path="url(#clip580)" d="M1298 1535.75 Q1298 1541.16 1296.26 1547.24 Q1294.56 1553.3 1291.85 1558.19 Q1289.15 1563.06 1285.6 1566.28 Q1282.06 1569.47 1278.68 1569.47 Q1276.52 1569.47 1274.91 1568.27 Q1273.33 1567.05 1272.46 1565.02 Q1271.59 1562.96 1271.18 1560.71 Q1270.76 1558.42 1270.76 1555.94 Q1270.76 1552.24 1271.56 1548.21 Q1272.37 1544.15 1273.72 1540.48 Q1275.07 1536.78 1276.97 1533.43 Q1278.87 1530.05 1280.97 1527.6 Q1283.09 1525.12 1285.47 1523.67 Q1287.86 1522.22 1290.08 1522.22 Q1291.69 1522.22 1292.98 1522.93 Q1294.3 1523.6 1295.14 1524.8 Q1295.97 1525.96 1296.55 1527.34 Q1297.17 1528.73 1297.46 1530.34 Q1297.75 1531.91 1297.87 1533.23 Q1298 1534.52 1298 1535.75 M1293.66 1531.66 Q1293.66 1530.01 1293.53 1528.79 Q1293.4 1527.53 1293.04 1526.28 Q1292.69 1525.02 1291.92 1524.35 Q1291.18 1523.67 1290.02 1523.67 Q1286.63 1523.67 1282.83 1530.59 Q1281.61 1532.75 1280.52 1535.68 Q1279.42 1538.61 1279.03 1540 Q1278.65 1541.38 1277.75 1544.8 L1291.53 1544.8 Q1293.66 1536 1293.66 1531.66 M1290.95 1546.89 L1277.23 1546.89 Q1275.1 1554.94 1275.1 1559.96 Q1275.1 1564.34 1276.01 1566.18 Q1276.94 1567.98 1278.68 1567.98 Q1280.68 1567.98 1282.54 1565.99 Q1284.41 1563.96 1286.31 1560.29 Q1288.82 1555.52 1290.95 1546.89 Z" fill="#000000" fill-rule="evenodd" fill-opacity="1" /><polyline clip-path="url(#clip583)" style="stroke:#000000; stroke-linecap:butt; stroke-linejoin:round; stroke-width:2; stroke-opacity:0.1; fill:none" points="
  219.38,1400.1 2352.76,1400.1 
  "/>
<polyline clip-path="url(#clip583)" style="stroke:#000000; stroke-linecap:butt; stroke-linejoin:round; stroke-width:2; stroke-opacity:0.1; fill:none" points="
  219.38,954.53 2352.76,954.53 
  "/>
<polyline clip-path="url(#clip583)" style="stroke:#000000; stroke-linecap:butt; stroke-linejoin:round; stroke-width:2; stroke-opacity:0.1; fill:none" points="
  219.38,508.961 2352.76,508.961 
  "/>
<polyline clip-path="url(#clip583)" style="stroke:#000000; stroke-linecap:butt; stroke-linejoin:round; stroke-width:2; stroke-opacity:0.1; fill:none" points="
  219.38,63.392 2352.76,63.392 
  "/>
<polyline clip-path="url(#clip580)" style="stroke:#000000; stroke-linecap:butt; stroke-linejoin:round; stroke-width:4; stroke-opacity:1; fill:none" points="
  219.38,1439.5 219.38,47.2441 
  "/>
<polyline clip-path="url(#clip580)" style="stroke:#000000; stroke-linecap:butt; stroke-linejoin:round; stroke-width:4; stroke-opacity:1; fill:none" points="
  219.38,1400.1 238.278,1400.1 
  "/>
<polyline clip-path="url(#clip580)" style="stroke:#000000; stroke-linecap:butt; stroke-linejoin:round; stroke-width:4; stroke-opacity:1; fill:none" points="
  219.38,954.53 238.278,954.53 
  "/>
<polyline clip-path="url(#clip580)" style="stroke:#000000; stroke-linecap:butt; stroke-linejoin:round; stroke-width:4; stroke-opacity:1; fill:none" points="
  219.38,508.961 238.278,508.961 
  "/>
<polyline clip-path="url(#clip580)" style="stroke:#000000; stroke-linecap:butt; stroke-linejoin:round; stroke-width:4; stroke-opacity:1; fill:none" points="
  219.38,63.392 238.278,63.392 
  "/>
<path clip-path="url(#clip580)" d="M126.205 1385.9 Q122.593 1385.9 120.765 1389.46 Q118.959 1393 118.959 1400.13 Q118.959 1407.24 120.765 1410.8 Q122.593 1414.35 126.205 1414.35 Q129.839 1414.35 131.644 1410.8 Q133.473 1407.24 133.473 1400.13 Q133.473 1393 131.644 1389.46 Q129.839 1385.9 126.205 1385.9 M126.205 1382.19 Q132.015 1382.19 135.07 1386.8 Q138.149 1391.38 138.149 1400.13 Q138.149 1408.86 135.07 1413.47 Q132.015 1418.05 126.205 1418.05 Q120.394 1418.05 117.316 1413.47 Q114.26 1408.86 114.26 1400.13 Q114.26 1391.38 117.316 1386.8 Q120.394 1382.19 126.205 1382.19 Z" fill="#000000" fill-rule="evenodd" fill-opacity="1" /><path clip-path="url(#clip580)" d="M146.366 1411.5 L151.251 1411.5 L151.251 1417.38 L146.366 1417.38 L146.366 1411.5 Z" fill="#000000" fill-rule="evenodd" fill-opacity="1" /><path clip-path="url(#clip580)" d="M171.436 1385.9 Q167.825 1385.9 165.996 1389.46 Q164.19 1393 164.19 1400.13 Q164.19 1407.24 165.996 1410.8 Q167.825 1414.35 171.436 1414.35 Q175.07 1414.35 176.876 1410.8 Q178.704 1407.24 178.704 1400.13 Q178.704 1393 176.876 1389.46 Q175.07 1385.9 171.436 1385.9 M171.436 1382.19 Q177.246 1382.19 180.301 1386.8 Q183.38 1391.38 183.38 1400.13 Q183.38 1408.86 180.301 1413.47 Q177.246 1418.05 171.436 1418.05 Q165.626 1418.05 162.547 1413.47 Q159.491 1408.86 159.491 1400.13 Q159.491 1391.38 162.547 1386.8 Q165.626 1382.19 171.436 1382.19 Z" fill="#000000" fill-rule="evenodd" fill-opacity="1" /><path clip-path="url(#clip580)" d="M127.2 940.328 Q123.589 940.328 121.76 943.893 Q119.955 947.435 119.955 954.564 Q119.955 961.671 121.76 965.236 Q123.589 968.777 127.2 968.777 Q130.834 968.777 132.64 965.236 Q134.468 961.671 134.468 954.564 Q134.468 947.435 132.64 943.893 Q130.834 940.328 127.2 940.328 M127.2 936.625 Q133.01 936.625 136.066 941.231 Q139.144 945.814 139.144 954.564 Q139.144 963.291 136.066 967.898 Q133.01 972.481 127.2 972.481 Q121.39 972.481 118.311 967.898 Q115.256 963.291 115.256 954.564 Q115.256 945.814 118.311 941.231 Q121.39 936.625 127.2 936.625 Z" fill="#000000" fill-rule="evenodd" fill-opacity="1" /><path clip-path="url(#clip580)" d="M147.362 965.93 L152.246 965.93 L152.246 971.81 L147.362 971.81 L147.362 965.93 Z" fill="#000000" fill-rule="evenodd" fill-opacity="1" /><path clip-path="url(#clip580)" d="M162.477 937.25 L180.834 937.25 L180.834 941.185 L166.76 941.185 L166.76 949.657 Q167.778 949.31 168.797 949.148 Q169.815 948.963 170.834 948.963 Q176.621 948.963 180.001 952.134 Q183.38 955.305 183.38 960.722 Q183.38 966.3 179.908 969.402 Q176.436 972.481 170.116 972.481 Q167.94 972.481 165.672 972.111 Q163.427 971.74 161.019 970.999 L161.019 966.3 Q163.102 967.435 165.325 967.99 Q167.547 968.546 170.024 968.546 Q174.028 968.546 176.366 966.439 Q178.704 964.333 178.704 960.722 Q178.704 957.111 176.366 955.004 Q174.028 952.898 170.024 952.898 Q168.149 952.898 166.274 953.314 Q164.422 953.731 162.477 954.611 L162.477 937.25 Z" fill="#000000" fill-rule="evenodd" fill-opacity="1" /><path clip-path="url(#clip580)" d="M117.015 522.306 L124.654 522.306 L124.654 495.94 L116.343 497.607 L116.343 493.347 L124.607 491.681 L129.283 491.681 L129.283 522.306 L136.922 522.306 L136.922 526.241 L117.015 526.241 L117.015 522.306 Z" fill="#000000" fill-rule="evenodd" fill-opacity="1" /><path clip-path="url(#clip580)" d="M146.366 520.361 L151.251 520.361 L151.251 526.241 L146.366 526.241 L146.366 520.361 Z" fill="#000000" fill-rule="evenodd" fill-opacity="1" /><path clip-path="url(#clip580)" d="M171.436 494.759 Q167.825 494.759 165.996 498.324 Q164.19 501.866 164.19 508.996 Q164.19 516.102 165.996 519.667 Q167.825 523.208 171.436 523.208 Q175.07 523.208 176.876 519.667 Q178.704 516.102 178.704 508.996 Q178.704 501.866 176.876 498.324 Q175.07 494.759 171.436 494.759 M171.436 491.056 Q177.246 491.056 180.301 495.662 Q183.38 500.246 183.38 508.996 Q183.38 517.722 180.301 522.329 Q177.246 526.912 171.436 526.912 Q165.626 526.912 162.547 522.329 Q159.491 517.722 159.491 508.996 Q159.491 500.246 162.547 495.662 Q165.626 491.056 171.436 491.056 Z" fill="#000000" fill-rule="evenodd" fill-opacity="1" /><path clip-path="url(#clip580)" d="M118.01 76.7368 L125.649 76.7368 L125.649 50.3712 L117.339 52.0379 L117.339 47.7787 L125.603 46.112 L130.279 46.112 L130.279 76.7368 L137.917 76.7368 L137.917 80.672 L118.01 80.672 L118.01 76.7368 Z" fill="#000000" fill-rule="evenodd" fill-opacity="1" /><path clip-path="url(#clip580)" d="M147.362 74.7924 L152.246 74.7924 L152.246 80.672 L147.362 80.672 L147.362 74.7924 Z" fill="#000000" fill-rule="evenodd" fill-opacity="1" /><path clip-path="url(#clip580)" d="M162.477 46.112 L180.834 46.112 L180.834 50.0472 L166.76 50.0472 L166.76 58.5193 Q167.778 58.1721 168.797 58.0101 Q169.815 57.8249 170.834 57.8249 Q176.621 57.8249 180.001 60.9962 Q183.38 64.1675 183.38 69.5841 Q183.38 75.1628 179.908 78.2646 Q176.436 81.3433 170.116 81.3433 Q167.94 81.3433 165.672 80.9729 Q163.427 80.6026 161.019 79.8618 L161.019 75.1628 Q163.102 76.297 165.325 76.8526 Q167.547 77.4081 170.024 77.4081 Q174.028 77.4081 176.366 75.3017 Q178.704 73.1952 178.704 69.5841 Q178.704 65.973 176.366 63.8665 Q174.028 61.7601 170.024 61.7601 Q168.149 61.7601 166.274 62.1767 Q164.422 62.5934 162.477 63.473 L162.477 46.112 Z" fill="#000000" fill-rule="evenodd" fill-opacity="1" /><path clip-path="url(#clip580)" d="M21.7677 856.683 L58.7206 856.683 L58.7206 848.916 Q58.7206 839.081 54.2646 834.53 Q49.8086 829.947 40.1964 829.947 Q30.6479 829.947 26.2237 834.53 Q21.7677 839.081 21.7677 848.916 L21.7677 856.683 M16.4842 863.112 L16.4842 849.903 Q16.4842 836.09 22.2451 829.628 Q27.9743 823.167 40.1964 823.167 Q52.4822 823.167 58.2432 829.66 Q64.0042 836.153 64.0042 849.903 L64.0042 863.112 L16.4842 863.112 Z" fill="#000000" fill-rule="evenodd" fill-opacity="1" /><path clip-path="url(#clip580)" d="M44.7161 782.681 L47.5806 782.681 L47.5806 809.608 Q53.6281 809.226 56.8109 805.98 Q59.9619 802.701 59.9619 796.877 Q59.9619 793.503 59.1344 790.352 Q58.3069 787.169 56.6518 784.05 L62.1899 784.05 Q63.5267 787.201 64.227 790.511 Q64.9272 793.821 64.9272 797.227 Q64.9272 805.757 59.9619 810.754 Q54.9967 815.719 46.5303 815.719 Q37.7774 815.719 32.6531 811.009 Q27.4968 806.266 27.4968 798.245 Q27.4968 791.052 32.1438 786.883 Q36.7589 782.681 44.7161 782.681 M42.9973 788.538 Q38.1912 788.601 35.3266 791.243 Q32.4621 793.853 32.4621 798.182 Q32.4621 803.083 35.2312 806.043 Q38.0002 808.972 43.0292 809.417 L42.9973 788.538 Z" fill="#000000" fill-rule="evenodd" fill-opacity="1" /><path clip-path="url(#clip580)" d="M42.4881 743.437 L64.0042 743.437 L64.0042 749.293 L42.679 749.293 Q37.6183 749.293 35.1038 751.266 Q32.5894 753.24 32.5894 757.187 Q32.5894 761.929 35.6131 764.666 Q38.6368 767.404 43.8567 767.404 L64.0042 767.404 L64.0042 773.292 L28.3562 773.292 L28.3562 767.404 L33.8944 767.404 Q30.6797 765.303 29.0883 762.47 Q27.4968 759.606 27.4968 755.882 Q27.4968 749.739 31.3163 746.588 Q35.1038 743.437 42.4881 743.437 Z" fill="#000000" fill-rule="evenodd" fill-opacity="1" /><path clip-path="url(#clip580)" d="M29.4065 709.03 L34.9447 709.03 Q33.6716 711.513 33.035 714.186 Q32.3984 716.86 32.3984 719.724 Q32.3984 724.085 33.7352 726.281 Q35.072 728.445 37.7456 728.445 Q39.7826 728.445 40.9603 726.886 Q42.1061 725.326 43.1565 720.616 L43.6021 718.61 Q44.9389 712.372 47.3897 709.762 Q49.8086 707.12 54.1691 707.12 Q59.1344 707.12 62.0308 711.067 Q64.9272 714.982 64.9272 721.857 Q64.9272 724.721 64.3543 727.841 Q63.8132 730.928 62.6992 734.366 L56.6518 734.366 Q58.3387 731.119 59.198 727.968 Q60.0256 724.817 60.0256 721.73 Q60.0256 717.592 58.6251 715.364 Q57.1929 713.136 54.6147 713.136 Q52.2276 713.136 50.9545 714.759 Q49.6813 716.351 48.5037 721.793 L48.0262 723.83 Q46.8804 729.273 44.5251 731.692 Q42.138 734.111 38.0002 734.111 Q32.9713 734.111 30.2341 730.546 Q27.4968 726.981 27.4968 720.425 Q27.4968 717.178 27.9743 714.314 Q28.4517 711.449 29.4065 709.03 Z" fill="#000000" fill-rule="evenodd" fill-opacity="1" /><path clip-path="url(#clip580)" d="M28.3562 697.795 L28.3562 691.938 L64.0042 691.938 L64.0042 697.795 L28.3562 697.795 M14.479 697.795 L14.479 691.938 L21.895 691.938 L21.895 697.795 L14.479 697.795 Z" fill="#000000" fill-rule="evenodd" fill-opacity="1" /><path clip-path="url(#clip580)" d="M18.2347 673.891 L28.3562 673.891 L28.3562 661.828 L32.9077 661.828 L32.9077 673.891 L52.2594 673.891 Q56.6199 673.891 57.8613 672.714 Q59.1026 671.504 59.1026 667.844 L59.1026 661.828 L64.0042 661.828 L64.0042 667.844 Q64.0042 674.623 61.4897 677.201 Q58.9434 679.78 52.2594 679.78 L32.9077 679.78 L32.9077 684.076 L28.3562 684.076 L28.3562 679.78 L18.2347 679.78 L18.2347 673.891 Z" fill="#000000" fill-rule="evenodd" fill-opacity="1" /><path clip-path="url(#clip580)" d="M67.3143 639.294 Q73.68 641.776 75.6216 644.132 Q77.5631 646.487 77.5631 650.434 L77.5631 655.112 L72.6615 655.112 L72.6615 651.675 Q72.6615 649.256 71.5157 647.919 Q70.3699 646.582 66.1048 644.959 L63.4312 643.909 L28.3562 658.327 L28.3562 652.121 L56.238 640.981 L28.3562 629.841 L28.3562 623.634 L67.3143 639.294 Z" fill="#000000" fill-rule="evenodd" fill-opacity="1" /><polyline clip-path="url(#clip583)" style="stroke:#009af9; stroke-linecap:butt; stroke-linejoin:round; stroke-width:12; stroke-opacity:1; fill:none" points="
  316.352,1400.1 316.837,943.624 317.321,688.615 317.806,527.663 318.291,416.657 318.776,336.185 319.261,276.005 319.746,230.086 320.231,194.598 320.716,166.974 
  321.2,145.42 321.685,128.642 322.17,115.678 322.655,105.801 323.14,98.448 323.625,93.1792 324.11,89.6438 324.594,87.5596 325.079,86.6972 325.564,86.8685 
  326.049,87.9178 326.534,89.7151 327.019,92.1516 327.504,95.1353 327.988,98.5883 328.473,102.444 328.958,106.645 329.443,111.143 329.928,115.895 330.413,120.865 
  330.898,126.021 331.382,131.335 331.867,136.782 332.352,142.342 332.837,147.996 333.322,153.728 333.807,159.522 334.292,165.367 334.776,171.252 335.261,177.165 
  335.746,183.099 336.231,189.045 336.716,194.998 337.201,200.95 337.686,206.896 338.17,212.832 338.655,218.753 339.14,224.656 339.625,230.536 340.11,236.392 
  340.595,242.221 341.08,248.02 341.564,253.787 342.049,259.521 342.534,265.22 343.019,270.882 343.504,276.507 343.989,282.094 344.474,287.641 344.958,293.148 
  345.443,298.614 345.928,304.039 346.413,309.423 346.898,314.765 347.383,320.064 347.868,325.321 348.352,330.536 348.837,335.708 349.322,340.838 349.807,345.925 
  350.292,350.97 350.777,355.972 351.262,360.933 351.746,365.851 352.231,370.728 352.716,375.563 353.201,380.357 353.686,385.109 354.171,389.821 354.656,394.493 
  355.14,399.125 355.625,403.716 356.11,408.269 356.595,412.782 357.08,417.256 357.565,421.692 358.05,426.09 358.534,430.45 359.019,434.773 359.504,439.059 
  359.989,443.309 360.474,447.522 360.959,451.699 361.444,455.841 361.928,459.948 362.413,464.021 362.898,468.058 363.383,472.062 363.868,476.033 364.353,479.97 
  364.838,483.874 365.322,487.746 365.807,491.586 366.292,495.394 366.777,499.171 367.262,502.916 367.747,506.631 368.232,510.315 368.716,513.97 369.201,517.595 
  369.686,521.19 370.171,524.757 370.656,528.295 371.141,531.804 371.626,535.286 372.11,538.74 372.595,542.166 373.08,545.566 373.565,548.939 374.05,552.285 
  374.535,555.605 375.02,558.899 375.504,562.168 375.989,565.411 376.474,568.63 376.959,571.824 377.444,574.993 377.929,578.138 378.414,581.259 378.898,584.357 
  379.383,587.431 379.868,590.483 380.353,593.511 380.838,596.517 381.323,599.501 381.808,602.462 382.292,605.402 382.777,608.32 383.262,611.217 383.747,614.092 
  384.232,616.947 384.717,619.781 385.202,622.595 385.686,625.388 386.171,628.162 386.656,630.915 387.141,633.649 387.626,636.364 388.111,639.06 388.596,641.736 
  389.081,644.394 389.565,647.034 390.05,649.655 390.535,652.257 391.02,654.842 391.505,657.409 391.99,659.959 392.475,662.491 392.959,665.006 393.444,667.504 
  393.929,669.985 394.414,672.449 394.899,674.897 395.384,677.328 395.869,679.743 396.353,682.143 396.838,684.526 397.323,686.893 397.808,689.246 398.293,691.582 
  398.778,693.904 399.263,696.21 399.747,698.501 400.232,700.778 400.717,703.04 401.202,705.288 401.687,707.521 402.172,709.74 402.657,711.944 403.141,714.135 
  403.626,716.312 404.111,718.476 404.596,720.626 405.081,722.762 405.566,724.886 406.051,726.996 406.535,729.093 407.02,731.177 407.505,733.248 407.99,735.307 
  408.475,737.353 408.96,739.387 409.445,741.408 409.929,743.417 410.414,745.415 410.899,747.4 411.384,749.373 411.869,751.335 412.354,753.285 412.839,755.223 
  413.323,757.15 413.808,759.065 414.293,760.97 414.778,762.863 415.263,764.745 415.748,766.617 416.233,768.477 416.717,770.327 417.202,772.166 417.687,773.995 
  418.172,775.813 418.657,777.62 419.142,779.418 419.627,781.205 420.111,782.982 420.596,784.75 421.081,786.507 421.566,788.254 422.051,789.992 422.536,791.72 
  423.021,793.439 423.505,795.148 423.99,796.847 424.475,798.537 424.96,800.218 425.445,801.89 425.93,803.553 426.415,805.207 426.899,806.851 427.384,808.487 
  427.869,810.114 428.354,811.733 428.839,813.342 429.324,814.943 429.809,816.536 430.293,818.12 430.778,819.696 431.263,821.263 431.748,822.822 432.233,824.373 
  432.718,825.916 433.203,827.451 433.687,828.978 434.172,830.497 434.657,832.008 435.142,833.511 435.627,835.007 436.112,836.495 436.597,837.975 437.081,839.448 
  437.566,840.913 438.051,842.371 438.536,843.821 439.021,845.265 439.506,846.7 439.991,848.129 440.475,849.551 440.96,850.965 441.445,852.373 441.93,853.773 
  442.415,855.166 442.9,856.553 443.385,857.933 443.869,859.306 444.354,860.672 444.839,862.032 445.324,863.385 445.809,864.731 446.294,866.071 446.779,867.405 
  447.263,868.732 447.748,870.052 448.233,871.367 448.718,872.675 449.203,873.977 449.688,875.272 450.173,876.562 450.657,877.845 451.142,879.122 451.627,880.393 
  452.112,881.659 452.597,882.918 453.082,884.172 453.567,885.419 454.051,886.661 454.536,887.897 455.021,889.128 455.506,890.352 455.991,891.571 456.476,892.785 
  456.961,893.993 457.445,895.195 457.93,896.392 458.415,897.583 458.9,898.769 459.385,899.95 459.87,901.125 460.355,902.295 460.84,903.46 461.324,904.62 
  461.809,905.774 462.294,906.923 462.779,908.067 463.264,909.206 463.749,910.34 464.234,911.469 464.718,912.593 465.203,913.712 465.688,914.826 466.173,915.936 
  466.658,917.04 467.143,918.14 467.628,919.234 468.112,920.325 468.597,921.41 469.082,922.491 469.567,923.567 470.052,924.638 470.537,925.705 471.022,926.767 
  471.506,927.825 471.991,928.878 472.476,929.927 472.961,930.971 473.446,932.011 473.931,933.046 474.416,934.077 474.9,935.104 475.385,936.127 475.87,937.145 
  476.355,938.159 476.84,939.169 477.325,940.174 477.81,941.175 478.294,942.173 478.779,943.166 479.264,944.155 479.749,945.14 480.234,946.121 480.719,947.098 
  481.204,948.07 481.688,949.039 482.173,950.004 482.658,950.966 483.143,951.923 483.628,952.876 484.113,953.826 484.598,954.771 485.082,955.713 485.567,956.651 
  486.052,957.586 486.537,958.516 487.022,959.443 487.507,960.366 487.992,961.286 488.476,962.202 488.961,963.114 489.446,964.023 489.931,964.928 490.416,965.83 
  490.901,966.728 491.386,967.623 491.87,968.514 492.355,969.401 492.84,970.285 493.325,971.166 493.81,972.044 494.295,972.918 494.78,973.788 495.264,974.655 
  495.749,975.519 496.234,976.38 496.719,977.237 497.204,978.091 497.689,978.942 498.174,979.79 498.658,980.634 499.143,981.475 499.628,982.313 500.113,983.148 
  500.598,983.98 501.083,984.809 501.568,985.634 502.052,986.457 502.537,987.276 503.022,988.092 503.507,988.905 503.992,989.716 504.477,990.523 504.962,991.327 
  505.446,992.129 505.931,992.927 506.416,993.722 506.901,994.515 507.386,995.304 507.871,996.091 508.356,996.875 508.84,997.656 509.325,998.434 509.81,999.21 
  510.295,999.982 510.78,1000.75 511.265,1001.52 511.75,1002.28 512.234,1003.04 512.719,1003.8 513.204,1004.56 513.689,1005.31 514.174,1006.06 514.659,1006.81 
  515.144,1007.56 515.628,1008.3 516.113,1009.04 516.598,1009.78 517.083,1010.51 517.568,1011.24 518.053,1011.97 518.538,1012.7 519.022,1013.43 519.507,1014.15 
  519.992,1014.87 520.477,1015.58 520.962,1016.3 521.447,1017.01 521.932,1017.72 522.416,1018.43 522.901,1019.13 523.386,1019.83 523.871,1020.53 524.356,1021.23 
  524.841,1021.93 525.326,1022.62 525.81,1023.31 526.295,1024 526.78,1024.68 527.265,1025.37 527.75,1026.05 528.235,1026.73 528.72,1027.4 529.204,1028.08 
  529.689,1028.75 530.174,1029.42 530.659,1030.09 531.144,1030.75 531.629,1031.41 532.114,1032.08 532.599,1032.73 533.083,1033.39 533.568,1034.04 534.053,1034.7 
  534.538,1035.35 535.023,1035.99 535.508,1036.64 535.993,1037.28 536.477,1037.92 536.962,1038.56 537.447,1039.2 537.932,1039.84 538.417,1040.47 538.902,1041.1 
  539.387,1041.73 539.871,1042.35 540.356,1042.98 540.841,1043.6 541.326,1044.22 541.811,1044.84 542.296,1045.46 542.781,1046.07 543.265,1046.69 543.75,1047.3 
  544.235,1047.91 544.72,1048.51 545.205,1049.12 545.69,1049.72 546.175,1050.32 546.659,1050.92 547.144,1051.52 547.629,1052.11 548.114,1052.71 548.599,1053.3 
  549.084,1053.89 549.569,1054.48 550.053,1055.06 550.538,1055.65 551.023,1056.23 551.508,1056.81 551.993,1057.39 552.478,1057.97 552.963,1058.54 553.447,1059.12 
  553.932,1059.69 554.417,1060.26 554.902,1060.83 555.387,1061.39 555.872,1061.96 556.357,1062.52 556.841,1063.08 557.326,1063.64 557.811,1064.2 558.296,1064.75 
  558.781,1065.31 559.266,1065.86 559.751,1066.41 560.235,1066.96 560.72,1067.51 561.205,1068.06 561.69,1068.6 562.175,1069.14 562.66,1069.68 563.145,1070.22 
  563.629,1070.76 564.114,1071.3 564.599,1071.83 565.084,1072.36 565.569,1072.9 566.054,1073.43 566.539,1073.95 567.023,1074.48 567.508,1075.01 567.993,1075.53 
  568.478,1076.05 568.963,1076.57 569.448,1077.09 569.933,1077.61 570.417,1078.12 570.902,1078.64 571.387,1079.15 571.872,1079.66 572.357,1080.17 572.842,1080.68 
  573.327,1081.19 573.811,1081.69 574.296,1082.2 574.781,1082.7 575.266,1083.2 575.751,1083.7 576.236,1084.2 576.721,1084.7 577.205,1085.19 577.69,1085.69 
  578.175,1086.18 578.66,1086.67 579.145,1087.16 579.63,1087.65 580.115,1088.13 580.599,1088.62 581.084,1089.1 581.569,1089.59 582.054,1090.07 582.539,1090.55 
  583.024,1091.03 583.509,1091.5 583.993,1091.98 584.478,1092.45 584.963,1092.93 585.448,1093.4 585.933,1093.87 586.418,1094.34 586.903,1094.81 587.387,1095.27 
  587.872,1095.74 588.357,1096.2 588.842,1096.67 589.327,1097.13 589.812,1097.59 590.297,1098.05 590.781,1098.5 591.266,1098.96 591.751,1099.42 592.236,1099.87 
  592.721,1100.32 593.206,1100.77 593.691,1101.22 594.175,1101.67 594.66,1102.12 595.145,1102.57 595.63,1103.01 596.115,1103.46 596.6,1103.9 597.085,1104.34 
  597.569,1104.78 598.054,1105.22 598.539,1105.66 599.024,1106.1 599.509,1106.53 599.994,1106.97 600.479,1107.4 600.964,1107.83 601.448,1108.26 601.933,1108.69 
  602.418,1109.12 602.903,1109.55 603.388,1109.97 603.873,1110.4 604.358,1110.82 604.842,1111.25 605.327,1111.67 605.812,1112.09 606.297,1112.51 606.782,1112.93 
  607.267,1113.35 607.752,1113.76 608.236,1114.18 608.721,1114.59 609.206,1115 609.691,1115.42 610.176,1115.83 610.661,1116.24 611.146,1116.65 611.63,1117.05 
  612.115,1117.46 612.6,1117.87 613.085,1118.27 613.57,1118.67 614.055,1119.08 614.54,1119.48 615.024,1119.88 615.509,1120.28 615.994,1120.68 616.479,1121.07 
  616.964,1121.47 617.449,1121.86 617.934,1122.26 618.418,1122.65 618.903,1123.04 619.388,1123.43 619.873,1123.82 620.358,1124.21 620.843,1124.6 621.328,1124.99 
  621.812,1125.38 622.297,1125.76 622.782,1126.14 623.267,1126.53 623.752,1126.91 624.237,1127.29 624.722,1127.67 625.206,1128.05 625.691,1128.43 626.176,1128.81 
  626.661,1129.18 627.146,1129.56 627.631,1129.93 628.116,1130.31 628.6,1130.68 629.085,1131.05 629.57,1131.42 630.055,1131.79 630.54,1132.16 631.025,1132.53 
  631.51,1132.9 631.994,1133.26 632.479,1133.63 632.964,1133.99 633.449,1134.36 633.934,1134.72 634.419,1135.08 634.904,1135.44 635.388,1135.8 635.873,1136.16 
  636.358,1136.52 636.843,1136.88 637.328,1137.24 637.813,1137.59 638.298,1137.95 638.782,1138.3 639.267,1138.65 639.752,1139 640.237,1139.36 640.722,1139.71 
  641.207,1140.06 641.692,1140.41 642.176,1140.75 642.661,1141.1 643.146,1141.45 643.631,1141.79 644.116,1142.14 644.601,1142.48 645.086,1142.82 645.57,1143.17 
  646.055,1143.51 646.54,1143.85 647.025,1144.19 647.51,1144.53 647.995,1144.86 648.48,1145.2 648.964,1145.54 649.449,1145.87 649.934,1146.21 650.419,1146.54 
  650.904,1146.88 651.389,1147.21 651.874,1147.54 652.358,1147.87 652.843,1148.2 653.328,1148.53 653.813,1148.86 654.298,1149.19 654.783,1149.52 655.268,1149.84 
  655.752,1150.17 656.237,1150.49 656.722,1150.82 657.207,1151.14 657.692,1151.46 658.177,1151.78 658.662,1152.1 659.146,1152.43 659.631,1152.74 660.116,1153.06 
  660.601,1153.38 661.086,1153.7 661.571,1154.02 662.056,1154.33 662.54,1154.65 663.025,1154.96 663.51,1155.27 663.995,1155.59 664.48,1155.9 664.965,1156.21 
  665.45,1156.52 665.934,1156.83 666.419,1157.14 666.904,1157.45 667.389,1157.76 667.874,1158.07 668.359,1158.37 668.844,1158.68 669.328,1158.98 669.813,1159.29 
  670.298,1159.59 670.783,1159.9 671.268,1160.2 671.753,1160.5 672.238,1160.8 672.723,1161.1 673.207,1161.4 673.692,1161.7 674.177,1162 674.662,1162.3 
  675.147,1162.59 675.632,1162.89 676.117,1163.19 676.601,1163.48 677.086,1163.78 677.571,1164.07 678.056,1164.36 678.541,1164.66 679.026,1164.95 679.511,1165.24 
  679.995,1165.53 680.48,1165.82 680.965,1166.11 681.45,1166.4 681.935,1166.69 682.42,1166.97 682.905,1167.26 683.389,1167.55 683.874,1167.83 684.359,1168.12 
  684.844,1168.4 685.329,1168.68 685.814,1168.97 686.299,1169.25 686.783,1169.53 687.268,1169.81 687.753,1170.09 688.238,1170.37 688.723,1170.65 689.208,1170.93 
  689.693,1171.21 690.177,1171.49 690.662,1171.76 691.147,1172.04 691.632,1172.32 692.117,1172.59 692.602,1172.87 693.087,1173.14 693.571,1173.41 694.056,1173.69 
  694.541,1173.96 695.026,1174.23 695.511,1174.5 695.996,1174.77 696.481,1175.04 696.965,1175.31 697.45,1175.58 697.935,1175.85 698.42,1176.11 698.905,1176.38 
  699.39,1176.65 699.875,1176.91 700.359,1177.18 700.844,1177.44 701.329,1177.71 701.814,1177.97 702.299,1178.23 702.784,1178.5 703.269,1178.76 703.753,1179.02 
  704.238,1179.28 704.723,1179.54 705.208,1179.8 705.693,1180.06 706.178,1180.32 706.663,1180.58 707.147,1180.84 707.632,1181.09 708.117,1181.35 708.602,1181.61 
  709.087,1181.86 709.572,1182.12 710.057,1182.37 710.541,1182.62 711.026,1182.88 711.511,1183.13 711.996,1183.38 712.481,1183.63 712.966,1183.89 713.451,1184.14 
  713.935,1184.39 714.42,1184.64 714.905,1184.89 715.39,1185.13 715.875,1185.38 716.36,1185.63 716.845,1185.88 717.329,1186.12 717.814,1186.37 718.299,1186.62 
  718.784,1186.86 719.269,1187.11 719.754,1187.35 720.239,1187.59 720.723,1187.84 721.208,1188.08 721.693,1188.32 722.178,1188.56 722.663,1188.81 723.148,1189.05 
  723.633,1189.29 724.117,1189.53 724.602,1189.77 725.087,1190 725.572,1190.24 726.057,1190.48 726.542,1190.72 727.027,1190.95 727.511,1191.19 727.996,1191.43 
  728.481,1191.66 728.966,1191.9 729.451,1192.13 729.936,1192.37 730.421,1192.6 730.905,1192.83 731.39,1193.07 731.875,1193.3 732.36,1193.53 732.845,1193.76 
  733.33,1193.99 733.815,1194.22 734.299,1194.45 734.784,1194.68 735.269,1194.91 735.754,1195.14 736.239,1195.37 736.724,1195.6 737.209,1195.82 737.693,1196.05 
  738.178,1196.28 738.663,1196.5 739.148,1196.73 739.633,1196.95 740.118,1197.18 740.603,1197.4 741.087,1197.62 741.572,1197.85 742.057,1198.07 742.542,1198.29 
  743.027,1198.51 743.512,1198.74 743.997,1198.96 744.482,1199.18 744.966,1199.4 745.451,1199.62 745.936,1199.84 746.421,1200.06 746.906,1200.28 747.391,1200.49 
  747.876,1200.71 748.36,1200.93 748.845,1201.15 749.33,1201.36 749.815,1201.58 750.3,1201.79 750.785,1202.01 751.27,1202.22 751.754,1202.44 752.239,1202.65 
  752.724,1202.87 753.209,1203.08 753.694,1203.29 754.179,1203.5 754.664,1203.72 755.148,1203.93 755.633,1204.14 756.118,1204.35 756.603,1204.56 757.088,1204.77 
  757.573,1204.98 758.058,1205.19 758.542,1205.4 759.027,1205.61 759.512,1205.81 759.997,1206.02 760.482,1206.23 760.967,1206.43 761.452,1206.64 761.936,1206.85 
  762.421,1207.05 762.906,1207.26 763.391,1207.46 763.876,1207.67 764.361,1207.87 764.846,1208.08 765.33,1208.28 765.815,1208.48 766.3,1208.68 766.785,1208.89 
  767.27,1209.09 767.755,1209.29 768.24,1209.49 768.724,1209.69 769.209,1209.89 769.694,1210.09 770.179,1210.29 770.664,1210.49 771.149,1210.69 771.634,1210.89 
  772.118,1211.09 772.603,1211.28 773.088,1211.48 773.573,1211.68 774.058,1211.88 774.543,1212.07 775.028,1212.27 775.512,1212.46 775.997,1212.66 776.482,1212.85 
  776.967,1213.05 777.452,1213.24 777.937,1213.44 778.422,1213.63 778.906,1213.82 779.391,1214.02 779.876,1214.21 780.361,1214.4 780.846,1214.59 781.331,1214.78 
  781.816,1214.97 782.3,1215.16 782.785,1215.36 783.27,1215.55 783.755,1215.73 784.24,1215.92 784.725,1216.11 785.21,1216.3 785.694,1216.49 786.179,1216.68 
  786.664,1216.87 787.149,1217.05 787.634,1217.24 788.119,1217.43 788.604,1217.61 789.088,1217.8 789.573,1217.98 790.058,1218.17 790.543,1218.35 791.028,1218.54 
  791.513,1218.72 791.998,1218.91 792.482,1219.09 792.967,1219.27 793.452,1219.46 793.937,1219.64 794.422,1219.82 794.907,1220 795.392,1220.19 795.876,1220.37 
  796.361,1220.55 796.846,1220.73 797.331,1220.91 797.816,1221.09 798.301,1221.27 798.786,1221.45 799.27,1221.63 799.755,1221.81 800.24,1221.99 800.725,1222.16 
  801.21,1222.34 801.695,1222.52 802.18,1222.7 802.664,1222.87 803.149,1223.05 803.634,1223.23 804.119,1223.4 804.604,1223.58 805.089,1223.75 805.574,1223.93 
  806.058,1224.1 806.543,1224.28 807.028,1224.45 807.513,1224.63 807.998,1224.8 808.483,1224.97 808.968,1225.15 809.452,1225.32 809.937,1225.49 810.422,1225.66 
  810.907,1225.84 811.392,1226.01 811.877,1226.18 812.362,1226.35 812.847,1226.52 813.331,1226.69 813.816,1226.86 814.301,1227.03 814.786,1227.2 815.271,1227.37 
  815.756,1227.54 816.241,1227.71 816.725,1227.88 817.21,1228.04 817.695,1228.21 818.18,1228.38 818.665,1228.55 819.15,1228.71 819.635,1228.88 820.119,1229.05 
  820.604,1229.21 821.089,1229.38 821.574,1229.54 822.059,1229.71 822.544,1229.87 823.029,1230.04 823.513,1230.2 823.998,1230.37 824.483,1230.53 824.968,1230.69 
  825.453,1230.86 825.938,1231.02 826.423,1231.18 826.907,1231.35 827.392,1231.51 827.877,1231.67 828.362,1231.83 828.847,1231.99 829.332,1232.15 829.817,1232.31 
  830.301,1232.47 830.786,1232.64 831.271,1232.8 831.756,1232.96 832.241,1233.11 832.726,1233.27 833.211,1233.43 833.695,1233.59 834.18,1233.75 834.665,1233.91 
  835.15,1234.07 835.635,1234.22 836.12,1234.38 836.605,1234.54 837.089,1234.7 837.574,1234.85 838.059,1235.01 838.544,1235.16 839.029,1235.32 839.514,1235.48 
  839.999,1235.63 840.483,1235.79 840.968,1235.94 841.453,1236.1 841.938,1236.25 842.423,1236.4 842.908,1236.56 843.393,1236.71 843.877,1236.86 844.362,1237.02 
  844.847,1237.17 845.332,1237.32 845.817,1237.48 846.302,1237.63 846.787,1237.78 847.271,1237.93 847.756,1238.08 848.241,1238.23 848.726,1238.38 849.211,1238.53 
  849.696,1238.69 850.181,1238.84 850.665,1238.99 851.15,1239.13 851.635,1239.28 852.12,1239.43 852.605,1239.58 853.09,1239.73 853.575,1239.88 854.059,1240.03 
  854.544,1240.18 855.029,1240.32 855.514,1240.47 855.999,1240.62 856.484,1240.76 856.969,1240.91 857.453,1241.06 857.938,1241.2 858.423,1241.35 858.908,1241.5 
  859.393,1241.64 859.878,1241.79 860.363,1241.93 860.847,1242.08 861.332,1242.22 861.817,1242.37 862.302,1242.51 862.787,1242.65 863.272,1242.8 863.757,1242.94 
  864.241,1243.09 864.726,1243.23 865.211,1243.37 865.696,1243.51 866.181,1243.66 866.666,1243.8 867.151,1243.94 867.635,1244.08 868.12,1244.22 868.605,1244.37 
  869.09,1244.51 869.575,1244.65 870.06,1244.79 870.545,1244.93 871.029,1245.07 871.514,1245.21 871.999,1245.35 872.484,1245.49 872.969,1245.63 873.454,1245.77 
  873.939,1245.9 874.423,1246.04 874.908,1246.18 875.393,1246.32 875.878,1246.46 876.363,1246.6 876.848,1246.73 877.333,1246.87 877.817,1247.01 878.302,1247.14 
  878.787,1247.28 879.272,1247.42 879.757,1247.55 880.242,1247.69 880.727,1247.83 881.211,1247.96 881.696,1248.1 882.181,1248.23 882.666,1248.37 883.151,1248.5 
  883.636,1248.64 884.121,1248.77 884.606,1248.91 885.09,1249.04 885.575,1249.17 886.06,1249.31 886.545,1249.44 887.03,1249.57 887.515,1249.71 888,1249.84 
  888.484,1249.97 888.969,1250.1 889.454,1250.24 889.939,1250.37 890.424,1250.5 890.909,1250.63 891.394,1250.76 891.878,1250.89 892.363,1251.03 892.848,1251.16 
  893.333,1251.29 893.818,1251.42 894.303,1251.55 894.788,1251.68 895.272,1251.81 895.757,1251.94 896.242,1252.07 896.727,1252.2 897.212,1252.32 897.697,1252.45 
  898.182,1252.58 898.666,1252.71 899.151,1252.84 899.636,1252.97 900.121,1253.1 900.606,1253.22 901.091,1253.35 901.576,1253.48 902.06,1253.6 902.545,1253.73 
  903.03,1253.86 903.515,1253.98 904,1254.11 904.485,1254.24 904.97,1254.36 905.454,1254.49 905.939,1254.61 906.424,1254.74 906.909,1254.87 907.394,1254.99 
  907.879,1255.11 908.364,1255.24 908.848,1255.36 909.333,1255.49 909.818,1255.61 910.303,1255.74 910.788,1255.86 911.273,1255.98 911.758,1256.11 912.242,1256.23 
  912.727,1256.35 913.212,1256.48 913.697,1256.6 914.182,1256.72 914.667,1256.84 915.152,1256.97 915.636,1257.09 916.121,1257.21 916.606,1257.33 917.091,1257.45 
  917.576,1257.57 918.061,1257.69 918.546,1257.82 919.03,1257.94 919.515,1258.06 920,1258.18 920.485,1258.3 920.97,1258.42 921.455,1258.54 921.94,1258.66 
  922.424,1258.78 922.909,1258.9 923.394,1259.01 923.879,1259.13 924.364,1259.25 924.849,1259.37 925.334,1259.49 925.818,1259.61 926.303,1259.73 926.788,1259.84 
  927.273,1259.96 927.758,1260.08 928.243,1260.2 928.728,1260.31 929.212,1260.43 929.697,1260.55 930.182,1260.66 930.667,1260.78 931.152,1260.9 931.637,1261.01 
  932.122,1261.13 932.606,1261.24 933.091,1261.36 933.576,1261.48 934.061,1261.59 934.546,1261.71 935.031,1261.82 935.516,1261.94 936,1262.05 936.485,1262.17 
  936.97,1262.28 937.455,1262.39 937.94,1262.51 938.425,1262.62 938.91,1262.74 939.394,1262.85 939.879,1262.96 940.364,1263.08 940.849,1263.19 941.334,1263.3 
  941.819,1263.42 942.304,1263.53 942.788,1263.64 943.273,1263.75 943.758,1263.86 944.243,1263.98 944.728,1264.09 945.213,1264.2 945.698,1264.31 946.182,1264.42 
  946.667,1264.53 947.152,1264.65 947.637,1264.76 948.122,1264.87 948.607,1264.98 949.092,1265.09 949.576,1265.2 950.061,1265.31 950.546,1265.42 951.031,1265.53 
  951.516,1265.64 952.001,1265.75 952.486,1265.86 952.97,1265.97 953.455,1266.07 953.94,1266.18 954.425,1266.29 954.91,1266.4 955.395,1266.51 955.88,1266.62 
  956.365,1266.73 956.849,1266.83 957.334,1266.94 957.819,1267.05 958.304,1267.16 958.789,1267.26 959.274,1267.37 959.759,1267.48 960.243,1267.59 960.728,1267.69 
  961.213,1267.8 961.698,1267.91 962.183,1268.01 962.668,1268.12 963.153,1268.22 963.637,1268.33 964.122,1268.44 964.607,1268.54 965.092,1268.65 965.577,1268.75 
  966.062,1268.86 966.547,1268.96 967.031,1269.07 967.516,1269.17 968.001,1269.28 968.486,1269.38 968.971,1269.49 969.456,1269.59 969.941,1269.69 970.425,1269.8 
  970.91,1269.9 971.395,1270 971.88,1270.11 972.365,1270.21 972.85,1270.31 973.335,1270.42 973.819,1270.52 974.304,1270.62 974.789,1270.73 975.274,1270.83 
  975.759,1270.93 976.244,1271.03 976.729,1271.14 977.213,1271.24 977.698,1271.34 978.183,1271.44 978.668,1271.54 979.153,1271.64 979.638,1271.74 980.123,1271.85 
  980.607,1271.95 981.092,1272.05 981.577,1272.15 982.062,1272.25 982.547,1272.35 983.032,1272.45 983.517,1272.55 984.001,1272.65 984.486,1272.75 984.971,1272.85 
  985.456,1272.95 985.941,1273.05 986.426,1273.15 986.911,1273.25 987.395,1273.35 987.88,1273.45 988.365,1273.54 988.85,1273.64 989.335,1273.74 989.82,1273.84 
  990.305,1273.94 990.789,1274.04 991.274,1274.13 991.759,1274.23 992.244,1274.33 992.729,1274.43 993.214,1274.53 993.699,1274.62 994.183,1274.72 994.668,1274.82 
  995.153,1274.91 995.638,1275.01 996.123,1275.11 996.608,1275.2 997.093,1275.3 997.577,1275.4 998.062,1275.49 998.547,1275.59 999.032,1275.69 999.517,1275.78 
  1000,1275.88 1000.49,1275.97 1000.97,1276.07 1001.46,1276.16 1001.94,1276.26 1002.43,1276.35 1002.91,1276.45 1003.4,1276.54 1003.88,1276.64 1004.37,1276.73 
  1004.85,1276.83 1005.34,1276.92 1005.82,1277.02 1006.3,1277.11 1006.79,1277.2 1007.27,1277.3 1007.76,1277.39 1008.24,1277.49 1008.73,1277.58 1009.21,1277.67 
  1009.7,1277.77 1010.18,1277.86 1010.67,1277.95 1011.15,1278.04 1011.64,1278.14 1012.12,1278.23 1012.61,1278.32 1013.09,1278.41 1013.58,1278.51 1014.06,1278.6 
  1014.55,1278.69 1015.03,1278.78 1015.52,1278.88 1016,1278.97 1016.49,1279.06 1016.97,1279.15 1017.46,1279.24 1017.94,1279.33 1018.43,1279.42 1018.91,1279.51 
  1019.4,1279.61 1019.88,1279.7 1020.37,1279.79 1020.85,1279.88 1021.34,1279.97 1021.82,1280.06 1022.31,1280.15 1022.79,1280.24 1023.27,1280.33 1023.76,1280.42 
  1024.24,1280.51 1024.73,1280.6 1025.21,1280.69 1025.7,1280.78 1026.18,1280.87 1026.67,1280.95 1027.15,1281.04 1027.64,1281.13 1028.12,1281.22 1028.61,1281.31 
  1029.09,1281.4 1029.58,1281.49 1030.06,1281.58 1030.55,1281.66 1031.03,1281.75 1031.52,1281.84 1032,1281.93 1032.49,1282.02 1032.97,1282.1 1033.46,1282.19 
  1033.94,1282.28 1034.43,1282.37 1034.91,1282.45 1035.4,1282.54 1035.88,1282.63 1036.37,1282.71 1036.85,1282.8 1037.34,1282.89 1037.82,1282.97 1038.31,1283.06 
  1038.79,1283.15 1039.28,1283.23 1039.76,1283.32 1040.24,1283.41 1040.73,1283.49 1041.21,1283.58 1041.7,1283.66 1042.18,1283.75 1042.67,1283.83 1043.15,1283.92 
  1043.64,1284 1044.12,1284.09 1044.61,1284.17 1045.09,1284.26 1045.58,1284.34 1046.06,1284.43 1046.55,1284.51 1047.03,1284.6 1047.52,1284.68 1048,1284.77 
  1048.49,1284.85 1048.97,1284.94 1049.46,1285.02 1049.94,1285.1 1050.43,1285.19 1050.91,1285.27 1051.4,1285.36 1051.88,1285.44 1052.37,1285.52 1052.85,1285.61 
  1053.34,1285.69 1053.82,1285.77 1054.31,1285.85 1054.79,1285.94 1055.28,1286.02 1055.76,1286.1 1056.25,1286.19 1056.73,1286.27 1057.21,1286.35 1057.7,1286.43 
  1058.18,1286.51 1058.67,1286.6 1059.15,1286.68 1059.64,1286.76 1060.12,1286.84 1060.61,1286.92 1061.09,1287.01 1061.58,1287.09 1062.06,1287.17 1062.55,1287.25 
  1063.03,1287.33 1063.52,1287.41 1064,1287.49 1064.49,1287.57 1064.97,1287.65 1065.46,1287.74 1065.94,1287.82 1066.43,1287.9 1066.91,1287.98 1067.4,1288.06 
  1067.88,1288.14 1068.37,1288.22 1068.85,1288.3 1069.34,1288.38 1069.82,1288.46 1070.31,1288.54 1070.79,1288.62 1071.28,1288.7 1071.76,1288.78 1072.25,1288.85 
  1072.73,1288.93 1073.22,1289.01 1073.7,1289.09 1074.19,1289.17 1074.67,1289.25 1075.15,1289.33 1075.64,1289.41 1076.12,1289.49 1076.61,1289.56 1077.09,1289.64 
  1077.58,1289.72 1078.06,1289.8 1078.55,1289.88 1079.03,1289.96 1079.52,1290.03 1080,1290.11 1080.49,1290.19 1080.97,1290.27 1081.46,1290.34 1081.94,1290.42 
  1082.43,1290.5 1082.91,1290.58 1083.4,1290.65 1083.88,1290.73 1084.37,1290.81 1084.85,1290.88 1085.34,1290.96 1085.82,1291.04 1086.31,1291.11 1086.79,1291.19 
  1087.28,1291.27 1087.76,1291.34 1088.25,1291.42 1088.73,1291.5 1089.22,1291.57 1089.7,1291.65 1090.19,1291.72 1090.67,1291.8 1091.16,1291.88 1091.64,1291.95 
  1092.12,1292.03 1092.61,1292.1 1093.09,1292.18 1093.58,1292.25 1094.06,1292.33 1094.55,1292.4 1095.03,1292.48 1095.52,1292.55 1096,1292.63 1096.49,1292.7 
  1096.97,1292.78 1097.46,1292.85 1097.94,1292.93 1098.43,1293 1098.91,1293.07 1099.4,1293.15 1099.88,1293.22 1100.37,1293.3 1100.85,1293.37 1101.34,1293.44 
  1101.82,1293.52 1102.31,1293.59 1102.79,1293.67 1103.28,1293.74 1103.76,1293.81 1104.25,1293.89 1104.73,1293.96 1105.22,1294.03 1105.7,1294.11 1106.19,1294.18 
  1106.67,1294.25 1107.16,1294.32 1107.64,1294.4 1108.13,1294.47 1108.61,1294.54 1109.09,1294.61 1109.58,1294.69 1110.06,1294.76 1110.55,1294.83 1111.03,1294.9 
  1111.52,1294.98 1112,1295.05 1112.49,1295.12 1112.97,1295.19 1113.46,1295.26 1113.94,1295.33 1114.43,1295.41 1114.91,1295.48 1115.4,1295.55 1115.88,1295.62 
  1116.37,1295.69 1116.85,1295.76 1117.34,1295.83 1117.82,1295.91 1118.31,1295.98 1118.79,1296.05 1119.28,1296.12 1119.76,1296.19 1120.25,1296.26 1120.73,1296.33 
  1121.22,1296.4 1121.7,1296.47 1122.19,1296.54 1122.67,1296.61 1123.16,1296.68 1123.64,1296.75 1124.13,1296.82 1124.61,1296.89 1125.1,1296.96 1125.58,1297.03 
  1126.06,1297.1 1126.55,1297.17 1127.03,1297.24 1127.52,1297.31 1128,1297.38 1128.49,1297.45 1128.97,1297.52 1129.46,1297.58 1129.94,1297.65 1130.43,1297.72 
  1130.91,1297.79 1131.4,1297.86 1131.88,1297.93 1132.37,1298 1132.85,1298.07 1133.34,1298.13 1133.82,1298.2 1134.31,1298.27 1134.79,1298.34 1135.28,1298.41 
  1135.76,1298.48 1136.25,1298.54 1136.73,1298.61 1137.22,1298.68 1137.7,1298.75 1138.19,1298.81 1138.67,1298.88 1139.16,1298.95 1139.64,1299.02 1140.13,1299.08 
  1140.61,1299.15 1141.1,1299.22 1141.58,1299.29 1142.07,1299.35 1142.55,1299.42 1143.03,1299.49 1143.52,1299.55 1144,1299.62 1144.49,1299.69 1144.97,1299.75 
  1145.46,1299.82 1145.94,1299.89 1146.43,1299.95 1146.91,1300.02 1147.4,1300.09 1147.88,1300.15 1148.37,1300.22 1148.85,1300.28 1149.34,1300.35 1149.82,1300.42 
  1150.31,1300.48 1150.79,1300.55 1151.28,1300.61 1151.76,1300.68 1152.25,1300.74 1152.73,1300.81 1153.22,1300.88 1153.7,1300.94 1154.19,1301.01 1154.67,1301.07 
  1155.16,1301.14 1155.64,1301.2 1156.13,1301.27 1156.61,1301.33 1157.1,1301.4 1157.58,1301.46 1158.07,1301.53 1158.55,1301.59 1159.04,1301.65 1159.52,1301.72 
  1160,1301.78 1160.49,1301.85 1160.97,1301.91 1161.46,1301.98 1161.94,1302.04 1162.43,1302.1 1162.91,1302.17 1163.4,1302.23 1163.88,1302.3 1164.37,1302.36 
  1164.85,1302.42 1165.34,1302.49 1165.82,1302.55 1166.31,1302.61 1166.79,1302.68 1167.28,1302.74 1167.76,1302.8 1168.25,1302.87 1168.73,1302.93 1169.22,1302.99 
  1169.7,1303.06 1170.19,1303.12 1170.67,1303.18 1171.16,1303.24 1171.64,1303.31 1172.13,1303.37 1172.61,1303.43 1173.1,1303.49 1173.58,1303.56 1174.07,1303.62 
  1174.55,1303.68 1175.04,1303.74 1175.52,1303.81 1176.01,1303.87 1176.49,1303.93 1176.97,1303.99 1177.46,1304.05 1177.94,1304.12 1178.43,1304.18 1178.91,1304.24 
  1179.4,1304.3 1179.88,1304.36 1180.37,1304.42 1180.85,1304.49 1181.34,1304.55 1181.82,1304.61 1182.31,1304.67 1182.79,1304.73 1183.28,1304.79 1183.76,1304.85 
  1184.25,1304.91 1184.73,1304.97 1185.22,1305.03 1185.7,1305.1 1186.19,1305.16 1186.67,1305.22 1187.16,1305.28 1187.64,1305.34 1188.13,1305.4 1188.61,1305.46 
  1189.1,1305.52 1189.58,1305.58 1190.07,1305.64 1190.55,1305.7 1191.04,1305.76 1191.52,1305.82 1192.01,1305.88 1192.49,1305.94 1192.98,1306 1193.46,1306.06 
  1193.94,1306.12 1194.43,1306.18 1194.91,1306.24 1195.4,1306.3 1195.88,1306.36 1196.37,1306.42 1196.85,1306.48 1197.34,1306.53 1197.82,1306.59 1198.31,1306.65 
  1198.79,1306.71 1199.28,1306.77 1199.76,1306.83 1200.25,1306.89 1200.73,1306.95 1201.22,1307.01 1201.7,1307.06 1202.19,1307.12 1202.67,1307.18 1203.16,1307.24 
  1203.64,1307.3 1204.13,1307.36 1204.61,1307.41 1205.1,1307.47 1205.58,1307.53 1206.07,1307.59 1206.55,1307.65 1207.04,1307.71 1207.52,1307.76 1208.01,1307.82 
  1208.49,1307.88 1208.98,1307.94 1209.46,1307.99 1209.95,1308.05 1210.43,1308.11 1210.92,1308.17 1211.4,1308.22 1211.88,1308.28 1212.37,1308.34 1212.85,1308.4 
  1213.34,1308.45 1213.82,1308.51 1214.31,1308.57 1214.79,1308.62 1215.28,1308.68 1215.76,1308.74 1216.25,1308.8 1216.73,1308.85 1217.22,1308.91 1217.7,1308.97 
  1218.19,1309.02 1218.67,1309.08 1219.16,1309.14 1219.64,1309.19 1220.13,1309.25 1220.61,1309.3 1221.1,1309.36 1221.58,1309.42 1222.07,1309.47 1222.55,1309.53 
  1223.04,1309.58 1223.52,1309.64 1224.01,1309.7 1224.49,1309.75 1224.98,1309.81 1225.46,1309.86 1225.95,1309.92 1226.43,1309.98 1226.92,1310.03 1227.4,1310.09 
  1227.89,1310.14 1228.37,1310.2 1228.85,1310.25 1229.34,1310.31 1229.82,1310.36 1230.31,1310.42 1230.79,1310.47 1231.28,1310.53 1231.76,1310.58 1232.25,1310.64 
  1232.73,1310.69 1233.22,1310.75 1233.7,1310.8 1234.19,1310.86 1234.67,1310.91 1235.16,1310.97 1235.64,1311.02 1236.13,1311.08 1236.61,1311.13 1237.1,1311.18 
  1237.58,1311.24 1238.07,1311.29 1238.55,1311.35 1239.04,1311.4 1239.52,1311.46 1240.01,1311.51 1240.49,1311.56 1240.98,1311.62 1241.46,1311.67 1241.95,1311.72 
  1242.43,1311.78 1242.92,1311.83 1243.4,1311.89 1243.89,1311.94 1244.37,1311.99 1244.86,1312.05 1245.34,1312.1 1245.82,1312.15 1246.31,1312.21 1246.79,1312.26 
  1247.28,1312.31 1247.76,1312.37 1248.25,1312.42 1248.73,1312.47 1249.22,1312.53 1249.7,1312.58 1250.19,1312.63 1250.67,1312.68 1251.16,1312.74 1251.64,1312.79 
  1252.13,1312.84 1252.61,1312.89 1253.1,1312.95 1253.58,1313 1254.07,1313.05 1254.55,1313.1 1255.04,1313.16 1255.52,1313.21 1256.01,1313.26 1256.49,1313.31 
  1256.98,1313.37 1257.46,1313.42 1257.95,1313.47 1258.43,1313.52 1258.92,1313.57 1259.4,1313.63 1259.89,1313.68 1260.37,1313.73 1260.86,1313.78 1261.34,1313.83 
  1261.83,1313.88 1262.31,1313.94 1262.79,1313.99 1263.28,1314.04 1263.76,1314.09 1264.25,1314.14 1264.73,1314.19 1265.22,1314.24 1265.7,1314.3 1266.19,1314.35 
  1266.67,1314.4 1267.16,1314.45 1267.64,1314.5 1268.13,1314.55 1268.61,1314.6 1269.1,1314.65 1269.58,1314.7 1270.07,1314.75 1270.55,1314.8 1271.04,1314.86 
  1271.52,1314.91 1272.01,1314.96 1272.49,1315.01 1272.98,1315.06 1273.46,1315.11 1273.95,1315.16 1274.43,1315.21 1274.92,1315.26 1275.4,1315.31 1275.89,1315.36 
  1276.37,1315.41 1276.86,1315.46 1277.34,1315.51 1277.83,1315.56 1278.31,1315.61 1278.8,1315.66 1279.28,1315.71 1279.76,1315.76 1280.25,1315.81 1280.73,1315.86 
  1281.22,1315.91 1281.7,1315.96 1282.19,1316.01 1282.67,1316.06 1283.16,1316.11 1283.64,1316.15 1284.13,1316.2 1284.61,1316.25 1285.1,1316.3 1285.58,1316.35 
  1286.07,1316.4 1286.55,1316.45 1287.04,1316.5 1287.52,1316.55 1288.01,1316.6 1288.49,1316.65 1288.98,1316.69 1289.46,1316.74 1289.95,1316.79 1290.43,1316.84 
  1290.92,1316.89 1291.4,1316.94 1291.89,1316.99 1292.37,1317.04 1292.86,1317.08 1293.34,1317.13 1293.83,1317.18 1294.31,1317.23 1294.8,1317.28 1295.28,1317.33 
  1295.77,1317.37 1296.25,1317.42 1296.73,1317.47 1297.22,1317.52 1297.7,1317.57 1298.19,1317.61 1298.67,1317.66 1299.16,1317.71 1299.64,1317.76 1300.13,1317.8 
  1300.61,1317.85 1301.1,1317.9 1301.58,1317.95 1302.07,1318 1302.55,1318.04 1303.04,1318.09 1303.52,1318.14 1304.01,1318.19 1304.49,1318.23 1304.98,1318.28 
  1305.46,1318.33 1305.95,1318.37 1306.43,1318.42 1306.92,1318.47 1307.4,1318.52 1307.89,1318.56 1308.37,1318.61 1308.86,1318.66 1309.34,1318.7 1309.83,1318.75 
  1310.31,1318.8 1310.8,1318.84 1311.28,1318.89 1311.77,1318.94 1312.25,1318.98 1312.74,1319.03 1313.22,1319.08 1313.7,1319.12 1314.19,1319.17 1314.67,1319.22 
  1315.16,1319.26 1315.64,1319.31 1316.13,1319.36 1316.61,1319.4 1317.1,1319.45 1317.58,1319.49 1318.07,1319.54 1318.55,1319.59 1319.04,1319.63 1319.52,1319.68 
  1320.01,1319.72 1320.49,1319.77 1320.98,1319.82 1321.46,1319.86 1321.95,1319.91 1322.43,1319.95 1322.92,1320 1323.4,1320.04 1323.89,1320.09 1324.37,1320.14 
  1324.86,1320.18 1325.34,1320.23 1325.83,1320.27 1326.31,1320.32 1326.8,1320.36 1327.28,1320.41 1327.77,1320.45 1328.25,1320.5 1328.74,1320.54 1329.22,1320.59 
  1329.71,1320.63 1330.19,1320.68 1330.67,1320.72 1331.16,1320.77 1331.64,1320.81 1332.13,1320.86 1332.61,1320.9 1333.1,1320.95 1333.58,1320.99 1334.07,1321.04 
  1334.55,1321.08 1335.04,1321.13 1335.52,1321.17 1336.01,1321.21 1336.49,1321.26 1336.98,1321.3 1337.46,1321.35 1337.95,1321.39 1338.43,1321.44 1338.92,1321.48 
  1339.4,1321.53 1339.89,1321.57 1340.37,1321.61 1340.86,1321.66 1341.34,1321.7 1341.83,1321.75 1342.31,1321.79 1342.8,1321.83 1343.28,1321.88 1343.77,1321.92 
  1344.25,1321.96 1344.74,1322.01 1345.22,1322.05 1345.71,1322.1 1346.19,1322.14 1346.68,1322.18 1347.16,1322.23 1347.65,1322.27 1348.13,1322.31 1348.61,1322.36 
  1349.1,1322.4 1349.58,1322.44 1350.07,1322.49 1350.55,1322.53 1351.04,1322.57 1351.52,1322.62 1352.01,1322.66 1352.49,1322.7 1352.98,1322.75 1353.46,1322.79 
  1353.95,1322.83 1354.43,1322.88 1354.92,1322.92 1355.4,1322.96 1355.89,1323 1356.37,1323.05 1356.86,1323.09 1357.34,1323.13 1357.83,1323.17 1358.31,1323.22 
  1358.8,1323.26 1359.28,1323.3 1359.77,1323.35 1360.25,1323.39 1360.74,1323.43 1361.22,1323.47 1361.71,1323.51 1362.19,1323.56 1362.68,1323.6 1363.16,1323.64 
  1363.65,1323.68 1364.13,1323.73 1364.62,1323.77 1365.1,1323.81 1365.58,1323.85 1366.07,1323.89 1366.55,1323.94 1367.04,1323.98 1367.52,1324.02 1368.01,1324.06 
  1368.49,1324.1 1368.98,1324.15 1369.46,1324.19 1369.95,1324.23 1370.43,1324.27 1370.92,1324.31 1371.4,1324.35 1371.89,1324.4 1372.37,1324.44 1372.86,1324.48 
  1373.34,1324.52 1373.83,1324.56 1374.31,1324.6 1374.8,1324.64 1375.28,1324.69 1375.77,1324.73 1376.25,1324.77 1376.74,1324.81 1377.22,1324.85 1377.71,1324.89 
  1378.19,1324.93 1378.68,1324.97 1379.16,1325.01 1379.65,1325.06 1380.13,1325.1 1380.62,1325.14 1381.1,1325.18 1381.59,1325.22 1382.07,1325.26 1382.55,1325.3 
  1383.04,1325.34 1383.52,1325.38 1384.01,1325.42 1384.49,1325.46 1384.98,1325.5 1385.46,1325.54 1385.95,1325.58 1386.43,1325.62 1386.92,1325.67 1387.4,1325.71 
  1387.89,1325.75 1388.37,1325.79 1388.86,1325.83 1389.34,1325.87 1389.83,1325.91 1390.31,1325.95 1390.8,1325.99 1391.28,1326.03 1391.77,1326.07 1392.25,1326.11 
  1392.74,1326.15 1393.22,1326.19 1393.71,1326.23 1394.19,1326.27 1394.68,1326.31 1395.16,1326.35 1395.65,1326.39 1396.13,1326.43 1396.62,1326.47 1397.1,1326.51 
  1397.59,1326.55 1398.07,1326.58 1398.56,1326.62 1399.04,1326.66 1399.52,1326.7 1400.01,1326.74 1400.49,1326.78 1400.98,1326.82 1401.46,1326.86 1401.95,1326.9 
  1402.43,1326.94 1402.92,1326.98 1403.4,1327.02 1403.89,1327.06 1404.37,1327.1 1404.86,1327.14 1405.34,1327.17 1405.83,1327.21 1406.31,1327.25 1406.8,1327.29 
  1407.28,1327.33 1407.77,1327.37 1408.25,1327.41 1408.74,1327.45 1409.22,1327.49 1409.71,1327.52 1410.19,1327.56 1410.68,1327.6 1411.16,1327.64 1411.65,1327.68 
  1412.13,1327.72 1412.62,1327.76 1413.1,1327.79 1413.59,1327.83 1414.07,1327.87 1414.56,1327.91 1415.04,1327.95 1415.53,1327.99 1416.01,1328.02 1416.49,1328.06 
  1416.98,1328.1 1417.46,1328.14 1417.95,1328.18 1418.43,1328.22 1418.92,1328.25 1419.4,1328.29 1419.89,1328.33 1420.37,1328.37 1420.86,1328.41 1421.34,1328.44 
  1421.83,1328.48 1422.31,1328.52 1422.8,1328.56 1423.28,1328.6 1423.77,1328.63 1424.25,1328.67 1424.74,1328.71 1425.22,1328.75 1425.71,1328.78 1426.19,1328.82 
  1426.68,1328.86 1427.16,1328.9 1427.65,1328.93 1428.13,1328.97 1428.62,1329.01 1429.1,1329.05 1429.59,1329.08 1430.07,1329.12 1430.56,1329.16 1431.04,1329.2 
  1431.53,1329.23 1432.01,1329.27 1432.5,1329.31 1432.98,1329.34 1433.46,1329.38 1433.95,1329.42 1434.43,1329.46 1434.92,1329.49 1435.4,1329.53 1435.89,1329.57 
  1436.37,1329.6 1436.86,1329.64 1437.34,1329.68 1437.83,1329.71 1438.31,1329.75 1438.8,1329.79 1439.28,1329.82 1439.77,1329.86 1440.25,1329.9 1440.74,1329.93 
  1441.22,1329.97 1441.71,1330.01 1442.19,1330.04 1442.68,1330.08 1443.16,1330.12 1443.65,1330.15 1444.13,1330.19 1444.62,1330.23 1445.1,1330.26 1445.59,1330.3 
  1446.07,1330.34 1446.56,1330.37 1447.04,1330.41 1447.53,1330.44 1448.01,1330.48 1448.5,1330.52 1448.98,1330.55 1449.47,1330.59 1449.95,1330.62 1450.43,1330.66 
  1450.92,1330.7 1451.4,1330.73 1451.89,1330.77 1452.37,1330.8 1452.86,1330.84 1453.34,1330.88 1453.83,1330.91 1454.31,1330.95 1454.8,1330.98 1455.28,1331.02 
  1455.77,1331.05 1456.25,1331.09 1456.74,1331.13 1457.22,1331.16 1457.71,1331.2 1458.19,1331.23 1458.68,1331.27 1459.16,1331.3 1459.65,1331.34 1460.13,1331.37 
  1460.62,1331.41 1461.1,1331.44 1461.59,1331.48 1462.07,1331.52 1462.56,1331.55 1463.04,1331.59 1463.53,1331.62 1464.01,1331.66 1464.5,1331.69 1464.98,1331.73 
  1465.47,1331.76 1465.95,1331.8 1466.44,1331.83 1466.92,1331.87 1467.4,1331.9 1467.89,1331.94 1468.37,1331.97 1468.86,1332.01 1469.34,1332.04 1469.83,1332.08 
  1470.31,1332.11 1470.8,1332.15 1471.28,1332.18 1471.77,1332.21 1472.25,1332.25 1472.74,1332.28 1473.22,1332.32 1473.71,1332.35 1474.19,1332.39 1474.68,1332.42 
  1475.16,1332.46 1475.65,1332.49 1476.13,1332.53 1476.62,1332.56 1477.1,1332.59 1477.59,1332.63 1478.07,1332.66 1478.56,1332.7 1479.04,1332.73 1479.53,1332.77 
  1480.01,1332.8 1480.5,1332.83 1480.98,1332.87 1481.47,1332.9 1481.95,1332.94 1482.44,1332.97 1482.92,1333 1483.41,1333.04 1483.89,1333.07 1484.38,1333.11 
  1484.86,1333.14 1485.34,1333.17 1485.83,1333.21 1486.31,1333.24 1486.8,1333.28 1487.28,1333.31 1487.77,1333.34 1488.25,1333.38 1488.74,1333.41 1489.22,1333.44 
  1489.71,1333.48 1490.19,1333.51 1490.68,1333.54 1491.16,1333.58 1491.65,1333.61 1492.13,1333.65 1492.62,1333.68 1493.1,1333.71 1493.59,1333.75 1494.07,1333.78 
  1494.56,1333.81 1495.04,1333.85 1495.53,1333.88 1496.01,1333.91 1496.5,1333.95 1496.98,1333.98 1497.47,1334.01 1497.95,1334.05 1498.44,1334.08 1498.92,1334.11 
  1499.41,1334.14 1499.89,1334.18 1500.38,1334.21 1500.86,1334.24 1501.35,1334.28 1501.83,1334.31 1502.31,1334.34 1502.8,1334.38 1503.28,1334.41 1503.77,1334.44 
  1504.25,1334.47 1504.74,1334.51 1505.22,1334.54 1505.71,1334.57 1506.19,1334.6 1506.68,1334.64 1507.16,1334.67 1507.65,1334.7 1508.13,1334.74 1508.62,1334.77 
  1509.1,1334.8 1509.59,1334.83 1510.07,1334.87 1510.56,1334.9 1511.04,1334.93 1511.53,1334.96 1512.01,1334.99 1512.5,1335.03 1512.98,1335.06 1513.47,1335.09 
  1513.95,1335.12 1514.44,1335.16 1514.92,1335.19 1515.41,1335.22 1515.89,1335.25 1516.38,1335.28 1516.86,1335.32 1517.35,1335.35 1517.83,1335.38 1518.32,1335.41 
  1518.8,1335.45 1519.28,1335.48 1519.77,1335.51 1520.25,1335.54 1520.74,1335.57 1521.22,1335.6 1521.71,1335.64 1522.19,1335.67 1522.68,1335.7 1523.16,1335.73 
  1523.65,1335.76 1524.13,1335.8 1524.62,1335.83 1525.1,1335.86 1525.59,1335.89 1526.07,1335.92 1526.56,1335.95 1527.04,1335.99 1527.53,1336.02 1528.01,1336.05 
  1528.5,1336.08 1528.98,1336.11 1529.47,1336.14 1529.95,1336.17 1530.44,1336.21 1530.92,1336.24 1531.41,1336.27 1531.89,1336.3 1532.38,1336.33 1532.86,1336.36 
  1533.35,1336.39 1533.83,1336.42 1534.32,1336.46 1534.8,1336.49 1535.29,1336.52 1535.77,1336.55 1536.25,1336.58 1536.74,1336.61 1537.22,1336.64 1537.71,1336.67 
  1538.19,1336.7 1538.68,1336.74 1539.16,1336.77 1539.65,1336.8 1540.13,1336.83 1540.62,1336.86 1541.1,1336.89 1541.59,1336.92 1542.07,1336.95 1542.56,1336.98 
  1543.04,1337.01 1543.53,1337.04 1544.01,1337.07 1544.5,1337.1 1544.98,1337.14 1545.47,1337.17 1545.95,1337.2 1546.44,1337.23 1546.92,1337.26 1547.41,1337.29 
  1547.89,1337.32 1548.38,1337.35 1548.86,1337.38 1549.35,1337.41 1549.83,1337.44 1550.32,1337.47 1550.8,1337.5 1551.29,1337.53 1551.77,1337.56 1552.26,1337.59 
  1552.74,1337.62 1553.22,1337.65 1553.71,1337.68 1554.19,1337.71 1554.68,1337.74 1555.16,1337.77 1555.65,1337.8 1556.13,1337.83 1556.62,1337.86 1557.1,1337.89 
  1557.59,1337.92 1558.07,1337.95 1558.56,1337.98 1559.04,1338.01 1559.53,1338.04 1560.01,1338.07 1560.5,1338.1 1560.98,1338.13 1561.47,1338.16 1561.95,1338.19 
  1562.44,1338.22 1562.92,1338.25 1563.41,1338.28 1563.89,1338.31 1564.38,1338.34 1564.86,1338.37 1565.35,1338.4 1565.83,1338.43 1566.32,1338.46 1566.8,1338.49 
  1567.29,1338.52 1567.77,1338.55 1568.26,1338.58 1568.74,1338.61 1569.23,1338.64 1569.71,1338.67 1570.19,1338.7 1570.68,1338.72 1571.16,1338.75 1571.65,1338.78 
  1572.13,1338.81 1572.62,1338.84 1573.1,1338.87 1573.59,1338.9 1574.07,1338.93 1574.56,1338.96 1575.04,1338.99 1575.53,1339.02 1576.01,1339.05 1576.5,1339.08 
  1576.98,1339.1 1577.47,1339.13 1577.95,1339.16 1578.44,1339.19 1578.92,1339.22 1579.41,1339.25 1579.89,1339.28 1580.38,1339.31 1580.86,1339.34 1581.35,1339.36 
  1581.83,1339.39 1582.32,1339.42 1582.8,1339.45 1583.29,1339.48 1583.77,1339.51 1584.26,1339.54 1584.74,1339.57 1585.23,1339.6 1585.71,1339.62 1586.2,1339.65 
  1586.68,1339.68 1587.16,1339.71 1587.65,1339.74 1588.13,1339.77 1588.62,1339.8 1589.1,1339.82 1589.59,1339.85 1590.07,1339.88 1590.56,1339.91 1591.04,1339.94 
  1591.53,1339.97 1592.01,1339.99 1592.5,1340.02 1592.98,1340.05 1593.47,1340.08 1593.95,1340.11 1594.44,1340.14 1594.92,1340.16 1595.41,1340.19 1595.89,1340.22 
  1596.38,1340.25 1596.86,1340.28 1597.35,1340.31 1597.83,1340.33 1598.32,1340.36 1598.8,1340.39 1599.29,1340.42 1599.77,1340.45 1600.26,1340.47 1600.74,1340.5 
  1601.23,1340.53 1601.71,1340.56 1602.2,1340.59 1602.68,1340.61 1603.17,1340.64 1603.65,1340.67 1604.13,1340.7 1604.62,1340.72 1605.1,1340.75 1605.59,1340.78 
  1606.07,1340.81 1606.56,1340.84 1607.04,1340.86 1607.53,1340.89 1608.01,1340.92 1608.5,1340.95 1608.98,1340.97 1609.47,1341 1609.95,1341.03 1610.44,1341.06 
  1610.92,1341.08 1611.41,1341.11 1611.89,1341.14 1612.38,1341.17 1612.86,1341.19 1613.35,1341.22 1613.83,1341.25 1614.32,1341.28 1614.8,1341.3 1615.29,1341.33 
  1615.77,1341.36 1616.26,1341.39 1616.74,1341.41 1617.23,1341.44 1617.71,1341.47 1618.2,1341.49 1618.68,1341.52 1619.17,1341.55 1619.65,1341.58 1620.14,1341.6 
  1620.62,1341.63 1621.1,1341.66 1621.59,1341.68 1622.07,1341.71 1622.56,1341.74 1623.04,1341.77 1623.53,1341.79 1624.01,1341.82 1624.5,1341.85 1624.98,1341.87 
  1625.47,1341.9 1625.95,1341.93 1626.44,1341.95 1626.92,1341.98 1627.41,1342.01 1627.89,1342.04 1628.38,1342.06 1628.86,1342.09 1629.35,1342.12 1629.83,1342.14 
  1630.32,1342.17 1630.8,1342.2 1631.29,1342.22 1631.77,1342.25 1632.26,1342.28 1632.74,1342.3 1633.23,1342.33 1633.71,1342.36 1634.2,1342.38 1634.68,1342.41 
  1635.17,1342.43 1635.65,1342.46 1636.14,1342.49 1636.62,1342.51 1637.11,1342.54 1637.59,1342.57 1638.08,1342.59 1638.56,1342.62 1639.04,1342.65 1639.53,1342.67 
  1640.01,1342.7 1640.5,1342.73 1640.98,1342.75 1641.47,1342.78 1641.95,1342.8 1642.44,1342.83 1642.92,1342.86 1643.41,1342.88 1643.89,1342.91 1644.38,1342.93 
  1644.86,1342.96 1645.35,1342.99 1645.83,1343.01 1646.32,1343.04 1646.8,1343.07 1647.29,1343.09 1647.77,1343.12 1648.26,1343.14 1648.74,1343.17 1649.23,1343.2 
  1649.71,1343.22 1650.2,1343.25 1650.68,1343.27 1651.17,1343.3 1651.65,1343.32 1652.14,1343.35 1652.62,1343.38 1653.11,1343.4 1653.59,1343.43 1654.08,1343.45 
  1654.56,1343.48 1655.05,1343.51 1655.53,1343.53 1656.01,1343.56 1656.5,1343.58 1656.98,1343.61 1657.47,1343.63 1657.95,1343.66 1658.44,1343.68 1658.92,1343.71 
  1659.41,1343.74 1659.89,1343.76 1660.38,1343.79 1660.86,1343.81 1661.35,1343.84 1661.83,1343.86 1662.32,1343.89 1662.8,1343.91 1663.29,1343.94 1663.77,1343.96 
  1664.26,1343.99 1664.74,1344.02 1665.23,1344.04 1665.71,1344.07 1666.2,1344.09 1666.68,1344.12 1667.17,1344.14 1667.65,1344.17 1668.14,1344.19 1668.62,1344.22 
  1669.11,1344.24 1669.59,1344.27 1670.08,1344.29 1670.56,1344.32 1671.05,1344.34 1671.53,1344.37 1672.02,1344.39 1672.5,1344.42 1672.98,1344.44 1673.47,1344.47 
  1673.95,1344.49 1674.44,1344.52 1674.92,1344.54 1675.41,1344.57 1675.89,1344.59 1676.38,1344.62 1676.86,1344.64 1677.35,1344.67 1677.83,1344.69 1678.32,1344.72 
  1678.8,1344.74 1679.29,1344.77 1679.77,1344.79 1680.26,1344.82 1680.74,1344.84 1681.23,1344.87 1681.71,1344.89 1682.2,1344.91 1682.68,1344.94 1683.17,1344.96 
  1683.65,1344.99 1684.14,1345.01 1684.62,1345.04 1685.11,1345.06 1685.59,1345.09 1686.08,1345.11 1686.56,1345.14 1687.05,1345.16 1687.53,1345.19 1688.02,1345.21 
  1688.5,1345.23 1688.99,1345.26 1689.47,1345.28 1689.95,1345.31 1690.44,1345.33 1690.92,1345.36 1691.41,1345.38 1691.89,1345.4 1692.38,1345.43 1692.86,1345.45 
  1693.35,1345.48 1693.83,1345.5 1694.32,1345.53 1694.8,1345.55 1695.29,1345.57 1695.77,1345.6 1696.26,1345.62 1696.74,1345.65 1697.23,1345.67 1697.71,1345.69 
  1698.2,1345.72 1698.68,1345.74 1699.17,1345.77 1699.65,1345.79 1700.14,1345.82 1700.62,1345.84 1701.11,1345.86 1701.59,1345.89 1702.08,1345.91 1702.56,1345.94 
  1703.05,1345.96 1703.53,1345.98 1704.02,1346.01 1704.5,1346.03 1704.99,1346.05 1705.47,1346.08 1705.96,1346.1 1706.44,1346.13 1706.92,1346.15 1707.41,1346.17 
  1707.89,1346.2 1708.38,1346.22 1708.86,1346.24 1709.35,1346.27 1709.83,1346.29 1710.32,1346.32 1710.8,1346.34 1711.29,1346.36 1711.77,1346.39 1712.26,1346.41 
  1712.74,1346.43 1713.23,1346.46 1713.71,1346.48 1714.2,1346.5 1714.68,1346.53 1715.17,1346.55 1715.65,1346.57 1716.14,1346.6 1716.62,1346.62 1717.11,1346.64 
  1717.59,1346.67 1718.08,1346.69 1718.56,1346.72 1719.05,1346.74 1719.53,1346.76 1720.02,1346.79 1720.5,1346.81 1720.99,1346.83 1721.47,1346.85 1721.96,1346.88 
  1722.44,1346.9 1722.93,1346.92 1723.41,1346.95 1723.89,1346.97 1724.38,1346.99 1724.86,1347.02 1725.35,1347.04 1725.83,1347.06 1726.32,1347.09 1726.8,1347.11 
  1727.29,1347.13 1727.77,1347.16 1728.26,1347.18 1728.74,1347.2 1729.23,1347.22 1729.71,1347.25 1730.2,1347.27 1730.68,1347.29 1731.17,1347.32 1731.65,1347.34 
  1732.14,1347.36 1732.62,1347.39 1733.11,1347.41 1733.59,1347.43 1734.08,1347.45 1734.56,1347.48 1735.05,1347.5 1735.53,1347.52 1736.02,1347.55 1736.5,1347.57 
  1736.99,1347.59 1737.47,1347.61 1737.96,1347.64 1738.44,1347.66 1738.93,1347.68 1739.41,1347.7 1739.9,1347.73 1740.38,1347.75 1740.86,1347.77 1741.35,1347.79 
  1741.83,1347.82 1742.32,1347.84 1742.8,1347.86 1743.29,1347.89 1743.77,1347.91 1744.26,1347.93 1744.74,1347.95 1745.23,1347.98 1745.71,1348 1746.2,1348.02 
  1746.68,1348.04 1747.17,1348.06 1747.65,1348.09 1748.14,1348.11 1748.62,1348.13 1749.11,1348.15 1749.59,1348.18 1750.08,1348.2 1750.56,1348.22 1751.05,1348.24 
  1751.53,1348.27 1752.02,1348.29 1752.5,1348.31 1752.99,1348.33 1753.47,1348.35 1753.96,1348.38 1754.44,1348.4 1754.93,1348.42 1755.41,1348.44 1755.9,1348.47 
  1756.38,1348.49 1756.87,1348.51 1757.35,1348.53 1757.83,1348.55 1758.32,1348.58 1758.8,1348.6 1759.29,1348.62 1759.77,1348.64 1760.26,1348.66 1760.74,1348.69 
  1761.23,1348.71 1761.71,1348.73 1762.2,1348.75 1762.68,1348.77 1763.17,1348.8 1763.65,1348.82 1764.14,1348.84 1764.62,1348.86 1765.11,1348.88 1765.59,1348.9 
  1766.08,1348.93 1766.56,1348.95 1767.05,1348.97 1767.53,1348.99 1768.02,1349.01 1768.5,1349.04 1768.99,1349.06 1769.47,1349.08 1769.96,1349.1 1770.44,1349.12 
  1770.93,1349.14 1771.41,1349.17 1771.9,1349.19 1772.38,1349.21 1772.87,1349.23 1773.35,1349.25 1773.84,1349.27 1774.32,1349.3 1774.81,1349.32 1775.29,1349.34 
  1775.77,1349.36 1776.26,1349.38 1776.74,1349.4 1777.23,1349.42 1777.71,1349.45 1778.2,1349.47 1778.68,1349.49 1779.17,1349.51 1779.65,1349.53 1780.14,1349.55 
  1780.62,1349.57 1781.11,1349.6 1781.59,1349.62 1782.08,1349.64 1782.56,1349.66 1783.05,1349.68 1783.53,1349.7 1784.02,1349.72 1784.5,1349.74 1784.99,1349.77 
  1785.47,1349.79 1785.96,1349.81 1786.44,1349.83 1786.93,1349.85 1787.41,1349.87 1787.9,1349.89 1788.38,1349.91 1788.87,1349.93 1789.35,1349.96 1789.84,1349.98 
  1790.32,1350 1790.81,1350.02 1791.29,1350.04 1791.78,1350.06 1792.26,1350.08 1792.74,1350.1 1793.23,1350.12 1793.71,1350.15 1794.2,1350.17 1794.68,1350.19 
  1795.17,1350.21 1795.65,1350.23 1796.14,1350.25 1796.62,1350.27 1797.11,1350.29 1797.59,1350.31 1798.08,1350.33 1798.56,1350.35 1799.05,1350.37 1799.53,1350.4 
  1800.02,1350.42 1800.5,1350.44 1800.99,1350.46 1801.47,1350.48 1801.96,1350.5 1802.44,1350.52 1802.93,1350.54 1803.41,1350.56 1803.9,1350.58 1804.38,1350.6 
  1804.87,1350.62 1805.35,1350.64 1805.84,1350.66 1806.32,1350.69 1806.81,1350.71 1807.29,1350.73 1807.78,1350.75 1808.26,1350.77 1808.75,1350.79 1809.23,1350.81 
  1809.71,1350.83 1810.2,1350.85 1810.68,1350.87 1811.17,1350.89 1811.65,1350.91 1812.14,1350.93 1812.62,1350.95 1813.11,1350.97 1813.59,1350.99 1814.08,1351.01 
  1814.56,1351.03 1815.05,1351.05 1815.53,1351.07 1816.02,1351.09 1816.5,1351.11 1816.99,1351.14 1817.47,1351.16 1817.96,1351.18 1818.44,1351.2 1818.93,1351.22 
  1819.41,1351.24 1819.9,1351.26 1820.38,1351.28 1820.87,1351.3 1821.35,1351.32 1821.84,1351.34 1822.32,1351.36 1822.81,1351.38 1823.29,1351.4 1823.78,1351.42 
  1824.26,1351.44 1824.75,1351.46 1825.23,1351.48 1825.72,1351.5 1826.2,1351.52 1826.68,1351.54 1827.17,1351.56 1827.65,1351.58 1828.14,1351.6 1828.62,1351.62 
  1829.11,1351.64 1829.59,1351.66 1830.08,1351.68 1830.56,1351.7 1831.05,1351.72 1831.53,1351.74 1832.02,1351.76 1832.5,1351.78 1832.99,1351.8 1833.47,1351.82 
  1833.96,1351.84 1834.44,1351.86 1834.93,1351.88 1835.41,1351.9 1835.9,1351.92 1836.38,1351.94 1836.87,1351.96 1837.35,1351.98 1837.84,1351.99 1838.32,1352.01 
  1838.81,1352.03 1839.29,1352.05 1839.78,1352.07 1840.26,1352.09 1840.75,1352.11 1841.23,1352.13 1841.72,1352.15 1842.2,1352.17 1842.69,1352.19 1843.17,1352.21 
  1843.65,1352.23 1844.14,1352.25 1844.62,1352.27 1845.11,1352.29 1845.59,1352.31 1846.08,1352.33 1846.56,1352.35 1847.05,1352.37 1847.53,1352.39 1848.02,1352.41 
  1848.5,1352.43 1848.99,1352.44 1849.47,1352.46 1849.96,1352.48 1850.44,1352.5 1850.93,1352.52 1851.41,1352.54 1851.9,1352.56 1852.38,1352.58 1852.87,1352.6 
  1853.35,1352.62 1853.84,1352.64 1854.32,1352.66 1854.81,1352.68 1855.29,1352.7 1855.78,1352.72 1856.26,1352.73 1856.75,1352.75 1857.23,1352.77 1857.72,1352.79 
  1858.2,1352.81 1858.69,1352.83 1859.17,1352.85 1859.66,1352.87 1860.14,1352.89 1860.62,1352.91 1861.11,1352.93 1861.59,1352.95 1862.08,1352.96 1862.56,1352.98 
  1863.05,1353 1863.53,1353.02 1864.02,1353.04 1864.5,1353.06 1864.99,1353.08 1865.47,1353.1 1865.96,1353.12 1866.44,1353.14 1866.93,1353.15 1867.41,1353.17 
  1867.9,1353.19 1868.38,1353.21 1868.87,1353.23 1869.35,1353.25 1869.84,1353.27 1870.32,1353.29 1870.81,1353.31 1871.29,1353.32 1871.78,1353.34 1872.26,1353.36 
  1872.75,1353.38 1873.23,1353.4 1873.72,1353.42 1874.2,1353.44 1874.69,1353.46 1875.17,1353.47 1875.66,1353.49 1876.14,1353.51 1876.63,1353.53 1877.11,1353.55 
  1877.59,1353.57 1878.08,1353.59 1878.56,1353.61 1879.05,1353.62 1879.53,1353.64 1880.02,1353.66 1880.5,1353.68 1880.99,1353.7 1881.47,1353.72 1881.96,1353.74 
  1882.44,1353.75 1882.93,1353.77 1883.41,1353.79 1883.9,1353.81 1884.38,1353.83 1884.87,1353.85 1885.35,1353.87 1885.84,1353.88 1886.32,1353.9 1886.81,1353.92 
  1887.29,1353.94 1887.78,1353.96 1888.26,1353.98 1888.75,1353.99 1889.23,1354.01 1889.72,1354.03 1890.2,1354.05 1890.69,1354.07 1891.17,1354.09 1891.66,1354.1 
  1892.14,1354.12 1892.63,1354.14 1893.11,1354.16 1893.6,1354.18 1894.08,1354.2 1894.56,1354.21 1895.05,1354.23 1895.53,1354.25 1896.02,1354.27 1896.5,1354.29 
  1896.99,1354.31 1897.47,1354.32 1897.96,1354.34 1898.44,1354.36 1898.93,1354.38 1899.41,1354.4 1899.9,1354.41 1900.38,1354.43 1900.87,1354.45 1901.35,1354.47 
  1901.84,1354.49 1902.32,1354.51 1902.81,1354.52 1903.29,1354.54 1903.78,1354.56 1904.26,1354.58 1904.75,1354.6 1905.23,1354.61 1905.72,1354.63 1906.2,1354.65 
  1906.69,1354.67 1907.17,1354.69 1907.66,1354.7 1908.14,1354.72 1908.63,1354.74 1909.11,1354.76 1909.6,1354.77 1910.08,1354.79 1910.57,1354.81 1911.05,1354.83 
  1911.54,1354.85 1912.02,1354.86 1912.5,1354.88 1912.99,1354.9 1913.47,1354.92 1913.96,1354.94 1914.44,1354.95 1914.93,1354.97 1915.41,1354.99 1915.9,1355.01 
  1916.38,1355.02 1916.87,1355.04 1917.35,1355.06 1917.84,1355.08 1918.32,1355.1 1918.81,1355.11 1919.29,1355.13 1919.78,1355.15 1920.26,1355.17 1920.75,1355.18 
  1921.23,1355.2 1921.72,1355.22 1922.2,1355.24 1922.69,1355.25 1923.17,1355.27 1923.66,1355.29 1924.14,1355.31 1924.63,1355.32 1925.11,1355.34 1925.6,1355.36 
  1926.08,1355.38 1926.57,1355.39 1927.05,1355.41 1927.54,1355.43 1928.02,1355.45 1928.51,1355.46 1928.99,1355.48 1929.47,1355.5 1929.96,1355.52 1930.44,1355.53 
  1930.93,1355.55 1931.41,1355.57 1931.9,1355.59 1932.38,1355.6 1932.87,1355.62 1933.35,1355.64 1933.84,1355.66 1934.32,1355.67 1934.81,1355.69 1935.29,1355.71 
  1935.78,1355.72 1936.26,1355.74 1936.75,1355.76 1937.23,1355.78 1937.72,1355.79 1938.2,1355.81 1938.69,1355.83 1939.17,1355.85 1939.66,1355.86 1940.14,1355.88 
  1940.63,1355.9 1941.11,1355.91 1941.6,1355.93 1942.08,1355.95 1942.57,1355.97 1943.05,1355.98 1943.54,1356 1944.02,1356.02 1944.51,1356.03 1944.99,1356.05 
  1945.48,1356.07 1945.96,1356.09 1946.44,1356.1 1946.93,1356.12 1947.41,1356.14 1947.9,1356.15 1948.38,1356.17 1948.87,1356.19 1949.35,1356.2 1949.84,1356.22 
  1950.32,1356.24 1950.81,1356.26 1951.29,1356.27 1951.78,1356.29 1952.26,1356.31 1952.75,1356.32 1953.23,1356.34 1953.72,1356.36 1954.2,1356.37 1954.69,1356.39 
  1955.17,1356.41 1955.66,1356.42 1956.14,1356.44 1956.63,1356.46 1957.11,1356.48 1957.6,1356.49 1958.08,1356.51 1958.57,1356.53 1959.05,1356.54 1959.54,1356.56 
  1960.02,1356.58 1960.51,1356.59 1960.99,1356.61 1961.48,1356.63 1961.96,1356.64 1962.45,1356.66 1962.93,1356.68 1963.41,1356.69 1963.9,1356.71 1964.38,1356.73 
  1964.87,1356.74 1965.35,1356.76 1965.84,1356.78 1966.32,1356.79 1966.81,1356.81 1967.29,1356.83 1967.78,1356.84 1968.26,1356.86 1968.75,1356.88 1969.23,1356.89 
  1969.72,1356.91 1970.2,1356.93 1970.69,1356.94 1971.17,1356.96 1971.66,1356.97 1972.14,1356.99 1972.63,1357.01 1973.11,1357.02 1973.6,1357.04 1974.08,1357.06 
  1974.57,1357.07 1975.05,1357.09 1975.54,1357.11 1976.02,1357.12 1976.51,1357.14 1976.99,1357.16 1977.48,1357.17 1977.96,1357.19 1978.45,1357.21 1978.93,1357.22 
  1979.42,1357.24 1979.9,1357.25 1980.38,1357.27 1980.87,1357.29 1981.35,1357.3 1981.84,1357.32 1982.32,1357.34 1982.81,1357.35 1983.29,1357.37 1983.78,1357.38 
  1984.26,1357.4 1984.75,1357.42 1985.23,1357.43 1985.72,1357.45 1986.2,1357.47 1986.69,1357.48 1987.17,1357.5 1987.66,1357.51 1988.14,1357.53 1988.63,1357.55 
  1989.11,1357.56 1989.6,1357.58 1990.08,1357.6 1990.57,1357.61 1991.05,1357.63 1991.54,1357.64 1992.02,1357.66 1992.51,1357.68 1992.99,1357.69 1993.48,1357.71 
  1993.96,1357.72 1994.45,1357.74 1994.93,1357.76 1995.42,1357.77 1995.9,1357.79 1996.39,1357.8 1996.87,1357.82 1997.35,1357.84 1997.84,1357.85 1998.32,1357.87 
  1998.81,1357.88 1999.29,1357.9 1999.78,1357.92 2000.26,1357.93 2000.75,1357.95 2001.23,1357.96 2001.72,1357.98 2002.2,1358 2002.69,1358.01 2003.17,1358.03 
  2003.66,1358.04 2004.14,1358.06 2004.63,1358.07 2005.11,1358.09 2005.6,1358.11 2006.08,1358.12 2006.57,1358.14 2007.05,1358.15 2007.54,1358.17 2008.02,1358.18 
  2008.51,1358.2 2008.99,1358.22 2009.48,1358.23 2009.96,1358.25 2010.45,1358.26 2010.93,1358.28 2011.42,1358.3 2011.9,1358.31 2012.39,1358.33 2012.87,1358.34 
  2013.36,1358.36 2013.84,1358.37 2014.32,1358.39 2014.81,1358.4 2015.29,1358.42 2015.78,1358.44 2016.26,1358.45 2016.75,1358.47 2017.23,1358.48 2017.72,1358.5 
  2018.2,1358.51 2018.69,1358.53 2019.17,1358.55 2019.66,1358.56 2020.14,1358.58 2020.63,1358.59 2021.11,1358.61 2021.6,1358.62 2022.08,1358.64 2022.57,1358.65 
  2023.05,1358.67 2023.54,1358.68 2024.02,1358.7 2024.51,1358.72 2024.99,1358.73 2025.48,1358.75 2025.96,1358.76 2026.45,1358.78 2026.93,1358.79 2027.42,1358.81 
  2027.9,1358.82 2028.39,1358.84 2028.87,1358.85 2029.36,1358.87 2029.84,1358.88 2030.33,1358.9 2030.81,1358.92 2031.29,1358.93 2031.78,1358.95 2032.26,1358.96 
  2032.75,1358.98 2033.23,1358.99 2033.72,1359.01 2034.2,1359.02 2034.69,1359.04 2035.17,1359.05 2035.66,1359.07 2036.14,1359.08 2036.63,1359.1 2037.11,1359.11 
  2037.6,1359.13 2038.08,1359.14 2038.57,1359.16 2039.05,1359.17 2039.54,1359.19 2040.02,1359.21 2040.51,1359.22 2040.99,1359.24 2041.48,1359.25 2041.96,1359.27 
  2042.45,1359.28 2042.93,1359.3 2043.42,1359.31 2043.9,1359.33 2044.39,1359.34 2044.87,1359.36 2045.36,1359.37 2045.84,1359.39 2046.33,1359.4 2046.81,1359.42 
  2047.3,1359.43 2047.78,1359.45 2048.27,1359.46 2048.75,1359.48 2049.23,1359.49 2049.72,1359.51 2050.2,1359.52 2050.69,1359.54 2051.17,1359.55 2051.66,1359.57 
  2052.14,1359.58 2052.63,1359.6 2053.11,1359.61 2053.6,1359.63 2054.08,1359.64 2054.57,1359.66 2055.05,1359.67 2055.54,1359.69 2056.02,1359.7 2056.51,1359.71 
  2056.99,1359.73 2057.48,1359.74 2057.96,1359.76 2058.45,1359.77 2058.93,1359.79 2059.42,1359.8 2059.9,1359.82 2060.39,1359.83 2060.87,1359.85 2061.36,1359.86 
  2061.84,1359.88 2062.33,1359.89 2062.81,1359.91 2063.3,1359.92 2063.78,1359.94 2064.27,1359.95 2064.75,1359.97 2065.24,1359.98 2065.72,1360 2066.2,1360.01 
  2066.69,1360.02 2067.17,1360.04 2067.66,1360.05 2068.14,1360.07 2068.63,1360.08 2069.11,1360.1 2069.6,1360.11 2070.08,1360.13 2070.57,1360.14 2071.05,1360.16 
  2071.54,1360.17 2072.02,1360.19 2072.51,1360.2 2072.99,1360.21 2073.48,1360.23 2073.96,1360.24 2074.45,1360.26 2074.93,1360.27 2075.42,1360.29 2075.9,1360.3 
  2076.39,1360.32 2076.87,1360.33 2077.36,1360.35 2077.84,1360.36 2078.33,1360.37 2078.81,1360.39 2079.3,1360.4 2079.78,1360.42 2080.27,1360.43 2080.75,1360.45 
  2081.24,1360.46 2081.72,1360.48 2082.21,1360.49 2082.69,1360.5 2083.17,1360.52 2083.66,1360.53 2084.14,1360.55 2084.63,1360.56 2085.11,1360.58 2085.6,1360.59 
  2086.08,1360.6 2086.57,1360.62 2087.05,1360.63 2087.54,1360.65 2088.02,1360.66 2088.51,1360.68 2088.99,1360.69 2089.48,1360.7 2089.96,1360.72 2090.45,1360.73 
  2090.93,1360.75 2091.42,1360.76 2091.9,1360.78 2092.39,1360.79 2092.87,1360.8 2093.36,1360.82 2093.84,1360.83 2094.33,1360.85 2094.81,1360.86 2095.3,1360.88 
  2095.78,1360.89 2096.27,1360.9 2096.75,1360.92 2097.24,1360.93 2097.72,1360.95 2098.21,1360.96 2098.69,1360.97 2099.18,1360.99 2099.66,1361 2100.14,1361.02 
  2100.63,1361.03 2101.11,1361.04 2101.6,1361.06 2102.08,1361.07 2102.57,1361.09 2103.05,1361.1 2103.54,1361.11 2104.02,1361.13 2104.51,1361.14 2104.99,1361.16 
  2105.48,1361.17 2105.96,1361.18 2106.45,1361.2 2106.93,1361.21 2107.42,1361.23 2107.9,1361.24 2108.39,1361.25 2108.87,1361.27 2109.36,1361.28 2109.84,1361.3 
  2110.33,1361.31 2110.81,1361.32 2111.3,1361.34 2111.78,1361.35 2112.27,1361.37 2112.75,1361.38 2113.24,1361.39 2113.72,1361.41 2114.21,1361.42 2114.69,1361.44 
  2115.18,1361.45 2115.66,1361.46 2116.15,1361.48 2116.63,1361.49 2117.11,1361.5 2117.6,1361.52 2118.08,1361.53 2118.57,1361.55 2119.05,1361.56 2119.54,1361.57 
  2120.02,1361.59 2120.51,1361.6 2120.99,1361.61 2121.48,1361.63 2121.96,1361.64 2122.45,1361.66 2122.93,1361.67 2123.42,1361.68 2123.9,1361.7 2124.39,1361.71 
  2124.87,1361.72 2125.36,1361.74 2125.84,1361.75 2126.33,1361.77 2126.81,1361.78 2127.3,1361.79 2127.78,1361.81 2128.27,1361.82 2128.75,1361.83 2129.24,1361.85 
  2129.72,1361.86 2130.21,1361.87 2130.69,1361.89 2131.18,1361.9 2131.66,1361.91 2132.15,1361.93 2132.63,1361.94 2133.12,1361.96 2133.6,1361.97 2134.08,1361.98 
  2134.57,1362 2135.05,1362.01 2135.54,1362.02 2136.02,1362.04 2136.51,1362.05 2136.99,1362.06 2137.48,1362.08 2137.96,1362.09 2138.45,1362.1 2138.93,1362.12 
  2139.42,1362.13 2139.9,1362.14 2140.39,1362.16 2140.87,1362.17 2141.36,1362.18 2141.84,1362.2 2142.33,1362.21 2142.81,1362.22 2143.3,1362.24 2143.78,1362.25 
  2144.27,1362.26 2144.75,1362.28 2145.24,1362.29 2145.72,1362.3 2146.21,1362.32 2146.69,1362.33 2147.18,1362.34 2147.66,1362.36 2148.15,1362.37 2148.63,1362.38 
  2149.12,1362.4 2149.6,1362.41 2150.09,1362.42 2150.57,1362.44 2151.05,1362.45 2151.54,1362.46 2152.02,1362.48 2152.51,1362.49 2152.99,1362.5 2153.48,1362.52 
  2153.96,1362.53 2154.45,1362.54 2154.93,1362.56 2155.42,1362.57 2155.9,1362.58 2156.39,1362.6 2156.87,1362.61 2157.36,1362.62 2157.84,1362.64 2158.33,1362.65 
  2158.81,1362.66 2159.3,1362.68 2159.78,1362.69 2160.27,1362.7 2160.75,1362.71 2161.24,1362.73 2161.72,1362.74 2162.21,1362.75 2162.69,1362.77 2163.18,1362.78 
  2163.66,1362.79 2164.15,1362.81 2164.63,1362.82 2165.12,1362.83 2165.6,1362.85 2166.09,1362.86 2166.57,1362.87 2167.06,1362.88 2167.54,1362.9 2168.02,1362.91 
  2168.51,1362.92 2168.99,1362.94 2169.48,1362.95 2169.96,1362.96 2170.45,1362.98 2170.93,1362.99 2171.42,1363 2171.9,1363.01 2172.39,1363.03 2172.87,1363.04 
  2173.36,1363.05 2173.84,1363.07 2174.33,1363.08 2174.81,1363.09 2175.3,1363.1 2175.78,1363.12 2176.27,1363.13 2176.75,1363.14 2177.24,1363.16 2177.72,1363.17 
  2178.21,1363.18 2178.69,1363.19 2179.18,1363.21 2179.66,1363.22 2180.15,1363.23 2180.63,1363.25 2181.12,1363.26 2181.6,1363.27 2182.09,1363.28 2182.57,1363.3 
  2183.06,1363.31 2183.54,1363.32 2184.03,1363.34 2184.51,1363.35 2184.99,1363.36 2185.48,1363.37 2185.96,1363.39 2186.45,1363.4 2186.93,1363.41 2187.42,1363.42 
  2187.9,1363.44 2188.39,1363.45 2188.87,1363.46 2189.36,1363.48 2189.84,1363.49 2190.33,1363.5 2190.81,1363.51 2191.3,1363.53 2191.78,1363.54 2192.27,1363.55 
  2192.75,1363.56 2193.24,1363.58 2193.72,1363.59 2194.21,1363.6 2194.69,1363.61 2195.18,1363.63 2195.66,1363.64 2196.15,1363.65 2196.63,1363.67 2197.12,1363.68 
  2197.6,1363.69 2198.09,1363.7 2198.57,1363.72 2199.06,1363.73 2199.54,1363.74 2200.03,1363.75 2200.51,1363.77 2201,1363.78 2201.48,1363.79 2201.97,1363.8 
  2202.45,1363.82 2202.93,1363.83 2203.42,1363.84 2203.9,1363.85 2204.39,1363.87 2204.87,1363.88 2205.36,1363.89 2205.84,1363.9 2206.33,1363.92 2206.81,1363.93 
  2207.3,1363.94 2207.78,1363.95 2208.27,1363.97 2208.75,1363.98 2209.24,1363.99 2209.72,1364 2210.21,1364.01 2210.69,1364.03 2211.18,1364.04 2211.66,1364.05 
  2212.15,1364.06 2212.63,1364.08 2213.12,1364.09 2213.6,1364.1 2214.09,1364.11 2214.57,1364.13 2215.06,1364.14 2215.54,1364.15 2216.03,1364.16 2216.51,1364.18 
  2217,1364.19 2217.48,1364.2 2217.97,1364.21 2218.45,1364.22 2218.94,1364.24 2219.42,1364.25 2219.9,1364.26 2220.39,1364.27 2220.87,1364.29 2221.36,1364.3 
  2221.84,1364.31 2222.33,1364.32 2222.81,1364.33 2223.3,1364.35 2223.78,1364.36 2224.27,1364.37 2224.75,1364.38 2225.24,1364.4 2225.72,1364.41 2226.21,1364.42 
  2226.69,1364.43 2227.18,1364.44 2227.66,1364.46 2228.15,1364.47 2228.63,1364.48 2229.12,1364.49 2229.6,1364.5 2230.09,1364.52 2230.57,1364.53 2231.06,1364.54 
  2231.54,1364.55 2232.03,1364.57 2232.51,1364.58 2233,1364.59 2233.48,1364.6 2233.97,1364.61 2234.45,1364.63 2234.94,1364.64 2235.42,1364.65 2235.91,1364.66 
  2236.39,1364.67 2236.87,1364.69 2237.36,1364.7 2237.84,1364.71 2238.33,1364.72 2238.81,1364.73 2239.3,1364.75 2239.78,1364.76 2240.27,1364.77 2240.75,1364.78 
  2241.24,1364.79 2241.72,1364.81 2242.21,1364.82 2242.69,1364.83 2243.18,1364.84 2243.66,1364.85 2244.15,1364.87 2244.63,1364.88 2245.12,1364.89 2245.6,1364.9 
  2246.09,1364.91 2246.57,1364.92 2247.06,1364.94 2247.54,1364.95 2248.03,1364.96 2248.51,1364.97 2249,1364.98 2249.48,1365 2249.97,1365.01 2250.45,1365.02 
  2250.94,1365.03 2251.42,1365.04 2251.91,1365.05 2252.39,1365.07 2252.88,1365.08 2253.36,1365.09 2253.84,1365.1 2254.33,1365.11 2254.81,1365.13 2255.3,1365.14 
  2255.78,1365.15 
  "/>
<circle clip-path="url(#clip583)" cx="325.232" cy="86.6476" r="18" fill="#008000" fill-rule="evenodd" fill-opacity="1" stroke="#000000" stroke-opacity="1" stroke-width="3.2"/>
<path clip-path="url(#clip583)" d="
M442.175 854.477 L459.777 900.9 L477.378 940.285 L494.98 974.147 L512.582 1003.59 L530.184 1029.43 L547.785 1052.31 L565.387 1072.7 L582.989 1090.99 L600.591 1107.5 
  L618.192 1122.47 L635.794 1136.1 L653.396 1148.58 L670.998 1160.03 L688.599 1170.58 L706.201 1180.33 L723.803 1189.37 L741.405 1197.77 L759.006 1205.6 L776.608 1212.9 
  L794.21 1219.74 L811.812 1226.16 L829.413 1232.18 L847.015 1237.85 L864.617 1243.2 L882.219 1248.24 L899.82 1253.02 L917.422 1257.53 L935.024 1261.82 L952.626 1265.89 
  L970.227 1269.75 L987.829 1273.43 L1005.43 1276.94 L1023.03 1280.28 L1040.63 1283.47 L1058.24 1286.52 L1075.84 1289.44 L1093.44 1292.23 L1111.04 1294.9 L1128.64 1297.47 
  L1146.24 1299.93 L1163.85 1302.29 L1181.45 1304.56 L1199.05 1306.74 L1216.65 1308.84 L1234.25 1310.86 L1251.86 1312.81 L1269.46 1314.69 L1287.06 1316.5 L1304.66 1318.25 
  L1322.26 1319.94 L1339.86 1321.57 L1357.47 1323.14 L1375.07 1324.67 L1392.67 1326.14 L1410.27 1327.57 L1427.87 1328.95 L1445.47 1330.29 L1463.08 1331.59 L1480.68 1332.85 
  L1498.28 1334.07 L1515.88 1335.25 L1533.48 1336.4 L1551.09 1337.52 L1568.69 1338.6 L1586.29 1339.66 L1603.89 1340.68 L1621.49 1341.68 L1639.09 1342.65 L1656.7 1343.59 
  L1674.3 1344.51 L1691.9 1345.4 L1709.5 1346.28 L1727.1 1347.12 L1744.7 1347.95 L1762.31 1348.76 L1779.91 1349.54 L1797.51 1350.31 L1815.11 1351.06 L1832.71 1351.79 
  L1850.31 1352.5 L1867.92 1353.19 L1885.52 1353.87 L1903.12 1354.53 L1920.72 1355.18 L1938.32 1355.82 L1955.93 1356.43 L1973.53 1357.04 L1991.13 1357.63 L2008.73 1358.21 
  L2026.33 1358.77 L2043.93 1359.33 L2061.54 1359.87 L2079.14 1360.4 L2096.74 1360.92 L2114.34 1361.43 L2131.94 1361.92 L2149.54 1362.41 L2167.15 1362.89 L2184.75 1363.35 
  L2184.75 1400.1 L2167.15 1400.1 L2149.54 1400.1 L2131.94 1400.1 L2114.34 1400.1 L2096.74 1400.1 L2079.14 1400.1 L2061.54 1400.1 L2043.93 1400.1 L2026.33 1400.1 
  L2008.73 1400.1 L1991.13 1400.1 L1973.53 1400.1 L1955.93 1400.1 L1938.32 1400.1 L1920.72 1400.1 L1903.12 1400.1 L1885.52 1400.1 L1867.92 1400.1 L1850.31 1400.1 
  L1832.71 1400.1 L1815.11 1400.1 L1797.51 1400.1 L1779.91 1400.1 L1762.31 1400.1 L1744.7 1400.1 L1727.1 1400.1 L1709.5 1400.1 L1691.9 1400.1 L1674.3 1400.1 
  L1656.7 1400.1 L1639.09 1400.1 L1621.49 1400.1 L1603.89 1400.1 L1586.29 1400.1 L1568.69 1400.1 L1551.09 1400.1 L1533.48 1400.1 L1515.88 1400.1 L1498.28 1400.1 
  L1480.68 1400.1 L1463.08 1400.1 L1445.47 1400.1 L1427.87 1400.1 L1410.27 1400.1 L1392.67 1400.1 L1375.07 1400.1 L1357.47 1400.1 L1339.86 1400.1 L1322.26 1400.1 
  L1304.66 1400.1 L1287.06 1400.1 L1269.46 1400.1 L1251.86 1400.1 L1234.25 1400.1 L1216.65 1400.1 L1199.05 1400.1 L1181.45 1400.1 L1163.85 1400.1 L1146.24 1400.1 
  L1128.64 1400.1 L1111.04 1400.1 L1093.44 1400.1 L1075.84 1400.1 L1058.24 1400.1 L1040.63 1400.1 L1023.03 1400.1 L1005.43 1400.1 L987.829 1400.1 L970.227 1400.1 
  L952.626 1400.1 L935.024 1400.1 L917.422 1400.1 L899.82 1400.1 L882.219 1400.1 L864.617 1400.1 L847.015 1400.1 L829.413 1400.1 L811.812 1400.1 L794.21 1400.1 
  L776.608 1400.1 L759.006 1400.1 L741.405 1400.1 L723.803 1400.1 L706.201 1400.1 L688.599 1400.1 L670.998 1400.1 L653.396 1400.1 L635.794 1400.1 L618.192 1400.1 
  L600.591 1400.1 L582.989 1400.1 L565.387 1400.1 L547.785 1400.1 L530.184 1400.1 L512.582 1400.1 L494.98 1400.1 L477.378 1400.1 L459.777 1400.1 L442.175 1400.1 
   Z
  " fill="#add8e6" fill-rule="evenodd" fill-opacity="0.5"/>
<polyline clip-path="url(#clip583)" style="stroke:#000000; stroke-linecap:butt; stroke-linejoin:round; stroke-width:4; stroke-opacity:0; fill:none" points="
  442.175,854.477 459.777,900.9 477.378,940.285 494.98,974.147 512.582,1003.59 530.184,1029.43 547.785,1052.31 565.387,1072.7 582.989,1090.99 600.591,1107.5 
  618.192,1122.47 635.794,1136.1 653.396,1148.58 670.998,1160.03 688.599,1170.58 706.201,1180.33 723.803,1189.37 741.405,1197.77 759.006,1205.6 776.608,1212.9 
  794.21,1219.74 811.812,1226.16 829.413,1232.18 847.015,1237.85 864.617,1243.2 882.219,1248.24 899.82,1253.02 917.422,1257.53 935.024,1261.82 952.626,1265.89 
  970.227,1269.75 987.829,1273.43 1005.43,1276.94 1023.03,1280.28 1040.63,1283.47 1058.24,1286.52 1075.84,1289.44 1093.44,1292.23 1111.04,1294.9 1128.64,1297.47 
  1146.24,1299.93 1163.85,1302.29 1181.45,1304.56 1199.05,1306.74 1216.65,1308.84 1234.25,1310.86 1251.86,1312.81 1269.46,1314.69 1287.06,1316.5 1304.66,1318.25 
  1322.26,1319.94 1339.86,1321.57 1357.47,1323.14 1375.07,1324.67 1392.67,1326.14 1410.27,1327.57 1427.87,1328.95 1445.47,1330.29 1463.08,1331.59 1480.68,1332.85 
  1498.28,1334.07 1515.88,1335.25 1533.48,1336.4 1551.09,1337.52 1568.69,1338.6 1586.29,1339.66 1603.89,1340.68 1621.49,1341.68 1639.09,1342.65 1656.7,1343.59 
  1674.3,1344.51 1691.9,1345.4 1709.5,1346.28 1727.1,1347.12 1744.7,1347.95 1762.31,1348.76 1779.91,1349.54 1797.51,1350.31 1815.11,1351.06 1832.71,1351.79 
  1850.31,1352.5 1867.92,1353.19 1885.52,1353.87 1903.12,1354.53 1920.72,1355.18 1938.32,1355.82 1955.93,1356.43 1973.53,1357.04 1991.13,1357.63 2008.73,1358.21 
  2026.33,1358.77 2043.93,1359.33 2061.54,1359.87 2079.14,1360.4 2096.74,1360.92 2114.34,1361.43 2131.94,1361.92 2149.54,1362.41 2167.15,1362.89 2184.75,1363.35 
  
  "/>
</svg>
