<?xml version="1.0" encoding="utf-8"?>
<svg xmlns="http://www.w3.org/2000/svg" xmlns:xlink="http://www.w3.org/1999/xlink" width="600" height="400" viewBox="0 0 2400 1600">
<defs>
  <clipPath id="clip610">
    <rect x="0" y="0" width="2400" height="1600"/>
  </clipPath>
</defs>
<path clip-path="url(#clip610)" d="
M0 1600 L2400 1600 L2400 0 L0 0  Z
  " fill="#ffffff" fill-rule="evenodd" fill-opacity="1"/>
<defs>
  <clipPath id="clip611">
    <rect x="480" y="0" width="1681" height="1600"/>
  </clipPath>
</defs>
<defs>
  <clipPath id="clip612">
    <rect x="219" y="47" width="2134" height="1393"/>
  </clipPath>
</defs>
<path clip-path="url(#clip610)" d="
M249.542 1439.5 L2352.76 1439.5 L2352.76 47.2441 L249.542 47.2441  Z
  " fill="#ffffff" fill-rule="evenodd" fill-opacity="1"/>
<defs>
  <clipPath id="clip613">
    <rect x="249" y="47" width="2104" height="1393"/>
  </clipPath>
</defs>
<polyline clip-path="url(#clip613)" style="stroke:#000000; stroke-linecap:butt; stroke-linejoin:round; stroke-width:2; stroke-opacity:0.1; fill:none" points="
  512.444,1439.5 512.444,47.2441 
  "/>
<polyline clip-path="url(#clip613)" style="stroke:#000000; stroke-linecap:butt; stroke-linejoin:round; stroke-width:2; stroke-opacity:0.1; fill:none" points="
  1169.7,1439.5 1169.7,47.2441 
  "/>
<polyline clip-path="url(#clip613)" style="stroke:#000000; stroke-linecap:butt; stroke-linejoin:round; stroke-width:2; stroke-opacity:0.1; fill:none" points="
  1826.95,1439.5 1826.95,47.2441 
  "/>
<polyline clip-path="url(#clip610)" style="stroke:#000000; stroke-linecap:butt; stroke-linejoin:round; stroke-width:4; stroke-opacity:1; fill:none" points="
  249.542,1439.5 2352.76,1439.5 
  "/>
<polyline clip-path="url(#clip610)" style="stroke:#000000; stroke-linecap:butt; stroke-linejoin:round; stroke-width:4; stroke-opacity:1; fill:none" points="
  512.444,1439.5 512.444,1420.6 
  "/>
<polyline clip-path="url(#clip610)" style="stroke:#000000; stroke-linecap:butt; stroke-linejoin:round; stroke-width:4; stroke-opacity:1; fill:none" points="
  1169.7,1439.5 1169.7,1420.6 
  "/>
<polyline clip-path="url(#clip610)" style="stroke:#000000; stroke-linecap:butt; stroke-linejoin:round; stroke-width:4; stroke-opacity:1; fill:none" points="
  1826.95,1439.5 1826.95,1420.6 
  "/>
<path clip-path="url(#clip610)" d="M512.444 1468.69 Q508.833 1468.69 507.004 1472.26 Q505.198 1475.8 505.198 1482.93 Q505.198 1490.04 507.004 1493.6 Q508.833 1497.14 512.444 1497.14 Q516.078 1497.14 517.884 1493.6 Q519.712 1490.04 519.712 1482.93 Q519.712 1475.8 517.884 1472.26 Q516.078 1468.69 512.444 1468.69 M512.444 1464.99 Q518.254 1464.99 521.309 1469.6 Q524.388 1474.18 524.388 1482.93 Q524.388 1491.66 521.309 1496.26 Q518.254 1500.85 512.444 1500.85 Q506.634 1500.85 503.555 1496.26 Q500.499 1491.66 500.499 1482.93 Q500.499 1474.18 503.555 1469.6 Q506.634 1464.99 512.444 1464.99 Z" fill="#000000" fill-rule="evenodd" fill-opacity="1" /><path clip-path="url(#clip610)" d="M1159.98 1465.61 L1178.33 1465.61 L1178.33 1469.55 L1164.26 1469.55 L1164.26 1478.02 Q1165.28 1477.67 1166.3 1477.51 Q1167.31 1477.33 1168.33 1477.33 Q1174.12 1477.33 1177.5 1480.5 Q1180.88 1483.67 1180.88 1489.09 Q1180.88 1494.66 1177.41 1497.77 Q1173.93 1500.85 1167.61 1500.85 Q1165.44 1500.85 1163.17 1500.47 Q1160.93 1500.1 1158.52 1499.36 L1158.52 1494.66 Q1160.6 1495.8 1162.82 1496.35 Q1165.05 1496.91 1167.52 1496.91 Q1171.53 1496.91 1173.86 1494.8 Q1176.2 1492.7 1176.2 1489.09 Q1176.2 1485.47 1173.86 1483.37 Q1171.53 1481.26 1167.52 1481.26 Q1165.65 1481.26 1163.77 1481.68 Q1161.92 1482.1 1159.98 1482.97 L1159.98 1465.61 Z" fill="#000000" fill-rule="evenodd" fill-opacity="1" /><path clip-path="url(#clip610)" d="M1801.64 1496.24 L1809.28 1496.24 L1809.28 1469.87 L1800.97 1471.54 L1800.97 1467.28 L1809.23 1465.61 L1813.91 1465.61 L1813.91 1496.24 L1821.55 1496.24 L1821.55 1500.17 L1801.64 1500.17 L1801.64 1496.24 Z" fill="#000000" fill-rule="evenodd" fill-opacity="1" /><path clip-path="url(#clip610)" d="M1840.99 1468.69 Q1837.38 1468.69 1835.55 1472.26 Q1833.75 1475.8 1833.75 1482.93 Q1833.75 1490.04 1835.55 1493.6 Q1837.38 1497.14 1840.99 1497.14 Q1844.63 1497.14 1846.43 1493.6 Q1848.26 1490.04 1848.26 1482.93 Q1848.26 1475.8 1846.43 1472.26 Q1844.63 1468.69 1840.99 1468.69 M1840.99 1464.99 Q1846.8 1464.99 1849.86 1469.6 Q1852.94 1474.18 1852.94 1482.93 Q1852.94 1491.66 1849.86 1496.26 Q1846.8 1500.85 1840.99 1500.85 Q1835.18 1500.85 1832.1 1496.26 Q1829.05 1491.66 1829.05 1482.93 Q1829.05 1474.18 1832.1 1469.6 Q1835.18 1464.99 1840.99 1464.99 Z" fill="#000000" fill-rule="evenodd" fill-opacity="1" /><path clip-path="url(#clip610)" d="M1313.08 1535.75 Q1313.08 1541.16 1311.34 1547.24 Q1309.64 1553.3 1306.93 1558.19 Q1304.23 1563.06 1300.68 1566.28 Q1297.14 1569.47 1293.76 1569.47 Q1291.6 1569.47 1289.99 1568.27 Q1288.41 1567.05 1287.54 1565.02 Q1286.68 1562.96 1286.26 1560.71 Q1285.84 1558.42 1285.84 1555.94 Q1285.84 1552.24 1286.64 1548.21 Q1287.45 1544.15 1288.8 1540.48 Q1290.15 1536.78 1292.05 1533.43 Q1293.95 1530.05 1296.05 1527.6 Q1298.17 1525.12 1300.56 1523.67 Q1302.94 1522.22 1305.16 1522.22 Q1306.77 1522.22 1308.06 1522.93 Q1309.38 1523.6 1310.22 1524.8 Q1311.05 1525.96 1311.63 1527.34 Q1312.25 1528.73 1312.54 1530.34 Q1312.83 1531.91 1312.96 1533.23 Q1313.08 1534.52 1313.08 1535.75 M1308.74 1531.66 Q1308.74 1530.01 1308.61 1528.79 Q1308.48 1527.53 1308.12 1526.28 Q1307.77 1525.02 1307 1524.35 Q1306.26 1523.67 1305.1 1523.67 Q1301.72 1523.67 1297.91 1530.59 Q1296.69 1532.75 1295.6 1535.68 Q1294.5 1538.61 1294.11 1540 Q1293.73 1541.38 1292.83 1544.8 L1306.61 1544.8 Q1308.74 1536 1308.74 1531.66 M1306.03 1546.89 L1292.31 1546.89 Q1290.19 1554.94 1290.19 1559.96 Q1290.19 1564.34 1291.09 1566.18 Q1292.02 1567.98 1293.76 1567.98 Q1295.76 1567.98 1297.63 1565.99 Q1299.49 1563.96 1301.39 1560.29 Q1303.91 1555.52 1306.03 1546.89 Z" fill="#000000" fill-rule="evenodd" fill-opacity="1" /><polyline clip-path="url(#clip613)" style="stroke:#000000; stroke-linecap:butt; stroke-linejoin:round; stroke-width:2; stroke-opacity:0.1; fill:none" points="
  249.542,1400.1 2352.76,1400.1 
  "/>
<polyline clip-path="url(#clip613)" style="stroke:#000000; stroke-linecap:butt; stroke-linejoin:round; stroke-width:2; stroke-opacity:0.1; fill:none" points="
  249.542,1125.74 2352.76,1125.74 
  "/>
<polyline clip-path="url(#clip613)" style="stroke:#000000; stroke-linecap:butt; stroke-linejoin:round; stroke-width:2; stroke-opacity:0.1; fill:none" points="
  249.542,851.376 2352.76,851.376 
  "/>
<polyline clip-path="url(#clip613)" style="stroke:#000000; stroke-linecap:butt; stroke-linejoin:round; stroke-width:2; stroke-opacity:0.1; fill:none" points="
  249.542,577.015 2352.76,577.015 
  "/>
<polyline clip-path="url(#clip613)" style="stroke:#000000; stroke-linecap:butt; stroke-linejoin:round; stroke-width:2; stroke-opacity:0.1; fill:none" points="
  249.542,302.654 2352.76,302.654 
  "/>
<polyline clip-path="url(#clip610)" style="stroke:#000000; stroke-linecap:butt; stroke-linejoin:round; stroke-width:4; stroke-opacity:1; fill:none" points="
  249.542,1439.5 249.542,47.2441 
  "/>
<polyline clip-path="url(#clip610)" style="stroke:#000000; stroke-linecap:butt; stroke-linejoin:round; stroke-width:4; stroke-opacity:1; fill:none" points="
  249.542,1400.1 268.44,1400.1 
  "/>
<polyline clip-path="url(#clip610)" style="stroke:#000000; stroke-linecap:butt; stroke-linejoin:round; stroke-width:4; stroke-opacity:1; fill:none" points="
  249.542,1125.74 268.44,1125.74 
  "/>
<polyline clip-path="url(#clip610)" style="stroke:#000000; stroke-linecap:butt; stroke-linejoin:round; stroke-width:4; stroke-opacity:1; fill:none" points="
  249.542,851.376 268.44,851.376 
  "/>
<polyline clip-path="url(#clip610)" style="stroke:#000000; stroke-linecap:butt; stroke-linejoin:round; stroke-width:4; stroke-opacity:1; fill:none" points="
  249.542,577.015 268.44,577.015 
  "/>
<polyline clip-path="url(#clip610)" style="stroke:#000000; stroke-linecap:butt; stroke-linejoin:round; stroke-width:4; stroke-opacity:1; fill:none" points="
  249.542,302.654 268.44,302.654 
  "/>
<path clip-path="url(#clip610)" d="M126.205 1385.9 Q122.593 1385.9 120.765 1389.46 Q118.959 1393 118.959 1400.13 Q118.959 1407.24 120.765 1410.8 Q122.593 1414.35 126.205 1414.35 Q129.839 1414.35 131.644 1410.8 Q133.473 1407.24 133.473 1400.13 Q133.473 1393 131.644 1389.46 Q129.839 1385.9 126.205 1385.9 M126.205 1382.19 Q132.015 1382.19 135.07 1386.8 Q138.149 1391.38 138.149 1400.13 Q138.149 1408.86 135.07 1413.47 Q132.015 1418.05 126.205 1418.05 Q120.394 1418.05 117.316 1413.47 Q114.26 1408.86 114.26 1400.13 Q114.26 1391.38 117.316 1386.8 Q120.394 1382.19 126.205 1382.19 Z" fill="#000000" fill-rule="evenodd" fill-opacity="1" /><path clip-path="url(#clip610)" d="M146.366 1411.5 L151.251 1411.5 L151.251 1417.38 L146.366 1417.38 L146.366 1411.5 Z" fill="#000000" fill-rule="evenodd" fill-opacity="1" /><path clip-path="url(#clip610)" d="M171.436 1385.9 Q167.825 1385.9 165.996 1389.46 Q164.19 1393 164.19 1400.13 Q164.19 1407.24 165.996 1410.8 Q167.825 1414.35 171.436 1414.35 Q175.07 1414.35 176.876 1410.8 Q178.704 1407.24 178.704 1400.13 Q178.704 1393 176.876 1389.46 Q175.07 1385.9 171.436 1385.9 M171.436 1382.19 Q177.246 1382.19 180.301 1386.8 Q183.38 1391.38 183.38 1400.13 Q183.38 1408.86 180.301 1413.47 Q177.246 1418.05 171.436 1418.05 Q165.626 1418.05 162.547 1413.47 Q159.491 1408.86 159.491 1400.13 Q159.491 1391.38 162.547 1386.8 Q165.626 1382.19 171.436 1382.19 Z" fill="#000000" fill-rule="evenodd" fill-opacity="1" /><path clip-path="url(#clip610)" d="M201.598 1385.9 Q197.987 1385.9 196.158 1389.46 Q194.352 1393 194.352 1400.13 Q194.352 1407.24 196.158 1410.8 Q197.987 1414.35 201.598 1414.35 Q205.232 1414.35 207.037 1410.8 Q208.866 1407.24 208.866 1400.13 Q208.866 1393 207.037 1389.46 Q205.232 1385.9 201.598 1385.9 M201.598 1382.19 Q207.408 1382.19 210.463 1386.8 Q213.542 1391.38 213.542 1400.13 Q213.542 1408.86 210.463 1413.47 Q207.408 1418.05 201.598 1418.05 Q195.787 1418.05 192.709 1413.47 Q189.653 1408.86 189.653 1400.13 Q189.653 1391.38 192.709 1386.8 Q195.787 1382.19 201.598 1382.19 Z" fill="#000000" fill-rule="evenodd" fill-opacity="1" /><path clip-path="url(#clip610)" d="M127.2 1111.54 Q123.589 1111.54 121.76 1115.1 Q119.955 1118.64 119.955 1125.77 Q119.955 1132.88 121.76 1136.44 Q123.589 1139.98 127.2 1139.98 Q130.834 1139.98 132.64 1136.44 Q134.468 1132.88 134.468 1125.77 Q134.468 1118.64 132.64 1115.1 Q130.834 1111.54 127.2 1111.54 M127.2 1107.83 Q133.01 1107.83 136.066 1112.44 Q139.144 1117.02 139.144 1125.77 Q139.144 1134.5 136.066 1139.11 Q133.01 1143.69 127.2 1143.69 Q121.39 1143.69 118.311 1139.11 Q115.256 1134.5 115.256 1125.77 Q115.256 1117.02 118.311 1112.44 Q121.39 1107.83 127.2 1107.83 Z" fill="#000000" fill-rule="evenodd" fill-opacity="1" /><path clip-path="url(#clip610)" d="M147.362 1137.14 L152.246 1137.14 L152.246 1143.02 L147.362 1143.02 L147.362 1137.14 Z" fill="#000000" fill-rule="evenodd" fill-opacity="1" /><path clip-path="url(#clip610)" d="M172.431 1111.54 Q168.82 1111.54 166.991 1115.1 Q165.186 1118.64 165.186 1125.77 Q165.186 1132.88 166.991 1136.44 Q168.82 1139.98 172.431 1139.98 Q176.065 1139.98 177.871 1136.44 Q179.7 1132.88 179.7 1125.77 Q179.7 1118.64 177.871 1115.1 Q176.065 1111.54 172.431 1111.54 M172.431 1107.83 Q178.241 1107.83 181.297 1112.44 Q184.376 1117.02 184.376 1125.77 Q184.376 1134.5 181.297 1139.11 Q178.241 1143.69 172.431 1143.69 Q166.621 1143.69 163.542 1139.11 Q160.487 1134.5 160.487 1125.77 Q160.487 1117.02 163.542 1112.44 Q166.621 1107.83 172.431 1107.83 Z" fill="#000000" fill-rule="evenodd" fill-opacity="1" /><path clip-path="url(#clip610)" d="M192.639 1108.46 L210.996 1108.46 L210.996 1112.39 L196.922 1112.39 L196.922 1120.86 Q197.94 1120.52 198.959 1120.36 Q199.977 1120.17 200.996 1120.17 Q206.783 1120.17 210.162 1123.34 Q213.542 1126.51 213.542 1131.93 Q213.542 1137.51 210.07 1140.61 Q206.598 1143.69 200.278 1143.69 Q198.102 1143.69 195.834 1143.32 Q193.588 1142.95 191.181 1142.21 L191.181 1137.51 Q193.264 1138.64 195.487 1139.2 Q197.709 1139.75 200.186 1139.75 Q204.19 1139.75 206.528 1137.65 Q208.866 1135.54 208.866 1131.93 Q208.866 1128.32 206.528 1126.21 Q204.19 1124.11 200.186 1124.11 Q198.311 1124.11 196.436 1124.52 Q194.584 1124.94 192.639 1125.82 L192.639 1108.46 Z" fill="#000000" fill-rule="evenodd" fill-opacity="1" /><path clip-path="url(#clip610)" d="M126.205 837.175 Q122.593 837.175 120.765 840.74 Q118.959 844.281 118.959 851.411 Q118.959 858.517 120.765 862.082 Q122.593 865.624 126.205 865.624 Q129.839 865.624 131.644 862.082 Q133.473 858.517 133.473 851.411 Q133.473 844.281 131.644 840.74 Q129.839 837.175 126.205 837.175 M126.205 833.471 Q132.015 833.471 135.07 838.078 Q138.149 842.661 138.149 851.411 Q138.149 860.138 135.07 864.744 Q132.015 869.328 126.205 869.328 Q120.394 869.328 117.316 864.744 Q114.26 860.138 114.26 851.411 Q114.26 842.661 117.316 838.078 Q120.394 833.471 126.205 833.471 Z" fill="#000000" fill-rule="evenodd" fill-opacity="1" /><path clip-path="url(#clip610)" d="M146.366 862.777 L151.251 862.777 L151.251 868.656 L146.366 868.656 L146.366 862.777 Z" fill="#000000" fill-rule="evenodd" fill-opacity="1" /><path clip-path="url(#clip610)" d="M162.246 864.721 L169.885 864.721 L169.885 838.355 L161.575 840.022 L161.575 835.763 L169.839 834.096 L174.514 834.096 L174.514 864.721 L182.153 864.721 L182.153 868.656 L162.246 868.656 L162.246 864.721 Z" fill="#000000" fill-rule="evenodd" fill-opacity="1" /><path clip-path="url(#clip610)" d="M201.598 837.175 Q197.987 837.175 196.158 840.74 Q194.352 844.281 194.352 851.411 Q194.352 858.517 196.158 862.082 Q197.987 865.624 201.598 865.624 Q205.232 865.624 207.037 862.082 Q208.866 858.517 208.866 851.411 Q208.866 844.281 207.037 840.74 Q205.232 837.175 201.598 837.175 M201.598 833.471 Q207.408 833.471 210.463 838.078 Q213.542 842.661 213.542 851.411 Q213.542 860.138 210.463 864.744 Q207.408 869.328 201.598 869.328 Q195.787 869.328 192.709 864.744 Q189.653 860.138 189.653 851.411 Q189.653 842.661 192.709 838.078 Q195.787 833.471 201.598 833.471 Z" fill="#000000" fill-rule="evenodd" fill-opacity="1" /><path clip-path="url(#clip610)" d="M127.2 562.814 Q123.589 562.814 121.76 566.379 Q119.955 569.92 119.955 577.05 Q119.955 584.156 121.76 587.721 Q123.589 591.263 127.2 591.263 Q130.834 591.263 132.64 587.721 Q134.468 584.156 134.468 577.05 Q134.468 569.92 132.64 566.379 Q130.834 562.814 127.2 562.814 M127.2 559.11 Q133.01 559.11 136.066 563.717 Q139.144 568.3 139.144 577.05 Q139.144 585.777 136.066 590.383 Q133.01 594.966 127.2 594.966 Q121.39 594.966 118.311 590.383 Q115.256 585.777 115.256 577.05 Q115.256 568.3 118.311 563.717 Q121.39 559.11 127.2 559.11 Z" fill="#000000" fill-rule="evenodd" fill-opacity="1" /><path clip-path="url(#clip610)" d="M147.362 588.416 L152.246 588.416 L152.246 594.295 L147.362 594.295 L147.362 588.416 Z" fill="#000000" fill-rule="evenodd" fill-opacity="1" /><path clip-path="url(#clip610)" d="M163.241 590.36 L170.88 590.36 L170.88 563.994 L162.57 565.661 L162.57 561.402 L170.834 559.735 L175.51 559.735 L175.51 590.36 L183.149 590.36 L183.149 594.295 L163.241 594.295 L163.241 590.36 Z" fill="#000000" fill-rule="evenodd" fill-opacity="1" /><path clip-path="url(#clip610)" d="M192.639 559.735 L210.996 559.735 L210.996 563.67 L196.922 563.67 L196.922 572.143 Q197.94 571.795 198.959 571.633 Q199.977 571.448 200.996 571.448 Q206.783 571.448 210.162 574.619 Q213.542 577.791 213.542 583.207 Q213.542 588.786 210.07 591.888 Q206.598 594.966 200.278 594.966 Q198.102 594.966 195.834 594.596 Q193.588 594.226 191.181 593.485 L191.181 588.786 Q193.264 589.92 195.487 590.476 Q197.709 591.031 200.186 591.031 Q204.19 591.031 206.528 588.925 Q208.866 586.818 208.866 583.207 Q208.866 579.596 206.528 577.49 Q204.19 575.383 200.186 575.383 Q198.311 575.383 196.436 575.8 Q194.584 576.217 192.639 577.096 L192.639 559.735 Z" fill="#000000" fill-rule="evenodd" fill-opacity="1" /><path clip-path="url(#clip610)" d="M126.205 288.453 Q122.593 288.453 120.765 292.018 Q118.959 295.559 118.959 302.689 Q118.959 309.795 120.765 313.36 Q122.593 316.902 126.205 316.902 Q129.839 316.902 131.644 313.36 Q133.473 309.795 133.473 302.689 Q133.473 295.559 131.644 292.018 Q129.839 288.453 126.205 288.453 M126.205 284.749 Q132.015 284.749 135.07 289.356 Q138.149 293.939 138.149 302.689 Q138.149 311.416 135.07 316.022 Q132.015 320.605 126.205 320.605 Q120.394 320.605 117.316 316.022 Q114.26 311.416 114.26 302.689 Q114.26 293.939 117.316 289.356 Q120.394 284.749 126.205 284.749 Z" fill="#000000" fill-rule="evenodd" fill-opacity="1" /><path clip-path="url(#clip610)" d="M146.366 314.055 L151.251 314.055 L151.251 319.934 L146.366 319.934 L146.366 314.055 Z" fill="#000000" fill-rule="evenodd" fill-opacity="1" /><path clip-path="url(#clip610)" d="M165.464 315.999 L181.783 315.999 L181.783 319.934 L159.839 319.934 L159.839 315.999 Q162.501 313.244 167.084 308.615 Q171.69 303.962 172.871 302.619 Q175.116 300.096 175.996 298.36 Q176.899 296.601 176.899 294.911 Q176.899 292.156 174.954 290.42 Q173.033 288.684 169.931 288.684 Q167.732 288.684 165.278 289.448 Q162.848 290.212 160.07 291.763 L160.07 287.041 Q162.894 285.907 165.348 285.328 Q167.802 284.749 169.839 284.749 Q175.209 284.749 178.403 287.434 Q181.598 290.119 181.598 294.61 Q181.598 296.74 180.788 298.661 Q180.001 300.559 177.894 303.152 Q177.315 303.823 174.214 307.041 Q171.112 310.235 165.464 315.999 Z" fill="#000000" fill-rule="evenodd" fill-opacity="1" /><path clip-path="url(#clip610)" d="M201.598 288.453 Q197.987 288.453 196.158 292.018 Q194.352 295.559 194.352 302.689 Q194.352 309.795 196.158 313.36 Q197.987 316.902 201.598 316.902 Q205.232 316.902 207.037 313.36 Q208.866 309.795 208.866 302.689 Q208.866 295.559 207.037 292.018 Q205.232 288.453 201.598 288.453 M201.598 284.749 Q207.408 284.749 210.463 289.356 Q213.542 293.939 213.542 302.689 Q213.542 311.416 210.463 316.022 Q207.408 320.605 201.598 320.605 Q195.787 320.605 192.709 316.022 Q189.653 311.416 189.653 302.689 Q189.653 293.939 192.709 289.356 Q195.787 284.749 201.598 284.749 Z" fill="#000000" fill-rule="evenodd" fill-opacity="1" /><path clip-path="url(#clip610)" d="M21.7677 856.683 L58.7206 856.683 L58.7206 848.916 Q58.7206 839.081 54.2646 834.53 Q49.8086 829.947 40.1964 829.947 Q30.6479 829.947 26.2237 834.53 Q21.7677 839.081 21.7677 848.916 L21.7677 856.683 M16.4842 863.112 L16.4842 849.903 Q16.4842 836.09 22.2451 829.628 Q27.9743 823.167 40.1964 823.167 Q52.4822 823.167 58.2432 829.66 Q64.0042 836.153 64.0042 849.903 L64.0042 863.112 L16.4842 863.112 Z" fill="#000000" fill-rule="evenodd" fill-opacity="1" /><path clip-path="url(#clip610)" d="M44.7161 782.681 L47.5806 782.681 L47.5806 809.608 Q53.6281 809.226 56.8109 805.98 Q59.9619 802.701 59.9619 796.877 Q59.9619 793.503 59.1344 790.352 Q58.3069 787.169 56.6518 784.05 L62.1899 784.05 Q63.5267 787.201 64.227 790.511 Q64.9272 793.821 64.9272 797.227 Q64.9272 805.757 59.9619 810.754 Q54.9967 815.719 46.5303 815.719 Q37.7774 815.719 32.6531 811.009 Q27.4968 806.266 27.4968 798.245 Q27.4968 791.052 32.1438 786.883 Q36.7589 782.681 44.7161 782.681 M42.9973 788.538 Q38.1912 788.601 35.3266 791.243 Q32.4621 793.853 32.4621 798.182 Q32.4621 803.083 35.2312 806.043 Q38.0002 808.972 43.0292 809.417 L42.9973 788.538 Z" fill="#000000" fill-rule="evenodd" fill-opacity="1" /><path clip-path="url(#clip610)" d="M42.4881 743.437 L64.0042 743.437 L64.0042 749.293 L42.679 749.293 Q37.6183 749.293 35.1038 751.266 Q32.5894 753.24 32.5894 757.187 Q32.5894 761.929 35.6131 764.666 Q38.6368 767.404 43.8567 767.404 L64.0042 767.404 L64.0042 773.292 L28.3562 773.292 L28.3562 767.404 L33.8944 767.404 Q30.6797 765.303 29.0883 762.47 Q27.4968 759.606 27.4968 755.882 Q27.4968 749.739 31.3163 746.588 Q35.1038 743.437 42.4881 743.437 Z" fill="#000000" fill-rule="evenodd" fill-opacity="1" /><path clip-path="url(#clip610)" d="M29.4065 709.03 L34.9447 709.03 Q33.6716 711.513 33.035 714.186 Q32.3984 716.86 32.3984 719.724 Q32.3984 724.085 33.7352 726.281 Q35.072 728.445 37.7456 728.445 Q39.7826 728.445 40.9603 726.886 Q42.1061 725.326 43.1565 720.616 L43.6021 718.61 Q44.9389 712.372 47.3897 709.762 Q49.8086 707.12 54.1691 707.12 Q59.1344 707.12 62.0308 711.067 Q64.9272 714.982 64.9272 721.857 Q64.9272 724.721 64.3543 727.841 Q63.8132 730.928 62.6992 734.366 L56.6518 734.366 Q58.3387 731.119 59.198 727.968 Q60.0256 724.817 60.0256 721.73 Q60.0256 717.592 58.6251 715.364 Q57.1929 713.136 54.6147 713.136 Q52.2276 713.136 50.9545 714.759 Q49.6813 716.351 48.5037 721.793 L48.0262 723.83 Q46.8804 729.273 44.5251 731.692 Q42.138 734.111 38.0002 734.111 Q32.9713 734.111 30.2341 730.546 Q27.4968 726.981 27.4968 720.425 Q27.4968 717.178 27.9743 714.314 Q28.4517 711.449 29.4065 709.03 Z" fill="#000000" fill-rule="evenodd" fill-opacity="1" /><path clip-path="url(#clip610)" d="M28.3562 697.795 L28.3562 691.938 L64.0042 691.938 L64.0042 697.795 L28.3562 697.795 M14.479 697.795 L14.479 691.938 L21.895 691.938 L21.895 697.795 L14.479 697.795 Z" fill="#000000" fill-rule="evenodd" fill-opacity="1" /><path clip-path="url(#clip610)" d="M18.2347 673.891 L28.3562 673.891 L28.3562 661.828 L32.9077 661.828 L32.9077 673.891 L52.2594 673.891 Q56.6199 673.891 57.8613 672.714 Q59.1026 671.504 59.1026 667.844 L59.1026 661.828 L64.0042 661.828 L64.0042 667.844 Q64.0042 674.623 61.4897 677.201 Q58.9434 679.78 52.2594 679.78 L32.9077 679.78 L32.9077 684.076 L28.3562 684.076 L28.3562 679.78 L18.2347 679.78 L18.2347 673.891 Z" fill="#000000" fill-rule="evenodd" fill-opacity="1" /><path clip-path="url(#clip610)" d="M67.3143 639.294 Q73.68 641.776 75.6216 644.132 Q77.5631 646.487 77.5631 650.434 L77.5631 655.112 L72.6615 655.112 L72.6615 651.675 Q72.6615 649.256 71.5157 647.919 Q70.3699 646.582 66.1048 644.959 L63.4312 643.909 L28.3562 658.327 L28.3562 652.121 L56.238 640.981 L28.3562 629.841 L28.3562 623.634 L67.3143 639.294 Z" fill="#000000" fill-rule="evenodd" fill-opacity="1" /><polyline clip-path="url(#clip613)" style="stroke:#009af9; stroke-linecap:butt; stroke-linejoin:round; stroke-width:12; stroke-opacity:1; fill:none" points="
  249.542,1399.66 250.857,1399.64 252.171,1399.62 253.486,1399.6 254.8,1399.58 256.115,1399.56 257.429,1399.54 258.744,1399.52 260.058,1399.49 261.373,1399.47 
  262.687,1399.44 264.002,1399.42 265.316,1399.39 266.631,1399.36 267.945,1399.33 269.26,1399.3 270.574,1399.27 271.889,1399.24 273.203,1399.21 274.518,1399.17 
  275.832,1399.14 277.147,1399.1 278.461,1399.06 279.776,1399.02 281.09,1398.98 282.405,1398.94 283.719,1398.89 285.034,1398.85 286.348,1398.8 287.663,1398.75 
  288.977,1398.7 290.292,1398.65 291.606,1398.59 292.921,1398.54 294.235,1398.48 295.55,1398.42 296.864,1398.36 298.179,1398.29 299.493,1398.22 300.808,1398.16 
  302.122,1398.08 303.437,1398.01 304.751,1397.93 306.066,1397.86 307.38,1397.77 308.695,1397.69 310.009,1397.6 311.324,1397.51 312.638,1397.42 313.953,1397.32 
  315.267,1397.23 316.582,1397.12 317.896,1397.02 319.211,1396.91 320.526,1396.8 321.84,1396.68 323.155,1396.56 324.469,1396.44 325.784,1396.31 327.098,1396.18 
  328.413,1396.04 329.727,1395.9 331.042,1395.76 332.356,1395.61 333.671,1395.45 334.985,1395.3 336.3,1395.13 337.614,1394.96 338.929,1394.79 340.243,1394.61 
  341.558,1394.43 342.872,1394.24 344.187,1394.04 345.501,1393.84 346.816,1393.63 348.13,1393.42 349.445,1393.2 350.759,1392.97 352.074,1392.74 353.388,1392.5 
  354.703,1392.25 356.017,1391.99 357.332,1391.73 358.646,1391.46 359.961,1391.18 361.275,1390.9 362.59,1390.6 363.904,1390.3 365.219,1389.99 366.533,1389.67 
  367.848,1389.34 369.162,1389 370.477,1388.66 371.791,1388.3 373.106,1387.93 374.42,1387.56 375.735,1387.17 377.049,1386.77 378.364,1386.36 379.678,1385.94 
  380.993,1385.51 382.307,1385.06 383.622,1384.61 384.936,1384.14 386.251,1383.66 387.565,1383.17 388.88,1382.66 390.194,1382.14 391.509,1381.61 392.823,1381.06 
  394.138,1380.5 395.452,1379.93 396.767,1379.33 398.082,1378.73 399.396,1378.11 400.711,1377.47 402.025,1376.82 403.34,1376.15 404.654,1375.46 405.969,1374.76 
  407.283,1374.04 408.598,1373.3 409.912,1372.54 411.227,1371.77 412.541,1370.97 413.856,1370.16 415.17,1369.33 416.485,1368.47 417.799,1367.6 419.114,1366.7 
  420.428,1365.79 421.743,1364.85 423.057,1363.89 424.372,1362.91 425.686,1361.91 427.001,1360.88 428.315,1359.83 429.63,1358.75 430.944,1357.65 432.259,1356.53 
  433.573,1355.38 434.888,1354.2 436.202,1353 437.517,1351.77 438.831,1350.52 440.146,1349.23 441.46,1347.92 442.775,1346.58 444.089,1345.21 445.404,1343.82 
  446.718,1342.39 448.033,1340.93 449.347,1339.44 450.662,1337.92 451.976,1336.37 453.291,1334.79 454.605,1333.17 455.92,1331.52 457.234,1329.84 458.549,1328.12 
  459.863,1326.37 461.178,1324.58 462.492,1322.76 463.807,1320.9 465.121,1319 466.436,1317.07 467.75,1315.1 469.065,1313.09 470.379,1311.05 471.694,1308.96 
  473.009,1306.84 474.323,1304.67 475.638,1302.47 476.952,1300.22 478.267,1297.93 479.581,1295.6 480.896,1293.23 482.21,1290.81 483.525,1288.35 484.839,1285.85 
  486.154,1283.3 487.468,1280.71 488.783,1278.07 490.097,1275.39 491.412,1272.66 492.726,1269.89 494.041,1267.06 495.355,1264.19 496.67,1261.27 497.984,1258.31 
  499.299,1255.29 500.613,1252.22 501.928,1249.11 503.242,1245.94 504.557,1242.73 505.871,1239.46 507.186,1236.14 508.5,1232.77 509.815,1229.35 511.129,1225.87 
  512.444,1222.34 513.758,1218.76 515.073,1215.12 516.387,1211.44 517.702,1207.69 519.016,1203.89 520.331,1200.04 521.645,1196.13 522.96,1192.17 524.274,1188.15 
  525.589,1184.07 526.903,1179.94 528.218,1175.75 529.532,1171.5 530.847,1167.2 532.161,1162.84 533.476,1158.42 534.79,1153.94 536.105,1149.41 537.419,1144.82 
  538.734,1140.17 540.048,1135.46 541.363,1130.69 542.677,1125.87 543.992,1120.99 545.306,1116.04 546.621,1111.04 547.936,1105.99 549.25,1100.87 550.565,1095.69 
  551.879,1090.46 553.194,1085.16 554.508,1079.81 555.823,1074.4 557.137,1068.93 558.452,1063.41 559.766,1057.82 561.081,1052.18 562.395,1046.48 563.71,1040.72 
  565.024,1034.91 566.339,1029.04 567.653,1023.11 568.968,1017.13 570.282,1011.09 571.597,1004.99 572.911,998.837 574.226,992.63 575.54,986.369 576.855,980.053 
  578.169,973.683 579.484,967.261 580.798,960.785 582.113,954.257 583.427,947.677 584.742,941.047 586.056,934.365 587.371,927.634 588.685,920.853 590,914.023 
  591.314,907.146 592.629,900.221 593.943,893.249 595.258,886.232 596.572,879.17 597.887,872.063 599.201,864.913 600.516,857.72 601.83,850.486 603.145,843.211 
  604.459,835.896 605.774,828.542 607.088,821.15 608.403,813.721 609.717,806.256 611.032,798.757 612.346,791.223 613.661,783.657 614.975,776.059 616.29,768.431 
  617.604,760.773 618.919,753.088 620.233,745.375 621.548,737.636 622.862,729.874 624.177,722.088 625.492,714.28 626.806,706.451 628.121,698.604 629.435,690.738 
  630.75,682.857 632.064,674.96 633.379,667.049 634.693,659.126 636.008,651.193 637.322,643.25 638.637,635.299 639.951,627.343 641.266,619.381 642.58,611.416 
  643.895,603.45 645.209,595.484 646.524,587.519 647.838,579.558 649.153,571.601 650.467,563.651 651.782,555.71 653.096,547.777 654.411,539.857 655.725,531.95 
  657.04,524.057 658.354,516.181 659.669,508.324 660.983,500.487 662.298,492.671 663.612,484.88 664.927,477.113 666.241,469.374 667.556,461.664 668.87,453.984 
  670.185,446.337 671.499,438.725 672.814,431.148 674.128,423.61 675.443,416.111 676.757,408.654 678.072,401.24 679.386,393.871 680.701,386.55 682.015,379.277 
  683.33,372.055 684.644,364.885 685.959,357.769 687.273,350.71 688.588,343.708 689.902,336.766 691.217,329.885 692.531,323.068 693.846,316.315 695.16,309.629 
  696.475,303.012 697.789,296.465 699.104,289.99 700.419,283.588 701.733,277.262 703.048,271.013 704.362,264.843 705.677,258.753 706.991,252.745 708.306,246.821 
  709.62,240.982 710.935,235.23 712.249,229.567 713.564,223.994 714.878,218.512 716.193,213.124 717.507,207.83 718.822,202.632 720.136,197.532 721.451,192.531 
  722.765,187.631 724.08,182.832 725.394,178.136 726.709,173.545 728.023,169.06 729.338,164.682 730.652,160.413 731.967,156.253 733.281,152.204 734.596,148.267 
  735.91,144.443 737.225,140.733 738.539,137.139 739.854,133.661 741.168,130.3 742.483,127.058 743.797,123.935 745.112,120.933 746.426,118.052 747.741,115.292 
  749.055,112.656 750.37,110.143 751.684,107.754 752.999,105.491 754.313,103.353 755.628,101.341 756.942,99.4566 758.257,97.6995 759.571,96.0705 760.886,94.57 
  762.2,93.1985 763.515,91.9563 764.829,90.8439 766.144,89.8616 767.458,89.0097 768.773,88.2884 770.087,87.698 771.402,87.2385 772.716,86.9103 774.031,86.7133 
  775.346,86.6476 776.66,86.7133 777.975,86.9103 779.289,87.2385 780.604,87.698 781.918,88.2884 783.233,89.0097 784.547,89.8616 785.862,90.8439 787.176,91.9563 
  788.491,93.1985 789.805,94.57 791.12,96.0705 792.434,97.6995 793.749,99.4566 795.063,101.341 796.378,103.353 797.692,105.491 799.007,107.754 800.321,110.143 
  801.636,112.656 802.95,115.292 804.265,118.052 805.579,120.933 806.894,123.935 808.208,127.058 809.523,130.3 810.837,133.661 812.152,137.139 813.466,140.733 
  814.781,144.443 816.095,148.267 817.41,152.204 818.724,156.253 820.039,160.413 821.353,164.682 822.668,169.06 823.982,173.545 825.297,178.136 826.611,182.832 
  827.926,187.631 829.24,192.531 830.555,197.532 831.869,202.632 833.184,207.83 834.498,213.124 835.813,218.512 837.127,223.994 838.442,229.567 839.756,235.23 
  841.071,240.982 842.385,246.821 843.7,252.745 845.014,258.753 846.329,264.843 847.643,271.013 848.958,277.262 850.272,283.588 851.587,289.99 852.902,296.465 
  854.216,303.012 855.531,309.629 856.845,316.315 858.16,323.068 859.474,329.885 860.789,336.766 862.103,343.708 863.418,350.71 864.732,357.769 866.047,364.885 
  867.361,372.055 868.676,379.277 869.99,386.55 871.305,393.871 872.619,401.24 873.934,408.654 875.248,416.111 876.563,423.61 877.877,431.148 879.192,438.725 
  880.506,446.337 881.821,453.984 883.135,461.664 884.45,469.374 885.764,477.113 887.079,484.88 888.393,492.671 889.708,500.487 891.022,508.324 892.337,516.181 
  893.651,524.057 894.966,531.95 896.28,539.857 897.595,547.777 898.909,555.71 900.224,563.651 901.538,571.601 902.853,579.558 904.167,587.519 905.482,595.484 
  906.796,603.45 908.111,611.416 909.425,619.381 910.74,627.343 912.054,635.299 913.369,643.25 914.683,651.193 915.998,659.126 917.312,667.049 918.627,674.96 
  919.941,682.857 921.256,690.738 922.57,698.604 923.885,706.451 925.199,714.28 926.514,722.088 927.829,729.874 929.143,737.636 930.458,745.375 931.772,753.088 
  933.087,760.773 934.401,768.431 935.716,776.059 937.03,783.657 938.345,791.223 939.659,798.757 940.974,806.256 942.288,813.721 943.603,821.15 944.917,828.542 
  946.232,835.896 947.546,843.211 948.861,850.486 950.175,857.72 951.49,864.913 952.804,872.063 954.119,879.17 955.433,886.232 956.748,893.249 958.062,900.221 
  959.377,907.146 960.691,914.023 962.006,920.853 963.32,927.634 964.635,934.365 965.949,941.047 967.264,947.677 968.578,954.257 969.893,960.785 971.207,967.261 
  972.522,973.683 973.836,980.053 975.151,986.369 976.465,992.63 977.78,998.837 979.094,1004.99 980.409,1011.09 981.723,1017.13 983.038,1023.11 984.352,1029.04 
  985.667,1034.91 986.981,1040.72 988.296,1046.48 989.61,1052.18 990.925,1057.82 992.239,1063.41 993.554,1068.93 994.868,1074.4 996.183,1079.81 997.497,1085.16 
  998.812,1090.46 1000.13,1095.69 1001.44,1100.87 1002.76,1105.99 1004.07,1111.04 1005.38,1116.04 1006.7,1120.99 1008.01,1125.87 1009.33,1130.69 1010.64,1135.46 
  1011.96,1140.17 1013.27,1144.82 1014.59,1149.41 1015.9,1153.94 1017.22,1158.42 1018.53,1162.84 1019.84,1167.2 1021.16,1171.5 1022.47,1175.75 1023.79,1179.94 
  1025.1,1184.07 1026.42,1188.15 1027.73,1192.17 1029.05,1196.13 1030.36,1200.04 1031.67,1203.89 1032.99,1207.69 1034.3,1211.44 1035.62,1215.12 1036.93,1218.76 
  1038.25,1222.34 1039.56,1225.87 1040.88,1229.35 1042.19,1232.77 1043.51,1236.14 1044.82,1239.46 1046.13,1242.73 1047.45,1245.94 1048.76,1249.11 1050.08,1252.22 
  1051.39,1255.29 1052.71,1258.31 1054.02,1261.27 1055.34,1264.19 1056.65,1267.06 1057.96,1269.89 1059.28,1272.66 1060.59,1275.39 1061.91,1278.07 1063.22,1280.71 
  1064.54,1283.3 1065.85,1285.85 1067.17,1288.35 1068.48,1290.81 1069.8,1293.23 1071.11,1295.6 1072.42,1297.93 1073.74,1300.22 1075.05,1302.47 1076.37,1304.67 
  1077.68,1306.84 1079,1308.96 1080.31,1311.05 1081.63,1313.09 1082.94,1315.1 1084.26,1317.07 1085.57,1319 1086.88,1320.9 1088.2,1322.76 1089.51,1324.58 
  1090.83,1326.37 1092.14,1328.12 1093.46,1329.84 1094.77,1331.52 1096.09,1333.17 1097.4,1334.79 1098.71,1336.37 1100.03,1337.92 1101.34,1339.44 1102.66,1340.93 
  1103.97,1342.39 1105.29,1343.82 1106.6,1345.21 1107.92,1346.58 1109.23,1347.92 1110.55,1349.23 1111.86,1350.52 1113.17,1351.77 1114.49,1353 1115.8,1354.2 
  1117.12,1355.38 1118.43,1356.53 1119.75,1357.65 1121.06,1358.75 1122.38,1359.83 1123.69,1360.88 1125,1361.91 1126.32,1362.91 1127.63,1363.89 1128.95,1364.85 
  1130.26,1365.79 1131.58,1366.7 1132.89,1367.6 1134.21,1368.47 1135.52,1369.33 1136.84,1370.16 1138.15,1370.97 1139.46,1371.77 1140.78,1372.54 1142.09,1373.3 
  1143.41,1374.04 1144.72,1374.76 1146.04,1375.46 1147.35,1376.15 1148.67,1376.82 1149.98,1377.47 1151.29,1378.11 1152.61,1378.73 1153.92,1379.33 1155.24,1379.92 
  1156.55,1380.5 1157.87,1381.06 1159.18,1381.61 1160.5,1382.14 1161.81,1382.66 1163.13,1383.16 1164.44,1383.66 1165.75,1384.14 1167.07,1384.61 1168.38,1385.06 
  1169.7,1385.5 1171.01,1385.94 1172.33,1386.36 1173.64,1386.77 1174.96,1387.16 1176.27,1387.55 1177.59,1387.93 1178.9,1388.3 1180.21,1388.65 1181.53,1389 
  1182.84,1389.34 1184.16,1389.67 1185.47,1389.99 1186.79,1390.3 1188.1,1390.6 1189.42,1390.89 1190.73,1391.18 1192.04,1391.45 1193.36,1391.72 1194.67,1391.99 
  1195.99,1392.24 1197.3,1392.49 1198.62,1392.73 1199.93,1392.96 1201.25,1393.19 1202.56,1393.41 1203.88,1393.62 1205.19,1393.83 1206.5,1394.03 1207.82,1394.22 
  1209.13,1394.41 1210.45,1394.6 1211.76,1394.78 1213.08,1394.95 1214.39,1395.12 1215.71,1395.28 1217.02,1395.44 1218.33,1395.59 1219.65,1395.74 1220.96,1395.88 
  1222.28,1396.02 1223.59,1396.15 1224.91,1396.28 1226.22,1396.41 1227.54,1396.53 1228.85,1396.65 1230.17,1396.77 1231.48,1396.88 1232.79,1396.99 1234.11,1397.09 
  1235.42,1397.19 1236.74,1397.29 1238.05,1397.38 1239.37,1397.47 1240.68,1397.56 1242,1397.65 1243.31,1397.73 1244.63,1397.81 1245.94,1397.88 1247.25,1397.96 
  1248.57,1398.03 1249.88,1398.1 1251.2,1398.16 1252.51,1398.23 1253.83,1398.29 1255.14,1398.35 1256.46,1398.41 1257.77,1398.46 1259.08,1398.52 1260.4,1398.57 
  1261.71,1398.62 1263.03,1398.66 1264.34,1398.71 1265.66,1398.75 1266.97,1398.79 1268.29,1398.83 1269.6,1398.87 1270.92,1398.91 1272.23,1398.94 1273.54,1398.98 
  1274.86,1399.01 1276.17,1399.04 1277.49,1399.07 1278.8,1399.09 1280.12,1399.12 1281.43,1399.15 1282.75,1399.17 1284.06,1399.19 1285.37,1399.21 1286.69,1399.23 
  1288,1399.25 1289.32,1399.27 1290.63,1399.28 1291.95,1399.3 1293.26,1399.31 1294.58,1399.32 1295.89,1399.33 1297.21,1399.34 1298.52,1399.35 1299.83,1399.36 
  1301.15,1399.36 1302.46,1399.37 1303.78,1399.37 1305.09,1399.38 1306.41,1399.38 1307.72,1399.38 1309.04,1399.38 1310.35,1399.38 1311.67,1399.38 1312.98,1399.37 
  1314.29,1399.37 1315.61,1399.36 1316.92,1399.36 1318.24,1399.35 1319.55,1399.34 1320.87,1399.33 1322.18,1399.32 1323.5,1399.31 1324.81,1399.29 1326.12,1399.28 
  1327.44,1399.26 1328.75,1399.25 1330.07,1399.23 1331.38,1399.21 1332.7,1399.19 1334.01,1399.17 1335.33,1399.14 1336.64,1399.12 1337.96,1399.09 1339.27,1399.07 
  1340.58,1399.04 1341.9,1399.01 1343.21,1398.98 1344.53,1398.95 1345.84,1398.91 1347.16,1398.88 1348.47,1398.84 1349.79,1398.8 1351.1,1398.76 1352.41,1398.72 
  1353.73,1398.67 1355.04,1398.63 1356.36,1398.58 1357.67,1398.53 1358.99,1398.48 1360.3,1398.43 1361.62,1398.37 1362.93,1398.31 1364.25,1398.26 1365.56,1398.19 
  1366.87,1398.13 1368.19,1398.06 1369.5,1398 1370.82,1397.93 1372.13,1397.85 1373.45,1397.78 1374.76,1397.7 1376.08,1397.62 1377.39,1397.54 1378.7,1397.45 
  1380.02,1397.36 1381.33,1397.27 1382.65,1397.17 1383.96,1397.08 1385.28,1396.97 1386.59,1396.87 1387.91,1396.76 1389.22,1396.65 1390.54,1396.54 1391.85,1396.42 
  1393.16,1396.3 1394.48,1396.17 1395.79,1396.04 1397.11,1395.91 1398.42,1395.77 1399.74,1395.63 1401.05,1395.48 1402.37,1395.33 1403.68,1395.18 1405,1395.02 
  1406.31,1394.85 1407.62,1394.68 1408.94,1394.51 1410.25,1394.33 1411.57,1394.15 1412.88,1393.96 1414.2,1393.76 1415.51,1393.56 1416.83,1393.35 1418.14,1393.14 
  1419.45,1392.92 1420.77,1392.7 1422.08,1392.46 1423.4,1392.23 1424.71,1391.98 1426.03,1391.73 1427.34,1391.47 1428.66,1391.21 1429.97,1390.93 1431.29,1390.65 
  1432.6,1390.37 1433.91,1390.07 1435.23,1389.77 1436.54,1389.46 1437.86,1389.14 1439.17,1388.81 1440.49,1388.47 1441.8,1388.12 1443.12,1387.77 1444.43,1387.4 
  1445.74,1387.03 1447.06,1386.65 1448.37,1386.25 1449.69,1385.85 1451,1385.44 1452.32,1385.01 1453.63,1384.58 1454.95,1384.13 1456.26,1383.67 1457.58,1383.2 
  1458.89,1382.72 1460.2,1382.23 1461.52,1381.73 1462.83,1381.21 1464.15,1380.68 1465.46,1380.14 1466.78,1379.58 1468.09,1379.01 1469.41,1378.43 1470.72,1377.83 
  1472.04,1377.22 1473.35,1376.6 1474.66,1375.96 1475.98,1375.31 1477.29,1374.64 1478.61,1373.95 1479.92,1373.25 1481.24,1372.53 1482.55,1371.8 1483.87,1371.05 
  1485.18,1370.28 1486.49,1369.5 1487.81,1368.7 1489.12,1367.88 1490.44,1367.04 1491.75,1366.19 1493.07,1365.31 1494.38,1364.42 1495.7,1363.51 1497.01,1362.58 
  1498.33,1361.63 1499.64,1360.65 1500.95,1359.66 1502.27,1358.65 1503.58,1357.61 1504.9,1356.56 1506.21,1355.48 1507.53,1354.38 1508.84,1353.26 1510.16,1352.11 
  1511.47,1350.94 1512.78,1349.75 1514.1,1348.54 1515.41,1347.3 1516.73,1346.04 1518.04,1344.75 1519.36,1343.43 1520.67,1342.1 1521.99,1340.73 1523.3,1339.34 
  1524.62,1337.92 1525.93,1336.48 1527.24,1335.01 1528.56,1333.51 1529.87,1331.99 1531.19,1330.43 1532.5,1328.85 1533.82,1327.24 1535.13,1325.6 1536.45,1323.93 
  1537.76,1322.24 1539.08,1320.51 1540.39,1318.75 1541.7,1316.96 1543.02,1315.14 1544.33,1313.29 1545.65,1311.41 1546.96,1309.49 1548.28,1307.55 1549.59,1305.57 
  1550.91,1303.56 1552.22,1301.52 1553.53,1299.44 1554.85,1297.33 1556.16,1295.18 1557.48,1293.01 1558.79,1290.79 1560.11,1288.55 1561.42,1286.26 1562.74,1283.95 
  1564.05,1281.59 1565.37,1279.21 1566.68,1276.78 1567.99,1274.32 1569.31,1271.83 1570.62,1269.29 1571.94,1266.73 1573.25,1264.12 1574.57,1261.48 1575.88,1258.8 
  1577.2,1256.08 1578.51,1253.32 1579.82,1250.53 1581.14,1247.7 1582.45,1244.83 1583.77,1241.92 1585.08,1238.98 1586.4,1235.99 1587.71,1232.97 1589.03,1229.91 
  1590.34,1226.81 1591.66,1223.67 1592.97,1220.5 1594.28,1217.28 1595.6,1214.02 1596.91,1210.73 1598.23,1207.4 1599.54,1204.02 1600.86,1200.61 1602.17,1197.16 
  1603.49,1193.67 1604.8,1190.14 1606.11,1186.57 1607.43,1182.97 1608.74,1179.32 1610.06,1175.64 1611.37,1171.92 1612.69,1168.15 1614,1164.35 1615.32,1160.52 
  1616.63,1156.64 1617.95,1152.73 1619.26,1148.77 1620.57,1144.78 1621.89,1140.76 1623.2,1136.69 1624.52,1132.59 1625.83,1128.45 1627.15,1124.28 1628.46,1120.07 
  1629.78,1115.82 1631.09,1111.54 1632.41,1107.22 1633.72,1102.87 1635.03,1098.48 1636.35,1094.06 1637.66,1089.61 1638.98,1085.12 1640.29,1080.6 1641.61,1076.05 
  1642.92,1071.46 1644.24,1066.85 1645.55,1062.2 1646.86,1057.52 1648.18,1052.81 1649.49,1048.07 1650.81,1043.31 1652.12,1038.51 1653.44,1033.69 1654.75,1028.84 
  1656.07,1023.96 1657.38,1019.06 1658.7,1014.13 1660.01,1009.18 1661.32,1004.2 1662.64,999.204 1663.95,994.182 1665.27,989.138 1666.58,984.072 1667.9,978.987 
  1669.21,973.882 1670.53,968.758 1671.84,963.616 1673.15,958.457 1674.47,953.282 1675.78,948.091 1677.1,942.886 1678.41,937.667 1679.73,932.435 1681.04,927.192 
  1682.36,921.937 1683.67,916.673 1684.99,911.399 1686.3,906.117 1687.61,900.828 1688.93,895.533 1690.24,890.232 1691.56,884.928 1692.87,879.62 1694.19,874.31 
  1695.5,869 1696.82,863.689 1698.13,858.379 1699.45,853.071 1700.76,847.767 1702.07,842.467 1703.39,837.172 1704.7,831.884 1706.02,826.604 1707.33,821.333 
  1708.65,816.071 1709.96,810.82 1711.28,805.582 1712.59,800.357 1713.9,795.147 1715.22,789.953 1716.53,784.775 1717.85,779.616 1719.16,774.475 1720.48,769.356 
  1721.79,764.258 1723.11,759.183 1724.42,754.132 1725.74,749.106 1727.05,744.107 1728.36,739.135 1729.68,734.193 1730.99,729.28 1732.31,724.399 1733.62,719.551 
  1734.94,714.736 1736.25,709.956 1737.57,705.212 1738.88,700.506 1740.19,695.838 1741.51,691.21 1742.82,686.623 1744.14,682.078 1745.45,677.576 1746.77,673.119 
  1748.08,668.708 1749.4,664.343 1750.71,660.026 1752.03,655.758 1753.34,651.541 1754.65,647.375 1755.97,643.261 1757.28,639.201 1758.6,635.196 1759.91,631.247 
  1761.23,627.354 1762.54,623.52 1763.86,619.744 1765.17,616.029 1766.49,612.374 1767.8,608.782 1769.11,605.253 1770.43,601.788 1771.74,598.388 1773.06,595.054 
  1774.37,591.786 1775.69,588.587 1777,585.457 1778.32,582.396 1779.63,579.406 1780.94,576.488 1782.26,573.641 1783.57,570.868 1784.89,568.169 1786.2,565.544 
  1787.52,562.995 1788.83,560.522 1790.15,558.125 1791.46,555.807 1792.78,553.566 1794.09,551.405 1795.4,549.323 1796.72,547.321 1798.03,545.401 1799.35,543.561 
  1800.66,541.803 1801.98,540.128 1803.29,538.536 1804.61,537.026 1805.92,535.601 1807.23,534.26 1808.55,533.004 1809.86,531.832 1811.18,530.746 1812.49,529.746 
  1813.81,528.832 1815.12,528.004 1816.44,527.262 1817.75,526.607 1819.07,526.039 1820.38,525.558 1821.69,525.165 1823.01,524.858 1824.32,524.64 1825.64,524.508 
  1826.95,524.465 1828.27,524.508 1829.58,524.64 1830.9,524.858 1832.21,525.165 1833.52,525.558 1834.84,526.039 1836.15,526.607 1837.47,527.262 1838.78,528.004 
  1840.1,528.832 1841.41,529.746 1842.73,530.746 1844.04,531.832 1845.36,533.004 1846.67,534.26 1847.98,535.601 1849.3,537.026 1850.61,538.536 1851.93,540.128 
  1853.24,541.803 1854.56,543.561 1855.87,545.401 1857.19,547.321 1858.5,549.323 1859.82,551.405 1861.13,553.566 1862.44,555.807 1863.76,558.125 1865.07,560.522 
  1866.39,562.995 1867.7,565.544 1869.02,568.169 1870.33,570.868 1871.65,573.641 1872.96,576.488 1874.27,579.406 1875.59,582.396 1876.9,585.457 1878.22,588.587 
  1879.53,591.786 1880.85,595.054 1882.16,598.388 1883.48,601.788 1884.79,605.253 1886.11,608.782 1887.42,612.374 1888.73,616.029 1890.05,619.744 1891.36,623.52 
  1892.68,627.354 1893.99,631.247 1895.31,635.196 1896.62,639.201 1897.94,643.261 1899.25,647.375 1900.56,651.541 1901.88,655.758 1903.19,660.026 1904.51,664.343 
  1905.82,668.708 1907.14,673.119 1908.45,677.576 1909.77,682.078 1911.08,686.623 1912.4,691.21 1913.71,695.838 1915.02,700.506 1916.34,705.212 1917.65,709.956 
  1918.97,714.736 1920.28,719.551 1921.6,724.399 1922.91,729.28 1924.23,734.193 1925.54,739.135 1926.86,744.107 1928.17,749.106 1929.48,754.132 1930.8,759.183 
  1932.11,764.258 1933.43,769.356 1934.74,774.475 1936.06,779.616 1937.37,784.775 1938.69,789.953 1940,795.147 1941.31,800.357 1942.63,805.582 1943.94,810.82 
  1945.26,816.071 1946.57,821.333 1947.89,826.604 1949.2,831.884 1950.52,837.172 1951.83,842.467 1953.15,847.767 1954.46,853.071 1955.77,858.379 1957.09,863.689 
  1958.4,869 1959.72,874.31 1961.03,879.62 1962.35,884.928 1963.66,890.232 1964.98,895.533 1966.29,900.828 1967.6,906.117 1968.92,911.399 1970.23,916.673 
  1971.55,921.937 1972.86,927.192 1974.18,932.435 1975.49,937.667 1976.81,942.886 1978.12,948.091 1979.44,953.282 1980.75,958.457 1982.06,963.616 1983.38,968.758 
  1984.69,973.882 1986.01,978.987 1987.32,984.072 1988.64,989.138 1989.95,994.182 1991.27,999.204 1992.58,1004.2 1993.9,1009.18 1995.21,1014.13 1996.52,1019.06 
  1997.84,1023.96 1999.15,1028.84 2000.47,1033.69 2001.78,1038.51 2003.1,1043.31 2004.41,1048.07 2005.73,1052.81 2007.04,1057.52 2008.35,1062.2 2009.67,1066.85 
  2010.98,1071.46 2012.3,1076.05 2013.61,1080.6 2014.93,1085.12 2016.24,1089.61 2017.56,1094.06 2018.87,1098.48 2020.19,1102.87 2021.5,1107.22 2022.81,1111.54 
  2024.13,1115.82 2025.44,1120.07 2026.76,1124.28 2028.07,1128.45 2029.39,1132.59 2030.7,1136.69 2032.02,1140.76 2033.33,1144.78 2034.64,1148.77 2035.96,1152.73 
  2037.27,1156.64 2038.59,1160.52 2039.9,1164.35 2041.22,1168.15 2042.53,1171.92 2043.85,1175.64 2045.16,1179.32 2046.48,1182.97 2047.79,1186.57 2049.1,1190.14 
  2050.42,1193.67 2051.73,1197.16 2053.05,1200.61 2054.36,1204.02 2055.68,1207.4 2056.99,1210.73 2058.31,1214.02 2059.62,1217.28 2060.93,1220.5 2062.25,1223.67 
  2063.56,1226.81 2064.88,1229.91 2066.19,1232.97 2067.51,1235.99 2068.82,1238.98 2070.14,1241.92 2071.45,1244.83 2072.77,1247.7 2074.08,1250.53 2075.39,1253.32 
  2076.71,1256.08 2078.02,1258.8 2079.34,1261.48 2080.65,1264.12 2081.97,1266.73 2083.28,1269.29 2084.6,1271.83 2085.91,1274.32 2087.23,1276.78 2088.54,1279.21 
  2089.85,1281.59 2091.17,1283.95 2092.48,1286.26 2093.8,1288.55 2095.11,1290.79 2096.43,1293.01 2097.74,1295.18 2099.06,1297.33 2100.37,1299.44 2101.68,1301.52 
  2103,1303.56 2104.31,1305.57 2105.63,1307.55 2106.94,1309.49 2108.26,1311.41 2109.57,1313.29 2110.89,1315.14 2112.2,1316.96 2113.52,1318.75 2114.83,1320.51 
  2116.14,1322.24 2117.46,1323.93 2118.77,1325.6 2120.09,1327.24 2121.4,1328.85 2122.72,1330.43 2124.03,1331.99 2125.35,1333.51 2126.66,1335.01 2127.97,1336.48 
  2129.29,1337.92 2130.6,1339.34 2131.92,1340.73 2133.23,1342.1 2134.55,1343.43 2135.86,1344.75 2137.18,1346.04 2138.49,1347.3 2139.81,1348.54 2141.12,1349.75 
  2142.43,1350.94 2143.75,1352.11 2145.06,1353.26 2146.38,1354.38 2147.69,1355.48 2149.01,1356.56 2150.32,1357.61 2151.64,1358.65 2152.95,1359.66 2154.27,1360.65 
  2155.58,1361.63 2156.89,1362.58 2158.21,1363.51 2159.52,1364.42 2160.84,1365.31 2162.15,1366.19 2163.47,1367.04 2164.78,1367.88 2166.1,1368.7 2167.41,1369.5 
  2168.72,1370.29 2170.04,1371.05 2171.35,1371.8 2172.67,1372.53 2173.98,1373.25 2175.3,1373.95 2176.61,1374.64 2177.93,1375.31 2179.24,1375.96 2180.56,1376.6 
  2181.87,1377.23 2183.18,1377.84 2184.5,1378.43 2185.81,1379.01 2187.13,1379.58 2188.44,1380.14 2189.76,1380.68 2191.07,1381.21 2192.39,1381.73 2193.7,1382.23 
  2195.01,1382.72 2196.33,1383.21 2197.64,1383.67 2198.96,1384.13 2200.27,1384.58 2201.59,1385.01 2202.9,1385.44 2204.22,1385.85 2205.53,1386.26 2206.85,1386.65 
  2208.16,1387.03 2209.47,1387.41 2210.79,1387.77 2212.1,1388.13 2213.42,1388.47 2214.73,1388.81 2216.05,1389.14 2217.36,1389.46 2218.68,1389.77 2219.99,1390.08 
  2221.31,1390.37 2222.62,1390.66 2223.93,1390.94 2225.25,1391.21 2226.56,1391.48 2227.88,1391.74 2229.19,1391.99 2230.51,1392.23 2231.82,1392.47 2233.14,1392.7 
  2234.45,1392.93 2235.76,1393.15 2237.08,1393.36 2238.39,1393.57 2239.71,1393.77 2241.02,1393.97 2242.34,1394.16 2243.65,1394.34 2244.97,1394.52 2246.28,1394.7 
  2247.6,1394.87 2248.91,1395.03 2250.22,1395.19 2251.54,1395.35 2252.85,1395.5 2254.17,1395.64 2255.48,1395.79 2256.8,1395.93 2258.11,1396.06 2259.43,1396.19 
  2260.74,1396.32 2262.05,1396.44 2263.37,1396.56 2264.68,1396.68 2266,1396.79 2267.31,1396.9 2268.63,1397 2269.94,1397.1 2271.26,1397.2 2272.57,1397.3 
  2273.89,1397.39 2275.2,1397.48 2276.51,1397.57 2277.83,1397.66 2279.14,1397.74 2280.46,1397.82 2281.77,1397.9 2283.09,1397.97 2284.4,1398.04 2285.72,1398.11 
  2287.03,1398.18 2288.34,1398.25 2289.66,1398.31 2290.97,1398.37 2292.29,1398.43 2293.6,1398.49 2294.92,1398.55 2296.23,1398.6 2297.55,1398.66 2298.86,1398.71 
  2300.18,1398.76 2301.49,1398.8 2302.8,1398.85 2304.12,1398.89 2305.43,1398.94 2306.75,1398.98 2308.06,1399.02 2309.38,1399.06 2310.69,1399.09 2312.01,1399.13 
  2313.32,1399.17 2314.64,1399.2 2315.95,1399.23 2317.26,1399.26 2318.58,1399.29 2319.89,1399.32 2321.21,1399.35 2322.52,1399.38 2323.84,1399.41 2325.15,1399.43 
  2326.47,1399.46 2327.78,1399.48 2329.09,1399.5 2330.41,1399.53 2331.72,1399.55 2333.04,1399.57 2334.35,1399.59 2335.67,1399.61 2336.98,1399.63 2338.3,1399.65 
  2339.61,1399.66 2340.93,1399.68 2342.24,1399.7 2343.55,1399.71 2344.87,1399.73 2346.18,1399.74 2347.5,1399.75 2348.81,1399.77 2350.13,1399.78 2351.44,1399.79 
  2352.76,1399.8 
  "/>
<circle clip-path="url(#clip613)" cx="775.346" cy="86.6476" r="18" fill="#008000" fill-rule="evenodd" fill-opacity="1" stroke="#000000" stroke-opacity="1" stroke-width="3.2"/>
<path clip-path="url(#clip613)" d="
M747.992 114.778 L758.459 97.4411 L768.925 88.2135 L779.391 87.2695 L789.857 94.6271 L800.323 110.147 L810.79 133.537 L821.256 164.362 L831.722 202.056 L842.188 245.94 
  L852.654 295.243 L863.121 349.123 L873.587 406.694 L884.053 467.044 L894.519 529.267 L904.985 592.476 L915.452 655.831 L925.918 718.55 L936.384 779.927 L946.85 839.344 
  L957.316 896.272 L967.783 950.281 L978.249 1001.04 L988.715 1048.31 L999.181 1091.93 L1009.65 1131.86 L1020.11 1168.08 L1030.58 1200.69 L1041.05 1229.79 L1051.51 1255.57 
  L1061.98 1278.22 L1072.44 1297.97 L1082.91 1315.06 L1093.38 1329.73 L1103.84 1342.25 L1114.31 1352.83 L1124.78 1361.73 L1135.24 1369.15 L1145.71 1375.29 L1156.17 1380.33 
  L1166.64 1384.45 L1177.11 1387.79 L1187.57 1390.48 L1198.04 1392.62 L1208.51 1394.32 L1218.97 1395.66 L1229.44 1396.7 L1239.9 1397.51 L1250.37 1398.12 L1260.84 1398.58 
  L1271.3 1398.92 L1281.77 1399.15 L1292.23 1399.3 L1302.7 1399.37 L1313.17 1399.37 L1323.63 1399.31 L1334.1 1399.17 L1344.57 1398.94 L1355.03 1398.63 L1365.5 1398.2 
  L1375.96 1397.63 L1386.43 1396.88 L1396.9 1395.93 L1407.36 1394.72 L1417.83 1393.19 L1428.3 1391.28 L1438.76 1388.91 L1449.23 1385.99 L1459.69 1382.42 L1470.16 1378.09 
  L1480.63 1372.87 L1491.09 1366.62 L1501.56 1359.2 L1512.03 1350.44 L1522.49 1340.2 L1532.96 1328.3 L1543.42 1314.57 L1553.89 1298.87 L1564.36 1281.04 L1574.82 1260.96 
  L1585.29 1238.51 L1595.75 1213.64 L1606.22 1186.29 L1616.69 1156.47 L1627.15 1124.26 L1637.62 1089.76 L1648.09 1053.15 L1658.55 1014.67 L1669.02 974.633 L1679.48 933.404 
  L1689.95 891.414 L1700.42 849.15 L1710.88 807.146 L1721.35 765.972 L1731.82 726.224 L1742.28 688.51 L1752.75 653.435 L1763.21 621.581 L1773.68 593.498 L1784.15 569.683 
  L1784.15 1400.1 L1773.68 1400.1 L1763.21 1400.1 L1752.75 1400.1 L1742.28 1400.1 L1731.82 1400.1 L1721.35 1400.1 L1710.88 1400.1 L1700.42 1400.1 L1689.95 1400.1 
  L1679.48 1400.1 L1669.02 1400.1 L1658.55 1400.1 L1648.09 1400.1 L1637.62 1400.1 L1627.15 1400.1 L1616.69 1400.1 L1606.22 1400.1 L1595.75 1400.1 L1585.29 1400.1 
  L1574.82 1400.1 L1564.36 1400.1 L1553.89 1400.1 L1543.42 1400.1 L1532.96 1400.1 L1522.49 1400.1 L1512.03 1400.1 L1501.56 1400.1 L1491.09 1400.1 L1480.63 1400.1 
  L1470.16 1400.1 L1459.69 1400.1 L1449.23 1400.1 L1438.76 1400.1 L1428.3 1400.1 L1417.83 1400.1 L1407.36 1400.1 L1396.9 1400.1 L1386.43 1400.1 L1375.96 1400.1 
  L1365.5 1400.1 L1355.03 1400.1 L1344.57 1400.1 L1334.1 1400.1 L1323.63 1400.1 L1313.17 1400.1 L1302.7 1400.1 L1292.23 1400.1 L1281.77 1400.1 L1271.3 1400.1 
  L1260.84 1400.1 L1250.37 1400.1 L1239.9 1400.1 L1229.44 1400.1 L1218.97 1400.1 L1208.51 1400.1 L1198.04 1400.1 L1187.57 1400.1 L1177.11 1400.1 L1166.64 1400.1 
  L1156.17 1400.1 L1145.71 1400.1 L1135.24 1400.1 L1124.78 1400.1 L1114.31 1400.1 L1103.84 1400.1 L1093.38 1400.1 L1082.91 1400.1 L1072.44 1400.1 L1061.98 1400.1 
  L1051.51 1400.1 L1041.05 1400.1 L1030.58 1400.1 L1020.11 1400.1 L1009.65 1400.1 L999.181 1400.1 L988.715 1400.1 L978.249 1400.1 L967.783 1400.1 L957.316 1400.1 
  L946.85 1400.1 L936.384 1400.1 L925.918 1400.1 L915.452 1400.1 L904.985 1400.1 L894.519 1400.1 L884.053 1400.1 L873.587 1400.1 L863.121 1400.1 L852.654 1400.1 
  L842.188 1400.1 L831.722 1400.1 L821.256 1400.1 L810.79 1400.1 L800.323 1400.1 L789.857 1400.1 L779.391 1400.1 L768.925 1400.1 L758.459 1400.1 L747.992 1400.1 
   Z
  " fill="#add8e6" fill-rule="evenodd" fill-opacity="0.5"/>
<polyline clip-path="url(#clip613)" style="stroke:#000000; stroke-linecap:butt; stroke-linejoin:round; stroke-width:4; stroke-opacity:0; fill:none" points="
  747.992,114.778 758.459,97.4411 768.925,88.2135 779.391,87.2695 789.857,94.6271 800.323,110.147 810.79,133.537 821.256,164.362 831.722,202.056 842.188,245.94 
  852.654,295.243 863.121,349.123 873.587,406.694 884.053,467.044 894.519,529.267 904.985,592.476 915.452,655.831 925.918,718.55 936.384,779.927 946.85,839.344 
  957.316,896.272 967.783,950.281 978.249,1001.04 988.715,1048.31 999.181,1091.93 1009.65,1131.86 1020.11,1168.08 1030.58,1200.69 1041.05,1229.79 1051.51,1255.57 
  1061.98,1278.22 1072.44,1297.97 1082.91,1315.06 1093.38,1329.73 1103.84,1342.25 1114.31,1352.83 1124.78,1361.73 1135.24,1369.15 1145.71,1375.29 1156.17,1380.33 
  1166.64,1384.45 1177.11,1387.79 1187.57,1390.48 1198.04,1392.62 1208.51,1394.32 1218.97,1395.66 1229.44,1396.7 1239.9,1397.51 1250.37,1398.12 1260.84,1398.58 
  1271.3,1398.92 1281.77,1399.15 1292.23,1399.3 1302.7,1399.37 1313.17,1399.37 1323.63,1399.31 1334.1,1399.17 1344.57,1398.94 1355.03,1398.63 1365.5,1398.2 
  1375.96,1397.63 1386.43,1396.88 1396.9,1395.93 1407.36,1394.72 1417.83,1393.19 1428.3,1391.28 1438.76,1388.91 1449.23,1385.99 1459.69,1382.42 1470.16,1378.09 
  1480.63,1372.87 1491.09,1366.62 1501.56,1359.2 1512.03,1350.44 1522.49,1340.2 1532.96,1328.3 1543.42,1314.57 1553.89,1298.87 1564.36,1281.04 1574.82,1260.96 
  1585.29,1238.51 1595.75,1213.64 1606.22,1186.29 1616.69,1156.47 1627.15,1124.26 1637.62,1089.76 1648.09,1053.15 1658.55,1014.67 1669.02,974.633 1679.48,933.404 
  1689.95,891.414 1700.42,849.15 1710.88,807.146 1721.35,765.972 1731.82,726.224 1742.28,688.51 1752.75,653.435 1763.21,621.581 1773.68,593.498 1784.15,569.683 
  
  "/>
</svg>
