<?xml version="1.0" encoding="utf-8"?>
<svg xmlns="http://www.w3.org/2000/svg" xmlns:xlink="http://www.w3.org/1999/xlink" width="600" height="400" viewBox="0 0 2400 1600">
<defs>
  <clipPath id="clip160">
    <rect x="0" y="0" width="2400" height="1600"/>
  </clipPath>
</defs>
<path clip-path="url(#clip160)" d="
M0 1600 L2400 1600 L2400 0 L0 0  Z
  " fill="#ffffff" fill-rule="evenodd" fill-opacity="1"/>
<defs>
  <clipPath id="clip161">
    <rect x="480" y="0" width="1681" height="1600"/>
  </clipPath>
</defs>
<defs>
  <clipPath id="clip162">
    <rect x="219" y="47" width="2134" height="1405"/>
  </clipPath>
</defs>
<path clip-path="url(#clip160)" d="
M219.866 1450.96 L2352.76 1450.96 L2352.76 47.2441 L219.866 47.2441  Z
  " fill="#ffffff" fill-rule="evenodd" fill-opacity="1"/>
<polyline clip-path="url(#clip162)" style="stroke:#000000; stroke-linecap:butt; stroke-linejoin:round; stroke-width:2; stroke-opacity:0.1; fill:none" points="
  219.866,1450.96 219.866,47.2441 
  "/>
<polyline clip-path="url(#clip162)" style="stroke:#000000; stroke-linecap:butt; stroke-linejoin:round; stroke-width:2; stroke-opacity:0.1; fill:none" points="
  753.089,1450.96 753.089,47.2441 
  "/>
<polyline clip-path="url(#clip162)" style="stroke:#000000; stroke-linecap:butt; stroke-linejoin:round; stroke-width:2; stroke-opacity:0.1; fill:none" points="
  1286.31,1450.96 1286.31,47.2441 
  "/>
<polyline clip-path="url(#clip162)" style="stroke:#000000; stroke-linecap:butt; stroke-linejoin:round; stroke-width:2; stroke-opacity:0.1; fill:none" points="
  1819.53,1450.96 1819.53,47.2441 
  "/>
<polyline clip-path="url(#clip162)" style="stroke:#000000; stroke-linecap:butt; stroke-linejoin:round; stroke-width:2; stroke-opacity:0.1; fill:none" points="
  2352.76,1450.96 2352.76,47.2441 
  "/>
<polyline clip-path="url(#clip160)" style="stroke:#000000; stroke-linecap:butt; stroke-linejoin:round; stroke-width:4; stroke-opacity:1; fill:none" points="
  219.866,1450.96 2352.76,1450.96 
  "/>
<polyline clip-path="url(#clip160)" style="stroke:#000000; stroke-linecap:butt; stroke-linejoin:round; stroke-width:4; stroke-opacity:1; fill:none" points="
  219.866,1450.96 219.866,1432.06 
  "/>
<polyline clip-path="url(#clip160)" style="stroke:#000000; stroke-linecap:butt; stroke-linejoin:round; stroke-width:4; stroke-opacity:1; fill:none" points="
  753.089,1450.96 753.089,1432.06 
  "/>
<polyline clip-path="url(#clip160)" style="stroke:#000000; stroke-linecap:butt; stroke-linejoin:round; stroke-width:4; stroke-opacity:1; fill:none" points="
  1286.31,1450.96 1286.31,1432.06 
  "/>
<polyline clip-path="url(#clip160)" style="stroke:#000000; stroke-linecap:butt; stroke-linejoin:round; stroke-width:4; stroke-opacity:1; fill:none" points="
  1819.53,1450.96 1819.53,1432.06 
  "/>
<polyline clip-path="url(#clip160)" style="stroke:#000000; stroke-linecap:butt; stroke-linejoin:round; stroke-width:4; stroke-opacity:1; fill:none" points="
  2352.76,1450.96 2352.76,1432.06 
  "/>
<path clip-path="url(#clip160)" d="M188.767 1494.8 L218.443 1494.8 L218.443 1498.74 L188.767 1498.74 L188.767 1494.8 Z" fill="#000000" fill-rule="evenodd" fill-opacity="1" /><path clip-path="url(#clip160)" d="M241.382 1481.15 L229.577 1499.6 L241.382 1499.6 L241.382 1481.15 M240.156 1477.07 L246.035 1477.07 L246.035 1499.6 L250.966 1499.6 L250.966 1503.48 L246.035 1503.48 L246.035 1511.63 L241.382 1511.63 L241.382 1503.48 L225.781 1503.48 L225.781 1498.97 L240.156 1477.07 Z" fill="#000000" fill-rule="evenodd" fill-opacity="1" /><path clip-path="url(#clip160)" d="M723.031 1494.8 L752.707 1494.8 L752.707 1498.74 L723.031 1498.74 L723.031 1494.8 Z" fill="#000000" fill-rule="evenodd" fill-opacity="1" /><path clip-path="url(#clip160)" d="M766.827 1507.7 L783.146 1507.7 L783.146 1511.63 L761.202 1511.63 L761.202 1507.7 Q763.864 1504.94 768.447 1500.31 Q773.054 1495.66 774.234 1494.32 Q776.48 1491.79 777.359 1490.06 Q778.262 1488.3 778.262 1486.61 Q778.262 1483.85 776.318 1482.12 Q774.396 1480.38 771.295 1480.38 Q769.096 1480.38 766.642 1481.15 Q764.211 1481.91 761.434 1483.46 L761.434 1478.74 Q764.258 1477.6 766.711 1477.03 Q769.165 1476.45 771.202 1476.45 Q776.572 1476.45 779.767 1479.13 Q782.961 1481.82 782.961 1486.31 Q782.961 1488.44 782.151 1490.36 Q781.364 1492.26 779.258 1494.85 Q778.679 1495.52 775.577 1498.74 Q772.475 1501.93 766.827 1507.7 Z" fill="#000000" fill-rule="evenodd" fill-opacity="1" /><path clip-path="url(#clip160)" d="M1286.31 1480.15 Q1282.7 1480.15 1280.87 1483.72 Q1279.07 1487.26 1279.07 1494.39 Q1279.07 1501.49 1280.87 1505.06 Q1282.7 1508.6 1286.31 1508.6 Q1289.95 1508.6 1291.75 1505.06 Q1293.58 1501.49 1293.58 1494.39 Q1293.58 1487.26 1291.75 1483.72 Q1289.95 1480.15 1286.31 1480.15 M1286.31 1476.45 Q1292.12 1476.45 1295.18 1481.05 Q1298.26 1485.64 1298.26 1494.39 Q1298.26 1503.11 1295.18 1507.72 Q1292.12 1512.3 1286.31 1512.3 Q1280.5 1512.3 1277.42 1507.72 Q1274.37 1503.11 1274.37 1494.39 Q1274.37 1485.64 1277.42 1481.05 Q1280.5 1476.45 1286.31 1476.45 Z" fill="#000000" fill-rule="evenodd" fill-opacity="1" /><path clip-path="url(#clip160)" d="M1814.19 1507.7 L1830.51 1507.7 L1830.51 1511.63 L1808.56 1511.63 L1808.56 1507.7 Q1811.22 1504.94 1815.81 1500.31 Q1820.41 1495.66 1821.59 1494.32 Q1823.84 1491.79 1824.72 1490.06 Q1825.62 1488.3 1825.62 1486.61 Q1825.62 1483.85 1823.68 1482.12 Q1821.76 1480.38 1818.65 1480.38 Q1816.45 1480.38 1814 1481.15 Q1811.57 1481.91 1808.79 1483.46 L1808.79 1478.74 Q1811.62 1477.6 1814.07 1477.03 Q1816.52 1476.45 1818.56 1476.45 Q1823.93 1476.45 1827.13 1479.13 Q1830.32 1481.82 1830.32 1486.31 Q1830.32 1488.44 1829.51 1490.36 Q1828.72 1492.26 1826.62 1494.85 Q1826.04 1495.52 1822.94 1498.74 Q1819.83 1501.93 1814.19 1507.7 Z" fill="#000000" fill-rule="evenodd" fill-opacity="1" /><path clip-path="url(#clip160)" d="M2355.77 1481.15 L2343.96 1499.6 L2355.77 1499.6 L2355.77 1481.15 M2354.54 1477.07 L2360.42 1477.07 L2360.42 1499.6 L2365.35 1499.6 L2365.35 1503.48 L2360.42 1503.48 L2360.42 1511.63 L2355.77 1511.63 L2355.77 1503.48 L2340.16 1503.48 L2340.16 1498.97 L2354.54 1477.07 Z" fill="#000000" fill-rule="evenodd" fill-opacity="1" /><path clip-path="url(#clip160)" d="M1300.48 1539.92 Q1300.48 1541.72 1299.36 1542.75 Q1298.23 1543.75 1296.94 1543.75 Q1295.72 1543.75 1295.07 1543.04 Q1294.43 1542.33 1294.43 1541.43 Q1294.43 1540.21 1295.33 1539.14 Q1296.23 1538.08 1297.59 1537.85 Q1296.27 1537.02 1294.3 1537.02 Q1293.01 1537.02 1291.89 1537.69 Q1290.79 1538.37 1290.11 1539.24 Q1289.47 1540.11 1288.89 1541.37 Q1288.34 1542.59 1288.12 1543.33 Q1287.92 1544.04 1287.76 1544.81 L1285.51 1553.83 Q1284.41 1558.11 1284.41 1559.63 Q1284.41 1561.49 1285.32 1562.75 Q1286.22 1563.97 1288.02 1563.97 Q1288.73 1563.97 1289.53 1563.78 Q1290.34 1563.55 1291.37 1562.98 Q1292.43 1562.36 1293.37 1561.46 Q1294.33 1560.53 1295.27 1558.95 Q1296.2 1557.37 1296.81 1555.34 Q1297.01 1554.63 1297.65 1554.63 Q1298.46 1554.63 1298.46 1555.28 Q1298.46 1555.83 1298 1556.98 Q1297.59 1558.11 1296.65 1559.59 Q1295.75 1561.04 1294.56 1562.36 Q1293.37 1563.65 1291.6 1564.55 Q1289.82 1565.46 1287.89 1565.46 Q1285.12 1565.46 1283.29 1563.97 Q1281.45 1562.49 1280.77 1560.43 Q1280.61 1560.72 1280.39 1561.11 Q1280.16 1561.49 1279.49 1562.36 Q1278.84 1563.2 1278.1 1563.84 Q1277.36 1564.46 1276.2 1564.94 Q1275.07 1565.46 1273.85 1565.46 Q1272.3 1565.46 1270.92 1565 Q1269.57 1564.55 1268.6 1563.52 Q1267.63 1562.49 1267.63 1561.08 Q1267.63 1559.5 1268.7 1558.4 Q1269.79 1557.27 1271.27 1557.27 Q1272.21 1557.27 1272.95 1557.82 Q1273.72 1558.37 1273.72 1559.56 Q1273.72 1560.88 1272.82 1561.88 Q1271.92 1562.88 1270.63 1563.14 Q1271.95 1563.97 1273.91 1563.97 Q1276.04 1563.97 1277.71 1562.11 Q1279.39 1560.24 1280.19 1557.11 Q1282.19 1549.61 1282.96 1546.26 Q1283.74 1542.88 1283.74 1541.43 Q1283.74 1540.08 1283.38 1539.14 Q1283.03 1538.21 1282.42 1537.79 Q1281.84 1537.34 1281.29 1537.18 Q1280.77 1537.02 1280.19 1537.02 Q1279.23 1537.02 1278.13 1537.4 Q1277.07 1537.79 1275.78 1538.69 Q1274.53 1539.56 1273.33 1541.37 Q1272.14 1543.17 1271.34 1545.65 Q1271.18 1546.39 1270.47 1546.39 Q1269.7 1546.36 1269.7 1545.71 Q1269.7 1545.17 1270.11 1544.04 Q1270.57 1542.88 1271.47 1541.43 Q1272.4 1539.98 1273.59 1538.69 Q1274.82 1537.37 1276.59 1536.47 Q1278.39 1535.57 1280.32 1535.57 Q1281.19 1535.57 1282.03 1535.76 Q1282.9 1535.92 1283.93 1536.41 Q1284.99 1536.89 1285.93 1537.95 Q1286.86 1539.01 1287.44 1540.56 Q1287.83 1539.82 1288.34 1539.11 Q1288.89 1538.4 1289.73 1537.53 Q1290.6 1536.63 1291.79 1536.12 Q1293.01 1535.57 1294.37 1535.57 Q1295.69 1535.57 1296.97 1535.92 Q1298.26 1536.24 1299.36 1537.31 Q1300.48 1538.34 1300.48 1539.92 Z" fill="#000000" fill-rule="evenodd" fill-opacity="1" /><polyline clip-path="url(#clip162)" style="stroke:#000000; stroke-linecap:butt; stroke-linejoin:round; stroke-width:2; stroke-opacity:0.1; fill:none" points="
  219.866,1411.24 2352.76,1411.24 
  "/>
<polyline clip-path="url(#clip162)" style="stroke:#000000; stroke-linecap:butt; stroke-linejoin:round; stroke-width:2; stroke-opacity:0.1; fill:none" points="
  219.866,1079.24 2352.76,1079.24 
  "/>
<polyline clip-path="url(#clip162)" style="stroke:#000000; stroke-linecap:butt; stroke-linejoin:round; stroke-width:2; stroke-opacity:0.1; fill:none" points="
  219.866,747.24 2352.76,747.24 
  "/>
<polyline clip-path="url(#clip162)" style="stroke:#000000; stroke-linecap:butt; stroke-linejoin:round; stroke-width:2; stroke-opacity:0.1; fill:none" points="
  219.866,415.238 2352.76,415.238 
  "/>
<polyline clip-path="url(#clip162)" style="stroke:#000000; stroke-linecap:butt; stroke-linejoin:round; stroke-width:2; stroke-opacity:0.1; fill:none" points="
  219.866,83.2372 2352.76,83.2372 
  "/>
<polyline clip-path="url(#clip160)" style="stroke:#000000; stroke-linecap:butt; stroke-linejoin:round; stroke-width:4; stroke-opacity:1; fill:none" points="
  219.866,1450.96 219.866,47.2441 
  "/>
<polyline clip-path="url(#clip160)" style="stroke:#000000; stroke-linecap:butt; stroke-linejoin:round; stroke-width:4; stroke-opacity:1; fill:none" points="
  219.866,1411.24 238.764,1411.24 
  "/>
<polyline clip-path="url(#clip160)" style="stroke:#000000; stroke-linecap:butt; stroke-linejoin:round; stroke-width:4; stroke-opacity:1; fill:none" points="
  219.866,1079.24 238.764,1079.24 
  "/>
<polyline clip-path="url(#clip160)" style="stroke:#000000; stroke-linecap:butt; stroke-linejoin:round; stroke-width:4; stroke-opacity:1; fill:none" points="
  219.866,747.24 238.764,747.24 
  "/>
<polyline clip-path="url(#clip160)" style="stroke:#000000; stroke-linecap:butt; stroke-linejoin:round; stroke-width:4; stroke-opacity:1; fill:none" points="
  219.866,415.238 238.764,415.238 
  "/>
<polyline clip-path="url(#clip160)" style="stroke:#000000; stroke-linecap:butt; stroke-linejoin:round; stroke-width:4; stroke-opacity:1; fill:none" points="
  219.866,83.2372 238.764,83.2372 
  "/>
<path clip-path="url(#clip160)" d="M126.691 1397.04 Q123.08 1397.04 121.251 1400.61 Q119.445 1404.15 119.445 1411.28 Q119.445 1418.38 121.251 1421.95 Q123.08 1425.49 126.691 1425.49 Q130.325 1425.49 132.13 1421.95 Q133.959 1418.38 133.959 1411.28 Q133.959 1404.15 132.13 1400.61 Q130.325 1397.04 126.691 1397.04 M126.691 1393.34 Q132.501 1393.34 135.556 1397.94 Q138.635 1402.53 138.635 1411.28 Q138.635 1420 135.556 1424.61 Q132.501 1429.19 126.691 1429.19 Q120.88 1429.19 117.802 1424.61 Q114.746 1420 114.746 1411.28 Q114.746 1402.53 117.802 1397.94 Q120.88 1393.34 126.691 1393.34 Z" fill="#000000" fill-rule="evenodd" fill-opacity="1" /><path clip-path="url(#clip160)" d="M146.853 1422.64 L151.737 1422.64 L151.737 1428.52 L146.853 1428.52 L146.853 1422.64 Z" fill="#000000" fill-rule="evenodd" fill-opacity="1" /><path clip-path="url(#clip160)" d="M171.922 1397.04 Q168.311 1397.04 166.482 1400.61 Q164.677 1404.15 164.677 1411.28 Q164.677 1418.38 166.482 1421.95 Q168.311 1425.49 171.922 1425.49 Q175.556 1425.49 177.362 1421.95 Q179.19 1418.38 179.19 1411.28 Q179.19 1404.15 177.362 1400.61 Q175.556 1397.04 171.922 1397.04 M171.922 1393.34 Q177.732 1393.34 180.788 1397.94 Q183.866 1402.53 183.866 1411.28 Q183.866 1420 180.788 1424.61 Q177.732 1429.19 171.922 1429.19 Q166.112 1429.19 163.033 1424.61 Q159.978 1420 159.978 1411.28 Q159.978 1402.53 163.033 1397.94 Q166.112 1393.34 171.922 1393.34 Z" fill="#000000" fill-rule="evenodd" fill-opacity="1" /><path clip-path="url(#clip160)" d="M127.917 1065.04 Q124.306 1065.04 122.478 1068.6 Q120.672 1072.15 120.672 1079.28 Q120.672 1086.38 122.478 1089.95 Q124.306 1093.49 127.917 1093.49 Q131.552 1093.49 133.357 1089.95 Q135.186 1086.38 135.186 1079.28 Q135.186 1072.15 133.357 1068.6 Q131.552 1065.04 127.917 1065.04 M127.917 1061.34 Q133.728 1061.34 136.783 1065.94 Q139.862 1070.53 139.862 1079.28 Q139.862 1088 136.783 1092.61 Q133.728 1097.19 127.917 1097.19 Q122.107 1097.19 119.029 1092.61 Q115.973 1088 115.973 1079.28 Q115.973 1070.53 119.029 1065.94 Q122.107 1061.34 127.917 1061.34 Z" fill="#000000" fill-rule="evenodd" fill-opacity="1" /><path clip-path="url(#clip160)" d="M148.079 1090.64 L152.964 1090.64 L152.964 1096.52 L148.079 1096.52 L148.079 1090.64 Z" fill="#000000" fill-rule="evenodd" fill-opacity="1" /><path clip-path="url(#clip160)" d="M163.959 1092.59 L171.598 1092.59 L171.598 1066.22 L163.288 1067.89 L163.288 1063.63 L171.552 1061.96 L176.227 1061.96 L176.227 1092.59 L183.866 1092.59 L183.866 1096.52 L163.959 1096.52 L163.959 1092.59 Z" fill="#000000" fill-rule="evenodd" fill-opacity="1" /><path clip-path="url(#clip160)" d="M128.288 733.038 Q124.677 733.038 122.848 736.603 Q121.043 740.145 121.043 747.274 Q121.043 754.381 122.848 757.945 Q124.677 761.487 128.288 761.487 Q131.922 761.487 133.728 757.945 Q135.556 754.381 135.556 747.274 Q135.556 740.145 133.728 736.603 Q131.922 733.038 128.288 733.038 M128.288 729.335 Q134.098 729.335 137.154 733.941 Q140.232 738.524 140.232 747.274 Q140.232 756.001 137.154 760.607 Q134.098 765.191 128.288 765.191 Q122.478 765.191 119.399 760.607 Q116.343 756.001 116.343 747.274 Q116.343 738.524 119.399 733.941 Q122.478 729.335 128.288 729.335 Z" fill="#000000" fill-rule="evenodd" fill-opacity="1" /><path clip-path="url(#clip160)" d="M148.45 758.64 L153.334 758.64 L153.334 764.52 L148.45 764.52 L148.45 758.64 Z" fill="#000000" fill-rule="evenodd" fill-opacity="1" /><path clip-path="url(#clip160)" d="M167.547 760.584 L183.866 760.584 L183.866 764.52 L161.922 764.52 L161.922 760.584 Q164.584 757.83 169.167 753.2 Q173.774 748.547 174.954 747.205 Q177.2 744.682 178.079 742.946 Q178.982 741.186 178.982 739.496 Q178.982 736.742 177.038 735.006 Q175.116 733.27 172.014 733.27 Q169.815 733.27 167.362 734.034 Q164.931 734.797 162.153 736.348 L162.153 731.626 Q164.977 730.492 167.431 729.913 Q169.885 729.335 171.922 729.335 Q177.292 729.335 180.487 732.02 Q183.681 734.705 183.681 739.196 Q183.681 741.325 182.871 743.246 Q182.084 745.145 179.977 747.737 Q179.399 748.408 176.297 751.626 Q173.195 754.82 167.547 760.584 Z" fill="#000000" fill-rule="evenodd" fill-opacity="1" /><path clip-path="url(#clip160)" d="M127.339 401.037 Q123.728 401.037 121.899 404.602 Q120.093 408.143 120.093 415.273 Q120.093 422.38 121.899 425.944 Q123.728 429.486 127.339 429.486 Q130.973 429.486 132.779 425.944 Q134.607 422.38 134.607 415.273 Q134.607 408.143 132.779 404.602 Q130.973 401.037 127.339 401.037 M127.339 397.333 Q133.149 397.333 136.204 401.94 Q139.283 406.523 139.283 415.273 Q139.283 424 136.204 428.606 Q133.149 433.19 127.339 433.19 Q121.529 433.19 118.45 428.606 Q115.394 424 115.394 415.273 Q115.394 406.523 118.45 401.94 Q121.529 397.333 127.339 397.333 Z" fill="#000000" fill-rule="evenodd" fill-opacity="1" /><path clip-path="url(#clip160)" d="M147.501 426.639 L152.385 426.639 L152.385 432.518 L147.501 432.518 L147.501 426.639 Z" fill="#000000" fill-rule="evenodd" fill-opacity="1" /><path clip-path="url(#clip160)" d="M176.737 413.884 Q180.093 414.602 181.968 416.87 Q183.866 419.139 183.866 422.472 Q183.866 427.588 180.348 430.389 Q176.829 433.19 170.348 433.19 Q168.172 433.19 165.857 432.75 Q163.565 432.333 161.112 431.477 L161.112 426.963 Q163.056 428.097 165.371 428.676 Q167.686 429.254 170.209 429.254 Q174.607 429.254 176.899 427.518 Q179.214 425.782 179.214 422.472 Q179.214 419.417 177.061 417.704 Q174.931 415.968 171.112 415.968 L167.084 415.968 L167.084 412.125 L171.297 412.125 Q174.746 412.125 176.575 410.759 Q178.403 409.37 178.403 406.778 Q178.403 404.116 176.505 402.704 Q174.63 401.269 171.112 401.269 Q169.19 401.269 166.991 401.685 Q164.792 402.102 162.153 402.981 L162.153 398.815 Q164.815 398.074 167.13 397.704 Q169.468 397.333 171.528 397.333 Q176.852 397.333 179.954 399.764 Q183.056 402.171 183.056 406.292 Q183.056 409.162 181.413 411.153 Q179.769 413.12 176.737 413.884 Z" fill="#000000" fill-rule="evenodd" fill-opacity="1" /><path clip-path="url(#clip160)" d="M126.205 69.0359 Q122.593 69.0359 120.765 72.6007 Q118.959 76.1423 118.959 83.2719 Q118.959 90.3783 120.765 93.9431 Q122.593 97.4848 126.205 97.4848 Q129.839 97.4848 131.644 93.9431 Q133.473 90.3783 133.473 83.2719 Q133.473 76.1423 131.644 72.6007 Q129.839 69.0359 126.205 69.0359 M126.205 65.3322 Q132.015 65.3322 135.07 69.9386 Q138.149 74.522 138.149 83.2719 Q138.149 91.9987 135.07 96.6052 Q132.015 101.188 126.205 101.188 Q120.394 101.188 117.316 96.6052 Q114.26 91.9987 114.26 83.2719 Q114.26 74.522 117.316 69.9386 Q120.394 65.3322 126.205 65.3322 Z" fill="#000000" fill-rule="evenodd" fill-opacity="1" /><path clip-path="url(#clip160)" d="M146.366 94.6376 L151.251 94.6376 L151.251 100.517 L146.366 100.517 L146.366 94.6376 Z" fill="#000000" fill-rule="evenodd" fill-opacity="1" /><path clip-path="url(#clip160)" d="M174.283 70.0312 L162.477 88.4802 L174.283 88.4802 L174.283 70.0312 M173.056 65.9572 L178.936 65.9572 L178.936 88.4802 L183.866 88.4802 L183.866 92.3691 L178.936 92.3691 L178.936 100.517 L174.283 100.517 L174.283 92.3691 L158.681 92.3691 L158.681 87.8552 L173.056 65.9572 Z" fill="#000000" fill-rule="evenodd" fill-opacity="1" /><path clip-path="url(#clip160)" d="M21.7677 862.412 L58.7206 862.412 L58.7206 854.646 Q58.7206 844.811 54.2646 840.259 Q49.8086 835.676 40.1964 835.676 Q30.6479 835.676 26.2237 840.259 Q21.7677 844.811 21.7677 854.646 L21.7677 862.412 M16.4842 868.841 L16.4842 855.632 Q16.4842 841.819 22.2451 835.358 Q27.9743 828.896 40.1964 828.896 Q52.4822 828.896 58.2432 835.389 Q64.0042 841.882 64.0042 855.632 L64.0042 868.841 L16.4842 868.841 Z" fill="#000000" fill-rule="evenodd" fill-opacity="1" /><path clip-path="url(#clip160)" d="M44.7161 788.41 L47.5806 788.41 L47.5806 815.337 Q53.6281 814.955 56.8109 811.709 Q59.9619 808.431 59.9619 802.606 Q59.9619 799.232 59.1344 796.081 Q58.3069 792.898 56.6518 789.779 L62.1899 789.779 Q63.5267 792.93 64.227 796.24 Q64.9272 799.55 64.9272 802.956 Q64.9272 811.486 59.9619 816.483 Q54.9967 821.448 46.5303 821.448 Q37.7774 821.448 32.6531 816.738 Q27.4968 811.995 27.4968 803.975 Q27.4968 796.781 32.1438 792.612 Q36.7589 788.41 44.7161 788.41 M42.9973 794.267 Q38.1912 794.331 35.3266 796.972 Q32.4621 799.582 32.4621 803.911 Q32.4621 808.813 35.2312 811.773 Q38.0002 814.701 43.0292 815.146 L42.9973 794.267 Z" fill="#000000" fill-rule="evenodd" fill-opacity="1" /><path clip-path="url(#clip160)" d="M42.4881 749.166 L64.0042 749.166 L64.0042 755.022 L42.679 755.022 Q37.6183 755.022 35.1038 756.996 Q32.5894 758.969 32.5894 762.916 Q32.5894 767.658 35.6131 770.395 Q38.6368 773.133 43.8567 773.133 L64.0042 773.133 L64.0042 779.021 L28.3562 779.021 L28.3562 773.133 L33.8944 773.133 Q30.6797 771.032 29.0883 768.199 Q27.4968 765.335 27.4968 761.611 Q27.4968 755.468 31.3163 752.317 Q35.1038 749.166 42.4881 749.166 Z" fill="#000000" fill-rule="evenodd" fill-opacity="1" /><path clip-path="url(#clip160)" d="M29.4065 714.759 L34.9447 714.759 Q33.6716 717.242 33.035 719.915 Q32.3984 722.589 32.3984 725.454 Q32.3984 729.814 33.7352 732.01 Q35.072 734.175 37.7456 734.175 Q39.7826 734.175 40.9603 732.615 Q42.1061 731.055 43.1565 726.345 L43.6021 724.34 Q44.9389 718.101 47.3897 715.491 Q49.8086 712.849 54.1691 712.849 Q59.1344 712.849 62.0308 716.796 Q64.9272 720.711 64.9272 727.586 Q64.9272 730.451 64.3543 733.57 Q63.8132 736.657 62.6992 740.095 L56.6518 740.095 Q58.3387 736.848 59.198 733.697 Q60.0256 730.546 60.0256 727.459 Q60.0256 723.321 58.6251 721.093 Q57.1929 718.865 54.6147 718.865 Q52.2276 718.865 50.9545 720.488 Q49.6813 722.08 48.5037 727.522 L48.0262 729.559 Q46.8804 735.002 44.5251 737.421 Q42.138 739.84 38.0002 739.84 Q32.9713 739.84 30.2341 736.275 Q27.4968 732.71 27.4968 726.154 Q27.4968 722.907 27.9743 720.043 Q28.4517 717.178 29.4065 714.759 Z" fill="#000000" fill-rule="evenodd" fill-opacity="1" /><path clip-path="url(#clip160)" d="M28.3562 703.524 L28.3562 697.667 L64.0042 697.667 L64.0042 703.524 L28.3562 703.524 M14.479 703.524 L14.479 697.667 L21.895 697.667 L21.895 703.524 L14.479 703.524 Z" fill="#000000" fill-rule="evenodd" fill-opacity="1" /><path clip-path="url(#clip160)" d="M18.2347 679.62 L28.3562 679.62 L28.3562 667.557 L32.9077 667.557 L32.9077 679.62 L52.2594 679.62 Q56.6199 679.62 57.8613 678.443 Q59.1026 677.233 59.1026 673.573 L59.1026 667.557 L64.0042 667.557 L64.0042 673.573 Q64.0042 680.353 61.4897 682.931 Q58.9434 685.509 52.2594 685.509 L32.9077 685.509 L32.9077 689.806 L28.3562 689.806 L28.3562 685.509 L18.2347 685.509 L18.2347 679.62 Z" fill="#000000" fill-rule="evenodd" fill-opacity="1" /><path clip-path="url(#clip160)" d="M67.3143 645.023 Q73.68 647.505 75.6216 649.861 Q77.5631 652.216 77.5631 656.163 L77.5631 660.842 L72.6615 660.842 L72.6615 657.404 Q72.6615 654.985 71.5157 653.648 Q70.3699 652.312 66.1048 650.688 L63.4312 649.638 L28.3562 664.056 L28.3562 657.85 L56.238 646.71 L28.3562 635.57 L28.3562 629.363 L67.3143 645.023 Z" fill="#000000" fill-rule="evenodd" fill-opacity="1" /><polyline clip-path="url(#clip162)" style="stroke:#009af9; stroke-linecap:butt; stroke-linejoin:round; stroke-width:20; stroke-opacity:1; fill:none" points="
  294.78,1409.93 304.463,1409.74 314.146,1409.52 403.68,1405.72 493.215,1395.37 547.021,1382.9 600.828,1362.65 646.32,1336.97 691.813,1301 716.522,1276.27 
  741.231,1247.41 765.94,1214.08 790.648,1176 813.428,1136.51 836.207,1092.71 858.987,1044.63 881.766,992.357 930.61,867.324 979.454,728.281 1036.04,558.71 
  1092.63,393.92 1117.78,326.61 1142.93,265.089 1168.07,210.803 1193.22,165.081 1215.27,132.948 1237.32,108.925 1259.37,93.4952 1281.42,86.9719 1305.46,90.1601 
  1329.5,104.013 1353.54,128.195 1377.58,162.128 1401.76,205.291 1425.95,256.502 1450.13,314.599 1474.31,378.307 1527.79,532.401 1581.27,692.992 1632.15,840.194 
  1683.03,973.466 1709.48,1035.41 1735.93,1091.74 1762.39,1142.3 1788.84,1187.07 1833.37,1249.89 1877.91,1298.3 1932.28,1340.88 1986.65,1369.2 2037.76,1386.3 
  2088.87,1396.97 2170.76,1405.84 2252.64,1409.38 2265.24,1409.68 2277.84,1409.93 
  "/>
<polyline clip-path="url(#clip162)" style="stroke:#e26f46; stroke-linecap:butt; stroke-linejoin:round; stroke-width:20; stroke-opacity:1; fill:none" points="
  -17563.1,1411.23 -17195,1411.23 -13790.8,1411.22 -11745,1411.21 -10015.4,1411.2 -8136.45,1411.17 -6404.26,1411.1 -4547.18,1410.93 -2395.56,1410 -1917.53,1409.37 
  -1439.51,1408.22 -961.483,1405.93 -483.458,1400.62 -273.865,1396.03 -64.2728,1388.42 40.5236,1382.71 145.32,1374.98 250.116,1364.31 354.912,1349.23 459.709,1327.34 
  564.505,1294.74 616.903,1272.5 669.301,1244.83 721.7,1210.2 774.098,1166.7 826.496,1112 878.894,1043.43 905.093,1003.07 931.292,958.258 957.491,908.759 
  983.69,854.481 1036.09,732.255 1088.49,596.187 1114.69,526.27 1140.88,457.901 1167.08,393.798 1193.28,337.01 1207.56,310.256 1221.85,287.09 1236.13,267.952 
  1250.41,253.224 1264.69,243.205 1278.98,238.107 1293.26,238.038 1307.54,243 1321.82,252.886 1336.1,267.49 1350.39,286.512 1364.67,309.573 1393.23,366.018 
  1421.8,432.913 1478.92,582.268 1536.05,731.054 1564.62,799.909 1593.18,863.604 1621.74,921.702 1650.31,974.132 1678.87,1021.07 1707.44,1062.86 1736,1099.92 
  1764.56,1132.69 1821.69,1187.16 1878.82,1229.61 1935.95,1262.77 1993.08,1288.84 2050.2,1309.47 2107.33,1325.92 2221.59,1349.89 2335.84,1365.88 2450.1,1376.88 
  2564.36,1384.65 2792.87,1394.44 3021.38,1400 3481.12,1405.54 3940.86,1407.98 4400.6,1409.2 4860.34,1409.89 6893.55,1410.89 8828.1,1411.1 10839.6,1411.17 
  12532.8,1411.2 14600.1,1411.22 16543.3,1411.22 19656.6,1411.23 20135.7,1411.23 
  "/>
<path clip-path="url(#clip160)" d="
M1862.31 249.555 L2281.66 249.555 L2281.66 94.0346 L1862.31 94.0346  Z
  " fill="#ffffff" fill-rule="evenodd" fill-opacity="1"/>
<polyline clip-path="url(#clip160)" style="stroke:#000000; stroke-linecap:butt; stroke-linejoin:round; stroke-width:4; stroke-opacity:1; fill:none" points="
  1862.31,249.555 2281.66,249.555 2281.66,94.0346 1862.31,94.0346 1862.31,249.555 
  "/>
<polyline clip-path="url(#clip160)" style="stroke:#009af9; stroke-linecap:butt; stroke-linejoin:round; stroke-width:4; stroke-opacity:1; fill:none" points="
  1886.01,145.875 2028.2,145.875 
  "/>
<path clip-path="url(#clip160)" d="M2051.9 128.595 L2058.2 128.595 L2073.52 157.507 L2073.52 128.595 L2078.06 128.595 L2078.06 163.155 L2071.76 163.155 L2056.44 134.243 L2056.44 163.155 L2051.9 163.155 L2051.9 128.595 Z" fill="#000000" fill-rule="evenodd" fill-opacity="1" /><path clip-path="url(#clip160)" d="M2097.23 140.215 Q2093.8 140.215 2091.81 142.9 Q2089.82 145.562 2089.82 150.215 Q2089.82 154.868 2091.79 157.553 Q2093.78 160.215 2097.23 160.215 Q2100.63 160.215 2102.62 157.53 Q2104.61 154.844 2104.61 150.215 Q2104.61 145.608 2102.62 142.923 Q2100.63 140.215 2097.23 140.215 M2097.23 136.604 Q2102.78 136.604 2105.95 140.215 Q2109.12 143.826 2109.12 150.215 Q2109.12 156.581 2105.95 160.215 Q2102.78 163.826 2097.23 163.826 Q2091.65 163.826 2088.48 160.215 Q2085.33 156.581 2085.33 150.215 Q2085.33 143.826 2088.48 140.215 Q2091.65 136.604 2097.23 136.604 Z" fill="#000000" fill-rule="evenodd" fill-opacity="1" /><path clip-path="url(#clip160)" d="M2131.21 141.21 Q2130.49 140.794 2129.63 140.608 Q2128.8 140.4 2127.78 140.4 Q2124.17 140.4 2122.23 142.761 Q2120.3 145.099 2120.3 149.497 L2120.3 163.155 L2116.02 163.155 L2116.02 137.229 L2120.3 137.229 L2120.3 141.257 Q2121.65 138.896 2123.8 137.761 Q2125.95 136.604 2129.03 136.604 Q2129.47 136.604 2130 136.673 Q2130.54 136.72 2131.18 136.835 L2131.21 141.21 Z" fill="#000000" fill-rule="evenodd" fill-opacity="1" /><path clip-path="url(#clip160)" d="M2155.03 142.206 Q2156.62 139.335 2158.85 137.97 Q2161.07 136.604 2164.08 136.604 Q2168.13 136.604 2170.33 139.451 Q2172.53 142.275 2172.53 147.507 L2172.53 163.155 L2168.24 163.155 L2168.24 147.645 Q2168.24 143.919 2166.92 142.113 Q2165.6 140.308 2162.9 140.308 Q2159.59 140.308 2157.67 142.507 Q2155.74 144.706 2155.74 148.502 L2155.74 163.155 L2151.46 163.155 L2151.46 147.645 Q2151.46 143.895 2150.14 142.113 Q2148.82 140.308 2146.07 140.308 Q2142.8 140.308 2140.88 142.53 Q2138.96 144.729 2138.96 148.502 L2138.96 163.155 L2134.68 163.155 L2134.68 137.229 L2138.96 137.229 L2138.96 141.257 Q2140.42 138.872 2142.46 137.738 Q2144.49 136.604 2147.29 136.604 Q2150.12 136.604 2152.09 138.039 Q2154.08 139.474 2155.03 142.206 Z" fill="#000000" fill-rule="evenodd" fill-opacity="1" /><path clip-path="url(#clip160)" d="M2192.8 150.122 Q2187.64 150.122 2185.65 151.303 Q2183.66 152.483 2183.66 155.331 Q2183.66 157.599 2185.14 158.942 Q2186.65 160.261 2189.22 160.261 Q2192.76 160.261 2194.89 157.761 Q2197.04 155.238 2197.04 151.071 L2197.04 150.122 L2192.8 150.122 M2201.3 148.363 L2201.3 163.155 L2197.04 163.155 L2197.04 159.219 Q2195.58 161.581 2193.41 162.715 Q2191.23 163.826 2188.08 163.826 Q2184.1 163.826 2181.74 161.604 Q2179.4 159.358 2179.4 155.608 Q2179.4 151.233 2182.32 149.011 Q2185.26 146.789 2191.07 146.789 L2197.04 146.789 L2197.04 146.372 Q2197.04 143.433 2195.1 141.835 Q2193.17 140.215 2189.68 140.215 Q2187.46 140.215 2185.35 140.747 Q2183.24 141.28 2181.3 142.345 L2181.3 138.409 Q2183.64 137.507 2185.84 137.067 Q2188.04 136.604 2190.12 136.604 Q2195.74 136.604 2198.52 139.521 Q2201.3 142.437 2201.3 148.363 Z" fill="#000000" fill-rule="evenodd" fill-opacity="1" /><path clip-path="url(#clip160)" d="M2210.07 127.136 L2214.33 127.136 L2214.33 163.155 L2210.07 163.155 L2210.07 127.136 Z" fill="#000000" fill-rule="evenodd" fill-opacity="1" /><polyline clip-path="url(#clip160)" style="stroke:#e26f46; stroke-linecap:butt; stroke-linejoin:round; stroke-width:4; stroke-opacity:1; fill:none" points="
  1886.01,197.715 2028.2,197.715 
  "/>
<path clip-path="url(#clip160)" d="M2074.15 181.569 L2074.15 186.129 Q2071.49 184.856 2069.12 184.231 Q2066.76 183.606 2064.56 183.606 Q2060.74 183.606 2058.66 185.087 Q2056.6 186.569 2056.6 189.3 Q2056.6 191.592 2057.97 192.773 Q2059.36 193.93 2063.2 194.648 L2066.02 195.226 Q2071.25 196.222 2073.73 198.745 Q2076.23 201.245 2076.23 205.458 Q2076.23 210.481 2072.85 213.073 Q2069.49 215.666 2062.99 215.666 Q2060.54 215.666 2057.76 215.11 Q2055 214.555 2052.04 213.467 L2052.04 208.652 Q2054.89 210.249 2057.62 211.059 Q2060.35 211.87 2062.99 211.87 Q2066.99 211.87 2069.17 210.296 Q2071.35 208.722 2071.35 205.805 Q2071.35 203.259 2069.77 201.823 Q2068.22 200.388 2064.66 199.671 L2061.81 199.115 Q2056.58 198.073 2054.24 195.851 Q2051.9 193.629 2051.9 189.671 Q2051.9 185.087 2055.12 182.449 Q2058.36 179.81 2064.03 179.81 Q2066.46 179.81 2068.99 180.249 Q2071.51 180.689 2074.15 181.569 Z" fill="#000000" fill-rule="evenodd" fill-opacity="1" /><path clip-path="url(#clip160)" d="M2087.55 181.708 L2087.55 189.069 L2096.32 189.069 L2096.32 192.379 L2087.55 192.379 L2087.55 206.453 Q2087.55 209.624 2088.41 210.527 Q2089.29 211.43 2091.95 211.43 L2096.32 211.43 L2096.32 214.995 L2091.95 214.995 Q2087.02 214.995 2085.14 213.166 Q2083.27 211.314 2083.27 206.453 L2083.27 192.379 L2080.14 192.379 L2080.14 189.069 L2083.27 189.069 L2083.27 181.708 L2087.55 181.708 Z" fill="#000000" fill-rule="evenodd" fill-opacity="1" /><path clip-path="url(#clip160)" d="M2101.48 204.763 L2101.48 189.069 L2105.74 189.069 L2105.74 204.601 Q2105.74 208.282 2107.18 210.134 Q2108.61 211.962 2111.48 211.962 Q2114.93 211.962 2116.92 209.763 Q2118.94 207.564 2118.94 203.768 L2118.94 189.069 L2123.2 189.069 L2123.2 214.995 L2118.94 214.995 L2118.94 211.013 Q2117.39 213.374 2115.33 214.532 Q2113.29 215.666 2110.58 215.666 Q2106.11 215.666 2103.8 212.888 Q2101.48 210.11 2101.48 204.763 M2112.2 188.444 L2112.2 188.444 Z" fill="#000000" fill-rule="evenodd" fill-opacity="1" /><path clip-path="url(#clip160)" d="M2149.03 193.004 L2149.03 178.976 L2153.29 178.976 L2153.29 214.995 L2149.03 214.995 L2149.03 211.106 Q2147.69 213.421 2145.63 214.555 Q2143.59 215.666 2140.72 215.666 Q2136.02 215.666 2133.06 211.916 Q2130.12 208.166 2130.12 202.055 Q2130.12 195.944 2133.06 192.194 Q2136.02 188.444 2140.72 188.444 Q2143.59 188.444 2145.63 189.578 Q2147.69 190.689 2149.03 193.004 M2134.52 202.055 Q2134.52 206.754 2136.44 209.439 Q2138.38 212.101 2141.76 212.101 Q2145.14 212.101 2147.09 209.439 Q2149.03 206.754 2149.03 202.055 Q2149.03 197.356 2147.09 194.694 Q2145.14 192.009 2141.76 192.009 Q2138.38 192.009 2136.44 194.694 Q2134.52 197.356 2134.52 202.055 Z" fill="#000000" fill-rule="evenodd" fill-opacity="1" /><path clip-path="url(#clip160)" d="M2184.24 200.967 L2184.24 203.05 L2164.66 203.05 Q2164.93 207.448 2167.29 209.763 Q2169.68 212.055 2173.92 212.055 Q2176.37 212.055 2178.66 211.453 Q2180.98 210.851 2183.24 209.647 L2183.24 213.675 Q2180.95 214.647 2178.54 215.157 Q2176.14 215.666 2173.66 215.666 Q2167.46 215.666 2163.82 212.055 Q2160.21 208.444 2160.21 202.286 Q2160.21 195.921 2163.64 192.194 Q2167.09 188.444 2172.92 188.444 Q2178.15 188.444 2181.18 191.823 Q2184.24 195.18 2184.24 200.967 M2179.98 199.717 Q2179.93 196.222 2178.01 194.138 Q2176.11 192.055 2172.97 192.055 Q2169.4 192.055 2167.25 194.069 Q2165.12 196.083 2164.79 199.74 L2179.98 199.717 Z" fill="#000000" fill-rule="evenodd" fill-opacity="1" /><path clip-path="url(#clip160)" d="M2212.78 199.347 L2212.78 214.995 L2208.52 214.995 L2208.52 199.485 Q2208.52 195.805 2207.09 193.976 Q2205.65 192.148 2202.78 192.148 Q2199.33 192.148 2197.34 194.347 Q2195.35 196.546 2195.35 200.342 L2195.35 214.995 L2191.07 214.995 L2191.07 189.069 L2195.35 189.069 L2195.35 193.097 Q2196.88 190.759 2198.94 189.601 Q2201.02 188.444 2203.73 188.444 Q2208.2 188.444 2210.49 191.222 Q2212.78 193.976 2212.78 199.347 Z" fill="#000000" fill-rule="evenodd" fill-opacity="1" /><path clip-path="url(#clip160)" d="M2225.49 181.708 L2225.49 189.069 L2234.26 189.069 L2234.26 192.379 L2225.49 192.379 L2225.49 206.453 Q2225.49 209.624 2226.35 210.527 Q2227.23 211.43 2229.89 211.43 L2234.26 211.43 L2234.26 214.995 L2229.89 214.995 Q2224.96 214.995 2223.08 213.166 Q2221.21 211.314 2221.21 206.453 L2221.21 192.379 L2218.08 192.379 L2218.08 189.069 L2221.21 189.069 L2221.21 181.708 L2225.49 181.708 Z" fill="#000000" fill-rule="evenodd" fill-opacity="1" /></svg>
