<?xml version="1.0" encoding="utf-8"?>
<svg xmlns="http://www.w3.org/2000/svg" xmlns:xlink="http://www.w3.org/1999/xlink" width="600" height="400" viewBox="0 0 2400 1600">
<defs>
  <clipPath id="clip100">
    <rect x="0" y="0" width="2400" height="1600"/>
  </clipPath>
</defs>
<path clip-path="url(#clip100)" d="
M0 1600 L2400 1600 L2400 0 L0 0  Z
  " fill="#ffffff" fill-rule="evenodd" fill-opacity="1"/>
<defs>
  <clipPath id="clip101">
    <rect x="480" y="0" width="1681" height="1600"/>
  </clipPath>
</defs>
<defs>
  <clipPath id="clip102">
    <rect x="896" y="1261" width="686" height="235"/>
  </clipPath>
</defs>
<path clip-path="url(#clip100)" d="
M219.866 1450.96 L2352.76 1450.96 L2352.76 47.2441 L219.866 47.2441  Z
  " fill="#ffffff" fill-rule="evenodd" fill-opacity="1"/>
<defs>
  <clipPath id="clip103">
    <rect x="219" y="47" width="2134" height="1405"/>
  </clipPath>
</defs>
<polyline clip-path="url(#clip103)" style="stroke:#000000; stroke-linecap:butt; stroke-linejoin:round; stroke-width:2; stroke-opacity:0.1; fill:none" points="
  474.742,1450.96 474.742,47.2441 
  "/>
<polyline clip-path="url(#clip103)" style="stroke:#000000; stroke-linecap:butt; stroke-linejoin:round; stroke-width:2; stroke-opacity:0.1; fill:none" points="
  745.265,1450.96 745.265,47.2441 
  "/>
<polyline clip-path="url(#clip103)" style="stroke:#000000; stroke-linecap:butt; stroke-linejoin:round; stroke-width:2; stroke-opacity:0.1; fill:none" points="
  1015.79,1450.96 1015.79,47.2441 
  "/>
<polyline clip-path="url(#clip103)" style="stroke:#000000; stroke-linecap:butt; stroke-linejoin:round; stroke-width:2; stroke-opacity:0.1; fill:none" points="
  1286.31,1450.96 1286.31,47.2441 
  "/>
<polyline clip-path="url(#clip103)" style="stroke:#000000; stroke-linecap:butt; stroke-linejoin:round; stroke-width:2; stroke-opacity:0.1; fill:none" points="
  1556.83,1450.96 1556.83,47.2441 
  "/>
<polyline clip-path="url(#clip103)" style="stroke:#000000; stroke-linecap:butt; stroke-linejoin:round; stroke-width:2; stroke-opacity:0.1; fill:none" points="
  1827.36,1450.96 1827.36,47.2441 
  "/>
<polyline clip-path="url(#clip103)" style="stroke:#000000; stroke-linecap:butt; stroke-linejoin:round; stroke-width:2; stroke-opacity:0.1; fill:none" points="
  2097.88,1450.96 2097.88,47.2441 
  "/>
<polyline clip-path="url(#clip100)" style="stroke:#000000; stroke-linecap:butt; stroke-linejoin:round; stroke-width:4; stroke-opacity:1; fill:none" points="
  219.866,1450.96 2352.76,1450.96 
  "/>
<polyline clip-path="url(#clip100)" style="stroke:#000000; stroke-linecap:butt; stroke-linejoin:round; stroke-width:4; stroke-opacity:1; fill:none" points="
  474.742,1450.96 474.742,1432.06 
  "/>
<polyline clip-path="url(#clip100)" style="stroke:#000000; stroke-linecap:butt; stroke-linejoin:round; stroke-width:4; stroke-opacity:1; fill:none" points="
  745.265,1450.96 745.265,1432.06 
  "/>
<polyline clip-path="url(#clip100)" style="stroke:#000000; stroke-linecap:butt; stroke-linejoin:round; stroke-width:4; stroke-opacity:1; fill:none" points="
  1015.79,1450.96 1015.79,1432.06 
  "/>
<polyline clip-path="url(#clip100)" style="stroke:#000000; stroke-linecap:butt; stroke-linejoin:round; stroke-width:4; stroke-opacity:1; fill:none" points="
  1286.31,1450.96 1286.31,1432.06 
  "/>
<polyline clip-path="url(#clip100)" style="stroke:#000000; stroke-linecap:butt; stroke-linejoin:round; stroke-width:4; stroke-opacity:1; fill:none" points="
  1556.83,1450.96 1556.83,1432.06 
  "/>
<polyline clip-path="url(#clip100)" style="stroke:#000000; stroke-linecap:butt; stroke-linejoin:round; stroke-width:4; stroke-opacity:1; fill:none" points="
  1827.36,1450.96 1827.36,1432.06 
  "/>
<polyline clip-path="url(#clip100)" style="stroke:#000000; stroke-linecap:butt; stroke-linejoin:round; stroke-width:4; stroke-opacity:1; fill:none" points="
  2097.88,1450.96 2097.88,1432.06 
  "/>
<path clip-path="url(#clip100)" d="M444.209 1494.8 L473.885 1494.8 L473.885 1498.74 L444.209 1498.74 L444.209 1494.8 Z" fill="#000000" fill-rule="evenodd" fill-opacity="1" /><path clip-path="url(#clip100)" d="M498.144 1493 Q501.501 1493.72 503.376 1495.98 Q505.274 1498.25 505.274 1501.59 Q505.274 1506.7 501.755 1509.5 Q498.237 1512.3 491.755 1512.3 Q489.58 1512.3 487.265 1511.86 Q484.973 1511.45 482.519 1510.59 L482.519 1506.08 Q484.464 1507.21 486.779 1507.79 Q489.093 1508.37 491.617 1508.37 Q496.015 1508.37 498.306 1506.63 Q500.621 1504.9 500.621 1501.59 Q500.621 1498.53 498.468 1496.82 Q496.339 1495.08 492.519 1495.08 L488.492 1495.08 L488.492 1491.24 L492.705 1491.24 Q496.154 1491.24 497.982 1489.87 Q499.811 1488.48 499.811 1485.89 Q499.811 1483.23 497.913 1481.82 Q496.038 1480.38 492.519 1480.38 Q490.598 1480.38 488.399 1480.8 Q486.2 1481.22 483.561 1482.1 L483.561 1477.93 Q486.223 1477.19 488.538 1476.82 Q490.876 1476.45 492.936 1476.45 Q498.26 1476.45 501.362 1478.88 Q504.464 1481.29 504.464 1485.41 Q504.464 1488.28 502.82 1490.27 Q501.177 1492.23 498.144 1493 Z" fill="#000000" fill-rule="evenodd" fill-opacity="1" /><path clip-path="url(#clip100)" d="M715.207 1494.8 L744.883 1494.8 L744.883 1498.74 L715.207 1498.74 L715.207 1494.8 Z" fill="#000000" fill-rule="evenodd" fill-opacity="1" /><path clip-path="url(#clip100)" d="M759.003 1507.7 L775.323 1507.7 L775.323 1511.63 L753.378 1511.63 L753.378 1507.7 Q756.04 1504.94 760.624 1500.31 Q765.23 1495.66 766.411 1494.32 Q768.656 1491.79 769.536 1490.06 Q770.438 1488.3 770.438 1486.61 Q770.438 1483.85 768.494 1482.12 Q766.573 1480.38 763.471 1480.38 Q761.272 1480.38 758.818 1481.15 Q756.387 1481.91 753.61 1483.46 L753.61 1478.74 Q756.434 1477.6 758.887 1477.03 Q761.341 1476.45 763.378 1476.45 Q768.748 1476.45 771.943 1479.13 Q775.137 1481.82 775.137 1486.31 Q775.137 1488.44 774.327 1490.36 Q773.54 1492.26 771.434 1494.85 Q770.855 1495.52 767.753 1498.74 Q764.651 1501.93 759.003 1507.7 Z" fill="#000000" fill-rule="evenodd" fill-opacity="1" /><path clip-path="url(#clip100)" d="M985.545 1494.8 L1015.22 1494.8 L1015.22 1498.74 L985.545 1498.74 L985.545 1494.8 Z" fill="#000000" fill-rule="evenodd" fill-opacity="1" /><path clip-path="url(#clip100)" d="M1026.12 1507.7 L1033.76 1507.7 L1033.76 1481.33 L1025.45 1483 L1025.45 1478.74 L1033.72 1477.07 L1038.39 1477.07 L1038.39 1507.7 L1046.03 1507.7 L1046.03 1511.63 L1026.12 1511.63 L1026.12 1507.7 Z" fill="#000000" fill-rule="evenodd" fill-opacity="1" /><path clip-path="url(#clip100)" d="M1286.31 1480.15 Q1282.7 1480.15 1280.87 1483.72 Q1279.07 1487.26 1279.07 1494.39 Q1279.07 1501.49 1280.87 1505.06 Q1282.7 1508.6 1286.31 1508.6 Q1289.95 1508.6 1291.75 1505.06 Q1293.58 1501.49 1293.58 1494.39 Q1293.58 1487.26 1291.75 1483.72 Q1289.95 1480.15 1286.31 1480.15 M1286.31 1476.45 Q1292.12 1476.45 1295.18 1481.05 Q1298.26 1485.64 1298.26 1494.39 Q1298.26 1503.11 1295.18 1507.72 Q1292.12 1512.3 1286.31 1512.3 Q1280.5 1512.3 1277.42 1507.72 Q1274.37 1503.11 1274.37 1494.39 Q1274.37 1485.64 1277.42 1481.05 Q1280.5 1476.45 1286.31 1476.45 Z" fill="#000000" fill-rule="evenodd" fill-opacity="1" /><path clip-path="url(#clip100)" d="M1547.22 1507.7 L1554.86 1507.7 L1554.86 1481.33 L1546.54 1483 L1546.54 1478.74 L1554.81 1477.07 L1559.48 1477.07 L1559.48 1507.7 L1567.12 1507.7 L1567.12 1511.63 L1547.22 1511.63 L1547.22 1507.7 Z" fill="#000000" fill-rule="evenodd" fill-opacity="1" /><path clip-path="url(#clip100)" d="M1822.01 1507.7 L1838.33 1507.7 L1838.33 1511.63 L1816.39 1511.63 L1816.39 1507.7 Q1819.05 1504.94 1823.63 1500.31 Q1828.24 1495.66 1829.42 1494.32 Q1831.66 1491.79 1832.54 1490.06 Q1833.45 1488.3 1833.45 1486.61 Q1833.45 1483.85 1831.5 1482.12 Q1829.58 1480.38 1826.48 1480.38 Q1824.28 1480.38 1821.82 1481.15 Q1819.39 1481.91 1816.62 1483.46 L1816.62 1478.74 Q1819.44 1477.6 1821.89 1477.03 Q1824.35 1476.45 1826.39 1476.45 Q1831.76 1476.45 1834.95 1479.13 Q1838.14 1481.82 1838.14 1486.31 Q1838.14 1488.44 1837.33 1490.36 Q1836.55 1492.26 1834.44 1494.85 Q1833.86 1495.52 1830.76 1498.74 Q1827.66 1501.93 1822.01 1507.7 Z" fill="#000000" fill-rule="evenodd" fill-opacity="1" /><path clip-path="url(#clip100)" d="M2102.13 1493 Q2105.48 1493.72 2107.36 1495.98 Q2109.26 1498.25 2109.26 1501.59 Q2109.26 1506.7 2105.74 1509.5 Q2102.22 1512.3 2095.74 1512.3 Q2093.56 1512.3 2091.25 1511.86 Q2088.96 1511.45 2086.5 1510.59 L2086.5 1506.08 Q2088.45 1507.21 2090.76 1507.79 Q2093.08 1508.37 2095.6 1508.37 Q2100 1508.37 2102.29 1506.63 Q2104.61 1504.9 2104.61 1501.59 Q2104.61 1498.53 2102.45 1496.82 Q2100.32 1495.08 2096.5 1495.08 L2092.48 1495.08 L2092.48 1491.24 L2096.69 1491.24 Q2100.14 1491.24 2101.97 1489.87 Q2103.79 1488.48 2103.79 1485.89 Q2103.79 1483.23 2101.9 1481.82 Q2100.02 1480.38 2096.5 1480.38 Q2094.58 1480.38 2092.38 1480.8 Q2090.18 1481.22 2087.54 1482.1 L2087.54 1477.93 Q2090.21 1477.19 2092.52 1476.82 Q2094.86 1476.45 2096.92 1476.45 Q2102.24 1476.45 2105.35 1478.88 Q2108.45 1481.29 2108.45 1485.41 Q2108.45 1488.28 2106.8 1490.27 Q2105.16 1492.23 2102.13 1493 Z" fill="#000000" fill-rule="evenodd" fill-opacity="1" /><path clip-path="url(#clip100)" d="M1300.48 1539.92 Q1300.48 1541.72 1299.36 1542.75 Q1298.23 1543.75 1296.94 1543.75 Q1295.72 1543.75 1295.07 1543.04 Q1294.43 1542.33 1294.43 1541.43 Q1294.43 1540.21 1295.33 1539.14 Q1296.23 1538.08 1297.59 1537.85 Q1296.27 1537.02 1294.3 1537.02 Q1293.01 1537.02 1291.89 1537.69 Q1290.79 1538.37 1290.11 1539.24 Q1289.47 1540.11 1288.89 1541.37 Q1288.34 1542.59 1288.12 1543.33 Q1287.92 1544.04 1287.76 1544.81 L1285.51 1553.83 Q1284.41 1558.11 1284.41 1559.63 Q1284.41 1561.49 1285.32 1562.75 Q1286.22 1563.97 1288.02 1563.97 Q1288.73 1563.97 1289.53 1563.78 Q1290.34 1563.55 1291.37 1562.98 Q1292.43 1562.36 1293.37 1561.46 Q1294.33 1560.53 1295.27 1558.95 Q1296.2 1557.37 1296.81 1555.34 Q1297.01 1554.63 1297.65 1554.63 Q1298.46 1554.63 1298.46 1555.28 Q1298.46 1555.83 1298 1556.98 Q1297.59 1558.11 1296.65 1559.59 Q1295.75 1561.04 1294.56 1562.36 Q1293.37 1563.65 1291.6 1564.55 Q1289.82 1565.46 1287.89 1565.46 Q1285.12 1565.46 1283.29 1563.97 Q1281.45 1562.49 1280.77 1560.43 Q1280.61 1560.72 1280.39 1561.11 Q1280.16 1561.49 1279.49 1562.36 Q1278.84 1563.2 1278.1 1563.84 Q1277.36 1564.46 1276.2 1564.94 Q1275.07 1565.46 1273.85 1565.46 Q1272.3 1565.46 1270.92 1565 Q1269.57 1564.55 1268.6 1563.52 Q1267.63 1562.49 1267.63 1561.08 Q1267.63 1559.5 1268.7 1558.4 Q1269.79 1557.27 1271.27 1557.27 Q1272.21 1557.27 1272.95 1557.82 Q1273.72 1558.37 1273.72 1559.56 Q1273.72 1560.88 1272.82 1561.88 Q1271.92 1562.88 1270.63 1563.14 Q1271.95 1563.97 1273.91 1563.97 Q1276.04 1563.97 1277.71 1562.11 Q1279.39 1560.24 1280.19 1557.11 Q1282.19 1549.61 1282.96 1546.26 Q1283.74 1542.88 1283.74 1541.43 Q1283.74 1540.08 1283.38 1539.14 Q1283.03 1538.21 1282.42 1537.79 Q1281.84 1537.34 1281.29 1537.18 Q1280.77 1537.02 1280.19 1537.02 Q1279.23 1537.02 1278.13 1537.4 Q1277.07 1537.79 1275.78 1538.69 Q1274.53 1539.56 1273.33 1541.37 Q1272.14 1543.17 1271.34 1545.65 Q1271.18 1546.39 1270.47 1546.39 Q1269.7 1546.36 1269.7 1545.71 Q1269.7 1545.17 1270.11 1544.04 Q1270.57 1542.88 1271.47 1541.43 Q1272.4 1539.98 1273.59 1538.69 Q1274.82 1537.37 1276.59 1536.47 Q1278.39 1535.57 1280.32 1535.57 Q1281.19 1535.57 1282.03 1535.76 Q1282.9 1535.92 1283.93 1536.41 Q1284.99 1536.89 1285.93 1537.95 Q1286.86 1539.01 1287.44 1540.56 Q1287.83 1539.82 1288.34 1539.11 Q1288.89 1538.4 1289.73 1537.53 Q1290.6 1536.63 1291.79 1536.12 Q1293.01 1535.57 1294.37 1535.57 Q1295.69 1535.57 1296.97 1535.92 Q1298.26 1536.24 1299.36 1537.31 Q1300.48 1538.34 1300.48 1539.92 Z" fill="#000000" fill-rule="evenodd" fill-opacity="1" /><polyline clip-path="url(#clip103)" style="stroke:#000000; stroke-linecap:butt; stroke-linejoin:round; stroke-width:2; stroke-opacity:0.1; fill:none" points="
  219.866,1412.55 2352.76,1412.55 
  "/>
<polyline clip-path="url(#clip103)" style="stroke:#000000; stroke-linecap:butt; stroke-linejoin:round; stroke-width:2; stroke-opacity:0.1; fill:none" points="
  219.866,1080.22 2352.76,1080.22 
  "/>
<polyline clip-path="url(#clip103)" style="stroke:#000000; stroke-linecap:butt; stroke-linejoin:round; stroke-width:2; stroke-opacity:0.1; fill:none" points="
  219.866,747.891 2352.76,747.891 
  "/>
<polyline clip-path="url(#clip103)" style="stroke:#000000; stroke-linecap:butt; stroke-linejoin:round; stroke-width:2; stroke-opacity:0.1; fill:none" points="
  219.866,415.562 2352.76,415.562 
  "/>
<polyline clip-path="url(#clip103)" style="stroke:#000000; stroke-linecap:butt; stroke-linejoin:round; stroke-width:2; stroke-opacity:0.1; fill:none" points="
  219.866,83.2335 2352.76,83.2335 
  "/>
<polyline clip-path="url(#clip100)" style="stroke:#000000; stroke-linecap:butt; stroke-linejoin:round; stroke-width:4; stroke-opacity:1; fill:none" points="
  219.866,1450.96 219.866,47.2441 
  "/>
<polyline clip-path="url(#clip100)" style="stroke:#000000; stroke-linecap:butt; stroke-linejoin:round; stroke-width:4; stroke-opacity:1; fill:none" points="
  219.866,1412.55 238.764,1412.55 
  "/>
<polyline clip-path="url(#clip100)" style="stroke:#000000; stroke-linecap:butt; stroke-linejoin:round; stroke-width:4; stroke-opacity:1; fill:none" points="
  219.866,1080.22 238.764,1080.22 
  "/>
<polyline clip-path="url(#clip100)" style="stroke:#000000; stroke-linecap:butt; stroke-linejoin:round; stroke-width:4; stroke-opacity:1; fill:none" points="
  219.866,747.891 238.764,747.891 
  "/>
<polyline clip-path="url(#clip100)" style="stroke:#000000; stroke-linecap:butt; stroke-linejoin:round; stroke-width:4; stroke-opacity:1; fill:none" points="
  219.866,415.562 238.764,415.562 
  "/>
<polyline clip-path="url(#clip100)" style="stroke:#000000; stroke-linecap:butt; stroke-linejoin:round; stroke-width:4; stroke-opacity:1; fill:none" points="
  219.866,83.2335 238.764,83.2335 
  "/>
<path clip-path="url(#clip100)" d="M126.691 1398.35 Q123.08 1398.35 121.251 1401.91 Q119.445 1405.45 119.445 1412.58 Q119.445 1419.69 121.251 1423.25 Q123.08 1426.8 126.691 1426.8 Q130.325 1426.8 132.13 1423.25 Q133.959 1419.69 133.959 1412.58 Q133.959 1405.45 132.13 1401.91 Q130.325 1398.35 126.691 1398.35 M126.691 1394.64 Q132.501 1394.64 135.556 1399.25 Q138.635 1403.83 138.635 1412.58 Q138.635 1421.31 135.556 1425.92 Q132.501 1430.5 126.691 1430.5 Q120.88 1430.5 117.802 1425.92 Q114.746 1421.31 114.746 1412.58 Q114.746 1403.83 117.802 1399.25 Q120.88 1394.64 126.691 1394.64 Z" fill="#000000" fill-rule="evenodd" fill-opacity="1" /><path clip-path="url(#clip100)" d="M146.853 1423.95 L151.737 1423.95 L151.737 1429.83 L146.853 1429.83 L146.853 1423.95 Z" fill="#000000" fill-rule="evenodd" fill-opacity="1" /><path clip-path="url(#clip100)" d="M171.922 1398.35 Q168.311 1398.35 166.482 1401.91 Q164.677 1405.45 164.677 1412.58 Q164.677 1419.69 166.482 1423.25 Q168.311 1426.8 171.922 1426.8 Q175.556 1426.8 177.362 1423.25 Q179.19 1419.69 179.19 1412.58 Q179.19 1405.45 177.362 1401.91 Q175.556 1398.35 171.922 1398.35 M171.922 1394.64 Q177.732 1394.64 180.788 1399.25 Q183.866 1403.83 183.866 1412.58 Q183.866 1421.31 180.788 1425.92 Q177.732 1430.5 171.922 1430.5 Q166.112 1430.5 163.033 1425.92 Q159.978 1421.31 159.978 1412.58 Q159.978 1403.83 163.033 1399.25 Q166.112 1394.64 171.922 1394.64 Z" fill="#000000" fill-rule="evenodd" fill-opacity="1" /><path clip-path="url(#clip100)" d="M127.917 1066.02 Q124.306 1066.02 122.478 1069.58 Q120.672 1073.12 120.672 1080.25 Q120.672 1087.36 122.478 1090.93 Q124.306 1094.47 127.917 1094.47 Q131.552 1094.47 133.357 1090.93 Q135.186 1087.36 135.186 1080.25 Q135.186 1073.12 133.357 1069.58 Q131.552 1066.02 127.917 1066.02 M127.917 1062.31 Q133.728 1062.31 136.783 1066.92 Q139.862 1071.5 139.862 1080.25 Q139.862 1088.98 136.783 1093.59 Q133.728 1098.17 127.917 1098.17 Q122.107 1098.17 119.029 1093.59 Q115.973 1088.98 115.973 1080.25 Q115.973 1071.5 119.029 1066.92 Q122.107 1062.31 127.917 1062.31 Z" fill="#000000" fill-rule="evenodd" fill-opacity="1" /><path clip-path="url(#clip100)" d="M148.079 1091.62 L152.964 1091.62 L152.964 1097.5 L148.079 1097.5 L148.079 1091.62 Z" fill="#000000" fill-rule="evenodd" fill-opacity="1" /><path clip-path="url(#clip100)" d="M163.959 1093.56 L171.598 1093.56 L171.598 1067.2 L163.288 1068.87 L163.288 1064.61 L171.552 1062.94 L176.227 1062.94 L176.227 1093.56 L183.866 1093.56 L183.866 1097.5 L163.959 1097.5 L163.959 1093.56 Z" fill="#000000" fill-rule="evenodd" fill-opacity="1" /><path clip-path="url(#clip100)" d="M128.288 733.689 Q124.677 733.689 122.848 737.254 Q121.043 740.796 121.043 747.925 Q121.043 755.032 122.848 758.597 Q124.677 762.138 128.288 762.138 Q131.922 762.138 133.728 758.597 Q135.556 755.032 135.556 747.925 Q135.556 740.796 133.728 737.254 Q131.922 733.689 128.288 733.689 M128.288 729.986 Q134.098 729.986 137.154 734.592 Q140.232 739.175 140.232 747.925 Q140.232 756.652 137.154 761.259 Q134.098 765.842 128.288 765.842 Q122.478 765.842 119.399 761.259 Q116.343 756.652 116.343 747.925 Q116.343 739.175 119.399 734.592 Q122.478 729.986 128.288 729.986 Z" fill="#000000" fill-rule="evenodd" fill-opacity="1" /><path clip-path="url(#clip100)" d="M148.45 759.291 L153.334 759.291 L153.334 765.171 L148.45 765.171 L148.45 759.291 Z" fill="#000000" fill-rule="evenodd" fill-opacity="1" /><path clip-path="url(#clip100)" d="M167.547 761.236 L183.866 761.236 L183.866 765.171 L161.922 765.171 L161.922 761.236 Q164.584 758.481 169.167 753.851 Q173.774 749.199 174.954 747.856 Q177.2 745.333 178.079 743.597 Q178.982 741.838 178.982 740.148 Q178.982 737.393 177.038 735.657 Q175.116 733.921 172.014 733.921 Q169.815 733.921 167.362 734.685 Q164.931 735.449 162.153 737 L162.153 732.277 Q164.977 731.143 167.431 730.564 Q169.885 729.986 171.922 729.986 Q177.292 729.986 180.487 732.671 Q183.681 735.356 183.681 739.847 Q183.681 741.976 182.871 743.898 Q182.084 745.796 179.977 748.388 Q179.399 749.06 176.297 752.277 Q173.195 755.472 167.547 761.236 Z" fill="#000000" fill-rule="evenodd" fill-opacity="1" /><path clip-path="url(#clip100)" d="M127.339 401.361 Q123.728 401.361 121.899 404.926 Q120.093 408.467 120.093 415.597 Q120.093 422.703 121.899 426.268 Q123.728 429.81 127.339 429.81 Q130.973 429.81 132.779 426.268 Q134.607 422.703 134.607 415.597 Q134.607 408.467 132.779 404.926 Q130.973 401.361 127.339 401.361 M127.339 397.657 Q133.149 397.657 136.204 402.264 Q139.283 406.847 139.283 415.597 Q139.283 424.324 136.204 428.93 Q133.149 433.513 127.339 433.513 Q121.529 433.513 118.45 428.93 Q115.394 424.324 115.394 415.597 Q115.394 406.847 118.45 402.264 Q121.529 397.657 127.339 397.657 Z" fill="#000000" fill-rule="evenodd" fill-opacity="1" /><path clip-path="url(#clip100)" d="M147.501 426.963 L152.385 426.963 L152.385 432.842 L147.501 432.842 L147.501 426.963 Z" fill="#000000" fill-rule="evenodd" fill-opacity="1" /><path clip-path="url(#clip100)" d="M176.737 414.208 Q180.093 414.926 181.968 417.194 Q183.866 419.463 183.866 422.796 Q183.866 427.912 180.348 430.712 Q176.829 433.513 170.348 433.513 Q168.172 433.513 165.857 433.074 Q163.565 432.657 161.112 431.8 L161.112 427.287 Q163.056 428.421 165.371 429 Q167.686 429.578 170.209 429.578 Q174.607 429.578 176.899 427.842 Q179.214 426.106 179.214 422.796 Q179.214 419.74 177.061 418.027 Q174.931 416.291 171.112 416.291 L167.084 416.291 L167.084 412.449 L171.297 412.449 Q174.746 412.449 176.575 411.083 Q178.403 409.694 178.403 407.102 Q178.403 404.439 176.505 403.027 Q174.63 401.592 171.112 401.592 Q169.19 401.592 166.991 402.009 Q164.792 402.426 162.153 403.305 L162.153 399.139 Q164.815 398.398 167.13 398.027 Q169.468 397.657 171.528 397.657 Q176.852 397.657 179.954 400.088 Q183.056 402.495 183.056 406.615 Q183.056 409.486 181.413 411.476 Q179.769 413.444 176.737 414.208 Z" fill="#000000" fill-rule="evenodd" fill-opacity="1" /><path clip-path="url(#clip100)" d="M126.205 69.0322 Q122.593 69.0322 120.765 72.597 Q118.959 76.1386 118.959 83.2682 Q118.959 90.3747 120.765 93.9395 Q122.593 97.4811 126.205 97.4811 Q129.839 97.4811 131.644 93.9395 Q133.473 90.3747 133.473 83.2682 Q133.473 76.1386 131.644 72.597 Q129.839 69.0322 126.205 69.0322 M126.205 65.3285 Q132.015 65.3285 135.07 69.935 Q138.149 74.5183 138.149 83.2682 Q138.149 91.995 135.07 96.6015 Q132.015 101.185 126.205 101.185 Q120.394 101.185 117.316 96.6015 Q114.26 91.995 114.26 83.2682 Q114.26 74.5183 117.316 69.935 Q120.394 65.3285 126.205 65.3285 Z" fill="#000000" fill-rule="evenodd" fill-opacity="1" /><path clip-path="url(#clip100)" d="M146.366 94.6339 L151.251 94.6339 L151.251 100.514 L146.366 100.514 L146.366 94.6339 Z" fill="#000000" fill-rule="evenodd" fill-opacity="1" /><path clip-path="url(#clip100)" d="M174.283 70.0276 L162.477 88.4765 L174.283 88.4765 L174.283 70.0276 M173.056 65.9535 L178.936 65.9535 L178.936 88.4765 L183.866 88.4765 L183.866 92.3654 L178.936 92.3654 L178.936 100.514 L174.283 100.514 L174.283 92.3654 L158.681 92.3654 L158.681 87.8515 L173.056 65.9535 Z" fill="#000000" fill-rule="evenodd" fill-opacity="1" /><path clip-path="url(#clip100)" d="M21.7677 862.412 L58.7206 862.412 L58.7206 854.646 Q58.7206 844.811 54.2646 840.259 Q49.8086 835.676 40.1964 835.676 Q30.6479 835.676 26.2237 840.259 Q21.7677 844.811 21.7677 854.646 L21.7677 862.412 M16.4842 868.841 L16.4842 855.632 Q16.4842 841.819 22.2451 835.358 Q27.9743 828.896 40.1964 828.896 Q52.4822 828.896 58.2432 835.389 Q64.0042 841.882 64.0042 855.632 L64.0042 868.841 L16.4842 868.841 Z" fill="#000000" fill-rule="evenodd" fill-opacity="1" /><path clip-path="url(#clip100)" d="M44.7161 788.41 L47.5806 788.41 L47.5806 815.337 Q53.6281 814.955 56.8109 811.709 Q59.9619 808.431 59.9619 802.606 Q59.9619 799.232 59.1344 796.081 Q58.3069 792.898 56.6518 789.779 L62.1899 789.779 Q63.5267 792.93 64.227 796.24 Q64.9272 799.55 64.9272 802.956 Q64.9272 811.486 59.9619 816.483 Q54.9967 821.448 46.5303 821.448 Q37.7774 821.448 32.6531 816.738 Q27.4968 811.995 27.4968 803.975 Q27.4968 796.781 32.1438 792.612 Q36.7589 788.41 44.7161 788.41 M42.9973 794.267 Q38.1912 794.331 35.3266 796.972 Q32.4621 799.582 32.4621 803.911 Q32.4621 808.813 35.2312 811.773 Q38.0002 814.701 43.0292 815.146 L42.9973 794.267 Z" fill="#000000" fill-rule="evenodd" fill-opacity="1" /><path clip-path="url(#clip100)" d="M42.4881 749.166 L64.0042 749.166 L64.0042 755.022 L42.679 755.022 Q37.6183 755.022 35.1038 756.996 Q32.5894 758.969 32.5894 762.916 Q32.5894 767.658 35.6131 770.395 Q38.6368 773.133 43.8567 773.133 L64.0042 773.133 L64.0042 779.021 L28.3562 779.021 L28.3562 773.133 L33.8944 773.133 Q30.6797 771.032 29.0883 768.199 Q27.4968 765.335 27.4968 761.611 Q27.4968 755.468 31.3163 752.317 Q35.1038 749.166 42.4881 749.166 Z" fill="#000000" fill-rule="evenodd" fill-opacity="1" /><path clip-path="url(#clip100)" d="M29.4065 714.759 L34.9447 714.759 Q33.6716 717.242 33.035 719.915 Q32.3984 722.589 32.3984 725.454 Q32.3984 729.814 33.7352 732.01 Q35.072 734.175 37.7456 734.175 Q39.7826 734.175 40.9603 732.615 Q42.1061 731.055 43.1565 726.345 L43.6021 724.34 Q44.9389 718.101 47.3897 715.491 Q49.8086 712.849 54.1691 712.849 Q59.1344 712.849 62.0308 716.796 Q64.9272 720.711 64.9272 727.586 Q64.9272 730.451 64.3543 733.57 Q63.8132 736.657 62.6992 740.095 L56.6518 740.095 Q58.3387 736.848 59.198 733.697 Q60.0256 730.546 60.0256 727.459 Q60.0256 723.321 58.6251 721.093 Q57.1929 718.865 54.6147 718.865 Q52.2276 718.865 50.9545 720.488 Q49.6813 722.08 48.5037 727.522 L48.0262 729.559 Q46.8804 735.002 44.5251 737.421 Q42.138 739.84 38.0002 739.84 Q32.9713 739.84 30.2341 736.275 Q27.4968 732.71 27.4968 726.154 Q27.4968 722.907 27.9743 720.043 Q28.4517 717.178 29.4065 714.759 Z" fill="#000000" fill-rule="evenodd" fill-opacity="1" /><path clip-path="url(#clip100)" d="M28.3562 703.524 L28.3562 697.667 L64.0042 697.667 L64.0042 703.524 L28.3562 703.524 M14.479 703.524 L14.479 697.667 L21.895 697.667 L21.895 703.524 L14.479 703.524 Z" fill="#000000" fill-rule="evenodd" fill-opacity="1" /><path clip-path="url(#clip100)" d="M18.2347 679.62 L28.3562 679.62 L28.3562 667.557 L32.9077 667.557 L32.9077 679.62 L52.2594 679.62 Q56.6199 679.62 57.8613 678.443 Q59.1026 677.233 59.1026 673.573 L59.1026 667.557 L64.0042 667.557 L64.0042 673.573 Q64.0042 680.353 61.4897 682.931 Q58.9434 685.509 52.2594 685.509 L32.9077 685.509 L32.9077 689.806 L28.3562 689.806 L28.3562 685.509 L18.2347 685.509 L18.2347 679.62 Z" fill="#000000" fill-rule="evenodd" fill-opacity="1" /><path clip-path="url(#clip100)" d="M67.3143 645.023 Q73.68 647.505 75.6216 649.861 Q77.5631 652.216 77.5631 656.163 L77.5631 660.842 L72.6615 660.842 L72.6615 657.404 Q72.6615 654.985 71.5157 653.648 Q70.3699 652.312 66.1048 650.688 L63.4312 649.638 L28.3562 664.056 L28.3562 657.85 L56.238 646.71 L28.3562 635.57 L28.3562 629.363 L67.3143 645.023 Z" fill="#000000" fill-rule="evenodd" fill-opacity="1" /><polyline clip-path="url(#clip103)" style="stroke:#009af9; stroke-linecap:butt; stroke-linejoin:round; stroke-width:20; stroke-opacity:1; fill:none" points="
  280.231,1411.23 290.056,1411.04 299.881,1410.83 390.73,1407.02 481.578,1396.66 536.174,1384.18 590.77,1363.91 636.93,1338.21 683.09,1302.19 708.161,1277.44 
  733.233,1248.55 758.304,1215.19 783.376,1177.07 806.489,1137.54 829.603,1093.71 852.717,1045.58 875.83,993.25 925.391,868.094 974.951,728.914 1032.37,559.176 
  1089.79,394.222 1115.31,326.847 1140.82,265.264 1166.34,210.926 1191.85,165.158 1214.22,132.994 1236.6,108.947 1258.97,93.5017 1281.35,86.9719 1305.74,90.1632 
  1330.13,104.03 1354.53,128.236 1378.92,162.202 1403.46,205.408 1428,256.67 1452.54,314.824 1477.07,378.595 1531.33,532.84 1585.6,693.589 1637.22,840.937 
  1688.85,974.34 1715.69,1036.34 1742.53,1092.74 1769.37,1143.34 1796.21,1188.15 1841.4,1251.03 1886.59,1299.49 1941.76,1342.12 1996.93,1370.46 2048.79,1387.58 
  2100.65,1398.27 2183.73,1407.14 2266.82,1410.69 2279.6,1410.98 2292.39,1411.23 
  "/>
</svg>
