<?xml version="1.0" encoding="utf-8"?>
<svg xmlns="http://www.w3.org/2000/svg" xmlns:xlink="http://www.w3.org/1999/xlink" width="600" height="400" viewBox="0 0 2400 1600">
<defs>
  <clipPath id="clip130">
    <rect x="0" y="0" width="2400" height="1600"/>
  </clipPath>
</defs>
<path clip-path="url(#clip130)" d="
M0 1600 L2400 1600 L2400 0 L0 0  Z
  " fill="#ffffff" fill-rule="evenodd" fill-opacity="1"/>
<defs>
  <clipPath id="clip131">
    <rect x="480" y="0" width="1681" height="1600"/>
  </clipPath>
</defs>
<defs>
  <clipPath id="clip132">
    <rect x="219" y="47" width="2134" height="1405"/>
  </clipPath>
</defs>
<path clip-path="url(#clip130)" d="
M219.38 1450.96 L2352.76 1450.96 L2352.76 47.2441 L219.38 47.2441  Z
  " fill="#ffffff" fill-rule="evenodd" fill-opacity="1"/>
<polyline clip-path="url(#clip132)" style="stroke:#000000; stroke-linecap:butt; stroke-linejoin:round; stroke-width:2; stroke-opacity:0.1; fill:none" points="
  219.38,1450.96 219.38,47.2441 
  "/>
<polyline clip-path="url(#clip132)" style="stroke:#000000; stroke-linecap:butt; stroke-linejoin:round; stroke-width:2; stroke-opacity:0.1; fill:none" points="
  752.724,1450.96 752.724,47.2441 
  "/>
<polyline clip-path="url(#clip132)" style="stroke:#000000; stroke-linecap:butt; stroke-linejoin:round; stroke-width:2; stroke-opacity:0.1; fill:none" points="
  1286.07,1450.96 1286.07,47.2441 
  "/>
<polyline clip-path="url(#clip132)" style="stroke:#000000; stroke-linecap:butt; stroke-linejoin:round; stroke-width:2; stroke-opacity:0.1; fill:none" points="
  1819.41,1450.96 1819.41,47.2441 
  "/>
<polyline clip-path="url(#clip132)" style="stroke:#000000; stroke-linecap:butt; stroke-linejoin:round; stroke-width:2; stroke-opacity:0.1; fill:none" points="
  2352.76,1450.96 2352.76,47.2441 
  "/>
<polyline clip-path="url(#clip130)" style="stroke:#000000; stroke-linecap:butt; stroke-linejoin:round; stroke-width:4; stroke-opacity:1; fill:none" points="
  219.38,1450.96 2352.76,1450.96 
  "/>
<polyline clip-path="url(#clip130)" style="stroke:#000000; stroke-linecap:butt; stroke-linejoin:round; stroke-width:4; stroke-opacity:1; fill:none" points="
  219.38,1450.96 219.38,1432.06 
  "/>
<polyline clip-path="url(#clip130)" style="stroke:#000000; stroke-linecap:butt; stroke-linejoin:round; stroke-width:4; stroke-opacity:1; fill:none" points="
  752.724,1450.96 752.724,1432.06 
  "/>
<polyline clip-path="url(#clip130)" style="stroke:#000000; stroke-linecap:butt; stroke-linejoin:round; stroke-width:4; stroke-opacity:1; fill:none" points="
  1286.07,1450.96 1286.07,1432.06 
  "/>
<polyline clip-path="url(#clip130)" style="stroke:#000000; stroke-linecap:butt; stroke-linejoin:round; stroke-width:4; stroke-opacity:1; fill:none" points="
  1819.41,1450.96 1819.41,1432.06 
  "/>
<polyline clip-path="url(#clip130)" style="stroke:#000000; stroke-linecap:butt; stroke-linejoin:round; stroke-width:4; stroke-opacity:1; fill:none" points="
  2352.76,1450.96 2352.76,1432.06 
  "/>
<path clip-path="url(#clip130)" d="M188.281 1494.8 L217.957 1494.8 L217.957 1498.74 L188.281 1498.74 L188.281 1494.8 Z" fill="#000000" fill-rule="evenodd" fill-opacity="1" /><path clip-path="url(#clip130)" d="M240.896 1481.15 L229.091 1499.6 L240.896 1499.6 L240.896 1481.15 M239.669 1477.07 L245.549 1477.07 L245.549 1499.6 L250.48 1499.6 L250.48 1503.48 L245.549 1503.48 L245.549 1511.63 L240.896 1511.63 L240.896 1503.48 L225.294 1503.48 L225.294 1498.97 L239.669 1477.07 Z" fill="#000000" fill-rule="evenodd" fill-opacity="1" /><path clip-path="url(#clip130)" d="M722.666 1494.8 L752.342 1494.8 L752.342 1498.74 L722.666 1498.74 L722.666 1494.8 Z" fill="#000000" fill-rule="evenodd" fill-opacity="1" /><path clip-path="url(#clip130)" d="M766.462 1507.7 L782.782 1507.7 L782.782 1511.63 L760.837 1511.63 L760.837 1507.7 Q763.499 1504.94 768.083 1500.31 Q772.689 1495.66 773.87 1494.32 Q776.115 1491.79 776.995 1490.06 Q777.898 1488.3 777.898 1486.61 Q777.898 1483.85 775.953 1482.12 Q774.032 1480.38 770.93 1480.38 Q768.731 1480.38 766.277 1481.15 Q763.847 1481.91 761.069 1483.46 L761.069 1478.74 Q763.893 1477.6 766.347 1477.03 Q768.8 1476.45 770.837 1476.45 Q776.208 1476.45 779.402 1479.13 Q782.597 1481.82 782.597 1486.31 Q782.597 1488.44 781.786 1490.36 Q780.999 1492.26 778.893 1494.85 Q778.314 1495.52 775.212 1498.74 Q772.111 1501.93 766.462 1507.7 Z" fill="#000000" fill-rule="evenodd" fill-opacity="1" /><path clip-path="url(#clip130)" d="M1286.07 1480.15 Q1282.46 1480.15 1280.63 1483.72 Q1278.82 1487.26 1278.82 1494.39 Q1278.82 1501.49 1280.63 1505.06 Q1282.46 1508.6 1286.07 1508.6 Q1289.7 1508.6 1291.51 1505.06 Q1293.34 1501.49 1293.34 1494.39 Q1293.34 1487.26 1291.51 1483.72 Q1289.7 1480.15 1286.07 1480.15 M1286.07 1476.45 Q1291.88 1476.45 1294.93 1481.05 Q1298.01 1485.64 1298.01 1494.39 Q1298.01 1503.11 1294.93 1507.72 Q1291.88 1512.3 1286.07 1512.3 Q1280.26 1512.3 1277.18 1507.72 Q1274.12 1503.11 1274.12 1494.39 Q1274.12 1485.64 1277.18 1481.05 Q1280.26 1476.45 1286.07 1476.45 Z" fill="#000000" fill-rule="evenodd" fill-opacity="1" /><path clip-path="url(#clip130)" d="M1814.06 1507.7 L1830.38 1507.7 L1830.38 1511.63 L1808.44 1511.63 L1808.44 1507.7 Q1811.1 1504.94 1815.69 1500.31 Q1820.29 1495.66 1821.47 1494.32 Q1823.72 1491.79 1824.6 1490.06 Q1825.5 1488.3 1825.5 1486.61 Q1825.5 1483.85 1823.56 1482.12 Q1821.63 1480.38 1818.53 1480.38 Q1816.33 1480.38 1813.88 1481.15 Q1811.45 1481.91 1808.67 1483.46 L1808.67 1478.74 Q1811.5 1477.6 1813.95 1477.03 Q1816.4 1476.45 1818.44 1476.45 Q1823.81 1476.45 1827 1479.13 Q1830.2 1481.82 1830.2 1486.31 Q1830.2 1488.44 1829.39 1490.36 Q1828.6 1492.26 1826.5 1494.85 Q1825.92 1495.52 1822.81 1498.74 Q1819.71 1501.93 1814.06 1507.7 Z" fill="#000000" fill-rule="evenodd" fill-opacity="1" /><path clip-path="url(#clip130)" d="M2355.77 1481.15 L2343.96 1499.6 L2355.77 1499.6 L2355.77 1481.15 M2354.54 1477.07 L2360.42 1477.07 L2360.42 1499.6 L2365.35 1499.6 L2365.35 1503.48 L2360.42 1503.48 L2360.42 1511.63 L2355.77 1511.63 L2355.77 1503.48 L2340.16 1503.48 L2340.16 1498.97 L2354.54 1477.07 Z" fill="#000000" fill-rule="evenodd" fill-opacity="1" /><path clip-path="url(#clip130)" d="M1300.24 1539.92 Q1300.24 1541.72 1299.11 1542.75 Q1297.99 1543.75 1296.7 1543.75 Q1295.47 1543.75 1294.83 1543.04 Q1294.19 1542.33 1294.19 1541.43 Q1294.19 1540.21 1295.09 1539.14 Q1295.99 1538.08 1297.34 1537.85 Q1296.02 1537.02 1294.06 1537.02 Q1292.77 1537.02 1291.64 1537.69 Q1290.55 1538.37 1289.87 1539.24 Q1289.23 1540.11 1288.65 1541.37 Q1288.1 1542.59 1287.87 1543.33 Q1287.68 1544.04 1287.52 1544.81 L1285.27 1553.83 Q1284.17 1558.11 1284.17 1559.63 Q1284.17 1561.49 1285.07 1562.75 Q1285.97 1563.97 1287.78 1563.97 Q1288.49 1563.97 1289.29 1563.78 Q1290.1 1563.55 1291.13 1562.98 Q1292.19 1562.36 1293.12 1561.46 Q1294.09 1560.53 1295.02 1558.95 Q1295.96 1557.37 1296.57 1555.34 Q1296.76 1554.63 1297.41 1554.63 Q1298.21 1554.63 1298.21 1555.28 Q1298.21 1555.83 1297.76 1556.98 Q1297.34 1558.11 1296.41 1559.59 Q1295.51 1561.04 1294.32 1562.36 Q1293.12 1563.65 1291.35 1564.55 Q1289.58 1565.46 1287.65 1565.46 Q1284.88 1565.46 1283.04 1563.97 Q1281.21 1562.49 1280.53 1560.43 Q1280.37 1560.72 1280.14 1561.11 Q1279.92 1561.49 1279.24 1562.36 Q1278.6 1563.2 1277.86 1563.84 Q1277.12 1564.46 1275.96 1564.94 Q1274.83 1565.46 1273.61 1565.46 Q1272.06 1565.46 1270.68 1565 Q1269.32 1564.55 1268.36 1563.52 Q1267.39 1562.49 1267.39 1561.08 Q1267.39 1559.5 1268.45 1558.4 Q1269.55 1557.27 1271.03 1557.27 Q1271.96 1557.27 1272.71 1557.82 Q1273.48 1558.37 1273.48 1559.56 Q1273.48 1560.88 1272.58 1561.88 Q1271.67 1562.88 1270.39 1563.14 Q1271.71 1563.97 1273.67 1563.97 Q1275.8 1563.97 1277.47 1562.11 Q1279.15 1560.24 1279.95 1557.11 Q1281.95 1549.61 1282.72 1546.26 Q1283.49 1542.88 1283.49 1541.43 Q1283.49 1540.08 1283.14 1539.14 Q1282.79 1538.21 1282.17 1537.79 Q1281.59 1537.34 1281.05 1537.18 Q1280.53 1537.02 1279.95 1537.02 Q1278.99 1537.02 1277.89 1537.4 Q1276.83 1537.79 1275.54 1538.69 Q1274.28 1539.56 1273.09 1541.37 Q1271.9 1543.17 1271.1 1545.65 Q1270.93 1546.39 1270.23 1546.39 Q1269.45 1546.36 1269.45 1545.71 Q1269.45 1545.17 1269.87 1544.04 Q1270.32 1542.88 1271.22 1541.43 Q1272.16 1539.98 1273.35 1538.69 Q1274.57 1537.37 1276.34 1536.47 Q1278.15 1535.57 1280.08 1535.57 Q1280.95 1535.57 1281.79 1535.76 Q1282.66 1535.92 1283.69 1536.41 Q1284.75 1536.89 1285.68 1537.95 Q1286.62 1539.01 1287.2 1540.56 Q1287.58 1539.82 1288.1 1539.11 Q1288.65 1538.4 1289.48 1537.53 Q1290.35 1536.63 1291.55 1536.12 Q1292.77 1535.57 1294.12 1535.57 Q1295.44 1535.57 1296.73 1535.92 Q1298.02 1536.24 1299.11 1537.31 Q1300.24 1538.34 1300.24 1539.92 Z" fill="#000000" fill-rule="evenodd" fill-opacity="1" /><polyline clip-path="url(#clip132)" style="stroke:#000000; stroke-linecap:butt; stroke-linejoin:round; stroke-width:2; stroke-opacity:0.1; fill:none" points="
  219.38,1411.24 2352.76,1411.24 
  "/>
<polyline clip-path="url(#clip132)" style="stroke:#000000; stroke-linecap:butt; stroke-linejoin:round; stroke-width:2; stroke-opacity:0.1; fill:none" points="
  219.38,1036.49 2352.76,1036.49 
  "/>
<polyline clip-path="url(#clip132)" style="stroke:#000000; stroke-linecap:butt; stroke-linejoin:round; stroke-width:2; stroke-opacity:0.1; fill:none" points="
  219.38,661.741 2352.76,661.741 
  "/>
<polyline clip-path="url(#clip132)" style="stroke:#000000; stroke-linecap:butt; stroke-linejoin:round; stroke-width:2; stroke-opacity:0.1; fill:none" points="
  219.38,286.99 2352.76,286.99 
  "/>
<polyline clip-path="url(#clip130)" style="stroke:#000000; stroke-linecap:butt; stroke-linejoin:round; stroke-width:4; stroke-opacity:1; fill:none" points="
  219.38,1450.96 219.38,47.2441 
  "/>
<polyline clip-path="url(#clip130)" style="stroke:#000000; stroke-linecap:butt; stroke-linejoin:round; stroke-width:4; stroke-opacity:1; fill:none" points="
  219.38,1411.24 238.278,1411.24 
  "/>
<polyline clip-path="url(#clip130)" style="stroke:#000000; stroke-linecap:butt; stroke-linejoin:round; stroke-width:4; stroke-opacity:1; fill:none" points="
  219.38,1036.49 238.278,1036.49 
  "/>
<polyline clip-path="url(#clip130)" style="stroke:#000000; stroke-linecap:butt; stroke-linejoin:round; stroke-width:4; stroke-opacity:1; fill:none" points="
  219.38,661.741 238.278,661.741 
  "/>
<polyline clip-path="url(#clip130)" style="stroke:#000000; stroke-linecap:butt; stroke-linejoin:round; stroke-width:4; stroke-opacity:1; fill:none" points="
  219.38,286.99 238.278,286.99 
  "/>
<path clip-path="url(#clip130)" d="M126.205 1397.04 Q122.593 1397.04 120.765 1400.61 Q118.959 1404.15 118.959 1411.28 Q118.959 1418.38 120.765 1421.95 Q122.593 1425.49 126.205 1425.49 Q129.839 1425.49 131.644 1421.95 Q133.473 1418.38 133.473 1411.28 Q133.473 1404.15 131.644 1400.61 Q129.839 1397.04 126.205 1397.04 M126.205 1393.34 Q132.015 1393.34 135.07 1397.94 Q138.149 1402.53 138.149 1411.28 Q138.149 1420 135.07 1424.61 Q132.015 1429.19 126.205 1429.19 Q120.394 1429.19 117.316 1424.61 Q114.26 1420 114.26 1411.28 Q114.26 1402.53 117.316 1397.94 Q120.394 1393.34 126.205 1393.34 Z" fill="#000000" fill-rule="evenodd" fill-opacity="1" /><path clip-path="url(#clip130)" d="M146.366 1422.64 L151.251 1422.64 L151.251 1428.52 L146.366 1428.52 L146.366 1422.64 Z" fill="#000000" fill-rule="evenodd" fill-opacity="1" /><path clip-path="url(#clip130)" d="M171.436 1397.04 Q167.825 1397.04 165.996 1400.61 Q164.19 1404.15 164.19 1411.28 Q164.19 1418.38 165.996 1421.95 Q167.825 1425.49 171.436 1425.49 Q175.07 1425.49 176.876 1421.95 Q178.704 1418.38 178.704 1411.28 Q178.704 1404.15 176.876 1400.61 Q175.07 1397.04 171.436 1397.04 M171.436 1393.34 Q177.246 1393.34 180.301 1397.94 Q183.38 1402.53 183.38 1411.28 Q183.38 1420 180.301 1424.61 Q177.246 1429.19 171.436 1429.19 Q165.626 1429.19 162.547 1424.61 Q159.491 1420 159.491 1411.28 Q159.491 1402.53 162.547 1397.94 Q165.626 1393.34 171.436 1393.34 Z" fill="#000000" fill-rule="evenodd" fill-opacity="1" /><path clip-path="url(#clip130)" d="M127.431 1022.29 Q123.82 1022.29 121.992 1025.86 Q120.186 1029.4 120.186 1036.53 Q120.186 1043.63 121.992 1047.2 Q123.82 1050.74 127.431 1050.74 Q131.066 1050.74 132.871 1047.2 Q134.7 1043.63 134.7 1036.53 Q134.7 1029.4 132.871 1025.86 Q131.066 1022.29 127.431 1022.29 M127.431 1018.59 Q133.242 1018.59 136.297 1023.19 Q139.376 1027.78 139.376 1036.53 Q139.376 1045.25 136.297 1049.86 Q133.242 1054.44 127.431 1054.44 Q121.621 1054.44 118.543 1049.86 Q115.487 1045.25 115.487 1036.53 Q115.487 1027.78 118.543 1023.19 Q121.621 1018.59 127.431 1018.59 Z" fill="#000000" fill-rule="evenodd" fill-opacity="1" /><path clip-path="url(#clip130)" d="M147.593 1047.89 L152.478 1047.89 L152.478 1053.77 L147.593 1053.77 L147.593 1047.89 Z" fill="#000000" fill-rule="evenodd" fill-opacity="1" /><path clip-path="url(#clip130)" d="M163.473 1049.84 L171.112 1049.84 L171.112 1023.47 L162.802 1025.14 L162.802 1020.88 L171.065 1019.21 L175.741 1019.21 L175.741 1049.84 L183.38 1049.84 L183.38 1053.77 L163.473 1053.77 L163.473 1049.84 Z" fill="#000000" fill-rule="evenodd" fill-opacity="1" /><path clip-path="url(#clip130)" d="M127.802 647.539 Q124.191 647.539 122.362 651.104 Q120.556 654.646 120.556 661.776 Q120.556 668.882 122.362 672.447 Q124.191 675.988 127.802 675.988 Q131.436 675.988 133.242 672.447 Q135.07 668.882 135.07 661.776 Q135.07 654.646 133.242 651.104 Q131.436 647.539 127.802 647.539 M127.802 643.836 Q133.612 643.836 136.667 648.442 Q139.746 653.026 139.746 661.776 Q139.746 670.502 136.667 675.109 Q133.612 679.692 127.802 679.692 Q121.992 679.692 118.913 675.109 Q115.857 670.502 115.857 661.776 Q115.857 653.026 118.913 648.442 Q121.992 643.836 127.802 643.836 Z" fill="#000000" fill-rule="evenodd" fill-opacity="1" /><path clip-path="url(#clip130)" d="M147.964 673.141 L152.848 673.141 L152.848 679.021 L147.964 679.021 L147.964 673.141 Z" fill="#000000" fill-rule="evenodd" fill-opacity="1" /><path clip-path="url(#clip130)" d="M167.061 675.086 L183.38 675.086 L183.38 679.021 L161.436 679.021 L161.436 675.086 Q164.098 672.331 168.681 667.701 Q173.288 663.049 174.468 661.706 Q176.714 659.183 177.593 657.447 Q178.496 655.688 178.496 653.998 Q178.496 651.243 176.551 649.507 Q174.63 647.771 171.528 647.771 Q169.329 647.771 166.876 648.535 Q164.445 649.299 161.667 650.85 L161.667 646.127 Q164.491 644.993 166.945 644.414 Q169.399 643.836 171.436 643.836 Q176.806 643.836 180.001 646.521 Q183.195 649.206 183.195 653.697 Q183.195 655.826 182.385 657.748 Q181.598 659.646 179.491 662.238 Q178.913 662.91 175.811 666.127 Q172.709 669.322 167.061 675.086 Z" fill="#000000" fill-rule="evenodd" fill-opacity="1" /><path clip-path="url(#clip130)" d="M126.853 272.788 Q123.242 272.788 121.413 276.353 Q119.607 279.895 119.607 287.024 Q119.607 294.131 121.413 297.696 Q123.242 301.237 126.853 301.237 Q130.487 301.237 132.292 297.696 Q134.121 294.131 134.121 287.024 Q134.121 279.895 132.292 276.353 Q130.487 272.788 126.853 272.788 M126.853 269.085 Q132.663 269.085 135.718 273.691 Q138.797 278.274 138.797 287.024 Q138.797 295.751 135.718 300.358 Q132.663 304.941 126.853 304.941 Q121.043 304.941 117.964 300.358 Q114.908 295.751 114.908 287.024 Q114.908 278.274 117.964 273.691 Q121.043 269.085 126.853 269.085 Z" fill="#000000" fill-rule="evenodd" fill-opacity="1" /><path clip-path="url(#clip130)" d="M147.015 298.39 L151.899 298.39 L151.899 304.27 L147.015 304.27 L147.015 298.39 Z" fill="#000000" fill-rule="evenodd" fill-opacity="1" /><path clip-path="url(#clip130)" d="M176.251 285.635 Q179.607 286.353 181.482 288.622 Q183.38 290.89 183.38 294.223 Q183.38 299.339 179.862 302.14 Q176.343 304.941 169.862 304.941 Q167.686 304.941 165.371 304.501 Q163.079 304.084 160.626 303.228 L160.626 298.714 Q162.57 299.848 164.885 300.427 Q167.2 301.006 169.723 301.006 Q174.121 301.006 176.413 299.27 Q178.727 297.534 178.727 294.223 Q178.727 291.168 176.575 289.455 Q174.445 287.719 170.626 287.719 L166.598 287.719 L166.598 283.876 L170.811 283.876 Q174.26 283.876 176.089 282.511 Q177.917 281.122 177.917 278.529 Q177.917 275.867 176.019 274.455 Q174.144 273.02 170.626 273.02 Q168.704 273.02 166.505 273.436 Q164.306 273.853 161.667 274.733 L161.667 270.566 Q164.329 269.825 166.644 269.455 Q168.982 269.085 171.042 269.085 Q176.366 269.085 179.468 271.515 Q182.57 273.923 182.57 278.043 Q182.57 280.913 180.926 282.904 Q179.283 284.872 176.251 285.635 Z" fill="#000000" fill-rule="evenodd" fill-opacity="1" /><path clip-path="url(#clip130)" d="M21.7677 862.412 L58.7206 862.412 L58.7206 854.646 Q58.7206 844.811 54.2646 840.259 Q49.8086 835.676 40.1964 835.676 Q30.6479 835.676 26.2237 840.259 Q21.7677 844.811 21.7677 854.646 L21.7677 862.412 M16.4842 868.841 L16.4842 855.632 Q16.4842 841.819 22.2451 835.358 Q27.9743 828.896 40.1964 828.896 Q52.4822 828.896 58.2432 835.389 Q64.0042 841.882 64.0042 855.632 L64.0042 868.841 L16.4842 868.841 Z" fill="#000000" fill-rule="evenodd" fill-opacity="1" /><path clip-path="url(#clip130)" d="M44.7161 788.41 L47.5806 788.41 L47.5806 815.337 Q53.6281 814.955 56.8109 811.709 Q59.9619 808.431 59.9619 802.606 Q59.9619 799.232 59.1344 796.081 Q58.3069 792.898 56.6518 789.779 L62.1899 789.779 Q63.5267 792.93 64.227 796.24 Q64.9272 799.55 64.9272 802.956 Q64.9272 811.486 59.9619 816.483 Q54.9967 821.448 46.5303 821.448 Q37.7774 821.448 32.6531 816.738 Q27.4968 811.995 27.4968 803.975 Q27.4968 796.781 32.1438 792.612 Q36.7589 788.41 44.7161 788.41 M42.9973 794.267 Q38.1912 794.331 35.3266 796.972 Q32.4621 799.582 32.4621 803.911 Q32.4621 808.813 35.2312 811.773 Q38.0002 814.701 43.0292 815.146 L42.9973 794.267 Z" fill="#000000" fill-rule="evenodd" fill-opacity="1" /><path clip-path="url(#clip130)" d="M42.4881 749.166 L64.0042 749.166 L64.0042 755.022 L42.679 755.022 Q37.6183 755.022 35.1038 756.996 Q32.5894 758.969 32.5894 762.916 Q32.5894 767.658 35.6131 770.395 Q38.6368 773.133 43.8567 773.133 L64.0042 773.133 L64.0042 779.021 L28.3562 779.021 L28.3562 773.133 L33.8944 773.133 Q30.6797 771.032 29.0883 768.199 Q27.4968 765.335 27.4968 761.611 Q27.4968 755.468 31.3163 752.317 Q35.1038 749.166 42.4881 749.166 Z" fill="#000000" fill-rule="evenodd" fill-opacity="1" /><path clip-path="url(#clip130)" d="M29.4065 714.759 L34.9447 714.759 Q33.6716 717.242 33.035 719.915 Q32.3984 722.589 32.3984 725.454 Q32.3984 729.814 33.7352 732.01 Q35.072 734.175 37.7456 734.175 Q39.7826 734.175 40.9603 732.615 Q42.1061 731.055 43.1565 726.345 L43.6021 724.34 Q44.9389 718.101 47.3897 715.491 Q49.8086 712.849 54.1691 712.849 Q59.1344 712.849 62.0308 716.796 Q64.9272 720.711 64.9272 727.586 Q64.9272 730.451 64.3543 733.57 Q63.8132 736.657 62.6992 740.095 L56.6518 740.095 Q58.3387 736.848 59.198 733.697 Q60.0256 730.546 60.0256 727.459 Q60.0256 723.321 58.6251 721.093 Q57.1929 718.865 54.6147 718.865 Q52.2276 718.865 50.9545 720.488 Q49.6813 722.08 48.5037 727.522 L48.0262 729.559 Q46.8804 735.002 44.5251 737.421 Q42.138 739.84 38.0002 739.84 Q32.9713 739.84 30.2341 736.275 Q27.4968 732.71 27.4968 726.154 Q27.4968 722.907 27.9743 720.043 Q28.4517 717.178 29.4065 714.759 Z" fill="#000000" fill-rule="evenodd" fill-opacity="1" /><path clip-path="url(#clip130)" d="M28.3562 703.524 L28.3562 697.667 L64.0042 697.667 L64.0042 703.524 L28.3562 703.524 M14.479 703.524 L14.479 697.667 L21.895 697.667 L21.895 703.524 L14.479 703.524 Z" fill="#000000" fill-rule="evenodd" fill-opacity="1" /><path clip-path="url(#clip130)" d="M18.2347 679.62 L28.3562 679.62 L28.3562 667.557 L32.9077 667.557 L32.9077 679.62 L52.2594 679.62 Q56.6199 679.62 57.8613 678.443 Q59.1026 677.233 59.1026 673.573 L59.1026 667.557 L64.0042 667.557 L64.0042 673.573 Q64.0042 680.353 61.4897 682.931 Q58.9434 685.509 52.2594 685.509 L32.9077 685.509 L32.9077 689.806 L28.3562 689.806 L28.3562 685.509 L18.2347 685.509 L18.2347 679.62 Z" fill="#000000" fill-rule="evenodd" fill-opacity="1" /><path clip-path="url(#clip130)" d="M67.3143 645.023 Q73.68 647.505 75.6216 649.861 Q77.5631 652.216 77.5631 656.163 L77.5631 660.842 L72.6615 660.842 L72.6615 657.404 Q72.6615 654.985 71.5157 653.648 Q70.3699 652.312 66.1048 650.688 L63.4312 649.638 L28.3562 664.056 L28.3562 657.85 L56.238 646.71 L28.3562 635.57 L28.3562 629.363 L67.3143 645.023 Z" fill="#000000" fill-rule="evenodd" fill-opacity="1" /><polyline clip-path="url(#clip132)" style="stroke:#009af9; stroke-linecap:butt; stroke-linejoin:round; stroke-width:20; stroke-opacity:1; fill:none" points="
  -17567.7,1411.23 -17199.4,1411.23 -13794.5,1411.22 -11748.2,1411.21 -10018.2,1411.19 -8138.84,1411.16 -6406.26,1411.09 -4548.75,1410.89 -2396.64,1409.84 -1918.51,1409.13 
  -1440.37,1407.83 -962.239,1405.24 -484.104,1399.26 -274.464,1394.07 -64.8236,1385.48 39.9966,1379.04 144.817,1370.32 249.637,1358.27 354.457,1341.24 459.277,1316.54 
  564.098,1279.74 616.508,1254.64 668.918,1223.4 721.328,1184.31 773.738,1135.21 826.148,1073.47 878.558,996.068 904.763,950.516 930.968,899.931 957.173,844.058 
  983.378,782.791 1035.79,644.827 1088.2,491.238 1114.4,412.319 1140.61,335.146 1166.81,262.788 1193.02,198.688 1207.3,168.489 1221.59,142.34 1235.87,120.739 
  1250.16,104.113 1264.45,92.8043 1278.73,87.0497 1293.02,86.9719 1307.3,92.5726 1321.59,103.732 1335.87,120.217 1350.16,141.688 1364.44,167.718 1393.01,231.432 
  1421.58,306.94 1478.72,475.527 1535.87,643.471 1564.44,721.192 1593.01,793.089 1621.58,858.668 1650.15,917.849 1678.72,970.836 1707.29,1018.01 1735.86,1059.83 
  1764.43,1096.82 1821.57,1158.31 1878.71,1206.22 1935.85,1243.66 1992.99,1273.08 2050.13,1296.36 2107.28,1314.94 2221.56,1341.99 2335.84,1360.04 2450.12,1372.45 
  2564.4,1381.23 2792.97,1392.28 3021.53,1398.56 3481.38,1404.81 3941.22,1407.56 4401.07,1408.94 4860.91,1409.71 6894.59,1410.84 8829.57,1411.08 10841.5,1411.16 
  12535.1,1411.19 14602.9,1411.21 16546.6,1411.22 19660.6,1411.23 20139.8,1411.23 
  "/>
</svg>
