<?xml version="1.0" encoding="utf-8"?>
<svg xmlns="http://www.w3.org/2000/svg" xmlns:xlink="http://www.w3.org/1999/xlink" width="600" height="400" viewBox="0 0 2400 1600">
<defs>
  <clipPath id="clip190">
    <rect x="0" y="0" width="2400" height="1600"/>
  </clipPath>
</defs>
<path clip-path="url(#clip190)" d="
M0 1600 L2400 1600 L2400 0 L0 0  Z
  " fill="#ffffff" fill-rule="evenodd" fill-opacity="1"/>
<defs>
  <clipPath id="clip191">
    <rect x="480" y="0" width="1681" height="1600"/>
  </clipPath>
</defs>
<defs>
  <clipPath id="clip192">
    <rect x="219" y="47" width="2134" height="1405"/>
  </clipPath>
</defs>
<path clip-path="url(#clip190)" d="
M245.574 1450.96 L2352.76 1450.96 L2352.76 47.2441 L245.574 47.2441  Z
  " fill="#ffffff" fill-rule="evenodd" fill-opacity="1"/>
<defs>
  <clipPath id="clip193">
    <rect x="245" y="47" width="2108" height="1405"/>
  </clipPath>
</defs>
<polyline clip-path="url(#clip193)" style="stroke:#000000; stroke-linecap:butt; stroke-linejoin:round; stroke-width:2; stroke-opacity:0.1; fill:none" points="
  305.211,1450.96 305.211,47.2441 
  "/>
<polyline clip-path="url(#clip193)" style="stroke:#000000; stroke-linecap:butt; stroke-linejoin:round; stroke-width:2; stroke-opacity:0.1; fill:none" points="
  802.188,1450.96 802.188,47.2441 
  "/>
<polyline clip-path="url(#clip193)" style="stroke:#000000; stroke-linecap:butt; stroke-linejoin:round; stroke-width:2; stroke-opacity:0.1; fill:none" points="
  1299.17,1450.96 1299.17,47.2441 
  "/>
<polyline clip-path="url(#clip193)" style="stroke:#000000; stroke-linecap:butt; stroke-linejoin:round; stroke-width:2; stroke-opacity:0.1; fill:none" points="
  1796.14,1450.96 1796.14,47.2441 
  "/>
<polyline clip-path="url(#clip193)" style="stroke:#000000; stroke-linecap:butt; stroke-linejoin:round; stroke-width:2; stroke-opacity:0.1; fill:none" points="
  2293.12,1450.96 2293.12,47.2441 
  "/>
<polyline clip-path="url(#clip190)" style="stroke:#000000; stroke-linecap:butt; stroke-linejoin:round; stroke-width:4; stroke-opacity:1; fill:none" points="
  245.574,1450.96 2352.76,1450.96 
  "/>
<polyline clip-path="url(#clip190)" style="stroke:#000000; stroke-linecap:butt; stroke-linejoin:round; stroke-width:4; stroke-opacity:1; fill:none" points="
  305.211,1450.96 305.211,1432.06 
  "/>
<polyline clip-path="url(#clip190)" style="stroke:#000000; stroke-linecap:butt; stroke-linejoin:round; stroke-width:4; stroke-opacity:1; fill:none" points="
  802.188,1450.96 802.188,1432.06 
  "/>
<polyline clip-path="url(#clip190)" style="stroke:#000000; stroke-linecap:butt; stroke-linejoin:round; stroke-width:4; stroke-opacity:1; fill:none" points="
  1299.17,1450.96 1299.17,1432.06 
  "/>
<polyline clip-path="url(#clip190)" style="stroke:#000000; stroke-linecap:butt; stroke-linejoin:round; stroke-width:4; stroke-opacity:1; fill:none" points="
  1796.14,1450.96 1796.14,1432.06 
  "/>
<polyline clip-path="url(#clip190)" style="stroke:#000000; stroke-linecap:butt; stroke-linejoin:round; stroke-width:4; stroke-opacity:1; fill:none" points="
  2293.12,1450.96 2293.12,1432.06 
  "/>
<path clip-path="url(#clip190)" d="M259.274 1494.8 L288.95 1494.8 L288.95 1498.74 L259.274 1498.74 L259.274 1494.8 Z" fill="#000000" fill-rule="evenodd" fill-opacity="1" /><path clip-path="url(#clip190)" d="M299.853 1507.7 L307.491 1507.7 L307.491 1481.33 L299.181 1483 L299.181 1478.74 L307.445 1477.07 L312.121 1477.07 L312.121 1507.7 L319.76 1507.7 L319.76 1511.63 L299.853 1511.63 L299.853 1507.7 Z" fill="#000000" fill-rule="evenodd" fill-opacity="1" /><path clip-path="url(#clip190)" d="M339.204 1480.15 Q335.593 1480.15 333.764 1483.72 Q331.959 1487.26 331.959 1494.39 Q331.959 1501.49 333.764 1505.06 Q335.593 1508.6 339.204 1508.6 Q342.838 1508.6 344.644 1505.06 Q346.473 1501.49 346.473 1494.39 Q346.473 1487.26 344.644 1483.72 Q342.838 1480.15 339.204 1480.15 M339.204 1476.45 Q345.014 1476.45 348.07 1481.05 Q351.149 1485.64 351.149 1494.39 Q351.149 1503.11 348.07 1507.72 Q345.014 1512.3 339.204 1512.3 Q333.394 1512.3 330.315 1507.72 Q327.26 1503.11 327.26 1494.39 Q327.26 1485.64 330.315 1481.05 Q333.394 1476.45 339.204 1476.45 Z" fill="#000000" fill-rule="evenodd" fill-opacity="1" /><path clip-path="url(#clip190)" d="M771.83 1494.8 L801.505 1494.8 L801.505 1498.74 L771.83 1498.74 L771.83 1494.8 Z" fill="#000000" fill-rule="evenodd" fill-opacity="1" /><path clip-path="url(#clip190)" d="M811.644 1477.07 L830.001 1477.07 L830.001 1481.01 L815.927 1481.01 L815.927 1489.48 Q816.945 1489.13 817.964 1488.97 Q818.982 1488.79 820.001 1488.79 Q825.788 1488.79 829.167 1491.96 Q832.547 1495.13 832.547 1500.54 Q832.547 1506.12 829.075 1509.22 Q825.602 1512.3 819.283 1512.3 Q817.107 1512.3 814.839 1511.93 Q812.593 1511.56 810.186 1510.82 L810.186 1506.12 Q812.269 1507.26 814.491 1507.81 Q816.714 1508.37 819.19 1508.37 Q823.195 1508.37 825.533 1506.26 Q827.871 1504.16 827.871 1500.54 Q827.871 1496.93 825.533 1494.83 Q823.195 1492.72 819.19 1492.72 Q817.315 1492.72 815.44 1493.14 Q813.589 1493.55 811.644 1494.43 L811.644 1477.07 Z" fill="#000000" fill-rule="evenodd" fill-opacity="1" /><path clip-path="url(#clip190)" d="M1299.17 1480.15 Q1295.55 1480.15 1293.73 1483.72 Q1291.92 1487.26 1291.92 1494.39 Q1291.92 1501.49 1293.73 1505.06 Q1295.55 1508.6 1299.17 1508.6 Q1302.8 1508.6 1304.6 1505.06 Q1306.43 1501.49 1306.43 1494.39 Q1306.43 1487.26 1304.6 1483.72 Q1302.8 1480.15 1299.17 1480.15 M1299.17 1476.45 Q1304.98 1476.45 1308.03 1481.05 Q1311.11 1485.64 1311.11 1494.39 Q1311.11 1503.11 1308.03 1507.72 Q1304.98 1512.3 1299.17 1512.3 Q1293.35 1512.3 1290.28 1507.72 Q1287.22 1503.11 1287.22 1494.39 Q1287.22 1485.64 1290.28 1481.05 Q1293.35 1476.45 1299.17 1476.45 Z" fill="#000000" fill-rule="evenodd" fill-opacity="1" /><path clip-path="url(#clip190)" d="M1786.42 1477.07 L1804.78 1477.07 L1804.78 1481.01 L1790.7 1481.01 L1790.7 1489.48 Q1791.72 1489.13 1792.74 1488.97 Q1793.76 1488.79 1794.78 1488.79 Q1800.56 1488.79 1803.94 1491.96 Q1807.32 1495.13 1807.32 1500.54 Q1807.32 1506.12 1803.85 1509.22 Q1800.38 1512.3 1794.06 1512.3 Q1791.88 1512.3 1789.61 1511.93 Q1787.37 1511.56 1784.96 1510.82 L1784.96 1506.12 Q1787.04 1507.26 1789.27 1507.81 Q1791.49 1508.37 1793.97 1508.37 Q1797.97 1508.37 1800.31 1506.26 Q1802.65 1504.16 1802.65 1500.54 Q1802.65 1496.93 1800.31 1494.83 Q1797.97 1492.72 1793.97 1492.72 Q1792.09 1492.72 1790.22 1493.14 Q1788.36 1493.55 1786.42 1494.43 L1786.42 1477.07 Z" fill="#000000" fill-rule="evenodd" fill-opacity="1" /><path clip-path="url(#clip190)" d="M2267.81 1507.7 L2275.45 1507.7 L2275.45 1481.33 L2267.14 1483 L2267.14 1478.74 L2275.4 1477.07 L2280.07 1477.07 L2280.07 1507.7 L2287.71 1507.7 L2287.71 1511.63 L2267.81 1511.63 L2267.81 1507.7 Z" fill="#000000" fill-rule="evenodd" fill-opacity="1" /><path clip-path="url(#clip190)" d="M2307.16 1480.15 Q2303.55 1480.15 2301.72 1483.72 Q2299.91 1487.26 2299.91 1494.39 Q2299.91 1501.49 2301.72 1505.06 Q2303.55 1508.6 2307.16 1508.6 Q2310.79 1508.6 2312.6 1505.06 Q2314.43 1501.49 2314.43 1494.39 Q2314.43 1487.26 2312.6 1483.72 Q2310.79 1480.15 2307.16 1480.15 M2307.16 1476.45 Q2312.97 1476.45 2316.02 1481.05 Q2319.1 1485.64 2319.1 1494.39 Q2319.1 1503.11 2316.02 1507.72 Q2312.97 1512.3 2307.16 1512.3 Q2301.35 1512.3 2298.27 1507.72 Q2295.21 1503.11 2295.21 1494.39 Q2295.21 1485.64 2298.27 1481.05 Q2301.35 1476.45 2307.16 1476.45 Z" fill="#000000" fill-rule="evenodd" fill-opacity="1" /><path clip-path="url(#clip190)" d="M1313.34 1539.92 Q1313.34 1541.72 1312.21 1542.75 Q1311.08 1543.75 1309.8 1543.75 Q1308.57 1543.75 1307.93 1543.04 Q1307.28 1542.33 1307.28 1541.43 Q1307.28 1540.21 1308.19 1539.14 Q1309.09 1538.08 1310.44 1537.85 Q1309.12 1537.02 1307.15 1537.02 Q1305.87 1537.02 1304.74 1537.69 Q1303.64 1538.37 1302.97 1539.24 Q1302.32 1540.11 1301.74 1541.37 Q1301.2 1542.59 1300.97 1543.33 Q1300.78 1544.04 1300.62 1544.81 L1298.36 1553.83 Q1297.27 1558.11 1297.27 1559.63 Q1297.27 1561.49 1298.17 1562.75 Q1299.07 1563.97 1300.87 1563.97 Q1301.58 1563.97 1302.39 1563.78 Q1303.19 1563.55 1304.22 1562.98 Q1305.29 1562.36 1306.22 1561.46 Q1307.19 1560.53 1308.12 1558.95 Q1309.06 1557.37 1309.67 1555.34 Q1309.86 1554.63 1310.5 1554.63 Q1311.31 1554.63 1311.31 1555.28 Q1311.31 1555.83 1310.86 1556.98 Q1310.44 1558.11 1309.51 1559.59 Q1308.6 1561.04 1307.41 1562.36 Q1306.22 1563.65 1304.45 1564.55 Q1302.68 1565.46 1300.75 1565.46 Q1297.98 1565.46 1296.14 1563.97 Q1294.3 1562.49 1293.63 1560.43 Q1293.47 1560.72 1293.24 1561.11 Q1293.02 1561.49 1292.34 1562.36 Q1291.7 1563.2 1290.96 1563.84 Q1290.21 1564.46 1289.06 1564.94 Q1287.93 1565.46 1286.7 1565.46 Q1285.16 1565.46 1283.77 1565 Q1282.42 1564.55 1281.45 1563.52 Q1280.49 1562.49 1280.49 1561.08 Q1280.49 1559.5 1281.55 1558.4 Q1282.65 1557.27 1284.13 1557.27 Q1285.06 1557.27 1285.8 1557.82 Q1286.58 1558.37 1286.58 1559.56 Q1286.58 1560.88 1285.67 1561.88 Q1284.77 1562.88 1283.48 1563.14 Q1284.8 1563.97 1286.77 1563.97 Q1288.89 1563.97 1290.57 1562.11 Q1292.24 1560.24 1293.05 1557.11 Q1295.05 1549.61 1295.82 1546.26 Q1296.59 1542.88 1296.59 1541.43 Q1296.59 1540.08 1296.24 1539.14 Q1295.88 1538.21 1295.27 1537.79 Q1294.69 1537.34 1294.14 1537.18 Q1293.63 1537.02 1293.05 1537.02 Q1292.08 1537.02 1290.99 1537.4 Q1289.92 1537.79 1288.64 1538.69 Q1287.38 1539.56 1286.19 1541.37 Q1285 1543.17 1284.19 1545.65 Q1284.03 1546.39 1283.32 1546.39 Q1282.55 1546.36 1282.55 1545.71 Q1282.55 1545.17 1282.97 1544.04 Q1283.42 1542.88 1284.32 1541.43 Q1285.25 1539.98 1286.45 1538.69 Q1287.67 1537.37 1289.44 1536.47 Q1291.25 1535.57 1293.18 1535.57 Q1294.05 1535.57 1294.88 1535.76 Q1295.75 1535.92 1296.78 1536.41 Q1297.85 1536.89 1298.78 1537.95 Q1299.72 1539.01 1300.3 1540.56 Q1300.68 1539.82 1301.2 1539.11 Q1301.74 1538.4 1302.58 1537.53 Q1303.45 1536.63 1304.64 1536.12 Q1305.87 1535.57 1307.22 1535.57 Q1308.54 1535.57 1309.83 1535.92 Q1311.12 1536.24 1312.21 1537.31 Q1313.34 1538.34 1313.34 1539.92 Z" fill="#000000" fill-rule="evenodd" fill-opacity="1" /><polyline clip-path="url(#clip193)" style="stroke:#000000; stroke-linecap:butt; stroke-linejoin:round; stroke-width:2; stroke-opacity:0.1; fill:none" points="
  245.574,1411.29 2352.76,1411.29 
  "/>
<polyline clip-path="url(#clip193)" style="stroke:#000000; stroke-linecap:butt; stroke-linejoin:round; stroke-width:2; stroke-opacity:0.1; fill:none" points="
  245.574,1080.2 2352.76,1080.2 
  "/>
<polyline clip-path="url(#clip193)" style="stroke:#000000; stroke-linecap:butt; stroke-linejoin:round; stroke-width:2; stroke-opacity:0.1; fill:none" points="
  245.574,749.102 2352.76,749.102 
  "/>
<polyline clip-path="url(#clip193)" style="stroke:#000000; stroke-linecap:butt; stroke-linejoin:round; stroke-width:2; stroke-opacity:0.1; fill:none" points="
  245.574,418.007 2352.76,418.007 
  "/>
<polyline clip-path="url(#clip193)" style="stroke:#000000; stroke-linecap:butt; stroke-linejoin:round; stroke-width:2; stroke-opacity:0.1; fill:none" points="
  245.574,86.9118 2352.76,86.9118 
  "/>
<polyline clip-path="url(#clip190)" style="stroke:#000000; stroke-linecap:butt; stroke-linejoin:round; stroke-width:4; stroke-opacity:1; fill:none" points="
  245.574,1450.96 245.574,47.2441 
  "/>
<polyline clip-path="url(#clip190)" style="stroke:#000000; stroke-linecap:butt; stroke-linejoin:round; stroke-width:4; stroke-opacity:1; fill:none" points="
  245.574,1411.29 264.472,1411.29 
  "/>
<polyline clip-path="url(#clip190)" style="stroke:#000000; stroke-linecap:butt; stroke-linejoin:round; stroke-width:4; stroke-opacity:1; fill:none" points="
  245.574,1080.2 264.472,1080.2 
  "/>
<polyline clip-path="url(#clip190)" style="stroke:#000000; stroke-linecap:butt; stroke-linejoin:round; stroke-width:4; stroke-opacity:1; fill:none" points="
  245.574,749.102 264.472,749.102 
  "/>
<polyline clip-path="url(#clip190)" style="stroke:#000000; stroke-linecap:butt; stroke-linejoin:round; stroke-width:4; stroke-opacity:1; fill:none" points="
  245.574,418.007 264.472,418.007 
  "/>
<polyline clip-path="url(#clip190)" style="stroke:#000000; stroke-linecap:butt; stroke-linejoin:round; stroke-width:4; stroke-opacity:1; fill:none" points="
  245.574,86.9118 264.472,86.9118 
  "/>
<path clip-path="url(#clip190)" d="M122.237 1397.09 Q118.626 1397.09 116.797 1400.66 Q114.991 1404.2 114.991 1411.33 Q114.991 1418.43 116.797 1422 Q118.626 1425.54 122.237 1425.54 Q125.871 1425.54 127.676 1422 Q129.505 1418.43 129.505 1411.33 Q129.505 1404.2 127.676 1400.66 Q125.871 1397.09 122.237 1397.09 M122.237 1393.39 Q128.047 1393.39 131.102 1397.99 Q134.181 1402.58 134.181 1411.33 Q134.181 1420.05 131.102 1424.66 Q128.047 1429.24 122.237 1429.24 Q116.426 1429.24 113.348 1424.66 Q110.292 1420.05 110.292 1411.33 Q110.292 1402.58 113.348 1397.99 Q116.426 1393.39 122.237 1393.39 Z" fill="#000000" fill-rule="evenodd" fill-opacity="1" /><path clip-path="url(#clip190)" d="M142.399 1422.69 L147.283 1422.69 L147.283 1428.57 L142.399 1428.57 L142.399 1422.69 Z" fill="#000000" fill-rule="evenodd" fill-opacity="1" /><path clip-path="url(#clip190)" d="M167.468 1397.09 Q163.857 1397.09 162.028 1400.66 Q160.223 1404.2 160.223 1411.33 Q160.223 1418.43 162.028 1422 Q163.857 1425.54 167.468 1425.54 Q171.102 1425.54 172.908 1422 Q174.736 1418.43 174.736 1411.33 Q174.736 1404.2 172.908 1400.66 Q171.102 1397.09 167.468 1397.09 M167.468 1393.39 Q173.278 1393.39 176.334 1397.99 Q179.412 1402.58 179.412 1411.33 Q179.412 1420.05 176.334 1424.66 Q173.278 1429.24 167.468 1429.24 Q161.658 1429.24 158.579 1424.66 Q155.523 1420.05 155.523 1411.33 Q155.523 1402.58 158.579 1397.99 Q161.658 1393.39 167.468 1393.39 Z" fill="#000000" fill-rule="evenodd" fill-opacity="1" /><path clip-path="url(#clip190)" d="M197.63 1397.09 Q194.019 1397.09 192.19 1400.66 Q190.384 1404.2 190.384 1411.33 Q190.384 1418.43 192.19 1422 Q194.019 1425.54 197.63 1425.54 Q201.264 1425.54 203.07 1422 Q204.898 1418.43 204.898 1411.33 Q204.898 1404.2 203.07 1400.66 Q201.264 1397.09 197.63 1397.09 M197.63 1393.39 Q203.44 1393.39 206.495 1397.99 Q209.574 1402.58 209.574 1411.33 Q209.574 1420.05 206.495 1424.66 Q203.44 1429.24 197.63 1429.24 Q191.82 1429.24 188.741 1424.66 Q185.685 1420.05 185.685 1411.33 Q185.685 1402.58 188.741 1397.99 Q191.82 1393.39 197.63 1393.39 Z" fill="#000000" fill-rule="evenodd" fill-opacity="1" /><path clip-path="url(#clip190)" d="M123.232 1066 Q119.621 1066 117.792 1069.56 Q115.987 1073.1 115.987 1080.23 Q115.987 1087.34 117.792 1090.9 Q119.621 1094.44 123.232 1094.44 Q126.866 1094.44 128.672 1090.9 Q130.5 1087.34 130.5 1080.23 Q130.5 1073.1 128.672 1069.56 Q126.866 1066 123.232 1066 M123.232 1062.29 Q129.042 1062.29 132.098 1066.9 Q135.176 1071.48 135.176 1080.23 Q135.176 1088.96 132.098 1093.57 Q129.042 1098.15 123.232 1098.15 Q117.422 1098.15 114.343 1093.57 Q111.288 1088.96 111.288 1080.23 Q111.288 1071.48 114.343 1066.9 Q117.422 1062.29 123.232 1062.29 Z" fill="#000000" fill-rule="evenodd" fill-opacity="1" /><path clip-path="url(#clip190)" d="M143.394 1091.6 L148.278 1091.6 L148.278 1097.48 L143.394 1097.48 L143.394 1091.6 Z" fill="#000000" fill-rule="evenodd" fill-opacity="1" /><path clip-path="url(#clip190)" d="M162.491 1093.54 L178.81 1093.54 L178.81 1097.48 L156.866 1097.48 L156.866 1093.54 Q159.528 1090.79 164.111 1086.16 Q168.718 1081.51 169.898 1080.16 Q172.144 1077.64 173.023 1075.9 Q173.926 1074.14 173.926 1072.45 Q173.926 1069.7 171.982 1067.96 Q170.06 1066.23 166.959 1066.23 Q164.76 1066.23 162.306 1066.99 Q159.875 1067.76 157.098 1069.31 L157.098 1064.58 Q159.922 1063.45 162.375 1062.87 Q164.829 1062.29 166.866 1062.29 Q172.236 1062.29 175.431 1064.98 Q178.625 1067.66 178.625 1072.15 Q178.625 1074.28 177.815 1076.2 Q177.028 1078.1 174.922 1080.7 Q174.343 1081.37 171.241 1084.58 Q168.139 1087.78 162.491 1093.54 Z" fill="#000000" fill-rule="evenodd" fill-opacity="1" /><path clip-path="url(#clip190)" d="M188.671 1062.92 L207.028 1062.92 L207.028 1066.85 L192.954 1066.85 L192.954 1075.32 Q193.972 1074.98 194.991 1074.82 Q196.009 1074.63 197.028 1074.63 Q202.815 1074.63 206.195 1077.8 Q209.574 1080.97 209.574 1086.39 Q209.574 1091.97 206.102 1095.07 Q202.63 1098.15 196.31 1098.15 Q194.134 1098.15 191.866 1097.78 Q189.621 1097.41 187.213 1096.67 L187.213 1091.97 Q189.296 1093.1 191.519 1093.66 Q193.741 1094.21 196.218 1094.21 Q200.222 1094.21 202.56 1092.11 Q204.898 1090 204.898 1086.39 Q204.898 1082.78 202.56 1080.67 Q200.222 1078.57 196.218 1078.57 Q194.343 1078.57 192.468 1078.98 Q190.616 1079.4 188.671 1080.28 L188.671 1062.92 Z" fill="#000000" fill-rule="evenodd" fill-opacity="1" /><path clip-path="url(#clip190)" d="M122.237 734.901 Q118.626 734.901 116.797 738.466 Q114.991 742.007 114.991 749.137 Q114.991 756.243 116.797 759.808 Q118.626 763.35 122.237 763.35 Q125.871 763.35 127.676 759.808 Q129.505 756.243 129.505 749.137 Q129.505 742.007 127.676 738.466 Q125.871 734.901 122.237 734.901 M122.237 731.197 Q128.047 731.197 131.102 735.804 Q134.181 740.387 134.181 749.137 Q134.181 757.864 131.102 762.47 Q128.047 767.053 122.237 767.053 Q116.426 767.053 113.348 762.47 Q110.292 757.864 110.292 749.137 Q110.292 740.387 113.348 735.804 Q116.426 731.197 122.237 731.197 Z" fill="#000000" fill-rule="evenodd" fill-opacity="1" /><path clip-path="url(#clip190)" d="M142.399 760.503 L147.283 760.503 L147.283 766.382 L142.399 766.382 L142.399 760.503 Z" fill="#000000" fill-rule="evenodd" fill-opacity="1" /><path clip-path="url(#clip190)" d="M157.514 731.822 L175.871 731.822 L175.871 735.757 L161.797 735.757 L161.797 744.23 Q162.815 743.882 163.834 743.72 Q164.852 743.535 165.871 743.535 Q171.658 743.535 175.037 746.706 Q178.417 749.878 178.417 755.294 Q178.417 760.873 174.945 763.975 Q171.472 767.053 165.153 767.053 Q162.977 767.053 160.709 766.683 Q158.463 766.313 156.056 765.572 L156.056 760.873 Q158.139 762.007 160.361 762.563 Q162.584 763.118 165.06 763.118 Q169.065 763.118 171.403 761.012 Q173.741 758.905 173.741 755.294 Q173.741 751.683 171.403 749.577 Q169.065 747.47 165.06 747.47 Q163.185 747.47 161.31 747.887 Q159.459 748.304 157.514 749.183 L157.514 731.822 Z" fill="#000000" fill-rule="evenodd" fill-opacity="1" /><path clip-path="url(#clip190)" d="M197.63 734.901 Q194.019 734.901 192.19 738.466 Q190.384 742.007 190.384 749.137 Q190.384 756.243 192.19 759.808 Q194.019 763.35 197.63 763.35 Q201.264 763.35 203.07 759.808 Q204.898 756.243 204.898 749.137 Q204.898 742.007 203.07 738.466 Q201.264 734.901 197.63 734.901 M197.63 731.197 Q203.44 731.197 206.495 735.804 Q209.574 740.387 209.574 749.137 Q209.574 757.864 206.495 762.47 Q203.44 767.053 197.63 767.053 Q191.82 767.053 188.741 762.47 Q185.685 757.864 185.685 749.137 Q185.685 740.387 188.741 735.804 Q191.82 731.197 197.63 731.197 Z" fill="#000000" fill-rule="evenodd" fill-opacity="1" /><path clip-path="url(#clip190)" d="M123.232 403.806 Q119.621 403.806 117.792 407.37 Q115.987 410.912 115.987 418.042 Q115.987 425.148 117.792 428.713 Q119.621 432.255 123.232 432.255 Q126.866 432.255 128.672 428.713 Q130.5 425.148 130.5 418.042 Q130.5 410.912 128.672 407.37 Q126.866 403.806 123.232 403.806 M123.232 400.102 Q129.042 400.102 132.098 404.708 Q135.176 409.292 135.176 418.042 Q135.176 426.769 132.098 431.375 Q129.042 435.958 123.232 435.958 Q117.422 435.958 114.343 431.375 Q111.288 426.769 111.288 418.042 Q111.288 409.292 114.343 404.708 Q117.422 400.102 123.232 400.102 Z" fill="#000000" fill-rule="evenodd" fill-opacity="1" /><path clip-path="url(#clip190)" d="M143.394 429.407 L148.278 429.407 L148.278 435.287 L143.394 435.287 L143.394 429.407 Z" fill="#000000" fill-rule="evenodd" fill-opacity="1" /><path clip-path="url(#clip190)" d="M157.283 400.727 L179.505 400.727 L179.505 402.718 L166.959 435.287 L162.074 435.287 L173.88 404.662 L157.283 404.662 L157.283 400.727 Z" fill="#000000" fill-rule="evenodd" fill-opacity="1" /><path clip-path="url(#clip190)" d="M188.671 400.727 L207.028 400.727 L207.028 404.662 L192.954 404.662 L192.954 413.134 Q193.972 412.787 194.991 412.625 Q196.009 412.44 197.028 412.44 Q202.815 412.44 206.195 415.611 Q209.574 418.782 209.574 424.199 Q209.574 429.778 206.102 432.88 Q202.63 435.958 196.31 435.958 Q194.134 435.958 191.866 435.588 Q189.621 435.218 187.213 434.477 L187.213 429.778 Q189.296 430.912 191.519 431.468 Q193.741 432.023 196.218 432.023 Q200.222 432.023 202.56 429.917 Q204.898 427.81 204.898 424.199 Q204.898 420.588 202.56 418.482 Q200.222 416.375 196.218 416.375 Q194.343 416.375 192.468 416.792 Q190.616 417.208 188.671 418.088 L188.671 400.727 Z" fill="#000000" fill-rule="evenodd" fill-opacity="1" /><path clip-path="url(#clip190)" d="M113.047 100.257 L120.686 100.257 L120.686 73.891 L112.376 75.5577 L112.376 71.2984 L120.639 69.6318 L125.315 69.6318 L125.315 100.257 L132.954 100.257 L132.954 104.192 L113.047 104.192 L113.047 100.257 Z" fill="#000000" fill-rule="evenodd" fill-opacity="1" /><path clip-path="url(#clip190)" d="M142.399 98.3122 L147.283 98.3122 L147.283 104.192 L142.399 104.192 L142.399 98.3122 Z" fill="#000000" fill-rule="evenodd" fill-opacity="1" /><path clip-path="url(#clip190)" d="M167.468 72.7105 Q163.857 72.7105 162.028 76.2753 Q160.223 79.8169 160.223 86.9465 Q160.223 94.053 162.028 97.6177 Q163.857 101.159 167.468 101.159 Q171.102 101.159 172.908 97.6177 Q174.736 94.053 174.736 86.9465 Q174.736 79.8169 172.908 76.2753 Q171.102 72.7105 167.468 72.7105 M167.468 69.0068 Q173.278 69.0068 176.334 73.6132 Q179.412 78.1966 179.412 86.9465 Q179.412 95.6733 176.334 100.28 Q173.278 104.863 167.468 104.863 Q161.658 104.863 158.579 100.28 Q155.523 95.6733 155.523 86.9465 Q155.523 78.1966 158.579 73.6132 Q161.658 69.0068 167.468 69.0068 Z" fill="#000000" fill-rule="evenodd" fill-opacity="1" /><path clip-path="url(#clip190)" d="M197.63 72.7105 Q194.019 72.7105 192.19 76.2753 Q190.384 79.8169 190.384 86.9465 Q190.384 94.053 192.19 97.6177 Q194.019 101.159 197.63 101.159 Q201.264 101.159 203.07 97.6177 Q204.898 94.053 204.898 86.9465 Q204.898 79.8169 203.07 76.2753 Q201.264 72.7105 197.63 72.7105 M197.63 69.0068 Q203.44 69.0068 206.495 73.6132 Q209.574 78.1966 209.574 86.9465 Q209.574 95.6733 206.495 100.28 Q203.44 104.863 197.63 104.863 Q191.82 104.863 188.741 100.28 Q185.685 95.6733 185.685 86.9465 Q185.685 78.1966 188.741 73.6132 Q191.82 69.0068 197.63 69.0068 Z" fill="#000000" fill-rule="evenodd" fill-opacity="1" /><path clip-path="url(#clip190)" d="M64.4969 903.913 L62.468 903.913 L62.468 902.335 Q62.468 898.76 61.8883 897.955 Q61.2763 897.118 59.344 897.118 L24.5939 897.118 Q22.6937 897.118 22.114 897.955 Q21.5021 898.793 21.5021 902.335 L21.5021 903.913 L19.4409 903.913 Q19.6342 901.595 19.6342 893.897 Q19.6342 885.202 19.4409 882.819 L21.5021 882.819 L21.5021 885.009 Q21.5021 888.036 21.8886 889.421 Q22.275 890.806 22.8225 891.031 Q23.3378 891.256 24.6583 891.256 L59.8271 891.256 Q61.534 891.256 62.0171 890.773 Q62.468 890.258 62.468 888.036 L62.468 882.625 Q62.468 879.276 61.4696 876.86 Q60.4712 874.445 59.2152 873.157 Q57.9591 871.869 55.6081 871.031 Q53.2249 870.162 51.7112 869.904 Q50.1975 869.614 47.4922 869.356 L47.4922 867.714 L64.4969 869.55 L64.4969 903.913 Z" fill="#000000" fill-rule="evenodd" fill-opacity="1" /><path clip-path="url(#clip190)" d="M60.9543 858.735 Q56.6387 863.083 50.3908 863.083 Q44.1106 863.083 39.5374 858.832 Q34.9319 854.549 34.9319 848.43 Q34.9319 842.439 39.5052 838.156 Q44.0462 833.84 50.3908 833.84 Q56.6065 833.84 60.9221 838.188 Q65.2377 842.504 65.2377 848.494 Q65.2377 854.355 60.9543 858.735 M49.8433 857.608 Q56.2522 857.608 59.1508 855.934 Q63.563 853.357 63.563 848.43 Q63.563 845.982 62.2425 843.953 Q60.9221 841.892 58.6999 840.765 Q55.8013 839.315 49.8433 839.315 Q43.4987 839.315 40.6968 841.054 Q36.4134 843.631 36.4134 848.494 Q36.4134 850.62 37.5406 852.713 Q38.6356 854.774 40.8256 856.03 Q43.7241 857.608 49.8433 857.608 Z" fill="#000000" fill-rule="evenodd" fill-opacity="1" /><path clip-path="url(#clip190)" d="M69.7143 830.419 Q67.5887 830.419 65.753 828.809 Q63.9172 827.166 63.1121 824.332 Q61.2763 827.231 57.2506 827.231 Q54.1588 827.231 51.7756 825.202 Q49.1991 828.294 44.9802 828.294 Q41.0833 828.294 38.2169 825.202 Q35.3506 822.11 35.3506 817.601 Q35.3506 813.64 37.7339 810.613 Q34.6421 807.456 34.6099 803.624 Q34.6099 801.917 35.6727 801.112 Q36.7355 800.275 37.8627 800.275 Q38.8611 800.275 39.3442 800.919 Q39.8272 801.531 39.8272 802.175 Q39.8272 802.98 39.3119 803.56 Q38.7644 804.107 37.9271 804.107 Q36.5422 804.107 36.1236 803.044 Q36.0592 803.237 36.0592 803.688 Q36.0592 806.909 38.6356 809.646 Q41.1477 806.941 45.0446 806.941 Q48.9415 806.941 51.8078 810.033 Q54.6741 813.125 54.6741 817.601 Q54.6741 821.305 52.613 824.139 Q53.9334 825.266 55.7369 825.266 Q57.3794 825.266 58.6677 824.268 Q59.9559 823.27 60.1491 821.756 Q60.2135 821.305 60.2135 816.828 Q60.2135 814.187 60.278 812.738 Q60.3424 811.289 60.7933 809.228 Q61.2119 807.134 62.0493 805.492 Q64.4325 801.209 69.5855 801.176 Q73.3535 801.176 75.7046 805.524 Q78.0878 809.84 78.0878 815.83 Q78.0878 821.885 75.6724 826.168 Q73.2891 830.419 69.7143 830.419 M69.7143 826.973 Q72.4196 826.973 74.4807 823.785 Q76.5741 820.596 76.5741 815.766 Q76.5741 811.031 74.513 807.843 Q72.484 804.622 69.7143 804.622 Q67.7497 804.622 66.4937 805.75 Q65.2377 806.877 64.7224 809.196 Q64.2393 811.482 64.1427 813.092 Q64.046 814.703 64.046 817.666 L64.046 821.563 Q64.1749 823.817 65.8174 825.395 Q67.4599 826.973 69.7143 826.973 M45.0446 823.366 Q53.1605 823.366 53.1605 817.601 Q53.1605 814.703 50.5196 812.931 Q48.7483 811.869 44.9802 811.869 Q36.8643 811.869 36.8643 817.601 Q36.8643 820.5 39.5052 822.303 Q41.2765 823.366 45.0446 823.366 Z" fill="#000000" fill-rule="evenodd" fill-opacity="1" /><path clip-path="url(#clip190)" d="M64.4969 797.755 L62.468 797.755 Q62.468 794.245 62.0493 793.44 Q61.5984 792.634 59.4728 792.634 L41.7274 792.634 Q39.2797 792.634 38.7 793.472 Q38.1203 794.277 38.1203 797.498 L36.0592 797.498 L35.3506 788.287 L59.5372 788.287 Q61.5018 788.287 61.9849 787.578 Q62.468 786.87 62.468 783.649 L64.4969 783.649 Q64.3037 790.38 64.3037 790.509 Q64.3037 791.411 64.4969 797.755 M23.8531 794.985 Q22.5327 794.985 21.4699 793.987 Q20.3749 792.956 20.3749 791.507 Q20.3749 790.058 21.3733 789.027 Q22.3395 787.997 23.8853 787.997 Q25.399 787.997 26.3974 789.027 Q27.3636 790.058 27.3636 791.507 Q27.3636 793.021 26.3008 794.019 Q25.238 794.985 23.8531 794.985 Z" fill="#000000" fill-rule="evenodd" fill-opacity="1" /><path clip-path="url(#clip190)" d="M63.6274 779.669 L54.9318 779.669 Q54.1911 779.669 53.9334 779.637 Q53.6758 779.604 53.4825 779.411 Q53.2893 779.218 53.2893 778.831 Q53.2893 778.38 53.4825 778.219 Q53.6758 778.026 54.4165 777.897 Q58.9575 776.899 61.373 774.773 Q63.7562 772.616 63.7562 768.719 Q63.7562 765.015 62.1137 763.147 Q60.4712 761.279 57.7659 761.279 Q52.935 761.279 51.7112 768.139 Q50.9061 772.1 50.3908 773.743 Q49.8433 775.385 48.6516 776.835 Q46.3328 779.669 43.0478 779.669 Q39.7628 779.669 37.3474 777.189 Q34.9319 774.677 34.9319 769.137 Q34.9319 765.434 36.7999 762.922 Q36.2202 762.181 35.7371 761.794 Q34.9319 760.925 34.9319 760.474 Q34.9319 759.959 35.2862 759.862 Q35.6083 759.765 36.5422 759.765 L43.1766 759.765 Q43.9174 759.765 44.175 759.798 Q44.4327 759.83 44.6259 760.023 Q44.7869 760.216 44.7869 760.635 Q44.7869 761.376 44.175 761.408 Q36.188 761.923 36.188 769.137 Q36.188 773.034 37.7017 774.773 Q39.1831 776.513 41.2121 776.513 Q42.3393 776.513 43.2089 775.997 Q44.0462 775.45 44.5615 774.773 Q45.0446 774.065 45.5277 772.777 Q45.9786 771.488 46.1396 770.715 Q46.3006 769.91 46.6227 768.397 Q47.6211 763.115 49.7788 760.893 Q52.5486 758.123 56.059 758.123 Q59.9559 758.123 62.5968 760.764 Q65.2377 763.405 65.2377 768.719 Q65.2377 773.002 62.3713 775.997 Q62.7578 776.384 63.1121 776.674 Q63.4341 776.963 63.563 777.092 Q63.6918 777.189 63.7884 777.221 Q63.8528 777.253 63.9172 777.318 Q65.2377 778.638 65.2377 778.96 Q65.2377 779.475 64.8834 779.572 Q64.5613 779.669 63.6274 779.669 Z" fill="#000000" fill-rule="evenodd" fill-opacity="1" /><path clip-path="url(#clip190)" d="M38.1203 754.709 L36.6711 754.709 Q36.5422 751.681 34.4167 749.684 Q32.2589 747.655 29.618 746.979 Q26.9771 746.271 23.9175 746.206 L23.9175 744.564 L36.0592 744.564 L36.0592 735.127 L38.1203 735.127 L38.1203 744.564 L56.4455 744.564 Q63.563 744.564 63.563 740.119 Q63.563 738.219 61.6306 736.963 Q59.666 735.707 56.1878 735.707 L52.5486 735.707 L52.5486 734.065 L56.3166 734.065 Q59.8915 734.065 62.5646 735.707 Q65.2377 737.35 65.2377 740.602 Q65.2377 741.794 64.9156 742.986 Q64.6258 744.145 63.8528 745.691 Q63.0477 747.205 61.1153 748.171 Q59.1508 749.105 56.3166 749.105 L38.1203 749.105 L38.1203 754.709 Z" fill="#000000" fill-rule="evenodd" fill-opacity="1" /><path clip-path="url(#clip190)" d="M64.4969 729.381 L62.468 729.381 Q62.468 725.871 62.0493 725.066 Q61.5984 724.26 59.4728 724.26 L41.7274 724.26 Q39.2797 724.26 38.7 725.098 Q38.1203 725.903 38.1203 729.123 L36.0592 729.123 L35.3506 719.913 L59.5372 719.913 Q61.5018 719.913 61.9849 719.204 Q62.468 718.496 62.468 715.275 L64.4969 715.275 Q64.3037 722.006 64.3037 722.135 Q64.3037 723.037 64.4969 729.381 M23.8531 726.611 Q22.5327 726.611 21.4699 725.613 Q20.3749 724.582 20.3749 723.133 Q20.3749 721.684 21.3733 720.653 Q22.3395 719.623 23.8853 719.623 Q25.399 719.623 26.3974 720.653 Q27.3636 721.684 27.3636 723.133 Q27.3636 724.647 26.3008 725.645 Q25.238 726.611 23.8531 726.611 Z" fill="#000000" fill-rule="evenodd" fill-opacity="1" /><path clip-path="url(#clip190)" d="M60.8899 707.108 Q56.5099 711.295 50.2619 711.295 Q43.9818 711.295 39.473 707.172 Q34.9319 703.05 34.9319 696.995 Q34.9319 692.97 36.8643 689.942 Q38.7644 686.915 42.0172 686.915 Q43.4665 686.915 44.3039 687.784 Q45.109 688.622 45.109 689.942 Q45.109 691.327 44.2716 692.164 Q43.4021 692.97 42.0816 692.97 Q41.5019 692.97 40.9222 692.776 Q40.3425 692.583 39.7306 691.875 Q39.1187 691.134 39.0221 689.878 Q36.6067 692.229 36.6067 696.802 Q36.6067 696.866 36.6067 696.931 Q36.6067 700.28 39.7628 703.05 Q42.919 705.82 50.1331 705.82 Q53.9012 705.82 56.6709 704.918 Q59.4084 703.984 60.8255 702.47 Q62.2425 700.957 62.9188 699.475 Q63.563 697.994 63.563 696.544 Q63.563 690.071 56.6387 687.881 Q55.9946 687.688 55.9946 687.044 Q55.9946 686.174 56.6387 686.174 Q56.9608 686.174 57.7981 686.432 Q58.6355 686.689 59.9559 687.495 Q61.2763 688.3 62.4358 689.459 Q63.563 690.586 64.4003 692.615 Q65.2377 694.612 65.2377 697.124 Q65.2377 702.921 60.8899 707.108 Z" fill="#000000" fill-rule="evenodd" fill-opacity="1" /><path clip-path="url(#clip190)" d="M48.0075 682.299 Q36.8643 682.299 27.8789 678.144 Q24.1108 676.373 20.9546 673.893 Q17.7984 671.413 16.4136 669.771 Q15.0287 668.128 15.0287 667.677 Q15.0287 667.033 15.6728 667.001 Q15.9949 667.001 16.8 667.871 Q27.6212 678.499 48.0075 678.466 Q68.4582 678.466 78.8607 668.128 Q79.9879 667.001 80.3422 667.001 Q80.9863 667.001 80.9863 667.677 Q80.9863 668.128 79.6659 669.706 Q78.3454 671.285 75.3181 673.732 Q72.2907 676.18 68.5871 677.951 Q59.6016 682.299 48.0075 682.299 Z" fill="#000000" fill-rule="evenodd" fill-opacity="1" /><path clip-path="url(#clip190)" d="M39.6984 624.122 Q41.5019 624.122 42.5325 625.249 Q43.5309 626.376 43.5309 627.664 Q43.5309 628.888 42.8224 629.532 Q42.1139 630.176 41.2121 630.176 Q39.9883 630.176 38.9255 629.274 Q37.8627 628.373 37.6372 627.02 Q36.7999 628.341 36.7999 630.305 Q36.7999 631.593 37.4762 632.721 Q38.1525 633.816 39.0221 634.492 Q39.8917 635.136 41.1477 635.716 Q42.3715 636.263 43.1122 636.489 Q43.8208 636.682 44.5937 636.843 L53.6113 639.097 Q57.8947 640.192 59.4084 640.192 Q61.2763 640.192 62.5324 639.291 Q63.7562 638.389 63.7562 636.585 Q63.7562 635.877 63.563 635.072 Q63.3375 634.266 62.7578 633.236 Q62.1459 632.173 61.2441 631.239 Q60.3102 630.273 58.7321 629.339 Q57.154 628.405 55.125 627.793 Q54.4165 627.6 54.4165 626.956 Q54.4165 626.151 55.0606 626.151 Q55.6081 626.151 56.7675 626.601 Q57.8947 627.02 59.3762 627.954 Q60.8255 628.856 62.1459 630.047 Q63.4341 631.239 64.3359 633.01 Q65.2377 634.782 65.2377 636.714 Q65.2377 639.484 63.7562 641.319 Q62.2747 643.155 60.2135 643.832 Q60.5034 643.993 60.8899 644.218 Q61.2763 644.443 62.1459 645.12 Q62.9833 645.764 63.6274 646.505 Q64.2393 647.245 64.7224 648.405 Q65.2377 649.532 65.2377 650.756 Q65.2377 652.302 64.7868 653.687 Q64.3359 655.039 63.3053 656.005 Q62.2747 656.972 60.8577 656.972 Q59.2796 656.972 58.1846 655.909 Q57.0574 654.814 57.0574 653.332 Q57.0574 652.398 57.6049 651.658 Q58.1524 650.885 59.344 650.885 Q60.6644 650.885 61.6628 651.786 Q62.6612 652.688 62.9188 653.976 Q63.7562 652.656 63.7562 650.691 Q63.7562 648.566 61.8883 646.891 Q60.0203 645.216 56.8963 644.411 Q49.3924 642.414 46.043 641.642 Q42.6614 640.869 41.2121 640.869 Q39.8594 640.869 38.9255 641.223 Q37.9915 641.577 37.5728 642.189 Q37.1219 642.769 36.9609 643.316 Q36.7999 643.832 36.7999 644.411 Q36.7999 645.377 37.1864 646.472 Q37.5728 647.535 38.4746 648.823 Q39.3442 650.079 41.1477 651.271 Q42.9512 652.463 45.4311 653.268 Q46.1718 653.429 46.1718 654.137 Q46.1396 654.91 45.4955 654.91 Q44.948 654.91 43.8208 654.492 Q42.6614 654.041 41.2121 653.139 Q39.7628 652.205 38.4746 651.013 Q37.1542 649.79 36.2524 648.018 Q35.3506 646.215 35.3506 644.282 Q35.3506 643.413 35.5439 642.576 Q35.7049 641.706 36.188 640.675 Q36.6711 639.613 37.7339 638.679 Q38.7967 637.745 40.3425 637.165 Q39.6018 636.778 38.8933 636.263 Q38.1847 635.716 37.3152 634.878 Q36.4134 634.009 35.8981 632.817 Q35.3506 631.593 35.3506 630.241 Q35.3506 628.92 35.7049 627.632 Q36.0269 626.344 37.0897 625.249 Q38.1203 624.122 39.6984 624.122 Z" fill="#000000" fill-rule="evenodd" fill-opacity="1" /><path clip-path="url(#clip190)" d="M80.3422 619.618 Q80.0202 619.618 79.215 618.781 Q68.3938 608.153 48.0075 608.153 Q27.5568 608.153 17.2187 618.362 Q16.0271 619.618 15.6728 619.618 Q15.0287 619.618 15.0287 618.974 Q15.0287 618.523 16.3492 616.945 Q17.6696 615.335 20.697 612.92 Q23.7243 610.472 27.428 608.668 Q36.4134 604.321 48.0075 604.321 Q59.1508 604.321 68.1362 608.475 Q71.9043 610.246 75.0605 612.726 Q78.2166 615.206 79.6015 616.849 Q80.9863 618.491 80.9863 618.974 Q80.9863 619.618 80.3422 619.618 Z" fill="#000000" fill-rule="evenodd" fill-opacity="1" /><polyline clip-path="url(#clip193)" style="stroke:#009af9; stroke-linecap:butt; stroke-linejoin:round; stroke-width:4; stroke-opacity:1; fill:none" points="
  305.211,1411.23 324.625,1411.22 504.131,1410.85 612.007,1409.98 703.214,1408 802.291,1402.42 893.632,1389.27 942.595,1375.63 991.558,1353.92 1019.92,1336.04 
  1048.29,1313.04 1076.65,1283.71 1105.02,1246.81 1130.22,1206.67 1155.43,1158.86 1180.64,1102.96 1205.84,1038.98 1250.05,909.455 1294.26,765.439 1342.46,607.125 
  1390.66,464.173 1414.9,401.943 1439.14,347.157 1463.39,299.889 1487.63,259.811 1514.43,223.148 1541.23,193.539 1568.04,169.916 1594.84,151.25 1645.85,126.19 
  1696.85,110.707 1802.92,95.195 1892.21,90.2978 2001.22,88.0445 2103.69,87.316 2267.85,86.9893 2293.12,86.9719 
  "/>
</svg>
