<?xml version="1.0" encoding="utf-8"?>
<svg xmlns="http://www.w3.org/2000/svg" xmlns:xlink="http://www.w3.org/1999/xlink" width="600" height="400" viewBox="0 0 2400 1600">
<defs>
  <clipPath id="clip460">
    <rect x="0" y="0" width="2400" height="1600"/>
  </clipPath>
</defs>
<path clip-path="url(#clip460)" d="
M0 1600 L2400 1600 L2400 0 L0 0  Z
  " fill="#ffffff" fill-rule="evenodd" fill-opacity="1"/>
<defs>
  <clipPath id="clip461">
    <rect x="480" y="0" width="1681" height="1600"/>
  </clipPath>
</defs>
<path clip-path="url(#clip460)" d="
M192.606 177.166 L2051.7 177.166 L2051.7 47.2441 L192.606 47.2441  Z
  " fill="#ffffff" fill-rule="evenodd" fill-opacity="1"/>
<defs>
  <clipPath id="clip462">
    <rect x="192" y="47" width="1860" height="131"/>
  </clipPath>
</defs>
<polyline clip-path="url(#clip460)" style="stroke:#000000; stroke-linecap:butt; stroke-linejoin:round; stroke-width:4; stroke-opacity:1; fill:none" points="
  192.606,177.166 2051.7,177.166 
  "/>
<polyline clip-path="url(#clip460)" style="stroke:#000000; stroke-linecap:butt; stroke-linejoin:round; stroke-width:4; stroke-opacity:1; fill:none" points="
  192.606,177.166 192.606,47.2441 
  "/>
<polyline clip-path="url(#clip462)" style="stroke:#009af9; stroke-linecap:butt; stroke-linejoin:round; stroke-width:4; stroke-opacity:1; fill:none" points="
  -452.508,177.166 -440.358,177.166 -428.207,177.166 -416.057,177.165 -403.907,177.165 -391.756,177.165 -379.606,177.164 -367.455,177.163 -355.305,177.161 -343.154,177.159 
  -331.004,177.156 -318.854,177.152 -306.703,177.147 -294.553,177.14 -282.402,177.131 -270.252,177.119 -258.102,177.105 -245.951,177.087 -233.801,177.066 -221.65,177.041 
  -209.5,177.012 -197.349,176.979 -185.199,176.942 -173.049,176.902 -160.898,176.858 -148.748,176.811 -136.597,176.761 -124.447,176.708 -112.296,176.652 -100.146,176.593 
  -87.9956,176.529 -75.8452,176.459 -63.6948,176.381 -51.5443,176.293 -39.3939,176.19 -27.2435,176.07 -15.0931,175.929 -2.94266,175.762 9.20777,175.566 21.3582,175.338 
  33.5086,175.073 45.659,174.77 57.8095,174.425 69.9599,174.038 82.1103,173.607 94.2607,173.131 106.411,172.608 118.562,172.036 130.712,171.413 142.862,170.734 
  155.013,169.996 167.163,169.192 179.314,168.315 191.464,167.36 203.615,166.319 215.765,165.185 227.915,163.953 240.066,162.619 252.216,161.178 264.367,159.63 
  276.517,157.974 288.667,156.212 300.818,154.346 312.968,152.381 325.119,150.32 337.269,148.168 349.42,145.933 361.57,143.621 373.72,141.24 385.871,138.803 
  398.021,136.321 410.172,133.81 422.322,131.289 434.473,128.78 446.623,126.307 458.773,123.897 470.924,121.578 483.074,119.379 495.225,117.33 507.375,115.456 
  519.525,113.782 531.676,112.329 543.826,111.113 555.977,110.143 568.127,109.427 580.278,108.964 592.428,108.75 604.578,108.779 616.729,109.039 628.879,109.519 
  641.03,110.206 653.18,111.087 665.331,112.149 677.481,113.383 689.631,114.779 701.782,116.328 713.932,118.02 726.083,119.847 738.233,121.797 750.384,123.858 
  762.534,126.014 774.684,128.248 786.835,130.539 798.985,132.865 811.136,135.204 823.286,137.535 835.436,139.835 847.587,142.087 859.737,144.274 871.888,146.384 
  884.038,148.407 896.189,150.337 908.339,152.168 920.489,153.897 932.64,155.521 944.79,157.035 956.941,158.432 969.091,159.703 981.242,160.838 993.392,161.818 
  1005.54,162.626 1017.69,163.238 1029.84,163.626 1041.99,163.759 1054.14,163.604 1066.29,163.122 1078.44,162.273 1090.6,161.016 1102.75,159.308 1114.9,157.109 
  1127.05,154.383 1139.2,151.099 1151.35,147.237 1163.5,142.791 1175.65,137.77 1187.8,132.202 1199.95,126.139 1212.1,119.655 1224.25,112.849 1236.4,105.842 
  1248.55,98.7754 1260.7,91.8078 1272.85,85.1084 1285,78.8516 1297.15,73.2093 1309.3,68.3439 1321.45,64.4003 1333.6,61.5 1345.75,59.7345 1357.9,59.1615 
  1370.06,59.8017 1382.21,61.6385 1394.36,64.6182 1406.51,68.6534 1418.66,73.6271 1430.81,79.3984 1442.96,85.8092 1455.11,92.691 1467.26,99.8729 1479.41,107.187 
  1491.56,114.478 1503.71,121.603 1515.86,128.441 1528.01,134.891 1540.16,140.879 1552.31,146.351 1564.46,151.278 1576.61,155.65 1588.76,159.474 1600.91,162.775 
  1613.06,165.584 1625.21,167.945 1637.36,169.902 1649.51,171.505 1661.67,172.801 1673.82,173.835 1685.97,174.652 1698.12,175.288 1710.27,175.778 1722.42,176.151 
  1734.57,176.432 1746.72,176.64 1758.87,176.794 1771.02,176.905 1783.17,176.985 1795.32,177.042 1807.47,177.082 1819.62,177.11 1831.77,177.129 1843.92,177.142 
  1856.07,177.15 1868.22,177.156 1880.37,177.16 1892.52,177.162 1904.67,177.163 1916.82,177.164 1928.97,177.165 1941.12,177.165 1953.28,177.166 1965.43,177.166 
  
  "/>
<path clip-path="url(#clip460)" d="
M192.606 1440.95 L2051.7 1440.95 L2051.7 271.654 L192.606 271.654  Z
  " fill="#ffffff" fill-rule="evenodd" fill-opacity="1"/>
<defs>
  <clipPath id="clip463">
    <rect x="192" y="271" width="1860" height="1170"/>
  </clipPath>
</defs>
<polyline clip-path="url(#clip463)" style="stroke:#000000; stroke-linecap:butt; stroke-linejoin:round; stroke-width:2; stroke-opacity:0.1; fill:none" points="
  242.27,1440.95 242.27,271.654 
  "/>
<polyline clip-path="url(#clip463)" style="stroke:#000000; stroke-linecap:butt; stroke-linejoin:round; stroke-width:2; stroke-opacity:0.1; fill:none" points="
  613.949,1440.95 613.949,271.654 
  "/>
<polyline clip-path="url(#clip463)" style="stroke:#000000; stroke-linecap:butt; stroke-linejoin:round; stroke-width:2; stroke-opacity:0.1; fill:none" points="
  985.627,1440.95 985.627,271.654 
  "/>
<polyline clip-path="url(#clip463)" style="stroke:#000000; stroke-linecap:butt; stroke-linejoin:round; stroke-width:2; stroke-opacity:0.1; fill:none" points="
  1357.31,1440.95 1357.31,271.654 
  "/>
<polyline clip-path="url(#clip463)" style="stroke:#000000; stroke-linecap:butt; stroke-linejoin:round; stroke-width:2; stroke-opacity:0.1; fill:none" points="
  1728.98,1440.95 1728.98,271.654 
  "/>
<polyline clip-path="url(#clip460)" style="stroke:#000000; stroke-linecap:butt; stroke-linejoin:round; stroke-width:4; stroke-opacity:1; fill:none" points="
  192.606,1440.95 2051.7,1440.95 
  "/>
<polyline clip-path="url(#clip460)" style="stroke:#000000; stroke-linecap:butt; stroke-linejoin:round; stroke-width:4; stroke-opacity:1; fill:none" points="
  242.27,1440.95 242.27,1422.05 
  "/>
<polyline clip-path="url(#clip460)" style="stroke:#000000; stroke-linecap:butt; stroke-linejoin:round; stroke-width:4; stroke-opacity:1; fill:none" points="
  613.949,1440.95 613.949,1422.05 
  "/>
<polyline clip-path="url(#clip460)" style="stroke:#000000; stroke-linecap:butt; stroke-linejoin:round; stroke-width:4; stroke-opacity:1; fill:none" points="
  985.627,1440.95 985.627,1422.05 
  "/>
<polyline clip-path="url(#clip460)" style="stroke:#000000; stroke-linecap:butt; stroke-linejoin:round; stroke-width:4; stroke-opacity:1; fill:none" points="
  1357.31,1440.95 1357.31,1422.05 
  "/>
<polyline clip-path="url(#clip460)" style="stroke:#000000; stroke-linecap:butt; stroke-linejoin:round; stroke-width:4; stroke-opacity:1; fill:none" points="
  1728.98,1440.95 1728.98,1422.05 
  "/>
<path clip-path="url(#clip460)" d="M211.912 1484.79 L241.588 1484.79 L241.588 1488.73 L211.912 1488.73 L211.912 1484.79 Z" fill="#000000" fill-rule="evenodd" fill-opacity="1" /><path clip-path="url(#clip460)" d="M251.726 1467.06 L270.083 1467.06 L270.083 1471 L256.009 1471 L256.009 1479.47 Q257.027 1479.12 258.046 1478.96 Q259.064 1478.77 260.083 1478.77 Q265.87 1478.77 269.25 1481.95 Q272.629 1485.12 272.629 1490.53 Q272.629 1496.11 269.157 1499.21 Q265.685 1502.29 259.365 1502.29 Q257.189 1502.29 254.921 1501.92 Q252.676 1501.55 250.268 1500.81 L250.268 1496.11 Q252.351 1497.25 254.574 1497.8 Q256.796 1498.36 259.273 1498.36 Q263.277 1498.36 265.615 1496.25 Q267.953 1494.15 267.953 1490.53 Q267.953 1486.92 265.615 1484.82 Q263.277 1482.71 259.273 1482.71 Q257.398 1482.71 255.523 1483.13 Q253.671 1483.54 251.726 1484.42 L251.726 1467.06 Z" fill="#000000" fill-rule="evenodd" fill-opacity="1" /><path clip-path="url(#clip460)" d="M613.949 1470.14 Q610.338 1470.14 608.509 1473.71 Q606.704 1477.25 606.704 1484.38 Q606.704 1491.48 608.509 1495.05 Q610.338 1498.59 613.949 1498.59 Q617.583 1498.59 619.389 1495.05 Q621.217 1491.48 621.217 1484.38 Q621.217 1477.25 619.389 1473.71 Q617.583 1470.14 613.949 1470.14 M613.949 1466.44 Q619.759 1466.44 622.815 1471.04 Q625.893 1475.63 625.893 1484.38 Q625.893 1493.1 622.815 1497.71 Q619.759 1502.29 613.949 1502.29 Q608.139 1502.29 605.06 1497.71 Q602.005 1493.1 602.005 1484.38 Q602.005 1475.63 605.06 1471.04 Q608.139 1466.44 613.949 1466.44 Z" fill="#000000" fill-rule="evenodd" fill-opacity="1" /><path clip-path="url(#clip460)" d="M975.905 1467.06 L994.262 1467.06 L994.262 1471 L980.188 1471 L980.188 1479.47 Q981.206 1479.12 982.225 1478.96 Q983.243 1478.77 984.262 1478.77 Q990.049 1478.77 993.428 1481.95 Q996.808 1485.12 996.808 1490.53 Q996.808 1496.11 993.336 1499.21 Q989.864 1502.29 983.544 1502.29 Q981.368 1502.29 979.1 1501.92 Q976.854 1501.55 974.447 1500.81 L974.447 1496.11 Q976.53 1497.25 978.753 1497.8 Q980.975 1498.36 983.452 1498.36 Q987.456 1498.36 989.794 1496.25 Q992.132 1494.15 992.132 1490.53 Q992.132 1486.92 989.794 1484.82 Q987.456 1482.71 983.452 1482.71 Q981.577 1482.71 979.702 1483.13 Q977.85 1483.54 975.905 1484.42 L975.905 1467.06 Z" fill="#000000" fill-rule="evenodd" fill-opacity="1" /><path clip-path="url(#clip460)" d="M1331.99 1497.69 L1339.63 1497.69 L1339.63 1471.32 L1331.32 1472.99 L1331.32 1468.73 L1339.59 1467.06 L1344.26 1467.06 L1344.26 1497.69 L1351.9 1497.69 L1351.9 1501.62 L1331.99 1501.62 L1331.99 1497.69 Z" fill="#000000" fill-rule="evenodd" fill-opacity="1" /><path clip-path="url(#clip460)" d="M1371.35 1470.14 Q1367.73 1470.14 1365.91 1473.71 Q1364.1 1477.25 1364.1 1484.38 Q1364.1 1491.48 1365.91 1495.05 Q1367.73 1498.59 1371.35 1498.59 Q1374.98 1498.59 1376.79 1495.05 Q1378.61 1491.48 1378.61 1484.38 Q1378.61 1477.25 1376.79 1473.71 Q1374.98 1470.14 1371.35 1470.14 M1371.35 1466.44 Q1377.16 1466.44 1380.21 1471.04 Q1383.29 1475.63 1383.29 1484.38 Q1383.29 1493.1 1380.21 1497.71 Q1377.16 1502.29 1371.35 1502.29 Q1365.54 1502.29 1362.46 1497.71 Q1359.4 1493.1 1359.4 1484.38 Q1359.4 1475.63 1362.46 1471.04 Q1365.54 1466.44 1371.35 1466.44 Z" fill="#000000" fill-rule="evenodd" fill-opacity="1" /><path clip-path="url(#clip460)" d="M1704.17 1497.69 L1711.81 1497.69 L1711.81 1471.32 L1703.5 1472.99 L1703.5 1468.73 L1711.76 1467.06 L1716.44 1467.06 L1716.44 1497.69 L1724.08 1497.69 L1724.08 1501.62 L1704.17 1501.62 L1704.17 1497.69 Z" fill="#000000" fill-rule="evenodd" fill-opacity="1" /><path clip-path="url(#clip460)" d="M1733.57 1467.06 L1751.92 1467.06 L1751.92 1471 L1737.85 1471 L1737.85 1479.47 Q1738.87 1479.12 1739.89 1478.96 Q1740.91 1478.77 1741.92 1478.77 Q1747.71 1478.77 1751.09 1481.95 Q1754.47 1485.12 1754.47 1490.53 Q1754.47 1496.11 1751 1499.21 Q1747.53 1502.29 1741.21 1502.29 Q1739.03 1502.29 1736.76 1501.92 Q1734.52 1501.55 1732.11 1500.81 L1732.11 1496.11 Q1734.19 1497.25 1736.42 1497.8 Q1738.64 1498.36 1741.11 1498.36 Q1745.12 1498.36 1747.46 1496.25 Q1749.79 1494.15 1749.79 1490.53 Q1749.79 1486.92 1747.46 1484.82 Q1745.12 1482.71 1741.11 1482.71 Q1739.24 1482.71 1737.36 1483.13 Q1735.51 1483.54 1733.57 1484.42 L1733.57 1467.06 Z" fill="#000000" fill-rule="evenodd" fill-opacity="1" /><path clip-path="url(#clip460)" d="M1149.48 1524.64 Q1149.48 1525.22 1149.26 1525.54 Q1149.06 1525.83 1148.84 1525.89 Q1148.61 1525.93 1148.03 1525.96 Q1143.43 1526.18 1139.66 1529.31 Q1138.73 1530.11 1136.38 1532.62 Q1134.06 1535.14 1130.96 1538.49 Q1127.91 1541.84 1126.13 1543.64 L1134.64 1563.99 Q1134.99 1564.8 1135.12 1565.15 Q1135.28 1565.47 1135.6 1565.89 Q1135.96 1566.31 1136.21 1566.44 Q1136.5 1566.57 1137.12 1566.73 Q1137.76 1566.86 1138.4 1566.89 Q1139.08 1566.89 1140.3 1566.92 Q1140.69 1566.92 1140.85 1566.96 Q1141.05 1566.96 1141.27 1567.15 Q1141.5 1567.31 1141.5 1567.7 Q1141.5 1568.28 1141.24 1568.6 Q1141.01 1568.89 1140.79 1568.92 Q1140.59 1568.95 1140.24 1568.95 Q1139.4 1568.95 1136.57 1568.86 Q1133.73 1568.76 1132.93 1568.76 L1124.62 1568.95 Q1123.62 1568.95 1123.62 1568.15 Q1123.62 1567.73 1123.69 1567.5 Q1123.78 1567.25 1124.01 1567.15 Q1124.23 1567.02 1124.39 1566.99 Q1124.56 1566.96 1124.94 1566.92 Q1126.13 1566.79 1127.04 1566.44 Q1127.97 1566.05 1128.36 1565.67 Q1128.77 1565.28 1128.77 1564.99 L1128.45 1564.06 L1121.79 1548.31 L1115.83 1554.78 L1109.1 1561.9 Q1107.33 1563.8 1107.33 1564.86 Q1107.33 1566.63 1109.97 1566.92 Q1110.77 1566.99 1110.77 1567.63 Q1110.77 1568.24 1110.51 1568.57 Q1110.29 1568.86 1110.06 1568.92 Q1109.87 1568.95 1109.58 1568.95 Q1108.39 1568.95 1105.88 1568.86 Q1103.4 1568.76 1102.17 1568.76 Q1101.14 1568.76 1099.05 1568.86 Q1096.96 1568.95 1095.99 1568.95 Q1095.6 1568.95 1095.38 1568.76 Q1095.15 1568.57 1095.15 1568.37 L1095.12 1568.21 Q1095.12 1567.76 1095.18 1567.5 Q1095.28 1567.25 1095.54 1567.12 Q1095.83 1566.99 1095.96 1566.99 Q1096.09 1566.96 1096.57 1566.92 Q1099.31 1566.76 1101.63 1565.7 Q1103.98 1564.64 1106.26 1562.16 Q1106.46 1562 1106.68 1561.8 Q1106.94 1561.61 1107.13 1561.45 L1121.05 1546.47 L1113.25 1528.05 Q1112.9 1527.21 1112.58 1526.86 Q1112.25 1526.47 1111.25 1526.22 Q1110.26 1525.96 1108.32 1525.96 Q1107.78 1525.96 1107.52 1525.93 Q1107.26 1525.89 1107.04 1525.73 Q1106.81 1525.57 1106.81 1525.22 Q1106.81 1524.6 1107.04 1524.32 Q1107.29 1523.99 1107.49 1523.96 Q1107.71 1523.9 1108 1523.9 Q1108.81 1523.9 1111.67 1523.99 Q1114.54 1524.09 1115.38 1524.09 Q1116.76 1524.09 1119.53 1523.99 Q1122.33 1523.9 1123.69 1523.9 Q1124.68 1523.9 1124.68 1524.7 Q1124.68 1525.22 1124.46 1525.51 Q1124.23 1525.8 1124.01 1525.86 Q1123.78 1525.93 1123.36 1525.96 Q1122.11 1526.09 1121.14 1526.51 Q1120.21 1526.89 1119.82 1527.28 Q1119.47 1527.63 1119.47 1527.86 L1119.79 1528.73 L1125.33 1541.84 L1136.02 1530.37 Q1137.28 1528.95 1137.28 1527.99 Q1137.28 1526.25 1134.64 1525.96 Q1133.83 1525.83 1133.83 1525.22 Q1133.83 1524.6 1134.09 1524.32 Q1134.35 1523.99 1134.54 1523.96 Q1134.76 1523.9 1135.09 1523.9 Q1136.28 1523.9 1138.73 1523.99 Q1141.21 1524.09 1142.43 1524.09 Q1143.46 1524.09 1145.55 1523.99 Q1147.65 1523.9 1148.61 1523.9 Q1149 1523.9 1149.23 1524.09 Q1149.45 1524.25 1149.45 1524.44 L1149.48 1524.64 Z" fill="#000000" fill-rule="evenodd" fill-opacity="1" /><polyline clip-path="url(#clip463)" style="stroke:#000000; stroke-linecap:butt; stroke-linejoin:round; stroke-width:2; stroke-opacity:0.1; fill:none" points="
  192.606,1191.55 2051.7,1191.55 
  "/>
<polyline clip-path="url(#clip463)" style="stroke:#000000; stroke-linecap:butt; stroke-linejoin:round; stroke-width:2; stroke-opacity:0.1; fill:none" points="
  192.606,930.14 2051.7,930.14 
  "/>
<polyline clip-path="url(#clip463)" style="stroke:#000000; stroke-linecap:butt; stroke-linejoin:round; stroke-width:2; stroke-opacity:0.1; fill:none" points="
  192.606,668.726 2051.7,668.726 
  "/>
<polyline clip-path="url(#clip463)" style="stroke:#000000; stroke-linecap:butt; stroke-linejoin:round; stroke-width:2; stroke-opacity:0.1; fill:none" points="
  192.606,407.312 2051.7,407.312 
  "/>
<polyline clip-path="url(#clip460)" style="stroke:#000000; stroke-linecap:butt; stroke-linejoin:round; stroke-width:4; stroke-opacity:1; fill:none" points="
  192.606,1440.95 192.606,271.654 
  "/>
<polyline clip-path="url(#clip460)" style="stroke:#000000; stroke-linecap:butt; stroke-linejoin:round; stroke-width:4; stroke-opacity:1; fill:none" points="
  192.606,1191.55 211.503,1191.55 
  "/>
<polyline clip-path="url(#clip460)" style="stroke:#000000; stroke-linecap:butt; stroke-linejoin:round; stroke-width:4; stroke-opacity:1; fill:none" points="
  192.606,930.14 211.503,930.14 
  "/>
<polyline clip-path="url(#clip460)" style="stroke:#000000; stroke-linecap:butt; stroke-linejoin:round; stroke-width:4; stroke-opacity:1; fill:none" points="
  192.606,668.726 211.503,668.726 
  "/>
<polyline clip-path="url(#clip460)" style="stroke:#000000; stroke-linecap:butt; stroke-linejoin:round; stroke-width:4; stroke-opacity:1; fill:none" points="
  192.606,407.312 211.503,407.312 
  "/>
<path clip-path="url(#clip460)" d="M96.4902 1192.01 L126.166 1192.01 L126.166 1195.94 L96.4902 1195.94 L96.4902 1192.01 Z" fill="#000000" fill-rule="evenodd" fill-opacity="1" /><path clip-path="url(#clip460)" d="M140.286 1204.9 L156.606 1204.9 L156.606 1208.83 L134.661 1208.83 L134.661 1204.9 Q137.323 1202.14 141.907 1197.51 Q146.513 1192.86 147.694 1191.52 Q149.939 1189 150.819 1187.26 Q151.721 1185.5 151.721 1183.81 Q151.721 1181.06 149.777 1179.32 Q147.856 1177.58 144.754 1177.58 Q142.555 1177.58 140.101 1178.35 Q137.67 1179.11 134.893 1180.66 L134.893 1175.94 Q137.717 1174.81 140.17 1174.23 Q142.624 1173.65 144.661 1173.65 Q150.032 1173.65 153.226 1176.33 Q156.42 1179.02 156.42 1183.51 Q156.42 1185.64 155.61 1187.56 Q154.823 1189.46 152.717 1192.05 Q152.138 1192.72 149.036 1195.94 Q145.934 1199.13 140.286 1204.9 Z" fill="#000000" fill-rule="evenodd" fill-opacity="1" /><path clip-path="url(#clip460)" d="M144.661 915.939 Q141.05 915.939 139.221 919.504 Q137.416 923.045 137.416 930.175 Q137.416 937.281 139.221 940.846 Q141.05 944.388 144.661 944.388 Q148.295 944.388 150.101 940.846 Q151.93 937.281 151.93 930.175 Q151.93 923.045 150.101 919.504 Q148.295 915.939 144.661 915.939 M144.661 912.235 Q150.471 912.235 153.527 916.842 Q156.606 921.425 156.606 930.175 Q156.606 938.902 153.527 943.508 Q150.471 948.091 144.661 948.091 Q138.851 948.091 135.772 943.508 Q132.717 938.902 132.717 930.175 Q132.717 921.425 135.772 916.842 Q138.851 912.235 144.661 912.235 Z" fill="#000000" fill-rule="evenodd" fill-opacity="1" /><path clip-path="url(#clip460)" d="M140.286 682.071 L156.606 682.071 L156.606 686.006 L134.661 686.006 L134.661 682.071 Q137.323 679.316 141.907 674.687 Q146.513 670.034 147.694 668.691 Q149.939 666.168 150.819 664.432 Q151.721 662.673 151.721 660.983 Q151.721 658.229 149.777 656.492 Q147.856 654.756 144.754 654.756 Q142.555 654.756 140.101 655.52 Q137.67 656.284 134.893 657.835 L134.893 653.113 Q137.717 651.979 140.17 651.4 Q142.624 650.821 144.661 650.821 Q150.032 650.821 153.226 653.506 Q156.42 656.192 156.42 660.682 Q156.42 662.812 155.61 664.733 Q154.823 666.631 152.717 669.224 Q152.138 669.895 149.036 673.113 Q145.934 676.307 140.286 682.071 Z" fill="#000000" fill-rule="evenodd" fill-opacity="1" /><path clip-path="url(#clip460)" d="M147.022 394.106 L135.217 412.555 L147.022 412.555 L147.022 394.106 M145.795 390.032 L151.675 390.032 L151.675 412.555 L156.606 412.555 L156.606 416.444 L151.675 416.444 L151.675 424.592 L147.022 424.592 L147.022 416.444 L131.421 416.444 L131.421 411.93 L145.795 390.032 Z" fill="#000000" fill-rule="evenodd" fill-opacity="1" /><path clip-path="url(#clip460)" d="M20.7018 827.311 Q21.1205 827.311 21.3781 827.408 Q21.6358 827.472 21.7646 827.73 Q21.8612 827.955 21.8934 828.116 Q21.9256 828.245 21.9578 828.632 Q22.0867 830.21 22.5053 831.53 Q22.8918 832.85 23.6647 833.978 Q24.4377 835.073 24.953 835.685 Q25.4683 836.264 26.4989 837.295 L27.4328 838.197 L46.2088 854.557 Q46.853 855.137 48.27 855.491 L57.5775 857.81 Q61.4422 858.712 61.7321 858.712 Q62.3118 858.712 62.505 858.39 Q62.666 858.035 62.7627 856.94 L62.9237 854.428 Q62.9237 852.947 63.1813 852.721 Q63.3424 852.593 63.6322 852.593 Q64.2441 852.593 64.5662 852.85 Q64.856 853.076 64.9205 853.301 Q64.9527 853.494 64.9527 853.849 L64.7594 862.287 L64.9527 870.596 Q64.9527 871.53 64.2119 871.53 Q63.7288 871.53 63.4712 871.465 Q63.1813 871.369 63.0847 871.079 Q62.9559 870.789 62.9559 870.564 Q62.9237 870.338 62.9237 869.726 Q62.8915 868.245 62.8915 867.504 Q62.8593 866.731 62.666 865.99 Q62.4728 865.25 62.344 864.992 Q62.183 864.702 61.6355 864.38 Q61.0557 864.026 60.6049 863.929 Q60.154 863.8 59.0268 863.543 Q58.0284 863.285 52.5856 861.932 Q47.1428 860.58 47.014 860.58 Q46.6597 860.58 45.8868 860.837 L24.18 868.953 Q23.2139 869.308 22.8274 869.597 Q22.4409 869.887 22.2155 870.853 Q21.9578 871.82 21.9578 873.752 Q21.9578 874.299 21.9256 874.557 Q21.8934 874.815 21.7324 875.04 Q21.5714 875.266 21.2171 875.266 Q20.6052 875.266 20.3153 875.008 Q19.9933 874.75 19.9611 874.557 Q19.8967 874.332 19.8967 874.01 Q19.8967 873.204 19.9933 870.338 Q20.0899 867.472 20.0899 866.634 L19.8967 858.325 Q19.8967 857.327 20.6374 857.327 Q21.5392 857.327 21.7646 857.681 Q21.9578 858.035 21.9578 858.905 Q21.9578 862.802 23.5359 862.802 Q23.7292 862.802 24.6631 862.415 L44.2443 855.169 L26.6277 839.871 L26.37 839.646 Q26.1124 839.453 25.9192 839.292 Q25.7259 839.131 25.3717 838.873 Q25.0174 838.615 24.7275 838.487 Q24.4377 838.325 24.0834 838.197 Q23.7292 838.068 23.4715 838.068 Q22.9884 838.068 22.6664 838.358 Q22.3121 838.648 22.1833 839.098 Q22.0545 839.549 22.0222 839.871 Q21.9578 840.193 21.9578 840.451 Q21.9578 841.449 21.1527 841.449 Q20.573 841.449 20.2831 841.192 Q19.9611 840.934 19.9289 840.741 Q19.8967 840.515 19.8967 840.193 Q19.8967 839.131 19.9933 836.908 Q20.0899 834.686 20.0899 833.591 Q20.0899 832.689 19.9933 830.854 Q19.8967 829.018 19.8967 828.181 Q19.8967 827.311 20.7018 827.311 Z" fill="#000000" fill-rule="evenodd" fill-opacity="1" /><polyline clip-path="url(#clip463)" style="stroke:#1c0c43; stroke-linecap:butt; stroke-linejoin:round; stroke-width:4; stroke-opacity:1; fill:none" points="
  284.595,1086.14 287.095,1088.86 290.079,1092.12 295.846,1098.11 296.577,1098.87 301.587,1104.1 306.059,1108.85 307.201,1110.09 312.395,1116.08 315.541,1120.03 
  317.121,1122.07 321.241,1128.06 324.845,1134.05 325.023,1134.4 327.852,1140.04 330.447,1146.03 332.739,1152.02 334.506,1157.04 334.843,1158.01 336.873,1164 
  339.036,1169.98 341.506,1175.97 343.988,1181.01 344.484,1181.96 348.227,1187.95 353.081,1193.94 353.47,1194.34 359.651,1199.93 362.952,1202.32 368.903,1205.92 
  372.434,1207.71 381.916,1211.52 383.134,1211.91 391.398,1214.27 400.88,1216.28 410.362,1217.74 411.791,1217.9 419.844,1218.77 429.326,1219.45 438.809,1219.85 
  448.291,1220.02 457.773,1219.97 467.255,1219.75 476.737,1219.35 486.219,1218.78 495.701,1218.06 497.348,1217.9 505.183,1217.19 514.665,1216.17 524.147,1214.95 
  533.63,1213.53 542.96,1211.91 543.112,1211.88 552.594,1210.06 562.076,1207.97 570.185,1205.92 571.558,1205.58 581.04,1202.94 590.522,1199.94 590.539,1199.93 
  600.004,1196.64 606.99,1193.94 609.486,1192.95 618.968,1188.89 621.019,1187.95 628.45,1184.42 633.31,1181.96 637.933,1179.51 644.313,1175.97 647.415,1174.15 
  654.326,1169.98 656.897,1168.33 663.572,1164 666.379,1162.05 672.224,1158.01 675.861,1155.33 680.421,1152.02 685.343,1148.24 688.283,1146.03 694.825,1140.88 
  695.915,1140.04 703.468,1134.05 704.307,1133.37 711.051,1128.06 713.789,1125.87 718.684,1122.07 723.271,1118.5 726.439,1116.08 732.753,1111.3 734.379,1110.09 
  742.236,1104.33 742.554,1104.1 751.025,1098.11 751.718,1097.64 759.783,1092.12 761.2,1091.19 768.825,1086.14 770.682,1084.95 778.141,1080.15 780.164,1078.89 
  787.7,1074.16 789.646,1072.97 797.441,1068.17 799.128,1067.15 807.277,1062.18 808.61,1061.38 817.092,1056.19 818.092,1055.58 826.752,1050.2 827.574,1049.69 
  836.119,1044.21 837.057,1043.6 845.063,1038.22 846.539,1037.2 853.481,1032.23 856.021,1030.32 861.299,1026.24 865.503,1022.78 868.481,1020.25 874.985,1014.29 
  875.017,1014.26 881.029,1008.27 884.467,1004.52 886.484,1002.29 891.504,996.296 893.949,993.157 896.159,990.307 900.545,984.318 903.431,980.156 904.712,978.329 
  908.813,972.339 912.777,966.35 912.913,966.144 916.873,960.361 920.93,954.372 922.395,952.218 925.128,948.382 929.395,942.393 931.877,938.888 933.739,936.404 
  938.166,930.415 941.36,925.959 942.529,924.425 946.884,918.436 950.842,912.592 950.947,912.447 954.862,906.458 958.302,900.468 960.324,896.313 961.275,894.479 
  963.772,888.49 965.667,882.501 966.978,876.511 967.747,870.522 968.042,864.533 967.961,858.544 967.627,852.554 967.187,846.565 966.801,840.576 966.629,834.586 
  966.812,828.597 967.457,822.608 968.621,816.619 969.806,812.402 970.34,810.629 972.637,804.64 975.317,798.651 978.235,792.662 979.288,790.56 981.365,786.672 
  984.459,780.683 987.277,774.694 988.77,770.956 989.742,768.705 991.723,762.715 992.975,756.726 993.371,750.737 992.764,744.748 990.97,738.758 988.77,734.587 
  987.832,732.769 983.32,726.78 979.288,722.879 977.114,720.791 969.806,715.222 969.239,714.801 960.324,709.174 959.729,708.812 950.842,703.973 948.632,702.823 
  941.36,699.288 936.06,696.834 931.877,694.965 922.395,690.938 922.167,690.844 912.913,687.075 907.139,684.855 903.431,683.42 893.949,679.934 890.895,678.866 
  884.467,676.588 874.985,673.463 873.107,672.876 865.503,670.468 856.021,667.727 852.892,666.887 846.539,665.157 837.057,662.822 828.231,660.898 827.574,660.752 
  818.092,658.823 808.61,657.159 799.128,655.742 792.531,654.909 789.646,654.53 780.164,653.482 770.682,652.655 761.2,652.033 751.718,651.605 742.236,651.358 
  732.753,651.282 723.271,651.369 713.789,651.612 704.307,652.008 694.825,652.558 685.343,653.265 675.861,654.139 668.918,654.909 666.379,655.167 656.897,656.307 
  647.415,657.652 637.933,659.228 629.304,660.898 628.45,661.054 618.968,663.028 609.486,665.324 603.828,666.887 600.004,667.908 590.522,670.771 584.375,672.876 
  581.04,673.997 571.558,677.55 568.379,678.866 562.076,681.457 554.603,684.855 552.594,685.771 543.112,690.454 542.37,690.844 533.63,695.492 531.257,696.834 
  524.147,700.915 520.98,702.823 514.665,706.696 511.335,708.812 505.183,712.797 502.161,714.801 495.701,719.164 493.322,720.791 486.219,725.724 484.703,726.78 
  476.737,732.391 476.197,732.769 467.689,738.758 467.255,739.065 459.087,744.748 457.773,745.665 450.352,750.737 448.291,752.147 441.435,756.726 438.809,758.481 
  432.315,762.715 429.326,764.668 423.003,768.705 419.844,770.733 413.546,774.694 410.362,776.719 404.027,780.683 400.88,782.689 394.556,786.672 391.398,788.715 
  385.255,792.662 381.916,794.884 376.243,798.651 372.434,801.295 367.618,804.64 362.952,808.058 359.453,810.629 353.47,815.303 351.792,816.619 344.637,822.608 
  343.988,823.188 337.951,828.597 334.506,831.937 331.776,834.586 326.073,840.576 325.023,841.762 320.767,846.565 315.922,852.554 315.541,853.061 311.394,858.544 
  307.276,864.533 306.059,866.452 303.449,870.522 299.935,876.511 296.741,882.501 296.577,882.831 293.715,888.49 290.939,894.479 288.388,900.468 287.095,903.729 
  285.98,906.458 283.682,912.447 281.536,918.436 279.526,924.425 277.639,930.415 277.613,930.503 275.763,936.404 274.003,942.393 272.36,948.382 270.836,954.372 
  269.433,960.361 268.148,966.35 268.131,966.437 266.902,972.339 265.777,978.329 264.768,984.318 263.872,990.307 263.086,996.296 262.411,1002.29 261.854,1008.27 
  261.429,1014.26 261.159,1020.25 261.081,1026.24 261.241,1032.23 261.703,1038.22 262.541,1044.21 263.842,1050.2 265.698,1056.19 268.131,1062.02 268.196,1062.18 
  271.266,1068.17 275.079,1074.16 277.613,1077.54 279.554,1080.15 284.595,1086.14 
  "/>
<polyline clip-path="url(#clip463)" style="stroke:#370961; stroke-linecap:butt; stroke-linejoin:round; stroke-width:4; stroke-opacity:1; fill:none" points="
  332.699,1062.18 334.506,1064.32 337.825,1068.17 343.523,1074.16 343.988,1074.62 349.59,1080.15 353.47,1083.83 355.917,1086.14 362.276,1092.12 362.952,1092.78 
  368.43,1098.11 372.434,1102.22 374.27,1104.1 379.651,1110.09 381.916,1112.86 384.549,1116.08 388.985,1122.07 391.398,1125.65 393.048,1128.06 396.864,1134.05 
  400.601,1140.04 400.88,1140.48 404.525,1146.03 408.86,1152.02 410.362,1153.86 414.055,1158.01 419.844,1163.41 420.562,1164 429.326,1169.95 429.388,1169.98 
  438.809,1174.5 442.697,1175.97 448.291,1177.8 457.773,1180.17 467.255,1181.86 468.138,1181.96 476.737,1182.91 486.219,1183.49 495.701,1183.65 505.183,1183.4 
  514.665,1182.77 522.33,1181.96 524.147,1181.77 533.63,1180.35 543.112,1178.54 552.594,1176.34 553.921,1175.97 562.076,1173.63 571.558,1170.46 572.82,1169.98 
  581.04,1166.69 587.069,1164 590.522,1162.34 598.794,1158.01 600.004,1157.33 608.786,1152.02 609.486,1151.56 617.59,1146.03 618.968,1145.03 625.585,1140.04 
  628.45,1137.77 633.041,1134.05 637.933,1129.95 640.157,1128.06 647.09,1122.07 647.415,1121.79 654.013,1116.08 656.897,1113.61 661.023,1110.09 666.379,1105.61 
  668.204,1104.1 675.642,1098.11 675.861,1097.94 683.459,1092.12 685.343,1090.73 691.667,1086.14 694.825,1083.92 700.319,1080.15 704.307,1077.5 709.458,1074.16 
  713.789,1071.44 719.103,1068.17 723.271,1065.69 729.238,1062.18 732.753,1060.18 739.799,1056.19 742.236,1054.85 750.666,1050.2 751.718,1049.63 761.2,1044.47 
  761.678,1044.21 770.682,1039.31 772.635,1038.22 780.164,1034.04 783.324,1032.23 789.646,1028.59 793.571,1026.24 799.128,1022.86 803.249,1020.25 808.61,1016.76 
  812.278,1014.26 818.092,1010.15 820.622,1008.27 827.574,1002.86 828.284,1002.29 835.309,996.296 837.057,994.715 841.751,990.307 846.539,985.474 847.65,984.318 
  853.111,978.329 856.021,974.908 858.168,972.339 862.898,966.35 865.503,962.837 867.338,960.361 871.553,954.372 874.985,949.17 875.514,948.382 879.347,942.393 
  882.93,936.404 884.467,933.642 886.341,930.415 889.539,924.425 892.432,918.436 893.949,914.855 895.032,912.447 897.295,906.458 899.106,900.468 900.422,894.479 
  901.212,888.49 901.461,882.501 901.183,876.511 900.427,870.522 899.278,864.533 897.86,858.544 896.322,852.554 894.827,846.565 893.949,842.499 893.538,840.576 
  892.59,834.586 892.049,828.597 891.959,822.608 892.318,816.619 893.086,810.629 893.949,805.917 894.192,804.64 895.552,798.651 897.015,792.662 898.429,786.672 
  899.627,780.683 900.422,774.694 900.614,768.705 899.987,762.715 898.317,756.726 895.374,750.737 893.949,748.748 890.979,744.748 884.929,738.758 884.467,738.39 
  877.177,732.769 874.985,731.355 867.685,726.78 865.503,725.583 856.531,720.791 856.021,720.544 846.539,716.036 843.872,714.801 837.057,711.883 829.593,708.812 
  827.574,708.032 818.092,704.494 813.343,702.823 808.61,701.242 799.128,698.293 793.997,696.834 789.646,695.644 780.164,693.299 770.682,691.271 768.405,690.844 
  761.2,689.521 751.718,688.065 742.236,686.9 732.753,686.013 723.271,685.393 713.789,685.029 704.307,684.914 694.825,685.044 685.343,685.418 675.861,686.042 
  666.379,686.924 656.897,688.079 647.415,689.526 640.291,690.844 637.933,691.272 628.45,693.293 618.968,695.675 614.936,696.834 609.486,698.401 600.004,701.507 
  596.409,702.823 590.522,705.013 581.387,708.812 581.04,708.96 571.558,713.334 568.62,714.801 562.076,718.185 557.346,720.791 552.594,723.513 547.155,726.78 
  543.112,729.31 537.76,732.769 533.63,735.548 528.944,738.758 524.147,742.168 520.541,744.748 514.665,749.084 512.416,750.737 505.183,756.187 504.459,756.726 
  496.546,762.715 495.701,763.365 488.6,768.705 486.219,770.516 480.588,774.694 476.737,777.578 472.478,780.683 467.255,784.528 464.266,786.672 457.773,791.386 
  455.974,792.662 448.291,798.202 447.657,798.651 439.373,804.64 438.809,805.059 431.211,810.629 429.326,812.06 423.276,816.619 419.844,819.317 415.645,822.608 
  410.362,826.961 408.377,828.597 401.495,834.586 400.88,835.15 394.979,840.576 391.398,844.087 388.879,846.565 383.164,852.554 381.916,853.941 377.787,858.544 
  372.79,864.533 372.434,864.982 368.066,870.522 363.693,876.511 362.952,877.585 359.567,882.501 355.737,888.49 353.47,892.289 352.162,894.479 348.794,900.468 
  345.669,906.458 343.988,909.878 342.718,912.447 339.9,918.436 337.242,924.425 334.72,930.415 334.506,930.937 332.23,936.404 329.838,942.393 327.549,948.382 
  325.37,954.372 325.023,955.361 323.238,960.361 321.24,966.35 319.413,972.339 317.784,978.329 316.378,984.318 315.541,988.644 315.209,990.307 314.296,996.296 
  313.699,1002.29 313.448,1008.27 313.572,1014.26 314.109,1020.25 315.1,1026.24 315.541,1028.05 316.557,1032.23 318.54,1038.22 321.118,1044.21 324.346,1050.2 
  325.023,1051.27 328.181,1056.19 332.699,1062.18 
  "/>
<polyline clip-path="url(#clip463)" style="stroke:#570f6d; stroke-linecap:butt; stroke-linejoin:round; stroke-width:4; stroke-opacity:1; fill:none" points="
  378.966,1044.21 381.916,1047.58 384.309,1050.2 390.427,1056.19 391.398,1057.07 397.265,1062.18 400.88,1065.16 404.688,1068.17 410.362,1072.55 412.533,1074.16 
  419.844,1079.59 420.624,1080.15 428.809,1086.14 429.326,1086.53 436.995,1092.12 438.809,1093.54 445.111,1098.11 448.291,1100.6 453.203,1104.1 457.773,1107.6 
  461.448,1110.09 467.255,1114.25 470.265,1116.08 476.737,1120.13 480.625,1122.07 486.219,1124.84 495.157,1128.06 495.701,1128.25 505.183,1130.35 514.665,1131.27 
  524.147,1131.1 533.63,1129.93 541.983,1128.06 543.112,1127.81 552.594,1124.76 559.123,1122.07 562.076,1120.87 571.558,1116.19 571.739,1116.08 581.04,1110.85 
  582.236,1110.09 590.522,1104.99 591.834,1104.1 600.004,1098.76 600.917,1098.11 609.486,1092.29 609.715,1092.12 618.358,1086.14 618.968,1085.73 626.986,1080.15 
  628.45,1079.16 635.702,1074.16 637.933,1072.67 644.589,1068.17 647.415,1066.32 653.73,1062.18 656.897,1060.17 663.213,1056.19 666.379,1054.26 673.117,1050.2 
  675.861,1048.6 683.503,1044.21 685.343,1043.19 694.388,1038.22 694.825,1037.99 704.307,1032.99 705.757,1032.23 713.789,1028.13 717.464,1026.24 723.271,1023.32 
  729.297,1020.25 732.753,1018.52 741.013,1014.26 742.236,1013.64 751.718,1008.63 752.368,1008.27 761.2,1003.41 763.152,1002.29 770.682,997.868 773.23,996.296 
  780.164,991.894 782.536,990.307 789.646,985.351 791.054,984.318 798.8,978.329 799.128,978.061 805.811,972.339 808.61,969.749 812.142,966.35 817.828,960.361 
  818.092,960.058 822.929,954.372 827.451,948.382 827.574,948.2 831.46,942.393 834.926,936.404 837.057,932.049 837.869,930.415 840.301,924.425 842.173,918.436 
  843.467,912.447 844.16,906.458 844.231,900.468 843.664,894.479 842.464,888.49 840.663,882.501 838.333,876.511 837.057,873.665 835.605,870.522 832.636,864.533 
  829.605,858.544 827.574,854.306 826.715,852.554 824.149,846.565 822.041,840.576 820.469,834.586 819.445,828.597 818.922,822.608 818.802,816.619 818.958,810.629 
  819.239,804.64 819.485,798.651 819.528,792.662 819.2,786.672 818.33,780.683 818.092,779.767 816.766,774.694 814.348,768.705 810.917,762.715 808.61,759.669 
  806.346,756.726 800.505,750.737 799.128,749.575 793.239,744.748 789.646,742.273 784.301,738.758 780.164,736.415 773.265,732.769 770.682,731.568 761.2,727.548 
  759.173,726.78 751.718,724.244 742.236,721.499 739.312,720.791 732.753,719.331 723.271,717.663 713.789,716.449 704.307,715.676 694.825,715.33 685.343,715.403 
  675.861,715.89 666.379,716.788 656.897,718.1 647.415,719.835 643.209,720.791 637.933,722.041 628.45,724.728 622.24,726.78 618.968,727.924 609.486,731.679 
  607.007,732.769 600.004,736.057 594.727,738.758 590.522,741.069 584.247,744.748 581.04,746.767 575.017,750.737 571.558,753.176 566.665,756.726 562.076,760.26 
  558.931,762.715 552.594,767.905 551.619,768.705 544.588,774.694 543.112,775.987 537.691,780.683 533.63,784.243 530.813,786.672 524.147,792.427 523.871,792.662 
  516.814,798.651 514.665,800.454 509.596,804.64 505.183,808.241 502.22,810.629 495.701,815.843 494.724,816.619 487.176,822.608 486.219,823.367 479.655,828.597 
  476.737,830.94 472.239,834.586 467.255,838.693 465.002,840.576 458.005,846.565 457.773,846.767 451.284,852.554 448.291,855.311 444.851,858.544 438.809,864.445 
  438.72,864.533 432.872,870.522 429.326,874.318 427.315,876.511 422.035,882.501 419.844,885.093 417.021,888.49 412.277,894.479 410.362,897.007 407.778,900.468 
  403.526,906.458 400.88,910.387 399.507,912.447 395.685,918.436 392.082,924.425 391.398,925.605 388.622,930.415 385.333,936.404 382.211,942.393 381.916,942.98 
  379.198,948.382 376.351,954.372 373.687,960.361 372.434,963.397 371.209,966.35 368.96,972.339 367.002,978.329 365.381,984.318 364.146,990.307 363.348,996.296 
  363.042,1002.29 363.28,1008.27 364.116,1014.26 365.602,1020.25 367.787,1026.24 370.719,1032.23 372.434,1035.05 374.439,1038.22 378.966,1044.21 
  "/>
<polyline clip-path="url(#clip463)" style="stroke:#6e186e; stroke-linecap:butt; stroke-linejoin:round; stroke-width:4; stroke-opacity:1; fill:none" points="
  407.98,1026.24 410.362,1029.56 412.403,1032.23 417.879,1038.22 419.844,1040.1 424.481,1044.21 429.326,1048.09 432.191,1050.2 438.809,1054.77 441.063,1056.19 
  448.291,1060.59 451.177,1062.18 457.773,1065.78 462.696,1068.17 467.255,1070.41 476.008,1074.16 476.737,1074.48 486.219,1078.01 493.468,1080.15 495.701,1080.84 
  505.183,1082.97 514.665,1084.27 524.147,1084.72 533.63,1084.3 543.112,1083.02 552.594,1080.9 555.045,1080.15 562.076,1078.06 571.558,1074.52 572.376,1074.16 
  581.04,1070.43 585.655,1068.17 590.522,1065.85 597.479,1062.18 600.004,1060.88 608.501,1056.19 609.486,1055.66 618.968,1050.29 619.13,1050.2 628.45,1044.9 
  629.644,1044.21 637.933,1039.56 640.297,1038.22 647.415,1034.33 651.246,1032.23 656.897,1029.25 662.598,1026.24 666.379,1024.32 674.392,1020.25 675.861,1019.53 
  685.343,1014.88 686.587,1014.26 694.825,1010.31 699.036,1008.27 704.307,1005.77 711.504,1002.29 713.789,1001.19 723.271,996.52 723.713,996.296 732.753,991.694 
  735.369,990.307 742.236,986.602 746.272,984.318 751.718,981.138 756.284,978.329 761.2,975.158 765.343,972.339 770.682,968.46 773.44,966.35 780.164,960.743 
  780.601,960.361 786.828,954.372 789.646,951.281 792.201,948.382 796.732,942.393 799.128,938.562 800.456,936.404 803.369,930.415 805.486,924.425 806.795,918.436 
  807.278,912.447 806.917,906.458 805.699,900.468 803.63,894.479 800.747,888.49 799.128,885.743 797.104,882.501 792.832,876.511 789.646,872.382 788.119,870.522 
  783.171,864.533 780.164,860.763 778.281,858.544 773.694,852.554 770.682,847.982 769.691,846.565 766.372,840.576 763.919,834.586 762.303,828.597 761.416,822.608 
  761.2,818.625 761.085,816.619 761.115,810.629 761.2,807.622 761.279,804.64 761.341,798.651 761.2,795.362 761.077,792.662 760.249,786.672 758.657,780.683 
  756.108,774.694 752.407,768.705 751.718,767.877 747.032,762.715 742.236,758.662 739.653,756.726 732.753,752.61 729.033,750.737 723.271,748.353 713.789,745.261 
  711.639,744.748 704.307,743.262 694.825,742.076 685.343,741.617 675.861,741.862 666.379,742.785 656.897,744.359 655.236,744.748 647.415,746.777 637.933,749.878 
  635.743,750.737 628.45,753.928 622.843,756.726 618.968,758.886 612.741,762.715 609.486,764.935 604.334,768.705 600.004,772.163 596.982,774.694 590.522,780.459 
  590.278,780.683 584.13,786.672 581.04,789.719 578.094,792.662 572.002,798.651 571.558,799.08 565.828,804.64 562.076,808.054 559.257,810.629 552.594,816.305 
  552.227,816.619 544.818,822.608 543.112,823.891 536.98,828.597 533.63,831.014 528.812,834.586 524.147,837.884 520.47,840.576 514.665,844.685 512.115,846.565 
  505.183,851.575 503.887,852.554 495.899,858.544 495.701,858.691 488.255,864.533 486.219,866.142 480.94,870.522 476.737,874.07 473.971,876.511 467.358,882.501 
  467.255,882.595 461.125,888.49 457.773,891.838 455.221,894.479 449.656,900.468 448.291,901.995 444.416,906.458 439.487,912.447 438.809,913.307 434.853,918.436 
  430.501,924.425 429.326,926.123 426.405,930.415 422.559,936.404 419.844,940.887 418.942,942.393 415.553,948.382 412.395,954.372 410.362,958.538 409.477,960.361 
  406.837,966.35 404.508,972.339 402.536,978.329 400.981,984.318 400.88,984.889 399.926,990.307 399.432,996.296 399.57,1002.29 400.412,1008.27 400.88,1010.04 
  402.053,1014.26 404.563,1020.25 407.98,1026.24 
  "/>
<polyline clip-path="url(#clip463)" style="stroke:#85206a; stroke-linecap:butt; stroke-linejoin:round; stroke-width:4; stroke-opacity:1; fill:none" points="
  447.531,1020.25 448.291,1021.09 453.565,1026.24 457.773,1029.68 461.361,1032.23 467.255,1035.92 471.583,1038.22 476.737,1040.73 485.455,1044.21 486.219,1044.5 
  495.701,1047.32 505.183,1049.35 511.806,1050.2 514.665,1050.56 524.147,1050.98 533.63,1050.63 537.225,1050.2 543.112,1049.51 552.594,1047.67 562.076,1045.16 
  564.953,1044.21 571.558,1042.06 581.04,1038.46 581.602,1038.22 590.522,1034.49 595.472,1032.23 600.004,1030.23 608.508,1026.24 609.486,1025.8 618.968,1021.31 
  621.133,1020.25 628.45,1016.82 633.792,1014.26 637.933,1012.36 646.697,1008.27 647.415,1007.95 656.897,1003.62 659.812,1002.29 666.379,999.34 673.105,996.296 
  675.861,995.068 685.343,990.778 686.364,990.307 694.825,986.41 699.251,984.318 704.307,981.896 711.506,978.329 713.789,977.163 722.849,972.339 723.271,972.103 
  732.753,966.542 733.064,966.35 742.077,960.361 742.236,960.244 749.831,954.372 751.718,952.704 756.377,948.382 761.2,943.064 761.783,942.393 765.963,936.404 
  769.052,930.415 770.682,925.444 771.009,924.425 771.795,918.436 771.438,912.447 770.682,909.423 769.889,906.458 767.101,900.468 763.137,894.479 761.2,892.124 
  757.932,888.49 751.718,882.564 751.644,882.501 744.21,876.511 742.236,874.969 735.907,870.522 732.753,868.257 726.936,864.533 723.271,862.019 717.516,858.544 
  713.789,856.023 707.855,852.554 704.307,850.134 698.08,846.565 694.825,844.305 688.142,840.576 685.343,838.623 677.559,834.586 675.861,833.465 666.379,829.425 
  662.381,828.597 656.897,827.218 647.415,827.073 637.933,828.59 637.908,828.597 628.45,830.795 618.968,833.764 616.883,834.586 609.486,836.944 600.004,840.494 
  599.816,840.576 590.522,844.058 584.602,846.565 581.04,847.903 571.558,851.939 570.263,852.554 562.076,856.149 557.172,858.544 552.594,860.66 545.045,864.533 
  543.112,865.492 533.935,870.522 533.63,870.687 524.147,876.3 523.819,876.511 514.665,882.421 514.551,882.501 506.07,888.49 505.183,889.132 498.28,894.479 
  495.701,896.548 491.097,900.468 486.219,904.809 484.459,906.458 478.359,912.447 476.737,914.129 472.751,918.436 467.556,924.425 467.255,924.796 462.824,930.415 
  458.438,936.404 457.773,937.385 454.455,942.393 450.808,948.382 448.291,952.915 447.495,954.372 444.577,960.361 442.018,966.35 439.858,972.339 438.809,976.067 
  438.181,978.329 437.073,984.318 436.586,990.307 436.82,996.296 437.879,1002.29 438.809,1005.13 439.933,1008.27 443.144,1014.26 447.531,1020.25 
  "/>
<polyline clip-path="url(#clip463)" style="stroke:#a02a62; stroke-linecap:butt; stroke-linejoin:round; stroke-width:4; stroke-opacity:1; fill:none" points="
  493.209,990.307 495.701,994.045 497.628,996.296 505.095,1002.29 505.183,1002.34 514.665,1006.5 521.573,1008.27 524.147,1008.83 533.63,1009.74 543.112,1009.65 
  552.594,1008.74 555.291,1008.27 562.076,1007.12 571.558,1004.96 581.04,1002.4 581.385,1002.29 590.522,999.46 600.004,996.323 600.078,996.296 609.486,992.962 
  616.727,990.307 618.968,989.497 628.45,985.905 632.521,984.318 637.933,982.21 647.415,978.444 647.694,978.329 656.897,974.475 661.893,972.339 666.379,970.351 
  675.164,966.35 675.861,966.013 685.343,961.239 687.02,960.361 694.825,955.878 697.332,954.372 704.307,949.597 705.994,948.382 712.923,942.393 713.789,941.42 
  718.018,936.404 721.438,930.415 723.093,924.425 722.841,918.436 720.573,912.447 716.227,906.458 713.789,904.124 709.377,900.468 704.307,897.145 699.505,894.479 
  694.825,892.225 685.44,888.49 685.343,888.454 675.861,885.59 666.379,883.385 661.149,882.501 656.897,881.793 647.415,880.775 637.933,880.305 628.45,880.365 
  618.968,880.945 609.486,882.04 606.773,882.501 600.004,883.643 590.522,885.758 581.04,888.396 580.759,888.49 571.558,891.606 564.298,894.479 562.076,895.392 
  552.594,899.826 551.368,900.468 543.112,905.018 540.745,906.458 533.63,911.065 531.668,912.447 524.147,918.148 523.794,918.436 517.041,924.425 514.665,926.749 
  511.127,930.415 505.932,936.404 505.183,937.391 501.56,942.393 497.795,948.382 495.701,952.363 494.683,954.372 492.32,960.361 490.626,966.35 489.698,972.339 
  489.678,978.329 490.763,984.318 493.209,990.307 
  "/>
<polyline clip-path="url(#clip463)" style="stroke:#b73456; stroke-linecap:butt; stroke-linejoin:round; stroke-width:4; stroke-opacity:1; fill:none" points="
  570.531,948.382 571.558,950.495 575.368,954.372 581.04,956.3 590.522,956.942 600.004,956.054 608.986,954.372 609.486,954.258 618.968,951.173 626.596,948.382 
  628.45,947.5 637.933,942.429 637.993,942.393 644.396,936.404 646.666,930.415 642.044,924.425 637.933,922.619 628.45,920.598 618.968,920.351 609.486,921.427 
  600.004,923.529 597.24,924.425 590.522,927.223 584.25,930.415 581.04,932.654 576.43,936.404 571.58,942.393 571.558,942.505 570.531,948.382 
  "/>
<polyline clip-path="url(#clip463)" style="stroke:#1c0c43; stroke-linecap:butt; stroke-linejoin:round; stroke-width:4; stroke-opacity:1; fill:none" points="
  1082.8,726.78 1083.59,728.235 1085.6,732.769 1088.82,738.758 1092.69,744.748 1093.07,745.292 1096.25,750.737 1100.2,756.726 1102.56,760.012 1104.19,762.715 
  1108.01,768.705 1112.04,774.502 1112.15,774.694 1115.8,780.683 1119.75,786.672 1121.52,789.232 1123.61,792.662 1127.5,798.651 1131,803.594 1131.67,804.64 
  1135.7,810.629 1140.22,816.619 1140.48,816.953 1144.6,822.608 1149.49,828.597 1149.97,829.157 1154.28,834.586 1159.45,840.522 1159.49,840.576 1164.47,846.565 
  1168.93,851.637 1169.69,852.554 1174.61,858.544 1178.41,863.138 1179.5,864.533 1183.99,870.522 1187.89,875.876 1188.33,876.511 1192.18,882.501 1195.87,888.49 
  1197.38,891.06 1199.29,894.479 1202.56,900.468 1205.91,906.458 1206.86,908.086 1209.35,912.447 1213.12,918.436 1216.34,922.929 1217.42,924.425 1222.4,930.415 
  1225.82,933.925 1228.34,936.404 1235.3,942.23 1235.51,942.393 1244.34,948.382 1244.79,948.649 1254.27,953.774 1255.53,954.372 1263.75,957.92 1270.45,960.361 
  1273.23,961.307 1282.71,964.017 1292.2,966.158 1293.3,966.35 1301.68,967.779 1311.16,968.915 1320.64,969.592 1330.13,969.826 1339.61,969.626 1349.09,968.991 
  1358.57,967.915 1368.05,966.381 1368.2,966.35 1377.54,964.413 1387.02,961.958 1392.2,960.361 1396.5,959.007 1405.98,955.548 1408.84,954.372 1415.46,951.567 
  1422.2,948.382 1424.95,947.044 1433.69,942.393 1434.43,941.99 1443.91,936.427 1443.95,936.404 1453.36,930.415 1453.39,930.392 1462.16,924.425 1462.87,923.931 
  1470.5,918.436 1472.36,917.068 1478.44,912.447 1481.84,909.796 1486.01,906.458 1491.32,902.046 1493.18,900.468 1499.96,894.479 1500.8,893.703 1506.37,888.49 
  1510.29,884.559 1512.31,882.501 1517.82,876.511 1519.77,874.236 1522.92,870.522 1527.59,864.533 1529.25,862.232 1531.92,858.544 1535.91,852.554 1538.73,847.906 
  1539.56,846.565 1543.08,840.576 1546.33,834.586 1548.21,830.912 1549.45,828.597 1552.55,822.608 1555.51,816.619 1557.7,812.107 1558.45,810.629 1561.53,804.64 
  1564.56,798.651 1567.18,793.417 1567.58,792.662 1570.84,786.672 1574.04,780.683 1576.66,775.661 1577.2,774.694 1580.54,768.705 1583.71,762.715 1586.14,757.872 
  1586.76,756.726 1589.84,750.737 1592.65,744.748 1595.16,738.758 1595.62,737.541 1597.6,732.769 1599.77,726.78 1601.62,720.791 1603.17,714.801 1604.43,708.812 
  1605.11,704.831 1605.48,702.823 1606.34,696.834 1606.94,690.844 1607.29,684.855 1607.4,678.866 1607.29,672.876 1606.95,666.887 1606.4,660.898 1605.64,654.909 
  1605.11,651.571 1604.73,648.919 1603.71,642.93 1602.54,636.941 1601.23,630.952 1599.8,624.962 1598.28,618.973 1596.69,612.984 1595.62,609.038 1595.12,606.995 
  1593.64,601.005 1592.15,595.016 1590.62,589.027 1589.05,583.038 1587.4,577.048 1586.14,572.798 1585.66,571.059 1583.89,565.07 1581.87,559.081 1579.56,553.091 
  1576.87,547.102 1576.66,546.672 1574.03,541.113 1570.77,535.124 1567.18,529.357 1567.04,529.134 1563.16,523.145 1558.79,517.156 1557.7,515.745 1554.24,511.166 
  1549.34,505.177 1548.21,503.851 1544.34,499.188 1539.05,493.199 1538.73,492.836 1533.81,487.209 1529.25,482.196 1528.37,481.22 1522.99,475.231 1519.77,471.698 
  1517.54,469.242 1512.09,463.252 1510.29,461.264 1506.66,457.263 1501.13,451.274 1500.8,450.911 1495.64,445.285 1491.32,440.704 1489.97,439.295 1484.14,433.306 
  1481.84,431.006 1478.02,427.317 1472.36,422.128 1471.44,421.328 1464.27,415.338 1462.87,414.241 1456.21,409.349 1453.39,407.414 1446.92,403.36 1443.91,401.59 
  1435.87,397.371 1434.43,396.654 1424.95,392.473 1422.08,391.381 1415.46,388.943 1405.98,386.014 1403.58,385.392 1396.5,383.569 1387.02,381.608 1377.54,380.107 
  1371.34,379.403 1368.05,379.019 1358.57,378.327 1349.09,378.059 1339.61,378.219 1330.13,378.819 1324.88,379.403 1320.64,379.86 1311.16,381.348 1301.68,383.353 
  1294.12,385.392 1292.2,385.913 1282.71,389.029 1276.76,391.381 1273.23,392.824 1263.75,397.369 1263.75,397.371 1254.27,402.795 1253.38,403.36 1244.79,409.303 
  1244.72,409.349 1237.34,415.338 1235.3,417.167 1230.91,421.328 1225.82,426.685 1225.24,427.317 1220.11,433.306 1216.34,438.125 1215.43,439.295 1211.01,445.285 
  1206.87,451.274 1206.86,451.297 1202.74,457.263 1198.75,463.252 1197.38,465.332 1194.72,469.242 1190.71,475.231 1187.89,479.498 1186.71,481.22 1182.62,487.209 
  1178.68,493.199 1178.41,493.603 1174.56,499.188 1170.61,505.177 1168.93,507.792 1166.62,511.166 1162.66,517.156 1159.45,522.21 1158.81,523.145 1154.78,529.134 
  1150.89,535.124 1149.97,536.547 1146.79,541.113 1142.7,547.102 1140.48,550.377 1138.5,553.091 1134.18,559.081 1131,563.589 1129.88,565.07 1125.38,571.059 
  1121.52,576.469 1121.07,577.048 1116.58,583.038 1112.42,589.027 1112.04,589.609 1108.17,595.016 1104.29,601.005 1102.56,603.957 1100.59,606.995 1097.11,612.984 
  1094.06,618.973 1093.07,621.148 1091.15,624.962 1088.48,630.952 1086.18,636.941 1084.2,642.93 1083.59,645.013 1082.28,648.919 1080.55,654.909 1079.07,660.898 
  1077.83,666.887 1076.83,672.876 1076.07,678.866 1075.57,684.855 1075.35,690.844 1075.45,696.834 1075.91,702.823 1076.79,708.812 1078.18,714.801 1080.14,720.791 
  1082.8,726.78 
  "/>
<polyline clip-path="url(#clip463)" style="stroke:#370961; stroke-linecap:butt; stroke-linejoin:round; stroke-width:4; stroke-opacity:1; fill:none" points="
  1120.98,708.812 1121.52,710.376 1122.89,714.801 1125.11,720.791 1127.71,726.78 1130.7,732.769 1131,733.338 1133.65,738.758 1136.87,744.748 1140.39,750.737 
  1140.48,750.89 1143.74,756.726 1147.31,762.715 1149.97,766.937 1151,768.705 1154.6,774.694 1158.44,780.683 1159.45,782.213 1162.22,786.672 1166.16,792.662 
  1168.93,796.634 1170.27,798.651 1174.45,804.64 1178.41,809.876 1178.96,810.629 1183.51,816.619 1187.89,821.915 1188.45,822.608 1193.46,828.597 1197.38,832.999 
  1198.77,834.586 1204.17,840.576 1206.86,843.487 1209.69,846.565 1215.27,852.554 1216.34,853.733 1220.74,858.544 1225.82,864.154 1226.17,864.533 1231.36,870.522 
  1235.3,875.227 1236.41,876.511 1241.24,882.501 1244.79,887.072 1245.94,888.49 1250.59,894.479 1254.27,899.2 1255.33,900.468 1260.42,906.458 1263.75,910.106 
  1266.12,912.447 1272.84,918.436 1273.23,918.752 1281.45,924.425 1282.71,925.194 1292.2,929.946 1293.39,930.415 1301.68,933.338 1311.16,935.728 1315.34,936.404 
  1320.64,937.197 1330.13,937.875 1339.61,937.844 1349.09,937.143 1354.3,936.404 1358.57,935.786 1368.05,933.789 1377.54,931.188 1379.85,930.415 1387.02,927.982 
  1395.94,924.425 1396.5,924.201 1405.98,919.892 1408.86,918.436 1415.46,915.097 1420.25,912.447 1424.95,909.861 1430.65,906.458 1434.43,904.222 1440.33,900.468 
  1443.91,898.197 1449.4,894.479 1453.39,891.765 1457.92,888.49 1462.87,884.855 1465.9,882.501 1472.36,877.338 1473.34,876.511 1480.23,870.522 1481.84,869.066 
  1486.61,864.533 1491.32,859.752 1492.47,858.544 1497.88,852.554 1500.8,849.078 1502.86,846.565 1507.48,840.576 1510.29,836.661 1511.76,834.586 1515.81,828.597 
  1519.57,822.608 1519.77,822.285 1523.28,816.619 1526.81,810.629 1529.25,806.348 1530.25,804.64 1533.73,798.651 1537.12,792.662 1538.73,789.794 1540.56,786.672 
  1544.04,780.683 1547.43,774.694 1548.21,773.306 1550.93,768.705 1554.35,762.715 1557.6,756.726 1557.7,756.546 1560.92,750.737 1563.99,744.748 1566.79,738.758 
  1567.18,737.861 1569.51,732.769 1571.95,726.78 1574.06,720.791 1575.86,714.801 1576.66,711.667 1577.44,708.812 1578.78,702.823 1579.82,696.834 1580.57,690.844 
  1581.05,684.855 1581.26,678.866 1581.22,672.876 1580.93,666.887 1580.4,660.898 1579.63,654.909 1578.63,648.919 1577.41,642.93 1576.66,639.732 1576.05,636.941 
  1574.6,630.952 1573,624.962 1571.27,618.973 1569.43,612.984 1567.52,606.995 1567.18,605.928 1565.68,601.005 1563.82,595.016 1561.9,589.027 1559.9,583.038 
  1557.79,577.048 1557.7,576.78 1555.7,571.059 1553.41,565.07 1550.87,559.081 1548.21,553.515 1548.02,553.091 1544.99,547.102 1541.56,541.113 1538.73,536.707 
  1537.73,535.124 1533.62,529.134 1529.25,523.435 1529.03,523.145 1524.21,517.156 1519.77,512.078 1518.97,511.166 1513.52,505.177 1510.29,501.798 1507.77,499.188 
  1501.8,493.199 1500.8,492.205 1495.7,487.209 1491.32,483.018 1489.4,481.22 1482.98,475.231 1481.84,474.156 1476.44,469.242 1472.36,465.53 1469.75,463.252 
  1462.87,457.264 1462.87,457.263 1455.74,451.274 1453.39,449.315 1448.24,445.285 1443.91,441.939 1440.21,439.295 1434.43,435.245 1431.38,433.306 1424.95,429.315 
  1421.32,427.317 1415.46,424.19 1409.26,421.328 1405.98,419.861 1396.5,416.285 1393.43,415.338 1387.02,413.413 1377.54,411.206 1368.05,409.628 1365.36,409.349 
  1358.57,408.654 1349.09,408.279 1339.61,408.506 1330.17,409.349 1330.13,409.353 1320.64,410.861 1311.16,413.075 1303.91,415.338 1301.68,416.07 1292.2,419.966 
  1289.45,421.328 1282.71,424.897 1278.81,427.317 1273.23,431.034 1270.22,433.306 1263.75,438.56 1262.93,439.295 1256.57,445.285 1254.27,447.574 1250.79,451.274 
  1245.42,457.263 1244.79,457.976 1240.33,463.252 1235.44,469.242 1235.3,469.414 1230.68,475.231 1226.07,481.22 1225.82,481.543 1221.52,487.209 1217.14,493.199 
  1216.34,494.317 1212.83,499.188 1208.69,505.177 1206.86,507.937 1204.66,511.166 1200.75,517.156 1197.38,522.569 1197,523.145 1193.21,529.134 1189.55,535.124 
  1187.89,537.871 1185.85,541.113 1182.09,547.102 1178.41,553.008 1178.36,553.091 1174.37,559.081 1170.41,565.07 1168.93,567.286 1166.29,571.059 1162.14,577.048 
  1159.45,580.996 1157.99,583.038 1153.79,589.027 1149.97,594.796 1149.81,595.016 1145.75,601.005 1142.01,606.995 1140.48,609.593 1138.39,612.984 1134.98,618.973 
  1131.92,624.962 1131,626.925 1129,630.952 1126.35,636.941 1124.05,642.93 1122.1,648.919 1121.52,651.013 1120.35,654.909 1118.89,660.898 1117.8,666.887 
  1117.09,672.876 1116.74,678.866 1116.78,684.855 1117.21,690.844 1118.04,696.834 1119.3,702.823 1120.98,708.812 
  "/>
<polyline clip-path="url(#clip463)" style="stroke:#570f6d; stroke-linecap:butt; stroke-linejoin:round; stroke-width:4; stroke-opacity:1; fill:none" points="
  1148.75,702.823 1149.97,707.032 1150.44,708.812 1152.4,714.801 1154.73,720.791 1157.44,726.78 1159.45,730.756 1160.4,732.769 1163.5,738.758 1166.89,744.748 
  1168.93,748.115 1170.44,750.737 1174.07,756.726 1177.94,762.715 1178.41,763.426 1181.78,768.705 1185.82,774.694 1187.89,777.649 1189.97,780.683 1194.22,786.672 
  1197.38,790.879 1198.69,792.662 1203.28,798.651 1206.86,803.038 1208.16,804.64 1213.23,810.629 1216.34,814.091 1218.63,816.619 1224.32,822.608 1225.82,824.134 
  1230.31,828.597 1235.3,833.357 1236.64,834.586 1243.25,840.576 1244.79,841.956 1250.16,846.565 1254.27,850.083 1257.34,852.554 1263.75,857.769 1264.78,858.544 
  1272.52,864.533 1273.23,865.108 1280.68,870.522 1282.71,872.056 1289.45,876.511 1292.2,878.4 1299.27,882.501 1301.68,883.948 1311.15,888.49 1311.16,888.497 
  1320.64,892.072 1330.13,894.442 1330.38,894.479 1339.61,895.843 1349.09,896.254 1358.57,895.78 1368.05,894.504 1368.17,894.479 1377.54,892.597 1387.02,890.017 
  1391.49,888.49 1396.5,886.873 1405.98,883.171 1407.46,882.501 1415.46,878.992 1420.38,876.511 1424.95,874.254 1431.59,870.522 1434.43,868.938 1441.46,864.533 
  1443.91,862.98 1450.23,858.544 1453.39,856.262 1458.09,852.554 1462.87,848.608 1465.17,846.565 1471.57,840.576 1472.36,839.802 1477.39,834.586 1481.84,829.611 
  1482.71,828.597 1487.65,822.608 1491.32,817.828 1492.23,816.619 1496.59,810.629 1500.7,804.64 1500.8,804.491 1504.76,798.651 1508.65,792.662 1510.29,790.119 
  1512.52,786.672 1516.36,780.683 1519.77,775.218 1520.1,774.694 1523.92,768.705 1527.6,762.715 1529.25,759.972 1531.25,756.726 1534.79,750.737 1538.1,744.748 
  1538.73,743.537 1541.32,738.758 1544.28,732.769 1546.93,726.78 1548.21,723.511 1549.33,720.791 1551.49,714.801 1553.31,708.812 1554.8,702.823 1555.97,696.834 
  1556.83,690.844 1557.4,684.855 1557.68,678.866 1557.68,672.876 1557.41,666.887 1556.87,660.898 1556.07,654.909 1555.03,648.919 1553.74,642.93 1552.22,636.941 
  1550.49,630.952 1548.56,624.962 1548.21,623.936 1546.59,618.973 1544.51,612.984 1542.31,606.995 1540.02,601.005 1538.73,597.718 1537.7,595.016 1535.37,589.027 
  1532.93,583.038 1530.37,577.048 1529.25,574.55 1527.71,571.059 1524.89,565.07 1521.79,559.081 1519.77,555.483 1518.42,553.091 1514.76,547.102 1510.67,541.113 
  1510.29,540.592 1506.24,535.124 1501.34,529.134 1500.8,528.52 1496.05,523.145 1491.32,518.194 1490.3,517.156 1484.16,511.166 1481.84,508.999 1477.59,505.177 
  1472.36,500.618 1470.63,499.188 1463.29,493.199 1462.87,492.859 1455.52,487.209 1453.39,485.571 1447.32,481.22 1443.91,478.755 1438.61,475.231 1434.43,472.4 
  1429.28,469.242 1424.95,466.532 1419.06,463.252 1415.46,461.203 1407.52,457.263 1405.98,456.482 1396.5,452.394 1393.31,451.274 1387.02,449.013 1377.54,446.39 
  1371.83,445.285 1368.05,444.538 1358.57,443.475 1349.09,443.242 1339.61,443.872 1330.89,445.285 1330.13,445.41 1320.64,447.893 1311.55,451.274 1311.16,451.422 
  1301.68,456.002 1299.55,457.263 1292.2,461.687 1289.98,463.252 1282.71,468.468 1281.76,469.242 1274.48,475.231 1273.23,476.271 1267.84,481.22 1263.75,485.078 
  1261.65,487.209 1255.91,493.199 1254.27,494.961 1250.54,499.188 1245.52,505.177 1244.79,506.086 1240.81,511.166 1236.41,517.156 1235.3,518.726 1232.23,523.145 
  1228.26,529.134 1225.82,532.957 1224.43,535.124 1220.65,541.113 1216.95,547.102 1216.34,548.067 1213.12,553.091 1209.26,559.081 1206.86,562.716 1205.27,565.07 
  1201.11,571.059 1197.38,576.39 1196.9,577.048 1192.5,583.038 1188.16,589.027 1187.89,589.387 1183.7,595.016 1179.4,601.005 1178.41,602.421 1175.14,606.995 
  1171.1,612.984 1168.93,616.41 1167.26,618.973 1163.62,624.962 1160.35,630.952 1159.45,632.771 1157.29,636.941 1154.55,642.93 1152.21,648.919 1150.27,654.909 
  1149.97,656.056 1148.6,660.898 1147.34,666.887 1146.5,672.876 1146.09,678.866 1146.11,684.855 1146.56,690.844 1147.44,696.834 1148.75,702.823 
  "/>
<polyline clip-path="url(#clip463)" style="stroke:#6e186e; stroke-linecap:butt; stroke-linejoin:round; stroke-width:4; stroke-opacity:1; fill:none" points="
  1168.09,708.812 1168.93,711.186 1170.14,714.801 1172.52,720.791 1175.27,726.78 1178.39,732.769 1178.41,732.813 1181.61,738.758 1185.14,744.748 1187.89,749.097 
  1188.9,750.737 1192.76,756.726 1196.88,762.715 1197.38,763.421 1201.05,768.705 1205.44,774.694 1206.86,776.58 1209.95,780.683 1214.67,786.672 1216.34,788.728 
  1219.57,792.662 1224.76,798.651 1225.82,799.842 1230.2,804.64 1235.3,809.915 1236.02,810.629 1242.2,816.619 1244.79,819.023 1248.83,822.608 1254.27,827.242 
  1255.96,828.597 1263.62,834.586 1263.75,834.686 1271.95,840.576 1273.23,841.49 1281.06,846.565 1282.71,847.647 1291.18,852.554 1292.2,853.158 1301.68,858.02 
  1302.9,858.544 1311.16,862.22 1317.75,864.533 1320.64,865.598 1330.13,868.221 1339.61,869.961 1345.31,870.522 1349.09,870.915 1358.57,871.088 1367.34,870.522 
  1368.05,870.48 1377.54,869.203 1387.02,867.218 1396.42,864.533 1396.5,864.512 1405.98,861.229 1412.3,858.544 1415.46,857.216 1424.79,852.554 1424.95,852.475 
  1434.43,846.959 1435.03,846.565 1443.83,840.576 1443.91,840.516 1451.48,834.586 1453.39,833.011 1458.31,828.597 1462.87,824.235 1464.47,822.608 1470.07,816.619 
  1472.36,814.04 1475.25,810.629 1480.09,804.64 1481.84,802.407 1484.7,798.651 1489.11,792.662 1491.32,789.602 1493.41,786.672 1497.62,780.683 1500.8,776.045 
  1501.73,774.694 1505.83,768.705 1509.79,762.715 1510.29,761.951 1513.73,756.726 1517.49,750.737 1519.77,746.927 1521.09,744.748 1524.54,738.758 1527.68,732.769 
  1529.25,729.488 1530.58,726.78 1533.23,720.791 1535.52,714.801 1537.46,708.812 1538.73,704.071 1539.08,702.823 1540.43,696.834 1541.43,690.844 1542.09,684.855 
  1542.43,678.866 1542.44,672.876 1542.15,666.887 1541.55,660.898 1540.65,654.909 1539.47,648.919 1538.73,645.897 1538.04,642.93 1536.41,636.941 1534.55,630.952 
  1532.47,624.962 1530.2,618.973 1529.25,616.596 1527.83,612.984 1525.38,606.995 1522.8,601.005 1520.11,595.016 1519.77,594.267 1517.4,589.027 1514.58,583.038 
  1511.62,577.048 1510.29,574.46 1508.52,571.059 1505.23,565.07 1501.65,559.081 1500.8,557.742 1497.79,553.091 1493.55,547.102 1491.32,544.194 1488.89,541.113 
  1483.77,535.124 1481.84,533.016 1478.14,529.134 1472.36,523.481 1471.99,523.145 1465.26,517.156 1462.87,515.123 1457.93,511.166 1453.39,507.653 1449.95,505.177 
  1443.91,500.911 1441.24,499.188 1434.43,494.801 1431.66,493.199 1424.95,489.279 1420.93,487.209 1415.46,484.34 1408.57,481.22 1405.98,480.017 1396.5,476.314 
  1393.04,475.231 1387.02,473.27 1377.54,470.957 1368.05,469.432 1365.51,469.242 1358.57,468.69 1349.09,468.817 1345.21,469.242 1339.61,469.841 1330.13,471.789 
  1320.64,474.756 1319.5,475.231 1311.16,478.682 1306.31,481.22 1301.68,483.661 1296.07,487.209 1292.2,489.709 1287.51,493.199 1282.71,496.902 1280.07,499.188 
  1273.45,505.177 1273.23,505.387 1267.6,511.166 1263.75,515.399 1262.24,517.156 1257.37,523.145 1254.27,527.204 1252.84,529.134 1248.59,535.124 1244.79,540.72 
  1244.52,541.113 1240.52,547.102 1236.55,553.091 1235.3,554.932 1232.49,559.081 1228.33,565.07 1225.82,568.556 1224.01,571.059 1219.54,577.048 1216.34,581.226 
  1214.95,583.038 1210.23,589.027 1206.86,593.325 1205.52,595.016 1200.8,601.005 1197.38,605.493 1196.22,606.995 1191.74,612.984 1187.89,618.494 1187.56,618.973 
  1183.51,624.962 1179.86,630.952 1178.41,633.547 1176.48,636.941 1173.44,642.93 1170.83,648.919 1168.93,654.126 1168.63,654.909 1166.76,660.898 1165.34,666.887 
  1164.38,672.876 1163.87,678.866 1163.82,684.855 1164.22,690.844 1165.07,696.834 1166.36,702.823 1168.09,708.812 
  "/>
<polyline clip-path="url(#clip463)" style="stroke:#85206a; stroke-linecap:butt; stroke-linejoin:round; stroke-width:4; stroke-opacity:1; fill:none" points="
  1185.08,714.801 1187.63,720.791 1187.89,721.34 1190.44,726.78 1193.6,732.769 1197.12,738.758 1197.38,739.173 1200.8,744.748 1204.77,750.737 1206.86,753.716 
  1208.96,756.726 1213.33,762.715 1216.34,766.661 1217.92,768.705 1222.67,774.694 1225.82,778.496 1227.67,780.683 1232.89,786.672 1235.3,789.341 1238.41,792.662 
  1244.25,798.651 1244.79,799.182 1250.51,804.64 1254.27,808.059 1257.27,810.629 1263.75,815.976 1264.59,816.619 1272.65,822.608 1273.23,823.03 1281.66,828.597 
  1282.71,829.285 1291.88,834.586 1292.2,834.771 1301.68,839.55 1304.1,840.576 1311.16,843.611 1319.72,846.565 1320.64,846.892 1330.13,849.5 1339.61,851.309 
  1349.09,852.36 1354.87,852.554 1358.57,852.685 1361.48,852.554 1368.05,852.274 1377.54,851.145 1387.02,849.272 1396.5,846.62 1396.66,846.565 1405.98,843.253 
  1412.03,840.576 1415.46,839.035 1423.74,834.586 1424.95,833.921 1433.25,828.597 1434.43,827.808 1441.32,822.608 1443.91,820.557 1448.42,816.619 1453.39,812.025 
  1454.79,810.629 1460.58,804.64 1462.87,802.165 1465.96,798.651 1471.03,792.662 1472.36,791.067 1475.88,786.672 1480.55,780.683 1481.84,779.019 1485.11,774.694 
  1489.55,768.705 1491.32,766.273 1493.89,762.715 1498.1,756.726 1500.8,752.735 1502.15,750.737 1506.06,744.748 1509.68,738.758 1510.29,737.705 1513.13,732.769 
  1516.25,726.78 1519.02,720.791 1519.77,718.981 1521.52,714.801 1523.67,708.812 1525.45,702.823 1526.86,696.834 1527.9,690.844 1528.6,684.855 1528.96,678.866 
  1528.98,672.876 1528.67,666.887 1528.05,660.898 1527.11,654.909 1525.86,648.919 1524.31,642.93 1522.48,636.941 1520.38,630.952 1519.77,629.365 1518.1,624.962 
  1515.63,618.973 1512.96,612.984 1510.29,607.308 1510.14,606.995 1507.24,601.005 1504.2,595.016 1501.04,589.027 1500.8,588.58 1497.78,583.038 1494.37,577.048 
  1491.32,571.958 1490.76,571.059 1486.92,565.07 1482.79,559.081 1481.84,557.77 1478.28,553.091 1473.35,547.102 1472.36,545.96 1467.88,541.113 1462.87,536.07 
  1461.87,535.124 1455.16,529.134 1453.39,527.64 1447.65,523.145 1443.91,520.337 1439.25,517.156 1434.43,513.952 1429.73,511.166 1424.95,508.366 1418.72,505.177 
  1415.46,503.512 1405.98,499.373 1405.47,499.188 1396.5,495.902 1387.06,493.199 1387.02,493.185 1377.54,491.167 1368.05,489.947 1358.57,489.549 1349.09,490.013 
  1339.61,491.39 1332.27,493.199 1330.13,493.733 1320.64,497.074 1316.06,499.188 1311.16,501.523 1304.93,505.177 1301.68,507.181 1296.16,511.166 1292.2,514.218 
  1288.82,517.156 1282.71,522.858 1282.43,523.145 1276.88,529.134 1273.23,533.346 1271.79,535.124 1267.09,541.113 1263.75,545.498 1262.58,547.102 1258.19,553.091 
  1254.27,558.4 1253.78,559.081 1249.28,565.07 1244.79,570.894 1244.66,571.059 1239.86,577.048 1235.3,582.574 1234.93,583.038 1229.85,589.027 1225.82,593.741 
  1224.74,595.016 1219.62,601.005 1216.34,604.915 1214.61,606.995 1209.74,612.984 1206.86,616.691 1205.1,618.973 1200.71,624.962 1197.38,629.921 1196.68,630.952 
  1192.94,636.941 1189.64,642.93 1187.89,646.563 1186.74,648.919 1184.23,654.909 1182.2,660.898 1180.65,666.887 1179.58,672.876 1178.98,678.866 1178.86,684.855 
  1179.2,690.844 1180,696.834 1181.25,702.823 1182.95,708.812 1185.08,714.801 
  "/>
<polyline clip-path="url(#clip463)" style="stroke:#a02a62; stroke-linecap:butt; stroke-linejoin:round; stroke-width:4; stroke-opacity:1; fill:none" points="
  1203.69,720.791 1206.75,726.78 1206.86,726.98 1210.09,732.769 1213.81,738.758 1216.34,742.522 1217.85,744.748 1222.15,750.737 1225.82,755.533 1226.75,756.726 
  1231.59,762.715 1235.3,767.093 1236.72,768.705 1242.1,774.694 1244.79,777.577 1247.81,780.683 1253.85,786.672 1254.27,787.075 1260.37,792.662 1263.75,795.649 
  1267.41,798.651 1273.23,803.266 1275.13,804.64 1282.71,809.969 1283.77,810.629 1292.2,815.802 1293.73,816.619 1301.68,820.804 1305.74,822.608 1311.16,824.997 
  1320.64,828.387 1321.4,828.597 1330.13,831.039 1339.61,832.902 1349.09,833.993 1358.57,834.324 1368.05,833.89 1377.54,832.673 1387.02,830.638 1393.74,828.597 
  1396.5,827.75 1405.98,823.97 1408.76,822.608 1415.46,819.211 1419.77,816.619 1424.95,813.379 1428.77,810.629 1434.43,806.384 1436.51,804.64 1443.37,798.651 
  1443.91,798.17 1449.57,792.662 1453.39,788.804 1455.37,786.672 1460.84,780.683 1462.87,778.415 1466.06,774.694 1471.09,768.705 1472.36,767.179 1475.94,762.715 
  1480.61,756.726 1481.84,755.112 1485.1,750.737 1489.35,744.748 1491.32,741.824 1493.36,738.758 1497.09,732.769 1500.47,726.78 1500.8,726.129 1503.56,720.791 
  1506.26,714.801 1508.56,708.812 1510.29,703.413 1510.48,702.823 1512.05,696.834 1513.22,690.844 1513.99,684.855 1514.39,678.866 1514.4,672.876 1514.05,666.887 
  1513.33,660.898 1512.25,654.909 1510.83,648.919 1510.29,647.055 1509.1,642.93 1507.07,636.941 1504.73,630.952 1502.12,624.962 1500.8,622.172 1499.27,618.973 
  1496.22,612.984 1492.96,606.995 1491.32,604.084 1489.53,601.005 1485.93,595.016 1482.19,589.027 1481.84,588.475 1478.23,583.038 1474.1,577.048 1472.36,574.588 
  1469.69,571.059 1464.98,565.07 1462.87,562.504 1459.84,559.081 1454.26,553.091 1453.39,552.208 1447.95,547.102 1443.91,543.524 1440.89,541.113 1434.43,536.183 
  1432.86,535.124 1424.95,529.989 1423.42,529.134 1415.46,524.794 1411.87,523.145 1405.98,520.497 1396.8,517.156 1396.5,517.048 1387.02,514.441 1377.54,512.671 
  1368.05,511.761 1358.57,511.754 1349.09,512.706 1339.61,514.686 1331.98,517.156 1330.13,517.789 1320.64,522.16 1318.94,523.145 1311.16,527.968 1309.58,529.134 
  1301.99,535.124 1301.68,535.385 1295.61,541.113 1292.2,544.474 1289.77,547.102 1284.33,553.091 1282.71,554.854 1279.09,559.081 1273.85,565.07 1273.23,565.737 
  1268.58,571.059 1263.75,576.371 1263.16,577.048 1257.63,583.038 1254.27,586.548 1251.97,589.027 1246.27,595.016 1244.79,596.537 1240.57,601.005 1235.3,606.633 
  1234.97,606.995 1229.53,612.984 1225.82,617.242 1224.35,618.973 1219.45,624.962 1216.34,629.068 1214.93,630.952 1210.78,636.941 1207.11,642.93 1206.86,643.383 
  1203.82,648.919 1201.04,654.909 1198.78,660.898 1197.38,665.695 1197.02,666.887 1195.74,672.876 1194.98,678.866 1194.76,684.855 1195.05,690.844 1195.86,696.834 
  1197.16,702.823 1197.38,703.535 1198.89,708.812 1201.07,714.801 1203.69,720.791 
  "/>
<polyline clip-path="url(#clip463)" style="stroke:#b73456; stroke-linecap:butt; stroke-linejoin:round; stroke-width:4; stroke-opacity:1; fill:none" points="
  1214.52,714.801 1216.34,718.731 1217.29,720.791 1220.47,726.78 1224.09,732.769 1225.82,735.38 1228.1,738.758 1232.46,744.748 1235.3,748.386 1237.2,750.737 
  1242.26,756.726 1244.79,759.583 1247.68,762.715 1253.44,768.705 1254.27,769.544 1259.64,774.694 1263.75,778.508 1266.28,780.683 1273.23,786.511 1273.44,786.672 
  1281.42,792.662 1282.71,793.614 1290.4,798.651 1292.2,799.801 1300.86,804.64 1301.68,805.092 1311.16,809.52 1314.09,810.629 1320.64,813.1 1330.13,815.839 
  1333.97,816.619 1339.61,817.766 1349.09,818.876 1358.57,819.16 1368.05,818.608 1377.54,817.194 1379.93,816.619 1387.02,814.893 1396.5,811.643 1398.81,810.629 
  1405.98,807.394 1410.96,804.64 1415.46,802.074 1420.58,798.651 1424.95,795.637 1428.74,792.662 1434.43,788.074 1436,786.672 1442.58,780.683 1443.91,779.461 
  1448.69,774.694 1453.39,769.903 1454.5,768.705 1459.97,762.715 1462.87,759.463 1465.21,756.726 1470.16,750.737 1472.36,747.987 1474.85,744.748 1479.24,738.758 
  1481.84,734.941 1483.29,732.769 1486.99,726.78 1490.3,720.791 1491.32,718.703 1493.22,714.801 1495.74,708.812 1497.82,702.823 1499.47,696.834 1500.7,690.844 
  1500.8,690.085 1501.53,684.855 1501.94,678.866 1501.94,672.876 1501.53,666.887 1500.8,661.501 1500.72,660.898 1499.54,654.909 1497.98,648.919 1496.04,642.93 
  1493.75,636.941 1491.32,631.423 1491.11,630.952 1488.16,624.962 1484.91,618.973 1481.84,613.71 1481.4,612.984 1477.59,606.995 1473.58,601.005 1472.36,599.221 
  1469.28,595.016 1464.77,589.027 1462.87,586.556 1459.95,583.038 1454.84,577.048 1453.39,575.379 1449.26,571.059 1443.91,565.637 1443.28,565.07 1436.5,559.081 
  1434.43,557.309 1428.79,553.091 1424.95,550.313 1419.74,547.102 1415.46,544.534 1408.56,541.113 1405.98,539.867 1396.5,536.245 1392.46,535.124 1387.02,533.629 
  1377.54,532.011 1368.05,531.403 1358.57,531.861 1349.09,533.454 1343.38,535.124 1339.61,536.287 1330.13,540.482 1329.02,541.113 1320.64,546.124 1319.3,547.102 
  1311.27,553.091 1311.16,553.175 1304.29,559.081 1301.68,561.292 1297.67,565.07 1292.2,570.051 1291.18,571.059 1284.81,577.048 1282.71,578.914 1278.4,583.038 
  1273.23,587.755 1271.92,589.027 1265.47,595.016 1263.75,596.564 1259.07,601.005 1254.27,605.54 1252.79,606.995 1246.74,612.984 1244.79,614.961 1240.97,618.973 
  1235.56,624.962 1235.3,625.253 1230.53,630.952 1225.97,636.941 1225.82,637.154 1221.86,642.93 1218.28,648.919 1216.34,652.692 1215.21,654.909 1212.66,660.898 
  1210.68,666.887 1209.26,672.876 1208.4,678.866 1208.1,684.855 1208.33,690.844 1209.1,696.834 1210.4,702.823 1212.21,708.812 1214.52,714.801 
  "/>
<polyline clip-path="url(#clip463)" style="stroke:#ea6428; stroke-linecap:butt; stroke-linejoin:round; stroke-width:4; stroke-opacity:1; fill:none" points="
  1244.72,702.823 1244.79,703.025 1246.85,708.812 1249.62,714.801 1253.02,720.791 1254.27,722.696 1257.09,726.78 1261.78,732.769 1263.75,735.061 1267.17,738.758 
  1273.19,744.748 1273.23,744.786 1280.13,750.737 1282.71,752.864 1287.98,756.726 1292.2,759.724 1297.05,762.715 1301.68,765.527 1307.92,768.705 1311.16,770.345 
  1320.64,774.206 1322.23,774.694 1330.13,777.143 1339.61,779.123 1349.09,780.145 1358.57,780.21 1368.05,779.302 1377.54,777.397 1386.26,774.694 1387.02,774.461 
  1396.5,770.537 1400.02,768.705 1405.98,765.586 1410.56,762.715 1415.46,759.612 1419.41,756.726 1424.95,752.591 1427.16,750.737 1434.07,744.748 1434.43,744.422 
  1440.17,738.758 1443.91,734.81 1445.71,732.769 1450.61,726.78 1453.39,723.007 1454.94,720.791 1458.67,714.801 1461.86,708.812 1462.87,706.516 1464.46,702.823 
  1466.5,696.834 1467.99,690.844 1468.94,684.855 1469.34,678.866 1469.22,672.876 1468.55,666.887 1467.35,660.898 1465.62,654.909 1463.36,648.919 1462.87,647.845 
  1460.5,642.93 1457.08,636.941 1453.39,631.318 1453.13,630.952 1448.43,624.962 1443.91,619.742 1443.16,618.973 1437,612.984 1434.43,610.607 1429.89,606.995 
  1424.95,603.184 1421.54,601.005 1415.46,597.163 1411.17,595.016 1405.98,592.405 1396.88,589.027 1396.5,588.883 1387.02,586.462 1377.54,585.222 1368.05,585.1 
  1358.57,586.048 1349.09,588.03 1345.92,589.027 1339.61,590.892 1330.13,594.609 1329.28,595.016 1320.64,598.976 1316.91,601.005 1311.16,604.004 1306.18,606.995 
  1301.68,609.635 1296.61,612.984 1292.2,615.886 1287.96,618.973 1282.71,622.856 1280.11,624.962 1273.23,630.754 1273.02,630.952 1266.75,636.941 1263.75,640.067 
  1261.17,642.93 1256.33,648.919 1254.27,651.85 1252.22,654.909 1248.83,660.898 1246.15,666.887 1244.79,670.977 1244.17,672.876 1242.91,678.866 1242.35,684.855 
  1242.47,690.844 1243.26,696.834 1244.72,702.823 
  "/>
<polyline clip-path="url(#clip463)" style="stroke:#fbb51a; stroke-linecap:butt; stroke-linejoin:round; stroke-width:4; stroke-opacity:1; fill:none" points="
  1282.35,690.844 1282.71,693.021 1283.42,696.834 1285.57,702.823 1288.75,708.812 1292.2,713.765 1293.02,714.801 1298.79,720.791 1301.68,723.356 1306.25,726.78 
  1311.16,730.06 1316.23,732.769 1320.64,734.948 1330.13,738.431 1331.47,738.758 1339.61,740.645 1349.09,741.72 1358.57,741.682 1368.05,740.534 1375.5,738.758 
  1377.54,738.254 1387.02,734.752 1391.06,732.769 1396.5,729.921 1401.34,726.78 1405.98,723.479 1409.18,720.791 1415.46,714.83 1415.49,714.801 1420.28,708.812 
  1424.2,702.823 1424.95,701.362 1427.04,696.834 1428.99,690.844 1430.1,684.855 1430.38,678.866 1429.79,672.876 1428.34,666.887 1426,660.898 1424.95,658.926 
  1422.48,654.909 1417.79,648.919 1415.46,646.462 1411.42,642.93 1405.98,638.852 1402.7,636.941 1396.5,633.713 1388.98,630.952 1387.02,630.283 1377.54,628.283 
  1368.05,627.478 1358.57,627.765 1349.09,629.066 1341.2,630.952 1339.61,631.338 1330.13,634.609 1324.86,636.941 1320.64,638.905 1313.55,642.93 1311.16,644.397 
  1304.89,648.919 1301.68,651.518 1298.01,654.909 1292.47,660.898 1292.2,661.255 1288.37,666.887 1285.3,672.876 1283.26,678.866 1282.71,682.113 1282.29,684.855 
  1282.35,690.844 
  "/>
<path clip-path="url(#clip460)" d="
M2146.19 1440.95 L2352.76 1440.95 L2352.76 271.654 L2146.19 271.654  Z
  " fill="#ffffff" fill-rule="evenodd" fill-opacity="1"/>
<defs>
  <clipPath id="clip464">
    <rect x="2146" y="271" width="208" height="1170"/>
  </clipPath>
</defs>
<polyline clip-path="url(#clip460)" style="stroke:#000000; stroke-linecap:butt; stroke-linejoin:round; stroke-width:4; stroke-opacity:1; fill:none" points="
  2146.19,1440.95 2352.76,1440.95 
  "/>
<polyline clip-path="url(#clip460)" style="stroke:#000000; stroke-linecap:butt; stroke-linejoin:round; stroke-width:4; stroke-opacity:1; fill:none" points="
  2146.19,1440.95 2146.19,271.654 
  "/>
<polyline clip-path="url(#clip464)" style="stroke:#009af9; stroke-linecap:butt; stroke-linejoin:round; stroke-width:4; stroke-opacity:1; fill:none" points="
  2146.19,1541.32 2146.19,1533.64 2146.19,1525.97 2146.19,1518.3 2146.2,1510.62 2146.2,1502.95 2146.21,1495.27 2146.22,1487.6 2146.24,1479.92 2146.27,1472.25 
  2146.32,1464.57 2146.38,1456.9 2146.47,1449.22 2146.59,1441.55 2146.75,1433.87 2146.96,1426.2 2147.22,1418.52 2147.54,1410.85 2147.92,1403.17 2148.37,1395.5 
  2148.88,1387.83 2149.47,1380.15 2150.11,1372.48 2150.82,1364.8 2151.59,1357.13 2152.41,1349.45 2153.29,1341.78 2154.2,1334.1 2155.14,1326.43 2156.1,1318.75 
  2157.05,1311.08 2158.01,1303.4 2158.94,1295.73 2159.86,1288.05 2160.76,1280.38 2161.68,1272.71 2162.62,1265.03 2163.63,1257.36 2164.74,1249.68 2165.98,1242.01 
  2167.37,1234.33 2168.92,1226.66 2170.65,1218.98 2172.53,1211.31 2174.53,1203.63 2176.62,1195.96 2178.76,1188.28 2180.92,1180.61 2183.06,1172.93 2185.19,1165.26 
  2187.3,1157.59 2189.41,1149.91 2191.56,1142.24 2193.78,1134.56 2196.11,1126.89 2198.59,1119.21 2201.22,1111.54 2204.02,1103.86 2206.98,1096.19 2210.1,1088.51 
  2213.34,1080.84 2216.69,1073.16 2220.13,1065.49 2223.64,1057.81 2227.21,1050.14 2230.85,1042.46 2234.56,1034.79 2238.35,1027.12 2242.26,1019.44 2246.27,1011.77 
  2250.41,1004.09 2254.65,996.417 2258.97,988.742 2263.31,981.067 2267.61,973.393 2271.76,965.718 2275.67,958.043 2279.23,950.369 2282.33,942.694 2284.91,935.019 
  2286.92,927.345 2288.35,919.67 2289.25,911.995 2289.7,904.321 2289.8,896.646 2289.71,888.971 2289.57,881.297 2289.54,873.622 2289.73,865.947 2290.25,858.273 
  2291.17,850.598 2292.5,842.923 2294.25,835.249 2296.37,827.574 2298.82,819.899 2301.52,812.225 2304.42,804.55 2307.47,796.875 2310.6,789.201 2313.78,781.526 
  2316.96,773.851 2320.09,766.176 2323.1,758.502 2325.94,750.827 2328.5,743.152 2330.68,735.478 2332.39,727.803 2333.5,720.128 2333.91,712.454 2333.55,704.779 
  2332.34,697.104 2330.27,689.43 2327.33,681.755 2323.56,674.08 2319.04,666.406 2313.87,658.731 2308.15,651.056 2302.02,643.382 2295.61,635.707 2289.06,628.032 
  2282.5,620.358 2276.02,612.683 2269.74,605.008 2263.73,597.334 2258.02,589.659 2252.64,581.984 2247.57,574.31 2242.78,566.635 2238.19,558.96 2233.75,551.285 
  2229.4,543.611 2225.08,535.936 2220.76,528.261 2216.44,520.587 2212.15,512.912 2207.91,505.237 2203.79,497.563 2199.82,489.888 2196.06,482.213 2192.55,474.539 
  2189.28,466.864 2186.25,459.189 2183.46,451.515 2180.85,443.84 2178.4,436.165 2176.07,428.491 2173.82,420.816 2171.64,413.141 2169.5,405.467 2167.4,397.792 
  2165.35,390.117 2163.36,382.443 2161.46,374.768 2159.67,367.093 2158,359.418 2156.48,351.744 2155.12,344.069 2153.93,336.394 2152.91,328.72 2152.05,321.045 
  2151.34,313.37 2150.75,305.696 2150.28,298.021 2149.89,290.346 2149.57,282.672 2149.3,274.997 2149.06,267.322 2148.85,259.648 2148.65,251.973 2148.46,244.298 
  2148.28,236.624 2148.12,228.949 2147.96,221.274 2147.81,213.6 2147.68,205.925 2147.54,198.25 2147.42,190.576 2147.29,182.901 2147.17,175.226 2147.04,167.552 
  2146.92,159.877 2146.81,152.202 2146.7,144.527 2146.6,136.853 2146.51,129.178 2146.44,121.503 2146.37,113.829 2146.32,106.154 2146.28,98.4794 2146.25,90.8047 
  2146.23,83.1301 2146.22,75.4554 2146.21,67.7807 2146.2,60.106 2146.2,52.4313 2146.19,44.7567 2146.19,37.082 2146.19,29.4073 2146.19,21.7326 2146.19,14.0579 
  
  "/>
</svg>
