<?xml version="1.0" encoding="utf-8"?>
<svg xmlns="http://www.w3.org/2000/svg" xmlns:xlink="http://www.w3.org/1999/xlink" width="600" height="400" viewBox="0 0 2400 1600">
<defs>
  <clipPath id="clip980">
    <rect x="0" y="0" width="2400" height="1600"/>
  </clipPath>
</defs>
<path clip-path="url(#clip980)" d="
M0 1600 L2400 1600 L2400 0 L0 0  Z
  " fill="#ffffff" fill-rule="evenodd" fill-opacity="1"/>
<defs>
  <clipPath id="clip981">
    <rect x="480" y="0" width="1681" height="1600"/>
  </clipPath>
</defs>
<defs>
  <clipPath id="clip982">
    <rect x="224" y="47" width="2129" height="1395"/>
  </clipPath>
</defs>
<path clip-path="url(#clip980)" d="
M217.278 1450.96 L2352.76 1450.96 L2352.76 47.2441 L217.278 47.2441  Z
  " fill="#ffffff" fill-rule="evenodd" fill-opacity="1"/>
<defs>
  <clipPath id="clip983">
    <rect x="217" y="47" width="2136" height="1405"/>
  </clipPath>
</defs>
<polyline clip-path="url(#clip983)" style="stroke:#000000; stroke-linecap:butt; stroke-linejoin:round; stroke-width:2; stroke-opacity:0.1; fill:none" points="
  445.599,1450.96 445.599,47.2441 
  "/>
<polyline clip-path="url(#clip983)" style="stroke:#000000; stroke-linecap:butt; stroke-linejoin:round; stroke-width:2; stroke-opacity:0.1; fill:none" points="
  865.308,1450.96 865.308,47.2441 
  "/>
<polyline clip-path="url(#clip983)" style="stroke:#000000; stroke-linecap:butt; stroke-linejoin:round; stroke-width:2; stroke-opacity:0.1; fill:none" points="
  1285.02,1450.96 1285.02,47.2441 
  "/>
<polyline clip-path="url(#clip983)" style="stroke:#000000; stroke-linecap:butt; stroke-linejoin:round; stroke-width:2; stroke-opacity:0.1; fill:none" points="
  1704.73,1450.96 1704.73,47.2441 
  "/>
<polyline clip-path="url(#clip983)" style="stroke:#000000; stroke-linecap:butt; stroke-linejoin:round; stroke-width:2; stroke-opacity:0.1; fill:none" points="
  2124.43,1450.96 2124.43,47.2441 
  "/>
<polyline clip-path="url(#clip980)" style="stroke:#000000; stroke-linecap:butt; stroke-linejoin:round; stroke-width:4; stroke-opacity:1; fill:none" points="
  217.278,1450.96 2352.76,1450.96 
  "/>
<polyline clip-path="url(#clip980)" style="stroke:#000000; stroke-linecap:butt; stroke-linejoin:round; stroke-width:4; stroke-opacity:1; fill:none" points="
  445.599,1450.96 445.599,1432.06 
  "/>
<polyline clip-path="url(#clip980)" style="stroke:#000000; stroke-linecap:butt; stroke-linejoin:round; stroke-width:4; stroke-opacity:1; fill:none" points="
  865.308,1450.96 865.308,1432.06 
  "/>
<polyline clip-path="url(#clip980)" style="stroke:#000000; stroke-linecap:butt; stroke-linejoin:round; stroke-width:4; stroke-opacity:1; fill:none" points="
  1285.02,1450.96 1285.02,1432.06 
  "/>
<polyline clip-path="url(#clip980)" style="stroke:#000000; stroke-linecap:butt; stroke-linejoin:round; stroke-width:4; stroke-opacity:1; fill:none" points="
  1704.73,1450.96 1704.73,1432.06 
  "/>
<polyline clip-path="url(#clip980)" style="stroke:#000000; stroke-linecap:butt; stroke-linejoin:round; stroke-width:4; stroke-opacity:1; fill:none" points="
  2124.43,1450.96 2124.43,1432.06 
  "/>
<path clip-path="url(#clip980)" d="M392.127 1494.8 L421.803 1494.8 L421.803 1498.74 L392.127 1498.74 L392.127 1494.8 Z" fill="#000000" fill-rule="evenodd" fill-opacity="1" /><path clip-path="url(#clip980)" d="M431.942 1477.07 L450.298 1477.07 L450.298 1481.01 L436.224 1481.01 L436.224 1489.48 Q437.243 1489.13 438.261 1488.97 Q439.28 1488.79 440.298 1488.79 Q446.085 1488.79 449.465 1491.96 Q452.845 1495.13 452.845 1500.54 Q452.845 1506.12 449.372 1509.22 Q445.9 1512.3 439.581 1512.3 Q437.405 1512.3 435.136 1511.93 Q432.891 1511.56 430.484 1510.82 L430.484 1506.12 Q432.567 1507.26 434.789 1507.81 Q437.011 1508.37 439.488 1508.37 Q443.493 1508.37 445.831 1506.26 Q448.169 1504.16 448.169 1500.54 Q448.169 1496.93 445.831 1494.83 Q443.493 1492.72 439.488 1492.72 Q437.613 1492.72 435.738 1493.14 Q433.886 1493.55 431.942 1494.43 L431.942 1477.07 Z" fill="#000000" fill-rule="evenodd" fill-opacity="1" /><path clip-path="url(#clip980)" d="M462.057 1505.75 L466.942 1505.75 L466.942 1511.63 L462.057 1511.63 L462.057 1505.75 Z" fill="#000000" fill-rule="evenodd" fill-opacity="1" /><path clip-path="url(#clip980)" d="M487.127 1480.15 Q483.516 1480.15 481.687 1483.72 Q479.881 1487.26 479.881 1494.39 Q479.881 1501.49 481.687 1505.06 Q483.516 1508.6 487.127 1508.6 Q490.761 1508.6 492.567 1505.06 Q494.395 1501.49 494.395 1494.39 Q494.395 1487.26 492.567 1483.72 Q490.761 1480.15 487.127 1480.15 M487.127 1476.45 Q492.937 1476.45 495.992 1481.05 Q499.071 1485.64 499.071 1494.39 Q499.071 1503.11 495.992 1507.72 Q492.937 1512.3 487.127 1512.3 Q481.317 1512.3 478.238 1507.72 Q475.182 1503.11 475.182 1494.39 Q475.182 1485.64 478.238 1481.05 Q481.317 1476.45 487.127 1476.45 Z" fill="#000000" fill-rule="evenodd" fill-opacity="1" /><path clip-path="url(#clip980)" d="M812.334 1494.8 L842.01 1494.8 L842.01 1498.74 L812.334 1498.74 L812.334 1494.8 Z" fill="#000000" fill-rule="evenodd" fill-opacity="1" /><path clip-path="url(#clip980)" d="M856.13 1507.7 L872.449 1507.7 L872.449 1511.63 L850.505 1511.63 L850.505 1507.7 Q853.167 1504.94 857.75 1500.31 Q862.357 1495.66 863.537 1494.32 Q865.783 1491.79 866.662 1490.06 Q867.565 1488.3 867.565 1486.61 Q867.565 1483.85 865.62 1482.12 Q863.699 1480.38 860.597 1480.38 Q858.398 1480.38 855.945 1481.15 Q853.514 1481.91 850.736 1483.46 L850.736 1478.74 Q853.56 1477.6 856.014 1477.03 Q858.468 1476.45 860.505 1476.45 Q865.875 1476.45 869.07 1479.13 Q872.264 1481.82 872.264 1486.31 Q872.264 1488.44 871.454 1490.36 Q870.667 1492.26 868.56 1494.85 Q867.982 1495.52 864.88 1498.74 Q861.778 1501.93 856.13 1507.7 Z" fill="#000000" fill-rule="evenodd" fill-opacity="1" /><path clip-path="url(#clip980)" d="M882.264 1505.75 L887.148 1505.75 L887.148 1511.63 L882.264 1511.63 L882.264 1505.75 Z" fill="#000000" fill-rule="evenodd" fill-opacity="1" /><path clip-path="url(#clip980)" d="M897.38 1477.07 L915.736 1477.07 L915.736 1481.01 L901.662 1481.01 L901.662 1489.48 Q902.68 1489.13 903.699 1488.97 Q904.718 1488.79 905.736 1488.79 Q911.523 1488.79 914.903 1491.96 Q918.282 1495.13 918.282 1500.54 Q918.282 1506.12 914.81 1509.22 Q911.338 1512.3 905.018 1512.3 Q902.843 1512.3 900.574 1511.93 Q898.329 1511.56 895.921 1510.82 L895.921 1506.12 Q898.005 1507.26 900.227 1507.81 Q902.449 1508.37 904.926 1508.37 Q908.93 1508.37 911.268 1506.26 Q913.606 1504.16 913.606 1500.54 Q913.606 1496.93 911.268 1494.83 Q908.93 1492.72 904.926 1492.72 Q903.051 1492.72 901.176 1493.14 Q899.324 1493.55 897.38 1494.43 L897.38 1477.07 Z" fill="#000000" fill-rule="evenodd" fill-opacity="1" /><path clip-path="url(#clip980)" d="M1262.4 1480.15 Q1258.79 1480.15 1256.96 1483.72 Q1255.16 1487.26 1255.16 1494.39 Q1255.16 1501.49 1256.96 1505.06 Q1258.79 1508.6 1262.4 1508.6 Q1266.04 1508.6 1267.84 1505.06 Q1269.67 1501.49 1269.67 1494.39 Q1269.67 1487.26 1267.84 1483.72 Q1266.04 1480.15 1262.4 1480.15 M1262.4 1476.45 Q1268.21 1476.45 1271.27 1481.05 Q1274.35 1485.64 1274.35 1494.39 Q1274.35 1503.11 1271.27 1507.72 Q1268.21 1512.3 1262.4 1512.3 Q1256.59 1512.3 1253.51 1507.72 Q1250.46 1503.11 1250.46 1494.39 Q1250.46 1485.64 1253.51 1481.05 Q1256.59 1476.45 1262.4 1476.45 Z" fill="#000000" fill-rule="evenodd" fill-opacity="1" /><path clip-path="url(#clip980)" d="M1282.56 1505.75 L1287.45 1505.75 L1287.45 1511.63 L1282.56 1511.63 L1282.56 1505.75 Z" fill="#000000" fill-rule="evenodd" fill-opacity="1" /><path clip-path="url(#clip980)" d="M1307.63 1480.15 Q1304.02 1480.15 1302.19 1483.72 Q1300.39 1487.26 1300.39 1494.39 Q1300.39 1501.49 1302.19 1505.06 Q1304.02 1508.6 1307.63 1508.6 Q1311.27 1508.6 1313.07 1505.06 Q1314.9 1501.49 1314.9 1494.39 Q1314.9 1487.26 1313.07 1483.72 Q1311.27 1480.15 1307.63 1480.15 M1307.63 1476.45 Q1313.44 1476.45 1316.5 1481.05 Q1319.58 1485.64 1319.58 1494.39 Q1319.58 1503.11 1316.5 1507.72 Q1313.44 1512.3 1307.63 1512.3 Q1301.82 1512.3 1298.74 1507.72 Q1295.69 1503.11 1295.69 1494.39 Q1295.69 1485.64 1298.74 1481.05 Q1301.82 1476.45 1307.63 1476.45 Z" fill="#000000" fill-rule="evenodd" fill-opacity="1" /><path clip-path="url(#clip980)" d="M1676.46 1507.7 L1692.78 1507.7 L1692.78 1511.63 L1670.84 1511.63 L1670.84 1507.7 Q1673.5 1504.94 1678.08 1500.31 Q1682.69 1495.66 1683.87 1494.32 Q1686.11 1491.79 1686.99 1490.06 Q1687.9 1488.3 1687.9 1486.61 Q1687.9 1483.85 1685.95 1482.12 Q1684.03 1480.38 1680.93 1480.38 Q1678.73 1480.38 1676.28 1481.15 Q1673.85 1481.91 1671.07 1483.46 L1671.07 1478.74 Q1673.89 1477.6 1676.35 1477.03 Q1678.8 1476.45 1680.84 1476.45 Q1686.21 1476.45 1689.4 1479.13 Q1692.6 1481.82 1692.6 1486.31 Q1692.6 1488.44 1691.79 1490.36 Q1691 1492.26 1688.89 1494.85 Q1688.31 1495.52 1685.21 1498.74 Q1682.11 1501.93 1676.46 1507.7 Z" fill="#000000" fill-rule="evenodd" fill-opacity="1" /><path clip-path="url(#clip980)" d="M1702.6 1505.75 L1707.48 1505.75 L1707.48 1511.63 L1702.6 1511.63 L1702.6 1505.75 Z" fill="#000000" fill-rule="evenodd" fill-opacity="1" /><path clip-path="url(#clip980)" d="M1717.71 1477.07 L1736.07 1477.07 L1736.07 1481.01 L1721.99 1481.01 L1721.99 1489.48 Q1723.01 1489.13 1724.03 1488.97 Q1725.05 1488.79 1726.07 1488.79 Q1731.86 1488.79 1735.23 1491.96 Q1738.61 1495.13 1738.61 1500.54 Q1738.61 1506.12 1735.14 1509.22 Q1731.67 1512.3 1725.35 1512.3 Q1723.17 1512.3 1720.91 1511.93 Q1718.66 1511.56 1716.25 1510.82 L1716.25 1506.12 Q1718.34 1507.26 1720.56 1507.81 Q1722.78 1508.37 1725.26 1508.37 Q1729.26 1508.37 1731.6 1506.26 Q1733.94 1504.16 1733.94 1500.54 Q1733.94 1496.93 1731.6 1494.83 Q1729.26 1492.72 1725.26 1492.72 Q1723.38 1492.72 1721.51 1493.14 Q1719.66 1493.55 1717.71 1494.43 L1717.71 1477.07 Z" fill="#000000" fill-rule="evenodd" fill-opacity="1" /><path clip-path="url(#clip980)" d="M2091.6 1477.07 L2109.96 1477.07 L2109.96 1481.01 L2095.88 1481.01 L2095.88 1489.48 Q2096.9 1489.13 2097.92 1488.97 Q2098.94 1488.79 2099.96 1488.79 Q2105.74 1488.79 2109.12 1491.96 Q2112.5 1495.13 2112.5 1500.54 Q2112.5 1506.12 2109.03 1509.22 Q2105.56 1512.3 2099.24 1512.3 Q2097.06 1512.3 2094.79 1511.93 Q2092.55 1511.56 2090.14 1510.82 L2090.14 1506.12 Q2092.22 1507.26 2094.45 1507.81 Q2096.67 1508.37 2099.15 1508.37 Q2103.15 1508.37 2105.49 1506.26 Q2107.83 1504.16 2107.83 1500.54 Q2107.83 1496.93 2105.49 1494.83 Q2103.15 1492.72 2099.15 1492.72 Q2097.27 1492.72 2095.4 1493.14 Q2093.54 1493.55 2091.6 1494.43 L2091.6 1477.07 Z" fill="#000000" fill-rule="evenodd" fill-opacity="1" /><path clip-path="url(#clip980)" d="M2121.71 1505.75 L2126.6 1505.75 L2126.6 1511.63 L2121.71 1511.63 L2121.71 1505.75 Z" fill="#000000" fill-rule="evenodd" fill-opacity="1" /><path clip-path="url(#clip980)" d="M2146.78 1480.15 Q2143.17 1480.15 2141.34 1483.72 Q2139.54 1487.26 2139.54 1494.39 Q2139.54 1501.49 2141.34 1505.06 Q2143.17 1508.6 2146.78 1508.6 Q2150.42 1508.6 2152.22 1505.06 Q2154.05 1501.49 2154.05 1494.39 Q2154.05 1487.26 2152.22 1483.72 Q2150.42 1480.15 2146.78 1480.15 M2146.78 1476.45 Q2152.59 1476.45 2155.65 1481.05 Q2158.73 1485.64 2158.73 1494.39 Q2158.73 1503.11 2155.65 1507.72 Q2152.59 1512.3 2146.78 1512.3 Q2140.97 1512.3 2137.89 1507.72 Q2134.84 1503.11 2134.84 1494.39 Q2134.84 1485.64 2137.89 1481.05 Q2140.97 1476.45 2146.78 1476.45 Z" fill="#000000" fill-rule="evenodd" fill-opacity="1" /><path clip-path="url(#clip980)" d="M1299.19 1539.92 Q1299.19 1541.72 1298.06 1542.75 Q1296.94 1543.75 1295.65 1543.75 Q1294.42 1543.75 1293.78 1543.04 Q1293.14 1542.33 1293.14 1541.43 Q1293.14 1540.21 1294.04 1539.14 Q1294.94 1538.08 1296.29 1537.85 Q1294.97 1537.02 1293.01 1537.02 Q1291.72 1537.02 1290.59 1537.69 Q1289.5 1538.37 1288.82 1539.24 Q1288.18 1540.11 1287.6 1541.37 Q1287.05 1542.59 1286.82 1543.33 Q1286.63 1544.04 1286.47 1544.81 L1284.21 1553.83 Q1283.12 1558.11 1283.12 1559.63 Q1283.12 1561.49 1284.02 1562.75 Q1284.92 1563.97 1286.73 1563.97 Q1287.44 1563.97 1288.24 1563.78 Q1289.05 1563.55 1290.08 1562.98 Q1291.14 1562.36 1292.07 1561.46 Q1293.04 1560.53 1293.97 1558.95 Q1294.91 1557.37 1295.52 1555.34 Q1295.71 1554.63 1296.36 1554.63 Q1297.16 1554.63 1297.16 1555.28 Q1297.16 1555.83 1296.71 1556.98 Q1296.29 1558.11 1295.36 1559.59 Q1294.46 1561.04 1293.26 1562.36 Q1292.07 1563.65 1290.3 1564.55 Q1288.53 1565.46 1286.6 1565.46 Q1283.83 1565.46 1281.99 1563.97 Q1280.16 1562.49 1279.48 1560.43 Q1279.32 1560.72 1279.09 1561.11 Q1278.87 1561.49 1278.19 1562.36 Q1277.55 1563.2 1276.81 1563.84 Q1276.07 1564.46 1274.91 1564.94 Q1273.78 1565.46 1272.56 1565.46 Q1271.01 1565.46 1269.63 1565 Q1268.27 1564.55 1267.31 1563.52 Q1266.34 1562.49 1266.34 1561.08 Q1266.34 1559.5 1267.4 1558.4 Q1268.5 1557.27 1269.98 1557.27 Q1270.91 1557.27 1271.65 1557.82 Q1272.43 1558.37 1272.43 1559.56 Q1272.43 1560.88 1271.53 1561.88 Q1270.62 1562.88 1269.34 1563.14 Q1270.66 1563.97 1272.62 1563.97 Q1274.75 1563.97 1276.42 1562.11 Q1278.1 1560.24 1278.9 1557.11 Q1280.9 1549.61 1281.67 1546.26 Q1282.44 1542.88 1282.44 1541.43 Q1282.44 1540.08 1282.09 1539.14 Q1281.73 1538.21 1281.12 1537.79 Q1280.54 1537.34 1280 1537.18 Q1279.48 1537.02 1278.9 1537.02 Q1277.93 1537.02 1276.84 1537.4 Q1275.78 1537.79 1274.49 1538.69 Q1273.23 1539.56 1272.04 1541.37 Q1270.85 1543.17 1270.04 1545.65 Q1269.88 1546.39 1269.17 1546.39 Q1268.4 1546.36 1268.4 1545.71 Q1268.4 1545.17 1268.82 1544.04 Q1269.27 1542.88 1270.17 1541.43 Q1271.11 1539.98 1272.3 1538.69 Q1273.52 1537.37 1275.29 1536.47 Q1277.1 1535.57 1279.03 1535.57 Q1279.9 1535.57 1280.74 1535.76 Q1281.61 1535.92 1282.64 1536.41 Q1283.7 1536.89 1284.63 1537.95 Q1285.57 1539.01 1286.15 1540.56 Q1286.53 1539.82 1287.05 1539.11 Q1287.6 1538.4 1288.43 1537.53 Q1289.3 1536.63 1290.49 1536.12 Q1291.72 1535.57 1293.07 1535.57 Q1294.39 1535.57 1295.68 1535.92 Q1296.97 1536.24 1298.06 1537.31 Q1299.19 1538.34 1299.19 1539.92 Z" fill="#000000" fill-rule="evenodd" fill-opacity="1" /><polyline clip-path="url(#clip983)" style="stroke:#000000; stroke-linecap:butt; stroke-linejoin:round; stroke-width:2; stroke-opacity:0.1; fill:none" points="
  217.278,1411.24 2352.76,1411.24 
  "/>
<polyline clip-path="url(#clip983)" style="stroke:#000000; stroke-linecap:butt; stroke-linejoin:round; stroke-width:2; stroke-opacity:0.1; fill:none" points="
  217.278,1082.99 2352.76,1082.99 
  "/>
<polyline clip-path="url(#clip983)" style="stroke:#000000; stroke-linecap:butt; stroke-linejoin:round; stroke-width:2; stroke-opacity:0.1; fill:none" points="
  217.278,754.734 2352.76,754.734 
  "/>
<polyline clip-path="url(#clip983)" style="stroke:#000000; stroke-linecap:butt; stroke-linejoin:round; stroke-width:2; stroke-opacity:0.1; fill:none" points="
  217.278,426.48 2352.76,426.48 
  "/>
<polyline clip-path="url(#clip983)" style="stroke:#000000; stroke-linecap:butt; stroke-linejoin:round; stroke-width:2; stroke-opacity:0.1; fill:none" points="
  217.278,98.227 2352.76,98.227 
  "/>
<polyline clip-path="url(#clip980)" style="stroke:#000000; stroke-linecap:butt; stroke-linejoin:round; stroke-width:4; stroke-opacity:1; fill:none" points="
  217.278,1450.96 217.278,47.2441 
  "/>
<polyline clip-path="url(#clip980)" style="stroke:#000000; stroke-linecap:butt; stroke-linejoin:round; stroke-width:4; stroke-opacity:1; fill:none" points="
  217.278,1411.24 236.175,1411.24 
  "/>
<polyline clip-path="url(#clip980)" style="stroke:#000000; stroke-linecap:butt; stroke-linejoin:round; stroke-width:4; stroke-opacity:1; fill:none" points="
  217.278,1082.99 236.175,1082.99 
  "/>
<polyline clip-path="url(#clip980)" style="stroke:#000000; stroke-linecap:butt; stroke-linejoin:round; stroke-width:4; stroke-opacity:1; fill:none" points="
  217.278,754.734 236.175,754.734 
  "/>
<polyline clip-path="url(#clip980)" style="stroke:#000000; stroke-linecap:butt; stroke-linejoin:round; stroke-width:4; stroke-opacity:1; fill:none" points="
  217.278,426.48 236.175,426.48 
  "/>
<polyline clip-path="url(#clip980)" style="stroke:#000000; stroke-linecap:butt; stroke-linejoin:round; stroke-width:4; stroke-opacity:1; fill:none" points="
  217.278,98.227 236.175,98.227 
  "/>
<path clip-path="url(#clip980)" d="M169.333 1397.04 Q165.722 1397.04 163.893 1400.6 Q162.088 1404.15 162.088 1411.28 Q162.088 1418.38 163.893 1421.95 Q165.722 1425.49 169.333 1425.49 Q172.968 1425.49 174.773 1421.95 Q176.602 1418.38 176.602 1411.28 Q176.602 1404.15 174.773 1400.6 Q172.968 1397.04 169.333 1397.04 M169.333 1393.34 Q175.143 1393.34 178.199 1397.94 Q181.278 1402.53 181.278 1411.28 Q181.278 1420 178.199 1424.61 Q175.143 1429.19 169.333 1429.19 Q163.523 1429.19 160.444 1424.61 Q157.389 1420 157.389 1411.28 Q157.389 1402.53 160.444 1397.94 Q163.523 1393.34 169.333 1393.34 Z" fill="#000000" fill-rule="evenodd" fill-opacity="1" /><path clip-path="url(#clip980)" d="M99.8197 1096.33 L107.459 1096.33 L107.459 1069.97 L99.1485 1071.63 L99.1485 1067.37 L107.412 1065.71 L112.088 1065.71 L112.088 1096.33 L119.727 1096.33 L119.727 1100.27 L99.8197 1100.27 L99.8197 1096.33 Z" fill="#000000" fill-rule="evenodd" fill-opacity="1" /><path clip-path="url(#clip980)" d="M139.171 1068.79 Q135.56 1068.79 133.732 1072.35 Q131.926 1075.89 131.926 1083.02 Q131.926 1090.13 133.732 1093.69 Q135.56 1097.23 139.171 1097.23 Q142.806 1097.23 144.611 1093.69 Q146.44 1090.13 146.44 1083.02 Q146.44 1075.89 144.611 1072.35 Q142.806 1068.79 139.171 1068.79 M139.171 1065.08 Q144.982 1065.08 148.037 1069.69 Q151.116 1074.27 151.116 1083.02 Q151.116 1091.75 148.037 1096.36 Q144.982 1100.94 139.171 1100.94 Q133.361 1100.94 130.283 1096.36 Q127.227 1091.75 127.227 1083.02 Q127.227 1074.27 130.283 1069.69 Q133.361 1065.08 139.171 1065.08 Z" fill="#000000" fill-rule="evenodd" fill-opacity="1" /><path clip-path="url(#clip980)" d="M169.333 1068.79 Q165.722 1068.79 163.893 1072.35 Q162.088 1075.89 162.088 1083.02 Q162.088 1090.13 163.893 1093.69 Q165.722 1097.23 169.333 1097.23 Q172.968 1097.23 174.773 1093.69 Q176.602 1090.13 176.602 1083.02 Q176.602 1075.89 174.773 1072.35 Q172.968 1068.79 169.333 1068.79 M169.333 1065.08 Q175.143 1065.08 178.199 1069.69 Q181.278 1074.27 181.278 1083.02 Q181.278 1091.75 178.199 1096.36 Q175.143 1100.94 169.333 1100.94 Q163.523 1100.94 160.444 1096.36 Q157.389 1091.75 157.389 1083.02 Q157.389 1074.27 160.444 1069.69 Q163.523 1065.08 169.333 1065.08 Z" fill="#000000" fill-rule="evenodd" fill-opacity="1" /><path clip-path="url(#clip980)" d="M103.037 768.079 L119.357 768.079 L119.357 772.014 L97.4124 772.014 L97.4124 768.079 Q100.074 765.324 104.658 760.694 Q109.264 756.042 110.445 754.699 Q112.69 752.176 113.57 750.44 Q114.472 748.681 114.472 746.991 Q114.472 744.236 112.528 742.5 Q110.607 740.764 107.505 740.764 Q105.306 740.764 102.852 741.528 Q100.422 742.292 97.6438 743.843 L97.6438 739.12 Q100.468 737.986 102.922 737.408 Q105.375 736.829 107.412 736.829 Q112.783 736.829 115.977 739.514 Q119.171 742.199 119.171 746.69 Q119.171 748.819 118.361 750.741 Q117.574 752.639 115.468 755.231 Q114.889 755.903 111.787 759.12 Q108.685 762.315 103.037 768.079 Z" fill="#000000" fill-rule="evenodd" fill-opacity="1" /><path clip-path="url(#clip980)" d="M139.171 740.532 Q135.56 740.532 133.732 744.097 Q131.926 747.639 131.926 754.769 Q131.926 761.875 133.732 765.44 Q135.56 768.981 139.171 768.981 Q142.806 768.981 144.611 765.44 Q146.44 761.875 146.44 754.769 Q146.44 747.639 144.611 744.097 Q142.806 740.532 139.171 740.532 M139.171 736.829 Q144.982 736.829 148.037 741.435 Q151.116 746.019 151.116 754.769 Q151.116 763.495 148.037 768.102 Q144.982 772.685 139.171 772.685 Q133.361 772.685 130.283 768.102 Q127.227 763.495 127.227 754.769 Q127.227 746.019 130.283 741.435 Q133.361 736.829 139.171 736.829 Z" fill="#000000" fill-rule="evenodd" fill-opacity="1" /><path clip-path="url(#clip980)" d="M169.333 740.532 Q165.722 740.532 163.893 744.097 Q162.088 747.639 162.088 754.769 Q162.088 761.875 163.893 765.44 Q165.722 768.981 169.333 768.981 Q172.968 768.981 174.773 765.44 Q176.602 761.875 176.602 754.769 Q176.602 747.639 174.773 744.097 Q172.968 740.532 169.333 740.532 M169.333 736.829 Q175.143 736.829 178.199 741.435 Q181.278 746.019 181.278 754.769 Q181.278 763.495 178.199 768.102 Q175.143 772.685 169.333 772.685 Q163.523 772.685 160.444 768.102 Q157.389 763.495 157.389 754.769 Q157.389 746.019 160.444 741.435 Q163.523 736.829 169.333 736.829 Z" fill="#000000" fill-rule="evenodd" fill-opacity="1" /><path clip-path="url(#clip980)" d="M113.176 425.126 Q116.533 425.844 118.408 428.112 Q120.306 430.381 120.306 433.714 Q120.306 438.83 116.787 441.631 Q113.269 444.432 106.787 444.432 Q104.611 444.432 102.297 443.992 Q100.005 443.575 97.5512 442.719 L97.5512 438.205 Q99.4957 439.339 101.81 439.918 Q104.125 440.497 106.648 440.497 Q111.047 440.497 113.338 438.76 Q115.653 437.024 115.653 433.714 Q115.653 430.659 113.5 428.946 Q111.371 427.21 107.551 427.21 L103.523 427.21 L103.523 423.367 L107.736 423.367 Q111.185 423.367 113.014 422.001 Q114.843 420.612 114.843 418.02 Q114.843 415.358 112.945 413.946 Q111.07 412.511 107.551 412.511 Q105.63 412.511 103.431 412.927 Q101.232 413.344 98.5929 414.224 L98.5929 410.057 Q101.255 409.316 103.57 408.946 Q105.908 408.575 107.968 408.575 Q113.292 408.575 116.394 411.006 Q119.496 413.413 119.496 417.534 Q119.496 420.404 117.852 422.395 Q116.209 424.362 113.176 425.126 Z" fill="#000000" fill-rule="evenodd" fill-opacity="1" /><path clip-path="url(#clip980)" d="M139.171 412.279 Q135.56 412.279 133.732 415.844 Q131.926 419.386 131.926 426.515 Q131.926 433.622 133.732 437.186 Q135.56 440.728 139.171 440.728 Q142.806 440.728 144.611 437.186 Q146.44 433.622 146.44 426.515 Q146.44 419.386 144.611 415.844 Q142.806 412.279 139.171 412.279 M139.171 408.575 Q144.982 408.575 148.037 413.182 Q151.116 417.765 151.116 426.515 Q151.116 435.242 148.037 439.848 Q144.982 444.432 139.171 444.432 Q133.361 444.432 130.283 439.848 Q127.227 435.242 127.227 426.515 Q127.227 417.765 130.283 413.182 Q133.361 408.575 139.171 408.575 Z" fill="#000000" fill-rule="evenodd" fill-opacity="1" /><path clip-path="url(#clip980)" d="M169.333 412.279 Q165.722 412.279 163.893 415.844 Q162.088 419.386 162.088 426.515 Q162.088 433.622 163.893 437.186 Q165.722 440.728 169.333 440.728 Q172.968 440.728 174.773 437.186 Q176.602 433.622 176.602 426.515 Q176.602 419.386 174.773 415.844 Q172.968 412.279 169.333 412.279 M169.333 408.575 Q175.143 408.575 178.199 413.182 Q181.278 417.765 181.278 426.515 Q181.278 435.242 178.199 439.848 Q175.143 444.432 169.333 444.432 Q163.523 444.432 160.444 439.848 Q157.389 435.242 157.389 426.515 Q157.389 417.765 160.444 413.182 Q163.523 408.575 169.333 408.575 Z" fill="#000000" fill-rule="evenodd" fill-opacity="1" /><path clip-path="url(#clip980)" d="M111.857 85.0211 L100.051 103.47 L111.857 103.47 L111.857 85.0211 M110.63 80.947 L116.509 80.947 L116.509 103.47 L121.44 103.47 L121.44 107.359 L116.509 107.359 L116.509 115.507 L111.857 115.507 L111.857 107.359 L96.2549 107.359 L96.2549 102.845 L110.63 80.947 Z" fill="#000000" fill-rule="evenodd" fill-opacity="1" /><path clip-path="url(#clip980)" d="M139.171 84.0257 Q135.56 84.0257 133.732 87.5905 Q131.926 91.1322 131.926 98.2618 Q131.926 105.368 133.732 108.933 Q135.56 112.475 139.171 112.475 Q142.806 112.475 144.611 108.933 Q146.44 105.368 146.44 98.2618 Q146.44 91.1322 144.611 87.5905 Q142.806 84.0257 139.171 84.0257 M139.171 80.322 Q144.982 80.322 148.037 84.9285 Q151.116 89.5118 151.116 98.2618 Q151.116 106.989 148.037 111.595 Q144.982 116.178 139.171 116.178 Q133.361 116.178 130.283 111.595 Q127.227 106.989 127.227 98.2618 Q127.227 89.5118 130.283 84.9285 Q133.361 80.322 139.171 80.322 Z" fill="#000000" fill-rule="evenodd" fill-opacity="1" /><path clip-path="url(#clip980)" d="M169.333 84.0257 Q165.722 84.0257 163.893 87.5905 Q162.088 91.1322 162.088 98.2618 Q162.088 105.368 163.893 108.933 Q165.722 112.475 169.333 112.475 Q172.968 112.475 174.773 108.933 Q176.602 105.368 176.602 98.2618 Q176.602 91.1322 174.773 87.5905 Q172.968 84.0257 169.333 84.0257 M169.333 80.322 Q175.143 80.322 178.199 84.9285 Q181.278 89.5118 181.278 98.2618 Q181.278 106.989 178.199 111.595 Q175.143 116.178 169.333 116.178 Q163.523 116.178 160.444 111.595 Q157.389 106.989 157.389 98.2618 Q157.389 89.5118 160.444 84.9285 Q163.523 80.322 169.333 80.322 Z" fill="#000000" fill-rule="evenodd" fill-opacity="1" /><path clip-path="url(#clip980)" d="M56.315 754.987 Q56.6049 754.729 56.8947 754.729 Q57.1846 754.729 58.0219 755.373 Q58.8593 755.985 59.9865 757.305 Q61.1137 758.626 62.1765 760.333 Q63.2393 762.04 63.9478 764.552 Q64.6885 767.064 64.6885 769.705 Q64.6885 774.439 61.3069 777.273 Q57.9253 780.075 52.7402 780.075 Q49.4229 780.075 46.4922 778.98 Q43.5293 777.885 41.4359 776.114 Q39.3425 774.31 37.8288 772.056 Q36.283 769.769 35.5422 767.386 Q34.8015 765.003 34.8015 762.78 Q34.8015 759.528 36.444 757.628 Q38.0865 755.727 40.4053 755.727 Q40.9528 755.727 41.6291 755.888 Q42.3055 756.017 43.3682 756.468 Q44.431 756.887 45.4938 757.982 Q46.5244 759.077 47.2007 760.687 Q48.7144 764.262 48.7144 770.767 L48.7144 774.278 Q52.869 775.309 55.5743 775.309 Q56.6371 775.309 57.7321 775.115 Q58.7949 774.922 60.1475 774.407 Q61.5001 773.859 62.3697 772.635 Q63.2071 771.379 63.2071 769.576 Q63.2071 768.996 63.1749 768.384 Q63.1426 767.74 62.7884 766.13 Q62.4341 764.487 61.8222 763.038 Q61.2103 761.589 59.8899 759.753 Q58.5372 757.885 56.7015 756.404 Q56.0252 755.888 56.0252 755.534 Q56.0252 755.244 56.315 754.987 M40.4053 757.917 Q38.634 757.917 37.4424 759.238 Q36.2508 760.526 36.2508 762.78 Q36.2508 763.489 36.4118 764.359 Q36.5728 765.228 37.2491 766.677 Q37.9255 768.094 39.0527 769.35 Q40.1477 770.606 42.3055 771.862 Q44.431 773.119 47.2652 773.859 L47.2652 771.154 Q47.2652 770.22 47.2652 769.544 Q47.233 768.867 47.1041 767.386 Q46.9753 765.872 46.7499 764.777 Q46.4922 763.682 45.9769 762.297 Q45.4616 760.913 44.7853 760.043 Q44.0768 759.141 42.9496 758.529 Q41.8224 757.917 40.4053 757.917 Z" fill="#000000" fill-rule="evenodd" fill-opacity="1" /><path clip-path="url(#clip980)" d="M23.2635 724.946 Q24.526 724.946 25.2474 725.735 Q25.9463 726.524 25.9463 727.426 Q25.9463 728.283 25.4503 728.734 Q24.9543 729.185 24.3231 729.185 Q23.4664 729.185 22.7225 728.553 Q21.9785 727.922 21.8207 726.975 Q21.2346 727.9 21.2346 729.275 Q21.2346 730.176 21.708 730.966 Q22.1814 731.732 22.7901 732.205 Q23.3988 732.656 24.278 733.062 Q25.1347 733.445 25.6532 733.603 Q26.1492 733.738 26.6902 733.851 L33.0026 735.429 Q36.0009 736.196 37.0605 736.196 Q38.3681 736.196 39.2473 735.565 Q40.104 734.933 40.104 733.671 Q40.104 733.175 39.9687 732.611 Q39.8109 732.048 39.4051 731.326 Q38.9768 730.582 38.3455 729.929 Q37.6917 729.252 36.5871 728.598 Q35.4824 727.945 34.0621 727.516 Q33.5662 727.381 33.5662 726.93 Q33.5662 726.367 34.0171 726.367 Q34.4003 726.367 35.2119 726.682 Q36.0009 726.975 37.038 727.629 Q38.0525 728.26 38.9768 729.094 Q39.8785 729.929 40.5098 731.168 Q41.141 732.408 41.141 733.761 Q41.141 735.7 40.104 736.985 Q39.0669 738.27 37.6241 738.743 Q37.827 738.856 38.0975 739.014 Q38.3681 739.172 38.9768 739.645 Q39.5629 740.096 40.0138 740.614 Q40.4421 741.133 40.7803 741.945 Q41.141 742.734 41.141 743.59 Q41.141 744.672 40.8254 745.642 Q40.5098 746.589 39.7883 747.265 Q39.0669 747.941 38.075 747.941 Q36.9703 747.941 36.2038 747.197 Q35.4148 746.431 35.4148 745.394 Q35.4148 744.74 35.798 744.221 Q36.1813 743.68 37.0154 743.68 Q37.9397 743.68 38.6386 744.312 Q39.3375 744.943 39.5178 745.845 Q40.104 744.92 40.104 743.545 Q40.104 742.057 38.7964 740.885 Q37.4889 739.713 35.3021 739.149 Q30.0493 737.751 27.7047 737.21 Q25.3376 736.669 24.3231 736.669 Q23.3762 736.669 22.7225 736.917 Q22.0687 737.165 21.7756 737.593 Q21.46 737.999 21.3473 738.383 Q21.2346 738.743 21.2346 739.149 Q21.2346 739.825 21.5051 740.592 Q21.7756 741.336 22.4068 742.238 Q23.0155 743.117 24.278 743.951 Q25.5405 744.785 27.2764 745.349 Q27.7949 745.461 27.7949 745.957 Q27.7723 746.498 27.3215 746.498 Q26.9382 746.498 26.1492 746.205 Q25.3376 745.89 24.3231 745.258 Q23.3086 744.605 22.4068 743.771 Q21.4825 742.914 20.8513 741.674 Q20.2201 740.412 20.2201 739.059 Q20.2201 738.45 20.3553 737.864 Q20.4681 737.255 20.8062 736.534 Q21.1444 735.79 21.8883 735.136 Q22.6323 734.482 23.7144 734.077 Q23.1959 733.806 22.6999 733.445 Q22.2039 733.062 21.5953 732.476 Q20.964 731.867 20.6033 731.033 Q20.2201 730.176 20.2201 729.23 Q20.2201 728.305 20.4681 727.404 Q20.6935 726.502 21.4374 725.735 Q22.1589 724.946 23.2635 724.946 Z" fill="#000000" fill-rule="evenodd" fill-opacity="1" /><polyline clip-path="url(#clip983)" style="stroke:#009af9; stroke-linecap:butt; stroke-linejoin:round; stroke-width:4; stroke-opacity:1; fill:none" points="
  277.716,1411.23 297.39,1411.23 479.307,1411.21 588.631,1411.19 681.063,1411.15 781.471,1411.08 874.038,1410.96 973.279,1410.73 1088.26,1410.22 1190.44,1409.37 
  1280.05,1408.05 1377.74,1405.54 1476.01,1401 1584.66,1391.68 1688.04,1375.03 1741.79,1361.37 1795.54,1342.56 1840.78,1321.31 1886.02,1293.5 1913.64,1272.44 
  1941.26,1247.62 1968.88,1218.37 1996.49,1183.88 2022.46,1145.85 2048.42,1101.47 2074.38,1049.67 2100.34,989.196 2121.14,933.539 2141.94,870.543 2162.73,799.239 
  2183.53,718.532 2204.32,627.182 2225.12,523.786 2245.92,406.754 2266.71,274.289 2273.11,230.103 2279.52,184.2 2285.92,136.512 2292.32,86.9719 
  "/>
</svg>
