<?xml version="1.0" encoding="utf-8"?>
<svg xmlns="http://www.w3.org/2000/svg" xmlns:xlink="http://www.w3.org/1999/xlink" width="600" height="400" viewBox="0 0 2400 1600">
<defs>
  <clipPath id="clip010">
    <rect x="0" y="0" width="2400" height="1600"/>
  </clipPath>
</defs>
<path clip-path="url(#clip010)" d="
M0 1600 L2400 1600 L2400 0 L0 0  Z
  " fill="#ffffff" fill-rule="evenodd" fill-opacity="1"/>
<defs>
  <clipPath id="clip011">
    <rect x="480" y="0" width="1681" height="1600"/>
  </clipPath>
</defs>
<defs>
  <clipPath id="clip012">
    <rect x="217" y="47" width="2136" height="1405"/>
  </clipPath>
</defs>
<path clip-path="url(#clip010)" d="
M264.287 1431.55 L2352.76 1431.55 L2352.76 47.2441 L264.287 47.2441  Z
  " fill="#ffffff" fill-rule="evenodd" fill-opacity="1"/>
<defs>
  <clipPath id="clip013">
    <rect x="264" y="47" width="2089" height="1385"/>
  </clipPath>
</defs>
<polyline clip-path="url(#clip013)" style="stroke:#000000; stroke-linecap:butt; stroke-linejoin:round; stroke-width:2; stroke-opacity:0.1; fill:none" points="
  264.287,1431.55 264.287,47.2441 
  "/>
<polyline clip-path="url(#clip013)" style="stroke:#000000; stroke-linecap:butt; stroke-linejoin:round; stroke-width:2; stroke-opacity:0.1; fill:none" points="
  681.981,1431.55 681.981,47.2441 
  "/>
<polyline clip-path="url(#clip013)" style="stroke:#000000; stroke-linecap:butt; stroke-linejoin:round; stroke-width:2; stroke-opacity:0.1; fill:none" points="
  1099.67,1431.55 1099.67,47.2441 
  "/>
<polyline clip-path="url(#clip013)" style="stroke:#000000; stroke-linecap:butt; stroke-linejoin:round; stroke-width:2; stroke-opacity:0.1; fill:none" points="
  1517.37,1431.55 1517.37,47.2441 
  "/>
<polyline clip-path="url(#clip013)" style="stroke:#000000; stroke-linecap:butt; stroke-linejoin:round; stroke-width:2; stroke-opacity:0.1; fill:none" points="
  1935.06,1431.55 1935.06,47.2441 
  "/>
<polyline clip-path="url(#clip013)" style="stroke:#000000; stroke-linecap:butt; stroke-linejoin:round; stroke-width:2; stroke-opacity:0.1; fill:none" points="
  2352.76,1431.55 2352.76,47.2441 
  "/>
<polyline clip-path="url(#clip010)" style="stroke:#000000; stroke-linecap:butt; stroke-linejoin:round; stroke-width:4; stroke-opacity:1; fill:none" points="
  264.287,1431.55 2352.76,1431.55 
  "/>
<polyline clip-path="url(#clip010)" style="stroke:#000000; stroke-linecap:butt; stroke-linejoin:round; stroke-width:4; stroke-opacity:1; fill:none" points="
  264.287,1431.55 264.287,1412.66 
  "/>
<polyline clip-path="url(#clip010)" style="stroke:#000000; stroke-linecap:butt; stroke-linejoin:round; stroke-width:4; stroke-opacity:1; fill:none" points="
  681.981,1431.55 681.981,1412.66 
  "/>
<polyline clip-path="url(#clip010)" style="stroke:#000000; stroke-linecap:butt; stroke-linejoin:round; stroke-width:4; stroke-opacity:1; fill:none" points="
  1099.67,1431.55 1099.67,1412.66 
  "/>
<polyline clip-path="url(#clip010)" style="stroke:#000000; stroke-linecap:butt; stroke-linejoin:round; stroke-width:4; stroke-opacity:1; fill:none" points="
  1517.37,1431.55 1517.37,1412.66 
  "/>
<polyline clip-path="url(#clip010)" style="stroke:#000000; stroke-linecap:butt; stroke-linejoin:round; stroke-width:4; stroke-opacity:1; fill:none" points="
  1935.06,1431.55 1935.06,1412.66 
  "/>
<polyline clip-path="url(#clip010)" style="stroke:#000000; stroke-linecap:butt; stroke-linejoin:round; stroke-width:4; stroke-opacity:1; fill:none" points="
  2352.76,1431.55 2352.76,1412.66 
  "/>
<path clip-path="url(#clip010)" d="M196.429 1460.74 Q192.818 1460.74 190.989 1464.31 Q189.184 1467.85 189.184 1474.98 Q189.184 1482.09 190.989 1485.65 Q192.818 1489.19 196.429 1489.19 Q200.063 1489.19 201.869 1485.65 Q203.697 1482.09 203.697 1474.98 Q203.697 1467.85 201.869 1464.31 Q200.063 1460.74 196.429 1460.74 M196.429 1457.04 Q202.239 1457.04 205.295 1461.65 Q208.373 1466.23 208.373 1474.98 Q208.373 1483.71 205.295 1488.31 Q202.239 1492.9 196.429 1492.9 Q190.619 1492.9 187.54 1488.31 Q184.485 1483.71 184.485 1474.98 Q184.485 1466.23 187.54 1461.65 Q190.619 1457.04 196.429 1457.04 Z" fill="#000000" fill-rule="evenodd" fill-opacity="1" /><path clip-path="url(#clip010)" d="M216.591 1486.35 L221.475 1486.35 L221.475 1492.23 L216.591 1492.23 L216.591 1486.35 Z" fill="#000000" fill-rule="evenodd" fill-opacity="1" /><path clip-path="url(#clip010)" d="M241.66 1460.74 Q238.049 1460.74 236.22 1464.31 Q234.415 1467.85 234.415 1474.98 Q234.415 1482.09 236.22 1485.65 Q238.049 1489.19 241.66 1489.19 Q245.294 1489.19 247.1 1485.65 Q248.929 1482.09 248.929 1474.98 Q248.929 1467.85 247.1 1464.31 Q245.294 1460.74 241.66 1460.74 M241.66 1457.04 Q247.47 1457.04 250.526 1461.65 Q253.605 1466.23 253.605 1474.98 Q253.605 1483.71 250.526 1488.31 Q247.47 1492.9 241.66 1492.9 Q235.85 1492.9 232.771 1488.31 Q229.716 1483.71 229.716 1474.98 Q229.716 1466.23 232.771 1461.65 Q235.85 1457.04 241.66 1457.04 Z" fill="#000000" fill-rule="evenodd" fill-opacity="1" /><path clip-path="url(#clip010)" d="M271.822 1460.74 Q268.211 1460.74 266.382 1464.31 Q264.577 1467.85 264.577 1474.98 Q264.577 1482.09 266.382 1485.65 Q268.211 1489.19 271.822 1489.19 Q275.456 1489.19 277.262 1485.65 Q279.09 1482.09 279.09 1474.98 Q279.09 1467.85 277.262 1464.31 Q275.456 1460.74 271.822 1460.74 M271.822 1457.04 Q277.632 1457.04 280.688 1461.65 Q283.766 1466.23 283.766 1474.98 Q283.766 1483.71 280.688 1488.31 Q277.632 1492.9 271.822 1492.9 Q266.012 1492.9 262.933 1488.31 Q259.878 1483.71 259.878 1474.98 Q259.878 1466.23 262.933 1461.65 Q266.012 1457.04 271.822 1457.04 Z" fill="#000000" fill-rule="evenodd" fill-opacity="1" /><path clip-path="url(#clip010)" d="M301.984 1460.74 Q298.373 1460.74 296.544 1464.31 Q294.739 1467.85 294.739 1474.98 Q294.739 1482.09 296.544 1485.65 Q298.373 1489.19 301.984 1489.19 Q305.618 1489.19 307.424 1485.65 Q309.252 1482.09 309.252 1474.98 Q309.252 1467.85 307.424 1464.31 Q305.618 1460.74 301.984 1460.74 M301.984 1457.04 Q307.794 1457.04 310.85 1461.65 Q313.928 1466.23 313.928 1474.98 Q313.928 1483.71 310.85 1488.31 Q307.794 1492.9 301.984 1492.9 Q296.174 1492.9 293.095 1488.31 Q290.04 1483.71 290.04 1474.98 Q290.04 1466.23 293.095 1461.65 Q296.174 1457.04 301.984 1457.04 Z" fill="#000000" fill-rule="evenodd" fill-opacity="1" /><path clip-path="url(#clip010)" d="M332.146 1460.74 Q328.535 1460.74 326.706 1464.31 Q324.9 1467.85 324.9 1474.98 Q324.9 1482.09 326.706 1485.65 Q328.535 1489.19 332.146 1489.19 Q335.78 1489.19 337.586 1485.65 Q339.414 1482.09 339.414 1474.98 Q339.414 1467.85 337.586 1464.31 Q335.78 1460.74 332.146 1460.74 M332.146 1457.04 Q337.956 1457.04 341.011 1461.65 Q344.09 1466.23 344.09 1474.98 Q344.09 1483.71 341.011 1488.31 Q337.956 1492.9 332.146 1492.9 Q326.336 1492.9 323.257 1488.31 Q320.201 1483.71 320.201 1474.98 Q320.201 1466.23 323.257 1461.65 Q326.336 1457.04 332.146 1457.04 Z" fill="#000000" fill-rule="evenodd" fill-opacity="1" /><path clip-path="url(#clip010)" d="M614.921 1460.74 Q611.31 1460.74 609.481 1464.31 Q607.676 1467.85 607.676 1474.98 Q607.676 1482.09 609.481 1485.65 Q611.31 1489.19 614.921 1489.19 Q618.555 1489.19 620.361 1485.65 Q622.19 1482.09 622.19 1474.98 Q622.19 1467.85 620.361 1464.31 Q618.555 1460.74 614.921 1460.74 M614.921 1457.04 Q620.731 1457.04 623.787 1461.65 Q626.866 1466.23 626.866 1474.98 Q626.866 1483.71 623.787 1488.31 Q620.731 1492.9 614.921 1492.9 Q609.111 1492.9 606.032 1488.31 Q602.977 1483.71 602.977 1474.98 Q602.977 1466.23 606.032 1461.65 Q609.111 1457.04 614.921 1457.04 Z" fill="#000000" fill-rule="evenodd" fill-opacity="1" /><path clip-path="url(#clip010)" d="M635.083 1486.35 L639.967 1486.35 L639.967 1492.23 L635.083 1492.23 L635.083 1486.35 Z" fill="#000000" fill-rule="evenodd" fill-opacity="1" /><path clip-path="url(#clip010)" d="M660.152 1460.74 Q656.541 1460.74 654.713 1464.31 Q652.907 1467.85 652.907 1474.98 Q652.907 1482.09 654.713 1485.65 Q656.541 1489.19 660.152 1489.19 Q663.787 1489.19 665.592 1485.65 Q667.421 1482.09 667.421 1474.98 Q667.421 1467.85 665.592 1464.31 Q663.787 1460.74 660.152 1460.74 M660.152 1457.04 Q665.963 1457.04 669.018 1461.65 Q672.097 1466.23 672.097 1474.98 Q672.097 1483.71 669.018 1488.31 Q665.963 1492.9 660.152 1492.9 Q654.342 1492.9 651.264 1488.31 Q648.208 1483.71 648.208 1474.98 Q648.208 1466.23 651.264 1461.65 Q654.342 1457.04 660.152 1457.04 Z" fill="#000000" fill-rule="evenodd" fill-opacity="1" /><path clip-path="url(#clip010)" d="M690.314 1460.74 Q686.703 1460.74 684.875 1464.31 Q683.069 1467.85 683.069 1474.98 Q683.069 1482.09 684.875 1485.65 Q686.703 1489.19 690.314 1489.19 Q693.949 1489.19 695.754 1485.65 Q697.583 1482.09 697.583 1474.98 Q697.583 1467.85 695.754 1464.31 Q693.949 1460.74 690.314 1460.74 M690.314 1457.04 Q696.124 1457.04 699.18 1461.65 Q702.259 1466.23 702.259 1474.98 Q702.259 1483.71 699.18 1488.31 Q696.124 1492.9 690.314 1492.9 Q684.504 1492.9 681.425 1488.31 Q678.37 1483.71 678.37 1474.98 Q678.37 1466.23 681.425 1461.65 Q684.504 1457.04 690.314 1457.04 Z" fill="#000000" fill-rule="evenodd" fill-opacity="1" /><path clip-path="url(#clip010)" d="M720.476 1460.74 Q716.865 1460.74 715.036 1464.31 Q713.231 1467.85 713.231 1474.98 Q713.231 1482.09 715.036 1485.65 Q716.865 1489.19 720.476 1489.19 Q724.11 1489.19 725.916 1485.65 Q727.745 1482.09 727.745 1474.98 Q727.745 1467.85 725.916 1464.31 Q724.11 1460.74 720.476 1460.74 M720.476 1457.04 Q726.286 1457.04 729.342 1461.65 Q732.421 1466.23 732.421 1474.98 Q732.421 1483.71 729.342 1488.31 Q726.286 1492.9 720.476 1492.9 Q714.666 1492.9 711.587 1488.31 Q708.532 1483.71 708.532 1474.98 Q708.532 1466.23 711.587 1461.65 Q714.666 1457.04 720.476 1457.04 Z" fill="#000000" fill-rule="evenodd" fill-opacity="1" /><path clip-path="url(#clip010)" d="M744.666 1488.29 L760.985 1488.29 L760.985 1492.23 L739.041 1492.23 L739.041 1488.29 Q741.703 1485.54 746.286 1480.91 Q750.893 1476.25 752.073 1474.91 Q754.319 1472.39 755.198 1470.65 Q756.101 1468.89 756.101 1467.2 Q756.101 1464.45 754.157 1462.71 Q752.235 1460.98 749.133 1460.98 Q746.934 1460.98 744.481 1461.74 Q742.05 1462.5 739.272 1464.05 L739.272 1459.33 Q742.096 1458.2 744.55 1457.62 Q747.004 1457.04 749.041 1457.04 Q754.411 1457.04 757.606 1459.73 Q760.8 1462.41 760.8 1466.9 Q760.8 1469.03 759.99 1470.95 Q759.203 1472.85 757.096 1475.44 Q756.518 1476.11 753.416 1479.33 Q750.314 1482.53 744.666 1488.29 Z" fill="#000000" fill-rule="evenodd" fill-opacity="1" /><path clip-path="url(#clip010)" d="M1031.57 1460.74 Q1027.96 1460.74 1026.13 1464.31 Q1024.33 1467.85 1024.33 1474.98 Q1024.33 1482.09 1026.13 1485.65 Q1027.96 1489.19 1031.57 1489.19 Q1035.21 1489.19 1037.01 1485.65 Q1038.84 1482.09 1038.84 1474.98 Q1038.84 1467.85 1037.01 1464.31 Q1035.21 1460.74 1031.57 1460.74 M1031.57 1457.04 Q1037.38 1457.04 1040.44 1461.65 Q1043.52 1466.23 1043.52 1474.98 Q1043.52 1483.71 1040.44 1488.31 Q1037.38 1492.9 1031.57 1492.9 Q1025.76 1492.9 1022.68 1488.31 Q1019.63 1483.71 1019.63 1474.98 Q1019.63 1466.23 1022.68 1461.65 Q1025.76 1457.04 1031.57 1457.04 Z" fill="#000000" fill-rule="evenodd" fill-opacity="1" /><path clip-path="url(#clip010)" d="M1051.74 1486.35 L1056.62 1486.35 L1056.62 1492.23 L1051.74 1492.23 L1051.74 1486.35 Z" fill="#000000" fill-rule="evenodd" fill-opacity="1" /><path clip-path="url(#clip010)" d="M1076.8 1460.74 Q1073.19 1460.74 1071.36 1464.31 Q1069.56 1467.85 1069.56 1474.98 Q1069.56 1482.09 1071.36 1485.65 Q1073.19 1489.19 1076.8 1489.19 Q1080.44 1489.19 1082.24 1485.65 Q1084.07 1482.09 1084.07 1474.98 Q1084.07 1467.85 1082.24 1464.31 Q1080.44 1460.74 1076.8 1460.74 M1076.8 1457.04 Q1082.61 1457.04 1085.67 1461.65 Q1088.75 1466.23 1088.75 1474.98 Q1088.75 1483.71 1085.67 1488.31 Q1082.61 1492.9 1076.8 1492.9 Q1070.99 1492.9 1067.92 1488.31 Q1064.86 1483.71 1064.86 1474.98 Q1064.86 1466.23 1067.92 1461.65 Q1070.99 1457.04 1076.8 1457.04 Z" fill="#000000" fill-rule="evenodd" fill-opacity="1" /><path clip-path="url(#clip010)" d="M1106.97 1460.74 Q1103.36 1460.74 1101.53 1464.31 Q1099.72 1467.85 1099.72 1474.98 Q1099.72 1482.09 1101.53 1485.65 Q1103.36 1489.19 1106.97 1489.19 Q1110.6 1489.19 1112.41 1485.65 Q1114.23 1482.09 1114.23 1474.98 Q1114.23 1467.85 1112.41 1464.31 Q1110.6 1460.74 1106.97 1460.74 M1106.97 1457.04 Q1112.78 1457.04 1115.83 1461.65 Q1118.91 1466.23 1118.91 1474.98 Q1118.91 1483.71 1115.83 1488.31 Q1112.78 1492.9 1106.97 1492.9 Q1101.16 1492.9 1098.08 1488.31 Q1095.02 1483.71 1095.02 1474.98 Q1095.02 1466.23 1098.08 1461.65 Q1101.16 1457.04 1106.97 1457.04 Z" fill="#000000" fill-rule="evenodd" fill-opacity="1" /><path clip-path="url(#clip010)" d="M1137.13 1460.74 Q1133.52 1460.74 1131.69 1464.31 Q1129.88 1467.85 1129.88 1474.98 Q1129.88 1482.09 1131.69 1485.65 Q1133.52 1489.19 1137.13 1489.19 Q1140.76 1489.19 1142.57 1485.65 Q1144.4 1482.09 1144.4 1474.98 Q1144.4 1467.85 1142.57 1464.31 Q1140.76 1460.74 1137.13 1460.74 M1137.13 1457.04 Q1142.94 1457.04 1145.99 1461.65 Q1149.07 1466.23 1149.07 1474.98 Q1149.07 1483.71 1145.99 1488.31 Q1142.94 1492.9 1137.13 1492.9 Q1131.32 1492.9 1128.24 1488.31 Q1125.18 1483.71 1125.18 1474.98 Q1125.18 1466.23 1128.24 1461.65 Q1131.32 1457.04 1137.13 1457.04 Z" fill="#000000" fill-rule="evenodd" fill-opacity="1" /><path clip-path="url(#clip010)" d="M1170.14 1461.74 L1158.33 1480.19 L1170.14 1480.19 L1170.14 1461.74 M1168.91 1457.67 L1174.79 1457.67 L1174.79 1480.19 L1179.72 1480.19 L1179.72 1484.08 L1174.79 1484.08 L1174.79 1492.23 L1170.14 1492.23 L1170.14 1484.08 L1154.54 1484.08 L1154.54 1479.56 L1168.91 1457.67 Z" fill="#000000" fill-rule="evenodd" fill-opacity="1" /><path clip-path="url(#clip010)" d="M1449.43 1460.74 Q1445.82 1460.74 1443.99 1464.31 Q1442.18 1467.85 1442.18 1474.98 Q1442.18 1482.09 1443.99 1485.65 Q1445.82 1489.19 1449.43 1489.19 Q1453.06 1489.19 1454.87 1485.65 Q1456.7 1482.09 1456.7 1474.98 Q1456.7 1467.85 1454.87 1464.31 Q1453.06 1460.74 1449.43 1460.74 M1449.43 1457.04 Q1455.24 1457.04 1458.29 1461.65 Q1461.37 1466.23 1461.37 1474.98 Q1461.37 1483.71 1458.29 1488.31 Q1455.24 1492.9 1449.43 1492.9 Q1443.62 1492.9 1440.54 1488.31 Q1437.48 1483.71 1437.48 1474.98 Q1437.48 1466.23 1440.54 1461.65 Q1443.62 1457.04 1449.43 1457.04 Z" fill="#000000" fill-rule="evenodd" fill-opacity="1" /><path clip-path="url(#clip010)" d="M1469.59 1486.35 L1474.48 1486.35 L1474.48 1492.23 L1469.59 1492.23 L1469.59 1486.35 Z" fill="#000000" fill-rule="evenodd" fill-opacity="1" /><path clip-path="url(#clip010)" d="M1494.66 1460.74 Q1491.05 1460.74 1489.22 1464.31 Q1487.41 1467.85 1487.41 1474.98 Q1487.41 1482.09 1489.22 1485.65 Q1491.05 1489.19 1494.66 1489.19 Q1498.29 1489.19 1500.1 1485.65 Q1501.93 1482.09 1501.93 1474.98 Q1501.93 1467.85 1500.1 1464.31 Q1498.29 1460.74 1494.66 1460.74 M1494.66 1457.04 Q1500.47 1457.04 1503.53 1461.65 Q1506.6 1466.23 1506.6 1474.98 Q1506.6 1483.71 1503.53 1488.31 Q1500.47 1492.9 1494.66 1492.9 Q1488.85 1492.9 1485.77 1488.31 Q1482.72 1483.71 1482.72 1474.98 Q1482.72 1466.23 1485.77 1461.65 Q1488.85 1457.04 1494.66 1457.04 Z" fill="#000000" fill-rule="evenodd" fill-opacity="1" /><path clip-path="url(#clip010)" d="M1524.82 1460.74 Q1521.21 1460.74 1519.38 1464.31 Q1517.58 1467.85 1517.58 1474.98 Q1517.58 1482.09 1519.38 1485.65 Q1521.21 1489.19 1524.82 1489.19 Q1528.46 1489.19 1530.26 1485.65 Q1532.09 1482.09 1532.09 1474.98 Q1532.09 1467.85 1530.26 1464.31 Q1528.46 1460.74 1524.82 1460.74 M1524.82 1457.04 Q1530.63 1457.04 1533.69 1461.65 Q1536.77 1466.23 1536.77 1474.98 Q1536.77 1483.71 1533.69 1488.31 Q1530.63 1492.9 1524.82 1492.9 Q1519.01 1492.9 1515.93 1488.31 Q1512.88 1483.71 1512.88 1474.98 Q1512.88 1466.23 1515.93 1461.65 Q1519.01 1457.04 1524.82 1457.04 Z" fill="#000000" fill-rule="evenodd" fill-opacity="1" /><path clip-path="url(#clip010)" d="M1554.98 1460.74 Q1551.37 1460.74 1549.54 1464.31 Q1547.74 1467.85 1547.74 1474.98 Q1547.74 1482.09 1549.54 1485.65 Q1551.37 1489.19 1554.98 1489.19 Q1558.62 1489.19 1560.42 1485.65 Q1562.25 1482.09 1562.25 1474.98 Q1562.25 1467.85 1560.42 1464.31 Q1558.62 1460.74 1554.98 1460.74 M1554.98 1457.04 Q1560.79 1457.04 1563.85 1461.65 Q1566.93 1466.23 1566.93 1474.98 Q1566.93 1483.71 1563.85 1488.31 Q1560.79 1492.9 1554.98 1492.9 Q1549.17 1492.9 1546.1 1488.31 Q1543.04 1483.71 1543.04 1474.98 Q1543.04 1466.23 1546.1 1461.65 Q1549.17 1457.04 1554.98 1457.04 Z" fill="#000000" fill-rule="evenodd" fill-opacity="1" /><path clip-path="url(#clip010)" d="M1585.72 1473.08 Q1582.58 1473.08 1580.72 1475.24 Q1578.9 1477.39 1578.9 1481.14 Q1578.9 1484.86 1580.72 1487.04 Q1582.58 1489.19 1585.72 1489.19 Q1588.87 1489.19 1590.7 1487.04 Q1592.55 1484.86 1592.55 1481.14 Q1592.55 1477.39 1590.7 1475.24 Q1588.87 1473.08 1585.72 1473.08 M1595.01 1458.43 L1595.01 1462.69 Q1593.25 1461.86 1591.44 1461.42 Q1589.66 1460.98 1587.9 1460.98 Q1583.27 1460.98 1580.82 1464.1 Q1578.39 1467.23 1578.04 1473.55 Q1579.41 1471.53 1581.47 1470.47 Q1583.53 1469.38 1586 1469.38 Q1591.21 1469.38 1594.22 1472.55 Q1597.25 1475.7 1597.25 1481.14 Q1597.25 1486.46 1594.1 1489.68 Q1590.96 1492.9 1585.72 1492.9 Q1579.73 1492.9 1576.56 1488.31 Q1573.39 1483.71 1573.39 1474.98 Q1573.39 1466.79 1577.28 1461.93 Q1581.16 1457.04 1587.72 1457.04 Q1589.47 1457.04 1591.26 1457.39 Q1593.06 1457.74 1595.01 1458.43 Z" fill="#000000" fill-rule="evenodd" fill-opacity="1" /><path clip-path="url(#clip010)" d="M1867.25 1460.74 Q1863.64 1460.74 1861.81 1464.31 Q1860 1467.85 1860 1474.98 Q1860 1482.09 1861.81 1485.65 Q1863.64 1489.19 1867.25 1489.19 Q1870.88 1489.19 1872.69 1485.65 Q1874.52 1482.09 1874.52 1474.98 Q1874.52 1467.85 1872.69 1464.31 Q1870.88 1460.74 1867.25 1460.74 M1867.25 1457.04 Q1873.06 1457.04 1876.12 1461.65 Q1879.19 1466.23 1879.19 1474.98 Q1879.19 1483.71 1876.12 1488.31 Q1873.06 1492.9 1867.25 1492.9 Q1861.44 1492.9 1858.36 1488.31 Q1855.31 1483.71 1855.31 1474.98 Q1855.31 1466.23 1858.36 1461.65 Q1861.44 1457.04 1867.25 1457.04 Z" fill="#000000" fill-rule="evenodd" fill-opacity="1" /><path clip-path="url(#clip010)" d="M1887.41 1486.35 L1892.3 1486.35 L1892.3 1492.23 L1887.41 1492.23 L1887.41 1486.35 Z" fill="#000000" fill-rule="evenodd" fill-opacity="1" /><path clip-path="url(#clip010)" d="M1912.48 1460.74 Q1908.87 1460.74 1907.04 1464.31 Q1905.24 1467.85 1905.24 1474.98 Q1905.24 1482.09 1907.04 1485.65 Q1908.87 1489.19 1912.48 1489.19 Q1916.12 1489.19 1917.92 1485.65 Q1919.75 1482.09 1919.75 1474.98 Q1919.75 1467.85 1917.92 1464.31 Q1916.12 1460.74 1912.48 1460.74 M1912.48 1457.04 Q1918.29 1457.04 1921.35 1461.65 Q1924.43 1466.23 1924.43 1474.98 Q1924.43 1483.71 1921.35 1488.31 Q1918.29 1492.9 1912.48 1492.9 Q1906.67 1492.9 1903.59 1488.31 Q1900.54 1483.71 1900.54 1474.98 Q1900.54 1466.23 1903.59 1461.65 Q1906.67 1457.04 1912.48 1457.04 Z" fill="#000000" fill-rule="evenodd" fill-opacity="1" /><path clip-path="url(#clip010)" d="M1942.64 1460.74 Q1939.03 1460.74 1937.2 1464.31 Q1935.4 1467.85 1935.4 1474.98 Q1935.4 1482.09 1937.2 1485.65 Q1939.03 1489.19 1942.64 1489.19 Q1946.28 1489.19 1948.08 1485.65 Q1949.91 1482.09 1949.91 1474.98 Q1949.91 1467.85 1948.08 1464.31 Q1946.28 1460.74 1942.64 1460.74 M1942.64 1457.04 Q1948.45 1457.04 1951.51 1461.65 Q1954.59 1466.23 1954.59 1474.98 Q1954.59 1483.71 1951.51 1488.31 Q1948.45 1492.9 1942.64 1492.9 Q1936.83 1492.9 1933.75 1488.31 Q1930.7 1483.71 1930.7 1474.98 Q1930.7 1466.23 1933.75 1461.65 Q1936.83 1457.04 1942.64 1457.04 Z" fill="#000000" fill-rule="evenodd" fill-opacity="1" /><path clip-path="url(#clip010)" d="M1972.81 1460.74 Q1969.19 1460.74 1967.37 1464.31 Q1965.56 1467.85 1965.56 1474.98 Q1965.56 1482.09 1967.37 1485.65 Q1969.19 1489.19 1972.81 1489.19 Q1976.44 1489.19 1978.24 1485.65 Q1980.07 1482.09 1980.07 1474.98 Q1980.07 1467.85 1978.24 1464.31 Q1976.44 1460.74 1972.81 1460.74 M1972.81 1457.04 Q1978.62 1457.04 1981.67 1461.65 Q1984.75 1466.23 1984.75 1474.98 Q1984.75 1483.71 1981.67 1488.31 Q1978.62 1492.9 1972.81 1492.9 Q1966.99 1492.9 1963.92 1488.31 Q1960.86 1483.71 1960.86 1474.98 Q1960.86 1466.23 1963.92 1461.65 Q1966.99 1457.04 1972.81 1457.04 Z" fill="#000000" fill-rule="evenodd" fill-opacity="1" /><path clip-path="url(#clip010)" d="M2002.97 1475.81 Q1999.63 1475.81 1997.71 1477.6 Q1995.81 1479.38 1995.81 1482.5 Q1995.81 1485.63 1997.71 1487.41 Q1999.63 1489.19 2002.97 1489.19 Q2006.3 1489.19 2008.22 1487.41 Q2010.14 1485.61 2010.14 1482.5 Q2010.14 1479.38 2008.22 1477.6 Q2006.32 1475.81 2002.97 1475.81 M1998.29 1473.82 Q1995.28 1473.08 1993.59 1471.02 Q1991.93 1468.96 1991.93 1466 Q1991.93 1461.86 1994.87 1459.45 Q1997.83 1457.04 2002.97 1457.04 Q2008.13 1457.04 2011.07 1459.45 Q2014.01 1461.86 2014.01 1466 Q2014.01 1468.96 2012.32 1471.02 Q2010.65 1473.08 2007.67 1473.82 Q2011.05 1474.61 2012.92 1476.9 Q2014.82 1479.19 2014.82 1482.5 Q2014.82 1487.53 2011.74 1490.21 Q2008.68 1492.9 2002.97 1492.9 Q1997.25 1492.9 1994.17 1490.21 Q1991.12 1487.53 1991.12 1482.5 Q1991.12 1479.19 1993.01 1476.9 Q1994.91 1474.61 1998.29 1473.82 M1996.58 1466.44 Q1996.58 1469.12 1998.24 1470.63 Q1999.93 1472.13 2002.97 1472.13 Q2005.98 1472.13 2007.67 1470.63 Q2009.38 1469.12 2009.38 1466.44 Q2009.38 1463.75 2007.67 1462.25 Q2005.98 1460.74 2002.97 1460.74 Q1999.93 1460.74 1998.24 1462.25 Q1996.58 1463.75 1996.58 1466.44 Z" fill="#000000" fill-rule="evenodd" fill-opacity="1" /><path clip-path="url(#clip010)" d="M2284.9 1460.74 Q2281.29 1460.74 2279.46 1464.31 Q2277.65 1467.85 2277.65 1474.98 Q2277.65 1482.09 2279.46 1485.65 Q2281.29 1489.19 2284.9 1489.19 Q2288.53 1489.19 2290.34 1485.65 Q2292.17 1482.09 2292.17 1474.98 Q2292.17 1467.85 2290.34 1464.31 Q2288.53 1460.74 2284.9 1460.74 M2284.9 1457.04 Q2290.71 1457.04 2293.76 1461.65 Q2296.84 1466.23 2296.84 1474.98 Q2296.84 1483.71 2293.76 1488.31 Q2290.71 1492.9 2284.9 1492.9 Q2279.09 1492.9 2276.01 1488.31 Q2272.95 1483.71 2272.95 1474.98 Q2272.95 1466.23 2276.01 1461.65 Q2279.09 1457.04 2284.9 1457.04 Z" fill="#000000" fill-rule="evenodd" fill-opacity="1" /><path clip-path="url(#clip010)" d="M2305.06 1486.35 L2309.94 1486.35 L2309.94 1492.23 L2305.06 1492.23 L2305.06 1486.35 Z" fill="#000000" fill-rule="evenodd" fill-opacity="1" /><path clip-path="url(#clip010)" d="M2330.13 1460.74 Q2326.52 1460.74 2324.69 1464.31 Q2322.88 1467.85 2322.88 1474.98 Q2322.88 1482.09 2324.69 1485.65 Q2326.52 1489.19 2330.13 1489.19 Q2333.76 1489.19 2335.57 1485.65 Q2337.4 1482.09 2337.4 1474.98 Q2337.4 1467.85 2335.57 1464.31 Q2333.76 1460.74 2330.13 1460.74 M2330.13 1457.04 Q2335.94 1457.04 2338.99 1461.65 Q2342.07 1466.23 2342.07 1474.98 Q2342.07 1483.71 2338.99 1488.31 Q2335.94 1492.9 2330.13 1492.9 Q2324.32 1492.9 2321.24 1488.31 Q2318.18 1483.71 2318.18 1474.98 Q2318.18 1466.23 2321.24 1461.65 Q2324.32 1457.04 2330.13 1457.04 Z" fill="#000000" fill-rule="evenodd" fill-opacity="1" /><path clip-path="url(#clip010)" d="M2360.29 1460.74 Q2356.68 1460.74 2354.85 1464.31 Q2353.05 1467.85 2353.05 1474.98 Q2353.05 1482.09 2354.85 1485.65 Q2356.68 1489.19 2360.29 1489.19 Q2363.92 1489.19 2365.73 1485.65 Q2367.56 1482.09 2367.56 1474.98 Q2367.56 1467.85 2365.73 1464.31 Q2363.92 1460.74 2360.29 1460.74 M2360.29 1457.04 Q2366.1 1457.04 2369.16 1461.65 Q2372.23 1466.23 2372.23 1474.98 Q2372.23 1483.71 2369.16 1488.31 Q2366.1 1492.9 2360.29 1492.9 Q2354.48 1492.9 2351.4 1488.31 Q2348.35 1483.71 2348.35 1474.98 Q2348.35 1466.23 2351.4 1461.65 Q2354.48 1457.04 2360.29 1457.04 Z" fill="#000000" fill-rule="evenodd" fill-opacity="1" /><path clip-path="url(#clip010)" d="M2381.26 1488.29 L2388.9 1488.29 L2388.9 1461.93 L2380.59 1463.59 L2380.59 1459.33 L2388.86 1457.67 L2393.53 1457.67 L2393.53 1488.29 L2401.17 1488.29 L2401.17 1492.23 L2381.26 1492.23 L2381.26 1488.29 Z" fill="#000000" fill-rule="evenodd" fill-opacity="1" /><path clip-path="url(#clip010)" d="M2420.61 1460.74 Q2417 1460.74 2415.17 1464.31 Q2413.37 1467.85 2413.37 1474.98 Q2413.37 1482.09 2415.17 1485.65 Q2417 1489.19 2420.61 1489.19 Q2424.25 1489.19 2426.05 1485.65 Q2427.88 1482.09 2427.88 1474.98 Q2427.88 1467.85 2426.05 1464.31 Q2424.25 1460.74 2420.61 1460.74 M2420.61 1457.04 Q2426.42 1457.04 2429.48 1461.65 Q2432.56 1466.23 2432.56 1474.98 Q2432.56 1483.71 2429.48 1488.31 Q2426.42 1492.9 2420.61 1492.9 Q2414.8 1492.9 2411.73 1488.31 Q2408.67 1483.71 2408.67 1474.98 Q2408.67 1466.23 2411.73 1461.65 Q2414.8 1457.04 2420.61 1457.04 Z" fill="#000000" fill-rule="evenodd" fill-opacity="1" /><path clip-path="url(#clip010)" d="M1323.65 1541.56 Q1323.65 1544.81 1321.98 1548.06 Q1320.3 1551.31 1317.57 1553.83 Q1314.83 1556.31 1311.09 1557.92 Q1307.36 1559.53 1303.46 1559.66 L1300.95 1569.48 Q1300.46 1571.86 1300.21 1572.12 Q1299.95 1572.38 1299.56 1572.38 Q1298.76 1572.38 1298.76 1571.64 Q1298.76 1571.41 1300.21 1565.84 L1301.75 1559.66 Q1295.89 1559.33 1292.48 1555.95 Q1289.06 1552.57 1289.06 1547.71 Q1289.06 1544.42 1290.74 1541.17 Q1292.45 1537.88 1295.18 1535.4 Q1297.95 1532.92 1301.69 1531.35 Q1305.42 1529.77 1309.26 1529.64 L1313.09 1514.41 Q1313.28 1513.54 1313.44 1513.31 Q1313.6 1513.09 1314.09 1513.09 Q1314.44 1513.09 1314.63 1513.25 Q1314.83 1513.41 1314.83 1513.57 L1314.86 1513.73 L1314.67 1514.66 L1310.96 1529.64 Q1314.25 1529.86 1316.79 1531.02 Q1319.34 1532.18 1320.79 1533.92 Q1322.24 1535.63 1322.94 1537.56 Q1323.65 1539.49 1323.65 1541.56 M1308.87 1531.09 Q1305.33 1531.41 1302.33 1533.15 Q1299.34 1534.89 1297.4 1537.47 Q1295.47 1540.01 1294.41 1543.07 Q1293.35 1546.1 1293.35 1549.09 Q1293.35 1551.44 1294.12 1553.25 Q1294.92 1555.05 1296.25 1556.08 Q1297.57 1557.08 1299.02 1557.63 Q1300.5 1558.14 1302.07 1558.21 L1308.87 1531.09 M1319.34 1540.17 Q1319.34 1535.98 1316.92 1533.63 Q1314.51 1531.28 1310.58 1531.09 L1303.78 1558.21 Q1306.65 1557.98 1309.16 1556.79 Q1311.7 1555.57 1313.54 1553.76 Q1315.38 1551.93 1316.7 1549.67 Q1318.02 1547.38 1318.66 1544.97 Q1319.34 1542.52 1319.34 1540.17 Z" fill="#000000" fill-rule="evenodd" fill-opacity="1" /><polyline clip-path="url(#clip013)" style="stroke:#000000; stroke-linecap:butt; stroke-linejoin:round; stroke-width:2; stroke-opacity:0.1; fill:none" points="
  264.287,1392.38 2352.76,1392.38 
  "/>
<polyline clip-path="url(#clip013)" style="stroke:#000000; stroke-linecap:butt; stroke-linejoin:round; stroke-width:2; stroke-opacity:0.1; fill:none" points="
  264.287,1044.99 2352.76,1044.99 
  "/>
<polyline clip-path="url(#clip013)" style="stroke:#000000; stroke-linecap:butt; stroke-linejoin:round; stroke-width:2; stroke-opacity:0.1; fill:none" points="
  264.287,697.594 2352.76,697.594 
  "/>
<polyline clip-path="url(#clip013)" style="stroke:#000000; stroke-linecap:butt; stroke-linejoin:round; stroke-width:2; stroke-opacity:0.1; fill:none" points="
  264.287,350.201 2352.76,350.201 
  "/>
<polyline clip-path="url(#clip010)" style="stroke:#000000; stroke-linecap:butt; stroke-linejoin:round; stroke-width:4; stroke-opacity:1; fill:none" points="
  264.287,1431.55 264.287,47.2441 
  "/>
<polyline clip-path="url(#clip010)" style="stroke:#000000; stroke-linecap:butt; stroke-linejoin:round; stroke-width:4; stroke-opacity:1; fill:none" points="
  264.287,1392.38 283.185,1392.38 
  "/>
<polyline clip-path="url(#clip010)" style="stroke:#000000; stroke-linecap:butt; stroke-linejoin:round; stroke-width:4; stroke-opacity:1; fill:none" points="
  264.287,1044.99 283.185,1044.99 
  "/>
<polyline clip-path="url(#clip010)" style="stroke:#000000; stroke-linecap:butt; stroke-linejoin:round; stroke-width:4; stroke-opacity:1; fill:none" points="
  264.287,697.594 283.185,697.594 
  "/>
<polyline clip-path="url(#clip010)" style="stroke:#000000; stroke-linecap:butt; stroke-linejoin:round; stroke-width:4; stroke-opacity:1; fill:none" points="
  264.287,350.201 283.185,350.201 
  "/>
<path clip-path="url(#clip010)" d="M216.343 1378.18 Q212.732 1378.18 210.903 1381.74 Q209.098 1385.28 209.098 1392.41 Q209.098 1399.52 210.903 1403.09 Q212.732 1406.63 216.343 1406.63 Q219.977 1406.63 221.783 1403.09 Q223.611 1399.52 223.611 1392.41 Q223.611 1385.28 221.783 1381.74 Q219.977 1378.18 216.343 1378.18 M216.343 1374.47 Q222.153 1374.47 225.209 1379.08 Q228.287 1383.66 228.287 1392.41 Q228.287 1401.14 225.209 1405.75 Q222.153 1410.33 216.343 1410.33 Q210.533 1410.33 207.454 1405.75 Q204.399 1401.14 204.399 1392.41 Q204.399 1383.66 207.454 1379.08 Q210.533 1374.47 216.343 1374.47 Z" fill="#000000" fill-rule="evenodd" fill-opacity="1" /><path clip-path="url(#clip010)" d="M116.668 1058.33 L124.306 1058.33 L124.306 1031.97 L115.996 1033.63 L115.996 1029.37 L124.26 1027.71 L128.936 1027.71 L128.936 1058.33 L136.575 1058.33 L136.575 1062.27 L116.668 1062.27 L116.668 1058.33 Z" fill="#000000" fill-rule="evenodd" fill-opacity="1" /><path clip-path="url(#clip010)" d="M156.019 1030.79 Q152.408 1030.79 150.579 1034.35 Q148.774 1037.89 148.774 1045.02 Q148.774 1052.13 150.579 1055.69 Q152.408 1059.23 156.019 1059.23 Q159.653 1059.23 161.459 1055.69 Q163.288 1052.13 163.288 1045.02 Q163.288 1037.89 161.459 1034.35 Q159.653 1030.79 156.019 1030.79 M156.019 1027.08 Q161.829 1027.08 164.885 1031.69 Q167.964 1036.27 167.964 1045.02 Q167.964 1053.75 164.885 1058.35 Q161.829 1062.94 156.019 1062.94 Q150.209 1062.94 147.13 1058.35 Q144.075 1053.75 144.075 1045.02 Q144.075 1036.27 147.13 1031.69 Q150.209 1027.08 156.019 1027.08 Z" fill="#000000" fill-rule="evenodd" fill-opacity="1" /><path clip-path="url(#clip010)" d="M186.181 1030.79 Q182.57 1030.79 180.741 1034.35 Q178.936 1037.89 178.936 1045.02 Q178.936 1052.13 180.741 1055.69 Q182.57 1059.23 186.181 1059.23 Q189.815 1059.23 191.621 1055.69 Q193.45 1052.13 193.45 1045.02 Q193.45 1037.89 191.621 1034.35 Q189.815 1030.79 186.181 1030.79 M186.181 1027.08 Q191.991 1027.08 195.047 1031.69 Q198.125 1036.27 198.125 1045.02 Q198.125 1053.75 195.047 1058.35 Q191.991 1062.94 186.181 1062.94 Q180.371 1062.94 177.292 1058.35 Q174.237 1053.75 174.237 1045.02 Q174.237 1036.27 177.292 1031.69 Q180.371 1027.08 186.181 1027.08 Z" fill="#000000" fill-rule="evenodd" fill-opacity="1" /><path clip-path="url(#clip010)" d="M216.343 1030.79 Q212.732 1030.79 210.903 1034.35 Q209.098 1037.89 209.098 1045.02 Q209.098 1052.13 210.903 1055.69 Q212.732 1059.23 216.343 1059.23 Q219.977 1059.23 221.783 1055.69 Q223.611 1052.13 223.611 1045.02 Q223.611 1037.89 221.783 1034.35 Q219.977 1030.79 216.343 1030.79 M216.343 1027.08 Q222.153 1027.08 225.209 1031.69 Q228.287 1036.27 228.287 1045.02 Q228.287 1053.75 225.209 1058.35 Q222.153 1062.94 216.343 1062.94 Q210.533 1062.94 207.454 1058.35 Q204.399 1053.75 204.399 1045.02 Q204.399 1036.27 207.454 1031.69 Q210.533 1027.08 216.343 1027.08 Z" fill="#000000" fill-rule="evenodd" fill-opacity="1" /><path clip-path="url(#clip010)" d="M119.885 710.939 L136.204 710.939 L136.204 714.874 L114.26 714.874 L114.26 710.939 Q116.922 708.184 121.505 703.554 Q126.112 698.902 127.292 697.559 Q129.538 695.036 130.417 693.3 Q131.32 691.54 131.32 689.851 Q131.32 687.096 129.376 685.36 Q127.455 683.624 124.353 683.624 Q122.154 683.624 119.7 684.388 Q117.269 685.152 114.492 686.703 L114.492 681.98 Q117.316 680.846 119.769 680.267 Q122.223 679.689 124.26 679.689 Q129.63 679.689 132.825 682.374 Q136.019 685.059 136.019 689.55 Q136.019 691.679 135.209 693.601 Q134.422 695.499 132.316 698.091 Q131.737 698.763 128.635 701.98 Q125.533 705.175 119.885 710.939 Z" fill="#000000" fill-rule="evenodd" fill-opacity="1" /><path clip-path="url(#clip010)" d="M156.019 683.392 Q152.408 683.392 150.579 686.957 Q148.774 690.499 148.774 697.628 Q148.774 704.735 150.579 708.3 Q152.408 711.841 156.019 711.841 Q159.653 711.841 161.459 708.3 Q163.288 704.735 163.288 697.628 Q163.288 690.499 161.459 686.957 Q159.653 683.392 156.019 683.392 M156.019 679.689 Q161.829 679.689 164.885 684.295 Q167.964 688.878 167.964 697.628 Q167.964 706.355 164.885 710.962 Q161.829 715.545 156.019 715.545 Q150.209 715.545 147.13 710.962 Q144.075 706.355 144.075 697.628 Q144.075 688.878 147.13 684.295 Q150.209 679.689 156.019 679.689 Z" fill="#000000" fill-rule="evenodd" fill-opacity="1" /><path clip-path="url(#clip010)" d="M186.181 683.392 Q182.57 683.392 180.741 686.957 Q178.936 690.499 178.936 697.628 Q178.936 704.735 180.741 708.3 Q182.57 711.841 186.181 711.841 Q189.815 711.841 191.621 708.3 Q193.45 704.735 193.45 697.628 Q193.45 690.499 191.621 686.957 Q189.815 683.392 186.181 683.392 M186.181 679.689 Q191.991 679.689 195.047 684.295 Q198.125 688.878 198.125 697.628 Q198.125 706.355 195.047 710.962 Q191.991 715.545 186.181 715.545 Q180.371 715.545 177.292 710.962 Q174.237 706.355 174.237 697.628 Q174.237 688.878 177.292 684.295 Q180.371 679.689 186.181 679.689 Z" fill="#000000" fill-rule="evenodd" fill-opacity="1" /><path clip-path="url(#clip010)" d="M216.343 683.392 Q212.732 683.392 210.903 686.957 Q209.098 690.499 209.098 697.628 Q209.098 704.735 210.903 708.3 Q212.732 711.841 216.343 711.841 Q219.977 711.841 221.783 708.3 Q223.611 704.735 223.611 697.628 Q223.611 690.499 221.783 686.957 Q219.977 683.392 216.343 683.392 M216.343 679.689 Q222.153 679.689 225.209 684.295 Q228.287 688.878 228.287 697.628 Q228.287 706.355 225.209 710.962 Q222.153 715.545 216.343 715.545 Q210.533 715.545 207.454 710.962 Q204.399 706.355 204.399 697.628 Q204.399 688.878 207.454 684.295 Q210.533 679.689 216.343 679.689 Z" fill="#000000" fill-rule="evenodd" fill-opacity="1" /><path clip-path="url(#clip010)" d="M130.024 348.846 Q133.38 349.564 135.255 351.833 Q137.154 354.101 137.154 357.434 Q137.154 362.55 133.635 365.351 Q130.117 368.152 123.635 368.152 Q121.459 368.152 119.144 367.712 Q116.853 367.295 114.399 366.439 L114.399 361.925 Q116.343 363.059 118.658 363.638 Q120.973 364.217 123.496 364.217 Q127.894 364.217 130.186 362.481 Q132.501 360.745 132.501 357.434 Q132.501 354.379 130.348 352.666 Q128.218 350.93 124.399 350.93 L120.371 350.93 L120.371 347.087 L124.584 347.087 Q128.033 347.087 129.862 345.721 Q131.691 344.333 131.691 341.74 Q131.691 339.078 129.792 337.666 Q127.917 336.231 124.399 336.231 Q122.478 336.231 120.279 336.647 Q118.08 337.064 115.441 337.944 L115.441 333.777 Q118.103 333.036 120.418 332.666 Q122.755 332.296 124.816 332.296 Q130.14 332.296 133.242 334.726 Q136.343 337.134 136.343 341.254 Q136.343 344.124 134.7 346.115 Q133.056 348.083 130.024 348.846 Z" fill="#000000" fill-rule="evenodd" fill-opacity="1" /><path clip-path="url(#clip010)" d="M156.019 335.999 Q152.408 335.999 150.579 339.564 Q148.774 343.106 148.774 350.235 Q148.774 357.342 150.579 360.907 Q152.408 364.448 156.019 364.448 Q159.653 364.448 161.459 360.907 Q163.288 357.342 163.288 350.235 Q163.288 343.106 161.459 339.564 Q159.653 335.999 156.019 335.999 M156.019 332.296 Q161.829 332.296 164.885 336.902 Q167.964 341.485 167.964 350.235 Q167.964 358.962 164.885 363.569 Q161.829 368.152 156.019 368.152 Q150.209 368.152 147.13 363.569 Q144.075 358.962 144.075 350.235 Q144.075 341.485 147.13 336.902 Q150.209 332.296 156.019 332.296 Z" fill="#000000" fill-rule="evenodd" fill-opacity="1" /><path clip-path="url(#clip010)" d="M186.181 335.999 Q182.57 335.999 180.741 339.564 Q178.936 343.106 178.936 350.235 Q178.936 357.342 180.741 360.907 Q182.57 364.448 186.181 364.448 Q189.815 364.448 191.621 360.907 Q193.45 357.342 193.45 350.235 Q193.45 343.106 191.621 339.564 Q189.815 335.999 186.181 335.999 M186.181 332.296 Q191.991 332.296 195.047 336.902 Q198.125 341.485 198.125 350.235 Q198.125 358.962 195.047 363.569 Q191.991 368.152 186.181 368.152 Q180.371 368.152 177.292 363.569 Q174.237 358.962 174.237 350.235 Q174.237 341.485 177.292 336.902 Q180.371 332.296 186.181 332.296 Z" fill="#000000" fill-rule="evenodd" fill-opacity="1" /><path clip-path="url(#clip010)" d="M216.343 335.999 Q212.732 335.999 210.903 339.564 Q209.098 343.106 209.098 350.235 Q209.098 357.342 210.903 360.907 Q212.732 364.448 216.343 364.448 Q219.977 364.448 221.783 360.907 Q223.611 357.342 223.611 350.235 Q223.611 343.106 221.783 339.564 Q219.977 335.999 216.343 335.999 M216.343 332.296 Q222.153 332.296 225.209 336.902 Q228.287 341.485 228.287 350.235 Q228.287 358.962 225.209 363.569 Q222.153 368.152 216.343 368.152 Q210.533 368.152 207.454 363.569 Q204.399 358.962 204.399 350.235 Q204.399 341.485 207.454 336.902 Q210.533 332.296 216.343 332.296 Z" fill="#000000" fill-rule="evenodd" fill-opacity="1" /><path clip-path="url(#clip010)" d="M21.7677 852.709 L58.7206 852.709 L58.7206 844.942 Q58.7206 835.107 54.2646 830.556 Q49.8086 825.973 40.1964 825.973 Q30.6479 825.973 26.2237 830.556 Q21.7677 835.107 21.7677 844.942 L21.7677 852.709 M16.4842 859.138 L16.4842 845.929 Q16.4842 832.116 22.2451 825.654 Q27.9743 819.193 40.1964 819.193 Q52.4822 819.193 58.2432 825.686 Q64.0042 832.179 64.0042 845.929 L64.0042 859.138 L16.4842 859.138 Z" fill="#000000" fill-rule="evenodd" fill-opacity="1" /><path clip-path="url(#clip010)" d="M44.7161 778.707 L47.5806 778.707 L47.5806 805.634 Q53.6281 805.252 56.8109 802.006 Q59.9619 798.727 59.9619 792.903 Q59.9619 789.529 59.1344 786.378 Q58.3069 783.195 56.6518 780.076 L62.1899 780.076 Q63.5267 783.227 64.227 786.537 Q64.9272 789.847 64.9272 793.253 Q64.9272 801.783 59.9619 806.78 Q54.9967 811.745 46.5303 811.745 Q37.7774 811.745 32.6531 807.035 Q27.4968 802.292 27.4968 794.271 Q27.4968 787.078 32.1438 782.909 Q36.7589 778.707 44.7161 778.707 M42.9973 784.564 Q38.1912 784.627 35.3266 787.269 Q32.4621 789.879 32.4621 794.208 Q32.4621 799.109 35.2312 802.069 Q38.0002 804.998 43.0292 805.443 L42.9973 784.564 Z" fill="#000000" fill-rule="evenodd" fill-opacity="1" /><path clip-path="url(#clip010)" d="M42.4881 739.463 L64.0042 739.463 L64.0042 745.319 L42.679 745.319 Q37.6183 745.319 35.1038 747.293 Q32.5894 749.266 32.5894 753.213 Q32.5894 757.955 35.6131 760.692 Q38.6368 763.43 43.8567 763.43 L64.0042 763.43 L64.0042 769.318 L28.3562 769.318 L28.3562 763.43 L33.8944 763.43 Q30.6797 761.329 29.0883 758.496 Q27.4968 755.632 27.4968 751.908 Q27.4968 745.765 31.3163 742.614 Q35.1038 739.463 42.4881 739.463 Z" fill="#000000" fill-rule="evenodd" fill-opacity="1" /><path clip-path="url(#clip010)" d="M29.4065 705.056 L34.9447 705.056 Q33.6716 707.539 33.035 710.212 Q32.3984 712.886 32.3984 715.75 Q32.3984 720.111 33.7352 722.307 Q35.072 724.471 37.7456 724.471 Q39.7826 724.471 40.9603 722.912 Q42.1061 721.352 43.1565 716.642 L43.6021 714.636 Q44.9389 708.398 47.3897 705.788 Q49.8086 703.146 54.1691 703.146 Q59.1344 703.146 62.0308 707.093 Q64.9272 711.008 64.9272 717.883 Q64.9272 720.748 64.3543 723.867 Q63.8132 726.954 62.6992 730.392 L56.6518 730.392 Q58.3387 727.145 59.198 723.994 Q60.0256 720.843 60.0256 717.756 Q60.0256 713.618 58.6251 711.39 Q57.1929 709.162 54.6147 709.162 Q52.2276 709.162 50.9545 710.785 Q49.6813 712.377 48.5037 717.819 L48.0262 719.856 Q46.8804 725.299 44.5251 727.718 Q42.138 730.137 38.0002 730.137 Q32.9713 730.137 30.2341 726.572 Q27.4968 723.007 27.4968 716.451 Q27.4968 713.204 27.9743 710.34 Q28.4517 707.475 29.4065 705.056 Z" fill="#000000" fill-rule="evenodd" fill-opacity="1" /><path clip-path="url(#clip010)" d="M28.3562 693.821 L28.3562 687.964 L64.0042 687.964 L64.0042 693.821 L28.3562 693.821 M14.479 693.821 L14.479 687.964 L21.895 687.964 L21.895 693.821 L14.479 693.821 Z" fill="#000000" fill-rule="evenodd" fill-opacity="1" /><path clip-path="url(#clip010)" d="M18.2347 669.917 L28.3562 669.917 L28.3562 657.854 L32.9077 657.854 L32.9077 669.917 L52.2594 669.917 Q56.6199 669.917 57.8613 668.74 Q59.1026 667.53 59.1026 663.87 L59.1026 657.854 L64.0042 657.854 L64.0042 663.87 Q64.0042 670.649 61.4897 673.228 Q58.9434 675.806 52.2594 675.806 L32.9077 675.806 L32.9077 680.102 L28.3562 680.102 L28.3562 675.806 L18.2347 675.806 L18.2347 669.917 Z" fill="#000000" fill-rule="evenodd" fill-opacity="1" /><path clip-path="url(#clip010)" d="M67.3143 635.32 Q73.68 637.802 75.6216 640.158 Q77.5631 642.513 77.5631 646.46 L77.5631 651.139 L72.6615 651.139 L72.6615 647.701 Q72.6615 645.282 71.5157 643.945 Q70.3699 642.608 66.1048 640.985 L63.4312 639.935 L28.3562 654.353 L28.3562 648.147 L56.238 637.007 L28.3562 625.867 L28.3562 619.66 L67.3143 635.32 Z" fill="#000000" fill-rule="evenodd" fill-opacity="1" /><polyline clip-path="url(#clip013)" style="stroke:#009af9; stroke-linecap:butt; stroke-linejoin:round; stroke-width:8; stroke-opacity:1; fill:none" points="
  269.428,86.4227 274.568,735.021 279.708,952.469 284.849,1061.58 289.989,1127.21 295.13,1171.06 300.27,1202.43 305.41,1225.99 310.551,1244.34 315.691,1259.04 
  320.832,1271.07 325.972,1281.11 336.253,1296.91 346.534,1308.77 356.814,1318.01 367.095,1325.41 377.376,1331.47 387.657,1336.52 408.218,1344.48 428.78,1350.45 
  449.341,1355.1 469.903,1358.83 490.465,1361.88 511.026,1364.42 552.149,1368.43 593.272,1371.43 634.396,1373.78 675.519,1375.65 716.642,1377.19 757.765,1378.47 
  798.888,1379.55 840.011,1380.49 881.134,1381.29 922.257,1382 1302.5,1385.89 1682.74,1387.7 2062.99,1388.75 2443.23,1389.43 3203.71,1390.27 3964.2,1390.76 
  5485.17,1391.31 7006.14,1391.6 8834.22,1391.82 10662.3,1391.96 12207.9,1392.04 13753.5,1392.1 17111.5,1392.19 20207.2,1392.24 23526.2,1392.28 27371.5,1392.31 
  30788.8,1392.32 33785.4,1392.34 37052.6,1392.35 40339.1,1392.35 43972.9,1392.36 47430.3,1392.36 51025.1,1392.37 54051.3,1392.37 57745.8,1392.37 61218.8,1392.37 
  66782.8,1392.38 67639.1,1392.38 
  "/>
</svg>
